<?xml version="1.0" encoding="utf-8"?>
<!-- Generator: Adobe Illustrator 25.4.1, SVG Export Plug-In . SVG Version: 6.00 Build 0)  -->
<svg version="1.1" xmlns="http://www.w3.org/2000/svg" xmlns:xlink="http://www.w3.org/1999/xlink" x="0px" y="0px"
	 viewBox="0 0 1241.7 404.2" style="enable-background:new 0 0 1241.7 404.2;" xml:space="preserve">
<style type="text/css">
	.st0{fill:none;stroke:#93398C;stroke-width:3;stroke-miterlimit:10;}
	.st1{fill:none;stroke:#F2C711;stroke-width:3;stroke-miterlimit:10;}
	.st2{fill:none;stroke:#933B8D;stroke-width:3;stroke-miterlimit:10;}
	.st3{fill:none;stroke:#F2C709;stroke-width:3;stroke-miterlimit:10;}
	.st4{fill:#F5F3F2;stroke:#93398C;stroke-width:3;stroke-miterlimit:10;}
	.st5{fill:#F5F3F2;stroke:#F2C711;stroke-width:3;stroke-miterlimit:10;}
</style>
<g id="lines">
	<g id="pipes">
		<g id="methanol">
			<polyline class="st0" points="908.5,98 908.5,175 777.5,175 777.5,231 			"/>
			<line class="st0" x1="777.5" y1="355" x2="777.5" y2="242"/>
			<polyline class="st0" points="194.5,355 908.5,355 908.5,236 			"/>
		</g>
		<g id="gas">
			<polyline class="st1" points="1113.5,98 746.5,98 746.5,236 			"/>
			<polyline class="st1" points="1111.5,236 274.5,236 274.5,343 228.5,343 			"/>
		</g>
	</g>
	<g id="arrows">
		<g id="methanol_00000017499177765999547110000004692805457166367907_">
			<polyline class="st2" points="413.5,362 420.5,355 413.5,349 			"/>
			<polyline class="st2" points="630.5,362 637.5,355 630.5,349 			"/>
			<polyline class="st0" points="770.5,198 777.5,190 784.5,198 			"/>
		</g>
		<g id="gas_00000181791645510919408480000001508528604665350074_">
			<polyline class="st3" points="753.5,193 746.5,201 739.5,193 			"/>
			<polyline class="st3" points="421.5,243 413.5,236 421.5,229 			"/>
			<polyline class="st3" points="638.5,243 630.5,236 638.5,229 			"/>
		</g>
	</g>
	<g id="arc">
		<g id="methanol_00000088835071401046716390000018034930008121431169_">
			<path class="st0" d="M777.5,216v14c-3.3,0-7,2.5-7,6c0,3.5,2.7,7,7,7v10"/>
		</g>
		<g id="gas_00000023277163111697319350000006820493815660171150_">
		</g>
	</g>
	<g id="points">
		<g id="methanol_00000116226266014739984290000004415751384931828666_">
			<circle class="st4" cx="908.5" cy="98" r="4.5"/>
			<circle class="st4" cx="777.5" cy="355" r="4.5"/>
			<circle class="st4" cx="908.5" cy="236" r="4.5"/>
		</g>
		<g id="gas_00000150098098206018795060000009596324627341115303_">
			<circle class="st5" cx="746.5" cy="236" r="4.5"/>
		</g>
	</g>
</g>
<g id="SimpleElements">
	<g id="multi-tit-elem">
		
			<image style="overflow:visible;" width="114" height="64" id="id1" xlink:href="../../../../../Users/evgen/OneDrive/Рабочий стол/workspace/_work/arh/Elements/multi-tit-elem/pub/multi-tit_titcount-2_no-arroworient.png"  transform="matrix(1 0 0 1 361.5 154)">
		</image>
		
			<image style="overflow:visible;" width="114" height="64" id="id2" xlink:href="../../../../../Users/evgen/OneDrive/Рабочий стол/workspace/_work/arh/Elements/multi-tit-elem/pub/multi-tit_titcount-2_no-arroworient.png"  transform="matrix(1 0 0 1 361.5 274)">
		</image>
		
			<image style="overflow:visible;" width="114" height="64" id="id3" xlink:href="../../../../../Users/evgen/OneDrive/Рабочий стол/workspace/_work/arh/Elements/multi-tit-elem/pub/multi-tit_titcount-2_no-arroworient.png"  transform="matrix(1 0 0 1 574.5 154)">
		</image>
		
			<image style="overflow:visible;" width="114" height="64" id="id4" xlink:href="../../../../../Users/evgen/OneDrive/Рабочий стол/workspace/_work/arh/Elements/multi-tit-elem/pub/multi-tit_titcount-2_no-arroworient.png"  transform="matrix(1 0 0 1 984.5 14)">
		</image>
		
			<image style="overflow:visible;" width="114" height="64" id="id5" xlink:href="../../../../../Users/evgen/OneDrive/Рабочий стол/workspace/_work/arh/Elements/multi-tit-elem/pub/multi-tit_titcount-2_no-arroworient.png"  transform="matrix(1 0 0 1 984.5 154)">
		</image>
	</g>
	<g id="valve-mini-unactive-elem">
		
			<image style="overflow:visible;" width="38" height="57" id="id6" xlink:href="../../../../../Users/evgen/OneDrive/Рабочий стол/workspace/_work/arh/Elements/valve-mini-unactive-elem/pub/valve-mini-unactive_h_caption.png"  transform="matrix(1 0 0 1 302.5 207.5)">
		</image>
		
			<image style="overflow:visible;" width="38" height="57" id="id7" xlink:href="../../../../../Users/evgen/OneDrive/Рабочий стол/workspace/_work/arh/Elements/valve-mini-unactive-elem/pub/valve-mini-unactive_h_caption.png"  transform="matrix(1 0 0 1 791.5 207.5)">
		</image>
		
			<image style="overflow:visible;" width="38" height="57" id="id8" xlink:href="../../../../../Users/evgen/OneDrive/Рабочий стол/workspace/_work/arh/Elements/valve-mini-unactive-elem/pub/valve-mini-unactive_h_caption.png"  transform="matrix(1 0 0 1 843 148.5)">
		</image>
		
			<image style="overflow:visible;" width="38" height="57" id="id9" xlink:href="../../../../../Users/evgen/OneDrive/Рабочий стол/workspace/_work/arh/Elements/valve-mini-unactive-elem/pub/valve-mini-unactive_h_caption.png"  transform="matrix(1 0 0 1 843 327.5)">
		</image>
		
			<image style="overflow:visible;" width="38" height="57" id="id10" xlink:href="../../../../../Users/evgen/OneDrive/Рабочий стол/workspace/_work/arh/Elements/valve-mini-unactive-elem/pub/valve-mini-unactive_h_caption.png"  transform="matrix(1 0 0 1 935.5 208.5)">
		</image>
		
			<image style="overflow:visible;" width="69" height="38" id="id11" xlink:href="../../../../../Users/evgen/OneDrive/Рабочий стол/workspace/_work/arh/Elements/valve-mini-unactive-elem/pub/valve-mini-unactive_v_caption.png"  transform="matrix(1 0 0 1 721 114.5)">
		</image>
	</g>
	<g id="transition-button-elem">
		
			<image style="overflow:visible;" width="119" height="34" id="id12" xlink:href="../../../../../Users/evgen/OneDrive/Рабочий стол/workspace/_work/arh/Elements/transition-button-elem/pub/transition-button_arrowdirection-1.png"  transform="matrix(1 0 0 1 1111.5 81.5)">
		</image>
		
			<image style="overflow:visible;" width="119" height="34" id="id13" xlink:href="../../../../../Users/evgen/OneDrive/Рабочий стол/workspace/_work/arh/Elements/transition-button-elem/pub/transition-button_arrowdirection-1.png"  transform="matrix(1 0 0 1 1111.5 219.5)">
		</image>
	</g>
	<g id="valve-n-elem">
		
			<image style="overflow:visible;" width="71" height="89" id="id14" xlink:href="../../../../../Users/evgen/OneDrive/Рабочий стол/workspace/_work/arh/Elements/valve-n-elem/pub/valve-n_h_caption.png"  transform="matrix(1 0 0 1 489.5 190)">
		</image>
		
			<image style="overflow:visible;" width="71" height="89" id="id15" xlink:href="../../../../../Users/evgen/OneDrive/Рабочий стол/workspace/_work/arh/Elements/valve-n-elem/pub/valve-n_h_caption.png"  transform="matrix(1 0 0 1 489.5 308)">
		</image>
	</g>
	<g id="ukpg-elem">
		
			<image style="overflow:visible;" width="404" height="279" id="id16" xlink:href="../../../../../Users/evgen/OneDrive/Рабочий стол/workspace/_work/arh/Elements/ukpg-elem/pub/default.png"  transform="matrix(0.6287 0 0 0.6287 10.5 197.2946)">
		</image>
	</g>
</g>
<g id="helpers">
</g>
</svg>
