<?xml version="1.0" encoding="utf-8"?>
<!-- Generator: Adobe Illustrator 25.4.1, SVG Export Plug-In . SVG Version: 6.00 Build 0)  -->
<svg version="1.1" xmlns="http://www.w3.org/2000/svg" xmlns:xlink="http://www.w3.org/1999/xlink" x="0px" y="0px"
	 viewBox="0 0 2502.2 998.8" style="enable-background:new 0 0 2502.2 998.8;" xml:space="preserve">
<style type="text/css">
	.st0{fill:none;stroke:#757474;stroke-width:3;stroke-miterlimit:10;}
	.st1{fill:none;stroke:#F3C811;stroke-width:3;stroke-miterlimit:10;}
	.st2{fill:#FFFFFF;stroke:#757474;stroke-width:3;stroke-miterlimit:10;}
	.st3{display:none;}
	.st4{display:inline;}
	.st5{fill:#757474;}
	.st6{display:inline;fill:#575A63;}
	.st7{font-family:'UbuntuCondensed-Regular';}
	.st8{font-size:17px;}
	.st9{letter-spacing:-1;}
	.st10{fill:#627189;}
	.st11{fill:#627189;stroke:#E9E9E9;stroke-width:1.5;stroke-miterlimit:10;}
	.st12{fill:#FFFFFF;}
	.st13{font-size:19.5485px;}
	.st14{letter-spacing:-1.3;}
	.st15{opacity:0.6;fill:#CCCCDB;}
	.st16{fill:#AAAAAD;}
	.st17{fill:#575A63;}
	.st18{font-size:14px;}
	.st19{fill:#7FAFAE;}
	.st20{opacity:0.3;fill:#7FAFAE;}
	.st21{fill:#A6A9A9;}
	.st22{fill:#1B262C;}
	.st23{font-size:10px;}
	.st24{fill:#FFFFFF;stroke:#6C6E7A;stroke-miterlimit:10;}
	.st25{font-size:18.9999px;}
	.st26{font-size:14.9999px;}
	.st27{fill:#6D6F7A;}
	.st28{font-size:20.9999px;}
	.st29{fill:#2F3342;}
	.st30{fill:#13E54A;}
	.st31{font-size:20px;}
	.st32{fill:#F59B1B;}
	.st33{fill:none;stroke:#575A63;stroke-miterlimit:10;stroke-dasharray:12.0035,12.0035;}
	.st34{fill:none;stroke:#575A63;stroke-miterlimit:10;stroke-dasharray:12.024,12.024;}
	.st35{fill:none;stroke:#575A63;stroke-miterlimit:10;stroke-dasharray:11.9689,11.9689;}
	.st36{fill:none;stroke:#575A63;stroke-miterlimit:10;stroke-dasharray:12;}
	.st37{font-size:25px;}
</style>
<g id="lines">
	<g id="arrows">
		<g id="drainage">
			<polyline class="st0" points="780,144 788,151 780,158 			"/>
			<polyline class="st0" points="807,88 814,80 821,88 			"/>
			<polyline class="st0" points="1639,88 1646,80 1653,88 			"/>
			<polyline class="st0" points="2480,80 2473,88 2466,80 			"/>
			<polyline class="st0" points="2466,219 2473,211 2480,219 			"/>
			<polyline class="st0" points="780,321 788,328 780,335 			"/>
			<polyline class="st0" points="780,497 788,504 780,511 			"/>
			<polyline class="st0" points="780,674 788,681 780,688 			"/>
			<polyline class="st0" points="780,907 788,914 780,921 			"/>
			<polyline class="st0" points="1617,144 1625,151 1617,158 			"/>
			<polyline class="st0" points="1617,321 1625,328 1617,335 			"/>
			<polyline class="st0" points="1617,497 1625,504 1617,511 			"/>
			<polyline class="st0" points="1617,674 1625,681 1617,688 			"/>
			<polyline class="st0" points="1617,907 1625,914 1617,921 			"/>
			<polyline class="st0" points="2438,390 2446,397 2438,404 			"/>
			<polyline class="st0" points="2446,157 2438,150 2446,143 			"/>
			<polyline class="st0" points="2438,630 2446,637 2438,644 			"/>
			<polyline class="st0" points="2438,906 2446,913 2438,920 			"/>
		</g>
		<g id="gas_00000119088827766520550410000002057472004365974667_">
		</g>
	</g>
	<g id="pipes">
		<g id="drainage_00000021799966451566066960000005836581369955694244_">
			<line class="st0" x1="72" y1="151" x2="814" y2="151"/>
			<line class="st0" x1="82" y1="328" x2="813" y2="328"/>
			<line class="st0" x1="66" y1="504" x2="813" y2="504"/>
			<line class="st0" x1="99" y1="681" x2="815" y2="681"/>
			<polyline class="st0" points="41,914 814,914 814,11 2475,11 			"/>
			<line class="st0" x1="914" y1="150" x2="1646" y2="150"/>
			<line class="st0" x1="914" y1="328" x2="1645" y2="328"/>
			<line class="st0" x1="898" y1="504" x2="1645" y2="504"/>
			<line class="st0" x1="871" y1="681" x2="1647" y2="681"/>
			<polyline class="st0" points="873,914 1646,914 1646,12 			"/>
			<line class="st0" x1="1784" y1="150" x2="2474" y2="150"/>
			<line class="st0" x1="1734" y1="397" x2="2472" y2="397"/>
			<line class="st0" x1="1730" y1="637" x2="2471" y2="637"/>
			<polyline class="st0" points="1698,913 2473,913 2473,10 			"/>
		</g>
		<g id="gas">
			<polyline class="st1" points="235,111 38,111 38,60 			"/>
			<polyline class="st1" points="226,290 38,290 38,240 			"/>
			<polyline class="st1" points="231,460 38,460 38,409 			"/>
			<polyline class="st1" points="225,644 38,644 38,591 			"/>
			<polyline class="st1" points="229,883 38,883 38,834 			"/>
			<polyline class="st1" points="1067,110 867,110 867,60 			"/>
			<polyline class="st1" points="1058,290 867,290 867,240 			"/>
			<polyline class="st1" points="1063,459 867,459 867,409 			"/>
			<polyline class="st1" points="1057,643 867,643 867,593 			"/>
			<polyline class="st1" points="1061,883 866,883 866,834 			"/>
			<polyline class="st1" points="1919,359 1707,359 1707,309 			"/>
			<polyline class="st1" points="1924,592 1706,592 1706,547 			"/>
			<polyline class="st1" points="1924,883 1706,883 1706,834 			"/>
		</g>
	</g>
	<g id="points">
		<g id="drainage_00000152957520001958588570000004596370182151938979_">
			<circle class="st2" cx="813" cy="150" r="4.5"/>
			<circle class="st2" cx="813" cy="328" r="4.5"/>
			<circle class="st2" cx="813" cy="504" r="4.5"/>
			<circle class="st2" cx="814" cy="681" r="4.5"/>
			<circle class="st2" cx="1646" cy="150" r="4.5"/>
			<circle class="st2" cx="1646" cy="12" r="4.5"/>
			<circle class="st2" cx="1646" cy="328" r="4.5"/>
			<circle class="st2" cx="1646" cy="504" r="4.5"/>
			<circle class="st2" cx="1646" cy="681" r="4.5"/>
			<circle class="st2" cx="2472" cy="150" r="4.5"/>
			<circle class="st2" cx="2472" cy="398" r="4.5"/>
			<circle class="st2" cx="2472" cy="637" r="4.5"/>
		</g>
	</g>
	<g id="arc">
		<g id="drainage_00000034799863065050239410000015338880556597239424_">
		</g>
	</g>
</g>
<g id="_x31_">
	<g id="Слой_3">
	</g>
	<g id="Слой_91">
	</g>
	<g id="Слой_90">
	</g>
	<g id="Слой_92">
	</g>
	<g id="Слой_28">
	</g>
	<g id="Слой_89">
	</g>
	<g id="Слой_88" class="st3">
		<g class="st4">
			<path class="st5" d="M2368.1,397v10.1c0,0.3-0.2,0.5-0.5,0.5h-3.8c-0.3,0-0.5-0.2-0.5-0.5V397v-10.1c0-0.3,0.2-0.5,0.5-0.5h3.8
				c0.3,0,0.5,0.2,0.5,0.5V397z"/>
			<path class="st5" d="M2415.2,397v10.1c0,0.3,0.2,0.5,0.5,0.5l3.8,0c0.3,0,0.5-0.2,0.5-0.5V397v-10.1c0-0.3-0.2-0.5-0.5-0.5h-3.8
				c-0.3,0-0.5,0.2-0.5,0.5V397z"/>
			<path class="st5" d="M2391.6,411c3.8,0,7.3-1.5,9.8-4c1.6-1.6,3.9-2.5,6.2-2.5h4.6c0.3,0,0.5-0.2,0.5-0.5v-13.9
				c0-0.3-0.2-0.5-0.5-0.5h-4.7c-2.3,0-4.5-1-6.1-2.6c-0.8-0.8-1.7-1.5-2.7-2l-6.9,0h-6.9c-1,0.6-1.9,1.2-2.7,2
				c-1.7,1.6-3.8,2.6-6.1,2.6h-4.7c-0.3,0-0.5,0.2-0.5,0.5V404c0,0.3,0.2,0.5,0.5,0.5h4.5c2.3,0,4.5,0.9,6.2,2.5
				C2384.3,409.5,2387.8,411,2391.6,411"/>
			<path class="st5" d="M2412.5,360.3l-20.9,0l-20.9,0c-0.3,0-0.5,0.2-0.5,0.5v2.2c0,0.3,0.2,0.5,0.5,0.5h3c0.3,0,0.6,0.1,0.9,0.3
				l13.4,8.8c0.3,0.2,0.5,0.6,0.5,1v2.2c0,0.5-0.4,0.9-0.9,0.9h-2.3c-0.3,0-0.5,0.2-0.5,0.5v4.6c0,0.3,0.2,0.5,0.5,0.5h6.2h6.2
				c0.3,0,0.5-0.2,0.5-0.5l0-4.6c0-0.3-0.2-0.5-0.6-0.5l-2.3,0c-0.5,0-0.9-0.4-0.9-0.9v-2.2c0-0.4,0.2-0.8,0.5-1l13.4-8.8
				c0.3-0.2,0.6-0.3,0.9-0.3h3.1c0.3,0,0.5-0.2,0.5-0.5v-2.2C2413,360.5,2412.8,360.3,2412.5,360.3 M2395.5,368.7
				c-0.2,0.2-0.5,0.2-0.8,0.2h-3.1h-3.1c-0.3,0-0.6-0.1-0.8-0.2l-7.7-5.1l11.6,0h11.6L2395.5,368.7z"/>
		</g>
		<text transform="matrix(1 0 0 1 2379.1404 434.146)" class="st6 st7 st8 st9">Зд  2</text>
	</g>
	<g id="Слой_42">
	</g>
	<g id="Слой_87">
	</g>
	<g id="Слой_43">
	</g>
	<g id="Слой_86">
	</g>
	<g id="Слой_85">
	</g>
	<g id="Слой_93">
	</g>
	<g id="Слой_44">
	</g>
	<g id="Слой_84">
	</g>
	<g id="Слой_83">
	</g>
	<g id="Слой_45">
	</g>
	<g id="Слой_82">
	</g>
	<g id="Слой_46">
	</g>
	<g id="Слой_81">
	</g>
	<g id="Слой_80">
	</g>
	<g id="Слой_94">
	</g>
	<g id="Слой_29">
	</g>
	<g id="Слой_79">
	</g>
	<g id="Слой_78">
	</g>
	<g id="Слой_30">
	</g>
	<g id="Слой_77">
	</g>
	<g id="Слой_103">
	</g>
	<g id="Слой_31">
	</g>
	<g id="Слой_76">
	</g>
	<g id="Слой_75">
	</g>
	<g id="barrel">
		<path class="st10" d="M233.1,209.7c-8.4,0-15.2-26.2-15.3-58.6c-0.1-32.4,6.6-58.7,15-58.7L233.1,209.7z"/>
		<path class="st10" d="M542.8,209.4c8.4,0,15.1-26.2,15-58.5c-0.1-32.3-6.9-58.5-15.3-58.5L542.8,209.4z"/>
		<rect x="242.6" y="92.4" class="st10" width="289.9" height="117.3"/>
		<rect x="532.3" y="86.9" class="st11" width="9.5" height="126.5"/>
		<rect x="232.8" y="86.9" class="st11" width="9.5" height="126.5"/>
		<text transform="matrix(0.7994 0 0 1 361.9306 112.582)" class="st12 st7 st13 st14">Е  1.1</text>
		<path class="st10" d="M1065.1,209.7c-8.4,0-15.2-26.2-15.3-58.6c-0.1-32.4,6.6-58.7,15-58.7L1065.1,209.7z"/>
		<path class="st10" d="M1374.8,209.4c8.4,0,15.1-26.2,15-58.5c-0.1-32.3-6.9-58.5-15.3-58.5L1374.8,209.4z"/>
		<rect x="1074.6" y="92.4" class="st10" width="289.9" height="117.3"/>
		<rect x="1364.3" y="86.9" class="st11" width="9.5" height="126.5"/>
		<rect x="1064.8" y="86.9" class="st11" width="9.5" height="126.5"/>
		<text transform="matrix(0.7994 0 0 1 1193.9305 112.582)" class="st12 st7 st13 st14">Е  2.1</text>
		<path class="st10" d="M1927.1,209.7c-8.4,0-15.2-26.2-15.3-58.6c-0.1-32.4,6.6-58.7,15-58.7L1927.1,209.7z"/>
		<path class="st10" d="M2161.8,209.4c8.4,0,15.1-26.2,15-58.5c-0.1-32.3-6.9-58.5-15.3-58.5L2161.8,209.4z"/>
		<rect x="1936.6" y="92.4" class="st10" width="214.9" height="117.3"/>
		<rect x="2151.3" y="86.9" class="st11" width="9.5" height="126.5"/>
		<rect x="1926.8" y="86.9" class="st11" width="9.5" height="126.5"/>
		<text transform="matrix(0.7994 0 0 1 2023.2352 112.582)" class="st12 st7 st13 st14">Е  11</text>
		<g id="Слой_16">
			<path class="st15" d="M511.6,200.5h-62.8c-1.4,0-2.6-1.2-2.6-2.6v-83.1c0-1.4,1.2-2.6,2.6-2.6h62.8c1.4,0,2.6,1.2,2.6,2.6v83.1
				C514.2,199.4,513,200.5,511.6,200.5z"/>
			<ellipse class="st5" cx="481" cy="163.9" rx="18.1" ry="17.4"/>
			<ellipse class="st16" cx="481" cy="163.9" rx="5.5" ry="5.2"/>
			<ellipse class="st5" cx="481" cy="163.9" rx="1.4" ry="1.4"/>
			<path class="st5" d="M470.2,116.7h8.5c0.3,0,0.5,0.2,0.5,0.4v3.1c0,0.2-0.2,0.4-0.5,0.4h-8.5h-8.5c-0.3,0-0.5-0.2-0.5-0.4v-3.1
				c0-0.2,0.2-0.4,0.5-0.4H470.2z"/>
			<path class="st5" d="M463.9,152.4c2.5-3.6,7.1-6.4,12.6-7.5l-0.1-22c0-0.2-0.2-0.3-0.5-0.3l-11.7,0.1c-0.3,0-0.5,0.1-0.5,0.3
				L463.9,152.4"/>
			<text transform="matrix(1.0552 -4.938477e-03 5.210000e-03 1 461.9321 196.9357)" class="st17 st7 st18">18.1 Н.1</text>
			<path class="st15" d="M1343.6,200.5h-62.8c-1.4,0-2.6-1.2-2.6-2.6v-83.1c0-1.4,1.2-2.6,2.6-2.6h62.8c1.4,0,2.6,1.2,2.6,2.6v83.1
				C1346.2,199.4,1345,200.5,1343.6,200.5z"/>
			<ellipse class="st5" cx="1313" cy="163.9" rx="18.1" ry="17.4"/>
			<ellipse class="st16" cx="1313" cy="163.9" rx="5.5" ry="5.2"/>
			<ellipse class="st5" cx="1313" cy="163.9" rx="1.4" ry="1.4"/>
			<path class="st5" d="M1302.2,116.7h8.5c0.3,0,0.5,0.2,0.5,0.4v3.1c0,0.2-0.2,0.4-0.5,0.4h-8.5h-8.5c-0.3,0-0.5-0.2-0.5-0.4v-3.1
				c0-0.2,0.2-0.4,0.5-0.4H1302.2z"/>
			<path class="st5" d="M1295.9,152.4c2.5-3.6,7.1-6.4,12.6-7.5l-0.1-22c0-0.2-0.2-0.3-0.5-0.3l-11.7,0.1c-0.3,0-0.5,0.1-0.5,0.3
				L1295.9,152.4"/>
			<text transform="matrix(1.0552 -4.938477e-03 5.210000e-03 1 1299.0951 196.9115)" class="st17 st7 st18">19 1Н</text>
		</g>
		<g id="Слой_17">
			<path class="st19" d="M310,189.1c0,7.9-5.1,12.4-11.2,12.4h-27.3c-6.2,0-11.2-4.5-11.2-12.4v-73.4c0-7.9,5.1-12.4,11.2-12.4h27.3
				c6.2,0,11.2,4.5,11.2,12.4V189.1z M298.8,199.1c5.2,0,9.4-3.4,9.4-10v-73.4c0-6.6-4.2-10-9.4-10h-27.3c-5.2,0-9.4,3.4-9.4,10
				v73.4c0,6.6,4.2,10,9.4,10H298.8z"/>
			<path id="белый_00000119840181169791197640000017622284633318941343_" class="st12" d="M271.5,199.1c-5.2,0-9.4-3.4-9.4-10
				v-73.4c0-6.6,4.2-10,9.4-10h27.3c5.2,0,9.4,3.4,9.4,10v73.4c0,6.6-4.2,10-9.4,10H271.5z"/>
			<path class="st20" d="M271,199.1c-5.2,0-9.4-3.4-9.4-10v-73.4c0-6.6,4.2-10,9.4-10h27.3c5.2,0,9.4,3.4,9.4,10v73.4
				c0,6.6-4.2,10-9.4,10H271z"/>
			<rect x="267.6" y="109.5" class="st21" width="14.4" height="86.7"/>
			<rect x="267.6" y="109.5" class="st21" width="17.5" height="3.5"/>
			<rect x="267.6" y="136.4" class="st21" width="17.5" height="3.5"/>
			<rect x="267.6" y="164.6" class="st21" width="17.5" height="3.5"/>
			<rect x="267.6" y="192.9" class="st5" width="17.5" height="3.5"/>
			<rect x="267.6" y="180.5" class="st5" width="14.4" height="15.9"/>
			<text transform="matrix(1 -2.470000e-03 2.470000e-03 1 290.1136 184.5175)" class="st22 st7 st23">165</text>
			<path class="st19" d="M1142,189.1c0,7.9-5.1,12.4-11.2,12.4h-27.3c-6.2,0-11.2-4.5-11.2-12.4v-73.4c0-7.9,5.1-12.4,11.2-12.4
				h27.3c6.2,0,11.2,4.5,11.2,12.4V189.1z M1130.8,199.1c5.2,0,9.4-3.4,9.4-10v-73.4c0-6.6-4.2-10-9.4-10h-27.3
				c-5.2,0-9.4,3.4-9.4,10v73.4c0,6.6,4.2,10,9.4,10H1130.8z"/>
			<path id="белый_00000088124035410013572560000007104918024240474497_" class="st12" d="M1103.5,199.1c-5.2,0-9.4-3.4-9.4-10
				v-73.4c0-6.6,4.2-10,9.4-10h27.3c5.2,0,9.4,3.4,9.4,10v73.4c0,6.6-4.2,10-9.4,10H1103.5z"/>
			<path class="st20" d="M1103,199.1c-5.2,0-9.4-3.4-9.4-10v-73.4c0-6.6,4.2-10,9.4-10h27.3c5.2,0,9.4,3.4,9.4,10v73.4
				c0,6.6-4.2,10-9.4,10H1103z"/>
			<rect x="1099.6" y="109.5" class="st21" width="14.4" height="86.7"/>
			<rect x="1099.6" y="109.5" class="st21" width="17.5" height="3.5"/>
			<rect x="1099.6" y="136.4" class="st21" width="17.5" height="3.5"/>
			<rect x="1099.6" y="164.6" class="st21" width="17.5" height="3.5"/>
			<rect x="1099.6" y="192.9" class="st5" width="17.5" height="3.5"/>
			<rect x="1099.6" y="180.5" class="st5" width="14.4" height="15.9"/>
			<text transform="matrix(1 -2.470000e-03 2.470000e-03 1 1122.1136 184.5175)" class="st22 st7 st23">165</text>
			<path class="st19" d="M2006,189.1c0,7.9-5.1,12.4-11.2,12.4h-27.3c-6.2,0-11.2-4.5-11.2-12.4v-73.4c0-7.9,5.1-12.4,11.2-12.4
				h27.3c6.2,0,11.2,4.5,11.2,12.4V189.1z M1994.8,199.1c5.2,0,9.4-3.4,9.4-10v-73.4c0-6.6-4.2-10-9.4-10h-27.3
				c-5.2,0-9.4,3.4-9.4,10v73.4c0,6.6,4.2,10,9.4,10H1994.8z"/>
			<path id="белый_00000144334974752933329630000012605224133574495877_" class="st12" d="M1967.5,199.1c-5.2,0-9.4-3.4-9.4-10
				v-73.4c0-6.6,4.2-10,9.4-10h27.3c5.2,0,9.4,3.4,9.4,10v73.4c0,6.6-4.2,10-9.4,10H1967.5z"/>
			<path class="st20" d="M1967,199.1c-5.2,0-9.4-3.4-9.4-10v-73.4c0-6.6,4.2-10,9.4-10h27.3c5.2,0,9.4,3.4,9.4,10v73.4
				c0,6.6-4.2,10-9.4,10H1967z"/>
			<rect x="1963.6" y="109.5" class="st21" width="14.4" height="86.7"/>
			<rect x="1963.6" y="109.5" class="st21" width="17.5" height="3.5"/>
			<rect x="1963.6" y="136.4" class="st21" width="17.5" height="3.5"/>
			<rect x="1963.6" y="164.6" class="st21" width="17.5" height="3.5"/>
			<rect x="1963.6" y="192.9" class="st5" width="17.5" height="3.5"/>
			<rect x="1963.6" y="180.5" class="st5" width="14.4" height="15.9"/>
			<text transform="matrix(1 -2.470000e-03 2.470000e-03 1 1986.1136 184.5175)" class="st22 st7 st23">165</text>
		</g>
		<g id="Слой_18">
			<path class="st24" d="M435,146.9v-21.3c0-0.9-1.7-1.6-3.9-1.6l-106.2,0.1c-2.1,0-3.9,0.7-3.9,1.6l0,2.1l0,26.6
				c0,0.9,1.7,1.6,3.9,1.6l106.2-0.1c2.1,0,3.9-0.7,3.9-1.6L435,146.9z"/>
			<text transform="matrix(1 -2.470000e-03 2.470000e-03 1 329.2105 147.4939)" class="st22 st7 st25">T</text>
			<text transform="matrix(1 -2.470000e-03 2.470000e-03 1 337.2636 147.5139)" class="st22 st7 st26">, °C</text>
			
				<rect x="424.1" y="128.4" transform="matrix(1 -2.538367e-03 2.538367e-03 1 -0.3394 1.0824)" class="st27" width="4.3" height="11.8"/>
			
				<rect x="424.1" y="140.1" transform="matrix(1 -2.539010e-03 2.539010e-03 1 -0.3694 1.0828)" class="st27" width="4.3" height="11.8"/>
			<text transform="matrix(1 -2.470000e-03 2.470000e-03 1 374.6442 147.4734)" class="st22 st7 st28">-30,39</text>
			<path class="st24" d="M1267,146.9v-21.3c0-0.9-1.7-1.6-3.9-1.6l-106.2,0.1c-2.1,0-3.9,0.7-3.9,1.6l0,2.1l0,26.6
				c0,0.9,1.7,1.6,3.9,1.6l106.2-0.1c2.1,0,3.9-0.7,3.9-1.6L1267,146.9z"/>
			<text transform="matrix(1 -2.470000e-03 2.470000e-03 1 1161.2104 147.4939)" class="st22 st7 st25">T</text>
			<text transform="matrix(1 -2.470000e-03 2.470000e-03 1 1169.2635 147.5139)" class="st22 st7 st26">, °C</text>
			
				<rect x="1256.1" y="128.4" transform="matrix(1 -2.538367e-03 2.538367e-03 1 -0.3367 3.1944)" class="st27" width="4.3" height="11.8"/>
			
				<rect x="1256.1" y="140.1" transform="matrix(1 -2.539010e-03 2.539010e-03 1 -0.3667 3.1953)" class="st27" width="4.3" height="11.8"/>
			<text transform="matrix(1 -2.470000e-03 2.470000e-03 1 1206.6442 147.4734)" class="st22 st7 st28">-30,39</text>
			<path class="st24" d="M2130,159.9v-21.3c0-0.9-1.7-1.6-3.9-1.6l-106.2,0.1c-2.1,0-3.9,0.7-3.9,1.6l0,2.1l0,26.6
				c0,0.9,1.7,1.6,3.9,1.6l106.2-0.1c2.1,0,3.9-0.7,3.9-1.6L2130,159.9z"/>
			<text transform="matrix(1 -2.470000e-03 2.470000e-03 1 2024.2104 160.4939)" class="st22 st7 st25">T</text>
			<text transform="matrix(1 -2.470000e-03 2.470000e-03 1 2032.2635 160.5139)" class="st22 st7 st26">, °C</text>
			
				<rect x="2119.1" y="141.4" transform="matrix(1 -2.538367e-03 2.538367e-03 1 -0.3669 5.385)" class="st27" width="4.3" height="11.8"/>
			
				<rect x="2119.1" y="153.1" transform="matrix(1 -2.539010e-03 2.539010e-03 1 -0.3969 5.3865)" class="st27" width="4.3" height="11.8"/>
			<text transform="matrix(1 -2.470000e-03 2.470000e-03 1 2069.6443 160.4734)" class="st22 st7 st28">-30,39</text>
		</g>
		<g id="Слой_37">
			<path class="st29" d="M435,189.4v-21.3c0-0.9-1.7-1.6-3.9-1.6l-106.2,0.1c-2.1,0-3.9,0.7-3.9,1.6l0,2.1l0,26.6
				c0,0.9,1.7,1.6,3.9,1.6l106.2-0.1c2.1,0,3.9-0.7,3.9-1.6L435,189.4z"/>
			<text transform="matrix(1 0 0 1 348.2043 188.4276)" class="st30 st7 st31">РАБОТА</text>
			<path class="st29" d="M1267,189.4v-21.3c0-0.9-1.7-1.6-3.9-1.6l-106.2,0.1c-2.1,0-3.9,0.7-3.9,1.6l0,2.1l0,26.6
				c0,0.9,1.7,1.6,3.9,1.6l106.2-0.1c2.1,0,3.9-0.7,3.9-1.6L1267,189.4z"/>
			<g>
				<text transform="matrix(1 0 0 1 1177.2043 188.4276)" class="st30 st7 st31">РАБОТА</text>
			</g>
		</g>
	</g>
	<g id="Слой_15">
		<path class="st10" d="M234,386.1c-8.4,0-15.2-26.2-15.3-58.6c-0.1-32.4,6.6-58.7,15-58.7L234,386.1z"/>
		<path class="st10" d="M543.7,385.8c8.4,0,15.1-26.2,15-58.5c-0.1-32.3-6.9-58.5-15.3-58.5L543.7,385.8z"/>
		<rect x="243.5" y="268.8" class="st10" width="289.9" height="117.3"/>
		<rect x="533.2" y="263.3" class="st11" width="9.5" height="126.5"/>
		<rect x="233.7" y="263.3" class="st11" width="9.5" height="126.5"/>
		<text transform="matrix(0.7994 0 0 1 362.8307 288.941)" class="st12 st7 st13 st14">Е  1.2</text>
		<path class="st15" d="M512.5,376.9h-62.8c-1.4,0-2.6-1.2-2.6-2.6v-83.1c0-1.4,1.2-2.6,2.6-2.6h62.8c1.4,0,2.6,1.2,2.6,2.6v83.1
			C515.1,375.7,513.9,376.9,512.5,376.9z"/>
		<ellipse class="st5" cx="481.9" cy="340.2" rx="18.1" ry="17.4"/>
		<ellipse class="st16" cx="481.9" cy="340.2" rx="5.5" ry="5.2"/>
		<ellipse class="st5" cx="481.9" cy="340.2" rx="1.4" ry="1.4"/>
		<path class="st5" d="M471.1,293h8.5c0.3,0,0.5,0.2,0.5,0.4v3.1c0,0.2-0.2,0.4-0.5,0.4h-8.5h-8.5c-0.3,0-0.5-0.2-0.5-0.4v-3.1
			c0-0.2,0.2-0.4,0.5-0.4H471.1z"/>
		<path class="st5" d="M464.8,328.8c2.5-3.6,7.1-6.4,12.6-7.5l-0.1-22c0-0.2-0.2-0.3-0.5-0.3l-11.7,0.1c-0.3,0-0.5,0.1-0.5,0.3
			L464.8,328.8"/>
		<text transform="matrix(1.0552 -4.938477e-03 5.210000e-03 1 462.8321 373.2946)" class="st17 st7 st18">18.1 Н.2</text>
		<path class="st19" d="M310.9,365.4c0,7.9-5.1,12.4-11.2,12.4h-27.3c-6.2,0-11.2-4.5-11.2-12.4V292c0-7.9,5.1-12.4,11.2-12.4h27.3
			c6.2,0,11.2,4.5,11.2,12.4V365.4z M299.7,375.5c5.2,0,9.4-3.4,9.4-10V292c0-6.6-4.2-10-9.4-10h-27.3c-5.2,0-9.4,3.4-9.4,10v73.4
			c0,6.6,4.2,10,9.4,10H299.7z"/>
		<path id="белый_00000172410338764416093460000008789475658545418138_" class="st12" d="M272.4,375.5c-5.2,0-9.4-3.4-9.4-10
			V292c0-6.6,4.2-10,9.4-10h27.3c5.2,0,9.4,3.4,9.4,10v73.4c0,6.6-4.2,10-9.4,10H272.4z"/>
		<path class="st20" d="M271.9,375.5c-5.2,0-9.4-3.4-9.4-10V292c0-6.6,4.2-10,9.4-10h27.3c5.2,0,9.4,3.4,9.4,10v73.4
			c0,6.6-4.2,10-9.4,10H271.9z"/>
		<rect x="268.5" y="285.8" class="st21" width="14.4" height="86.7"/>
		<rect x="268.5" y="285.8" class="st21" width="17.5" height="3.5"/>
		<rect x="268.5" y="312.7" class="st21" width="17.5" height="3.5"/>
		<rect x="268.5" y="341" class="st21" width="17.5" height="3.5"/>
		<rect x="268.5" y="369.2" class="st5" width="17.5" height="3.5"/>
		<rect x="268.5" y="356.9" class="st5" width="14.4" height="15.9"/>
		<text transform="matrix(1 -2.470000e-03 2.470000e-03 1 291.0137 360.8764)" class="st22 st7 st23">165</text>
		<path class="st24" d="M435.9,323.3V302c0-0.9-1.7-1.6-3.9-1.6l-106.2,0.1c-2.1,0-3.9,0.7-3.9,1.6l0,2.1l0,26.6
			c0,0.9,1.7,1.6,3.9,1.6l106.2-0.1c2.1,0,3.9-0.7,3.9-1.6L435.9,323.3z"/>
		<text transform="matrix(1 -2.470000e-03 2.470000e-03 1 330.1105 323.8528)" class="st22 st7 st25">T</text>
		<text transform="matrix(1 -2.470000e-03 2.470000e-03 1 338.1636 323.8729)" class="st22 st7 st26">, °C</text>
		
			<rect x="425" y="304.7" transform="matrix(1 -2.538367e-03 2.538367e-03 1 -0.7871 1.0853)" class="st27" width="4.3" height="11.8"/>
		
			<rect x="425" y="316.5" transform="matrix(1 -2.539010e-03 2.539010e-03 1 -0.8172 1.0857)" class="st27" width="4.3" height="11.8"/>
		<text transform="matrix(1 -2.470000e-03 2.470000e-03 1 375.5442 323.8323)" class="st22 st7 st28">-30,39</text>
		<path class="st29" d="M435.9,365.8v-21.3c0-0.9-1.7-1.6-3.9-1.6L325.8,343c-2.1,0-3.9,0.7-3.9,1.6l0,2.1l0,26.6
			c0,0.9,1.7,1.6,3.9,1.6l106.2-0.1c2.1,0,3.9-0.7,3.9-1.6L435.9,365.8z"/>
		<text transform="matrix(1 0 0 1 349.1044 364.7865)" class="st30 st7 st31">РАБОТА</text>
		<path class="st10" d="M1066,386.1c-8.4,0-15.2-26.2-15.3-58.6c-0.1-32.4,6.6-58.7,15-58.7L1066,386.1z"/>
		<path class="st10" d="M1375.7,385.8c8.4,0,15.1-26.2,15-58.5c-0.1-32.3-6.9-58.5-15.3-58.5L1375.7,385.8z"/>
		<rect x="1075.5" y="268.8" class="st10" width="289.9" height="117.3"/>
		<rect x="1365.2" y="263.3" class="st11" width="9.5" height="126.5"/>
		<rect x="1065.7" y="263.3" class="st11" width="9.5" height="126.5"/>
		<text transform="matrix(0.7994 0 0 1 1194.8307 288.941)" class="st12 st7 st13 st14">Е  2.2</text>
		<path class="st15" d="M1344.5,376.9h-62.8c-1.4,0-2.6-1.2-2.6-2.6v-83.1c0-1.4,1.2-2.6,2.6-2.6h62.8c1.4,0,2.6,1.2,2.6,2.6v83.1
			C1347.1,375.7,1345.9,376.9,1344.5,376.9z"/>
		<ellipse class="st5" cx="1313.9" cy="340.2" rx="18.1" ry="17.4"/>
		<ellipse class="st16" cx="1313.9" cy="340.2" rx="5.5" ry="5.2"/>
		<ellipse class="st5" cx="1313.9" cy="340.2" rx="1.4" ry="1.4"/>
		<path class="st5" d="M1303.1,293h8.5c0.3,0,0.5,0.2,0.5,0.4v3.1c0,0.2-0.2,0.4-0.5,0.4h-8.5h-8.5c-0.3,0-0.5-0.2-0.5-0.4v-3.1
			c0-0.2,0.2-0.4,0.5-0.4H1303.1z"/>
		<path class="st5" d="M1296.8,328.8c2.5-3.6,7.1-6.4,12.6-7.5l-0.1-22c0-0.2-0.2-0.3-0.5-0.3l-11.7,0.1c-0.3,0-0.5,0.1-0.5,0.3
			L1296.8,328.8"/>
		<text transform="matrix(1.0552 -4.938477e-03 5.210000e-03 1 1299.9951 373.2704)" class="st17 st7 st18">19 2Н</text>
		<path class="st19" d="M1142.9,365.4c0,7.9-5.1,12.4-11.2,12.4h-27.3c-6.2,0-11.2-4.5-11.2-12.4V292c0-7.9,5.1-12.4,11.2-12.4h27.3
			c6.2,0,11.2,4.5,11.2,12.4V365.4z M1131.7,375.5c5.2,0,9.4-3.4,9.4-10V292c0-6.6-4.2-10-9.4-10h-27.3c-5.2,0-9.4,3.4-9.4,10v73.4
			c0,6.6,4.2,10,9.4,10H1131.7z"/>
		<path id="белый_00000170240916141020968040000011792778956429632411_" class="st12" d="M1104.4,375.5c-5.2,0-9.4-3.4-9.4-10
			V292c0-6.6,4.2-10,9.4-10h27.3c5.2,0,9.4,3.4,9.4,10v73.4c0,6.6-4.2,10-9.4,10H1104.4z"/>
		<path class="st20" d="M1103.9,375.5c-5.2,0-9.4-3.4-9.4-10V292c0-6.6,4.2-10,9.4-10h27.3c5.2,0,9.4,3.4,9.4,10v73.4
			c0,6.6-4.2,10-9.4,10H1103.9z"/>
		<rect x="1100.5" y="285.8" class="st21" width="14.4" height="86.7"/>
		<rect x="1100.5" y="285.8" class="st21" width="17.5" height="3.5"/>
		<rect x="1100.5" y="312.7" class="st21" width="17.5" height="3.5"/>
		<rect x="1100.5" y="341" class="st21" width="17.5" height="3.5"/>
		<rect x="1100.5" y="369.2" class="st5" width="17.5" height="3.5"/>
		<rect x="1100.5" y="356.9" class="st5" width="14.4" height="15.9"/>
		<text transform="matrix(1 -2.470000e-03 2.470000e-03 1 1123.0137 360.8764)" class="st22 st7 st23">165</text>
		<path class="st24" d="M1267.9,323.3V302c0-0.9-1.7-1.6-3.9-1.6l-106.2,0.1c-2.1,0-3.9,0.7-3.9,1.6l0,2.1l0,26.6
			c0,0.9,1.7,1.6,3.9,1.6l106.2-0.1c2.1,0,3.9-0.7,3.9-1.6L1267.9,323.3z"/>
		<text transform="matrix(1 -2.470000e-03 2.470000e-03 1 1162.1105 323.8528)" class="st22 st7 st25">T</text>
		<text transform="matrix(1 -2.470000e-03 2.470000e-03 1 1170.1636 323.8729)" class="st22 st7 st26">, °C</text>
		
			<rect x="1257" y="304.7" transform="matrix(1 -2.538367e-03 2.538367e-03 1 -0.7844 3.1972)" class="st27" width="4.3" height="11.8"/>
		
			<rect x="1257" y="316.5" transform="matrix(1 -2.539010e-03 2.539010e-03 1 -0.8145 3.1981)" class="st27" width="4.3" height="11.8"/>
		<text transform="matrix(1 -2.470000e-03 2.470000e-03 1 1207.5442 323.8323)" class="st22 st7 st28">-30,39</text>
		<path class="st29" d="M1267.9,365.8v-21.3c0-0.9-1.7-1.6-3.9-1.6l-106.2,0.1c-2.1,0-3.9,0.7-3.9,1.6l0,2.1l0,26.6
			c0,0.9,1.7,1.6,3.9,1.6l106.2-0.1c2.1,0,3.9-0.7,3.9-1.6L1267.9,365.8z"/>
		<g>
			<text transform="matrix(1 0 0 1 1178.1044 364.7865)" class="st30 st7 st31">РАБОТА</text>
		</g>
	</g>
	<g id="Слой_104">
		<path class="st10" d="M1882.8,452c-8.4,0-15.2-26.2-15.3-58.6c-0.1-32.4,6.6-58.7,15-58.7L1882.8,452z"/>
		<path class="st10" d="M2192.4,451.7c8.4,0,15.1-26.2,15-58.5c-0.1-32.3-6.9-58.5-15.3-58.5L2192.4,451.7z"/>
		<rect x="1892.2" y="334.8" class="st10" width="289.9" height="117.3"/>
		<rect x="2182" y="329.3" class="st11" width="9.5" height="126.5"/>
		<rect x="1882.4" y="329.3" class="st11" width="9.5" height="126.5"/>
		<path class="st15" d="M2161.2,442.8h-62.8c-1.4,0-2.6-1.2-2.6-2.6v-83.1c0-1.4,1.2-2.6,2.6-2.6h62.8c1.4,0,2.6,1.2,2.6,2.6v83.1
			C2163.9,441.7,2162.7,442.8,2161.2,442.8z"/>
		<ellipse class="st5" cx="2130.6" cy="406.2" rx="18.1" ry="17.4"/>
		<ellipse class="st16" cx="2130.6" cy="406.2" rx="5.5" ry="5.2"/>
		<ellipse class="st5" cx="2130.6" cy="406.2" rx="1.4" ry="1.4"/>
		<path class="st5" d="M2119.8,359h8.5c0.3,0,0.5,0.2,0.5,0.4v3.1c0,0.2-0.2,0.4-0.5,0.4h-8.5h-8.5c-0.3,0-0.5-0.2-0.5-0.4v-3.1
			c0-0.2,0.2-0.4,0.5-0.4H2119.8z"/>
		<path class="st5" d="M2113.6,394.8c2.5-3.6,7.1-6.4,12.6-7.5l-0.1-22c0-0.2-0.2-0.3-0.5-0.3l-11.7,0.1c-0.3,0-0.5,0.1-0.5,0.3
			L2113.6,394.8"/>
		<path class="st19" d="M1959.7,431.4c0,7.9-5.1,12.4-11.2,12.4h-27.3c-6.2,0-11.2-4.5-11.2-12.4V358c0-7.9,5.1-12.4,11.2-12.4h27.3
			c6.2,0,11.2,4.5,11.2,12.4V431.4z M1948.4,441.4c5.2,0,9.4-3.4,9.4-10V358c0-6.6-4.2-10-9.4-10h-27.3c-5.2,0-9.4,3.4-9.4,10v73.4
			c0,6.6,4.2,10,9.4,10H1948.4z"/>
		<path id="белый_00000028326510202794321530000018206817279512003723_" class="st12" d="M1921.1,441.4c-5.2,0-9.4-3.4-9.4-10
			V358c0-6.6,4.2-10,9.4-10h27.3c5.2,0,9.4,3.4,9.4,10v73.4c0,6.6-4.2,10-9.4,10H1921.1z"/>
		<path class="st20" d="M1920.6,441.4c-5.2,0-9.4-3.4-9.4-10V358c0-6.6,4.2-10,9.4-10h27.3c5.2,0,9.4,3.4,9.4,10v73.4
			c0,6.6-4.2,10-9.4,10H1920.6z"/>
		<rect x="1917.3" y="351.8" class="st21" width="14.4" height="86.7"/>
		<rect x="1917.3" y="351.8" class="st21" width="17.5" height="3.5"/>
		<rect x="1917.3" y="378.7" class="st21" width="17.5" height="3.5"/>
		<rect x="1917.3" y="406.9" class="st21" width="17.5" height="3.5"/>
		<rect x="1917.3" y="435.2" class="st5" width="17.5" height="3.5"/>
		<rect x="1917.3" y="422.8" class="st5" width="14.4" height="15.9"/>
		<text transform="matrix(1 -2.470000e-03 2.470000e-03 1 1939.7617 426.8381)" class="st22 st7 st23">165</text>
		<path class="st24" d="M2084.7,407.6v-21.3c0-0.9-1.7-1.6-3.9-1.6l-106.2,0.1c-2.1,0-3.9,0.7-3.9,1.6l0,2.1l0,26.6
			c0,0.9,1.7,1.6,3.9,1.6l106.2-0.1c2.1,0,3.9-0.7,3.9-1.6L2084.7,407.6z"/>
		<text transform="matrix(1 -2.470000e-03 2.470000e-03 1 1975.9486 408.1162)" class="st22 st7 st25">T</text>
		<text transform="matrix(1 -2.470000e-03 2.470000e-03 1 1984.0017 408.1363)" class="st22 st7 st26">, ° C</text>
		
			<rect x="2074.8" y="389" transform="matrix(1 -2.538367e-03 2.538367e-03 1 -0.9956 5.2735)" class="st27" width="4.3" height="11.8"/>
		
			<rect x="2074.9" y="400.8" transform="matrix(1 -2.539010e-03 2.539010e-03 1 -1.0258 5.2749)" class="st27" width="4.3" height="11.8"/>
		<text transform="matrix(1 -2.470000e-03 2.470000e-03 1 2025.3826 409.0957)" class="st22 st7 st28">-30,39</text>
		<text transform="matrix(0.7994 0 0 1 2001.7201 356.517)" class="st12 st7 st13 st14">V=12.5 м3</text>
	</g>
	<g id="Слой_19">
		<path class="st10" d="M232,561.5c-8.4,0-15.2-26.2-15.3-58.6c-0.1-32.4,6.6-58.7,15-58.7L232,561.5z"/>
		<path class="st10" d="M541.6,561.2c8.4,0,15.1-26.2,15-58.5c-0.1-32.3-6.9-58.5-15.3-58.5L541.6,561.2z"/>
		<rect x="241.4" y="444.2" class="st10" width="289.9" height="117.3"/>
		<rect x="531.2" y="438.7" class="st11" width="9.5" height="126.5"/>
		<rect x="231.7" y="438.7" class="st11" width="9.5" height="126.5"/>
		<text transform="matrix(0.7994 0 0 1 360.789 464.3604)" class="st12 st7 st13 st14">Е  1.3</text>
		<path class="st15" d="M510.5,552.3h-62.8c-1.4,0-2.6-1.2-2.6-2.6v-83.1c0-1.4,1.2-2.6,2.6-2.6h62.8c1.4,0,2.6,1.2,2.6,2.6v83.1
			C513.1,551.1,511.9,552.3,510.5,552.3z"/>
		<ellipse class="st5" cx="479.8" cy="515.7" rx="18.1" ry="17.4"/>
		<ellipse class="st16" cx="479.8" cy="515.7" rx="5.5" ry="5.2"/>
		<ellipse class="st5" cx="479.8" cy="515.7" rx="1.4" ry="1.4"/>
		<path class="st5" d="M469,468.5h8.5c0.3,0,0.5,0.2,0.5,0.4v3.1c0,0.2-0.2,0.4-0.5,0.4H469h-8.5c-0.3,0-0.5-0.2-0.5-0.4v-3.1
			c0-0.2,0.2-0.4,0.5-0.4H469z"/>
		<path class="st5" d="M462.8,504.2c2.5-3.6,7.1-6.4,12.6-7.5l-0.1-22c0-0.2-0.2-0.3-0.5-0.3l-11.7,0.1c-0.3,0-0.5,0.1-0.5,0.3
			L462.8,504.2"/>
		<text transform="matrix(1.0552 -4.938477e-03 5.210000e-03 1 460.7904 548.7141)" class="st17 st7 st18">18.1 Н.3</text>
		<path class="st19" d="M308.9,540.9c0,7.9-5.1,12.4-11.2,12.4h-27.3c-6.2,0-11.2-4.5-11.2-12.4v-73.4c0-7.9,5.1-12.4,11.2-12.4
			h27.3c6.2,0,11.2,4.5,11.2,12.4V540.9z M297.7,550.9c5.2,0,9.4-3.4,9.4-10v-73.4c0-6.6-4.2-10-9.4-10h-27.3c-5.2,0-9.4,3.4-9.4,10
			v73.4c0,6.6,4.2,10,9.4,10H297.7z"/>
		<path id="белый_00000058549347920012205260000006443392781635750320_" class="st12" d="M270.4,550.9c-5.2,0-9.4-3.4-9.4-10
			v-73.4c0-6.6,4.2-10,9.4-10h27.3c5.2,0,9.4,3.4,9.4,10v73.4c0,6.6-4.2,10-9.4,10H270.4z"/>
		<path class="st20" d="M269.8,550.9c-5.2,0-9.4-3.4-9.4-10v-73.4c0-6.6,4.2-10,9.4-10h27.3c5.2,0,9.4,3.4,9.4,10v73.4
			c0,6.6-4.2,10-9.4,10H269.8z"/>
		<rect x="266.5" y="461.3" class="st21" width="14.4" height="86.7"/>
		<rect x="266.5" y="461.3" class="st21" width="17.5" height="3.5"/>
		<rect x="266.5" y="488.1" class="st21" width="17.5" height="3.5"/>
		<rect x="266.5" y="516.4" class="st21" width="17.5" height="3.5"/>
		<rect x="266.5" y="544.7" class="st5" width="17.5" height="3.5"/>
		<rect x="266.5" y="532.3" class="st5" width="14.4" height="15.9"/>
		<text transform="matrix(1 -2.470000e-03 2.470000e-03 1 288.972 536.2959)" class="st22 st7 st23">165</text>
		<path class="st24" d="M433.9,498.7v-21.3c0-0.9-1.7-1.6-3.9-1.6l-106.2,0.1c-2.1,0-3.9,0.7-3.9,1.6l0,2.1l0,26.6
			c0,0.9,1.7,1.6,3.9,1.6l106.2-0.1c2.1,0,3.9-0.7,3.9-1.6L433.9,498.7z"/>
		<text transform="matrix(1 -2.470000e-03 2.470000e-03 1 328.0688 499.2723)" class="st22 st7 st25">T</text>
		<text transform="matrix(1 -2.470000e-03 2.470000e-03 1 336.1219 499.2924)" class="st22 st7 st26">, °C</text>
		
			<rect x="423" y="480.1" transform="matrix(1 -2.538367e-03 2.538367e-03 1 -1.2323 1.0807)" class="st27" width="4.3" height="11.8"/>
		
			<rect x="423" y="491.9" transform="matrix(1 -2.539010e-03 2.539010e-03 1 -1.2626 1.0811)" class="st27" width="4.3" height="11.8"/>
		<text transform="matrix(1 -2.470000e-03 2.470000e-03 1 373.5025 499.2518)" class="st22 st7 st28">-30,39</text>
		<path class="st29" d="M433.8,541.2v-21.3c0-0.9-1.7-1.6-3.9-1.6l-106.2,0.1c-2.1,0-3.9,0.7-3.9,1.6l0,2.1l0,26.6
			c0,0.9,1.7,1.6,3.9,1.6l106.2-0.1c2.1,0,3.9-0.7,3.9-1.6L433.8,541.2z"/>
		<g>
			<text transform="matrix(1 0 0 1 348.0627 540.2059)" class="st30 st7 st31">РАБОТА</text>
		</g>
		<path class="st10" d="M1064,561.5c-8.4,0-15.2-26.2-15.3-58.6c-0.1-32.4,6.6-58.7,15-58.7L1064,561.5z"/>
		<path class="st10" d="M1373.6,561.2c8.4,0,15.1-26.2,15-58.5c-0.1-32.3-6.9-58.5-15.3-58.5L1373.6,561.2z"/>
		<rect x="1073.4" y="444.2" class="st10" width="289.9" height="117.3"/>
		<rect x="1363.2" y="438.7" class="st11" width="9.5" height="126.5"/>
		<rect x="1063.7" y="438.7" class="st11" width="9.5" height="126.5"/>
		<text transform="matrix(0.7994 0 0 1 1192.7889 464.3604)" class="st12 st7 st13 st14">Е  2.3</text>
		<path class="st15" d="M1342.5,552.3h-62.8c-1.4,0-2.6-1.2-2.6-2.6v-83.1c0-1.4,1.2-2.6,2.6-2.6h62.8c1.4,0,2.6,1.2,2.6,2.6v83.1
			C1345.1,551.1,1343.9,552.3,1342.5,552.3z"/>
		<ellipse class="st5" cx="1311.8" cy="515.7" rx="18.1" ry="17.4"/>
		<ellipse class="st16" cx="1311.8" cy="515.7" rx="5.5" ry="5.2"/>
		<ellipse class="st5" cx="1311.8" cy="515.7" rx="1.4" ry="1.4"/>
		<path class="st5" d="M1301,468.5h8.5c0.3,0,0.5,0.2,0.5,0.4v3.1c0,0.2-0.2,0.4-0.5,0.4h-8.5h-8.5c-0.3,0-0.5-0.2-0.5-0.4v-3.1
			c0-0.2,0.2-0.4,0.5-0.4H1301z"/>
		<path class="st5" d="M1294.8,504.2c2.5-3.6,7.1-6.4,12.6-7.5l-0.1-22c0-0.2-0.2-0.3-0.5-0.3l-11.7,0.1c-0.3,0-0.5,0.1-0.5,0.3
			L1294.8,504.2"/>
		<text transform="matrix(1.0552 -4.938477e-03 5.210000e-03 1 1297.9535 548.6899)" class="st17 st7 st18">19 3Н</text>
		<path class="st19" d="M1140.9,540.9c0,7.9-5.1,12.4-11.2,12.4h-27.3c-6.2,0-11.2-4.5-11.2-12.4v-73.4c0-7.9,5.1-12.4,11.2-12.4
			h27.3c6.2,0,11.2,4.5,11.2,12.4V540.9z M1129.7,550.9c5.2,0,9.4-3.4,9.4-10v-73.4c0-6.6-4.2-10-9.4-10h-27.3
			c-5.2,0-9.4,3.4-9.4,10v73.4c0,6.6,4.2,10,9.4,10H1129.7z"/>
		<path id="белый_00000013185010411048962960000017259456945905745061_" class="st12" d="M1102.4,550.9c-5.2,0-9.4-3.4-9.4-10
			v-73.4c0-6.6,4.2-10,9.4-10h27.3c5.2,0,9.4,3.4,9.4,10v73.4c0,6.6-4.2,10-9.4,10H1102.4z"/>
		<path class="st20" d="M1101.8,550.9c-5.2,0-9.4-3.4-9.4-10v-73.4c0-6.6,4.2-10,9.4-10h27.3c5.2,0,9.4,3.4,9.4,10v73.4
			c0,6.6-4.2,10-9.4,10H1101.8z"/>
		<rect x="1098.5" y="461.3" class="st21" width="14.4" height="86.7"/>
		<rect x="1098.5" y="461.3" class="st21" width="17.5" height="3.5"/>
		<rect x="1098.5" y="488.1" class="st21" width="17.5" height="3.5"/>
		<rect x="1098.5" y="516.4" class="st21" width="17.5" height="3.5"/>
		<rect x="1098.5" y="544.7" class="st5" width="17.5" height="3.5"/>
		<rect x="1098.5" y="532.3" class="st5" width="14.4" height="15.9"/>
		<text transform="matrix(1 -2.470000e-03 2.470000e-03 1 1120.9719 536.2959)" class="st22 st7 st23">165</text>
		<path class="st24" d="M1265.9,498.7v-21.3c0-0.9-1.7-1.6-3.9-1.6l-106.2,0.1c-2.1,0-3.9,0.7-3.9,1.6l0,2.1l0,26.6
			c0,0.9,1.7,1.6,3.9,1.6l106.2-0.1c2.1,0,3.9-0.7,3.9-1.6L1265.9,498.7z"/>
		<text transform="matrix(1 -2.470000e-03 2.470000e-03 1 1160.0688 499.2723)" class="st22 st7 st25">T</text>
		<text transform="matrix(1 -2.470000e-03 2.470000e-03 1 1168.1219 499.2924)" class="st22 st7 st26">, °C</text>
		
			<rect x="1255" y="480.1" transform="matrix(1 -2.538367e-03 2.538367e-03 1 -1.2297 3.1926)" class="st27" width="4.3" height="11.8"/>
		
			<rect x="1255" y="491.9" transform="matrix(1 -2.539010e-03 2.539010e-03 1 -1.2599 3.1935)" class="st27" width="4.3" height="11.8"/>
		<text transform="matrix(1 -2.470000e-03 2.470000e-03 1 1205.5026 499.2518)" class="st22 st7 st28">-30,39</text>
		<path class="st29" d="M1265.8,541.2v-21.3c0-0.9-1.7-1.6-3.9-1.6l-106.2,0.1c-2.1,0-3.9,0.7-3.9,1.6l0,2.1l0,26.6
			c0,0.9,1.7,1.6,3.9,1.6l106.2-0.1c2.1,0,3.9-0.7,3.9-1.6L1265.8,541.2z"/>
		<g>
			<text transform="matrix(1 0 0 1 1183.0626 540.2059)" class="st32 st7 st31">РЕЗЕРВ</text>
		</g>
	</g>
	<g id="Слой_105">
		<path class="st10" d="M1881.9,688c-8.4,0-15.2-26.2-15.3-58.6c-0.1-32.4,6.6-58.7,15-58.7L1881.9,688z"/>
		<path class="st10" d="M2191.5,687.7c8.4,0,15.1-26.2,15-58.5c-0.1-32.3-6.9-58.5-15.3-58.5L2191.5,687.7z"/>
		<rect x="1891.3" y="570.7" class="st10" width="289.9" height="117.3"/>
		<rect x="2181" y="565.2" class="st11" width="9.5" height="126.5"/>
		<rect x="1881.5" y="565.2" class="st11" width="9.5" height="126.5"/>
		<path class="st15" d="M2160.3,678.8h-62.8c-1.4,0-2.6-1.2-2.6-2.6v-83.1c0-1.4,1.2-2.6,2.6-2.6h62.8c1.4,0,2.6,1.2,2.6,2.6v83.1
			C2162.9,677.6,2161.8,678.8,2160.3,678.8z"/>
		<ellipse class="st5" cx="2129.7" cy="642.1" rx="18.1" ry="17.4"/>
		<ellipse class="st16" cx="2129.7" cy="642.1" rx="5.5" ry="5.2"/>
		<ellipse class="st5" cx="2129.7" cy="642.1" rx="1.4" ry="1.4"/>
		<path class="st5" d="M2118.9,594.9h8.5c0.3,0,0.5,0.2,0.5,0.4v3.1c0,0.2-0.2,0.4-0.5,0.4h-8.5h-8.5c-0.3,0-0.5-0.2-0.5-0.4v-3.1
			c0-0.2,0.2-0.4,0.5-0.4H2118.9z"/>
		<path class="st5" d="M2112.6,630.7c2.5-3.6,7.1-6.4,12.6-7.5l-0.1-22c0-0.2-0.2-0.3-0.5-0.3l-11.7,0.1c-0.3,0-0.5,0.1-0.5,0.3
			L2112.6,630.7"/>
		<path class="st19" d="M1958.7,667.3c0,7.9-5.1,12.4-11.2,12.4h-27.3c-6.2,0-11.2-4.5-11.2-12.4v-73.4c0-7.9,5.1-12.4,11.2-12.4
			h27.3c6.2,0,11.2,4.5,11.2,12.4V667.3z M1947.5,677.4c5.2,0,9.4-3.4,9.4-10v-73.4c0-6.6-4.2-10-9.4-10h-27.3
			c-5.2,0-9.4,3.4-9.4,10v73.4c0,6.6,4.2,10,9.4,10H1947.5z"/>
		<path id="белый_00000138533594365885477300000005572155204374323617_" class="st12" d="M1920.2,677.4c-5.2,0-9.4-3.4-9.4-10
			v-73.4c0-6.6,4.2-10,9.4-10h27.3c5.2,0,9.4,3.4,9.4,10v73.4c0,6.6-4.2,10-9.4,10H1920.2z"/>
		<path class="st20" d="M1919.7,677.4c-5.2,0-9.4-3.4-9.4-10v-73.4c0-6.6,4.2-10,9.4-10h27.3c5.2,0,9.4,3.4,9.4,10v73.4
			c0,6.6-4.2,10-9.4,10H1919.7z"/>
		<rect x="1916.4" y="587.7" class="st21" width="14.4" height="86.7"/>
		<rect x="1916.4" y="587.7" class="st21" width="17.5" height="3.5"/>
		<rect x="1916.4" y="614.6" class="st21" width="17.5" height="3.5"/>
		<rect x="1916.4" y="642.9" class="st21" width="17.5" height="3.5"/>
		<rect x="1916.4" y="671.1" class="st5" width="17.5" height="3.5"/>
		<rect x="1916.4" y="658.7" class="st5" width="14.4" height="15.9"/>
		<text transform="matrix(1 -2.470000e-03 2.470000e-03 1 1938.8357 662.7655)" class="st22 st7 st23">165</text>
		<path class="st24" d="M2083.8,643.5v-21.3c0-0.9-1.7-1.6-3.9-1.6l-106.2,0.1c-2.1,0-3.9,0.7-3.9,1.6l0,2.1l0,26.6
			c0,0.9,1.7,1.6,3.9,1.6l106.2-0.1c2.1,0,3.9-0.7,3.9-1.6L2083.8,643.5z"/>
		<text transform="matrix(1 -2.470000e-03 2.470000e-03 1 1975.0226 644.0436)" class="st22 st7 st25">T</text>
		<text transform="matrix(1 -2.470000e-03 2.470000e-03 1 1983.0757 644.0637)" class="st22 st7 st26">, ° C</text>
		
			<rect x="2073.9" y="624.9" transform="matrix(1 -2.538367e-03 2.538367e-03 1 -1.5945 5.2719)" class="st27" width="4.3" height="11.8"/>
		
			<rect x="2073.9" y="636.7" transform="matrix(1 -2.539010e-03 2.539010e-03 1 -1.6248 5.2733)" class="st27" width="4.3" height="11.8"/>
		<text transform="matrix(1 -2.470000e-03 2.470000e-03 1 2024.4564 645.0231)" class="st22 st7 st28">-30,39</text>
		<text transform="matrix(0.7994 0 0 1 2015.2335 592.4444)" class="st12 st7 st13 st14">Е 12</text>
	</g>
	<g id="Слой_20">
		<path class="st10" d="M232.1,739.1c-8.4,0-15.2-26.2-15.3-58.6c-0.1-32.4,6.6-58.7,15-58.7L232.1,739.1z"/>
		<path class="st10" d="M541.7,738.8c8.4,0,15.1-26.2,15-58.5c-0.1-32.3-6.9-58.5-15.3-58.5L541.7,738.8z"/>
		<rect x="241.5" y="621.8" class="st10" width="289.9" height="117.3"/>
		<rect x="531.2" y="616.3" class="st11" width="9.5" height="126.5"/>
		<rect x="231.7" y="616.3" class="st11" width="9.5" height="126.5"/>
		<text transform="matrix(0.7994 0 0 1 360.8518 641.9783)" class="st12 st7 st13 st14">Е  1.4</text>
		<path class="st15" d="M510.5,729.9h-62.8c-1.4,0-2.6-1.2-2.6-2.6v-83.1c0-1.4,1.2-2.6,2.6-2.6h62.8c1.4,0,2.6,1.2,2.6,2.6v83.1
			C513.1,728.7,512,729.9,510.5,729.9z"/>
		<ellipse class="st5" cx="479.9" cy="693.3" rx="18.1" ry="17.4"/>
		<ellipse class="st16" cx="479.9" cy="693.3" rx="5.5" ry="5.2"/>
		<ellipse class="st5" cx="479.9" cy="693.3" rx="1.4" ry="1.4"/>
		<path class="st5" d="M469.1,646.1h8.5c0.3,0,0.5,0.2,0.5,0.4v3.1c0,0.2-0.2,0.4-0.5,0.4h-8.5h-8.5c-0.3,0-0.5-0.2-0.5-0.4v-3.1
			c0-0.2,0.2-0.4,0.5-0.4H469.1z"/>
		<path class="st5" d="M462.8,681.8c2.5-3.6,7.1-6.4,12.6-7.5l-0.1-22c0-0.2-0.2-0.3-0.5-0.3l-11.7,0.1c-0.3,0-0.5,0.1-0.5,0.3
			L462.8,681.8"/>
		<text transform="matrix(1.0552 -4.938477e-03 5.210000e-03 1 460.8533 726.3319)" class="st17 st7 st18">18.1 Н.4</text>
		<path class="st19" d="M308.9,718.5c0,7.9-5.1,12.4-11.2,12.4h-27.3c-6.2,0-11.2-4.5-11.2-12.4V645c0-7.9,5.1-12.4,11.2-12.4h27.3
			c6.2,0,11.2,4.5,11.2,12.4V718.5z M297.7,728.5c5.2,0,9.4-3.4,9.4-10V645c0-6.6-4.2-10-9.4-10h-27.3c-5.2,0-9.4,3.4-9.4,10v73.4
			c0,6.6,4.2,10,9.4,10H297.7z"/>
		<path id="белый_00000123427143001655499600000013079224203749471671_" class="st12" d="M270.4,728.5c-5.2,0-9.4-3.4-9.4-10
			V645c0-6.6,4.2-10,9.4-10h27.3c5.2,0,9.4,3.4,9.4,10v73.4c0,6.6-4.2,10-9.4,10H270.4z"/>
		<path class="st20" d="M269.9,728.5c-5.2,0-9.4-3.4-9.4-10V645c0-6.6,4.2-10,9.4-10h27.3c5.2,0,9.4,3.4,9.4,10v73.4
			c0,6.6-4.2,10-9.4,10H269.9z"/>
		<rect x="266.6" y="638.9" class="st21" width="14.4" height="86.7"/>
		<rect x="266.6" y="638.9" class="st21" width="17.5" height="3.5"/>
		<rect x="266.6" y="665.8" class="st21" width="17.5" height="3.5"/>
		<rect x="266.6" y="694" class="st21" width="17.5" height="3.5"/>
		<rect x="266.6" y="722.3" class="st5" width="17.5" height="3.5"/>
		<rect x="266.6" y="709.9" class="st5" width="14.4" height="15.9"/>
		<text transform="matrix(1 -2.470000e-03 2.470000e-03 1 289.0349 713.9138)" class="st22 st7 st23">165</text>
		<path class="st24" d="M433.9,676.3v-21.3c0-0.9-1.7-1.6-3.9-1.6l-106.2,0.1c-2.1,0-3.9,0.7-3.9,1.6l0,2.1l0,26.6
			c0,0.9,1.7,1.6,3.9,1.6l106.2-0.1c2.1,0,3.9-0.7,3.9-1.6L433.9,676.3z"/>
		<text transform="matrix(1 -2.470000e-03 2.470000e-03 1 328.1317 676.8901)" class="st22 st7 st25">T</text>
		<text transform="matrix(1 -2.470000e-03 2.470000e-03 1 336.1848 676.9102)" class="st22 st7 st26">, °C</text>
		
			<rect x="423" y="657.7" transform="matrix(1 -2.538367e-03 2.538367e-03 1 -1.6832 1.0814)" class="st27" width="4.3" height="11.8"/>
		
			<rect x="423" y="669.5" transform="matrix(1 -2.539010e-03 2.539010e-03 1 -1.7136 1.0818)" class="st27" width="4.3" height="11.8"/>
		<text transform="matrix(1 -2.470000e-03 2.470000e-03 1 373.5654 676.8696)" class="st22 st7 st28">-30,39</text>
		<path class="st29" d="M433.9,718.8v-21.3c0-0.9-1.7-1.6-3.9-1.6L323.8,696c-2.1,0-3.9,0.7-3.9,1.6l0,2.1l0,26.6
			c0,0.9,1.7,1.6,3.9,1.6l106.2-0.1c2.1,0,3.9-0.7,3.9-1.6L433.9,718.8z"/>
		<g>
			<text transform="matrix(1 0 0 1 349.1255 717.8238)" class="st30 st7 st31">РАБОТА</text>
		</g>
		<path class="st10" d="M1064.1,739.1c-8.4,0-15.2-26.2-15.3-58.6c-0.1-32.4,6.6-58.7,15-58.7L1064.1,739.1z"/>
		<path class="st10" d="M1373.7,738.8c8.4,0,15.1-26.2,15-58.5c-0.1-32.3-6.9-58.5-15.3-58.5L1373.7,738.8z"/>
		<rect x="1073.5" y="621.8" class="st10" width="289.9" height="117.3"/>
		<rect x="1363.2" y="616.3" class="st11" width="9.5" height="126.5"/>
		<rect x="1063.7" y="616.3" class="st11" width="9.5" height="126.5"/>
		<text transform="matrix(0.7994 0 0 1 1192.8518 641.9783)" class="st12 st7 st13 st14">Е  2.4</text>
		<path class="st15" d="M1342.5,729.9h-62.8c-1.4,0-2.6-1.2-2.6-2.6v-83.1c0-1.4,1.2-2.6,2.6-2.6h62.8c1.4,0,2.6,1.2,2.6,2.6v83.1
			C1345.1,728.7,1344,729.9,1342.5,729.9z"/>
		<ellipse class="st5" cx="1311.9" cy="693.3" rx="18.1" ry="17.4"/>
		<ellipse class="st16" cx="1311.9" cy="693.3" rx="5.5" ry="5.2"/>
		<ellipse class="st5" cx="1311.9" cy="693.3" rx="1.4" ry="1.4"/>
		<path class="st5" d="M1301.1,646.1h8.5c0.3,0,0.5,0.2,0.5,0.4v3.1c0,0.2-0.2,0.4-0.5,0.4h-8.5h-8.5c-0.3,0-0.5-0.2-0.5-0.4v-3.1
			c0-0.2,0.2-0.4,0.5-0.4H1301.1z"/>
		<path class="st5" d="M1294.8,681.8c2.5-3.6,7.1-6.4,12.6-7.5l-0.1-22c0-0.2-0.2-0.3-0.5-0.3l-11.7,0.1c-0.3,0-0.5,0.1-0.5,0.3
			L1294.8,681.8"/>
		<text transform="matrix(1.0552 -4.938477e-03 5.210000e-03 1 1298.0164 726.3077)" class="st17 st7 st18">19 5Н</text>
		<path class="st19" d="M1140.9,718.5c0,7.9-5.1,12.4-11.2,12.4h-27.3c-6.2,0-11.2-4.5-11.2-12.4V645c0-7.9,5.1-12.4,11.2-12.4h27.3
			c6.2,0,11.2,4.5,11.2,12.4V718.5z M1129.7,728.5c5.2,0,9.4-3.4,9.4-10V645c0-6.6-4.2-10-9.4-10h-27.3c-5.2,0-9.4,3.4-9.4,10v73.4
			c0,6.6,4.2,10,9.4,10H1129.7z"/>
		<path id="белый_00000160151460454410559870000012163853028077299384_" class="st12" d="M1102.4,728.5c-5.2,0-9.4-3.4-9.4-10
			V645c0-6.6,4.2-10,9.4-10h27.3c5.2,0,9.4,3.4,9.4,10v73.4c0,6.6-4.2,10-9.4,10H1102.4z"/>
		<path class="st20" d="M1101.9,728.5c-5.2,0-9.4-3.4-9.4-10V645c0-6.6,4.2-10,9.4-10h27.3c5.2,0,9.4,3.4,9.4,10v73.4
			c0,6.6-4.2,10-9.4,10H1101.9z"/>
		<rect x="1098.6" y="638.9" class="st21" width="14.4" height="86.7"/>
		<rect x="1098.6" y="638.9" class="st21" width="17.5" height="3.5"/>
		<rect x="1098.6" y="665.8" class="st21" width="17.5" height="3.5"/>
		<rect x="1098.6" y="694" class="st21" width="17.5" height="3.5"/>
		<rect x="1098.6" y="722.3" class="st5" width="17.5" height="3.5"/>
		<rect x="1098.6" y="709.9" class="st5" width="14.4" height="15.9"/>
		<text transform="matrix(1 -2.470000e-03 2.470000e-03 1 1121.0348 713.9138)" class="st22 st7 st23">165</text>
		<path class="st24" d="M1265.9,676.3v-21.3c0-0.9-1.7-1.6-3.9-1.6l-106.2,0.1c-2.1,0-3.9,0.7-3.9,1.6l0,2.1l0,26.6
			c0,0.9,1.7,1.6,3.9,1.6l106.2-0.1c2.1,0,3.9-0.7,3.9-1.6L1265.9,676.3z"/>
		<text transform="matrix(1 -2.470000e-03 2.470000e-03 1 1160.1317 676.8901)" class="st22 st7 st25">T</text>
		<text transform="matrix(1 -2.470000e-03 2.470000e-03 1 1168.1848 676.9102)" class="st22 st7 st26">, °C</text>
		
			<rect x="1255" y="657.7" transform="matrix(1 -2.538367e-03 2.538367e-03 1 -1.6805 3.1933)" class="st27" width="4.3" height="11.8"/>
		
			<rect x="1255" y="669.5" transform="matrix(1 -2.539010e-03 2.539010e-03 1 -1.7109 3.1943)" class="st27" width="4.3" height="11.8"/>
		<text transform="matrix(1 -2.470000e-03 2.470000e-03 1 1205.5654 676.8696)" class="st22 st7 st28">-30,39</text>
		<path class="st29" d="M1265.9,718.8v-21.3c0-0.9-1.7-1.6-3.9-1.6l-106.2,0.1c-2.1,0-3.9,0.7-3.9,1.6l0,2.1l0,26.6
			c0,0.9,1.7,1.6,3.9,1.6l106.2-0.1c2.1,0,3.9-0.7,3.9-1.6L1265.9,718.8z"/>
		<g>
			<text transform="matrix(1 0 0 1 1183.1255 717.8238)" class="st32 st7 st31">РЕЗЕРВ</text>
		</g>
	</g>
	<g id="Слой_26">
		<path class="st10" d="M231.8,972.4c-8.4,0-15.2-26.2-15.3-58.6c-0.1-32.4,6.6-58.7,15-58.7L231.8,972.4z"/>
		<path class="st10" d="M541.4,972.1c8.4,0,15.1-26.2,15-58.5c-0.1-32.3-6.9-58.5-15.3-58.5L541.4,972.1z"/>
		<rect x="241.2" y="855.2" class="st10" width="289.9" height="117.3"/>
		<rect x="531" y="849.7" class="st11" width="9.5" height="126.5"/>
		<rect x="231.5" y="849.7" class="st11" width="9.5" height="126.5"/>
		<text transform="matrix(0.7994 0 0 1 360.5871 875.3076)" class="st12 st7 st13 st14">Е  1.5</text>
		<path class="st15" d="M510.3,963.3h-62.8c-1.4,0-2.6-1.2-2.6-2.6v-83.1c0-1.4,1.2-2.6,2.6-2.6h62.8c1.4,0,2.6,1.2,2.6,2.6v83.1
			C512.9,962.1,511.7,963.3,510.3,963.3z"/>
		<ellipse class="st5" cx="479.6" cy="926.6" rx="18.1" ry="17.4"/>
		<ellipse class="st16" cx="479.6" cy="926.6" rx="5.5" ry="5.2"/>
		<ellipse class="st5" cx="479.6" cy="926.6" rx="1.4" ry="1.4"/>
		<path class="st5" d="M468.8,879.4h8.5c0.3,0,0.5,0.2,0.5,0.4v3.1c0,0.2-0.2,0.4-0.5,0.4h-8.5h-8.5c-0.3,0-0.5-0.2-0.5-0.4v-3.1
			c0-0.2,0.2-0.4,0.5-0.4H468.8z"/>
		<path class="st5" d="M462.6,915.2c2.5-3.6,7.1-6.4,12.6-7.5l-0.1-22c0-0.2-0.2-0.3-0.5-0.3l-11.7,0.1c-0.3,0-0.5,0.1-0.5,0.3
			L462.6,915.2"/>
		<text transform="matrix(1.0552 -4.938477e-03 5.210000e-03 1 460.5886 959.6612)" class="st17 st7 st18">18.2 Н.1</text>
		<path class="st19" d="M308.7,951.8c0,7.9-5.1,12.4-11.2,12.4h-27.3c-6.2,0-11.2-4.5-11.2-12.4v-73.4c0-7.9,5.1-12.4,11.2-12.4
			h27.3c6.2,0,11.2,4.5,11.2,12.4V951.8z M297.5,961.8c5.2,0,9.4-3.4,9.4-10v-73.4c0-6.6-4.2-10-9.4-10h-27.3c-5.2,0-9.4,3.4-9.4,10
			v73.4c0,6.6,4.2,10,9.4,10H297.5z"/>
		<path id="белый_00000006693721727084022790000002025244362735838342_" class="st12" d="M270.2,961.8c-5.2,0-9.4-3.4-9.4-10
			v-73.4c0-6.6,4.2-10,9.4-10h27.3c5.2,0,9.4,3.4,9.4,10v73.4c0,6.6-4.2,10-9.4,10H270.2z"/>
		<path class="st20" d="M269.6,961.8c-5.2,0-9.4-3.4-9.4-10v-73.4c0-6.6,4.2-10,9.4-10h27.3c5.2,0,9.4,3.4,9.4,10v73.4
			c0,6.6-4.2,10-9.4,10H269.6z"/>
		<rect x="266.3" y="872.2" class="st21" width="14.4" height="86.7"/>
		<rect x="266.3" y="872.2" class="st21" width="17.5" height="3.5"/>
		<rect x="266.3" y="899.1" class="st21" width="17.5" height="3.5"/>
		<rect x="266.3" y="927.4" class="st21" width="17.5" height="3.5"/>
		<rect x="266.3" y="955.6" class="st5" width="17.5" height="3.5"/>
		<rect x="266.3" y="943.2" class="st5" width="14.4" height="15.9"/>
		<text transform="matrix(1 -2.470000e-03 2.470000e-03 1 288.7702 947.243)" class="st22 st7 st23">165</text>
		<path class="st24" d="M433.7,909.7v-21.3c0-0.9-1.7-1.6-3.9-1.6l-106.2,0.1c-2.1,0-3.9,0.7-3.9,1.6l0,2.1l0,26.6
			c0,0.9,1.7,1.6,3.9,1.6l106.2-0.1c2.1,0,3.9-0.7,3.9-1.6L433.7,909.7z"/>
		<text transform="matrix(1 -2.470000e-03 2.470000e-03 1 327.8671 910.2194)" class="st22 st7 st25">T</text>
		<text transform="matrix(1 -2.470000e-03 2.470000e-03 1 335.9201 910.2395)" class="st22 st7 st26">, °C</text>
		
			<rect x="422.8" y="891.1" transform="matrix(1 -2.538367e-03 2.538367e-03 1 -2.2755 1.0815)" class="st27" width="4.3" height="11.8"/>
		
			<rect x="422.8" y="902.9" transform="matrix(1 -2.539010e-03 2.539010e-03 1 -2.306 1.0819)" class="st27" width="4.3" height="11.8"/>
		<text transform="matrix(1 -2.470000e-03 2.470000e-03 1 373.3008 910.1989)" class="st22 st7 st28">-30,39</text>
		<path class="st29" d="M433.6,952.1v-21.3c0-0.9-1.7-1.6-3.9-1.6l-106.2,0.1c-2.1,0-3.9,0.7-3.9,1.6l0,2.1l0,26.6
			c0,0.9,1.7,1.6,3.9,1.6l106.2-0.1c2.1,0,3.9-0.7,3.9-1.6L433.6,952.1z"/>
		<g>
			<text transform="matrix(1 0 0 1 348.8609 952.1531)" class="st30 st7 st31">РАБОТА</text>
		</g>
		<path class="st10" d="M1063.8,972.4c-8.4,0-15.2-26.2-15.3-58.6c-0.1-32.4,6.6-58.7,15-58.7L1063.8,972.4z"/>
		<path class="st10" d="M1373.4,972.1c8.4,0,15.1-26.2,15-58.5c-0.1-32.3-6.9-58.5-15.3-58.5L1373.4,972.1z"/>
		<rect x="1073.2" y="855.2" class="st10" width="289.9" height="117.3"/>
		<rect x="1363" y="849.7" class="st11" width="9.5" height="126.5"/>
		<rect x="1063.5" y="849.7" class="st11" width="9.5" height="126.5"/>
		<text transform="matrix(0.7994 0 0 1 1192.5872 875.3076)" class="st12 st7 st13 st14">Е  2.5</text>
		<path class="st15" d="M1342.3,963.3h-62.8c-1.4,0-2.6-1.2-2.6-2.6v-83.1c0-1.4,1.2-2.6,2.6-2.6h62.8c1.4,0,2.6,1.2,2.6,2.6v83.1
			C1344.9,962.1,1343.7,963.3,1342.3,963.3z"/>
		<ellipse class="st5" cx="1311.6" cy="926.6" rx="18.1" ry="17.4"/>
		<ellipse class="st16" cx="1311.6" cy="926.6" rx="5.5" ry="5.2"/>
		<ellipse class="st5" cx="1311.6" cy="926.6" rx="1.4" ry="1.4"/>
		<path class="st5" d="M1300.8,879.4h8.5c0.3,0,0.5,0.2,0.5,0.4v3.1c0,0.2-0.2,0.4-0.5,0.4h-8.5h-8.5c-0.3,0-0.5-0.2-0.5-0.4v-3.1
			c0-0.2,0.2-0.4,0.5-0.4H1300.8z"/>
		<path class="st5" d="M1294.6,915.2c2.5-3.6,7.1-6.4,12.6-7.5l-0.1-22c0-0.2-0.2-0.3-0.5-0.3l-11.7,0.1c-0.3,0-0.5,0.1-0.5,0.3
			L1294.6,915.2"/>
		<text transform="matrix(1.0552 -4.938477e-03 5.210000e-03 1 1296.7917 959.6415)" class="st17 st7 st18">19  5Н</text>
		<path class="st19" d="M1140.7,951.8c0,7.9-5.1,12.4-11.2,12.4h-27.3c-6.2,0-11.2-4.5-11.2-12.4v-73.4c0-7.9,5.1-12.4,11.2-12.4
			h27.3c6.2,0,11.2,4.5,11.2,12.4V951.8z M1129.5,961.8c5.2,0,9.4-3.4,9.4-10v-73.4c0-6.6-4.2-10-9.4-10h-27.3
			c-5.2,0-9.4,3.4-9.4,10v73.4c0,6.6,4.2,10,9.4,10H1129.5z"/>
		<path id="белый_00000140002815632233724200000017406455900633287317_" class="st12" d="M1102.2,961.8c-5.2,0-9.4-3.4-9.4-10
			v-73.4c0-6.6,4.2-10,9.4-10h27.3c5.2,0,9.4,3.4,9.4,10v73.4c0,6.6-4.2,10-9.4,10H1102.2z"/>
		<path class="st20" d="M1101.6,961.8c-5.2,0-9.4-3.4-9.4-10v-73.4c0-6.6,4.2-10,9.4-10h27.3c5.2,0,9.4,3.4,9.4,10v73.4
			c0,6.6-4.2,10-9.4,10H1101.6z"/>
		<rect x="1098.3" y="872.2" class="st21" width="14.4" height="86.7"/>
		<rect x="1098.3" y="872.2" class="st21" width="17.5" height="3.5"/>
		<rect x="1098.3" y="899.1" class="st21" width="17.5" height="3.5"/>
		<rect x="1098.3" y="927.4" class="st21" width="17.5" height="3.5"/>
		<rect x="1098.3" y="955.6" class="st5" width="17.5" height="3.5"/>
		<rect x="1098.3" y="943.2" class="st5" width="14.4" height="15.9"/>
		<text transform="matrix(1 -2.470000e-03 2.470000e-03 1 1120.7701 947.243)" class="st22 st7 st23">165</text>
		<path class="st24" d="M1265.7,909.7v-21.3c0-0.9-1.7-1.6-3.9-1.6l-106.2,0.1c-2.1,0-3.9,0.7-3.9,1.6l0,2.1l0,26.6
			c0,0.9,1.7,1.6,3.9,1.6l106.2-0.1c2.1,0,3.9-0.7,3.9-1.6L1265.7,909.7z"/>
		<text transform="matrix(1 -2.470000e-03 2.470000e-03 1 1159.8671 910.2194)" class="st22 st7 st25">T</text>
		<text transform="matrix(1 -2.470000e-03 2.470000e-03 1 1167.9202 910.2395)" class="st22 st7 st26">, °C</text>
		
			<rect x="1254.8" y="891.1" transform="matrix(1 -2.538367e-03 2.538367e-03 1 -2.2728 3.1934)" class="st27" width="4.3" height="11.8"/>
		
			<rect x="1254.8" y="902.9" transform="matrix(1 -2.539010e-03 2.539010e-03 1 -2.3033 3.1943)" class="st27" width="4.3" height="11.8"/>
		<text transform="matrix(1 -2.470000e-03 2.470000e-03 1 1205.3008 910.1989)" class="st22 st7 st28">-30,39</text>
		<path class="st29" d="M1265.6,952.1v-21.3c0-0.9-1.7-1.6-3.9-1.6l-106.2,0.1c-2.1,0-3.9,0.7-3.9,1.6l0,2.1l0,26.6
			c0,0.9,1.7,1.6,3.9,1.6l106.2-0.1c2.1,0,3.9-0.7,3.9-1.6L1265.6,952.1z"/>
		<g>
			<text transform="matrix(1 0 0 1 1181.8608 952.1531)" class="st32 st7 st31">РЕЗЕРВ</text>
		</g>
	</g>
	<g id="Слой_106">
		<path class="st10" d="M1881.6,971c-8.4,0-15.2-26.2-15.3-58.6c-0.1-32.4,6.6-58.7,15-58.7L1881.6,971z"/>
		<path class="st10" d="M2191.2,970.7c8.4,0,15.1-26.2,15-58.5c-0.1-32.3-6.9-58.5-15.3-58.5L2191.2,970.7z"/>
		<rect x="1891" y="853.7" class="st10" width="289.9" height="117.3"/>
		<rect x="2180.8" y="848.2" class="st11" width="9.5" height="126.5"/>
		<rect x="1881.3" y="848.2" class="st11" width="9.5" height="126.5"/>
		<path class="st15" d="M2160.1,961.8h-62.8c-1.4,0-2.6-1.2-2.6-2.6v-83.1c0-1.4,1.2-2.6,2.6-2.6h62.8c1.4,0,2.6,1.2,2.6,2.6v83.1
			C2162.7,960.6,2161.5,961.8,2160.1,961.8z"/>
		<ellipse class="st5" cx="2129.4" cy="925.2" rx="18.1" ry="17.4"/>
		<ellipse class="st16" cx="2129.4" cy="925.2" rx="5.5" ry="5.2"/>
		<ellipse class="st5" cx="2129.4" cy="925.2" rx="1.4" ry="1.4"/>
		<path class="st5" d="M2118.6,878h8.5c0.3,0,0.5,0.2,0.5,0.4v3.1c0,0.2-0.2,0.4-0.5,0.4h-8.5h-8.5c-0.3,0-0.5-0.2-0.5-0.4v-3.1
			c0-0.2,0.2-0.4,0.5-0.4H2118.6z"/>
		<path class="st5" d="M2112.4,913.7c2.5-3.6,7.1-6.4,12.6-7.5l-0.1-22c0-0.2-0.2-0.3-0.5-0.3l-11.7,0.1c-0.3,0-0.5,0.1-0.5,0.3
			L2112.4,913.7"/>
		<path class="st19" d="M1958.5,950.4c0,7.9-5.1,12.4-11.2,12.4H1920c-6.2,0-11.2-4.5-11.2-12.4v-73.4c0-7.9,5.1-12.4,11.2-12.4
			h27.3c6.2,0,11.2,4.5,11.2,12.4V950.4z M1947.3,960.4c5.2,0,9.4-3.4,9.4-10v-73.4c0-6.6-4.2-10-9.4-10H1920c-5.2,0-9.4,3.4-9.4,10
			v73.4c0,6.6,4.2,10,9.4,10H1947.3z"/>
		<path id="белый_00000125598895413726873710000006836807091595645072_" class="st12" d="M1920,960.4c-5.2,0-9.4-3.4-9.4-10
			v-73.4c0-6.6,4.2-10,9.4-10h27.3c5.2,0,9.4,3.4,9.4,10v73.4c0,6.6-4.2,10-9.4,10H1920z"/>
		<path class="st20" d="M1919.4,960.4c-5.2,0-9.4-3.4-9.4-10v-73.4c0-6.6,4.2-10,9.4-10h27.3c5.2,0,9.4,3.4,9.4,10v73.4
			c0,6.6-4.2,10-9.4,10H1919.4z"/>
		<rect x="1916.1" y="870.8" class="st21" width="14.4" height="86.7"/>
		<rect x="1916.1" y="870.8" class="st21" width="17.5" height="3.5"/>
		<rect x="1916.1" y="897.7" class="st21" width="17.5" height="3.5"/>
		<rect x="1916.1" y="925.9" class="st21" width="17.5" height="3.5"/>
		<rect x="1916.1" y="954.2" class="st5" width="17.5" height="3.5"/>
		<rect x="1916.1" y="941.8" class="st5" width="14.4" height="15.9"/>
		<text transform="matrix(1 -2.470000e-03 2.470000e-03 1 1938.571 945.8054)" class="st22 st7 st23">165</text>
		<path class="st24" d="M2083.5,926.5v-21.3c0-0.9-1.7-1.6-3.9-1.6l-106.2,0.1c-2.1,0-3.9,0.7-3.9,1.6l0,2.1l0,26.6
			c0,0.9,1.7,1.6,3.9,1.6l106.2-0.1c2.1,0,3.9-0.7,3.9-1.6L2083.5,926.5z"/>
		<text transform="matrix(1 -2.470000e-03 2.470000e-03 1 1974.7579 927.0834)" class="st22 st7 st25">T</text>
		<text transform="matrix(1 -2.470000e-03 2.470000e-03 1 1982.811 927.1035)" class="st22 st7 st26">, ° C</text>
		
			<rect x="2073.6" y="907.9" transform="matrix(1 -2.538367e-03 2.538367e-03 1 -2.313 5.2721)" class="st27" width="4.3" height="11.8"/>
		
			<rect x="2073.7" y="919.7" transform="matrix(1 -2.539010e-03 2.539010e-03 1 -2.3435 5.2736)" class="st27" width="4.3" height="11.8"/>
		<text transform="matrix(1 -2.470000e-03 2.470000e-03 1 2024.1918 928.0629)" class="st22 st7 st28">-30,39</text>
		<text transform="matrix(0.7994 0 0 1 2017.8204 875.4842)" class="st12 st7 st13 st14">Е 4</text>
	</g>
	<g id="Слой_21">
	</g>
	<g id="Слой_62">
	</g>
	<g id="Слой_74">
	</g>
	<g id="Слой_23">
	</g>
	<g id="Слой_60">
	</g>
	<g id="Слой_73">
	</g>
	<g id="Слой_32">
	</g>
	<g id="Слой_59">
	</g>
	<g id="Слой_72">
	</g>
	<g id="Слой_33">
	</g>
	<g id="Слой_58">
	</g>
	<g id="Слой_71">
	</g>
	<g id="Слой_34">
	</g>
	<g id="Слой_57">
	</g>
	<g id="Слой_70">
	</g>
	<g id="Слой_35">
	</g>
	<g id="Слой_56">
	</g>
	<g id="Слой_36">
	</g>
	<g id="Слой_55">
	</g>
	<g id="Слой_69">
	</g>
	<g id="Слой_24">
	</g>
	<g id="Слой_54">
	</g>
	<g id="Слой_68">
	</g>
	<g id="Слой_25">
	</g>
	<g id="Слой_53">
	</g>
	<g id="Слой_27">
	</g>
	<g id="Слой_52">
	</g>
	<g id="Слой_67">
	</g>
	<g id="Слой_22">
	</g>
	<g id="Слой_51">
	</g>
	<g id="Слой_38">
	</g>
	<g id="Слой_50">
	</g>
	<g id="Слой_66">
	</g>
	<g id="Слой_39">
	</g>
	<g id="Слой_49">
	</g>
	<g id="Слой_65">
	</g>
	<g id="Слой_40">
	</g>
	<g id="Слой_48">
	</g>
	<g id="Слой_41">
	</g>
	<g id="Слой_47">
	</g>
	<g id="Слой_63">
	</g>
	<g id="Слой_95">
	</g>
	<g id="Слой_101">
	</g>
	<g id="Слой_100">
	</g>
	<g id="Слой_99">
	</g>
	<g id="Слой_98">
	</g>
	<g id="Слой_97">
	</g>
	<g id="Слой_96">
	</g>
</g>
<g id="SimpleElements">
	<g id="multi-tit-elem">
		
			<image style="overflow:visible;" width="114" height="32" xlink:href="../../../elements/multi-tit-elem/pub/multi-tit_no-arroworient.png"  transform="matrix(1 0 0 1 82 69)">
		</image>
		
			<image style="overflow:visible;" width="114" height="32" xlink:href="../../../elements/multi-tit-elem/pub/multi-tit_no-arroworient.png"  transform="matrix(1 0 0 1 573 108)">
		</image>
		
			<image style="overflow:visible;" width="114" height="32" xlink:href="../../../elements/multi-tit-elem/pub/multi-tit_no-arroworient.png"  transform="matrix(1 0 0 1 82 248)">
		</image>
		
			<image style="overflow:visible;" width="114" height="32" xlink:href="../../../elements/multi-tit-elem/pub/multi-tit_no-arroworient.png"  transform="matrix(1 0 0 1 82 416)">
		</image>
		
			<image style="overflow:visible;" width="114" height="32" xlink:href="../../../elements/multi-tit-elem/pub/multi-tit_no-arroworient.png"  transform="matrix(1 0 0 1 82 602)">
		</image>
		
			<image style="overflow:visible;" width="114" height="32" xlink:href="../../../elements/multi-tit-elem/pub/multi-tit_no-arroworient.png"  transform="matrix(1 0 0 1 82 842)">
		</image>
		
			<image style="overflow:visible;" width="114" height="32" xlink:href="../../../elements/multi-tit-elem/pub/multi-tit_no-arroworient.png"  transform="matrix(1 0 0 1 573 870)">
		</image>
		
			<image style="overflow:visible;" width="114" height="32" xlink:href="../../../elements/multi-tit-elem/pub/multi-tit_no-arroworient.png"  transform="matrix(1 0 0 1 573 638)">
		</image>
		
			<image style="overflow:visible;" width="114" height="32" xlink:href="../../../elements/multi-tit-elem/pub/multi-tit_no-arroworient.png"  transform="matrix(1 0 0 1 573 461)">
		</image>
		
			<image style="overflow:visible;" width="114" height="32" xlink:href="../../../elements/multi-tit-elem/pub/multi-tit_no-arroworient.png"  transform="matrix(1 0 0 1 573 284)">
		</image>
		
			<image style="overflow:visible;" width="114" height="32" xlink:href="../../../elements/multi-tit-elem/pub/multi-tit_no-arroworient.png"  transform="matrix(1 0 0 1 916 248)">
		</image>
		
			<image style="overflow:visible;" width="114" height="32" xlink:href="../../../elements/multi-tit-elem/pub/multi-tit_no-arroworient.png"  transform="matrix(1 0 0 1 916 416)">
		</image>
		
			<image style="overflow:visible;" width="114" height="32" xlink:href="../../../elements/multi-tit-elem/pub/multi-tit_no-arroworient.png"  transform="matrix(1 0 0 1 916 602)">
		</image>
		
			<image style="overflow:visible;" width="114" height="32" xlink:href="../../../elements/multi-tit-elem/pub/multi-tit_no-arroworient.png"  transform="matrix(1 0 0 1 916 842)">
		</image>
		
			<image style="overflow:visible;" width="114" height="32" xlink:href="../../../elements/multi-tit-elem/pub/multi-tit_no-arroworient.png"  transform="matrix(1 0 0 1 916 69)">
		</image>
		
			<image style="overflow:visible;" width="114" height="32" xlink:href="../../../elements/multi-tit-elem/pub/multi-tit_no-arroworient.png"  transform="matrix(1 0 0 1 1411 284)">
		</image>
		
			<image style="overflow:visible;" width="114" height="32" xlink:href="../../../elements/multi-tit-elem/pub/multi-tit_no-arroworient.png"  transform="matrix(1 0 0 1 1411 108)">
		</image>
		
			<image style="overflow:visible;" width="114" height="32" xlink:href="../../../elements/multi-tit-elem/pub/multi-tit_no-arroworient.png"  transform="matrix(1 0 0 1 1411 461)">
		</image>
		
			<image style="overflow:visible;" width="114" height="32" xlink:href="../../../elements/multi-tit-elem/pub/multi-tit_no-arroworient.png"  transform="matrix(1 0 0 1 1411 638)">
		</image>
		
			<image style="overflow:visible;" width="114" height="32" xlink:href="../../../elements/multi-tit-elem/pub/multi-tit_no-arroworient.png"  transform="matrix(1 0 0 1 1411 870)">
		</image>
		
			<image style="overflow:visible;" width="114" height="32" xlink:href="../../../elements/multi-tit-elem/pub/multi-tit_no-arroworient.png"  transform="matrix(1 0 0 1 1734 314)">
		</image>
		
			<image style="overflow:visible;" width="114" height="32" xlink:href="../../../elements/multi-tit-elem/pub/multi-tit_no-arroworient.png"  transform="matrix(1 0 0 1 1734 548)">
		</image>
		
			<image style="overflow:visible;" width="114" height="32" xlink:href="../../../elements/multi-tit-elem/pub/multi-tit_no-arroworient.png"  transform="matrix(1 0 0 1 1734 842)">
		</image>
		
			<image style="overflow:visible;" width="114" height="32" xlink:href="../../../elements/multi-tit-elem/pub/multi-tit_no-arroworient.png"  transform="matrix(1 0 0 1 2228 108)">
		</image>
		
			<image style="overflow:visible;" width="114" height="32" xlink:href="../../../elements/multi-tit-elem/pub/multi-tit_no-arroworient.png"  transform="matrix(1 0 0 1 2228 357)">
		</image>
		
			<image style="overflow:visible;" width="114" height="32" xlink:href="../../../elements/multi-tit-elem/pub/multi-tit_no-arroworient.png"  transform="matrix(1 0 0 1 2228 598)">
		</image>
		
			<image style="overflow:visible;" width="114" height="32" xlink:href="../../../elements/multi-tit-elem/pub/multi-tit_no-arroworient.png"  transform="matrix(1 0 0 1 2228 870)">
		</image>
	</g>
	<g id="valve-n-elem">
		
			<image style="overflow:visible;" width="71" height="89" xlink:href="../../../elements/valve-n-elem/pub/valve-n_h_caption.png"  transform="matrix(1 0 0 1 699.5 103.5)">
		</image>
		
			<image style="overflow:visible;" width="71" height="89" xlink:href="../../../elements/valve-n-elem/pub/valve-n_h_caption.png"  transform="matrix(1 0 0 1 699.5 281.5)">
		</image>
		
			<image style="overflow:visible;" width="71" height="89" xlink:href="../../../elements/valve-n-elem/pub/valve-n_h_caption.png"  transform="matrix(1 0 0 1 699.5 457.5)">
		</image>
		
			<image style="overflow:visible;" width="71" height="89" xlink:href="../../../elements/valve-n-elem/pub/valve-n_h_caption.png"  transform="matrix(1 0 0 1 699.5 633.5)">
		</image>
		
			<image style="overflow:visible;" width="71" height="89" xlink:href="../../../elements/valve-n-elem/pub/valve-n_h_caption.png"  transform="matrix(1 0 0 1 699.5 867.5)">
		</image>
		
			<image style="overflow:visible;" width="71" height="89" xlink:href="../../../elements/valve-n-elem/pub/valve-n_h_caption.png"  transform="matrix(1 0 0 1 1532.5 103.5)">
		</image>
		
			<image style="overflow:visible;" width="71" height="89" xlink:href="../../../elements/valve-n-elem/pub/valve-n_h_caption.png"  transform="matrix(1 0 0 1 1532.5 281.5)">
		</image>
		
			<image style="overflow:visible;" width="71" height="89" xlink:href="../../../elements/valve-n-elem/pub/valve-n_h_caption.png"  transform="matrix(1 0 0 1 1532.5 457.5)">
		</image>
		
			<image style="overflow:visible;" width="71" height="89" xlink:href="../../../elements/valve-n-elem/pub/valve-n_h_caption.png"  transform="matrix(1 0 0 1 1532.5 867.5)">
		</image>
		
			<image style="overflow:visible;" width="71" height="89" xlink:href="../../../elements/valve-n-elem/pub/valve-n_h_caption.png"  transform="matrix(1 0 0 1 2351.5 103.5)">
		</image>
		
			<image style="overflow:visible;" width="71" height="89" xlink:href="../../../elements/valve-n-elem/pub/valve-n_h_caption.png"  transform="matrix(1 0 0 1 2351.5 590.5)">
		</image>
		
			<image style="overflow:visible;" width="71" height="89" xlink:href="../../../elements/valve-n-elem/pub/valve-n_h_caption.png"  transform="matrix(1 0 0 1 2351.5 866.5)">
		</image>
		
			<image style="overflow:visible;" width="71" height="89" xlink:href="../../../elements/valve-n-elem/pub/valve-n_h_caption.png"  transform="matrix(1 0 0 1 1532.5 633.5)">
		</image>
		
			<image style="overflow:visible;" width="71" height="89" xlink:href="../../../elements/valve-n-elem/pub/valve-n_h_caption.png"  transform="matrix(1 0 0 1 1827.5 103.5)">
		</image>
	</g>
	<g id="torch-elem">
		
			<image style="overflow:visible;" width="44" height="44" xlink:href="../../../elements/torch-elem/pub/default.png"  transform="matrix(1 0 0 1 16 29)">
		</image>
		
			<image style="overflow:visible;" width="44" height="44" xlink:href="../../../elements/torch-elem/pub/default.png"  transform="matrix(1 0 0 1 16 214)">
		</image>
		
			<image style="overflow:visible;" width="44" height="44" xlink:href="../../../elements/torch-elem/pub/default.png"  transform="matrix(1 0 0 1 16 379)">
		</image>
		
			<image style="overflow:visible;" width="44" height="44" xlink:href="../../../elements/torch-elem/pub/default.png"  transform="matrix(1 0 0 1 16 563)">
		</image>
		
			<image style="overflow:visible;" width="44" height="44" xlink:href="../../../elements/torch-elem/pub/default.png"  transform="matrix(1 0 0 1 16 807)">
		</image>
		
			<image style="overflow:visible;" width="44" height="44" xlink:href="../../../elements/torch-elem/pub/default.png"  transform="matrix(1 0 0 1 846 29)">
		</image>
		
			<image style="overflow:visible;" width="44" height="44" xlink:href="../../../elements/torch-elem/pub/default.png"  transform="matrix(1 0 0 1 846 214)">
		</image>
		
			<image style="overflow:visible;" width="44" height="44" xlink:href="../../../elements/torch-elem/pub/default.png"  transform="matrix(1 0 0 1 846 379)">
		</image>
		
			<image style="overflow:visible;" width="44" height="44" xlink:href="../../../elements/torch-elem/pub/default.png"  transform="matrix(1 0 0 1 846 563)">
		</image>
		
			<image style="overflow:visible;" width="44" height="44" xlink:href="../../../elements/torch-elem/pub/default.png"  transform="matrix(1 0 0 1 846 807)">
		</image>
		
			<image style="overflow:visible;" width="44" height="44" xlink:href="../../../elements/torch-elem/pub/default.png"  transform="matrix(1 0 0 1 1684 281)">
		</image>
		
			<image style="overflow:visible;" width="44" height="44" xlink:href="../../../elements/torch-elem/pub/default.png"  transform="matrix(1 0 0 1 1684 518)">
		</image>
		
			<image style="overflow:visible;" width="44" height="44" xlink:href="../../../elements/torch-elem/pub/default.png"  transform="matrix(1 0 0 1 1684 802)">
		</image>
	</g>
	<g id="transition-button-elem">
		
			<image style="overflow:visible;" width="119" height="34" xlink:href="../../../elements/transition-button-elem/pub/transition-button_arrowdirection-0.png"  transform="matrix(1 0 0 1 25.5 310)">
		</image>
		
			<image style="overflow:visible;" width="119" height="34" xlink:href="../../../elements/transition-button-elem/pub/transition-button_arrowdirection-0.png"  transform="matrix(1 0 0 1 25.5 486)">
		</image>
		
			<image style="overflow:visible;" width="119" height="34" xlink:href="../../../elements/transition-button-elem/pub/transition-button_arrowdirection-0.png"  transform="matrix(1 0 0 1 25.5 664)">
		</image>
		
			<image style="overflow:visible;" width="119" height="34" xlink:href="../../../elements/transition-button-elem/pub/transition-button_arrowdirection-0.png"  transform="matrix(1 0 0 1 25.5 896)">
		</image>
		
			<image style="overflow:visible;" width="119" height="34" xlink:href="../../../elements/transition-button-elem/pub/transition-button_arrowdirection-0.png"  transform="matrix(1 0 0 1 25.5 132)">
		</image>
		
			<image style="overflow:visible;" width="119" height="34" xlink:href="../../../elements/transition-button-elem/pub/transition-button_arrowdirection-0.png"  transform="matrix(1 0 0 1 851.5 310)">
		</image>
		
			<image style="overflow:visible;" width="119" height="34" xlink:href="../../../elements/transition-button-elem/pub/transition-button_arrowdirection-0.png"  transform="matrix(1 0 0 1 851.5 486)">
		</image>
		
			<image style="overflow:visible;" width="119" height="34" xlink:href="../../../elements/transition-button-elem/pub/transition-button_arrowdirection-0.png"  transform="matrix(1 0 0 1 851.5 664)">
		</image>
		
			<image style="overflow:visible;" width="119" height="34" xlink:href="../../../elements/transition-button-elem/pub/transition-button_arrowdirection-0.png"  transform="matrix(1 0 0 1 851.5 896)">
		</image>
		
			<image style="overflow:visible;" width="119" height="34" xlink:href="../../../elements/transition-button-elem/pub/transition-button_arrowdirection-0.png"  transform="matrix(1 0 0 1 851.5 132)">
		</image>
		
			<image style="overflow:visible;" width="119" height="34" xlink:href="../../../elements/transition-button-elem/pub/transition-button_arrowdirection-1.png"  transform="matrix(1 0 0 1 1684.5 134)">
		</image>
		
			<image style="overflow:visible;" width="119" height="34" xlink:href="../../../elements/transition-button-elem/pub/transition-button_arrowdirection-0.png"  transform="matrix(1 0 0 1 1684.5 380)">
		</image>
		
			<image style="overflow:visible;" width="119" height="34" xlink:href="../../../elements/transition-button-elem/pub/transition-button_arrowdirection-0.png"  transform="matrix(1 0 0 1 1684.5 619)">
		</image>
		
			<image style="overflow:visible;" width="119" height="34" xlink:href="../../../elements/transition-button-elem/pub/transition-button_arrowdirection-0.png"  transform="matrix(1 0 0 1 1684.5 898)">
		</image>
	</g>
	<g id="Слой_120">
	</g>
</g>
<g id="tables">
	<g id="t1">
		<g>
			<path class="st33" d="M35.5,21h773c13.2,0,24,10.8,24,24v688c0,13.2-10.8,24-24,24H35c-13.2,0-23.5-10.8-23.5-24V45
				C11.5,31.8,22.3,21,35.5,21z"/>
		</g>
	</g>
	<g id="t2">
		<g>
			<path class="st34" d="M866,21h772c13.2,0,24,10.8,24,24v920c0,13.2-10.8,24-24,24H865c-13.2,0-23-10.8-23-24V45
				C842,31.8,852.8,21,866,21z"/>
		</g>
	</g>
	<g id="t3">
		<g>
			<path class="st35" d="M34,772h773c13.2,0,24,10.8,24,24v169c0,13.2-10.8,24-24,24H34c-13.2,0-24-10.8-24-24V796
				C10,782.8,20.8,772,34,772z"/>
		</g>
	</g>
	<g id="t4">
		<path class="st36" d="M2467,240h-763c-15.9,0-28-11.6-28-26V45c0-14.4,12.1-24,28-24h763c15.9,0,25,9.6,25,24v169
			C2492,228.4,2482.9,240,2467,240z"/>
	</g>
	<g id="t5">
		<path class="st36" d="M2467,483h-763c-13.5,0-28-10.5-28-24V287c0-13.5,14.5-24,28-24h763c13.5,0,25,10.5,25,24v172
			C2492,472.5,2480.5,483,2467,483z"/>
	</g>
	<g id="t6">
		<path class="st36" d="M2467,754h-763c-13.5,0-28-11.5-28-25V527c0-13.5,14.5-24.1,28-24.1l763-0.9c13.5,0,25,11.5,25,25v202
			C2492,742.5,2480.5,754,2467,754z"/>
	</g>
	<g id="t7">
		<path class="st36" d="M2467,989h-763c-13.7,0-28-10.3-28-24V797c0-13.7,14.3-25,28-25h763c13.7,0,25,11.3,25,25v168
			C2492,978.7,2480.7,989,2467,989z"/>
	</g>
</g>
<g id="text">
	<g id="px25">
		<text transform="matrix(1 0 0 1 2001.4349 799.7833)" class="st17 st7 st37">Поз 20</text>
		<text transform="matrix(1 0 0 1 2001.6771 529.2486)" class="st17 st7 st37">Поз 11</text>
		<text transform="matrix(1 0 0 1 2000.1498 290.484)" class="st17 st7 st37">Поз 148</text>
		<text transform="matrix(1 0 0 1 2001.2416 47.2164)" class="st17 st7 st37">Поз 7.1</text>
		<text transform="matrix(1 0 0 1 337.9438 798.6622)" class="st17 st7 st37">Поз 18.2</text>
		<text transform="matrix(1 0 0 1 1174.3011 46.2227)" class="st17 st7 st37">Поз 19</text>
	</g>
	<text transform="matrix(1 0 0 1 336.5234 47.7262)" class="st17 st7 st37">Поз 18.1</text>
</g>
<g id="helpers">
</g>
</svg>
