<?xml version="1.0" encoding="utf-8"?>
<!-- Generator: Adobe Illustrator 25.4.1, SVG Export Plug-In . SVG Version: 6.00 Build 0)  -->
<svg version="1.1" id="Слой_1" xmlns="http://www.w3.org/2000/svg" xmlns:xlink="http://www.w3.org/1999/xlink" x="0px" y="0px"
	 width="1543px" height="888px" viewBox="0 0 1543 888" style="enable-background:new 0 0 1543 888;" xml:space="preserve">
<style type="text/css">
	.st0{fill:none;stroke:#22282D;stroke-miterlimit:10;stroke-dasharray:6;}
	.st1{fill:#EFEFEF;stroke:#6D6F7A;stroke-miterlimit:10;}
	.st2{opacity:0.3;fill:#FFFFFF;stroke:#6D707B;stroke-miterlimit:10;enable-background:new    ;}
	.st3{fill:#595B64;}
	.st4{font-family:'UbuntuCondensed-Regular';}
	.st5{font-size:13px;}
	.st6{fill:#909091;}
	.st7{font-size:20px;}
	.st8{fill:none;stroke:#F5B323;stroke-width:3;stroke-miterlimit:10;}
	.st9{fill:#FFFFFF;stroke:#FCC10D;stroke-width:3;stroke-miterlimit:10;}
</style>
<g id="tables-dashed_00000168106604704833747140000017371885875452772779_">
	<g id="t10_00000121983527853773292200000001110973024427718062_">
		<rect x="537.5" y="275.5" class="st0" width="532" height="562.6"/>
	</g>
</g>
<g id="tables-solid_00000057870835993014620170000008241228808656006566_">
	<g id="t2_00000108281387635182401540000014751401779135157648_">
		<path class="st1" d="M1491.5,789.4h-216c-2.7,0-5,2.3-5,5v23c0,2.7,2.3,5,5,5h216c2.7,0,5-3.3,5-6v-22
			C1496.5,791.7,1494.2,789.4,1491.5,789.4z"/>
	</g>
	<g id="t11_00000142884924129434787620000008375228323797788575_">
		<rect x="1270" y="468" class="st2" width="226" height="305"/>
	</g>
	<g id="t12_00000072251418969689634050000015669168979547524480_">
		<rect x="650.2" y="55.5" class="st2" width="255" height="78"/>
	</g>
</g>
<g id="text_00000145746748455776616320000001413114255629659018_">
	<g id="px13_00000045593741661825655790000005099942821546819744_">
		<g>
			<text transform="matrix(1.0453 0 0 1 1285.3135 575.2354)" class="st3 st4 st5">Расход газа с начала </text>
			<text transform="matrix(1.0453 0 0 1 1290.5654 586.2354)" class="st3 st4 st5">суток, тыс.м³/сутки</text>
		</g>
		<text transform="matrix(1.0453 0 0 1 1285.3936 494.2349)" class="st3 st4 st5">Мгновенный расход </text>
		<text transform="matrix(1.0453 0 0 1 1308 505.2349)" class="st3 st4 st5">газа, тыс. м³</text>
		<g>
			<text transform="matrix(1.0453 0 0 1 1286.6377 659.2354)" class="st3 st4 st5">Расход газа с начала</text>
			<text transform="matrix(1.0453 0 0 1 1296.5029 670.2354)" class="st3 st4 st5">года, млн.м³/год</text>
		</g>
		<g>
			<text transform="matrix(1.0453 0 0 1 1285.3135 618.2354)" class="st3 st4 st5">Расход газа с начала </text>
			<text transform="matrix(1.0453 0 0 1 1283.7021 629.2354)" class="st3 st4 st5">месяца, тыс.м³/месяц</text>
		</g>
		<g>
			<text transform="matrix(1.0453 0 0 1 1299.9551 534.2344)" class="st3 st4 st5">Среднечасовой</text>
			<text transform="matrix(1.0453 0 0 1 1289.084 545.2354)" class="st3 st4 st5">расход газа, тыс. м³</text>
		</g>
		<g>
			<text transform="matrix(1.0453 0 0 1 1286.6377 701.2354)" class="st3 st4 st5">Расход газа с начала</text>
			<text transform="matrix(1.0453 0 0 1 1304.4043 712.2354)" class="st3 st4 st5">пуска, млн.м³</text>
			<text transform="matrix(1.0453 0 0 1 1288.4043 745.2354)" class="st3 st4 st5">Плоность газа, кг/м³</text>
		</g>
	</g>
	<g id="px14_00000068650205716476598720000011253592522343124410_">
		<g>
			<text transform="matrix(1.0453 0 0 1 678.7969 80.7131)" class="st3 st4 st5">Tт.р. по воде,  °С</text>
		</g>
		<g>
			<text transform="matrix(1.0453 0 0 1 665.7969 115.7131)" class="st3 st4 st5">Тт.р. по углеводороду, °С </text>
		</g>
	</g>
</g>
<g id="text_00000181803333175915105910000003856959675500532648_">
	<g id="px20_00000109732382284859524700000000675024718560381115_">
		<text transform="matrix(1 0 0 1 767.9998 302.1116)" class="st6 st4 st7">Блок-бокс</text>
	</g>
</g>
<g id="SimpleElements">
	<g id="customtwo-multi-tit-elem">
		
			<image style="overflow:visible;" width="232" height="108" id="id43" xlink:href="../../../elements/customtwo-multi-tit-elem/pub/w_232_h_108.png"  transform="matrix(1 0 0 1 547 328)">
		</image>
		
			<image style="overflow:visible;" width="232" height="108" id="id41" xlink:href="../../../elements/customtwo-multi-tit-elem/pub/w_232_h_108.png"  transform="matrix(1 0 0 1 547 511)">
		</image>
		
			<image style="overflow:visible;" width="232" height="108" id="id40" xlink:href="../../../elements/customtwo-multi-tit-elem/pub/w_232_h_108.png"  transform="matrix(1 0 0 1 547 695)">
		</image>
	</g>
	<g id="transition-button-elem">
		
			<image style="overflow:visible;enable-background:new    ;" width="152" height="46" id="id34_00000072991811460058748040000011603089182959116458_" xlink:href="../../../elements/transition-button-elem/pub/transition-button_arrowdirection-0.png"  transform="matrix(0.7793 0 0 0.7793 26.2719 163.0757)">
		</image>
		
			<image style="overflow:visible;enable-background:new    ;" width="152" height="46" id="id39_00000094595459769048541150000005799057721943560895_" xlink:href="../../../elements/transition-button-elem/pub/transition-button_arrowdirection-0.png"  transform="matrix(0.7793 0 0 0.7793 26.2719 39.0757)">
		</image>
		
			<image style="overflow:visible;enable-background:new    ;" width="152" height="46" id="id35_00000057134998472922369960000017019376690239549071_" xlink:href="../../../elements/transition-button-elem/pub/transition-button_arrowdirection-0.png"  transform="matrix(0.7793 0 0 0.7793 540.7719 229.0757)">
		</image>
		
			<image style="overflow:visible;enable-background:new    ;" width="152" height="46" id="id36" xlink:href="../../../elements/transition-button-elem/pub/transition-button_arrowdirection-0.png"  transform="matrix(0.7793 0 0 0.7793 1059.7719 228.0757)">
		</image>
		
			<image style="overflow:visible;enable-background:new    ;" width="152" height="46" id="id37_00000022531450623648383040000001777403586361242529_" xlink:href="../../../elements/transition-button-elem/pub/transition-button_arrowdirection-0.png"  transform="matrix(0.7793 0 0 0.7793 1415.7719 164.0757)">
		</image>
	</g>
	<g id="multi-tit-elem">
		
			<image style="overflow:visible;" width="152" height="32" id="id26_00000046339826339640587540000008332108257626904978_" xlink:href="../../../elements/multi-tit-elem/pub/default.png"  transform="matrix(1.1316 0 0 1 10 123.5)">
		</image>
		
			<image style="overflow:visible;" width="134" height="64" id="id27" xlink:href="../../../elements/multi-tit-elem/pub/multi-tit_titcount-2_no-arroworient.png"  transform="matrix(1 0 0 1 788 372.5)">
		</image>
		
			<image style="overflow:visible;" width="152" height="32" id="id30" xlink:href="../../../elements/multi-tit-elem/pub/multi-tit_arroworient-bot.png"  transform="matrix(1 0 0 1 1126 134)">
		</image>
		
			<image style="overflow:visible;" width="134" height="64" id="id31" xlink:href="../../../elements/multi-tit-elem/pub/multi-tit_titcount-2_no-arroworient.png"  transform="matrix(1 0 0 1 788 553.5)">
		</image>
		
			<image style="overflow:visible;" width="134" height="64" id="id33" xlink:href="../../../elements/multi-tit-elem/pub/multi-tit_titcount-2_no-arroworient.png"  transform="matrix(1 0 0 1 788 740.5)">
		</image>
		
			<image style="overflow:visible;" width="184" height="32" id="id29" xlink:href="../../../elements/multi-tit-elem/pub/multi-tit_w184_arroworient-right.png"  transform="matrix(1 0 0 1 9 405.5)">
		</image>
		
			<image style="overflow:visible;" width="192" height="32" id="id28" xlink:href="../../../elements/multi-tit-elem/pub/multi-tit_w192_arroworient-left.png"  transform="matrix(1 0 0 1 1236 405.5)">
		</image>
	</g>
	<g id="valve-n-elem">
		
			<image style="overflow:visible;enable-background:new    ;" width="71" height="88" id="id1_00000090285216350362536190000006586894729605595558_" xlink:href="../../../elements/valve-n-elem/pub/valve-n_h_caption.png"  transform="matrix(1.0069 0 0 1.0069 289.2539 12.695)">
		</image>
		
			<image style="overflow:visible;enable-background:new    ;" width="71" height="88" id="id2" xlink:href="../../../elements/valve-n-elem/pub/valve-n_h_caption.png"  transform="matrix(1.0069 0 0 1.0069 955.2538 135.6949)">
		</image>
		
			<image style="overflow:visible;enable-background:new    ;" width="71" height="88" id="id3_00000042006448586746273040000017020693099754671541_" xlink:href="../../../elements/valve-n-elem/pub/valve-n_h_caption.png"  transform="matrix(1.0069 0 0 1.0069 289.2539 314.6949)">
		</image>
		
			<image style="overflow:visible;enable-background:new    ;" width="71" height="88" id="id4_00000095316912752569706360000014894039388220562867_" xlink:href="../../../elements/valve-n-elem/pub/valve-n_h_caption.png"  transform="matrix(1.0069 0 0 1.0069 289.2539 408.6949)">
		</image>
		
			<image style="overflow:visible;enable-background:new    ;" width="71" height="88" id="id5_00000119796397383984894090000013955188781382568607_" xlink:href="../../../elements/valve-n-elem/pub/valve-n_h_caption.png"  transform="matrix(1.0069 0 0 1.0069 289.2539 500.6949)">
		</image>
		
			<image style="overflow:visible;enable-background:new    ;" width="71" height="88" id="id6_00000169543856435104282040000014646446816403196848_" xlink:href="../../../elements/valve-n-elem/pub/valve-n_h_caption.png"  transform="matrix(1.0069 0 0 1.0069 289.2539 591.695)">
		</image>
		
			<image style="overflow:visible;enable-background:new    ;" width="71" height="88" id="id7_00000109741462918954080320000017962984212574539707_" xlink:href="../../../elements/valve-n-elem/pub/valve-n_h_caption.png"  transform="matrix(1.0069 0 0 1.0069 289.2539 683.695)">
		</image>
		
			<image style="overflow:visible;enable-background:new    ;" width="71" height="88" id="id8_00000128471522058171483590000017931561436607243156_" xlink:href="../../../elements/valve-n-elem/pub/valve-n_h_caption.png"  transform="matrix(1.0069 0 0 1.0069 289.2539 776.695)">
		</image>
		
			<image style="overflow:visible;enable-background:new    ;" width="71" height="88" id="id11_00000068663013916464265600000001879373153395592850_" xlink:href="../../../elements/valve-n-elem/pub/valve-n_h_caption.png"  transform="matrix(1.0069 0 0 1.0069 426.2539 313.6949)">
		</image>
		
			<image style="overflow:visible;enable-background:new    ;" width="71" height="88" id="id12_00000010302911822853406400000012180152300833053615_" xlink:href="../../../elements/valve-n-elem/pub/valve-n_h_caption.png"  transform="matrix(1.0069 0 0 1.0069 426.2539 499.6949)">
		</image>
		
			<image style="overflow:visible;enable-background:new    ;" width="71" height="88" id="id13_00000111899672452375477730000003776171706679660212_" xlink:href="../../../elements/valve-n-elem/pub/valve-n_h_caption.png"  transform="matrix(1.0069 0 0 1.0069 426.2539 681.695)">
		</image>
		
			<image style="overflow:visible;enable-background:new    ;" width="71" height="88" id="id15" xlink:href="../../../elements/valve-n-elem/pub/valve-n_h_caption.png"  transform="matrix(1.0069 0 0 1.0069 955.2538 313.6949)">
		</image>
		
			<image style="overflow:visible;enable-background:new    ;" width="71" height="88" id="id16" xlink:href="../../../elements/valve-n-elem/pub/valve-n_h_caption.png"  transform="matrix(1.0069 0 0 1.0069 955.2538 499.6949)">
		</image>
		
			<image style="overflow:visible;enable-background:new    ;" width="71" height="88" id="id17" xlink:href="../../../elements/valve-n-elem/pub/valve-n_h_caption.png"  transform="matrix(1.0069 0 0 1.0069 955.2538 681.695)">
		</image>
		
			<image style="overflow:visible;enable-background:new    ;" width="71" height="88" id="id19" xlink:href="../../../elements/valve-n-elem/pub/valve-n_h_caption.png"  transform="matrix(1.0069 0 0 1.0069 1102.2539 409.6949)">
		</image>
		
			<image style="overflow:visible;enable-background:new    ;" width="71" height="88" id="id20" xlink:href="../../../elements/valve-n-elem/pub/valve-n_h_caption.png"  transform="matrix(1.0069 0 0 1.0069 1102.2539 592.695)">
		</image>
		
			<image style="overflow:visible;enable-background:new    ;" width="71" height="88" id="id21" xlink:href="../../../elements/valve-n-elem/pub/valve-n_h_caption.png"  transform="matrix(1.0069 0 0 1.0069 1102.2539 778.695)">
		</image>
		
			<image style="overflow:visible;enable-background:new    ;" width="101" height="71" id="id23" xlink:href="../../../elements/valve-n-elem/pub/valve-n_v_caption.png"  transform="matrix(0.9803 0 0 0.9803 1177.4968 296.2007)">
		</image>
		
			<image style="overflow:visible;enable-background:new    ;" width="101" height="71" id="id38_00000062912141733374365100000009615869175067846586_" xlink:href="../../../elements/valve-n-elem/pub/valve-n_v_caption.png"  transform="matrix(0.9803 0 0 0.9803 163.4968 296.2007)">
		</image>
		
			<image style="overflow:visible;enable-background:new    ;" width="71" height="88" id="id24_00000181799594148255943120000014910885816398120075_" xlink:href="../../../elements/valve-n-elem/pub/valve-n_h_caption.png"  transform="matrix(1.0069 0 0 1.0069 1290.7539 224.6949)">
		</image>
		
			<image style="overflow:visible;enable-background:new    ;" width="71" height="88" id="id25_00000018946742722275094130000001405531874895996301_" xlink:href="../../../elements/valve-n-elem/pub/valve-n_h_caption.png"  transform="matrix(1.0069 0 0 1.0069 1290.7539 135.6949)">
		</image>
	</g>
	<g id="num-value-elem">
		
			<image style="overflow:visible;" width="72" height="26" id="id44" xlink:href="../../../elements/num-value-elem/pub/num-value_mini.png"  transform="matrix(1 0 0 1 821 61)">
		</image>
		
			<image style="overflow:visible;" width="72" height="26" id="id45" xlink:href="../../../elements/num-value-elem/pub/num-value_mini.png"  transform="matrix(1 0 0 1 821 97.5)">
		</image>
		
			<image style="overflow:visible;" width="72" height="26" id="id46" xlink:href="../../../elements/num-value-elem/pub/num-value_mini.png"  transform="matrix(1 0 0 1 1407.5 481)">
		</image>
		
			<image style="overflow:visible;" width="72" height="26" id="id47" xlink:href="../../../elements/num-value-elem/pub/num-value_mini.png"  transform="matrix(1 0 0 1 1407.5 521)">
		</image>
		
			<image style="overflow:visible;" width="72" height="26" id="id48" xlink:href="../../../elements/num-value-elem/pub/num-value_mini.png"  transform="matrix(1 0 0 1 1407.5 563)">
		</image>
		
			<image style="overflow:visible;" width="72" height="26" id="id49" xlink:href="../../../elements/num-value-elem/pub/num-value_mini.png"  transform="matrix(1 0 0 1 1407.5 605)">
		</image>
		
			<image style="overflow:visible;" width="72" height="26" id="id50" xlink:href="../../../elements/num-value-elem/pub/num-value_mini.png"  transform="matrix(1 0 0 1 1407.5 646)">
		</image>
		
			<image style="overflow:visible;" width="72" height="26" id="id51" xlink:href="../../../elements/num-value-elem/pub/num-value_mini.png"  transform="matrix(1 0 0 1 1407.5 687)">
		</image>
		
			<image style="overflow:visible;" width="72" height="26" id="id60" xlink:href="../../../elements/num-value-elem/pub/num-value_mini.png"  transform="matrix(1 0 0 1 1407.5 729)">
		</image>
	</g>
	<g id="text-value-elem">
		
			<image style="overflow:visible;" width="226" height="33" id="id52_00000061452876259046994550000012996976464007418260_" xlink:href="../../../elements/text-value-elem/pub/default.png"  transform="matrix(1 0 0 1 1270 789.6083)">
		</image>
	</g>
</g>
<g id="lines_00000078726098481041466880000010138477600380020872_">
	<g id="pipes_00000005981384461767709700000003621900026199079825_">
		<g id="gas_00000004537921044617733430000011993969419725484691_">
			<line class="st8" x1="499" y1="637" x2="208" y2="637"/>
			<polyline class="st8" points="1265,181 1265,270 1387,270 1387,181 			"/>
			<polyline class="st8" points="521,545 406,545 406,637 			"/>
			<polyline class="st8" points="1046,544 932,544 932,637 			"/>
			<polyline class="st8" points="406,819 406,727 521,727 521,247 			"/>
			<polyline class="st8" points="268,819 268,728 381,728 381,819 			"/>
			<line class="st8" x1="1045.5" y1="247" x2="1093.5" y2="247"/>
			<polyline class="st8" points="1046,358 932,358 932,455 			"/>
			<polyline class="st8" points="268,460 268,359 381,359 381,457 			"/>
			<polyline class="st8" points="268,637 268,545 381,545 381,636 			"/>
			<polyline class="st8" points="521,359 406,359 406,451 			"/>
			<polyline class="st8" points="932,818 932,726 1047,726 1047,246 			"/>
			<polyline class="st8" points="209,183 209,823 1222,823 1222,181 			"/>
			<line class="st8" x1="1498" y1="181" x2="143" y2="181"/>
			<line class="st8" x1="485" y1="454" x2="210" y2="454"/>
			<line class="st8" x1="211" y1="247" x2="567" y2="247"/>
			<polyline class="st8" points="521,184 521,58 92,58 			"/>
		</g>
	</g>
	<g id="arrows_00000034089502521049348840000011095649198811206312_">
		<g id="gas_00000003827222188174935030000011958557825651426473_">
		</g>
	</g>
	<g id="points_00000096744305783993671050000008451570927755839624_">
		<g id="gas_00000031898579996850027940000017682390618932043665_">
			<circle class="st9" cx="209" cy="182" r="4.5"/>
			<g id="arc_00000008853873401135856890000003296816328980861617_">
				<g id="gas_00000178172223014248293080000013854586227142801805_">
					<path class="st8" d="M1225,637h-171c0-3.9-3.1-8-7-8s-7,4.1-7,8h-46"/>
					<path class="st8" d="M995,637H528c0-3.9-3.1-8-7-8s-7,4.1-7,8h-46"/>
					<path class="st8" d="M1225,454h-171c0-3.9-3.1-7-7-7s-7,3.1-7,7h-46"/>
					<path class="st8" d="M995,454H528c0-3.9-3.1-7-7-7s-7,3.1-7,7h-46"/>
				</g>
			</g>
			<circle class="st9" cx="521" cy="181" r="4.5"/>
			<circle class="st9" cx="1222" cy="182" r="4.5"/>
			<circle class="st9" cx="1222" cy="454" r="4.5"/>
			<circle class="st9" cx="1222" cy="637" r="4.5"/>
			<circle class="st9" cx="1265" cy="182" r="4.5"/>
			<circle class="st9" cx="1387" cy="182" r="4.5"/>
			<circle class="st9" cx="209" cy="247" r="4.5"/>
			<circle class="st9" cx="521" cy="247" r="4.5"/>
			<circle class="st9" cx="209" cy="454" r="4.5"/>
			<circle class="st9" cx="268" cy="454" r="4.5"/>
			<circle class="st9" cx="381" cy="453" r="4.5"/>
			<circle class="st9" cx="406" cy="453" r="4.5"/>
			<circle class="st9" cx="520" cy="359" r="4.5"/>
			<circle class="st9" cx="520" cy="545" r="4.5"/>
			<circle class="st9" cx="1047" cy="359" r="4.5"/>
			<circle class="st9" cx="1047" cy="544" r="4.5"/>
			<circle class="st9" cx="932" cy="636" r="4.5"/>
			<circle class="st9" cx="932" cy="823" r="4.5"/>
			<circle class="st9" cx="932" cy="454" r="4.5"/>
			<circle class="st9" cx="381" cy="637" r="4.5"/>
			<circle class="st9" cx="406" cy="637" r="4.5"/>
			<circle class="st9" cx="381" cy="823" r="4.5"/>
			<circle class="st9" cx="406" cy="823" r="4.5"/>
			<circle class="st9" cx="268" cy="637" r="4.5"/>
			<circle class="st9" cx="268" cy="823" r="4.5"/>
			<circle class="st9" cx="209" cy="637" r="4.5"/>
		</g>
	</g>
</g>
</svg>
