<?xml version="1.0" encoding="utf-8"?>
<!-- Generator: Adobe Illustrator 25.4.1, SVG Export Plug-In . SVG Version: 6.00 Build 0)  -->
<svg version="1.1" xmlns="http://www.w3.org/2000/svg" xmlns:xlink="http://www.w3.org/1999/xlink" x="0px" y="0px"
	 viewBox="0 0 1833.8 1327.2" style="enable-background:new 0 0 1833.8 1327.2;" xml:space="preserve">
<style type="text/css">
	.st0{fill:#202331;}
	.st1{fill:none;stroke:#FCC10A;stroke-width:3;stroke-miterlimit:10;}
	.st2{fill:none;stroke:#836EED;stroke-width:3;stroke-miterlimit:10;}
	.st3{fill:none;stroke:#F3C80D;stroke-width:3;stroke-miterlimit:10;}
	.st4{fill:#2A2D3F;stroke:#FCC10A;stroke-width:2;stroke-miterlimit:10;}
	.st5{fill:#2A2D3F;stroke:#836EED;stroke-width:2;stroke-miterlimit:10;}
	.st6{fill:#2A2D3F;}
	.st7{fill:none;stroke:#6C6E7A;stroke-miterlimit:10;}
	.st8{fill:#EAEAEA;}
	.st9{font-family:'UbuntuCondensed-Regular';}
	.st10{font-size:18.9999px;}
	.st11{font-size:14.9999px;}
	.st12{font-size:20.9999px;}
	.st13{fill:#6C6E7A;}
	.st14{fill:none;stroke:#5C5E69;stroke-miterlimit:10;stroke-dasharray:6,6;}
	.st15{fill:none;stroke:#4373B7;stroke-miterlimit:10;}
	.st16{fill:none;stroke:#FFFFFF;stroke-width:2;stroke-miterlimit:10;}
	.st17{fill:none;}
	.st18{font-size:23.9999px;}
	
		.st19{clip-path:url(#SVGID_00000057142942432075785470000016503523901186377095_);fill:none;stroke:#FCC10A;stroke-width:60;stroke-miterlimit:10;}
	
		.st20{clip-path:url(#SVGID_00000156553526271370534800000009432646920020746889_);fill:none;stroke:#FCCE71;stroke-width:50;stroke-miterlimit:10;}
	
		.st21{clip-path:url(#SVGID_00000178920436581722823640000006107161040020708242_);fill:none;stroke:#FDE2B2;stroke-width:40;stroke-miterlimit:10;}
	
		.st22{clip-path:url(#SVGID_00000135679377871645420370000015835019599776450724_);fill:none;stroke:#FFFFFF;stroke-width:30;stroke-miterlimit:10;}
	.st23{fill:#191A28;}
	.st24{font-size:22px;}
	.st25{fill:#BBBABC;}
	.st26{font-size:21px;}
	.st27{font-size:17px;}
	.st28{font-size:36px;}
	.st29{font-size:20px;}
</style>
<g id="tables-solid">
	<g id="t1">
		<path class="st0" d="M1396,1317H28c-10.7,0-18-8.3-18-19V917c0-10.7,7.3-20,18-20h1368c10.7,0,18,9.3,18,20v381
			C1414,1308.7,1406.7,1317,1396,1317"/>
	</g>
	<g id="t2">
		<path class="st0" d="M1396,872H28c-10.7,0-18-8.3-18-19V472c0-10.7,7.3-20,18-20h1368c10.7,0,18,9.3,18,20v381
			C1414,863.7,1406.7,872,1396,872"/>
	</g>
	<g id="t3">
		<path class="st0" d="M1396,429H28c-10.7,0-18-8.3-18-19V29c0-10.7,7.3-19,18-19h1368c10.7,0,18,8.3,18,19v381
			C1414,420.7,1406.7,429,1396,429"/>
	</g>
</g>
<g id="lines">
	<g id="pipes">
		<g id="gas_00000024003649360046200110000014260905152869518263_">
			<polyline class="st1" points="1079,295 1079,181 1270,181 1270,530 			"/>
			<line class="st1" x1="172" y1="295" x2="326" y2="295"/>
			<polyline class="st1" points="172,194 328,194 328,295 1244,295 1244,532 			"/>
			<polyline class="st1" points="1079,737 1079,620 1240,620 			"/>
			<line class="st1" x1="172" y1="734" x2="326" y2="734"/>
			<polyline class="st1" points="172,633 328,633 328,735 1244,735 			"/>
			<line class="st1" x1="1244" y1="564" x2="1244" y2="957"/>
			<path class="st1" d="M1270,622.4"/>
			<path class="st1" d="M1244.4,736.9"/>
			<path class="st1" d="M1270,913.4"/>
			<path class="st1" d="M1244.4,915.8"/>
			<path class="st1" d="M1270,914.4"/>
			<path class="st1" d="M1244.4,916.8"/>
			<path class="st1" d="M1270,975.4"/>
			<path class="st1" d="M1244.4,977.8"/>
			<path class="st1" d="M1270,1356.4"/>
			<polyline class="st1" points="1079,1181 1079,1065 1230,1065 			"/>
			<line class="st1" x1="172" y1="1179" x2="326" y2="1179"/>
			<polyline class="st1" points="172,1078 328,1078 328,1179 1764,1179 			"/>
			<line class="st1" x1="1244" y1="1010" x2="1244" y2="1181"/>
			<polyline class="st1" points="507,295 507,508 349,508 349,725 			"/>
			<line class="st1" x1="1270" y1="562" x2="1270" y2="941"/>
			<line class="st1" x1="504" y1="1284" x2="1736" y2="1284"/>
			<polyline class="st1" points="507,1179 507,1284 348,1284 			"/>
			<line class="st1" x1="1270" y1="1008" x2="1270" y2="1065"/>
			<line class="st1" x1="1264" y1="1065" x2="1728" y2="1065"/>
			<polyline class="st1" points="507,734 507,839 349,839 			"/>
		</g>
		<g id="methanol_00000026869918957051785240000005393849850409387452_">
			<polyline class="st2" points="870,297 870,106 1381,106 1381,989 			"/>
			<polyline class="st2" points="870,736 870,545 1381,545 			"/>
			<polyline class="st2" points="870,1181 870,990 1719,990 			"/>
		</g>
	</g>
	<g id="arrows">
		<g id="gas_00000023253707941340447490000004804617055334188447_">
			<polyline class="st3" points="335,247 328,254 321,247 			"/>
			<polyline class="st3" points="335,685 328,692 321,685 			"/>
			<polyline class="st3" points="335,1129 328,1136 321,1129 			"/>
			<polyline class="st3" points="263,288 270,295 263,302 			"/>
			<polyline class="st3" points="263,727 271,734 263,740 			"/>
			<polyline class="st3" points="263,1171 272,1179 263,1185 			"/>
		</g>
		<g id="methanol_00000064321649398752438450000012970183581066967199_">
			<polyline class="st2" points="877,247 870,254 863,247 			"/>
			<polyline class="st2" points="877,685 870,692 863,685 			"/>
			<polyline class="st2" points="877,1130 870,1137 863,1130 			"/>
			<polyline class="st2" points="1374,254 1381,246 1388,254 			"/>
			<polyline class="st2" points="1374,693 1381,685 1388,693 			"/>
		</g>
	</g>
	<g id="arc">
		<g id="gas">
			<path class="st1" d="M1244,501v36c-3.9,0-7,3.1-7,7s3.1,7,7,7v35"/>
			<path class="st1" d="M349,693v36c-3.9,0-7,3.1-7,7s3.1,7,7,7v35v331"/>
			<path class="st1" d="M1270,498v39c-3.9,0-7,3.1-7,7s3.1,7,7,7v12"/>
			<path class="st1" d="M1271.5,620.1h-19.3c0-3.9-3.1-7-7-7c-3.9,0-7,3.1-7,7l-6.2,0.3"/>
			<path class="st1" d="M1244,956v26c-3.9,0-7,3.1-7,7s3.1,7,7,7v25"/>
			<path class="st1" d="M349,1108v66c-3.9,0-7,3.1-7,7s3.1,7,7,7v5v92"/>
			<path class="st1" d="M1270,941v41c-3.9,0-7,3.1-7,7s3.1,7,7,7v22"/>
			<path class="st1" d="M1271,1065h-19c0-3.9-3.1-7-7-7c-3.9,0-7,3.1-7,7h-36"/>
		</g>
		<g id="methanol">
		</g>
	</g>
	<g id="points">
		<g id="gas_00000070802920283586765590000006918008027871838121_">
			<circle class="st4" cx="328" cy="295" r="3.5"/>
			<circle class="st4" cx="507" cy="295" r="3.5"/>
			<circle class="st4" cx="1079" cy="295" r="3.5"/>
			<circle class="st4" cx="328" cy="735" r="3.5"/>
			<circle class="st4" cx="349" cy="839" r="3.5"/>
			<circle class="st4" cx="507" cy="735" r="3.5"/>
			<circle class="st4" cx="1080" cy="735" r="3.5"/>
			<circle class="st4" cx="1244" cy="735" r="3.5"/>
			<circle class="st4" cx="1270" cy="620" r="3.5"/>
			<circle class="st4" cx="328" cy="1179" r="3.5"/>
			<circle class="st4" cx="507" cy="1284" r="3.5"/>
			<circle class="st4" cx="507" cy="1179" r="3.5"/>
			<circle class="st4" cx="1079" cy="1179" r="3.5"/>
			<circle class="st4" cx="1244" cy="1179" r="3.5"/>
			<circle class="st4" cx="1270" cy="1064" r="3.5"/>
		</g>
		<g id="methanol_00000067209295875795836940000003816377945124421563_">
			<circle class="st5" cx="870" cy="295" r="3.5"/>
			<circle class="st5" cx="870" cy="735" r="3.5"/>
			<circle class="st5" cx="1381" cy="544" r="3.5"/>
			<circle class="st5" cx="870" cy="1179" r="3.5"/>
			<circle class="st5" cx="1381" cy="989" r="3.5"/>
		</g>
	</g>
</g>
<g id="Слой_2">
	<g id="Слой_3">
	</g>
	<g id="Слой_17">
	</g>
	<g id="Слой_18">
	</g>
	<g id="Слой_25">
	</g>
	<g id="Слой_48">
	</g>
	<g id="Слой_26">
	</g>
	<g id="Слой_27">
	</g>
	<g id="Слой_19">
	</g>
	<g id="Слой_21">
	</g>
	<g id="Слой_31">
	</g>
	<g id="Слой_37">
	</g>
	<g id="Слой_22">
	</g>
	<g id="Слой_20">
	</g>
	<g id="Слой_47">
		<path class="st6" d="M846.4,1058.2l-111.8,0.3c-2.7,0-4.9,2.2-4.9,4.9l0.2,97.7c0,2.7,2.2,4.9,4.9,4.9l111.8-0.3
			c2.7,0,4.9-2.2,4.9-4.9l-0.2-97.7C851.3,1060.4,849.1,1058.2,846.4,1058.2"/>
		<path class="st7" d="M846.4,1058.2l-111.8,0.3c-2.7,0-4.9,2.2-4.9,4.9l0.2,97.7c0,2.7,2.2,4.9,4.9,4.9l111.8-0.3
			c2.7,0,4.9-2.2,4.9-4.9l-0.2-97.7C851.3,1060.4,849.1,1058.2,846.4,1058.2z"/>
		<text transform="matrix(1 -2.470000e-03 2.470000e-03 1 738.3674 1155.9309)" class="st8 st9 st10">F</text>
		<text transform="matrix(1 -2.470000e-03 2.470000e-03 1 746.4205 1155.9502)" class="st8 st9 st11">, м</text>
		<text transform="matrix(1 -2.470000e-03 2.470000e-03 1 761.9752 1155.9111)" class="st8 st9 st11">³</text>
		<text transform="matrix(1 -2.470000e-03 2.470000e-03 1 766.1753 1155.9014)" class="st8 st9 st11">/ч</text>
		<text transform="matrix(1 -2.470000e-03 2.470000e-03 1 798.223 1155.8071)" class="st8 st9 st12">8450</text>
		
			<rect x="839.3" y="1137.8" transform="matrix(1 -2.539010e-03 2.539010e-03 1 -2.9011 2.1401)" class="st13" width="4.3" height="11.8"/>
		
			<rect x="839.3" y="1149.6" transform="matrix(1 -2.539010e-03 2.539010e-03 1 -2.931 2.1402)" class="st13" width="4.3" height="11.8"/>
		<line class="st14" x1="730.2" y1="1075.3" x2="850.8" y2="1075"/>
		<line class="st14" x1="730.3" y1="1123.6" x2="851" y2="1123.3"/>
		<polyline class="st15" points="842.4,1095.3 812.8,1087.8 793.1,1098.2 772.6,1096.4 753.5,1106.2 745.3,1106.7 729.7,1109.3 		
			"/>
		<path class="st13" d="M840.4,1092.8c1.4-1.1,3.4-0.9,4.5,0.5c1.1,1.4,0.9,3.4-0.4,4.6c-1.4,1.1-3.4,0.9-4.5-0.5
			C838.8,1096,839,1093.9,840.4,1092.8"/>
		<path class="st16" d="M840.4,1092.8c1.4-1.1,3.4-0.9,4.5,0.5c1.1,1.4,0.9,3.4-0.4,4.6c-1.4,1.1-3.4,0.9-4.5-0.5
			C838.8,1096,839,1093.9,840.4,1092.8z"/>
	</g>
	<g id="Слой_46">
	</g>
	<g id="Слой_45">
		<path class="st6" d="M844.9,178.2l-111.8,0.3c-2.7,0-4.9,2.2-4.9,4.9l0.2,97.7c0,2.7,2.2,4.9,4.9,4.9l111.8-0.3
			c2.7,0,4.9-2.2,4.9-4.9l-0.2-97.7C849.8,180.4,847.6,178.2,844.9,178.2"/>
		<path class="st7" d="M844.9,178.2l-111.8,0.3c-2.7,0-4.9,2.2-4.9,4.9l0.2,97.7c0,2.7,2.2,4.9,4.9,4.9l111.8-0.3
			c2.7,0,4.9-2.2,4.9-4.9l-0.2-97.7C849.8,180.4,847.6,178.2,844.9,178.2z"/>
		<text transform="matrix(1 -2.470000e-03 2.470000e-03 1 736.9048 275.9308)" class="st8 st9 st10">F</text>
		<text transform="matrix(1 -2.470000e-03 2.470000e-03 1 744.958 275.9502)" class="st8 st9 st11">, м</text>
		<text transform="matrix(1 -2.470000e-03 2.470000e-03 1 760.5126 275.9111)" class="st8 st9 st11">³</text>
		<text transform="matrix(1 -2.470000e-03 2.470000e-03 1 764.7128 275.9014)" class="st8 st9 st11">/ч</text>
		<text transform="matrix(1 -2.470000e-03 2.470000e-03 1 796.7604 275.8072)" class="st8 st9 st12">8450</text>
		
			<rect x="837.8" y="257.8" transform="matrix(1 -2.539010e-03 2.539010e-03 1 -0.6668 2.1335)" class="st13" width="4.3" height="11.8"/>
		
			<rect x="837.8" y="269.6" transform="matrix(1 -2.539010e-03 2.539010e-03 1 -0.6967 2.1336)" class="st13" width="4.3" height="11.8"/>
		<line class="st14" x1="728.7" y1="195.3" x2="849.4" y2="195"/>
		<line class="st14" x1="728.9" y1="243.6" x2="849.5" y2="243.3"/>
		<polyline class="st15" points="841,215.3 811.3,207.8 791.6,218.2 771.2,216.4 752.1,226.2 743.8,226.7 728.2,229.3 		"/>
		<path class="st13" d="M838.9,212.8c1.4-1.1,3.4-0.9,4.5,0.5c1.1,1.4,0.9,3.4-0.4,4.6c-1.4,1.1-3.4,0.9-4.5-0.5
			C837.4,216,837.6,213.9,838.9,212.8"/>
		<path class="st16" d="M838.9,212.8c1.4-1.1,3.4-0.9,4.5,0.5c1.1,1.4,0.9,3.4-0.4,4.6c-1.4,1.1-3.4,0.9-4.5-0.5
			C837.4,216,837.6,213.9,838.9,212.8z"/>
	</g>
	<g id="Слой_44">
		<path class="st6" d="M845.1,617.5l-111.8,0.3c-2.7,0-4.9,2.2-4.9,4.9l0.2,97.7c0,2.7,2.2,4.9,4.9,4.9l111.8-0.3
			c2.7,0,4.9-2.2,4.9-4.9l-0.2-97.7C850,619.7,847.8,617.5,845.1,617.5"/>
		<path class="st7" d="M845.1,617.5l-111.8,0.3c-2.7,0-4.9,2.2-4.9,4.9l0.2,97.7c0,2.7,2.2,4.9,4.9,4.9l111.8-0.3
			c2.7,0,4.9-2.2,4.9-4.9l-0.2-97.7C850,619.7,847.8,617.5,845.1,617.5z"/>
		<text transform="matrix(1 -2.470000e-03 2.470000e-03 1 737.1083 715.277)" class="st8 st9 st10">F</text>
		<text transform="matrix(1 -2.470000e-03 2.470000e-03 1 745.1615 715.2963)" class="st8 st9 st11">, м</text>
		<text transform="matrix(1 -2.470000e-03 2.470000e-03 1 760.7161 715.2573)" class="st8 st9 st11">³</text>
		<text transform="matrix(1 -2.470000e-03 2.470000e-03 1 764.9163 715.2476)" class="st8 st9 st11">/ч</text>
		<text transform="matrix(1 -2.470000e-03 2.470000e-03 1 796.964 715.1533)" class="st8 st9 st12">8450</text>
		
			<rect x="838" y="697.1" transform="matrix(1 -2.539010e-03 2.539010e-03 1 -1.7823 2.1354)" class="st13" width="4.3" height="11.8"/>
		
			<rect x="838" y="708.9" transform="matrix(1 -2.539010e-03 2.539010e-03 1 -1.8122 2.1355)" class="st13" width="4.3" height="11.8"/>
		<line class="st14" x1="728.9" y1="634.6" x2="849.6" y2="634.3"/>
		<line class="st14" x1="729.1" y1="683" x2="849.7" y2="682.7"/>
		<polyline class="st15" points="841.2,654.6 811.5,647.1 791.8,657.6 771.4,655.8 752.3,665.5 744,666 728.4,668.7 		"/>
		<path class="st13" d="M839.1,652.1c1.4-1.1,3.4-0.9,4.5,0.5c1.1,1.4,0.9,3.4-0.4,4.6c-1.4,1.1-3.4,0.9-4.5-0.5
			C837.6,655.3,837.8,653.3,839.1,652.1"/>
		<path class="st16" d="M839.1,652.1c1.4-1.1,3.4-0.9,4.5,0.5c1.1,1.4,0.9,3.4-0.4,4.6c-1.4,1.1-3.4,0.9-4.5-0.5
			C837.6,655.3,837.8,653.3,839.1,652.1z"/>
	</g>
	<g id="Слой_23">
	</g>
	<g id="Слой_40">
	</g>
	<g id="Слой_28">
	</g>
	<g id="Слой_29">
	</g>
	<g id="Слой_30">
	</g>
	<g id="Слой_24">
	</g>
	<g id="Слой_32">
	</g>
	<g id="Слой_33">
	</g>
	<g id="Слой_35">
	</g>
	<g id="Слой_38">
	</g>
	<g id="Слой_41">
	</g>
	<g id="Слой_42">
	</g>
	<g id="Слой_39">
	</g>
	<g id="Слой_36">
	</g>
	<g id="Слой_43">
		<line class="st17" x1="19.6" y1="11.8" x2="1837.4" y2="11.8"/>
		<line class="st17" x1="19.6" y1="11.8" x2="1837.4" y2="11.8"/>
		<line class="st17" x1="19.6" y1="11.8" x2="1837.4" y2="11.8"/>
		<line class="st17" x1="19.6" y1="11.8" x2="1837.4" y2="11.8"/>
		<line class="st17" x1="19.6" y1="11.8" x2="1837.4" y2="11.8"/>
		<line class="st17" x1="19.6" y1="11.8" x2="1837.4" y2="11.8"/>
		<line class="st17" x1="19.6" y1="11.8" x2="1837.4" y2="11.8"/>
		<line class="st17" x1="19.6" y1="11.8" x2="1837.4" y2="11.8"/>
		<line class="st17" x1="19.6" y1="11.8" x2="1837.4" y2="11.8"/>
		<line class="st17" x1="19.6" y1="11.8" x2="1837.4" y2="11.8"/>
		<line class="st17" x1="19.6" y1="11.8" x2="1837.4" y2="11.8"/>
		<line class="st17" x1="19.6" y1="11.8" x2="1837.4" y2="11.8"/>
		<line class="st17" x1="19.6" y1="11.8" x2="1837.4" y2="11.8"/>
		<line class="st17" x1="19.6" y1="11.8" x2="1837.4" y2="11.8"/>
		<line class="st17" x1="19.6" y1="11.8" x2="1837.4" y2="11.8"/>
		<line class="st17" x1="19.6" y1="11.8" x2="1837.4" y2="11.8"/>
		<line class="st17" x1="19.6" y1="11.8" x2="1837.4" y2="11.8"/>
		<line class="st17" x1="19.6" y1="11.8" x2="1837.4" y2="11.8"/>
		<line class="st17" x1="19.6" y1="11.8" x2="1837.4" y2="11.8"/>
		<line class="st17" x1="19.6" y1="11.8" x2="1837.4" y2="11.8"/>
		<line class="st17" x1="19.6" y1="11.8" x2="1837.4" y2="11.8"/>
		<line class="st17" x1="19.6" y1="11.8" x2="1837.4" y2="11.8"/>
		<line class="st17" x1="19.6" y1="11.8" x2="1837.4" y2="11.8"/>
		<line class="st17" x1="19.6" y1="11.8" x2="1837.4" y2="11.8"/>
		<line class="st17" x1="19.6" y1="11.8" x2="1837.4" y2="11.8"/>
		<line class="st17" x1="19.6" y1="11.8" x2="1837.4" y2="11.8"/>
		<line class="st17" x1="19.6" y1="11.8" x2="1837.4" y2="11.8"/>
		<line class="st17" x1="19.6" y1="11.8" x2="1837.4" y2="11.8"/>
		<path class="st6" d="M1718.8,356.1l-179.4,0.3c-2.7,0-4.9,2.2-4.9,4.9l0.1,22.3c0,2.7,2.2,4.9,4.9,4.9l179.4-0.3
			c2.7,0,4.9-2.2,4.9-4.9l-0.1-22.3C1723.7,358.3,1721.4,356.1,1718.8,356.1"/>
		<path class="st7" d="M1718.8,356.1l-179.4,0.3c-2.7,0-4.9,2.2-4.9,4.9l0.1,22.3c0,2.7,2.2,4.9,4.9,4.9l179.4-0.3
			c2.7,0,4.9-2.2,4.9-4.9l-0.1-22.3C1723.7,358.3,1721.4,356.1,1718.8,356.1z"/>
		<line class="st17" x1="19.6" y1="11.8" x2="1837.4" y2="11.8"/>
		<text transform="matrix(1 -2.470000e-03 2.470000e-03 1 1542.8646 378.5503)"><tspan x="0" y="0" class="st8 st9 st12">Fм </tspan><tspan x="25.9" y="0" class="st8 st9 st12">с</tspan><tspan x="33.5" y="0" class="st8 st9 st12">у</tspan><tspan x="41.7" y="0" class="st8 st9 st12">мм</tspan></text>
		<text transform="matrix(1 -2.470000e-03 2.470000e-03 1 1610.1907 378.3583)"><tspan x="0" y="0" class="st8 st9 st10">, к</tspan><tspan x="16.2" y="0" class="st8 st9 st10">г</tspan><tspan x="22.2" y="0" class="st8 st9 st10">/ч</tspan></text>
		<text transform="matrix(1 -2.470000e-03 2.470000e-03 1 1696.2146 378.3338)" class="st8 st9 st18">8</text>
		<path class="st6" d="M1718.8,393.7l-179.4,0.3c-2.7,0-4.9,2.2-4.9,4.9l0.1,22.3c0,2.7,2.2,4.9,4.9,4.9l179.4-0.3
			c2.7,0,4.9-2.2,4.9-4.9l-0.1-22.3C1723.7,395.9,1721.4,393.7,1718.8,393.7"/>
		<path class="st7" d="M1718.8,393.7l-179.4,0.3c-2.7,0-4.9,2.2-4.9,4.9l0.1,22.3c0,2.7,2.2,4.9,4.9,4.9l179.4-0.3
			c2.7,0,4.9-2.2,4.9-4.9l-0.1-22.3C1723.7,395.9,1721.4,393.7,1718.8,393.7z"/>
		<line class="st17" x1="19.6" y1="11.8" x2="1837.4" y2="11.8"/>
		<text transform="matrix(1 -2.470000e-03 2.470000e-03 1 1542.8646 416.2169)" class="st8 st9 st12">Т</text>
		<text transform="matrix(1 -2.470000e-03 2.470000e-03 1 1551.8337 416.1692)" class="st8 st9 st10">, °C</text>
		<text transform="matrix(1 -2.470000e-03 2.470000e-03 1 1670.0067 416.0645)" class="st8 st9 st18">18,6</text>
		
			<rect x="1711.4" y="398" transform="matrix(1 -2.549575e-03 2.549575e-03 1 -1.0243 4.3703)" class="st13" width="4.3" height="11.8"/>
		
			<rect x="1711.5" y="409.8" transform="matrix(1 -2.542532e-03 2.542532e-03 1 -1.0515 4.3583)" class="st13" width="4.3" height="11.8"/>
		<line class="st17" x1="19.6" y1="11.8" x2="1837.4" y2="11.8"/>
		<line class="st17" x1="19.6" y1="11.8" x2="1837.4" y2="11.8"/>
		<line class="st17" x1="19.6" y1="11.8" x2="1837.4" y2="11.8"/>
		<g>
			<defs>
				<polygon id="SVGID_1_" points="1537.2,51.7 1506,93 1558.7,135.7 1583.5,114.5 1614.8,110.6 1659.6,120.7 1690.4,147.6 
					1697.7,211.7 1666.3,254.4 1702.3,313.2 1735.3,296.9 1763.3,250.2 1772.3,195.6 1766.9,129.3 1736.1,85.4 1681.1,43.1 
					1610.9,34.1 				"/>
			</defs>
			<clipPath id="SVGID_00000147934599667805576900000011120699969976905376_">
				<use xlink:href="#SVGID_1_"  style="overflow:visible;"/>
			</clipPath>
			
				<ellipse transform="matrix(0.9239 -0.3827 0.3827 0.9239 51.6036 636.3421)" style="clip-path:url(#SVGID_00000147934599667805576900000011120699969976905376_);fill:none;stroke:#FCC10A;stroke-width:60;stroke-miterlimit:10;" cx="1625.4" cy="188.5" rx="115.3" ry="115.3"/>
		</g>
		<g>
			<defs>
				<polygon id="SVGID_00000173132904210161921050000010466299616375177637_" points="1571,254.6 1537.4,299.1 1583.8,332.5 
					1646.9,334.5 1702.6,311.6 1671.2,260.4 1639.6,259.6 1580.5,252 				"/>
			</defs>
			<clipPath id="SVGID_00000091003979137383261840000016707090620843920513_">
				<use xlink:href="#SVGID_00000173132904210161921050000010466299616375177637_"  style="overflow:visible;"/>
			</clipPath>
			
				<path style="clip-path:url(#SVGID_00000091003979137383261840000016707090620843920513_);fill:none;stroke:#FCCE71;stroke-width:50;stroke-miterlimit:10;" d="
				M1510.5,185.9c0-62.6,50.7-113.3,113.3-113.3c62.6,0,113.3,50.7,113.3,113.3s-50.7,113.3-113.3,113.3
				C1561.3,299.2,1510.5,248.5,1510.5,185.9z"/>
		</g>
		<g>
			<defs>
				<polygon id="SVGID_00000026148216381378963720000007147315798008411781_" points="1485.6,196.7 1493.8,254 1540.6,295 
					1571,254.7 1537.9,193.6 				"/>
			</defs>
			<clipPath id="SVGID_00000150817989874739192580000003497610647546605489_">
				<use xlink:href="#SVGID_00000026148216381378963720000007147315798008411781_"  style="overflow:visible;"/>
			</clipPath>
			
				<ellipse transform="matrix(1.808736e-03 -1 1 1.808736e-03 1430.0615 1808.7489)" style="clip-path:url(#SVGID_00000150817989874739192580000003497610647546605489_);fill:none;stroke:#FDE2B2;stroke-width:40;stroke-miterlimit:10;" cx="1621" cy="188" rx="104.9" ry="104.9"/>
		</g>
		<g>
			<defs>
				<polygon id="SVGID_00000171720138805764529040000007889750108554567837_" points="1492.1,146.1 1487.3,195 1496.4,196.1 
					1539.6,193.6 1558.5,135.5 1521.8,105.8 				"/>
			</defs>
			<clipPath id="SVGID_00000155132586262475927380000000734071590470570912_">
				<use xlink:href="#SVGID_00000171720138805764529040000007889750108554567837_"  style="overflow:visible;"/>
			</clipPath>
			
				<ellipse style="clip-path:url(#SVGID_00000155132586262475927380000000734071590470570912_);fill:none;stroke:#FFFFFF;stroke-width:30;stroke-miterlimit:10;" cx="1639.6" cy="187.5" rx="118.6" ry="99.7"/>
		</g>
		<text transform="matrix(1 0 0 1 1713.6797 129.1187)" class="st23 st9 st24">1</text>
		<text transform="matrix(1 0 0 1 1613.2939 308.2647)" class="st23 st9 st24">2</text>
		<text transform="matrix(1 0 0 1 1524.832 244.6187)" class="st23 st9 st24">3</text>
		<text transform="matrix(1 0 0 1 1521.334 166.1226)" class="st23 st9 st24">4</text>
		<path class="st6" d="M1536,188.6c0-48.7,39.5-88.1,88.1-88.1c48.7,0,88.1,39.5,88.1,88.1c0,48.7-39.5,88.1-88.1,88.1
			C1575.4,276.7,1536,237.3,1536,188.6"/>
		<line class="st17" x1="19.6" y1="11.8" x2="1837.4" y2="11.8"/>
		<text transform="matrix(1 0 0 1 1576.2041 220.9303)"><tspan x="0" y="0" class="st25 st9 st26">F</tspan><tspan x="8.5" y="0" class="st25 st9 st26">r </tspan><tspan x="19.5" y="0" class="st25 st9 st26">с</tspan><tspan x="27.1" y="0" class="st25 st9 st26">у</tspan><tspan x="35.3" y="0" class="st25 st9 st26">мм</tspan></text>
		<text transform="matrix(1 0 0 1 1637.166 220.9303)" class="st25 st9 st27">, м</text>
		<text transform="matrix(1 0 0 1 1654.7949 220.9303)" class="st25 st9 st27">³</text>
		<text transform="matrix(1 0 0 1 1659.5547 220.9303)" class="st25 st9 st27">/ч</text>
		<text transform="matrix(1 0 0 1 1586.5518 195.8726)" class="st8 st9 st28">59316</text>
	</g>
</g>
<g id="SimpleElements">
	<g id="gasser-elem">
		
			<image style="overflow:visible;" width="160" height="301" id="id1" xlink:href="../../../elements/gasser-elem/pub/default.png"  transform="matrix(1 0 0 1 23 104.5)">
		</image>
		
			<image style="overflow:visible;" width="160" height="301" id="id2" xlink:href="../../../elements/gasser-elem/pub/default.png"  transform="matrix(1 0 0 1 23 545.5)">
		</image>
		
			<image style="overflow:visible;" width="160" height="301" id="id3" xlink:href="../../../elements/gasser-elem/pub/default.png"  transform="matrix(1 0 0 1 23 990.5)">
		</image>
	</g>
	<g id="transition-button-elem">
		
			<image style="overflow:visible;" width="119" height="34" id="id4" xlink:href="../../../../../../../../../../../Mnemo/mnemoelements-2.0/elements/transition-button-elem/pub/transition-button_arrowdirection-1.png"  transform="matrix(1 0 0 1 1703.5 974)">
		</image>
		
			<image style="overflow:visible;" width="119" height="34" id="id5" xlink:href="../../../../../../../../../../../Mnemo/mnemoelements-2.0/elements/transition-button-elem/pub/transition-button_arrowdirection-0.png"  transform="matrix(1 0 0 1 1703.5 1047)">
		</image>
		
			<image style="overflow:visible;" width="119" height="34" id="id6" xlink:href="../../../../../../../../../../../Mnemo/mnemoelements-2.0/elements/transition-button-elem/pub/transition-button_arrowdirection-0.png"  transform="matrix(1 0 0 1 1703.5 1161)">
		</image>
		
			<image style="overflow:visible;" width="119" height="34" id="id7" xlink:href="../../../../../../../../../../../Mnemo/mnemoelements-2.0/elements/transition-button-elem/pub/transition-button_arrowdirection-0.png"  transform="matrix(1 0 0 1 1703.5 1262)">
		</image>
	</g>
	<g id="valve-n-elem">
		
			<image style="overflow:visible;" width="71" height="89" id="id8" xlink:href="../../../../../../../../../../../Mnemo/mnemoelements-2.0/elements/valve-n-elem/pub/valve-n_h_caption.png"  transform="matrix(1 0 0 1 539.5 1132.5)">
		</image>
		
			<image style="overflow:visible;" width="71" height="89" id="id9" xlink:href="../../../../../../../../../../../Mnemo/mnemoelements-2.0/elements/valve-n-elem/pub/valve-n_h_caption.png"  transform="matrix(1 0 0 1 539.5 688.5)">
		</image>
		
			<image style="overflow:visible;" width="71" height="89" id="id10" xlink:href="../../../../../../../../../../../Mnemo/mnemoelements-2.0/elements/valve-n-elem/pub/valve-n_h_caption.png"  transform="matrix(1 0 0 1 539.5 247.5)">
		</image>
		
			<image style="overflow:visible;" width="71" height="89" id="id11" xlink:href="../../../../../../../../../../../Mnemo/mnemoelements-2.0/elements/valve-n-elem/pub/valve-n_h_caption.png"  transform="matrix(1 0 0 1 636.5 1132.5)">
		</image>
		
			<image style="overflow:visible;" width="71" height="89" id="id12" xlink:href="../../../../../../../../../../../Mnemo/mnemoelements-2.0/elements/valve-n-elem/pub/valve-n_h_caption.png"  transform="matrix(1 0 0 1 636.5 688.5)">
		</image>
		
			<image style="overflow:visible;" width="71" height="89" id="id13" xlink:href="../../../../../../../../../../../Mnemo/mnemoelements-2.0/elements/valve-n-elem/pub/valve-n_h_caption.png"  transform="matrix(1 0 0 1 636.5 247.5)">
		</image>
		
			<image style="overflow:visible;" width="71" height="89" id="id14" xlink:href="../../../../../../../../../../../Mnemo/mnemoelements-2.0/elements/valve-n-elem/pub/valve-n_h_caption.png"  transform="matrix(1 0 0 1 910.5 57.5)">
		</image>
		
			<image style="overflow:visible;" width="71" height="89" id="id15" xlink:href="../../../../../../../../../../../Mnemo/mnemoelements-2.0/elements/valve-n-elem/pub/valve-n_h_caption.png"  transform="matrix(1 0 0 1 910.5 497)">
		</image>
		
			<image style="overflow:visible;" width="71" height="89" id="id16" xlink:href="../../../../../../../../../../../Mnemo/mnemoelements-2.0/elements/valve-n-elem/pub/valve-n_h_caption.png"  transform="matrix(1 0 0 1 910.5 943.5)">
		</image>
		
			<image style="overflow:visible;" width="71" height="89" id="id17" xlink:href="../../../../../../../../../../../Mnemo/mnemoelements-2.0/elements/valve-n-elem/pub/valve-n_h_caption.png"  transform="matrix(1 0 0 1 1287.5 57.5)">
		</image>
		
			<image style="overflow:visible;" width="71" height="89" id="id18" xlink:href="../../../../../../../../../../../Mnemo/mnemoelements-2.0/elements/valve-n-elem/pub/valve-n_h_caption.png"  transform="matrix(1 0 0 1 1287.5 497)">
		</image>
		
			<image style="overflow:visible;" width="71" height="89" id="id20" xlink:href="../../../../../../../../../../../Mnemo/mnemoelements-2.0/elements/valve-n-elem/pub/valve-n_h_caption.png"  transform="matrix(1 0 0 1 1287.5 943.5)">
		</image>
		
			<image style="overflow:visible;" width="71" height="89" id="id19" xlink:href="../../../../../../../../../../../Mnemo/mnemoelements-2.0/elements/valve-n-elem/pub/valve-n_h_caption.png"  transform="matrix(1 0 0 1 1599.5 943.5)">
		</image>
		
			<image style="overflow:visible;" width="71" height="89" id="id21" xlink:href="../../../../../../../../../../../Mnemo/mnemoelements-2.0/elements/valve-n-elem/pub/valve-n_h_caption.png"  transform="matrix(1 0 0 1 1147.5 247.5)">
		</image>
		
			<image style="overflow:visible;" width="71" height="89" id="id22" xlink:href="../../../../../../../../../../../Mnemo/mnemoelements-2.0/elements/valve-n-elem/pub/valve-n_h_caption.png"  transform="matrix(1 0 0 1 1147.5 688.5)">
		</image>
		
			<image style="overflow:visible;" width="71" height="89" id="id23" xlink:href="../../../../../../../../../../../Mnemo/mnemoelements-2.0/elements/valve-n-elem/pub/valve-n_h_caption.png"  transform="matrix(1 0 0 1 1147.5 1132.5)">
		</image>
		
			<image style="overflow:visible;" width="98" height="71" id="id24" xlink:href="../../../../../../../../../../../Mnemo/mnemoelements-2.0/elements/valve-n-elem/pub/valve-n_v_caption.png"  transform="matrix(1 0 0 1 1033 1084.5)">
		</image>
		
			<image style="overflow:visible;" width="98" height="71" id="id25" xlink:href="../../../../../../../../../../../Mnemo/mnemoelements-2.0/elements/valve-n-elem/pub/valve-n_v_caption.png"  transform="matrix(1 0 0 1 1033 635.5)">
		</image>
		
			<image style="overflow:visible;" width="98" height="71" id="id26" xlink:href="../../../../../../../../../../../Mnemo/mnemoelements-2.0/elements/valve-n-elem/pub/valve-n_v_caption.png"  transform="matrix(1 0 0 1 1033 197.5)">
		</image>
	</g>
	<g id="valve-mini-unactive-elem">
		
			<image style="overflow:visible;" width="37" height="38" id="id27" xlink:href="../../../../../../../../../../../Mnemo/mnemoelements-2.0/elements/valve-mini-unactive-elem/pub/valve-mini-unactive_v_no-caption.png"  transform="matrix(1 0 0 1 483 358)">
		</image>
		
			<image style="overflow:visible;" width="37" height="38" id="id28" xlink:href="../../../../../../../../../../../Mnemo/mnemoelements-2.0/elements/valve-mini-unactive-elem/pub/valve-mini-unactive_v_no-caption.png"  transform="matrix(1 0 0 1 482 771)">
		</image>
		
			<image style="overflow:visible;" width="37" height="38" id="id29" xlink:href="../../../../../../../../../../../Mnemo/mnemoelements-2.0/elements/valve-mini-unactive-elem/pub/valve-mini-unactive_v_no-caption.png"  transform="matrix(1 0 0 1 482 1211.5)">
		</image>
	</g>
	<g id="multi-tit-elem">
		
			<image style="overflow:visible;" width="114" height="32" id="id30" xlink:href="../../../../../../../../../../../Mnemo/mnemoelements-2.0/elements/multi-tit-elem/pub/multi-tit_arroworient-left.png"  transform="matrix(1 0 0 1 131 1111)">
		</image>
		
			<image style="overflow:visible;" width="114" height="32" id="id31" xlink:href="../../../../../../../../../../../Mnemo/mnemoelements-2.0/elements/multi-tit-elem/pub/multi-tit_arroworient-left.png"  transform="matrix(1 0 0 1 131 664)">
		</image>
		
			<image style="overflow:visible;" width="114" height="32" id="id32" xlink:href="../../../../../../../../../../../Mnemo/mnemoelements-2.0/elements/multi-tit-elem/pub/multi-tit_arroworient-left.png"  transform="matrix(1 0 0 1 131 226)">
		</image>
		
			<image style="overflow:visible;" width="114" height="64" id="id33" xlink:href="../../../../../../../../../../../Mnemo/mnemoelements-2.0/elements/multi-tit-elem/pub/multi-tit_titcount-2_no-arroworient.png"  transform="matrix(1 0 0 1 192 1004)">
		</image>
		
			<image style="overflow:visible;" width="114" height="64" id="id34" xlink:href="../../../../../../../../../../../Mnemo/mnemoelements-2.0/elements/multi-tit-elem/pub/multi-tit_titcount-2_no-arroworient.png"  transform="matrix(1 0 0 1 141 1212)">
		</image>
		
			<image style="overflow:visible;" width="114" height="64" id="id35" xlink:href="../../../../../../../../../../../Mnemo/mnemoelements-2.0/elements/multi-tit-elem/pub/multi-tit_titcount-2_no-arroworient.png"  transform="matrix(1 0 0 1 141 764)">
		</image>
		
			<image style="overflow:visible;" width="114" height="64" id="id36" xlink:href="../../../../../../../../../../../Mnemo/mnemoelements-2.0/elements/multi-tit-elem/pub/multi-tit_titcount-2_no-arroworient.png"  transform="matrix(1 0 0 1 192 559)">
		</image>
		
			<image style="overflow:visible;" width="114" height="64" id="id37" xlink:href="../../../../../../../../../../../Mnemo/mnemoelements-2.0/elements/multi-tit-elem/pub/multi-tit_titcount-2_no-arroworient.png"  transform="matrix(1 0 0 1 141 328)">
		</image>
		
			<image style="overflow:visible;" width="114" height="64" id="id38" xlink:href="../../../../../../../../../../../Mnemo/mnemoelements-2.0/elements/multi-tit-elem/pub/multi-tit_titcount-2_no-arroworient.png"  transform="matrix(1 0 0 1 192 118)">
		</image>
		
			<image style="overflow:visible;" width="114" height="64" id="id39" xlink:href="../../../../../../../../../../../Mnemo/mnemoelements-2.0/elements/multi-tit-elem/pub/multi-tit_titcount-2_no-arroworient.png"  transform="matrix(1 0 0 1 360 222)">
		</image>
		
			<image style="overflow:visible;" width="114" height="64" id="id40" xlink:href="../../../../../../../../../../../Mnemo/mnemoelements-2.0/elements/multi-tit-elem/pub/multi-tit_titcount-2_no-arroworient.png"  transform="matrix(1 0 0 1 360 660)">
		</image>
		
			<image style="overflow:visible;" width="114" height="64" id="id41" xlink:href="../../../../../../../../../../../Mnemo/mnemoelements-2.0/elements/multi-tit-elem/pub/multi-tit_titcount-2_no-arroworient.png"  transform="matrix(1 0 0 1 360 1103)">
		</image>
		
			<image style="overflow:visible;" width="114" height="64" id="id42" xlink:href="../../../../../../../../../../../Mnemo/mnemoelements-2.0/elements/multi-tit-elem/pub/multi-tit_titcount-2_no-arroworient.png"  transform="matrix(1 0 0 1 897 222)">
		</image>
		
			<image style="overflow:visible;" width="114" height="64" id="id43" xlink:href="../../../../../../../../../../../Mnemo/mnemoelements-2.0/elements/multi-tit-elem/pub/multi-tit_titcount-2_no-arroworient.png"  transform="matrix(1 0 0 1 901 660)">
		</image>
		
			<image style="overflow:visible;" width="114" height="64" id="id44" xlink:href="../../../../../../../../../../../Mnemo/mnemoelements-2.0/elements/multi-tit-elem/pub/multi-tit_titcount-2_no-arroworient.png"  transform="matrix(1 0 0 1 901 1103)">
		</image>
		
			<image style="overflow:visible;" width="114" height="32" id="id45" xlink:href="../../../../../../../../../../../Mnemo/mnemoelements-2.0/elements/multi-tit-elem/pub/multi-tit_no-arroworient.png"  transform="matrix(1 0 0 1 1033 66)">
		</image>
		
			<image style="overflow:visible;" width="114" height="32" id="id46" xlink:href="../../../../../../../../../../../Mnemo/mnemoelements-2.0/elements/multi-tit-elem/pub/multi-tit_no-arroworient.png"  transform="matrix(1 0 0 1 1033 505)">
		</image>
		
			<image style="overflow:visible;" width="114" height="32" id="id47" xlink:href="../../../../../../../../../../../Mnemo/mnemoelements-2.0/elements/multi-tit-elem/pub/multi-tit_no-arroworient.png"  transform="matrix(1 0 0 1 1033 949)">
		</image>
		
			<image style="overflow:visible;" width="114" height="64" id="id48" xlink:href="../../../../../../../../../../../Mnemo/mnemoelements-2.0/elements/multi-tit-elem/pub/multi-tit_titcount-2_no-arroworient.png"  transform="matrix(1 0 0 1 1446 1103)">
		</image>
		
			<image style="overflow:visible;" width="114" height="32" id="id49" xlink:href="../../../../../../../../../../../Mnemo/mnemoelements-2.0/elements/multi-tit-elem/pub/multi-tit_no-arroworient.png"  transform="matrix(1 0 0 1 1446 1024)">
		</image>
		
			<image style="overflow:visible;" width="114" height="32" id="id50" xlink:href="../../../../../../../../../../../Mnemo/mnemoelements-2.0/elements/multi-tit-elem/pub/multi-tit_no-arroworient.png"  transform="matrix(1 0 0 1 1446 949)">
		</image>
	</g>
</g>
<g id="text">
	<g id="px20">
		<text transform="matrix(1 0 0 1 33.0739 36.1386)"><tspan x="0" y="0" class="st25 st9 st29">Ск</tspan><tspan x="17.9" y="0" class="st25 st9 st29">в</tspan><tspan x="27.2" y="0" class="st25 st9 st29">ажина 1</tspan></text>
		<text transform="matrix(1 0 0 1 34.1734 491.9857)"><tspan x="0" y="0" class="st25 st9 st29">Ск</tspan><tspan x="17.9" y="0" class="st25 st9 st29">в</tspan><tspan x="27.2" y="0" class="st25 st9 st29">ажина 2</tspan></text>
		<text transform="matrix(1 0 0 1 36.3728 937.8113)"><tspan x="0" y="0" class="st25 st9 st29">Ск</tspan><tspan x="17.9" y="0" class="st25 st9 st29">в</tspan><tspan x="27.2" y="0" class="st25 st9 st29">ажина 3</tspan></text>
	</g>
</g>
</svg>
