<?xml version="1.0" encoding="utf-8"?>
<!-- Generator: Adobe Illustrator 25.4.1, SVG Export Plug-In . SVG Version: 6.00 Build 0)  -->
<svg version="1.1" id="Слой_1" xmlns="http://www.w3.org/2000/svg" xmlns:xlink="http://www.w3.org/1999/xlink" x="0px" y="0px"
	 width="2264px" height="1252.6px" viewBox="0 0 2264 1252.6" style="enable-background:new 0 0 2264 1252.6;" xml:space="preserve"
	>
<style type="text/css">
	.st0{fill:none;stroke:#A5269F;stroke-width:3;stroke-miterlimit:10;}
	.st1{fill:none;stroke:#F3C811;stroke-width:3;stroke-miterlimit:10;}
	.st2{fill:#FFFFFF;stroke:#A5269F;stroke-width:3;stroke-miterlimit:10;}
	.st3{fill:#FFFFFF;stroke:#F3C811;stroke-width:3;stroke-miterlimit:10;}
</style>
<g id="SimpleElements">
	<g id="arrow-pic">
		
			<image style="overflow:visible;" width="28" height="53" id="id1" xlink:href="../../../elements/arrow-pic/pub/arrow-pic_caption.png"  transform="matrix(1 0 0 1 322 63.5)">
		</image>
		
			<image style="overflow:visible;" width="28" height="53" id="id2" xlink:href="../../../elements/arrow-pic/pub/arrow-pic_caption.png"  transform="matrix(1 0 0 1 322 176.5)">
		</image>
		
			<image style="overflow:visible;" width="28" height="53" id="id3" xlink:href="../../../elements/arrow-pic/pub/arrow-pic_caption.png"  transform="matrix(1 0 0 1 322 577.5)">
		</image>
		
			<image style="overflow:visible;" width="28" height="53" id="id4" xlink:href="../../../elements/arrow-pic/pub/arrow-pic_caption.png"  transform="matrix(1 0 0 1 322 713.5)">
		</image>
		
			<image style="overflow:visible;" width="28" height="53" id="id5" xlink:href="../../../elements/arrow-pic/pub/arrow-pic_caption.png"  transform="matrix(1 0 0 1 322 433.5)">
		</image>
		
			<image style="overflow:visible;" width="28" height="53" id="id6" xlink:href="../../../elements/arrow-pic/pub/arrow-pic_caption.png"  transform="matrix(1 0 0 1 322 313)">
		</image>
	</g>
	<g id="transition-button-elem">
		
			<image style="overflow:visible;enable-background:new    ;" width="119" height="34" id="id7_00000148622705565113845960000011984214726065586322_" xlink:href="../../../../../Users/evgen/OneDrive/Рабочий стол/workspace/_work/arh/Elements/transition-button-elem/pub/transition-button_arrowdirection-0.png"  transform="matrix(1 0 0 1 10 119.5)">
		</image>
		
			<image style="overflow:visible;enable-background:new    ;" width="119" height="34" id="id8_00000098919463481941910890000010337097279590302874_" xlink:href="../../../../../Users/evgen/OneDrive/Рабочий стол/workspace/_work/arh/Elements/transition-button-elem/pub/transition-button_arrowdirection-0.png"  transform="matrix(1 0 0 1 10 313.5)">
		</image>
		
			<image style="overflow:visible;enable-background:new    ;" width="119" height="34" id="id9_00000028288226148397929250000008921414340931760286_" xlink:href="../../../../../Users/evgen/OneDrive/Рабочий стол/workspace/_work/arh/Elements/transition-button-elem/pub/transition-button_arrowdirection-0.png"  transform="matrix(1 0 0 1 10 435)">
		</image>
		
			<image style="overflow:visible;enable-background:new    ;" width="119" height="34" id="id10_00000019640916948097973950000006990892650931056319_" xlink:href="../../../../../Users/evgen/OneDrive/Рабочий стол/workspace/_work/arh/Elements/transition-button-elem/pub/transition-button_arrowdirection-0.png"  transform="matrix(1 0 0 1 10 712.5)">
		</image>
		
			<image style="overflow:visible;enable-background:new    ;" width="119" height="34" id="id11_00000085240923695720558380000010071806660698842243_" xlink:href="../../../../../Users/evgen/OneDrive/Рабочий стол/workspace/_work/arh/Elements/transition-button-elem/pub/transition-button_arrowdirection-0.png"  transform="matrix(1 0 0 1 2134 121)">
		</image>
		
			<image style="overflow:visible;enable-background:new    ;" width="119" height="34" id="id12_00000149365357626349820830000004029556156485164977_" xlink:href="../../../../../Users/evgen/OneDrive/Рабочий стол/workspace/_work/arh/Elements/transition-button-elem/pub/transition-button_arrowdirection-0.png"  transform="matrix(1 0 0 1 2134 282)">
		</image>
		
			<image style="overflow:visible;enable-background:new    ;" width="119" height="34" id="id13_00000051341229244605967130000018286098126468773292_" xlink:href="../../../../../Users/evgen/OneDrive/Рабочий стол/workspace/_work/arh/Elements/transition-button-elem/pub/transition-button_arrowdirection-0.png"  transform="matrix(1 0 0 1 2134 884)">
		</image>
		<g id="multi-tit-elem">
			
				<image style="overflow:visible;enable-background:new    ;" width="152" height="32" id="id62" xlink:href="../../../elements/multi-tit-elem/pub/multi-tit_arroworient-bot.png"  transform="matrix(1 0 0 1 261 134)">
			</image>
			
				<image style="overflow:visible;enable-background:new    ;" width="152" height="32" id="id63" xlink:href="../../../elements/multi-tit-elem/pub/multi-tit_arroworient-bot.png"  transform="matrix(1 0 0 1 261 21)">
			</image>
			
				<image style="overflow:visible;enable-background:new    ;" width="152" height="32" id="id64" xlink:href="../../../elements/multi-tit-elem/pub/multi-tit_arroworient-bot.png"  transform="matrix(1 0 0 1 261 270.5)">
			</image>
			
				<image style="overflow:visible;enable-background:new    ;" width="152" height="32" id="id65" xlink:href="../../../elements/multi-tit-elem/pub/multi-tit_arroworient-bot.png"  transform="matrix(1 0 0 1 261 391.5)">
			</image>
			
				<image style="overflow:visible;enable-background:new    ;" width="152" height="32" id="id66" xlink:href="../../../elements/multi-tit-elem/pub/multi-tit_arroworient-bot.png"  transform="matrix(1 0 0 1 261 671.5)">
			</image>
			
				<image style="overflow:visible;enable-background:new    ;" width="152" height="32" id="id67" xlink:href="../../../elements/multi-tit-elem/pub/multi-tit_arroworient-bot.png"  transform="matrix(1 0 0 1 261 534.5)">
			</image>
			
				<image style="overflow:visible;enable-background:new    ;" width="134" height="32" id="id68" xlink:href="../../../elements/multi-tit-elem/pub/multi-tit_no-arroworient.png"  transform="matrix(1 0 0 1 862 86)">
			</image>
			
				<image style="overflow:visible;enable-background:new    ;" width="134" height="64" id="id69" xlink:href="../../../elements/multi-tit-elem/pub/multi-tit_titcount-2_no-arroworient.png"  transform="matrix(1.0746 0 0 1 1144 462)">
			</image>
			
				<image style="overflow:visible;enable-background:new    ;" width="134" height="64" id="id70" xlink:href="../../../elements/multi-tit-elem/pub/multi-tit_titcount-2_no-arroworient.png"  transform="matrix(1.0746 0 0 1 1144 667.5)">
			</image>
			
				<image style="overflow:visible;enable-background:new    ;" width="134" height="64" id="id71" xlink:href="../../../elements/multi-tit-elem/pub/multi-tit_titcount-2_no-arroworient.png"  transform="matrix(1.0746 0 0 1 1144 216.5)">
			</image>
			
				<image style="overflow:visible;enable-background:new    ;" width="134" height="64" id="id72" xlink:href="../../../elements/multi-tit-elem/pub/multi-tit_titcount-2_no-arroworient.png"  transform="matrix(1.0746 0 0 1 1144 1087)">
			</image>
			
				<image style="overflow:visible;enable-background:new    ;" width="134" height="64" id="id78" xlink:href="../../../elements/multi-tit-elem/pub/multi-tit_titcount-2_no-arroworient.png"  transform="matrix(1.0746 0 0 1 1144 875.5)">
			</image>
			
				<image style="overflow:visible;enable-background:new    ;" width="134" height="96" id="id75" xlink:href="../../../elements/multi-tit-elem/pub/multi-tit_titcount-3_no-arroworient.png"  transform="matrix(1 0 0 1 1976.5 1056.5)">
			</image>
			
				<image style="overflow:visible;enable-background:new    ;" width="134" height="96" id="id77" xlink:href="../../../elements/multi-tit-elem/pub/multi-tit_titcount-3_no-arroworient.png"  transform="matrix(1 0 0 1 1976.5 23.5)">
			</image>
			
				<image style="overflow:visible;enable-background:new    ;" width="134" height="96" id="id73_00000118395880262352928170000005638059411780602766_" xlink:href="../../../elements/multi-tit-elem/pub/multi-tit_titcount-3_no-arroworient.png"  transform="matrix(1 0 0 1 1976.5 183.5)">
			</image>
			
				<image style="overflow:visible;enable-background:new    ;" width="134" height="96" id="id74" xlink:href="../../../elements/multi-tit-elem/pub/multi-tit_titcount-3_no-arroworient.png"  transform="matrix(1 0 0 1 1976.5 784.5)">
			</image>
		</g>
		
			<image style="overflow:visible;enable-background:new    ;" width="119" height="34" id="id14_00000022550391520322855540000005335863000120026016_" xlink:href="../../../../../Users/evgen/OneDrive/Рабочий стол/workspace/_work/arh/Elements/transition-button-elem/pub/transition-button_arrowdirection-0.png"  transform="matrix(1 0 0 1 2134 1153)">
		</image>
	</g>
	<g id="valve-n-elem">
		
			<image style="overflow:visible;enable-background:new    ;" width="71" height="89" id="id15" xlink:href="../../../../../Users/evgen/OneDrive/Рабочий стол/workspace/_work/arh/Elements/valve-n-elem/pub/valve-n_h_caption.png"  transform="matrix(1 0 0 1 573.5 41.5)">
		</image>
		
			<image style="overflow:visible;enable-background:new    ;" width="71" height="89" id="id16" xlink:href="../../../../../Users/evgen/OneDrive/Рабочий стол/workspace/_work/arh/Elements/valve-n-elem/pub/valve-n_h_caption.png"  transform="matrix(1 0 0 1 573.5 153.5)">
		</image>
		
			<image style="overflow:visible;enable-background:new    ;" width="71" height="89" id="id17" xlink:href="../../../../../Users/evgen/OneDrive/Рабочий стол/workspace/_work/arh/Elements/valve-n-elem/pub/valve-n_h_caption.png"  transform="matrix(1 0 0 1 741.5 285)">
		</image>
		
			<image style="overflow:visible;enable-background:new    ;" width="71" height="89" id="id18" xlink:href="../../../../../Users/evgen/OneDrive/Рабочий стол/workspace/_work/arh/Elements/valve-n-elem/pub/valve-n_h_caption.png"  transform="matrix(1 0 0 1 741.5 539.5)">
		</image>
		
			<image style="overflow:visible;enable-background:new    ;" width="71" height="89" id="id19_00000098910397647046729700000013147484373955549106_" xlink:href="../../../../../Users/evgen/OneDrive/Рабочий стол/workspace/_work/arh/Elements/valve-n-elem/pub/valve-n_h_caption.png"  transform="matrix(1 0 0 1 741.5 944.5)">
		</image>
		
			<image style="overflow:visible;enable-background:new    ;" width="71" height="89" id="id20_00000111882206519488485540000002258380449178371209_" xlink:href="../../../../../Users/evgen/OneDrive/Рабочий стол/workspace/_work/arh/Elements/valve-n-elem/pub/valve-n_h_caption.png"  transform="matrix(1 0 0 1 741.5 739.5)">
		</image>
		
			<image style="overflow:visible;enable-background:new    ;" width="71" height="89" id="id21_00000160161735336322643090000012472830128246411653_" xlink:href="../../../../../Users/evgen/OneDrive/Рабочий стол/workspace/_work/arh/Elements/valve-n-elem/pub/valve-n_h_caption.png"  transform="matrix(1 0 0 1 741.5 1158)">
		</image>
		
			<image style="overflow:visible;enable-background:new    ;" width="71" height="89" id="id22" xlink:href="../../../../../Users/evgen/OneDrive/Рабочий стол/workspace/_work/arh/Elements/valve-n-elem/pub/valve-n_h_caption.png"  transform="matrix(1 0 0 1 893.5 239.5)">
		</image>
		
			<image style="overflow:visible;enable-background:new    ;" width="71" height="89" id="id23" xlink:href="../../../../../Users/evgen/OneDrive/Рабочий стол/workspace/_work/arh/Elements/valve-n-elem/pub/valve-n_h_caption.png"  transform="matrix(1 0 0 1 893.5 405)">
		</image>
		
			<image style="overflow:visible;enable-background:new    ;" width="71" height="89" id="id24" xlink:href="../../../../../Users/evgen/OneDrive/Рабочий стол/workspace/_work/arh/Elements/valve-n-elem/pub/valve-n_h_caption.png"  transform="matrix(1 0 0 1 893.5 151.5)">
		</image>
		
			<image style="overflow:visible;enable-background:new    ;" width="71" height="89" id="id25" xlink:href="../../../../../Users/evgen/OneDrive/Рабочий стол/workspace/_work/arh/Elements/valve-n-elem/pub/valve-n_h_caption.png"  transform="matrix(1 0 0 1 893.5 493.5)">
		</image>
		
			<image style="overflow:visible;enable-background:new    ;" width="71" height="89" id="id26_00000078759439629026412480000017957188203306007950_" xlink:href="../../../../../Users/evgen/OneDrive/Рабочий стол/workspace/_work/arh/Elements/valve-n-elem/pub/valve-n_h_caption.png"  transform="matrix(1 0 0 1 893.5 801.5)">
		</image>
		
			<image style="overflow:visible;enable-background:new    ;" width="71" height="89" id="id27_00000085950968908187786360000014138172379924568457_" xlink:href="../../../../../Users/evgen/OneDrive/Рабочий стол/workspace/_work/arh/Elements/valve-n-elem/pub/valve-n_h_caption.png"  transform="matrix(1 0 0 1 893.5 888.5)">
		</image>
		
			<image style="overflow:visible;enable-background:new    ;" width="71" height="89" id="id28" xlink:href="../../../../../Users/evgen/OneDrive/Рабочий стол/workspace/_work/arh/Elements/valve-n-elem/pub/valve-n_h_caption.png"  transform="matrix(1 0 0 1 893.5 686)">
		</image>
		
			<image style="overflow:visible;enable-background:new    ;" width="71" height="89" id="id29_00000079460180743876065490000002473877509251209364_" xlink:href="../../../../../Users/evgen/OneDrive/Рабочий стол/workspace/_work/arh/Elements/valve-n-elem/pub/valve-n_h_caption.png"  transform="matrix(1 0 0 1 893.5 1011)">
		</image>
		
			<image style="overflow:visible;enable-background:new    ;" width="71" height="89" id="id30" xlink:href="../../../../../Users/evgen/OneDrive/Рабочий стол/workspace/_work/arh/Elements/valve-n-elem/pub/valve-n_h_caption.png"  transform="matrix(1 0 0 1 893.5 600)">
		</image>
		
			<image style="overflow:visible;enable-background:new    ;" width="71" height="89" id="id31_00000079475894745868358240000002064546570120297357_" xlink:href="../../../../../Users/evgen/OneDrive/Рабочий стол/workspace/_work/arh/Elements/valve-n-elem/pub/valve-n_h_caption.png"  transform="matrix(1 0 0 1 893.5 1099.5)">
		</image>
		
			<image style="overflow:visible;enable-background:new    ;" width="71" height="89" id="id32_00000181081148315022394780000016476760947180424090_" xlink:href="../../../../../Users/evgen/OneDrive/Рабочий стол/workspace/_work/arh/Elements/valve-n-elem/pub/valve-n_h_caption.png"  transform="matrix(1 0 0 1 1334.5 92.5)">
		</image>
		
			<image style="overflow:visible;enable-background:new    ;" width="71" height="89" id="id33_00000070103916369064901160000016600372317136151998_" xlink:href="../../../../../Users/evgen/OneDrive/Рабочий стол/workspace/_work/arh/Elements/valve-n-elem/pub/valve-n_h_caption.png"  transform="matrix(1 0 0 1 1334.5 1000.5)">
		</image>
		
			<image style="overflow:visible;enable-background:new    ;" width="71" height="89" id="id34_00000147920223568108710890000004810477362920944271_" xlink:href="../../../../../Users/evgen/OneDrive/Рабочий стол/workspace/_work/arh/Elements/valve-n-elem/pub/valve-n_h_caption.png"  transform="matrix(1 0 0 1 1334.5 796.5)">
		</image>
		
			<image style="overflow:visible;enable-background:new    ;" width="71" height="89" id="id35_00000113334860626622141560000015495007241558808453_" xlink:href="../../../../../Users/evgen/OneDrive/Рабочий стол/workspace/_work/arh/Elements/valve-n-elem/pub/valve-n_h_caption.png"  transform="matrix(1 0 0 1 1334.5 589)">
		</image>
		
			<image style="overflow:visible;enable-background:new    ;" width="71" height="89" id="id36_00000160884638610052301060000003469449288853276592_" xlink:href="../../../../../Users/evgen/OneDrive/Рабочий стол/workspace/_work/arh/Elements/valve-n-elem/pub/valve-n_h_caption.png"  transform="matrix(1 0 0 1 1334.5 379.5)">
		</image>
		
			<image style="overflow:visible;enable-background:new    ;" width="71" height="89" id="id37_00000060744378852406775950000005051132550499966873_" xlink:href="../../../../../Users/evgen/OneDrive/Рабочий стол/workspace/_work/arh/Elements/valve-n-elem/pub/valve-n_h_caption.png"  transform="matrix(1 0 0 1 1507.5 796.5)">
		</image>
		
			<image style="overflow:visible;enable-background:new    ;" width="71" height="89" id="id38_00000111899392062456644100000006175304817696249737_" xlink:href="../../../../../Users/evgen/OneDrive/Рабочий стол/workspace/_work/arh/Elements/valve-n-elem/pub/valve-n_h_caption.png"  transform="matrix(1 0 0 1 1507.5 1000.5)">
		</image>
		
			<image style="overflow:visible;enable-background:new    ;" width="71" height="89" id="id39_00000173872291182297987500000010283691483203814564_" xlink:href="../../../../../Users/evgen/OneDrive/Рабочий стол/workspace/_work/arh/Elements/valve-n-elem/pub/valve-n_h_caption.png"  transform="matrix(1 0 0 1 1507.5 379.5)">
		</image>
		
			<image style="overflow:visible;enable-background:new    ;" width="71" height="89" id="id40_00000019647929923433077220000013988602096550525613_" xlink:href="../../../../../Users/evgen/OneDrive/Рабочий стол/workspace/_work/arh/Elements/valve-n-elem/pub/valve-n_h_caption.png"  transform="matrix(1 0 0 1 1672.5 1006.5)">
		</image>
		
			<image style="overflow:visible;enable-background:new    ;" width="71" height="89" id="id41_00000072261827856954867030000014144712932179513759_" xlink:href="../../../../../Users/evgen/OneDrive/Рабочий стол/workspace/_work/arh/Elements/valve-n-elem/pub/valve-n_h_caption.png"  transform="matrix(1 0 0 1 1672.5 706.5)">
		</image>
		
			<image style="overflow:visible;enable-background:new    ;" width="71" height="89" id="id42_00000070095010304787931140000010536876513415182497_" xlink:href="../../../../../Users/evgen/OneDrive/Рабочий стол/workspace/_work/arh/Elements/valve-n-elem/pub/valve-n_h_caption.png"  transform="matrix(1 0 0 1 1672.5 915.5)">
		</image>
		
			<image style="overflow:visible;enable-background:new    ;" width="71" height="89" id="id43_00000004537500492321011960000000143045974574081665_" xlink:href="../../../../../Users/evgen/OneDrive/Рабочий стол/workspace/_work/arh/Elements/valve-n-elem/pub/valve-n_h_caption.png"  transform="matrix(1 0 0 1 1672.5 798)">
		</image>
		
			<image style="overflow:visible;enable-background:new    ;" width="71" height="89" id="id44_00000160881917333759918410000018268163846368690330_" xlink:href="../../../../../Users/evgen/OneDrive/Рабочий стол/workspace/_work/arh/Elements/valve-n-elem/pub/valve-n_h_caption.png"  transform="matrix(1 0 0 1 1672.5 383.5)">
		</image>
		
			<image style="overflow:visible;enable-background:new    ;" width="71" height="89" id="id45_00000122002268098750896110000004551954724167493304_" xlink:href="../../../../../Users/evgen/OneDrive/Рабочий стол/workspace/_work/arh/Elements/valve-n-elem/pub/valve-n_h_caption.png"  transform="matrix(1 0 0 1 1672.5 499.5)">
		</image>
		
			<image style="overflow:visible;enable-background:new    ;" width="71" height="89" id="id46_00000029023481229825771440000016988380332454396849_" xlink:href="../../../../../Users/evgen/OneDrive/Рабочий стол/workspace/_work/arh/Elements/valve-n-elem/pub/valve-n_h_caption.png"  transform="matrix(1 0 0 1 1672.5 590)">
		</image>
		
			<image style="overflow:visible;enable-background:new    ;" width="71" height="89" id="id47_00000126317623066316581730000015194109912611288736_" xlink:href="../../../../../Users/evgen/OneDrive/Рабочий стол/workspace/_work/arh/Elements/valve-n-elem/pub/valve-n_h_caption.png"  transform="matrix(1 0 0 1 1672.5 92.5)">
		</image>
		
			<image style="overflow:visible;enable-background:new    ;" width="71" height="89" id="id48_00000163790317678602608360000012773753113019506057_" xlink:href="../../../../../Users/evgen/OneDrive/Рабочий стол/workspace/_work/arh/Elements/valve-n-elem/pub/valve-n_h_caption.png"  transform="matrix(1 0 0 1 1672.5 254)">
		</image>
		
			<image style="overflow:visible;enable-background:new    ;" width="71" height="89" id="id49_00000026850682068451233910000008027963928726057122_" xlink:href="../../../../../Users/evgen/OneDrive/Рабочий стол/workspace/_work/arh/Elements/valve-n-elem/pub/valve-n_h_caption.png"  transform="matrix(1 0 0 1 1672.5 1125)">
		</image>
		
			<image style="overflow:visible;enable-background:new    ;" width="71" height="89" id="id50_00000023975656103537746410000010696930989000047271_" xlink:href="../../../../../Users/evgen/OneDrive/Рабочий стол/workspace/_work/arh/Elements/valve-n-elem/pub/valve-n_h_caption.png"  transform="matrix(1 0 0 1 1769.5 855.5)">
		</image>
		
			<image style="overflow:visible;enable-background:new    ;" width="71" height="89" id="id51_00000135661508963560730760000008087416398612315786_" xlink:href="../../../../../Users/evgen/OneDrive/Рабочий стол/workspace/_work/arh/Elements/valve-n-elem/pub/valve-n_h_caption.png"  transform="matrix(1 0 0 1 1769.5 1067)">
		</image>
		
			<image style="overflow:visible;enable-background:new    ;" width="71" height="89" id="id52_00000066511612237972221030000006471729727183717052_" xlink:href="../../../../../Users/evgen/OneDrive/Рабочий стол/workspace/_work/arh/Elements/valve-n-elem/pub/valve-n_h_caption.png"  transform="matrix(1 0 0 1 1769.5 186)">
		</image>
		
			<image style="overflow:visible;enable-background:new    ;" width="71" height="89" id="id53_00000158707473535259321430000007260981517390062213_" xlink:href="../../../../../Users/evgen/OneDrive/Рабочий стол/workspace/_work/arh/Elements/valve-n-elem/pub/valve-n_h_caption.png"  transform="matrix(1 0 0 1 1769.5 442.5)">
		</image>
		
			<image style="overflow:visible;enable-background:new    ;" width="71" height="89" id="id54_00000086688452074823829500000007111628224817988534_" xlink:href="../../../../../Users/evgen/OneDrive/Рабочий стол/workspace/_work/arh/Elements/valve-n-elem/pub/valve-n_h_caption.png"  transform="matrix(1 0 0 1 1769.5 649)">
		</image>
	</g>
	<g id="pump-n-elem">
		
			<image style="overflow:visible;enable-background:new    ;" width="91" height="92" id="id55_00000025428881999282754340000005434160853926119614_" xlink:href="../../../../../Users/evgen/OneDrive/Рабочий стол/workspace/_work/arh/Elements/pump-n-elem/pub/pump-n_h_caption.png"  transform="matrix(1 0 0 1 703 33)">
		</image>
		
			<image style="overflow:visible;enable-background:new    ;" width="91" height="92" id="id56_00000142874803905084339470000016885327605641890703_" xlink:href="../../../../../Users/evgen/OneDrive/Рабочий стол/workspace/_work/arh/Elements/pump-n-elem/pub/pump-n_h_caption.png"  transform="matrix(1 0 0 1 1039 278)">
		</image>
		
			<image style="overflow:visible;enable-background:new    ;" width="91" height="92" id="id57_00000150788596862607305810000005794006233696899254_" xlink:href="../../../../../Users/evgen/OneDrive/Рабочий стол/workspace/_work/arh/Elements/pump-n-elem/pub/pump-n_h_caption.png"  transform="matrix(1 0 0 1 1039 529)">
		</image>
		
			<image style="overflow:visible;enable-background:new    ;" width="91" height="92" id="id58_00000011725893539513219260000018358958301362311597_" xlink:href="../../../../../Users/evgen/OneDrive/Рабочий стол/workspace/_work/arh/Elements/pump-n-elem/pub/pump-n_h_caption.png"  transform="matrix(1 0 0 1 1039 732)">
		</image>
		
			<image style="overflow:visible;enable-background:new    ;" width="91" height="92" id="id59_00000045599695797369052500000001981524729341501582_" xlink:href="../../../../../Users/evgen/OneDrive/Рабочий стол/workspace/_work/arh/Elements/pump-n-elem/pub/pump-n_h_caption.png"  transform="matrix(1 0 0 1 1039 1152)">
		</image>
		
			<image style="overflow:visible;enable-background:new    ;" width="91" height="92" id="id60_00000003798637676735444030000017084689211662089890_" xlink:href="../../../../../Users/evgen/OneDrive/Рабочий стол/workspace/_work/arh/Elements/pump-n-elem/pub/pump-n_h_caption.png"  transform="matrix(1 0 0 1 1039 938)">
		</image>
		
			<image style="overflow:visible;enable-background:new    ;" width="91" height="92" id="id61_00000099640682851867854600000015547788662321416066_" xlink:href="../../../../../Users/evgen/OneDrive/Рабочий стол/workspace/_work/arh/Elements/pump-n-elem/pub/pump-n_h_caption.png"  transform="matrix(1 0 0 1 703 145)">
		</image>
	</g>
</g>
<g id="lines">
	<g id="pipes">
		<g id="methanol_00000183958970222095880870000004144575721158443927_">
			<polyline class="st0" points="1304,136.5 1436,136.5 1436,298.5 			"/>
			<line class="st0" x1="1303" y1="426" x2="1303" y2="136"/>
			<line class="st0" x1="1303" y1="639" x2="1303" y2="423"/>
			<line class="st0" x1="1303" y1="843" x2="1303" y2="636"/>
			<line class="st0" x1="1303" y1="1050" x2="1303" y2="844"/>
			<line class="st0" x1="1303" y1="1172" x2="1303" y2="1044"/>
			<line class="st0" x1="430" y1="136.5" x2="542" y2="136.5"/>
			<line class="st0" x1="123" y1="136.5" x2="241" y2="136.5"/>
			<line class="st0" x1="1434" y1="424" x2="1434" y2="544"/>
			<line class="st0" x1="1434" y1="633" x2="1434" y2="747"/>
			<line class="st0" x1="1434" y1="841" x2="1434" y2="952"/>
			<line class="st0" x1="1305.5" y1="425" x2="1435.5" y2="425"/>
			<line class="st0" x1="1478" y1="425" x2="1605" y2="425"/>
			<line class="st0" x1="1302" y1="634.5" x2="1435" y2="634.5"/>
			<line class="st0" x1="1301.5" y1="842" x2="1435.5" y2="842"/>
			<line class="st0" x1="1477.5" y1="842" x2="1604" y2="842"/>
			<line class="st0" x1="1303" y1="1046" x2="1435" y2="1046"/>
			<line class="st0" x1="1434" y1="1173.5" x2="1434" y2="1044.5"/>
			<line class="st0" x1="1642" y1="299" x2="1874" y2="299"/>
			<line class="st0" x1="1477" y1="299" x2="1649" y2="299"/>
			<line class="st0" x1="1434" y1="299" x2="1477" y2="299"/>
			<line class="st0" x1="1872" y1="299" x2="1896" y2="299"/>
			<line class="st0" x1="1644" y1="544" x2="1872" y2="544"/>
			<line class="st0" x1="1475" y1="544" x2="1648" y2="544"/>
			<line class="st0" x1="1434" y1="544" x2="1478" y2="544"/>
			<line class="st0" x1="1645" y1="751" x2="1872" y2="751"/>
			<line class="st0" x1="1476" y1="751" x2="1648" y2="751"/>
			<line class="st0" x1="1365" y1="751" x2="1437" y2="751"/>
			<line class="st0" x1="1436" y1="751" x2="1480" y2="751"/>
			<line class="st0" x1="1652" y1="959" x2="1872" y2="959"/>
			<line class="st0" x1="1479" y1="959" x2="1649" y2="959"/>
			<line class="st0" x1="1440" y1="959" x2="1478" y2="959"/>
			<line class="st0" x1="1302.5" y1="1170" x2="1118.5" y2="1170"/>
			<line class="st0" x1="1435.5" y1="1170" x2="1307.5" y2="1170"/>
			<line class="st0" x1="1480.5" y1="1170" x2="1433.5" y2="1170"/>
			<line class="st0" x1="1649.5" y1="1170" x2="1479.5" y2="1170"/>
			<line class="st0" x1="1872.5" y1="1170" x2="1652.5" y2="1170"/>
			<line class="st0" x1="2160.5" y1="1170" x2="1870.5" y2="1170"/>
			<line class="st0" x1="1048" y1="330.5" x2="995" y2="330.5"/>
			<line class="st0" x1="997" y1="330.5" x2="890" y2="330.5"/>
			<line class="st0" x1="1308" y1="136.5" x2="847" y2="136.5"/>
			<line class="st0" x1="996" y1="584.5" x2="887" y2="584.5"/>
			<line class="st0" x1="1049" y1="584.5" x2="1000" y2="584.5"/>
			<line class="st0" x1="1047" y1="784" x2="994" y2="784"/>
			<line class="st0" x1="996" y1="784" x2="891" y2="784"/>
			<line class="st0" x1="1048" y1="989" x2="993" y2="989"/>
			<line class="st0" x1="995" y1="989" x2="890" y2="989"/>
			<line class="st0" x1="996.5" y1="1203" x2="706.5" y2="1203"/>
			<line class="st0" x1="1049.5" y1="1203" x2="996.5" y2="1203"/>
			<line class="st0" x1="994" y1="330" x2="994" y2="286"/>
			<line class="st0" x1="994" y1="583" x2="994" y2="537"/>
			<line class="st0" x1="994.5" y1="780" x2="994.5" y2="726"/>
			<line class="st0" x1="993.5" y1="989.5" x2="993.5" y2="934.5"/>
			<line class="st0" x1="994" y1="1201" x2="994" y2="1141"/>
			<line class="st0" x1="708" y1="588" x2="708" y2="328"/>
			<line class="st0" x1="875" y1="727" x2="875" y2="541"/>
			<line class="st0" x1="875" y1="934" x2="875" y2="733"/>
			<line class="st0" x1="875" y1="1144" x2="875" y2="934"/>
			<line class="st0" x1="708" y1="782" x2="708" y2="586"/>
			<line class="st0" x1="708" y1="985" x2="708" y2="779"/>
			<line class="st0" x1="708" y1="1204" x2="708" y2="986"/>
			<line class="st0" x1="996" y1="538" x2="874" y2="538"/>
			<line class="st0" x1="995.5" y1="731" x2="874.5" y2="731"/>
			<line class="st0" x1="995" y1="934.5" x2="872" y2="934.5"/>
			<line class="st0" x1="995" y1="1144" x2="873.5" y2="1144"/>
			<line class="st0" x1="1478.5" y1="303" x2="1478.5" y2="544"/>
			<line class="st0" x1="1477" y1="747" x2="1477" y2="954"/>
			<line class="st0" x1="1603.5" y1="424" x2="1603.5" y2="532"/>
			<line class="st0" x1="1603.5" y1="558" x2="1603.5" y2="734"/>
			<line class="st0" x1="1603.5" y1="840" x2="1603.5" y2="943"/>
			<line class="st0" x1="1603.5" y1="769" x2="1603.5" y2="845"/>
			<line class="st0" x1="1476.5" y1="1046.5" x2="1476.5" y2="1171.5"/>
			<line class="st0" x1="1475" y1="1046" x2="1605" y2="1046"/>
			<line class="st0" x1="1648" y1="544" x2="1648" y2="487"/>
			<line class="st0" x1="1648" y1="744" x2="1648" y2="694"/>
			<line class="st0" x1="1648" y1="955" x2="1648" y2="901"/>
			<line class="st0" x1="1648" y1="1172" x2="1648" y2="1110"/>
			<line class="st0" x1="1648" y1="300" x2="1648" y2="231"/>
			<line class="st0" x1="1648" y1="487" x2="1864" y2="487"/>
			<line class="st0" x1="1648" y1="694" x2="1866" y2="694"/>
			<line class="st0" x1="1648" y1="901" x2="1861" y2="901"/>
			<line class="st0" x1="1648" y1="1112" x2="1866" y2="1112"/>
			<line class="st0" x1="1872" y1="300" x2="1872" y2="544"/>
			<line class="st0" x1="1872" y1="544" x2="1872" y2="754"/>
			<line class="st0" x1="1872" y1="751" x2="1872" y2="961"/>
			<line class="st0" x1="1872" y1="960" x2="1872" y2="1170"/>
			<line class="st0" x1="430.5" y1="332" x2="430.5" y2="457"/>
			<line class="st0" x1="430.5" y1="599" x2="430.5" y2="728"/>
			<line class="st0" x1="242" y1="596.5" x2="242" y2="729.5"/>
			<line class="st0" x1="242" y1="332" x2="242" y2="455"/>
			<polyline class="st0" points="542,136 542,86 713,86 			"/>
			<polyline class="st0" points="242,131 242,81 351,81 			"/>
			<polyline class="st0" points="242,140 242,194 351,194 			"/>
			<polyline class="st0" points="429,140 429,194 348,194 			"/>
			<polyline class="st0" points="428,131 428,81 347,81 			"/>
			<polyline class="st0" points="542,136 542,198 714,198 			"/>
			<polyline class="st0" points="849,134 849,52 784,52 			"/>
			<polyline class="st0" points="849,135 849,164 783,164 			"/>
			<polyline class="st0" points="1648,232 1915,232 1915,489 			"/>
			<line class="st0" x1="691" y1="731" x2="106" y2="731"/>
			<line class="st0" x1="1884.5" y1="1112" x2="1916.5" y2="1112"/>
			<line class="st0" x1="834.5" y1="731" x2="723.5" y2="731"/>
			<line class="st0" x1="850" y1="731" x2="874" y2="731"/>
			<line class="st0" x1="1927" y1="299" x2="2151" y2="299"/>
			<line class="st0" x1="1883" y1="487" x2="1911" y2="487"/>
			<line class="st0" x1="1881" y1="694" x2="1911" y2="694"/>
			<line class="st0" x1="1957" y1="901" x2="2234" y2="901"/>
			<line class="st0" x1="1884" y1="901" x2="1912" y2="901"/>
			<line class="st0" x1="1603.5" y1="1047" x2="1603.5" y2="978"/>
			<line class="st0" x1="827" y1="330.5" x2="709" y2="330.5"/>
			<line class="st0" x1="706" y1="330.5" x2="100" y2="330.5"/>
			<line class="st0" x1="827" y1="584.5" x2="708" y2="584.5"/>
			<line class="st0" x1="829" y1="784" x2="708" y2="784"/>
			<line class="st0" x1="831" y1="989" x2="708" y2="989"/>
			<path class="st0" d="M1119,959h177c0-3.3,3.5-8,7-8s6,4.7,6,8h122"/>
			<polyline class="st0" points="994,285 875,285 875,542 			"/>
			<line class="st0" x1="1914.5" y1="485.5" x2="1914.5" y2="688.5"/>
			<line class="st0" x1="1914.5" y1="693.5" x2="1914.5" y2="906.5"/>
			<line class="st0" x1="1914.5" y1="901.5" x2="1914.5" y2="1112.5"/>
		</g>
		<g id="gas_00000031924488639206961890000001812676549730142649_">
			<line class="st1" x1="1648" y1="842" x2="1857" y2="842"/>
			<line class="st1" x1="1646.5" y1="634" x2="1855.5" y2="634"/>
			<line class="st1" x1="1646.5" y1="428" x2="1854.5" y2="428"/>
			<line class="st1" x1="1646.5" y1="1052" x2="1857.5" y2="1052"/>
			<line class="st1" x1="1949.5" y1="428" x2="1949.5" y2="638"/>
			<line class="st1" x1="1949.5" y1="637" x2="1949.5" y2="845"/>
			<line class="st1" x1="1949.5" y1="840" x2="1949.5" y2="1053"/>
			<line class="st1" x1="1949.5" y1="325" x2="1949.5" y2="429"/>
			<line class="st1" x1="1949.5" y1="135" x2="1949.5" y2="265"/>
			<line class="st1" x1="430.5" y1="595" x2="430.5" y2="455"/>
			<line class="st1" x1="242" y1="596" x2="242" y2="454"/>
			<line class="st1" x1="431.5" y1="595" x2="240.5" y2="595"/>
			<line class="st1" x1="1648" y1="487" x2="1648" y2="428"/>
			<line class="st1" x1="1648" y1="694" x2="1648" y2="632.5"/>
			<line class="st1" x1="1648" y1="902.5" x2="1648" y2="840.5"/>
			<line class="st1" x1="1648" y1="1110" x2="1648" y2="1051"/>
			<polyline class="st1" points="994,286 994,196 843,196 843,460 			"/>
			<line class="st1" x1="994" y1="1144.5" x2="994" y2="1055.5"/>
			<line class="st1" x1="993.5" y1="935" x2="993.5" y2="847"/>
			<line class="st1" x1="683" y1="451" x2="111" y2="451"/>
			<line class="st1" x1="994" y1="535.5" x2="994" y2="449.5"/>
			<line class="st1" x1="994.5" y1="727.5" x2="994.5" y2="645.5"/>
			<polyline class="st1" points="1949,138 1648,138 1648,233 			"/>
			<line class="st1" x1="843" y1="845" x2="843" y2="1058"/>
			<line class="st1" x1="843" y1="645" x2="843" y2="848"/>
			<line class="st1" x1="843" y1="450" x2="843" y2="647"/>
			<line class="st1" x1="1951" y1="138" x2="2160" y2="138"/>
		</g>
	</g>
	<g id="arrows">
		<g id="methanol">
			<polyline class="st0" points="1879,583 1872,591 1865,583 			"/>
			<polyline class="st0" points="1018,130 1026,137 1018,144 			"/>
			<polyline class="st0" points="485,130 493,137 485,144 			"/>
			<polyline class="st0" points="487,323 495,330 487,337 			"/>
			<polyline class="st0" points="1187,292 1195,299 1187,306 			"/>
			<polyline class="st0" points="1443,245 1436,253 1429,245 			"/>
			<polyline class="st0" points="1441,474 1434,482 1427,474 			"/>
			<polyline class="st0" points="868,482 875,474 882,482 			"/>
			<polyline class="st0" points="1441,681 1434,689 1427,681 			"/>
			<polyline class="st0" points="868,689 875,681 882,689 			"/>
			<polyline class="st0" points="1441,886 1434,894 1427,886 			"/>
			<polyline class="st0" points="869,891.5 875,882.5 881,891.5 			"/>
			<polyline class="st0" points="1441,1108 1434,1116 1427,1108 			"/>
			<polyline class="st0" points="868,1116 875,1108 882,1116 			"/>
			<polyline class="st0" points="701,482 708,474 715,482 			"/>
			<polyline class="st0" points="701,689 708,681 715,689 			"/>
			<polyline class="st0" points="701,891.5 708,882.5 714,891.5 			"/>
			<polyline class="st0" points="701,1116 708,1108 715,1116 			"/>
			<polyline class="st0" points="1187,537 1195,544 1187,551 			"/>
			<polyline class="st0" points="1187,744 1195,751 1187,758 			"/>
			<polyline class="st0" points="1187,952 1195,959 1187,966 			"/>
			<polyline class="st0" points="1187,1163 1195,1170 1187,1177 			"/>
			<polyline class="st0" points="1016,323 1024,330 1016,337 			"/>
			<polyline class="st0" points="1016,577 1024,584 1016,591 			"/>
			<polyline class="st0" points="1016,777 1024,784 1016,791 			"/>
			<polyline class="st0" points="1016,982 1024,989 1016,996 			"/>
			<polyline class="st0" points="1016,1196 1024,1203 1016,1210 			"/>
			<polyline class="st0" points="853,1196 861,1203 853,1210 			"/>
			<polyline class="st0" points="1799,292 1807,299 1799,306 			"/>
			<polyline class="st0" points="1799,537 1807,544 1799,551 			"/>
			<polyline class="st0" points="1799,744 1807,751 1799,758 			"/>
			<polyline class="st0" points="1799,952 1807,959 1799,966 			"/>
			<polyline class="st0" points="1799,1163 1807,1170 1799,1177 			"/>
			<polyline class="st0" points="487,724 495,731 487,738 			"/>
			<polyline class="st0" points="180,130 188,137 180,144 			"/>
			<polyline class="st0" points="1879,785 1872,793 1865,785 			"/>
			<polyline class="st0" points="1879,983 1872,991 1865,983 			"/>
		</g>
		<g id="gas">
			<polyline class="st1" points="1799,131 1807,138 1799,145 			"/>
			<polyline class="st1" points="836,482 843,474 850,482 			"/>
			<polyline class="st1" points="836,253 843,245 850,253 			"/>
			<polyline class="st1" points="1799,421 1807,428 1799,435 			"/>
			<polyline class="st1" points="836,689 843,681 850,689 			"/>
			<polyline class="st1" points="1799,627 1807,634 1799,641 			"/>
			<polyline class="st1" points="837,891.5 843,882.5 849,891.5 			"/>
			<polyline class="st1" points="1799,835 1807,842 1799,849 			"/>
			<polyline class="st1" points="1799,1045 1807,1052 1799,1059 			"/>
			<polyline class="st1" points="487,444 495,451 487,458 			"/>
		</g>
	</g>
	<g id="arc">
		<g id="methanol_00000132055186564325018340000004141650823159408530_">
			<path class="st0" d="M823.4,989H837c0-3.3,2.5-7,6-7s7,2.7,7,7h10.5"/>
			<path class="st0" d="M822,784h14c0-3.3,3-7,6.5-7s6.5,2.7,6.5,7h10"/>
			<path class="st0" d="M854,584.5h15c0-3.3,2.5-7,6-7s6,2.7,6,7h11"/>
			<path class="st0" d="M823,584.5h14c0-3.3,2.5-7,6-7s6.5,2.7,6.5,7H860"/>
			<path class="st0" d="M1852,1112h14c0-3.3,3-7,6.5-7s6.5,2.7,6.5,7h6"/>
			<path class="st0" d="M1895,299h14c0-3.3,2.5-6.5,6-6.5s6,2.2,6,6.5h24"/>
			<path class="st0" d="M1851.5,487h14c0-3.3,2.5-7,6-7s7,2.7,7,7h6"/>
			<path class="st0" d="M1852,694h14c0-3.3,2.5-7,6-7s6,2.7,6,7h7"/>
			<path class="st0" d="M1918,901h25c0-3.3,2.5-7,6-7s6,2.7,6,7h7"/>
			<path class="st0" d="M1852,901h14c0-3.3,3-7,6.5-7s6.5,2.7,6.5,7h6"/>
			<path class="st0" d="M854,989h15c0-3.3,2.5-7,6-7s6,2.7,6,7h11"/>
			<path class="st0" d="M1603.5,979v-14c-3.3,0-7-2.5-7-6s2.7-7,7-7v-10"/>
			<path class="st0" d="M1603.5,772v-15c-3.3,0-6-2.5-6-6s1.7-6,6-6v-22"/>
			<path class="st0" d="M1603.5,564v-14c-3.3,0-7-2.5-7-6s2.7-6,7-6v-22"/>
			<path class="st0" d="M687.5,731h14c0-3.3,2.5-7,6-7s7,2.7,7,7h10"/>
			<path class="st0" d="M823,731h14c0-3.3,2.5-7,6-7s7,2.7,7,7h10"/>
			<path class="st0" d="M854,784h14c0-3.3,3-7,6.5-7s6.5,2.7,6.5,7h11"/>
			<path class="st0" d="M855,330.5h14c0-3.3,2.5-7,6-7s6.5,2.7,6.5,7H892"/>
			<path class="st0" d="M823,330.5h14c0-3.3,2.5-7,6-7s6.5,2.7,6.5,7H860"/>
			<path class="st0" d="M1120,751h176c0-3.3,3-7,6.5-7s6.5,3.7,6.5,7h70"/>
			<path class="st0" d="M1120,544h176.5c0-3.3,3-7,6.5-7s6,3.7,6,7h124"/>
			<path class="st0" d="M1120,299h176c0-3.3,3.5-7,7-7s7.5,3.7,7.5,7H1433"/>
		</g>
		<g id="gas_00000083790294637821039040000002779561195105398660_">
			<path class="st1" d="M1841,842h25c0-3.3,2.5-7,6-7s6,3.7,6,7h14"/>
			<path class="st1" d="M1842,1052h23c0-3.3,2.5-7,6-7s7,3.7,7,7h14"/>
			<path class="st1" d="M1885,1052h24c0-3.3,2.5-7,6-7s6,3.7,6,7h29"/>
			<path class="st1" d="M1884,842h25c0-3.3,2.5-7,6-7s6,3.7,6,7h29"/>
			<path class="st1" d="M1842,634h24c0-3.3,3-7,6.5-7s6.5,3.7,6.5,7h10"/>
			<path class="st1" d="M1843,428h23c0-6.3,4-7,7.5-7s5.5,3.7,5.5,7h10"/>
			<path class="st1" d="M1884,634h25c0-3.3,2.5-7,6-7s6,3.7,6,7h30"/>
			<path class="st1" d="M1884,428h25c0-3.3,2.5-7,6.1-7s5.9,3.7,5.9,7h28"/>
			<path class="st1" d="M678,451h23.5c0-3.3,3-7,6.5-7s6,3.7,6,7h130"/>
			<path class="st1" d="M845,645.5h24c0-3.3,2.5-6,6-6s6,2.7,6,6h115"/>
			<path class="st1" d="M842,1057h26.8c0-3.3,2.6-7,6.2-7s6.8,3.7,6.8,7H995"/>
			<path class="st1" d="M845,847h23c0-3.3,3.5-7,7-7s6.6,3.7,6.6,7H995"/>
			<path class="st1" d="M845,451h24c0-3.3,3-7,6.5-7s6.5,3.7,6.5,7h111"/>
			<path class="st1" d="M1949.5,329v-23.8c-3.3,0-7-2.6-7-6.2s3.7-7,7-7v-28"/>
		</g>
	</g>
	<g id="points">
		<g id="methanol_00000086691137890689149950000017999597561373465236_">
			<circle class="st2" cx="242.5" cy="136" r="4.5"/>
			<circle class="st2" cx="242" cy="330.5" r="4.5"/>
			<circle class="st2" cx="242" cy="731" r="4.5"/>
			<circle class="st2" cx="430.5" cy="731" r="4.5"/>
			<circle class="st2" cx="430.5" cy="331" r="4.5"/>
			<circle class="st2" cx="708" cy="330.5" r="4.5"/>
			<circle class="st2" cx="994" cy="286" r="4.5"/>
			<circle class="st2" cx="1303" cy="136.5" r="4.5"/>
			<circle class="st2" cx="1303" cy="425" r="4.5"/>
			<circle class="st2" cx="1436" cy="299" r="4.5"/>
			<circle class="st2" cx="1478.5" cy="299" r="4.5"/>
			<circle class="st2" cx="1478.5" cy="425" r="4.5"/>
			<circle class="st2" cx="1478.5" cy="544" r="4.5"/>
			<circle class="st2" cx="1648" cy="487" r="4.5"/>
			<circle class="st2" cx="1648" cy="299" r="4.5"/>
			<circle class="st2" cx="1648" cy="232" r="4.5"/>
			<circle class="st2" cx="1872" cy="299" r="4.5"/>
			<circle class="st2" cx="1914.5" cy="487" r="4.5"/>
			<circle class="st2" cx="1872" cy="544" r="4.5"/>
			<circle class="st2" cx="1648" cy="694" r="4.5"/>
			<circle class="st2" cx="1648" cy="750" r="4.5"/>
			<circle class="st2" cx="1872.4" cy="751.3" r="4.5"/>
			<circle class="st2" cx="1915" cy="901" r="4.5"/>
			<circle class="st2" cx="1872" cy="959" r="4.5"/>
			<circle class="st2" cx="1872" cy="1170" r="4.5"/>
			<circle class="st2" cx="1648" cy="1170" r="4.5"/>
			<circle class="st2" cx="1648" cy="1112" r="4.5"/>
			<circle class="st2" cx="1648" cy="959" r="4.5"/>
			<circle class="st2" cx="1648" cy="901" r="4.5"/>
			<circle class="st2" cx="1914" cy="694" r="4.5"/>
			<circle class="st2" cx="1648" cy="544" r="4.5"/>
			<circle class="st2" cx="1434" cy="751" r="4.5"/>
			<circle class="st2" cx="1303" cy="634.5" r="4.5"/>
			<circle class="st2" cx="1477" cy="751" r="4.5"/>
			<circle class="st2" cx="1477.5" cy="842" r="4.5"/>
			<circle class="st2" cx="1603.5" cy="842" r="4.5"/>
			<circle class="st2" cx="1477" cy="958" r="4.5"/>
			<circle class="st2" cx="1476.5" cy="1170" r="4.5"/>
			<circle class="st2" cx="1434.5" cy="958" r="4.5"/>
			<circle class="st2" cx="1434" cy="1170" r="4.5"/>
			<circle class="st2" cx="1303" cy="1046" r="4.5"/>
			<circle class="st2" cx="1303" cy="1170" r="4.5"/>
			<circle class="st2" cx="1303" cy="842" r="4.5"/>
			<circle class="st2" cx="1434.5" cy="544" r="4.5"/>
			<circle class="st2" cx="994.3" cy="331.2" r="4.5"/>
			<circle class="st2" cx="994" cy="538" r="4.5"/>
			<circle class="st2" cx="875.5" cy="538" r="4.5"/>
			<circle class="st2" cx="708" cy="583.5" r="4.5"/>
			<circle class="st2" cx="994" cy="584.5" r="4.5"/>
			<circle class="st2" cx="994.5" cy="731" r="4.5"/>
			<circle class="st2" cx="994.5" cy="784" r="4.5"/>
			<circle class="st2" cx="993.5" cy="934.5" r="4.5"/>
			<circle class="st2" cx="875.5" cy="934.5" r="4.5"/>
			<circle class="st2" cx="993.5" cy="989" r="4.5"/>
			<circle class="st2" cx="994" cy="1145" r="4.5"/>
			<circle class="st2" cx="708" cy="989" r="4.5"/>
			<circle class="st2" cx="994" cy="1203" r="4.5"/>
			<circle class="st2" cx="875" cy="731" r="4.5"/>
			<circle class="st2" cx="708" cy="783" r="4.5"/>
			<circle class="st2" cx="429" cy="136.5" r="4.5"/>
			<circle class="st2" cx="541.8" cy="136.4" r="4.5"/>
			<circle class="st2" cx="849" cy="136.5" r="4.5"/>
			<circle class="st2" cx="430.5" cy="595" r="4.5"/>
			<circle class="st2" cx="430.5" cy="451" r="4.5"/>
			<circle class="st2" cx="242" cy="451" r="4.5"/>
			<circle class="st2" cx="242" cy="595" r="4.5"/>
		</g>
		<g id="gas_00000003088550392783534540000010869347698272591286_">
			<circle class="st3" cx="843" cy="847" r="4.5"/>
			<circle class="st3" cx="843" cy="645.5" r="4.5"/>
			<circle class="st3" cx="1949.5" cy="138" r="4.5"/>
			<circle class="st3" cx="1949.5" cy="427" r="4.5"/>
			<circle class="st3" cx="1948.5" cy="634" r="4.5"/>
			<circle class="st3" cx="1949.5" cy="842" r="4.5"/>
			<circle class="st3" cx="843" cy="451" r="4.5"/>
		</g>
	</g>
</g>
<g id="tables">
</g>
<g id="helpers">
</g>
</svg>
