<?xml version="1.0" encoding="utf-8"?>
<!-- Generator: Adobe Illustrator 25.4.1, SVG Export Plug-In . SVG Version: 6.00 Build 0)  -->
<svg version="1.1" xmlns="http://www.w3.org/2000/svg" xmlns:xlink="http://www.w3.org/1999/xlink" x="0px" y="0px" width="2509px"
	 height="1024px" viewBox="0 0 2509 1024" style="enable-background:new 0 0 2509 1024;" xml:space="preserve">
<style type="text/css">
	.st0{opacity:0.3;fill:#FFFFFF;stroke:#6C6F7A;stroke-miterlimit:10;}
	.st1{fill:#FFFFFF;stroke:#6C6F7A;stroke-miterlimit:10;}
	.st2{fill:none;stroke:#6D6F7A;stroke-width:3;stroke-miterlimit:10;}
	.st3{fill:#FFFFFF;stroke:#6D6F7A;stroke-width:3;stroke-miterlimit:10;}
	.st4{fill:#575A63;}
	.st5{font-family:'UbuntuCondensed-Regular';}
	.st6{font-size:17px;}
	.st7{font-size:15px;}
	.st8{font-size:20px;}
	.st9{font-size:28px;}
</style>
<g id="tables-dashed">
	<g id="t2">
		<path class="st0" d="M175,470h880c6.5,0,12,5.5,12,12v380c0,6.5-5.5,12-12,12H175c-6.5,0-12-5.5-12-12V482
			C163,475.5,168.5,470,175,470z"/>
	</g>
</g>
<g id="tables-solid">
	<g id="t4">
		<rect x="2048.5" y="366.5" class="st0" width="268" height="216.8"/>
	</g>
	<g id="t3">
	</g>
	<g id="t7">
	</g>
	<g id="t8">
	</g>
	<g id="t10">
	</g>
	<g id="t9">
	</g>
	<g id="t1">
		<path class="st1" d="M2044,959h-269c-8.6,0-16-7.4-16-16v-23c0-8.6,7.4-16,16-16h269c8.6,0,16,7.4,16,16v23
			C2060,951.6,2052.6,959,2044,959z"/>
	</g>
</g>
<g id="SimpleElements">
	<g id="transition-button-elem">
		
			<image style="overflow:visible;" width="119" height="34" id="id1_00000034063108607229529270000016957423079226091197_" xlink:href="../../../../../Users/evgen/OneDrive/Рабочий стол/workspace/_work/arh/Elements/transition-button-elem/pub/transition-button_arrowdirection-0.png"  transform="matrix(1 0 0 1 11.5 117)">
		</image>
		
			<image style="overflow:visible;" width="119" height="34" id="id2_00000119834146727516499110000010677114417813037479_" xlink:href="../../../../../Users/evgen/OneDrive/Рабочий стол/workspace/_work/arh/Elements/transition-button-elem/pub/transition-button_arrowdirection-0.png"  transform="matrix(1 0 0 1 2382 117)">
		</image>
	</g>
	<g id="valve-n-elem">
		
			<image style="overflow:visible;" width="71" height="89" id="id3_00000144323225789312366570000009215868815464680082_" xlink:href="../../../../../Users/evgen/OneDrive/Рабочий стол/workspace/_work/arh/Elements/valve-n-elem/pub/valve-n_h_caption.png"  transform="matrix(1 0 0 1 363 89.5)">
		</image>
		
			<image style="overflow:visible;" width="71" height="89" id="id4_00000016046792652250792710000009471126347847566762_" xlink:href="../../../../../Users/evgen/OneDrive/Рабочий стол/workspace/_work/arh/Elements/valve-n-elem/pub/valve-n_h_caption.png"  transform="matrix(1 0 0 1 1156.5 924.5)">
		</image>
		
			<image style="overflow:visible;" width="71" height="89" id="id5_00000116197128956572884600000011171723171365439639_" xlink:href="../../../../../Users/evgen/OneDrive/Рабочий стол/workspace/_work/arh/Elements/valve-n-elem/pub/valve-n_h_caption.png"  transform="matrix(1 0 0 1 1824 316.5)">
		</image>
		
			<image style="overflow:visible;" width="71" height="89" id="id6_00000029749623565899263410000016867155696236158884_" xlink:href="../../../../../Users/evgen/OneDrive/Рабочий стол/workspace/_work/arh/Elements/valve-n-elem/pub/valve-n_h_caption.png"  transform="matrix(1 0 0 1 1824 545.5)">
		</image>
		
			<image style="overflow:visible;" width="71" height="89" id="id7_00000158739767577002291520000004798830332605785984_" xlink:href="../../../../../Users/evgen/OneDrive/Рабочий стол/workspace/_work/arh/Elements/valve-n-elem/pub/valve-n_h_caption.png"  transform="matrix(1 0 0 1 1824 801.5)">
		</image>
		
			<image style="overflow:visible;" width="71" height="89" id="id8_00000109014965852034698040000002442488800438514819_" xlink:href="../../../../../Users/evgen/OneDrive/Рабочий стол/workspace/_work/arh/Elements/valve-n-elem/pub/valve-n_h_caption.png"  transform="matrix(1 0 0 1 1824 89.5)">
		</image>
		
			<image style="overflow:visible;" width="71" height="89" id="id9_00000034057876219243015240000000784654026219913120_" xlink:href="../../../../../Users/evgen/OneDrive/Рабочий стол/workspace/_work/arh/Elements/valve-n-elem/pub/valve-n_h_caption.png"  transform="matrix(1 0 0 1 2243 89.5)">
		</image>
	</g>
	<g id="valve-mini-unactive-elem">
		
			<image style="overflow:visible;" width="38" height="57" id="id10_00000123405486352236415420000003413997887045605800_" xlink:href="../../../../../Users/evgen/OneDrive/Рабочий стол/workspace/_work/arh/Elements/valve-mini-unactive-elem/pub/valve-mini-unactive_h_caption.png"  transform="matrix(1 0 0 1 570 292)">
		</image>
		
			<image style="overflow:visible;" width="38" height="57" id="id11_00000101804786061038564150000012708339833730588859_" xlink:href="../../../../../Users/evgen/OneDrive/Рабочий стол/workspace/_work/arh/Elements/valve-mini-unactive-elem/pub/valve-mini-unactive_h_caption.png"  transform="matrix(1 0 0 1 861 106.5)">
		</image>
		
			<image style="overflow:visible;" width="38" height="57" id="id12_00000044180048244621025700000005158140272365524363_" xlink:href="../../../../../Users/evgen/OneDrive/Рабочий стол/workspace/_work/arh/Elements/valve-mini-unactive-elem/pub/valve-mini-unactive_h_caption.png"  transform="matrix(1 0 0 1 570 106.5)">
		</image>
		
			<image style="overflow:visible;" width="38" height="57" id="id13_00000154402810866396879190000013003821253308859539_" xlink:href="../../../../../Users/evgen/OneDrive/Рабочий стол/workspace/_work/arh/Elements/valve-mini-unactive-elem/pub/valve-mini-unactive_h_caption.png"  transform="matrix(1 0 0 1 864 292)">
		</image>
		
			<image style="overflow:visible;" width="38" height="57" id="id14_00000018226574646778338520000015077364932394410399_" xlink:href="../../../../../Users/evgen/OneDrive/Рабочий стол/workspace/_work/arh/Elements/valve-mini-unactive-elem/pub/valve-mini-unactive_h_caption.png"  transform="matrix(1 0 0 1 1173 106.5)">
		</image>
		
			<image style="overflow:visible;" width="38" height="57" id="id15_00000006665548042594278960000010604906163593745316_" xlink:href="../../../../../Users/evgen/OneDrive/Рабочий стол/workspace/_work/arh/Elements/valve-mini-unactive-elem/pub/valve-mini-unactive_h_caption.png"  transform="matrix(1 0 0 1 1173 333.5)">
		</image>
		
			<image style="overflow:visible;" width="38" height="57" id="id16_00000100354668849725632320000007367267257606650752_" xlink:href="../../../../../Users/evgen/OneDrive/Рабочий стол/workspace/_work/arh/Elements/valve-mini-unactive-elem/pub/valve-mini-unactive_h_caption.png"  transform="matrix(1 0 0 1 1691.5 60.5)">
		</image>
		
			<image style="overflow:visible;" width="38" height="57" id="id17_00000088821874051016718760000005316785654773693071_" xlink:href="../../../../../Users/evgen/OneDrive/Рабочий стол/workspace/_work/arh/Elements/valve-mini-unactive-elem/pub/valve-mini-unactive_h_caption.png"  transform="matrix(1 0 0 1 1173 819.5)">
		</image>
		
			<image style="overflow:visible;" width="38" height="57" id="id18_00000135649581364930938930000007182762169353437330_" xlink:href="../../../../../Users/evgen/OneDrive/Рабочий стол/workspace/_work/arh/Elements/valve-mini-unactive-elem/pub/valve-mini-unactive_h_caption.png"  transform="matrix(1 0 0 1 1173 562.5)">
		</image>
		
			<image style="overflow:visible;" width="38" height="57" id="id19_00000124865125649403942700000011993046768775713205_" xlink:href="../../../../../Users/evgen/OneDrive/Рабочий стол/workspace/_work/arh/Elements/valve-mini-unactive-elem/pub/valve-mini-unactive_h_caption.png"  transform="matrix(1 0 0 1 1691.5 772.5)">
		</image>
		
			<image style="overflow:visible;" width="38" height="57" id="id20_00000144311539881209707570000009702726873434634937_" xlink:href="../../../../../Users/evgen/OneDrive/Рабочий стол/workspace/_work/arh/Elements/valve-mini-unactive-elem/pub/valve-mini-unactive_h_caption.png"  transform="matrix(1 0 0 1 1691.5 642.5)">
		</image>
		
			<image style="overflow:visible;" width="38" height="57" id="id21_00000065061075904152576380000010876052956382579101_" xlink:href="../../../../../Users/evgen/OneDrive/Рабочий стол/workspace/_work/arh/Elements/valve-mini-unactive-elem/pub/valve-mini-unactive_h_caption.png"  transform="matrix(1 0 0 1 1691.5 287.5)">
		</image>
		
			<image style="overflow:visible;" width="38" height="57" id="id22_00000024687087074040727770000002779199930205953723_" xlink:href="../../../../../Users/evgen/OneDrive/Рабочий стол/workspace/_work/arh/Elements/valve-mini-unactive-elem/pub/valve-mini-unactive_h_caption.png"  transform="matrix(1 0 0 1 1939.5 106.5)">
		</image>
		
			<image style="overflow:visible;" width="38" height="57" id="id23_00000159462357448612358110000005096564918594802353_" xlink:href="../../../../../Users/evgen/OneDrive/Рабочий стол/workspace/_work/arh/Elements/valve-mini-unactive-elem/pub/valve-mini-unactive_h_caption.png"  transform="matrix(1 0 0 1 1691.5 515.5)">
		</image>
		
			<image style="overflow:visible;" width="69" height="38" id="id24_00000016070614672540426690000002126314413865034907_" xlink:href="../../../../../Users/evgen/OneDrive/Рабочий стол/workspace/_work/arh/Elements/valve-mini-unactive-elem/pub/valve-mini-unactive_v_caption.png"  transform="matrix(1 0 0 1 1770.5 692)">
		</image>
		
			<image style="overflow:visible;" width="38" height="57" id="id25_00000002351684418900972770000005969605317180928676_" xlink:href="../../../../../Users/evgen/OneDrive/Рабочий стол/workspace/_work/arh/Elements/valve-mini-unactive-elem/pub/valve-mini-unactive_h_caption.png"  transform="matrix(1 0 0 1 1939.5 562.5)">
		</image>
		
			<image style="overflow:visible;" width="38" height="57" id="id26_00000018200714663756771070000010862844564869758654_" xlink:href="../../../../../Users/evgen/OneDrive/Рабочий стол/workspace/_work/arh/Elements/valve-mini-unactive-elem/pub/valve-mini-unactive_h_caption.png"  transform="matrix(1 0 0 1 1939.5 333.5)">
		</image>
		
			<image style="overflow:visible;" width="38" height="57" id="id27_00000167395212509522259890000009023243157492414852_" xlink:href="../../../../../Users/evgen/OneDrive/Рабочий стол/workspace/_work/arh/Elements/valve-mini-unactive-elem/pub/valve-mini-unactive_h_caption.png"  transform="matrix(1 0 0 1 1939.5 819.5)">
		</image>
	</g>
	<g id="arrow-pic">
		
			<image style="overflow:visible;" width="28" height="53" id="id28" xlink:href="../../../elements/arrow-pic/pub/arrow-pic_caption.png"  transform="matrix(1 0 0 1 718 115.5)">
		</image>
		
			<image style="overflow:visible;" width="28" height="53" id="id29" xlink:href="../../../elements/arrow-pic/pub/arrow-pic_caption.png"  transform="matrix(1 0 0 1 718 301.5)">
		</image>
		
			<image style="overflow:visible;" width="28" height="53" id="id30" xlink:href="../../../elements/arrow-pic/pub/arrow-pic_caption.png"  transform="matrix(1 0 0 1 901 752.5)">
		</image>
		
			<image style="overflow:visible;" width="28" height="53" id="id31" xlink:href="../../../elements/arrow-pic/pub/arrow-pic_caption.png"  transform="matrix(1 0 0 1 901 580.5)">
		</image>
	</g>
	<g id="pump-n-elem">
		
			<image style="overflow:visible;" width="91" height="92" id="id32_00000124867224365046059380000015289172285404288957_" xlink:href="../../../../../Users/evgen/OneDrive/Рабочий стол/workspace/_work/arh/Elements/pump-n-elem/pub/pump-n_h_caption.png"  transform="matrix(1 0 0 1 673 752)">
		</image>
		
			<image style="overflow:visible;" width="91" height="92" id="id33_00000156560471819720254550000000078807030575019398_" xlink:href="../../../../../Users/evgen/OneDrive/Рабочий стол/workspace/_work/arh/Elements/pump-n-elem/pub/pump-n_h_caption.png"  transform="matrix(1 0 0 1 673 573.5)">
		</image>
	</g>
	<g id="multi-tit-elem">
		
			<image style="overflow:visible;" width="152" height="32" id="id34" xlink:href="../../../elements/multi-tit-elem/pub/multi-tit_arroworient-bot.png"  transform="matrix(1 0 0 1 656 261)">
		</image>
		
			<image style="overflow:visible;" width="152" height="32" id="id35" xlink:href="../../../elements/multi-tit-elem/pub/multi-tit_arroworient-bot.png"  transform="matrix(1 0 0 1 656 71)">
		</image>
		
			<image style="overflow:visible;" width="152" height="32" id="id36" xlink:href="../../../elements/multi-tit-elem/pub/multi-tit_arroworient-bot.png"  transform="matrix(1 0 0 1 838 706)">
		</image>
		
			<image style="overflow:visible;" width="152" height="32" id="id37" xlink:href="../../../elements/multi-tit-elem/pub/multi-tit_arroworient-bot.png"  transform="matrix(1 0 0 1 838 526)">
		</image>
		
			<image style="overflow:visible;" width="152" height="32" id="id40" xlink:href="../../../elements/multi-tit-elem/pub/multi-tit_arroworient-bot.png"  transform="matrix(1 0 0 1 642 706)">
		</image>
		
			<image style="overflow:visible;" width="152" height="32" id="id39" xlink:href="../../../elements/multi-tit-elem/pub/multi-tit_arroworient-bot.png"  transform="matrix(1 0 0 1 642 526)">
		</image>
		
			<image style="overflow:visible;" width="134" height="32" id="id38" xlink:href="../../../elements/multi-tit-elem/pub/multi-tit_no-arroworient.png"  transform="matrix(1 0 0 1 298 639)">
		</image>
		
			<image style="overflow:visible;" width="134" height="96" id="id43" xlink:href="../../../elements/multi-tit-elem/pub/multi-tit_titcount-3_no-arroworient.png"  transform="matrix(1 0 0 1 298 735)">
		</image>
		
			<image style="overflow:visible;" width="134" height="32" id="id48" xlink:href="../../../elements/multi-tit-elem/pub/multi-tit_no-arroworient.png"  transform="matrix(1 0 0 1 2066 89)">
		</image>
		
			<image style="overflow:visible;" width="154" height="64" id="id44" xlink:href="../../../elements/multi-tit-elem/pub/multi-tit_mid_titcount-2_no-arroworient.png"  transform="matrix(1 0 0 1 1478 514)">
		</image>
		
			<image style="overflow:visible;" width="154" height="64" id="id47" xlink:href="../../../elements/multi-tit-elem/pub/multi-tit_mid_titcount-2_no-arroworient.png"  transform="matrix(1 0 0 1 1478 282)">
		</image>
		
			<image style="overflow:visible;" width="154" height="64" id="id45" xlink:href="../../../elements/multi-tit-elem/pub/multi-tit_mid_titcount-2_no-arroworient.png"  transform="matrix(1 0 0 1 1478 769)">
		</image>
		
			<image style="overflow:visible;" width="154" height="64" id="id46" xlink:href="../../../elements/multi-tit-elem/pub/multi-tit_mid_titcount-2_no-arroworient.png"  transform="matrix(1 0 0 1 1478 55)">
		</image>
		
			<image style="overflow:visible;" width="164" height="64" id="id42" xlink:href="../../../elements/multi-tit-elem/pub/multi-tit_w164_titcount-2_no-arroworient.png"  transform="matrix(1 0 0 1 378 544)">
		</image>
		
			<image style="overflow:visible;" width="164" height="64" id="id41" xlink:href="../../../elements/multi-tit-elem/pub/multi-tit_w164_titcount-2_no-arroworient.png"  transform="matrix(1 0 0 1 187 544)">
		</image>
	</g>
	<g id="num-value-elem">
		
			<image style="overflow:visible;" width="72" height="26" id="id50_00000129897596183881374970000017124538934547556241_" xlink:href="../../../elements/num-value-elem/pub/num-value_mini.png"  transform="matrix(1 0 0 1 2224 379)">
		</image>
		
			<image style="overflow:visible;" width="72" height="26" id="id51_00000139984440039224707960000006192098735695380394_" xlink:href="../../../elements/num-value-elem/pub/num-value_mini.png"  transform="matrix(1 0 0 1 2224 420)">
		</image>
		
			<image style="overflow:visible;" width="72" height="26" id="id52_00000158009024103778333350000007689979807418983854_" xlink:href="../../../elements/num-value-elem/pub/num-value_mini.png"  transform="matrix(1 0 0 1 2224 461)">
		</image>
		
			<image style="overflow:visible;" width="72" height="26" id="id53_00000119111535280576412210000008789378620167294638_" xlink:href="../../../elements/num-value-elem/pub/num-value_mini.png"  transform="matrix(1 0 0 1 2224 503)">
		</image>
		
			<image style="overflow:visible;" width="72" height="26" id="id54_00000158739135527260638150000009805589499723348887_" xlink:href="../../../elements/num-value-elem/pub/num-value_mini.png"  transform="matrix(1 0 0 1 2224 544)">
		</image>
	</g>
	<g id="custom-multi-tit-elem">
		
			<image style="overflow:visible;" width="232" height="108" id="id60" xlink:href="../../../elements/customtwo-multi-tit-elem/pub/w_232_h_108.png"  transform="matrix(1 0 0 1 1232 14)">
		</image>
		
			<image style="overflow:visible;" width="232" height="108" id="id61" xlink:href="../../../elements/customtwo-multi-tit-elem/pub/w_232_h_108.png"  transform="matrix(1 0 0 1 1232 241)">
		</image>
		
			<image style="overflow:visible;" width="232" height="108" id="id63" xlink:href="../../../elements/customtwo-multi-tit-elem/pub/w_232_h_108.png"  transform="matrix(1 0 0 1 1232 726)">
		</image>
		
			<image style="overflow:visible;" width="232" height="108" id="id64" xlink:href="../../../elements/customtwo-multi-tit-elem/pub/w_232_h_108.png"  transform="matrix(1 0 0 1 1232 470)">
		</image>
	</g>
</g>
<g id="lines">
	<g id="pipes">
		<g id="drainage">
			<g>
				<line class="st2" x1="115.5" y1="133.5" x2="2396.5" y2="133.5"/>
			</g>
			<g>
				<polyline class="st2" points="2337.5,969.5 148.5,969.5 148.5,133.5 				"/>
			</g>
			<g>
				<line class="st2" x1="529.5" y1="319.5" x2="936.5" y2="319.5"/>
			</g>
			<g>
				<line class="st2" x1="1089.5" y1="360.5" x2="2029.5" y2="360.5"/>
			</g>
			<g>
				<line class="st2" x1="1085" y1="845.5" x2="2027" y2="845.5"/>
			</g>
			<g>
				<line class="st2" x1="1089" y1="589.5" x2="2029" y2="589.5"/>
			</g>
			<g>
				<line class="st2" x1="1645" y1="87.5" x2="1798" y2="87.5"/>
			</g>
			<g>
				<line class="st2" x1="1645.5" y1="314.5" x2="1798.5" y2="314.5"/>
			</g>
			<g>
				<line class="st2" x1="1667" y1="800.5" x2="1795" y2="800.5"/>
			</g>
			<line class="st2" x1="1646.5" y1="87" x2="1646.5" y2="135"/>
			<line class="st2" x1="1646.5" y1="313.5" x2="1646.5" y2="357.5"/>
			<line class="st2" x1="1646.5" y1="543" x2="1646.5" y2="590"/>
			<line class="st2" x1="1668.5" y1="800" x2="1668.5" y2="846"/>
			<line class="st2" x1="1646.5" y1="669.5" x2="1646.5" y2="845.5"/>
			<line class="st2" x1="1053.5" y1="133" x2="1053.5" y2="856"/>
			<line class="st2" x1="1019.5" y1="132" x2="1019.5" y2="771"/>
			<line class="st2" x1="530.5" y1="135" x2="530.5" y2="321"/>
			<line class="st2" x1="935.5" y1="135.5" x2="935.5" y2="321.5"/>
			<line class="st2" x1="1086.5" y1="132" x2="1086.5" y2="845"/>
			<line class="st2" x1="2336.5" y1="133.5" x2="2336.5" y2="970.5"/>
			<line class="st2" x1="2028.5" y1="133.5" x2="2028.5" y2="903.5"/>
			<line class="st2" x1="1054.5" y1="854.5" x2="188.5" y2="854.5"/>
			<line class="st2" x1="1018.5" y1="598" x2="755.5" y2="598"/>
			<line class="st2" x1="682" y1="624.5" x2="188" y2="624.5"/>
			<line class="st2" x1="610" y1="804.5" x2="683" y2="804.5"/>
			<line class="st2" x1="1019" y1="769.5" x2="751" y2="769.5"/>
			<line class="st2" x1="189.5" y1="623" x2="189.5" y2="856"/>
			<line class="st2" x1="1645" y1="542.5" x2="1797" y2="542.5"/>
			<line class="st2" x1="1645" y1="669.5" x2="1796" y2="669.5"/>
			<line class="st2" x1="610.5" y1="625" x2="610.5" y2="806"/>
		</g>
	</g>
	<g id="arc">
		<g id="drainage_00000129174234499598042980000012247097830966395287_">
			<path class="st2" d="M1796.5,494v89c-3.8,0-7,3.1-7,7s3.2,7,7,7v112"/>
			<path class="st2" d="M1796.5,88v38c-3.9,0-7,3.6-7,7.5c0,3.9,3.1,7,7,7V254"/>
			<path class="st2" d="M1796.5,250v104c-3.9,0-7,3.1-7,7c0,3.9,3.1,7,7,7v127"/>
			<path class="st2" d="M1796.5,709v130c-4.3,0-8,3.2-8,7s4.1,6.9,8,6.9V904"/>
		</g>
	</g>
	<g id="points">
		<g id="drainage_00000029734246892450273830000012505510885798848958_">
			<circle class="st3" cx="1087" cy="361" r="4.5"/>
			<circle class="st3" cx="1087" cy="589" r="4.5"/>
			<circle class="st3" cx="1020" cy="591" r="4.5"/>
			<circle class="st3" cx="611" cy="625" r="4.5"/>
			<circle class="st3" cx="1796" cy="801" r="4.5"/>
			<circle class="st3" cx="2028" cy="589" r="4.5"/>
			<circle class="st3" cx="2028" cy="846" r="4.5"/>
			<circle class="st3" cx="2028" cy="361" r="4.5"/>
			<circle class="st3" cx="2029" cy="133" r="4.5"/>
			<circle class="st3" cx="2337" cy="134" r="4.5"/>
			<circle class="st3" cx="1796" cy="543" r="4.5"/>
			<circle class="st3" cx="1796" cy="315" r="4.5"/>
			<circle class="st3" cx="1647" cy="360" r="4.5"/>
			<circle class="st3" cx="1646" cy="134" r="4.5"/>
			<circle class="st3" cx="1646.5" cy="846" r="4.5"/>
			<circle class="st3" cx="1647" cy="590" r="4.5"/>
			<circle class="st3" cx="1669" cy="846" r="4.5"/>
			<circle class="st3" cx="1020" cy="133" r="4.5"/>
			<circle class="st3" cx="530" cy="134" r="4.5"/>
			<circle class="st3" cx="1797" cy="669" r="4.5"/>
			<circle class="st3" cx="1053" cy="133" r="4.5"/>
			<circle class="st3" cx="1086" cy="133" r="4.5"/>
			<circle class="st3" cx="149" cy="134" r="4.5"/>
			<circle class="st3" cx="936" cy="133" r="4.5"/>
		</g>
	</g>
	<g id="arrows">
		<g id="drainage_00000094593100400738437150000009117917353630074519_">
			<polyline class="st2" points="2036,889 2028.5,880 2021,889 			"/>
			<polyline class="st2" points="1789,880 1796.5,889 1804,880 			"/>
		</g>
	</g>
</g>
<g id="text">
	<g id="px17">
		<text transform="matrix(1.0453 0 0 1 2063.2722 475.3658)" class="st4 st5 st6">НГК с начала суток,</text>
		<text transform="matrix(1.0453 0 0 1 2074.4634 433.5831)"><tspan x="0" y="0" class="st4 st5 st6">Часовой расход </tspan><tspan x="35.9" y="15" class="st4 st5 st6">НГК, </tspan></text>
		<text transform="matrix(1.0453 0 0 1 2056.8123 516.8413)" class="st4 st5 st6">НГК с начала месяца,</text>
		<text transform="matrix(1.0453 0 0 1 2058.0713 392.5833)"><tspan x="0" y="0" class="st4 st5 st6">Мгновенный расход </tspan><tspan x="51.9" y="15" class="st4 st5 st6">НГК, </tspan></text>
		<text transform="matrix(1.0453 0 0 1 2065.106 556.1832)"><tspan x="0" y="0" class="st4 st5 st6">НГК с начала пуска</tspan><tspan x="44.3" y="15" class="st4 st5 st6">тыс., </tspan></text>
		<text transform="matrix(1 0 0 1 2146.7961 571.3319)" class="st4 st5 st7">тн/ч</text>
	</g>
	<g id="px15">
		<text transform="matrix(1.0058 0 0 1 2146.2227 407.5146)" class="st4 st5 st7">тн/ч</text>
		<text transform="matrix(1 0 0 1 2144.7961 448.4316)" class="st4 st5 st7">тн/ч</text>
		<text transform="matrix(1 0 0 1 2112.7961 489.7146)" class="st4 st5 st7">тн/сут</text>
		<text transform="matrix(1 0 0 1 2123.7961 532.1899)" class="st4 st5 st7">тн</text>
	</g>
	<g id="px18">
	</g>
	<g id="px20">
		<text transform="matrix(1 0 0 1 1099.4204 838.4751)" class="st4 st5 st8">ИЛ рез</text>
		<text transform="matrix(1 0 0 1 1097.4204 353.4751)" class="st4 st5 st8">ИЛ №2</text>
		<text transform="matrix(1 0 0 1 1099.4204 582.4751)" class="st4 st5 st8">ИЛ №3</text>
		<text transform="matrix(1 0 0 1 1099.4204 125.4751)" class="st4 st5 st8">ИЛ №1</text>
	</g>
	<g id="px28">
		<text transform="matrix(1 0 0 1 1889.5024 938.1626)" class="st4 st5 st9">ПУ</text>
		<text transform="matrix(1 0 0 1 616.9531 508.7614)" class="st4 st5 st9">БИК</text>
	</g>
</g>
<g id="helpers">
</g>
</svg>
