<?xml version="1.0" encoding="utf-8"?>
<!-- Generator: Adobe Illustrator 25.4.1, SVG Export Plug-In . SVG Version: 6.00 Build 0) -->
<svg version="1.1" xmlns="http://www.w3.org/2000/svg" xmlns:xlink="http://www.w3.org/1999/xlink" x="0px" y="0px"
	 viewBox="0 0 1408 928" style="enable-background:new 0 0 1408 928;" xml:space="preserve">
<style type="text/css">
	.st0{fill:#EFEFEF;stroke:#E62E2C;stroke-width:2;stroke-miterlimit:10;}
	.st1{fill:#2F3342;}
	.st2{fill:none;stroke:#4474B9;stroke-miterlimit:10;}
	.st3{fill:#EFEFEF;}
	.st4{font-family:'UbuntuCondensed-Regular';}
	.st5{font-size:19px;}
	.st6{font-size:12px;}
	.st7{fill:#E62F2D;}
	.st8{font-size:21px;}
	.st9{fill:#6D6F7A;}
	.st10{fill:none;stroke:#5D5E69;stroke-miterlimit:10;}
	.st11{fill:none;stroke:#5D5E69;stroke-miterlimit:10;stroke-dasharray:5.8247,5.8247;}
	.st12{fill:none;stroke:#E62F2D;stroke-miterlimit:10;}
	.st13{fill:none;stroke:#E62F2D;stroke-miterlimit:10;stroke-dasharray:5.8247,5.8247;}
	.st14{fill:#E62F2D;stroke:#FFFFFF;stroke-width:2;stroke-miterlimit:10;}
	.st15{fill:#EFEFEF;stroke:#6D6F7A;stroke-miterlimit:10;}
	.st16{fill:#22282D;}
	.st17{font-size:15px;}
	.st18{fill:none;stroke:#5D5E69;stroke-miterlimit:10;stroke-dasharray:6;}
	.st19{fill:#6D6F7A;stroke:#FFFFFF;stroke-width:2;stroke-miterlimit:10;}
	.st20{opacity:0.3;fill:#FFFFFF;stroke:#6D707B;stroke-miterlimit:10;}
	.st21{fill:none;stroke:#F5B323;stroke-width:3;stroke-miterlimit:10;}
	.st22{fill:#FFFFFF;stroke:#FCC10D;stroke-width:3;stroke-miterlimit:10;}
	.st23{fill:none;stroke:#22282D;stroke-miterlimit:10;}
	.st24{fill:none;stroke:#22282D;stroke-miterlimit:10;stroke-dasharray:6.0274,6.0274;}
	.st25{fill:none;stroke:#22282D;stroke-miterlimit:10;stroke-dasharray:6.0354,6.0354;}
	.st26{fill:#FFFFFF;stroke:#6D707B;stroke-miterlimit:10;}
	.st27{fill:#909091;}
	.st28{font-size:20px;}
	.st29{fill:#1C262B;}
	.st30{font-size:18px;}
	.st31{fill:#595B64;}
	.st32{font-size:13px;}

.HIGHLIGHT{fill:none;stroke:#ff0000;stroke-width:3;stroke-miterlimit:10;}
	</style>
<g id="слои">
	<g id="Элементы">
		<g id="ТИТ_график">
			<g>
				<path class="st0" d="M649.9,235.3l-141.8,0.3c-2.7,0-4.9,2.2-4.9,4.9l0.2,97.7c0,2.7,2.2,4.9,4.9,4.9l141.8-0.3
					c2.7,0,4.9-2.2,4.9-4.9l-0.2-97.7C654.8,237.5,652.6,235.3,649.9,235.3z"/>
				<path class="st1" d="M639.8,338.9h-99.7c-0.5,0-31-0.4-31-1v-21.6c0-0.5,30.4-1,31-1h99.7c0.5,0,1,0.4,1,1v21.6
					C640.8,338.4,640.4,338.9,639.8,338.9z"/>
				<polyline class="st2" points="645.6,306.7 621.4,291 597.2,280.9 572.8,278.7 558.6,275.4 548.6,273.4 502.9,271.6 				"/>
				<g>
					<text transform="matrix(1 -2.470000e-03 2.470000e-03 1 511.9275 333.1187)"><tspan x="0" y="0" class="st3 st4 st5">F, </tspan><tspan x="16.2" y="0" class="st3 st4 st6">тыс.ст.м</tspan></text>
				</g>
				<g>
					<text transform="matrix(1 -2.470000e-03 2.470000e-03 1 605.9657 332.96)" class="st7 st4 st8">0,00</text>
				</g>
				<g>
						<rect x="643.8" y="314.9" transform="matrix(1 -2.474355e-03 2.474355e-03 1 -0.7918 1.5993)" class="st9" width="4.3" height="11.8"/>
						<rect x="643.8" y="326.7" transform="matrix(1 -2.474355e-03 2.474355e-03 1 -0.821 1.5994)" class="st7" width="4.3" height="11.8"/>
				</g>
				<g>
					<g>
						<line class="st10" x1="502.8" y1="252.2" x2="505.8" y2="252.2"/>
						<line class="st11" x1="511.6" y1="252.2" x2="648.5" y2="251.9"/>
						<line class="st10" x1="651.4" y1="251.9" x2="654.4" y2="251.9"/>
					</g>
				</g>
				<g>
					<g>
						<line class="st12" x1="502.9" y1="298.6" x2="505.9" y2="298.6"/>
						<line class="st13" x1="511.8" y1="298.5" x2="648.6" y2="298.3"/>
						<line class="st12" x1="651.6" y1="298.3" x2="654.6" y2="298.3"/>
					</g>
				</g>
				<ellipse class="st14" cx="645.3" cy="306.9" rx="3.2" ry="3.2"/>
			</g>
			<g>
				<path class="st0" d="M649.9,588.3l-141.8,0.3c-2.7,0-4.9,2.2-4.9,4.9l0.2,97.7c0,2.7,2.2,4.9,4.9,4.9l141.8-0.3
					c2.7,0,4.9-2.2,4.9-4.9l-0.2-97.7C654.8,590.5,652.6,588.3,649.9,588.3z"/>
				<path class="st1" d="M639.8,691.9h-99.7c-0.5,0-31-0.4-31-1v-21.6c0-0.5,30.4-1,31-1h99.7c0.5,0,1,0.4,1,1v21.6
					C640.8,691.4,640.4,691.9,639.8,691.9z"/>
				<polyline class="st2" points="645.6,659.7 621.4,644 597.2,633.9 572.8,631.7 558.6,628.4 548.6,626.4 502.9,624.6 				"/>
				<g>
					<text transform="matrix(1 -2.470000e-03 2.470000e-03 1 511.9275 686.1244)"><tspan x="0" y="0" class="st3 st4 st5">F, </tspan><tspan x="16.2" y="0" class="st3 st4 st6">тыс.ст.м</tspan></text>
				</g>
				<g>
					<text transform="matrix(1 -2.470000e-03 2.470000e-03 1 605.9657 685.9658)" class="st7 st4 st8">0,00</text>
				</g>
				<g>
						<rect x="643.8" y="667.9" transform="matrix(1 -2.474355e-03 2.474355e-03 1 -1.6653 1.6003)" class="st9" width="4.3" height="11.8"/>
						<rect x="643.8" y="679.7" transform="matrix(1 -2.474355e-03 2.474355e-03 1 -1.6944 1.6004)" class="st7" width="4.3" height="11.8"/>
				</g>
				<g>
					<g>
						<line class="st10" x1="502.8" y1="605.2" x2="505.8" y2="605.2"/>
						<line class="st11" x1="511.6" y1="605.2" x2="648.5" y2="604.9"/>
						<line class="st10" x1="651.4" y1="604.9" x2="654.4" y2="604.9"/>
					</g>
				</g>
				<g>
					<g>
						<line class="st12" x1="502.9" y1="651.6" x2="505.9" y2="651.6"/>
						<line class="st13" x1="511.8" y1="651.5" x2="648.6" y2="651.3"/>
						<line class="st12" x1="651.6" y1="651.3" x2="654.6" y2="651.3"/>
					</g>
				</g>
				<ellipse class="st14" cx="645.3" cy="659.9" rx="3.2" ry="3.2"/>
			</g>
			<g>
				<path class="st0" d="M649.9,766l-141.8,0.3c-2.7,0-4.9,2.2-4.9,4.9l0.2,97.7c0,2.7,2.2,4.9,4.9,4.9l141.8-0.3
					c2.7,0,4.9-2.2,4.9-4.9l-0.2-97.7C654.8,768.2,652.6,766,649.9,766z"/>
				<path class="st1" d="M639.8,869.6h-99.7c-0.5,0-31-0.4-31-1V847c0-0.5,30.4-1,31-1h99.7c0.5,0,1,0.4,1,1v21.6
					C640.8,869.1,640.4,869.6,639.8,869.6z"/>
				<polyline class="st2" points="645.6,837.4 621.4,821.7 597.2,811.6 572.8,809.4 558.6,806.1 548.6,804.1 502.9,802.3 				"/>
				<g>
					<text transform="matrix(1 -2.470000e-03 2.470000e-03 1 511.9275 863.8141)"><tspan x="0" y="0" class="st3 st4 st5">F, </tspan><tspan x="16.2" y="0" class="st3 st4 st6">тыс.ст.м</tspan></text>
				</g>
				<g>
					<text transform="matrix(1 -2.470000e-03 2.470000e-03 1 605.9657 863.6555)" class="st7 st4 st8">0,00</text>
				</g>
				<g>
						<rect x="643.8" y="845.6" transform="matrix(1 -2.474355e-03 2.474355e-03 1 -2.1049 1.6009)" class="st9" width="4.3" height="11.8"/>
						<rect x="643.8" y="857.4" transform="matrix(1 -2.474355e-03 2.474355e-03 1 -2.1341 1.601)" class="st7" width="4.3" height="11.8"/>
				</g>
				<g>
					<g>
						<line class="st10" x1="502.8" y1="782.9" x2="505.8" y2="782.9"/>
						<line class="st11" x1="511.6" y1="782.9" x2="648.5" y2="782.6"/>
						<line class="st10" x1="651.4" y1="782.6" x2="654.4" y2="782.6"/>
					</g>
				</g>
				<g>
					<g>
						<line class="st12" x1="502.9" y1="829.3" x2="505.9" y2="829.2"/>
						<line class="st13" x1="511.8" y1="829.2" x2="648.6" y2="829"/>
						<line class="st12" x1="651.6" y1="829" x2="654.6" y2="829"/>
					</g>
				</g>
				<ellipse class="st14" cx="645.3" cy="837.6" rx="3.2" ry="3.2"/>
			</g>
			<g>
				<path class="st15" d="M649.5,411.2l-141.8,0.3c-2.7,0-4.9,2.2-4.9,4.9l0.2,97.7c0,2.7,2.2,4.9,4.9,4.9l141.8-0.3
					c2.7,0,4.9-2.2,4.9-4.9l-0.2-97.7C654.4,413.4,652.2,411.2,649.5,411.2z"/>
				<g>
					<text transform="matrix(1 -2.470000e-03 2.470000e-03 1 511.563 509.0486)"><tspan x="0" y="0" class="st16 st4 st5">F</tspan><tspan x="8.1" y="0" class="st16 st4 st17">, тыс.ст.м</tspan></text>
				</g>
				<g>
					<text transform="matrix(1 -2.470000e-03 2.470000e-03 1 587.5417 508.9346)" class="st16 st4 st8">161,33</text>
				</g>
				<g>
						<rect x="642.4" y="490.8" transform="matrix(1 -2.474355e-03 2.474355e-03 1 -1.2271 1.5964)" class="st9" width="4.3" height="11.8"/>
						<rect x="642.4" y="502.6" transform="matrix(1 -2.474355e-03 2.474355e-03 1 -1.2563 1.5965)" class="st9" width="4.3" height="11.8"/>
				</g>
				<line class="st18" x1="503.4" y1="428.3" x2="654" y2="428"/>
				<line class="st18" x1="503.5" y1="476.7" x2="654.1" y2="476.4"/>
				<polyline class="st2" points="645.6,448.3 615.9,440.8 596.3,451.3 575.8,449.5 556.7,459.2 548.4,459.7 502.8,462.4 				"/>
				<ellipse class="st19" cx="645.6" cy="448.4" rx="3.2" ry="3.2"/>
			</g>
		</g>
	</g>
	<rect x="1140" y="488" class="st20" width="210" height="262"/>
</g>
<g id="lines">
	<g id="pipes">
		<g id="gas">
			<line class="st21" x1="900" y1="527" x2="158" y2="527"/>
			<polyline class="st21" points="1135,71 1135,158 1248,158 1248,71 			"/>
			<polyline class="st21" points="471,614 356,614 356,704 			"/>
			<polyline class="st21" points="471,437 356,437 356,527 			"/>
			<polyline class="st21" points="916,436 802,436 802,527 			"/>
			<polyline class="st21" points="916,613 802,613 802,704 			"/>
			<polyline class="st21" points="356,883 356,793 471,793 471,158 			"/>
			<polyline class="st21" points="218,704 218,615 331,615 331,704 			"/>
			<line class="st21" x1="915.5" y1="159" x2="963.5" y2="159"/>
			<polyline class="st21" points="916,260 802,260 802,351 			"/>
			<polyline class="st21" points="218,350 218,261 331,261 331,350 			"/>
			<polyline class="st21" points="218,527 218,437 331,437 331,526 			"/>
			<polyline class="st21" points="471,261 356,261 356,351 			"/>
			<polyline class="st21" points="802,883 802,792 917,792 917,158 			"/>
			<polyline class="st21" points="218,883 218,794 331,794 331,883 			"/>
			<polyline class="HIGHLIGHT st21" points="156,73 157,884 1095,883 1095,71 			"/>
			<line class="st21" x1="1359" y1="71" x2="127" y2="71"/>
			<line class="st21" x1="896" y1="350" x2="158" y2="350"/>
			<path class="st21" d="M158.1,456.2"/>
			<path class="st21" d="M996.8,296.2"/>
			<line class="st21" x1="158" y1="158" x2="517" y2="158"/>
			<line class="st21" x1="896" y1="704" x2="158" y2="704"/>
		</g>
	</g>
	<g id="arc">
		<g id="gas">
			<path class="st21" d="M1095,527H924c0-3.9-3.1-8-7-8s-7,4.1-7,8h-46"/>
			<path class="st21" d="M1095,350H924c0-3.9-3.1-7-7-7s-7,3.1-7,7h-46"/>
			<path class="st21" d="M1095,704H924c0-3.9-3.1-7-7-7s-7,3.1-7,7h-46"/>
		</g>
	</g>
	<g id="points">
		<g id="gas">
			<circle class="st22" cx="156" cy="72" r="4.5"/>
			<circle class="st22" cx="1095" cy="72" r="4.5"/>
			<circle class="st22" cx="1095" cy="350" r="4.5"/>
			<circle class="st22" cx="1095" cy="527" r="4.5"/>
			<circle class="st22" cx="1135" cy="72" r="4.5"/>
			<circle class="st22" cx="1248" cy="72" r="4.5"/>
			<circle class="st22" cx="157" cy="158" r="4.5"/>
			<circle class="st22" cx="471" cy="158" r="4.5"/>
			<circle class="st22" cx="157" cy="350" r="4.5"/>
			<circle class="st22" cx="157" cy="527" r="4.5"/>
			<circle class="st22" cx="157" cy="704" r="4.5"/>
		</g>
	</g>
</g>
<g id="tables-dashed">
	<g id="t1">
		<g>
			<g>
				<polyline class="st23" points="933,889 933,892 930,892 				"/>
				<line class="st24" x1="924" y1="892" x2="493" y2="892"/>
				<polyline class="st23" points="490,892 487,892 487,889 				"/>
				<line class="st25" x1="487" y1="883" x2="487" y2="210"/>
				<polyline class="st23" points="487,207 487,204 490,204 				"/>
				<line class="st24" x1="496" y1="204" x2="927" y2="204"/>
				<polyline class="st23" points="930,204 933,204 933,207 				"/>
				<line class="st25" x1="933" y1="213" x2="933" y2="886"/>
			</g>
		</g>
	</g>
</g>
<g id="tables-solid">
	<g id="t1">
		<path class="st15" d="M1392,845h-184c-2.7,0-5,2.3-5,5v22c0,2.7,2.3,5,5,5h184c2.7,0,5-2.3,5-5v-22
			C1397,847.3,1394.7,845,1392,845z"/>
	</g>
	<g id="t2">
		<path class="st15" d="M1392,884h-184c-2.7,0-5,2.3-5,5v23c0,2.7,2.3,5,5,5l184-1c2.7,0,5-2.3,5-5v-22
			C1397,886.3,1394.7,884,1392,884z"/>
	</g>
	<g id="t4">
		<path class="st26" d="M1330,737h-50c-2.7,0-4-2.3-4-5l0-16.1c0-2.7,1.3-4.9,4-4.9h50c2.7,0,5,1.3,5,4v17
			C1335,734.7,1332.7,737,1330,737z"/>
	</g>
	<g id="t5">
		<path class="st26" d="M1330,693h-50c-2.7,0-4-2.3-4-5l0-16.1c0-2.7,1.3-4.9,4-4.9h50c2.7,0,5,1.3,5,4v17
			C1335,690.7,1332.7,693,1330,693z"/>
	</g>
	<g id="t6">
		<path class="st26" d="M1330,651h-50c-2.7,0-4-2.3-4-5l0-16.1c0-2.7,1.3-4.9,4-4.9h50c2.7,0,5,1.3,5,4v17
			C1335,648.7,1332.7,651,1330,651z"/>
	</g>
	<g id="t7">
		<path class="st26" d="M1330,610h-50c-2.7,0-4-2.3-4-5l0-16.1c0-2.7,1.3-4.9,4-4.9h50c2.7,0,5,1.3,5,4v17
			C1335,607.7,1332.7,610,1330,610z"/>
	</g>
	<g id="t8">
		<path class="st26" d="M1330,569h-50c-2.7,0-4-2.3-4-5l0-16.1c0-2.7,1.3-4.9,4-4.9h50c2.7,0,5,1.3,5,4v17
			C1335,566.7,1332.7,569,1330,569z"/>
	</g>
	<g id="t9">
		<path class="st26" d="M1330,528h-50c-2.7,0-4-2.3-4-5l0-16.1c0-2.7,1.3-4.9,4-4.9h50c2.7,0,5,1.3,5,4v17
			C1335,525.7,1332.7,528,1330,528z"/>
	</g>
</g>
<g id="text">
	<g id="px21">
		<g>
			<text transform="matrix(1 -2.470000e-03 2.470000e-03 1 1284.5087 868.4511)" class="st27 st4 st8">БКК</text>
		</g>
		<g>
			<text transform="matrix(1 -2.470000e-03 2.470000e-03 1 1209.4982 907.3197)" class="st27 st4 st8">Компонентный состав</text>
		</g>
	</g>
	<g id="px20">
		<text transform="matrix(1 0 0 1 681.4431 223.8519)" class="st27 st4 st28">Блок-бокс</text>
	</g>
	<g id="px18">
		<text transform="matrix(1 0 0 1 1280.8021 603.8694)" class="st29 st4 st30">3520.0</text>
		<text transform="matrix(1 0 0 1 1280.6301 562.0923)" class="st29 st4 st30">3520.0</text>
		<text transform="matrix(1 0 0 1 1280.9949 520.1241)" class="st29 st4 st30">3520.0</text>
		<text transform="matrix(1 0 0 1 1280.8021 686.5573)" class="st29 st4 st30">3520.0</text>
		<text transform="matrix(1 0 0 1 1280.8021 645.5573)" class="st29 st4 st30">3520.0</text>
		<text transform="matrix(1 0 0 1 1281.3865 729.5728)" class="st29 st4 st30">3520.0</text>
	</g>
	<g id="px13">
		<g>
			<text transform="matrix(1.0453 0 0 1 1156.1166 595.8694)"><tspan x="0" y="0" class="st31 st4 st32">Расход газа с начала </tspan><tspan x="5" y="11" class="st31 st4 st32">суток, тыс.м³/сутки</tspan></text>
		</g>
		<text transform="matrix(1.0453 0 0 1 1156.3904 515.1241)"><tspan x="0" y="0" class="st31 st4 st32">Мгновенный расход </tspan><tspan x="21.1" y="11" class="st31 st4 st32">Газа, тыс. м³</tspan></text>
		<g>
			<text transform="matrix(1.0453 0 0 1 1157.8704 679.6451)"><tspan x="0" y="0" class="st31 st4 st32">Расход газа с начала</tspan><tspan x="9.4" y="11" class="st31 st4 st32">года, млн.м³/год</tspan></text>
		</g>
		<g>
			<text transform="matrix(1.0453 0 0 1 1156.1869 638.3449)"><tspan x="0" y="0" class="st31 st4 st32">Расход газа с начала </tspan><tspan x="-1.5" y="11" class="st31 st4 st32">месяца, тыс.м³/месяц</tspan></text>
		</g>
		<g>
			<text transform="matrix(1.0453 0 0 1 1170.5852 555.0923)"><tspan x="0" y="0" class="st31 st4 st32">Среднечасовой</tspan><tspan x="-10.4" y="11" class="st31 st4 st32">расход газа, тыс. м³</tspan></text>
		</g>
		<g>
			<text transform="matrix(1.0453 0 0 1 1158.0715 720.0542)"><tspan x="0" y="0" class="st31 st4 st32">Расход газа с начала</tspan><tspan x="17" y="11" class="st31 st4 st32">пуска, млн.м³</tspan></text>
		</g>
	</g>
</g>
</svg>
