<?xml version="1.0" encoding="utf-8"?>
<!-- Generator: Adobe Illustrator 23.0.1, SVG Export Plug-In . SVG Version: 6.00 Build 0)  -->
<svg version="1.1" xmlns="http://www.w3.org/2000/svg" xmlns:xlink="http://www.w3.org/1999/xlink" x="0px" y="0px"
	 viewBox="0 0 1579 1067" style="enable-background:new 0 0 1579 1067;" xml:space="preserve">
<style type="text/css">
	.st0{fill:#EEEEEF;stroke:#6C6E7A;stroke-miterlimit:10;}
	.st1{fill:#909091;}
	.st2{font-family:'UbuntuCondensed-Regular';}
	.st3{font-size:16px;}
	.st4{font-size:14px;}
	.st5{font-size:20px;}
	.st6{fill:#21282D;}
	.st7{font-size:21px;}
	.st8{fill:none;stroke:#000000;stroke-width:0.5;stroke-miterlimit:10;}
	.st9{fill:none;stroke:#7030A0;stroke-width:6;stroke-miterlimit:10;}
	.st10{fill:none;stroke:#6C6E7A;stroke-width:6;stroke-miterlimit:10;}
	.st11{fill:#F5F3F3;stroke:#7030A0;stroke-miterlimit:10;}
	.st12{fill:#F5F3F3;stroke:#6C6E7A;stroke-miterlimit:10;}
	.st13{fill:#F5F3F3;}
	.st14{fill-rule:evenodd;clip-rule:evenodd;fill:none;stroke:#000000;stroke-width:0.5;stroke-miterlimit:10;}
	.st15{fill-rule:evenodd;clip-rule:evenodd;fill:none;stroke:#909091;stroke-miterlimit:10;}
</style>
<g id="SimpleElements">
	<g id="switch-cart-elem">
		
			<image style="overflow:visible;" width="22" height="69" id="id1" xlink:href="../../../elements/switch-cart-elem/pub/default.png"  transform="matrix(1 0 0 1 181.196 133.854)">
		</image>
		
			<image style="overflow:visible;" width="22" height="69" id="id2" xlink:href="../../../elements/switch-cart-elem/pub/default.png"  transform="matrix(1 0 0 1 310.5 133.854)">
		</image>
		
			<image style="overflow:visible;" width="22" height="69" id="id3" xlink:href="../../../elements/switch-cart-elem/pub/default.png"  transform="matrix(1 0 0 1 181.196 304.833)">
		</image>
		
			<image style="overflow:visible;" width="22" height="69" id="id4" xlink:href="../../../elements/switch-cart-elem/pub/default.png"  transform="matrix(1 0 0 1 310.501 304.833)">
		</image>
	</g>
	<g id="multi-tit-elem">
		
			<image style="overflow:visible;" width="134" height="225" id="id5" xlink:href="../../../elements/multi-tit-elem/pub/multi-tit_titcount-7_no-arroworient.png"  transform="matrix(1.1071 0 0 1.1071 9.8264 457.4547)">
		</image>
		
			<image style="overflow:visible;" width="134" height="225" id="id6" xlink:href="../../../elements/multi-tit-elem/pub/multi-tit_titcount-7_no-arroworient.png"  transform="matrix(1.1071 0 0 1.1071 367.8264 457.4547)">
		</image>
		
			<image style="overflow:visible;" width="134" height="225" id="id7" xlink:href="../../../elements/multi-tit-elem/pub/multi-tit_titcount-7_no-arroworient.png"  transform="matrix(1.1071 0 0 1.1071 529.8264 457.4547)">
		</image>
		
			<image style="overflow:visible;" width="134" height="225" id="id8" xlink:href="../../../elements/multi-tit-elem/pub/multi-tit_titcount-7_no-arroworient.png"  transform="matrix(1.1071 0 0 1.1071 900.8264 457.4547)">
		</image>
		
			<image style="overflow:visible;" width="134" height="225" id="id9" xlink:href="../../../elements/multi-tit-elem/pub/multi-tit_titcount-7_no-arroworient.png"  transform="matrix(1.1071 0 0 1.1071 1062.8264 457.4547)">
		</image>
		
			<image style="overflow:visible;" width="134" height="225" id="id10" xlink:href="../../../elements/multi-tit-elem/pub/multi-tit_titcount-7_no-arroworient.png"  transform="matrix(1.1071 0 0 1.1071 1428.8264 457.4547)">
		</image>
		
			<image style="overflow:visible;" width="134" height="264" id="id11" xlink:href="../../../elements/multi-tit-elem/pub/multi-tit_titcount-8_no-arroworient.png"  transform="matrix(1.0939 0 0 1.0939 10.7094 769.1065)">
		</image>
	</g>
	<g id="earthing-knife-elem">
		
			<image style="overflow:visible;" width="45" height="18" id="id12" xlink:href="../../../elements/earthing-knife-elem/pub/default.png"  transform="matrix(1 0 0 1 188.696 219.5)">
		</image>
		
			<image style="overflow:visible;" width="45" height="18" id="id13" xlink:href="../../../elements/earthing-knife-elem/pub/default.png"  transform="matrix(1 0 0 1 318.197 219.5)">
		</image>
		
			<image style="overflow:visible;" width="45" height="18" id="id14" xlink:href="../../../elements/earthing-knife-elem/pub/default.png"  transform="matrix(1 0 0 1 188.302 542)">
		</image>
		
			<image style="overflow:visible;" width="45" height="18" id="id15" xlink:href="../../../elements/earthing-knife-elem/pub/default.png"  transform="matrix(1 0 0 1 318 542)">
		</image>
		
			<image style="overflow:visible;" width="45" height="18" id="id16" xlink:href="../../../elements/earthing-knife-elem/pub/default.png"  transform="matrix(1 0 0 1 721.281 542)">
		</image>
		
			<image style="overflow:visible;" width="45" height="18" id="id17" xlink:href="../../../elements/earthing-knife-elem/pub/default.png"  transform="matrix(1 0 0 1 850.979 542)">
		</image>
		
			<image style="overflow:visible;" width="45" height="18" id="id18" xlink:href="../../../elements/earthing-knife-elem/pub/default.png"  transform="matrix(1 0 0 1 1253.908 542)">
		</image>
		
			<image style="overflow:visible;" width="45" height="18" id="id19" xlink:href="../../../elements/earthing-knife-elem/pub/default.png"  transform="matrix(1 0 0 1 1383.606 542)">
		</image>
	</g>
	<g id="disconnector-cart-elem">
		
			<image style="overflow:visible;" width="14" height="58" id="id20" xlink:href="../../../elements/disconnector-cart-elem/pub/default.png"  transform="matrix(1 0 0 1 184.802 625.704)">
		</image>
		
			<image style="overflow:visible;" width="14" height="58" id="id21" xlink:href="../../../elements/disconnector-cart-elem/pub/default.png"  transform="matrix(1 0 0 1 314.5 625.704)">
		</image>
		
			<image style="overflow:visible;" width="14" height="58" id="id22" xlink:href="../../../elements/disconnector-cart-elem/pub/default.png"  transform="matrix(1 0 0 1 314.5 730.879)">
		</image>
		
			<image style="overflow:visible;" width="14" height="58" id="id23" xlink:href="../../../elements/disconnector-cart-elem/pub/default.png"  transform="matrix(1 0 0 1 314.5 957.359)">
		</image>
		
			<image style="overflow:visible;" width="14" height="58" id="id24" xlink:href="../../../elements/disconnector-cart-elem/pub/default.png"  transform="matrix(1 0 0 1 717.781 625.704)">
		</image>
		
			<image style="overflow:visible;" width="14" height="58" id="id25" xlink:href="../../../elements/disconnector-cart-elem/pub/default.png"  transform="matrix(1 0 0 1 847.479 625.704)">
		</image>
		
			<image style="overflow:visible;" width="14" height="58" id="id26" xlink:href="../../../elements/disconnector-cart-elem/pub/default.png"  transform="matrix(0 1 -1 0 818.531 676.5)">
		</image>
		
			<image style="overflow:visible;" width="14" height="58" id="id27" xlink:href="../../../elements/disconnector-cart-elem/pub/default.png"  transform="matrix(1 0 0 1 1250.408 625.704)">
		</image>
		
			<image style="overflow:visible;" width="14" height="58" id="id28" xlink:href="../../../elements/disconnector-cart-elem/pub/default.png"  transform="matrix(0 1 -1 0 1351.158 676.5)">
		</image>
		
			<image style="overflow:visible;" width="14" height="58" id="id29" xlink:href="../../../elements/disconnector-cart-elem/pub/default.png"  transform="matrix(1 0 0 1 1380.106 625.704)">
		</image>
		
			<image style="overflow:visible;" width="14" height="58" id="id30" xlink:href="../../../elements/disconnector-cart-elem/pub/default.png"  transform="matrix(0 1 -1 0 285.552 676.5)">
		</image>
	</g>
	<g id="disconnector-elem">
		
			<image style="overflow:visible;" width="16" height="11" id="id31" xlink:href="../../../elements/disconnector-elem/pub/default.png"  transform="matrix(0 -1 1 0 186.302 486.5)">
		</image>
		
			<image style="overflow:visible;" width="16" height="11" id="id32" xlink:href="../../../elements/disconnector-elem/pub/default.png"  transform="matrix(0 -1 1 0 316 486.5)">
		</image>
		
			<image style="overflow:visible;" width="16" height="11" id="id33" xlink:href="../../../elements/disconnector-elem/pub/default.png"  transform="matrix(0 -1 1 0 719.281 486.5)">
		</image>
		
			<image style="overflow:visible;" width="16" height="11" id="id34" xlink:href="../../../elements/disconnector-elem/pub/default.png"  transform="matrix(0 -1 1 0 848.979 486.5)">
		</image>
		
			<image style="overflow:visible;" width="16" height="11" id="id35" xlink:href="../../../elements/disconnector-elem/pub/default.png"  transform="matrix(0 -1 1 0 1251.908 486.5)">
		</image>
		
			<image style="overflow:visible;" width="16" height="11" id="id36" xlink:href="../../../elements/disconnector-elem/pub/default.png"  transform="matrix(0 -1 1 0 1381.606 486.5)">
		</image>
	</g>
</g>
<g id="tables">
	<g id="rect">
		<path class="st0" d="M1219.48,54.53V14.82c-0.01-2.66-2.22-4.83-4.91-4.82l-851.14,0.27c-2.7,0.01-4.9,2.19-4.89,4.84l0.02,6.24
			l0.04,32.82c0.01,2.66,2.22,4.83,4.91,4.82l851.14-0.27c2.7-0.01,4.9-2.19,4.89-4.84L1219.48,54.53z"/>
	</g>
	<g id="text">
		<g id="elem-text">
			<text transform="matrix(1 0 0 1 206.7069 600.0568)" class="st1 st2 st3">Т1</text>
			<text transform="matrix(1 0 0 1 336.4047 600.0568)" class="st1 st2 st3">Т2</text>
			<text transform="matrix(1 0 0 1 739.6863 600.0568)" class="st1 st2 st3">Т1</text>
			<text transform="matrix(1 0 0 1 869.384 600.0568)" class="st1 st2 st3">Т2</text>
			<text transform="matrix(1 0 0 1 1272.313 600.0568)" class="st1 st2 st3">Т1</text>
			<text transform="matrix(1 0 0 1 1402.0107 600.0568)" class="st1 st2 st3">Т2</text>
		</g>
		<g id="subtitles">
			<text transform="matrix(1 0 0 1 327.7063 483.4992)" class="st1 st2 st4">УВН2</text>
			<text transform="matrix(1 0 0 1 191.0073 725.838)" class="st1 st2 st4">1С-0,4</text>
			<text transform="matrix(1 0 0 1 285.272 725.838)" class="st1 st2 st4">2С-0,4</text>
			<text transform="matrix(1 0 0 1 731.0192 659.7039)" class="st1 st2 st4">1ВВ</text>
			<text transform="matrix(1 0 0 1 730.9879 483.4992)" class="st1 st2 st4">УВН1</text>
			<text transform="matrix(1 0 0 1 859.9982 657.6064)" class="st1 st2 st4">2ВВ</text>
			<text transform="matrix(1 0 0 1 860.6857 483.4992)" class="st1 st2 st4">УВН2</text>
			<text transform="matrix(1 0 0 1 723.9867 725.838)" class="st1 st2 st4">1С-0,4</text>
			<text transform="matrix(1 0 0 1 824.6846 725.838)" class="st1 st2 st4">2С-0,4</text>
			<text transform="matrix(1 0 0 1 1263.646 659.7039)" class="st1 st2 st4">1ВВ</text>
			<text transform="matrix(1 0 0 1 1263.6147 483.4992)" class="st1 st2 st4">УВН1</text>
			<text transform="matrix(1 0 0 1 1392.625 657.6064)" class="st1 st2 st4">2ВВ</text>
			<text transform="matrix(1 0 0 1 1393.3125 483.4992)" class="st1 st2 st4">УВН2</text>
			<text transform="matrix(1 0 0 1 1256.6135 725.838)" class="st1 st2 st4">1С-0,4</text>
			<text transform="matrix(1 0 0 1 1357.3115 725.838)" class="st1 st2 st4">2С-0,4</text>
			<text transform="matrix(1 0 0 1 198.0398 659.7039)" class="st1 st2 st4">1ВВ</text>
			<text transform="matrix(1 0 0 1 198.0085 483.4992)" class="st1 st2 st4">УВН1</text>
			<text transform="matrix(1 0 0 1 327.0188 657.6064)" class="st1 st2 st4">2ВВ</text>
			<text transform="matrix(1 0 0 1 327.0188 764.8796)" class="st1 st2 st4">АВ</text>
			<text transform="matrix(1 0 0 1 327.0188 991.3589)" class="st1 st2 st4">АВ</text>
			<text transform="matrix(1 0 0 1 178.3911 96)" class="st1 st2 st4">1С-10</text>
			<text transform="matrix(1 0 0 1 307.6974 96)" class="st1 st2 st4">2С-10</text>
		</g>
		<g id="titles">
			<text transform="matrix(1 0 0 1 225.1565 448.2507)" class="st1 st2 st5">ТП-4ВЖК</text>
			<text transform="matrix(1 0 0 1 226.7161 99.4968)" class="st1 st2 st5">РУ-10кВ</text>
			<text transform="matrix(0.9633 0 0 1 338.4995 1052.6396)" class="st1 st2 st5">АДЭС+ТП-4ВЖК</text>
			<text transform="matrix(1 0 0 1 1293.074 448.2507)" class="st1 st2 st5">ТП-4ВЖК</text>
			<text transform="matrix(1 0 0 1 213.012 343.0203)" class="st1 st2 st5">6Р-4ВЖК</text>
			<text transform="matrix(1 0 0 1 342.2888 343.0203)" class="st1 st2 st5">7Р-4ВЖК</text>
			<text transform="matrix(1 0 0 1 766.2463 448.2507)" class="st1 st2 st5">ТП-430</text>
			<text transform="matrix(1 0 0 1 213.012 175.9292)" class="st1 st2 st5">11</text>
			<text transform="matrix(1 0 0 1 342.2888 175.9292)" class="st1 st2 st5">12</text>
		</g>
		<g id="main">
			<g>
				<text transform="matrix(1 -2.470000e-03 2.470000e-03 1 414.1243 44.6247)" class="st6 st2 st7">Электроснабжение вахтовый жилой комплекс и водозаборные сооружения ГП-41 от РУ-10кВ</text>
			</g>
		</g>
	</g>
</g>
<g id="lines">
	<g id="pipes">
		<g id="lep">
			<polyline class="st8" points="192.2,276.5 1257.8,276.5 1257.8,471 			"/>
			<polyline class="st8" points="321.5,250.5 1387.5,250.5 1387.5,471 			"/>
			<polyline class="st8" points="192.2,419.67 725.18,419.67 725.18,471 			"/>
			<polyline class="st8" points="321.5,393.67 854.87,393.67 854.87,471 			"/>
			<line class="st8" x1="1387.11" y1="683.24" x2="1387.11" y2="703.29"/>
			<line class="st8" x1="1387.11" y1="608.95" x2="1387.11" y2="626.2"/>
			<line class="st8" x1="1387.11" y1="486" x2="1387.11" y2="579.48"/>
			<line class="st8" x1="321.5" y1="957.86" x2="321.5" y2="937.81"/>
			<line class="st8" x1="321.5" y1="1035.93" x2="321.5" y2="1014.86"/>
			<line class="st8" x1="321.5" y1="929.15" x2="321.5" y2="817.09"/>
			<line class="st8" x1="191.8" y1="683.24" x2="191.8" y2="703.29"/>
			<line class="st8" x1="220.8" y1="683.24" x2="220.8" y2="703.29"/>
			<line class="st8" x1="292.5" y1="683.24" x2="292.5" y2="703.29"/>
			<line class="st8" x1="220.6" y1="683.5" x2="228.05" y2="683.5"/>
			<line class="st8" x1="285.05" y1="683.5" x2="292.5" y2="683.5"/>
			<line class="st8" x1="191.8" y1="608.95" x2="191.8" y2="626.2"/>
			<line class="st8" x1="192.2" y1="373.83" x2="192.2" y2="471"/>
			<line class="st8" x1="192.2" y1="202.85" x2="192.2" y2="304.83"/>
			<line class="st8" x1="192.2" y1="109" x2="192.2" y2="133.85"/>
			<line class="st8" x1="191.8" y1="486" x2="191.8" y2="579.48"/>
			<line class="st8" x1="321.5" y1="202.85" x2="321.5" y2="304.83"/>
			<line class="st8" x1="321.48" y1="108.68" x2="321.48" y2="133.85"/>
			<line class="st8" x1="321.5" y1="683.24" x2="321.5" y2="703.29"/>
			<line class="st8" x1="321.5" y1="731.34" x2="321.5" y2="711.29"/>
			<line class="st8" x1="321.5" y1="808.43" x2="321.5" y2="788.38"/>
			<line class="st8" x1="321.5" y1="608.95" x2="321.5" y2="626.2"/>
			<line class="st8" x1="321.5" y1="373.83" x2="321.5" y2="471"/>
			<line class="st8" x1="321.5" y1="486" x2="321.5" y2="579.48"/>
			<line class="st8" x1="724.78" y1="683.24" x2="724.78" y2="703.29"/>
			<line class="st8" x1="753.78" y1="683.24" x2="753.78" y2="703.29"/>
			<line class="st8" x1="825.48" y1="683.24" x2="825.48" y2="703.29"/>
			<line class="st8" x1="753.58" y1="683.5" x2="761.03" y2="683.5"/>
			<line class="st8" x1="818.03" y1="683.5" x2="825.48" y2="683.5"/>
			<line class="st8" x1="724.78" y1="608.95" x2="724.78" y2="626.2"/>
			<line class="st8" x1="724.78" y1="486" x2="724.78" y2="579.48"/>
			<line class="st8" x1="854.48" y1="683.24" x2="854.48" y2="703.29"/>
			<line class="st8" x1="854.48" y1="608.95" x2="854.48" y2="626.2"/>
			<line class="st8" x1="854.48" y1="486" x2="854.48" y2="579.48"/>
			<line class="st8" x1="1257.41" y1="683.24" x2="1257.41" y2="703.29"/>
			<line class="st8" x1="1286.41" y1="683.24" x2="1286.41" y2="703.29"/>
			<line class="st8" x1="1358.11" y1="683.24" x2="1358.11" y2="703.29"/>
			<line class="st8" x1="1286.21" y1="683.5" x2="1293.66" y2="683.5"/>
			<line class="st8" x1="1350.66" y1="683.5" x2="1358.11" y2="683.5"/>
			<line class="st8" x1="1257.41" y1="608.95" x2="1257.41" y2="626.2"/>
			<line class="st8" x1="1257.41" y1="486" x2="1257.41" y2="579.48"/>
		</g>
		<g id="kV10">
			<line class="st9" x1="179.2" y1="105" x2="205.2" y2="105"/>
			<line class="st9" x1="308.48" y1="105" x2="334.48" y2="105"/>
		</g>
		<g id="kV04">
			<line class="st10" x1="177.7" y1="707.29" x2="235.1" y2="707.29"/>
			<line class="st10" x1="278.39" y1="707.29" x2="335.8" y2="707.29"/>
			<line class="st10" x1="710.68" y1="707.29" x2="768.08" y2="707.29"/>
			<line class="st10" x1="811.37" y1="707.29" x2="868.78" y2="707.29"/>
			<line class="st10" x1="1243.3" y1="707.29" x2="1300.71" y2="707.29"/>
			<line class="st10" x1="1344" y1="707.29" x2="1401.41" y2="707.29"/>
		</g>
	</g>
	<g id="points">
		<g id="kV10_1_">
			<circle class="st11" cx="192.2" cy="105" r="4"/>
			<circle class="st11" cx="321.48" cy="105" r="4"/>
		</g>
		<g id="kV04_1_">
			<circle class="st12" cx="191.8" cy="707.29" r="4"/>
			<circle class="st12" cx="220.8" cy="707.29" r="4"/>
			<circle class="st12" cx="292.5" cy="707.29" r="4"/>
			<circle class="st12" cx="321.5" cy="707.29" r="4"/>
			<circle class="st12" cx="724.78" cy="707.29" r="4"/>
			<circle class="st12" cx="753.78" cy="707.29" r="4"/>
			<circle class="st12" cx="825.48" cy="707.29" r="4"/>
			<circle class="st12" cx="854.48" cy="707.29" r="4"/>
			<circle class="st12" cx="1257.41" cy="707.29" r="4"/>
			<circle class="st12" cx="1286.41" cy="707.29" r="4"/>
			<circle class="st12" cx="1358.11" cy="707.29" r="4"/>
			<circle class="st12" cx="1387.11" cy="707.29" r="4"/>
		</g>
	</g>
	<g id="arc">
		<g>
			<circle cx="192.2" cy="419.67" r="2.5"/>
			<path class="st13" d="M192.2,418.17c0.83,0,1.5,0.67,1.5,1.5s-0.67,1.5-1.5,1.5s-1.5-0.67-1.5-1.5S191.37,418.17,192.2,418.17
				 M192.2,416.17c-1.93,0-3.5,1.57-3.5,3.5s1.57,3.5,3.5,3.5c1.93,0,3.5-1.57,3.5-3.5S194.13,416.17,192.2,416.17L192.2,416.17z"/>
		</g>
		<g>
			<circle cx="321.5" cy="393.67" r="2.5"/>
			<path class="st13" d="M321.5,392.17c0.83,0,1.5,0.67,1.5,1.5s-0.67,1.5-1.5,1.5s-1.5-0.67-1.5-1.5S320.67,392.17,321.5,392.17
				 M321.5,390.17c-1.93,0-3.5,1.57-3.5,3.5s1.57,3.5,3.5,3.5s3.5-1.57,3.5-3.5S323.43,390.17,321.5,390.17L321.5,390.17z"/>
		</g>
		<g>
			<circle cx="192.2" cy="276.5" r="2.5"/>
			<path class="st13" d="M192.2,275c0.83,0,1.5,0.67,1.5,1.5s-0.67,1.5-1.5,1.5s-1.5-0.67-1.5-1.5S191.37,275,192.2,275 M192.2,273
				c-1.93,0-3.5,1.57-3.5,3.5s1.57,3.5,3.5,3.5c1.93,0,3.5-1.57,3.5-3.5S194.13,273,192.2,273L192.2,273z"/>
		</g>
		<g>
			<circle cx="321.5" cy="250.5" r="2.5"/>
			<path class="st13" d="M321.5,249c0.83,0,1.5,0.67,1.5,1.5s-0.67,1.5-1.5,1.5s-1.5-0.67-1.5-1.5S320.67,249,321.5,249 M321.5,247
				c-1.93,0-3.5,1.57-3.5,3.5s1.57,3.5,3.5,3.5s3.5-1.57,3.5-3.5S323.43,247,321.5,247L321.5,247z"/>
		</g>
	</g>
</g>
<g id="elems">
	<g id="resists">
		<g>
			<path class="st1" d="M196.3,510.86v18h-9v-18H196.3 M197.3,509.86h-1h-9h-1v1v18v1h1h9h1v-1v-18V509.86L197.3,509.86z"/>
		</g>
		<g>
			<path class="st1" d="M326,510.86v18h-9v-18H326 M327,509.86h-1h-9h-1v1v18v1h1h9h1v-1v-18V509.86L327,509.86z"/>
		</g>
		<g>
			<path class="st1" d="M729.28,510.86v18h-9v-18H729.28 M730.28,509.86h-1h-9h-1v1v18v1h1h9h1v-1v-18V509.86L730.28,509.86z"/>
		</g>
		<g>
			<path class="st1" d="M858.98,510.86v18h-9v-18H858.98 M859.98,509.86h-1h-9h-1v1v18v1h1h9h1v-1v-18V509.86L859.98,509.86z"/>
		</g>
		<g>
			<path class="st1" d="M1261.91,510.86v18h-9v-18H1261.91 M1262.91,509.86h-1h-9h-1v1v18v1h1h9h1v-1v-18V509.86L1262.91,509.86z"/>
		</g>
		<g>
			<path class="st1" d="M1391.61,510.86v18h-9v-18H1391.61 M1392.61,509.86h-1h-9h-1v1v18v1h1h9h1v-1v-18V509.86L1392.61,509.86z"/>
		</g>
	</g>
	<g id="tt">
		<g>
			<path class="st1" d="M1387.16,589.45c5.38,0,9.75,4.37,9.75,9.75c0,5.38-4.37,9.75-9.75,9.75s-9.75-4.37-9.75-9.75
				C1377.41,593.82,1381.77,589.45,1387.16,589.45 M1387.16,588.45c-5.93,0-10.75,4.82-10.75,10.75s4.82,10.75,10.75,10.75
				s10.75-4.82,10.75-10.75S1393.09,588.45,1387.16,588.45L1387.16,588.45z"/>
		</g>
		<g>
			<path class="st1" d="M1387.15,579.45c0.38,0,0.76,0.02,1.14,0.07c5.35,0.63,9.18,5.47,8.55,10.82c-0.58,4.96-4.79,8.62-9.67,8.62
				c-0.38,0-0.76-0.02-1.14-0.07c-5.35-0.63-9.18-5.47-8.55-10.82C1378.06,583.11,1382.27,579.45,1387.15,579.45 M1387.15,578.45
				c-5.45,0-10.03,4.08-10.66,9.5c-0.69,5.89,3.54,11.24,9.43,11.92c0.42,0.05,0.84,0.07,1.26,0.07c5.45,0,10.03-4.08,10.66-9.5
				c0.69-5.89-3.54-11.24-9.43-11.92C1387.99,578.48,1387.56,578.45,1387.15,578.45L1387.15,578.45z"/>
		</g>
		<g>
			<path class="st1" d="M1257.46,589.45c5.38,0,9.75,4.37,9.75,9.75c0,5.38-4.37,9.75-9.75,9.75s-9.75-4.37-9.75-9.75
				C1247.71,593.82,1252.08,589.45,1257.46,589.45 M1257.46,588.45c-5.93,0-10.75,4.82-10.75,10.75s4.82,10.75,10.75,10.75
				c5.93,0,10.75-4.82,10.75-10.75S1263.39,588.45,1257.46,588.45L1257.46,588.45z"/>
		</g>
		<g>
			<path class="st1" d="M1257.45,579.45c0.38,0,0.76,0.02,1.14,0.07c5.35,0.63,9.18,5.47,8.55,10.82c-0.58,4.96-4.79,8.62-9.67,8.62
				c-0.38,0-0.76-0.02-1.14-0.07c-5.35-0.63-9.18-5.47-8.55-10.82C1248.36,583.11,1252.57,579.45,1257.45,579.45 M1257.45,578.45
				c-5.45,0-10.03,4.08-10.66,9.5c-0.69,5.89,3.54,11.24,9.43,11.92c0.42,0.05,0.84,0.07,1.26,0.07c5.45,0,10.03-4.08,10.66-9.5
				c0.69-5.89-3.54-11.24-9.43-11.92C1258.29,578.48,1257.87,578.45,1257.45,578.45L1257.45,578.45z"/>
		</g>
		<g>
			<path class="st1" d="M854.53,589.45c5.38,0,9.75,4.37,9.75,9.75c0,5.38-4.37,9.75-9.75,9.75c-5.38,0-9.75-4.37-9.75-9.75
				C844.78,593.82,849.15,589.45,854.53,589.45 M854.53,588.45c-5.93,0-10.75,4.82-10.75,10.75s4.82,10.75,10.75,10.75
				s10.75-4.82,10.75-10.75S860.46,588.45,854.53,588.45L854.53,588.45z"/>
		</g>
		<g>
			<path class="st1" d="M854.52,579.45c0.38,0,0.76,0.02,1.14,0.07c5.35,0.63,9.18,5.47,8.55,10.82c-0.58,4.96-4.79,8.62-9.67,8.62
				c-0.38,0-0.76-0.02-1.14-0.07c-5.35-0.63-9.18-5.47-8.55-10.82C845.43,583.11,849.64,579.45,854.52,579.45 M854.52,578.45
				c-5.45,0-10.03,4.08-10.66,9.5c-0.69,5.89,3.54,11.24,9.43,11.92c0.42,0.05,0.84,0.07,1.26,0.07c5.45,0,10.03-4.08,10.66-9.5
				c0.69-5.89-3.54-11.24-9.43-11.92C855.36,578.48,854.94,578.45,854.52,578.45L854.52,578.45z"/>
		</g>
		<g>
			<path class="st1" d="M724.83,589.45c5.38,0,9.75,4.37,9.75,9.75c0,5.38-4.37,9.75-9.75,9.75s-9.75-4.37-9.75-9.75
				C715.08,593.82,719.45,589.45,724.83,589.45 M724.83,588.45c-5.93,0-10.75,4.82-10.75,10.75s4.82,10.75,10.75,10.75
				s10.75-4.82,10.75-10.75S730.76,588.45,724.83,588.45L724.83,588.45z"/>
		</g>
		<g>
			<path class="st1" d="M724.82,579.45c0.38,0,0.76,0.02,1.14,0.07c5.35,0.63,9.18,5.47,8.55,10.82c-0.58,4.96-4.79,8.62-9.67,8.62
				c-0.38,0-0.76-0.02-1.14-0.07c-5.35-0.63-9.18-5.47-8.55-10.82C715.73,583.11,719.94,579.45,724.82,579.45 M724.82,578.45
				c-5.45,0-10.03,4.08-10.66,9.5c-0.69,5.89,3.54,11.24,9.43,11.92c0.42,0.05,0.84,0.07,1.26,0.07c5.45,0,10.03-4.08,10.66-9.5
				c0.69-5.89-3.54-11.24-9.43-11.92C725.66,578.48,725.24,578.45,724.82,578.45L724.82,578.45z"/>
		</g>
		<g>
			<path class="st1" d="M321.55,589.45c5.38,0,9.75,4.37,9.75,9.75c0,5.38-4.37,9.75-9.75,9.75c-5.38,0-9.75-4.37-9.75-9.75
				C311.8,593.82,316.17,589.45,321.55,589.45 M321.55,588.45c-5.93,0-10.75,4.82-10.75,10.75s4.82,10.75,10.75,10.75
				c5.93,0,10.75-4.82,10.75-10.75S327.48,588.45,321.55,588.45L321.55,588.45z"/>
		</g>
		<g>
			<path class="st1" d="M321.54,579.45c0.38,0,0.76,0.02,1.14,0.07c5.35,0.63,9.18,5.47,8.55,10.82c-0.58,4.96-4.79,8.62-9.67,8.62
				c-0.38,0-0.76-0.02-1.14-0.07c-5.35-0.63-9.18-5.47-8.55-10.82C312.45,583.11,316.66,579.45,321.54,579.45 M321.54,578.45
				c-5.45,0-10.03,4.08-10.66,9.5c-0.69,5.89,3.54,11.24,9.43,11.92c0.42,0.05,0.84,0.07,1.26,0.07c5.45,0,10.03-4.08,10.66-9.5
				c0.69-5.89-3.54-11.24-9.43-11.92C322.38,578.48,321.96,578.45,321.54,578.45L321.54,578.45z"/>
		</g>
		<g>
			<path class="st1" d="M191.85,589.45c5.38,0,9.75,4.37,9.75,9.75c0,5.38-4.37,9.75-9.75,9.75s-9.75-4.37-9.75-9.75
				C182.1,593.82,186.47,589.45,191.85,589.45 M191.85,588.45c-5.93,0-10.75,4.82-10.75,10.75s4.82,10.75,10.75,10.75
				s10.75-4.82,10.75-10.75S197.78,588.45,191.85,588.45L191.85,588.45z"/>
		</g>
		<g>
			<path class="st1" d="M191.84,579.45c0.38,0,0.76,0.02,1.14,0.07c5.35,0.63,9.18,5.47,8.55,10.82c-0.58,4.96-4.79,8.62-9.67,8.62
				c-0.38,0-0.76-0.02-1.14-0.07c-5.35-0.63-9.18-5.47-8.55-10.82C182.75,583.11,186.96,579.45,191.84,579.45 M191.84,578.45
				c-5.45,0-10.03,4.08-10.66,9.5c-0.69,5.89,3.54,11.24,9.43,11.92c0.42,0.05,0.84,0.07,1.26,0.07c5.45,0,10.03-4.08,10.66-9.5
				c0.69-5.89-3.54-11.24-9.43-11.92C192.68,578.48,192.26,578.45,191.84,578.45L191.84,578.45z"/>
		</g>
	</g>
	<g id="triangles">
		<polygon class="st14" points="321.5,817.09 316.5,808.43 326.5,808.43 		"/>
		<polygon class="st14" points="321.5,929.15 326.5,937.81 316.5,937.81 		"/>
	</g>
	<g id="ads">
		<g>
			<g>
				<path class="st1" d="M321.5,1035.93c5.38,0,9.75,4.37,9.75,9.75c0,5.38-4.37,9.75-9.75,9.75c-5.38,0-9.75-4.37-9.75-9.75
					C311.75,1040.29,316.12,1035.93,321.5,1035.93 M321.5,1034.93c-5.93,0-10.75,4.82-10.75,10.75c0,5.93,4.82,10.75,10.75,10.75
					c5.93,0,10.75-4.82,10.75-10.75C332.25,1039.75,327.43,1034.93,321.5,1034.93L321.5,1034.93z"/>
			</g>
			<path class="st15" d="M328.3,1045.68c0,1.88-1.52,3.4-3.4,3.4c-1.88,0-3.4-1.52-3.4-3.4s-1.52-3.4-3.4-3.4
				c-1.88,0-3.4,1.52-3.4,3.4"/>
		</g>
	</g>
</g>
<g id="helpers">
</g>
</svg>
