<?xml version="1.0" encoding="utf-8"?>
<!-- Generator: Adobe Illustrator 23.0.1, SVG Export Plug-In . SVG Version: 6.00 Build 0)  -->
<svg version="1.1" xmlns="http://www.w3.org/2000/svg" xmlns:xlink="http://www.w3.org/1999/xlink" x="0px" y="0px"
	 viewBox="0 0 2010 532" style="enable-background:new 0 0 2010 532;" xml:space="preserve">
<style type="text/css">
	.st0{fill:#909091;}
	.st1{fill:none;stroke:#000000;stroke-width:0.5;stroke-miterlimit:10;}
	.st2{fill:none;stroke:#6C6E7A;stroke-width:6;stroke-miterlimit:10;}
	.st3{fill:none;stroke:#7030A0;stroke-width:6;stroke-miterlimit:10;}
	.st4{fill:#F5F3F3;stroke:#6C6E7A;stroke-miterlimit:10;}
	.st5{fill:#F5F3F3;stroke:#7030A0;stroke-miterlimit:10;}
	.st6{fill:#F5F3F3;}
	.st7{fill:#EEEEEF;stroke:#6C6E7A;stroke-miterlimit:10;}
	.st8{font-family:'UbuntuCondensed-Regular';}
	.st9{font-size:16px;}
	.st10{font-size:14px;}
	.st11{font-size:20px;}
	.st12{fill:#21282D;}
	.st13{font-size:21px;}
</style>
<g id="SimpleElements">
	<g id="switch-cart-elem">
		
			<image style="overflow:visible;" width="22" height="69" id="id1" xlink:href="../../../elements/switch-cart-elem/pub/default.png"  transform="matrix(1 0 0 1 12.861 115.354)">
		</image>
	</g>
	<g id="switch-elem">
		
			<image style="overflow:visible;" width="22" height="37" id="id2" xlink:href="../../../elements/switch-elem/pub/default.png"  transform="matrix(1 0 0 1 696.5 131.354)">
		</image>
		
			<image style="overflow:visible;" width="22" height="37" id="id3" xlink:href="../../../elements/switch-elem/pub/default.png"  transform="matrix(1 0 0 1 1446.605 131.354)">
		</image>
	</g>
	<g id="multi-tit-elem">
		
			<image style="overflow:visible;" width="134" height="192" id="id4" xlink:href="../../../elements/multi-tit-elem/pub/multi-tit_titcount-6_no-arroworient.png"  transform="matrix(1.0969 0 0 1.0969 11.2791 289.7437)">
		</image>
		
			<image style="overflow:visible;" width="134" height="192" id="id5" xlink:href="../../../elements/multi-tit-elem/pub/multi-tit_titcount-6_no-arroworient.png"  transform="matrix(1.0969 0 0 1.0969 261.2791 289.7437)">
		</image>
		
			<image style="overflow:visible;" width="134" height="192" id="id6" xlink:href="../../../elements/multi-tit-elem/pub/multi-tit_titcount-6_no-arroworient.png"  transform="matrix(1.0969 0 0 1.0969 511.2791 289.7437)">
		</image>
		
			<image style="overflow:visible;" width="134" height="192" id="id7" xlink:href="../../../elements/multi-tit-elem/pub/multi-tit_titcount-6_no-arroworient.png"  transform="matrix(1.0969 0 0 1.0969 761.2791 289.7437)">
		</image>
		
			<image style="overflow:visible;" width="134" height="192" id="id8" xlink:href="../../../elements/multi-tit-elem/pub/multi-tit_titcount-6_no-arroworient.png"  transform="matrix(1.0969 0 0 1.0969 1011.2791 289.7437)">
		</image>
		
			<image style="overflow:visible;" width="134" height="192" id="id9" xlink:href="../../../elements/multi-tit-elem/pub/multi-tit_titcount-6_no-arroworient.png"  transform="matrix(1.0969 0 0 1.0969 1261.2791 289.7437)">
		</image>
		
			<image style="overflow:visible;" width="134" height="192" id="id10" xlink:href="../../../elements/multi-tit-elem/pub/multi-tit_titcount-6_no-arroworient.png"  transform="matrix(1.0969 0 0 1.0969 1511.2161 289.7437)">
		</image>
		
			<image style="overflow:visible;" width="134" height="192" id="id11" xlink:href="../../../elements/multi-tit-elem/pub/multi-tit_titcount-6_no-arroworient.png"  transform="matrix(1.0969 0 0 1.0969 1761.248 289.7437)">
		</image>
	</g>
	<g id="earthing-knife-elem">
		
			<image style="overflow:visible;" width="45" height="18" id="id12" xlink:href="../../../elements/earthing-knife-elem/pub/default.png"  transform="matrix(1 0 0 1 20.611 201)">
		</image>
		
			<image style="overflow:visible;" width="45" height="18" id="id13" xlink:href="../../../elements/earthing-knife-elem/pub/default.png"  transform="matrix(1 0 0 1 204.133 387.637)">
		</image>
		
			<image style="overflow:visible;" width="45" height="18" id="id14" xlink:href="../../../elements/earthing-knife-elem/pub/default.png"  transform="matrix(1 0 0 1 454 387.637)">
		</image>
		
			<image style="overflow:visible;" width="45" height="18" id="id15" xlink:href="../../../elements/earthing-knife-elem/pub/default.png"  transform="matrix(1 0 0 1 704 387.637)">
		</image>
		
			<image style="overflow:visible;" width="45" height="18" id="id16" xlink:href="../../../elements/earthing-knife-elem/pub/default.png"  transform="matrix(1 0 0 1 954.133 387.637)">
		</image>
		
			<image style="overflow:visible;" width="45" height="18" id="id17" xlink:href="../../../elements/earthing-knife-elem/pub/default.png"  transform="matrix(1 0 0 1 1204 387.637)">
		</image>
		
			<image style="overflow:visible;" width="45" height="18" id="id18" xlink:href="../../../elements/earthing-knife-elem/pub/default.png"  transform="matrix(1 0 0 1 1454 387.637)">
		</image>
		
			<image style="overflow:visible;" width="45" height="18" id="id19" xlink:href="../../../elements/earthing-knife-elem/pub/default.png"  transform="matrix(1 0 0 1 1704.1331 387.637)">
		</image>
		
			<image style="overflow:visible;" width="45" height="18" id="id20" xlink:href="../../../elements/earthing-knife-elem/pub/default.png"  transform="matrix(1 0 0 1 1954 387.637)">
		</image>
	</g>
	<g id="disconnector-elem">
		
			<image style="overflow:visible;" width="16" height="11" id="id21" xlink:href="../../../elements/disconnector-elem/pub/default.png"  transform="matrix(0 -1 1 0 202.133 328.637)">
		</image>
		
			<image style="overflow:visible;" width="16" height="11" id="id22" xlink:href="../../../elements/disconnector-elem/pub/default.png"  transform="matrix(0 -1 1 0 202.133 486)">
		</image>
		
			<image style="overflow:visible;" width="16" height="11" id="id23" xlink:href="../../../elements/disconnector-elem/pub/default.png"  transform="matrix(0 -1 1 0 452 328.637)">
		</image>
		
			<image style="overflow:visible;" width="16" height="11" id="id24" xlink:href="../../../elements/disconnector-elem/pub/default.png"  transform="matrix(0 -1 1 0 452 486)">
		</image>
		
			<image style="overflow:visible;" width="16" height="11" id="id25" xlink:href="../../../elements/disconnector-elem/pub/default.png"  transform="matrix(0 -1 1 0 702 328.637)">
		</image>
		
			<image style="overflow:visible;" width="16" height="11" id="id26" xlink:href="../../../elements/disconnector-elem/pub/default.png"  transform="matrix(0 -1 1 0 702 486)">
		</image>
		
			<image style="overflow:visible;" width="16" height="11" id="id27" xlink:href="../../../elements/disconnector-elem/pub/default.png"  transform="matrix(0 -1 1 0 952.133 328.637)">
		</image>
		
			<image style="overflow:visible;" width="16" height="11" id="id28" xlink:href="../../../elements/disconnector-elem/pub/default.png"  transform="matrix(0 -1 1 0 952.133 486)">
		</image>
		
			<image style="overflow:visible;" width="16" height="11" id="id29" xlink:href="../../../elements/disconnector-elem/pub/default.png"  transform="matrix(0 -1 1 0 1202 328.637)">
		</image>
		
			<image style="overflow:visible;" width="16" height="11" id="id30" xlink:href="../../../elements/disconnector-elem/pub/default.png"  transform="matrix(0 -1 1 0 1202 486)">
		</image>
		
			<image style="overflow:visible;" width="16" height="11" id="id31" xlink:href="../../../elements/disconnector-elem/pub/default.png"  transform="matrix(0 -1 1 0 1452 328.637)">
		</image>
		
			<image style="overflow:visible;" width="16" height="11" id="id32" xlink:href="../../../elements/disconnector-elem/pub/default.png"  transform="matrix(0 -1 1 0 1452 486)">
		</image>
		
			<image style="overflow:visible;" width="16" height="11" id="id33" xlink:href="../../../elements/disconnector-elem/pub/default.png"  transform="matrix(0 -1 1 0 1702.1331 328.637)">
		</image>
		
			<image style="overflow:visible;" width="16" height="11" id="id34" xlink:href="../../../elements/disconnector-elem/pub/default.png"  transform="matrix(0 -1 1 0 1702.1331 486)">
		</image>
		
			<image style="overflow:visible;" width="16" height="11" id="id35" xlink:href="../../../elements/disconnector-elem/pub/default.png"  transform="matrix(0 -1 1 0 1952 328.637)">
		</image>
		
			<image style="overflow:visible;" width="16" height="11" id="id36" xlink:href="../../../elements/disconnector-elem/pub/default.png"  transform="matrix(0 -1 1 0 1952 486)">
		</image>
	</g>
</g>
<g id="elems">
	<g id="resists">
		<g>
			<path class="st0" d="M1962,353v18h-9v-18H1962 M1963,352h-1h-9h-1v1v18v1h1h9h1v-1v-18V352L1963,352z"/>
		</g>
		<g>
			<path class="st0" d="M1712.13,353v18h-9v-18H1712.13 M1713.13,352h-1h-9h-1v1v18v1h1h9h1v-1v-18V352L1713.13,352z"/>
		</g>
		<g>
			<path class="st0" d="M1462,353v18h-9v-18H1462 M1463,352h-1h-9h-1v1v18v1h1h9h1v-1v-18V352L1463,352z"/>
		</g>
		<g>
			<path class="st0" d="M1212,353v18h-9v-18H1212 M1213,352h-1h-9h-1v1v18v1h1h9h1v-1v-18V352L1213,352z"/>
		</g>
		<g>
			<path class="st0" d="M962.13,353v18h-9v-18H962.13 M963.13,352h-1h-9h-1v1v18v1h1h9h1v-1v-18V352L963.13,352z"/>
		</g>
		<g>
			<path class="st0" d="M712,353v18h-9v-18H712 M713,352h-1h-9h-1v1v18v1h1h9h1v-1v-18V352L713,352z"/>
		</g>
		<g>
			<path class="st0" d="M462,353v18h-9v-18H462 M463,352h-1h-9h-1v1v18v1h1h9h1v-1v-18V352L463,352z"/>
		</g>
		<g>
			<path class="st0" d="M212.13,353v18h-9v-18H212.13 M213.13,352h-1h-9h-1v1v18v1h1h9h1v-1v-18V352L213.13,352z"/>
		</g>
	</g>
	<g id="tt">
		<g>
			<path class="st0" d="M207.62,431.89c5.38,0,9.75,4.37,9.75,9.75c0,5.38-4.37,9.75-9.75,9.75s-9.75-4.37-9.75-9.75
				C197.87,436.25,202.23,431.89,207.62,431.89 M207.62,430.89c-5.93,0-10.75,4.82-10.75,10.75s4.82,10.75,10.75,10.75
				s10.75-4.82,10.75-10.75S213.54,430.89,207.62,430.89L207.62,430.89z"/>
		</g>
		<g>
			<path class="st0" d="M207.6,421.89c0.38,0,0.76,0.02,1.14,0.07c5.35,0.63,9.18,5.47,8.55,10.82c-0.58,4.96-4.79,8.62-9.67,8.62
				c-0.38,0-0.76-0.02-1.14-0.07c-5.35-0.63-9.18-5.47-8.55-10.82C198.51,425.54,202.72,421.89,207.6,421.89 M207.6,420.89
				c-5.45,0-10.03,4.08-10.66,9.5c-0.33,2.85,0.46,5.66,2.24,7.92c1.78,2.25,4.33,3.68,7.18,4.01c0.42,0.05,0.84,0.07,1.26,0.07
				c5.45,0,10.03-4.08,10.66-9.5c0.69-5.89-3.54-11.24-9.43-11.92C208.45,420.91,208.02,420.89,207.6,420.89L207.6,420.89z"/>
		</g>
		<g>
			<path class="st0" d="M457.48,431.89c5.38,0,9.75,4.37,9.75,9.75c0,5.38-4.37,9.75-9.75,9.75c-5.38,0-9.75-4.37-9.75-9.75
				C447.73,436.25,452.1,431.89,457.48,431.89 M457.48,430.89c-5.93,0-10.75,4.82-10.75,10.75s4.82,10.75,10.75,10.75
				s10.75-4.82,10.75-10.75S463.41,430.89,457.48,430.89L457.48,430.89z"/>
		</g>
		<g>
			<path class="st0" d="M457.47,421.89c0.38,0,0.76,0.02,1.14,0.07c5.35,0.63,9.18,5.47,8.55,10.82c-0.58,4.96-4.79,8.62-9.67,8.62
				c-0.38,0-0.76-0.02-1.14-0.07c-5.35-0.63-9.18-5.47-8.55-10.82C448.38,425.54,452.59,421.89,457.47,421.89 M457.47,420.89
				c-5.45,0-10.03,4.08-10.66,9.5c-0.33,2.85,0.46,5.66,2.24,7.92s4.33,3.68,7.18,4.01c0.42,0.05,0.84,0.07,1.26,0.07
				c5.45,0,10.03-4.08,10.66-9.5c0.69-5.89-3.54-11.24-9.43-11.92C458.31,420.91,457.89,420.89,457.47,420.89L457.47,420.89z"/>
		</g>
		<g>
			<path class="st0" d="M707.48,431.89c5.38,0,9.75,4.37,9.75,9.75c0,5.38-4.37,9.75-9.75,9.75c-5.38,0-9.75-4.37-9.75-9.75
				C697.73,436.25,702.1,431.89,707.48,431.89 M707.48,430.89c-5.93,0-10.75,4.82-10.75,10.75s4.82,10.75,10.75,10.75
				c5.93,0,10.75-4.82,10.75-10.75S713.41,430.89,707.48,430.89L707.48,430.89z"/>
		</g>
		<g>
			<path class="st0" d="M707.47,421.89c0.38,0,0.76,0.02,1.14,0.07c5.35,0.63,9.18,5.47,8.55,10.82c-0.58,4.96-4.79,8.62-9.67,8.62
				c-0.38,0-0.76-0.02-1.14-0.07c-5.35-0.63-9.18-5.47-8.55-10.82C698.38,425.54,702.59,421.89,707.47,421.89 M707.47,420.89
				c-5.45,0-10.03,4.08-10.66,9.5c-0.69,5.89,3.54,11.24,9.43,11.92c0.42,0.05,0.84,0.07,1.26,0.07c5.45,0,10.03-4.08,10.66-9.5
				c0.69-5.89-3.54-11.24-9.43-11.92C708.31,420.91,707.89,420.89,707.47,420.89L707.47,420.89z"/>
		</g>
		<g>
			<path class="st0" d="M957.62,431.89c5.38,0,9.75,4.37,9.75,9.75c0,5.38-4.37,9.75-9.75,9.75c-5.38,0-9.75-4.37-9.75-9.75
				C947.87,436.25,952.23,431.89,957.62,431.89 M957.62,430.89c-5.93,0-10.75,4.82-10.75,10.75s4.82,10.75,10.75,10.75
				s10.75-4.82,10.75-10.75S963.54,430.89,957.62,430.89L957.62,430.89z"/>
		</g>
		<g>
			<path class="st0" d="M957.6,421.89c0.38,0,0.76,0.02,1.14,0.07c5.35,0.63,9.18,5.47,8.55,10.82c-0.58,4.96-4.79,8.62-9.67,8.62
				c-0.38,0-0.76-0.02-1.14-0.07c-5.35-0.63-9.18-5.47-8.55-10.82C948.51,425.54,952.72,421.89,957.6,421.89 M957.6,420.89
				c-5.45,0-10.03,4.08-10.66,9.5c-0.33,2.85,0.46,5.66,2.24,7.92c1.78,2.25,4.33,3.68,7.18,4.01c0.42,0.05,0.84,0.07,1.26,0.07
				c5.45,0,10.03-4.08,10.66-9.5c0.69-5.89-3.54-11.24-9.43-11.92C958.45,420.91,958.02,420.89,957.6,420.89L957.6,420.89z"/>
		</g>
		<g>
			<path class="st0" d="M1207.48,431.89c5.38,0,9.75,4.37,9.75,9.75c0,5.38-4.37,9.75-9.75,9.75s-9.75-4.37-9.75-9.75
				C1197.73,436.25,1202.1,431.89,1207.48,431.89 M1207.48,430.89c-5.93,0-10.75,4.82-10.75,10.75s4.82,10.75,10.75,10.75
				c5.93,0,10.75-4.82,10.75-10.75S1213.41,430.89,1207.48,430.89L1207.48,430.89z"/>
		</g>
		<g>
			<path class="st0" d="M1207.47,421.89c0.38,0,0.76,0.02,1.14,0.07c5.35,0.63,9.18,5.47,8.55,10.82c-0.58,4.96-4.79,8.62-9.67,8.62
				c-0.38,0-0.76-0.02-1.14-0.07c-5.35-0.63-9.18-5.47-8.55-10.82C1198.38,425.54,1202.59,421.89,1207.47,421.89 M1207.47,420.89
				c-5.45,0-10.03,4.08-10.66,9.5c-0.33,2.85,0.46,5.66,2.24,7.92c1.78,2.25,4.33,3.68,7.18,4.01c0.42,0.05,0.84,0.07,1.26,0.07
				c5.45,0,10.03-4.08,10.66-9.5c0.69-5.89-3.54-11.24-9.43-11.92C1208.31,420.91,1207.89,420.89,1207.47,420.89L1207.47,420.89z"/>
		</g>
		<g>
			<path class="st0" d="M1457.48,431.89c5.38,0,9.75,4.37,9.75,9.75c0,5.38-4.37,9.75-9.75,9.75s-9.75-4.37-9.75-9.75
				C1447.73,436.25,1452.1,431.89,1457.48,431.89 M1457.48,430.89c-5.93,0-10.75,4.82-10.75,10.75s4.82,10.75,10.75,10.75
				s10.75-4.82,10.75-10.75S1463.41,430.89,1457.48,430.89L1457.48,430.89z"/>
		</g>
		<g>
			<path class="st0" d="M1457.47,421.89c0.38,0,0.76,0.02,1.14,0.07c5.35,0.63,9.18,5.47,8.55,10.82c-0.58,4.96-4.79,8.62-9.67,8.62
				c-0.38,0-0.76-0.02-1.14-0.07c-5.35-0.63-9.18-5.47-8.55-10.82C1448.38,425.54,1452.59,421.89,1457.47,421.89 M1457.47,420.89
				c-5.45,0-10.03,4.08-10.66,9.5c-0.33,2.85,0.46,5.66,2.24,7.92c1.78,2.25,4.33,3.68,7.18,4.01c0.42,0.05,0.84,0.07,1.26,0.07
				c5.45,0,10.03-4.08,10.66-9.5c0.69-5.89-3.54-11.24-9.43-11.92C1458.31,420.91,1457.89,420.89,1457.47,420.89L1457.47,420.89z"/>
		</g>
		<g>
			<path class="st0" d="M1707.62,431.89c5.38,0,9.75,4.37,9.75,9.75c0,5.38-4.37,9.75-9.75,9.75s-9.75-4.37-9.75-9.75
				C1697.87,436.25,1702.23,431.89,1707.62,431.89 M1707.62,430.89c-5.93,0-10.75,4.82-10.75,10.75s4.82,10.75,10.75,10.75
				s10.75-4.82,10.75-10.75S1713.54,430.89,1707.62,430.89L1707.62,430.89z"/>
		</g>
		<g>
			<path class="st0" d="M1707.6,421.89c0.38,0,0.76,0.02,1.14,0.07c5.35,0.63,9.18,5.47,8.55,10.82c-0.58,4.96-4.79,8.62-9.67,8.62
				c-0.38,0-0.76-0.02-1.14-0.07c-5.35-0.63-9.18-5.47-8.55-10.82C1698.51,425.54,1702.72,421.89,1707.6,421.89 M1707.6,420.89
				c-5.45,0-10.03,4.08-10.66,9.5c-0.33,2.85,0.46,5.66,2.24,7.92c1.78,2.25,4.33,3.68,7.18,4.01c0.42,0.05,0.84,0.07,1.26,0.07
				c5.45,0,10.03-4.08,10.66-9.5c0.69-5.89-3.54-11.24-9.43-11.92C1708.45,420.91,1708.02,420.89,1707.6,420.89L1707.6,420.89z"/>
		</g>
		<g>
			<path class="st0" d="M1957.48,431.89c5.38,0,9.75,4.37,9.75,9.75c0,5.38-4.37,9.75-9.75,9.75s-9.75-4.37-9.75-9.75
				C1947.73,436.25,1952.1,431.89,1957.48,431.89 M1957.48,430.89c-5.93,0-10.75,4.82-10.75,10.75s4.82,10.75,10.75,10.75
				s10.75-4.82,10.75-10.75S1963.41,430.89,1957.48,430.89L1957.48,430.89z"/>
		</g>
		<g>
			<path class="st0" d="M1957.47,421.89c0.38,0,0.76,0.02,1.14,0.07c5.35,0.63,9.18,5.47,8.55,10.82c-0.58,4.96-4.79,8.62-9.67,8.62
				c-0.38,0-0.76-0.02-1.14-0.07c-5.35-0.63-9.18-5.47-8.55-10.82C1948.38,425.54,1952.59,421.89,1957.47,421.89 M1957.47,420.89
				c-5.45,0-10.03,4.08-10.66,9.5c-0.33,2.85,0.46,5.66,2.24,7.92c1.78,2.25,4.33,3.68,7.18,4.01c0.42,0.05,0.84,0.07,1.26,0.07
				c5.45,0,10.03-4.08,10.66-9.5c0.69-5.89-3.54-11.24-9.43-11.92C1958.31,420.91,1957.89,420.89,1957.47,420.89L1957.47,420.89z"/>
		</g>
	</g>
</g>
<g id="lines">
	<g id="pipes">
		<g id="lep">
			<line class="st1" x1="1957.5" y1="485.5" x2="1957.5" y2="496.5"/>
			<line class="st1" x1="1957.5" y1="451.39" x2="1957.5" y2="470.5"/>
			<line class="st1" x1="1957.5" y1="232.5" x2="1957.5" y2="313.14"/>
			<line class="st1" x1="1957.5" y1="328.14" x2="1957.5" y2="421.89"/>
			<line class="st1" x1="1707.63" y1="485.5" x2="1707.63" y2="496.5"/>
			<line class="st1" x1="1707.63" y1="451.39" x2="1707.63" y2="470.5"/>
			<line class="st1" x1="1707.63" y1="232.5" x2="1707.63" y2="313.14"/>
			<line class="st1" x1="1707.63" y1="328.14" x2="1707.63" y2="421.89"/>
			<line class="st1" x1="1457.5" y1="485.5" x2="1457.5" y2="496.5"/>
			<line class="st1" x1="1457.5" y1="451.39" x2="1457.5" y2="470.5"/>
			<line class="st1" x1="1457.5" y1="86.53" x2="1457.5" y2="313.14"/>
			<line class="st1" x1="1457.5" y1="328.14" x2="1457.5" y2="421.89"/>
			<line class="st1" x1="1207.5" y1="485.5" x2="1207.5" y2="496.5"/>
			<line class="st1" x1="1207.5" y1="451.39" x2="1207.5" y2="470.5"/>
			<line class="st1" x1="1207.5" y1="328.14" x2="1207.5" y2="421.89"/>
			<line class="st1" x1="957.63" y1="485.5" x2="957.63" y2="496.5"/>
			<line class="st1" x1="957.63" y1="451.39" x2="957.63" y2="470.5"/>
			<line class="st1" x1="957.63" y1="232.5" x2="957.63" y2="313.14"/>
			<line class="st1" x1="957.63" y1="328.14" x2="957.63" y2="421.89"/>
			<line class="st1" x1="707.5" y1="485.5" x2="707.5" y2="496.5"/>
			<line class="st1" x1="707.5" y1="451.39" x2="707.5" y2="470.5"/>
			<line class="st1" x1="707.5" y1="86.51" x2="707.5" y2="313.14"/>
			<line class="st1" x1="707.5" y1="328.14" x2="707.5" y2="421.89"/>
			<line class="st1" x1="457.5" y1="485.5" x2="457.5" y2="496.5"/>
			<line class="st1" x1="457.5" y1="451.39" x2="457.5" y2="470.5"/>
			<line class="st1" x1="457.5" y1="86.5" x2="457.5" y2="313.14"/>
			<line class="st1" x1="457.5" y1="328.14" x2="457.5" y2="421.89"/>
			<line class="st1" x1="207.63" y1="485.5" x2="207.63" y2="496.5"/>
			<line class="st1" x1="207.63" y1="451.39" x2="207.63" y2="470.5"/>
			<line class="st1" x1="207.63" y1="232.5" x2="207.63" y2="313.14"/>
			<line class="st1" x1="207.63" y1="328.14" x2="207.63" y2="421.89"/>
			<line class="st1" x1="23.86" y1="90.5" x2="23.86" y2="115.35"/>
			<line class="st1" x1="1957.5" y1="232.56" x2="1457.5" y2="232.5"/>
			<polyline class="st1" points="707.5,232.5 1207.5,232.56 1207.5,313.14 			"/>
			<polyline class="st1" points="457.5,232.56 23.86,232.5 23.86,90.46 			"/>
			<line class="st1" x1="1457.5" y1="86.56" x2="457.5" y2="86.5"/>
		</g>
		<g id="kV04_1_">
			<line class="st2" x1="1943" y1="500.5" x2="1972" y2="500.5"/>
			<line class="st2" x1="1693.13" y1="500.5" x2="1722.13" y2="500.5"/>
			<line class="st2" x1="1443" y1="500.5" x2="1472" y2="500.5"/>
			<line class="st2" x1="1193" y1="500.5" x2="1222" y2="500.5"/>
			<line class="st2" x1="943.13" y1="500.5" x2="972.13" y2="500.5"/>
			<line class="st2" x1="693" y1="500.5" x2="722" y2="500.5"/>
			<line class="st2" x1="443" y1="500.5" x2="472" y2="500.5"/>
			<line class="st2" x1="193.13" y1="500.5" x2="222.13" y2="500.5"/>
		</g>
		<g id="kV10_1_">
			<line class="st3" x1="10.86" y1="86.5" x2="36.86" y2="86.5"/>
		</g>
	</g>
	<g id="points">
		<g id="kV04">
			<circle class="st4" cx="1957.5" cy="500.5" r="4"/>
			<circle class="st4" cx="1707.63" cy="500.5" r="4"/>
			<circle class="st4" cx="1457.5" cy="500.5" r="4"/>
			<circle class="st4" cx="1207.5" cy="500.5" r="4"/>
			<circle class="st4" cx="957.63" cy="500.5" r="4"/>
			<circle class="st4" cx="707.5" cy="500.5" r="4"/>
			<circle class="st4" cx="457.5" cy="500.5" r="4"/>
			<circle class="st4" cx="207.63" cy="500.5" r="4"/>
		</g>
		<g id="kV10">
			<circle class="st5" cx="23.86" cy="86.5" r="4"/>
		</g>
	</g>
	<g id="arc">
		<g>
			<circle cx="207.63" cy="232.56" r="2.5"/>
			<path class="st6" d="M207.63,231.06c0.83,0,1.5,0.67,1.5,1.5s-0.67,1.5-1.5,1.5s-1.5-0.67-1.5-1.5S206.8,231.06,207.63,231.06
				 M207.63,229.06c-1.93,0-3.5,1.57-3.5,3.5c0,1.93,1.57,3.5,3.5,3.5c1.93,0,3.5-1.57,3.5-3.5
				C211.13,230.63,209.56,229.06,207.63,229.06L207.63,229.06z"/>
		</g>
		<g>
			<circle cx="457.5" cy="232.56" r="2.5"/>
			<path class="st6" d="M457.5,231.06c0.83,0,1.5,0.67,1.5,1.5s-0.67,1.5-1.5,1.5s-1.5-0.67-1.5-1.5S456.67,231.06,457.5,231.06
				 M457.5,229.06c-1.93,0-3.5,1.57-3.5,3.5c0,1.93,1.57,3.5,3.5,3.5s3.5-1.57,3.5-3.5C461,230.63,459.43,229.06,457.5,229.06
				L457.5,229.06z"/>
		</g>
		<g>
			<circle cx="707.5" cy="232.56" r="2.5"/>
			<path class="st6" d="M707.5,231.06c0.83,0,1.5,0.67,1.5,1.5s-0.67,1.5-1.5,1.5s-1.5-0.67-1.5-1.5S706.67,231.06,707.5,231.06
				 M707.5,229.06c-1.93,0-3.5,1.57-3.5,3.5c0,1.93,1.57,3.5,3.5,3.5s3.5-1.57,3.5-3.5C711,230.63,709.43,229.06,707.5,229.06
				L707.5,229.06z"/>
		</g>
		<g>
			<circle cx="957.63" cy="232.56" r="2.5"/>
			<path class="st6" d="M957.63,231.06c0.83,0,1.5,0.67,1.5,1.5s-0.67,1.5-1.5,1.5s-1.5-0.67-1.5-1.5S956.8,231.06,957.63,231.06
				 M957.63,229.06c-1.93,0-3.5,1.57-3.5,3.5c0,1.93,1.57,3.5,3.5,3.5s3.5-1.57,3.5-3.5C961.13,230.63,959.56,229.06,957.63,229.06
				L957.63,229.06z"/>
		</g>
		<g>
			<circle cx="707.5" cy="86.51" r="2.5"/>
			<path class="st6" d="M707.5,85.01c0.83,0,1.5,0.67,1.5,1.5s-0.67,1.5-1.5,1.5s-1.5-0.67-1.5-1.5S706.67,85.01,707.5,85.01
				 M707.5,83.01c-1.93,0-3.5,1.57-3.5,3.5s1.57,3.5,3.5,3.5s3.5-1.57,3.5-3.5S709.43,83.01,707.5,83.01L707.5,83.01z"/>
		</g>
		<g>
			<circle cx="1457.5" cy="232.71" r="2.5"/>
			<path class="st6" d="M1457.5,231.21c0.83,0,1.5,0.67,1.5,1.5c0,0.83-0.67,1.5-1.5,1.5s-1.5-0.67-1.5-1.5
				C1456,231.88,1456.67,231.21,1457.5,231.21 M1457.5,229.21c-1.93,0-3.5,1.57-3.5,3.5c0,1.93,1.57,3.5,3.5,3.5s3.5-1.57,3.5-3.5
				C1461,230.78,1459.43,229.21,1457.5,229.21L1457.5,229.21z"/>
		</g>
		<g>
			<circle cx="1707.63" cy="232.5" r="2.5"/>
			<path class="st6" d="M1707.63,231c0.83,0,1.5,0.67,1.5,1.5s-0.67,1.5-1.5,1.5c-0.83,0-1.5-0.67-1.5-1.5S1706.8,231,1707.63,231
				 M1707.63,229c-1.93,0-3.5,1.57-3.5,3.5s1.57,3.5,3.5,3.5s3.5-1.57,3.5-3.5S1709.56,229,1707.63,229L1707.63,229z"/>
		</g>
	</g>
</g>
<g id="tables">
	<g id="rect">
		<path class="st7" d="M1436.31,54.57V14.87c-0.01-2.66-2.22-4.83-4.91-4.82l-851.14,0.27c-2.7,0.01-4.9,2.19-4.89,4.84l0.02,6.24
			l0.04,32.82c0.01,2.66,2.22,4.83,4.91,4.82l851.14-0.27c2.7-0.01,4.9-2.19,4.89-4.84L1436.31,54.57z"/>
	</g>
	<g id="text">
		<g id="elem-text">
			<text transform="matrix(1 0 0 1 1972.7644 442.9904)" class="st0 st8 st9">Т1</text>
			<text transform="matrix(1 0 0 1 1722.8975 442.9904)" class="st0 st8 st9">Т1</text>
			<text transform="matrix(1 0 0 1 1472.7645 442.9904)" class="st0 st8 st9">Т1</text>
			<text transform="matrix(1 0 0 1 1222.7644 442.9904)" class="st0 st8 st9">Т1</text>
			<text transform="matrix(1 0 0 1 972.8975 442.9904)" class="st0 st8 st9">Т1</text>
			<text transform="matrix(1 0 0 1 722.7645 442.9904)" class="st0 st8 st9">Т1</text>
			<text transform="matrix(1 0 0 1 472.7645 442.9904)" class="st0 st8 st9">Т1</text>
			<text transform="matrix(1 0 0 1 222.8975 442.9904)" class="st0 st8 st9">Т1</text>
		</g>
		<g id="subtitles">
			<text transform="matrix(1 0 0 1 1968.3438 482.5474)" class="st0 st8 st10">1ВВ</text>
			<text transform="matrix(1 0 0 1 1968.3125 325.6372)" class="st0 st8 st10">УВН1</text>
			<text transform="matrix(1 0 0 1 1944.3123 519.0464)" class="st0 st8 st10">С-0,4</text>
			<text transform="matrix(1 0 0 1 1718.4768 482.5474)" class="st0 st8 st10">1ВВ</text>
			<text transform="matrix(1 0 0 1 1718.4456 325.6372)" class="st0 st8 st10">УВН1</text>
			<text transform="matrix(1 0 0 1 1694.4453 519.0464)" class="st0 st8 st10">С-0,4</text>
			<text transform="matrix(1 0 0 1 1468.3439 482.5474)" class="st0 st8 st10">1ВВ</text>
			<text transform="matrix(1 0 0 1 1468.3126 325.6372)" class="st0 st8 st10">УВН1</text>
			<text transform="matrix(1 0 0 1 1444.3124 519.0464)" class="st0 st8 st10">С-0,4</text>
			<text transform="matrix(1 0 0 1 1218.3438 482.5474)" class="st0 st8 st10">1ВВ</text>
			<text transform="matrix(1 0 0 1 1218.3125 325.6372)" class="st0 st8 st10">УВН1</text>
			<text transform="matrix(1 0 0 1 1194.3123 519.0464)" class="st0 st8 st10">С-0,4</text>
			<text transform="matrix(1 0 0 1 968.4768 482.5474)" class="st0 st8 st10">1ВВ</text>
			<text transform="matrix(1 0 0 1 968.4456 325.6372)" class="st0 st8 st10">УВН1</text>
			<text transform="matrix(1 0 0 1 944.4453 519.0464)" class="st0 st8 st10">С-0,4</text>
			<text transform="matrix(1 0 0 1 718.3438 482.5474)" class="st0 st8 st10">1ВВ</text>
			<text transform="matrix(1 0 0 1 718.3126 325.6372)" class="st0 st8 st10">УВН1</text>
			<text transform="matrix(1 0 0 1 694.3123 519.0464)" class="st0 st8 st10">С-0,4</text>
			<text transform="matrix(1 0 0 1 468.3438 482.5474)" class="st0 st8 st10">1ВВ</text>
			<text transform="matrix(1 0 0 1 468.3126 325.6372)" class="st0 st8 st10">УВН1</text>
			<text transform="matrix(1 0 0 1 444.3123 519.0464)" class="st0 st8 st10">С-0,4</text>
			<text transform="matrix(1 0 0 1 218.4768 482.5474)" class="st0 st8 st10">1ВВ</text>
			<text transform="matrix(1 0 0 1 218.4456 325.6372)" class="st0 st8 st10">УВН1</text>
			<text transform="matrix(1 0 0 1 194.4453 519.0464)" class="st0 st8 st10">С-0,4</text>
			<text transform="matrix(1 0 0 1 10.0559 77.5)" class="st0 st8 st10">2С-10</text>
		</g>
		<g id="titles">
			<text transform="matrix(1 0 0 1 35.5228 268.9764)" class="st0 st8 st11">ТП-5КП-УЗОУ</text>
			<text transform="matrix(1 0 0 1 559.6525 268.9764)" class="st0 st8 st11">ТП-514</text>
			<text transform="matrix(1 0 0 1 809.6526 268.9764)" class="st0 st8 st11">ТП-513</text>
			<text transform="matrix(1 0 0 1 1059.6526 268.9764)" class="st0 st8 st11">ТП-525</text>
			<text transform="matrix(1 0 0 1 1309.6527 268.9764)" class="st0 st8 st11">ТП-519</text>
			<text transform="matrix(1 0 0 1 1803.1411 268.9764)" class="st0 st8 st11">ТП-5КП2</text>
			<text transform="matrix(1 0 0 1 1559.59 268.9764)" class="st0 st8 st11">ТП-520</text>
			<text transform="matrix(1 0 0 1 45.7122 156.1792)" class="st0 st8 st11">24</text>
			<text transform="matrix(1 0 0 1 81.2113 82.9764)" class="st0 st8 st11">РУ-10кВ</text>
			<text transform="matrix(1 0 0 1 728.8188 156.9764)" class="st0 st8 st11">2Р-514</text>
			<text transform="matrix(1 0 0 1 1478.6993 156.9764)" class="st0 st8 st11">4Р-5КП</text>
			<text transform="matrix(1 0 0 1 303.1725 268.9764)" class="st0 st8 st11">ТП-5КП1</text>
		</g>
		<g id="main">
			<g>
				<text transform="matrix(1 -2.470000e-03 2.470000e-03 1 719.5833 44.2331)" class="st12 st8 st13">Электроснабжение КГС, конденсаторопровод ГП-51 от 2С-10кВ РУ-10кВ</text>
			</g>
		</g>
	</g>
</g>
<g id="helpers">
</g>
</svg>
