<?xml version="1.0" encoding="utf-8"?>
<!-- Generator: Adobe Illustrator 23.0.1, SVG Export Plug-In . SVG Version: 6.00 Build 0)  -->
<svg version="1.1" xmlns="http://www.w3.org/2000/svg" xmlns:xlink="http://www.w3.org/1999/xlink" x="0px" y="0px"
	 viewBox="0 0 2064 681" style="enable-background:new 0 0 2064 681;" xml:space="preserve">
<style type="text/css">
	.st0{fill:#909091;}
	.st1{fill-rule:evenodd;clip-rule:evenodd;fill:none;stroke:#000000;stroke-width:0.5;stroke-miterlimit:10;}
	.st2{fill-rule:evenodd;clip-rule:evenodd;fill:none;stroke:#909091;stroke-miterlimit:10;}
	.st3{fill:none;stroke:#000000;stroke-width:0.5;stroke-miterlimit:10;}
	.st4{fill:none;stroke:#6C6E7A;stroke-width:6;stroke-miterlimit:10;}
	.st5{fill:#F5F3F3;stroke:#6C6E7A;stroke-miterlimit:10;}
	.st6{fill:#EEEEEF;stroke:#6C6E7A;stroke-miterlimit:10;}
	.st7{font-family:'UbuntuCondensed-Regular';}
	.st8{font-size:16px;}
	.st9{font-size:12px;}
	.st10{font-size:14px;}
	.st11{font-size:20px;}
	.st12{font-size:19.9896px;}
	.st13{fill:#21282D;}
	.st14{font-size:21px;}
</style>
<g id="SimpleElements">
	<g id="multi-tit-elem">
		
			<image style="overflow:visible;" width="134" height="225" id="id1" xlink:href="../../../elements/multi-tit-elem/pub/multi-tit_titcount-7_no-arroworient.png"  transform="matrix(1.1071 0 0 1.1071 356.8264 120.4547)">
		</image>
		
			<image style="overflow:visible;" width="134" height="225" id="id2" xlink:href="../../../elements/multi-tit-elem/pub/multi-tit_titcount-7_no-arroworient.png"  transform="matrix(1.1071 0 0 1.1071 518.8264 120.4547)">
		</image>
		
			<image style="overflow:visible;" width="134" height="225" id="id3" xlink:href="../../../elements/multi-tit-elem/pub/multi-tit_titcount-7_no-arroworient.png"  transform="matrix(1.1071 0 0 1.1071 876.8264 120.4547)">
		</image>
		
			<image style="overflow:visible;" width="134" height="225" id="id4" xlink:href="../../../elements/multi-tit-elem/pub/multi-tit_titcount-7_no-arroworient.png"  transform="matrix(1.1071 0 0 1.1071 1040.1194 120.4547)">
		</image>
		
			<image style="overflow:visible;" width="134" height="225" id="id5" xlink:href="../../../elements/multi-tit-elem/pub/multi-tit_titcount-7_no-arroworient.png"  transform="matrix(1.1071 0 0 1.1071 1397.8264 120.4547)">
		</image>
		
			<image style="overflow:visible;" width="134" height="225" id="id6" xlink:href="../../../elements/multi-tit-elem/pub/multi-tit_titcount-7_no-arroworient.png"  transform="matrix(1.1071 0 0 1.1071 1559.8264 120.4547)">
		</image>
		
			<image style="overflow:visible;" width="134" height="264" id="id7" xlink:href="../../../elements/multi-tit-elem/pub/multi-tit_titcount-8_no-arroworient.png"  transform="matrix(1.0939 0 0 1.0939 519.7094 386.6065)">
		</image>
		
			<image style="overflow:visible;" width="134" height="264" id="id8" xlink:href="../../../elements/multi-tit-elem/pub/multi-tit_titcount-8_no-arroworient.png"  transform="matrix(1.0939 0 0 1.0939 1040.7094 386.6065)">
		</image>
		
			<image style="overflow:visible;" width="134" height="264" id="id9" xlink:href="../../../elements/multi-tit-elem/pub/multi-tit_titcount-8_no-arroworient.png"  transform="matrix(1.0939 0 0 1.0939 1560.7094 386.6065)">
		</image>
		
			<image style="overflow:visible;" width="134" height="225" id="id10" xlink:href="../../../elements/multi-tit-elem/pub/multi-tit_titcount-7_no-arroworient.png"  transform="matrix(1.1071 0 0 1.1071 1917.8264 120.4547)">
		</image>
		
			<image style="overflow:visible;" width="134" height="225" id="id11" xlink:href="../../../elements/multi-tit-elem/pub/multi-tit_titcount-7_no-arroworient.png"  transform="matrix(1.1071 0 0 1.1071 -1.1736 120.4547)">
		</image>
		
			<image style="overflow:visible;" width="134" height="264" id="id12" xlink:href="../../../elements/multi-tit-elem/pub/multi-tit_titcount-8_no-arroworient.png"  transform="matrix(1.0939 0 0 1.0939 -0.2906 386.6065)">
		</image>
	</g>
	<g id="earthing-knife-elem">
		
			<image style="overflow:visible;" width="45" height="18" id="id13" xlink:href="../../../elements/earthing-knife-elem/pub/default.png"  transform="matrix(1 0 0 1 193.5 219.5)">
		</image>
		
			<image style="overflow:visible;" width="45" height="18" id="id14" xlink:href="../../../elements/earthing-knife-elem/pub/default.png"  transform="matrix(1 0 0 1 311.442 219.5)">
		</image>
		
			<image style="overflow:visible;" width="45" height="18" id="id15" xlink:href="../../../elements/earthing-knife-elem/pub/default.png"  transform="matrix(1 0 0 1 713.5 219.5)">
		</image>
		
			<image style="overflow:visible;" width="45" height="18" id="id16" xlink:href="../../../elements/earthing-knife-elem/pub/default.png"  transform="matrix(1 0 0 1 831.442 219.5)">
		</image>
		
			<image style="overflow:visible;" width="45" height="18" id="id17" xlink:href="../../../elements/earthing-knife-elem/pub/default.png"  transform="matrix(1 0 0 1 1234.833 219.5)">
		</image>
		
			<image style="overflow:visible;" width="45" height="18" id="id18" xlink:href="../../../elements/earthing-knife-elem/pub/default.png"  transform="matrix(1 0 0 1 1352.776 219.5)">
		</image>
		
			<image style="overflow:visible;" width="45" height="18" id="id19" xlink:href="../../../elements/earthing-knife-elem/pub/default.png"  transform="matrix(1 0 0 1 1754.5 219.5)">
		</image>
		
			<image style="overflow:visible;" width="45" height="18" id="id20" xlink:href="../../../elements/earthing-knife-elem/pub/default.png"  transform="matrix(1 0 0 1 1872.442 219.5)">
		</image>
	</g>
	<g id="disconnector-cart-elem">
		
			<image style="overflow:visible;" width="14" height="58" id="id21" xlink:href="../../../elements/disconnector-cart-elem/pub/default.png"  transform="matrix(1 0 0 1 187.5 287.797)">
		</image>
		
			<image style="overflow:visible;" width="14" height="58" id="id22" xlink:href="../../../elements/disconnector-cart-elem/pub/default.png"  transform="matrix(1 0 0 1 305.442 287.797)">
		</image>
		
			<image style="overflow:visible;" width="14" height="58" id="id23" xlink:href="../../../elements/disconnector-cart-elem/pub/default.png"  transform="matrix(1 0 0 1 327.5 394.265)">
		</image>
		
			<image style="overflow:visible;" width="14" height="58" id="id24" xlink:href="../../../elements/disconnector-cart-elem/pub/default.png"  transform="matrix(1 0 0 1 327.5 575.339)">
		</image>
		
			<image style="overflow:visible;" width="14" height="58" id="id25" xlink:href="../../../elements/disconnector-cart-elem/pub/default.png"  transform="matrix(1 0 0 1 707.5 287.797)">
		</image>
		
			<image style="overflow:visible;" width="14" height="58" id="id26" xlink:href="../../../elements/disconnector-cart-elem/pub/default.png"  transform="matrix(1 0 0 1 825.442 287.797)">
		</image>
		
			<image style="overflow:visible;" width="14" height="58" id="id27" xlink:href="../../../elements/disconnector-cart-elem/pub/default.png"  transform="matrix(1 0 0 1 847.5 394.265)">
		</image>
		
			<image style="overflow:visible;" width="14" height="58" id="id28" xlink:href="../../../elements/disconnector-cart-elem/pub/default.png"  transform="matrix(1 0 0 1 847.5 575.339)">
		</image>
		
			<image style="overflow:visible;" width="14" height="58" id="id29" xlink:href="../../../elements/disconnector-cart-elem/pub/default.png"  transform="matrix(1 0 0 1 1228.833 287.797)">
		</image>
		
			<image style="overflow:visible;" width="14" height="58" id="id30" xlink:href="../../../elements/disconnector-cart-elem/pub/default.png"  transform="matrix(1 0 0 1 1346.776 287.797)">
		</image>
		
			<image style="overflow:visible;" width="14" height="58" id="id31" xlink:href="../../../elements/disconnector-cart-elem/pub/default.png"  transform="matrix(1 0 0 1 1368.833 394.265)">
		</image>
		
			<image style="overflow:visible;" width="14" height="58" id="id32" xlink:href="../../../elements/disconnector-cart-elem/pub/default.png"  transform="matrix(1 0 0 1 1368.833 575.339)">
		</image>
		
			<image style="overflow:visible;" width="14" height="58" id="id33" xlink:href="../../../elements/disconnector-cart-elem/pub/default.png"  transform="matrix(1 0 0 1 1748.5 287.797)">
		</image>
		
			<image style="overflow:visible;" width="14" height="58" id="id34" xlink:href="../../../elements/disconnector-cart-elem/pub/default.png"  transform="matrix(1 0 0 1 1866.442 287.797)">
		</image>
		
			<image style="overflow:visible;" width="14" height="58" id="id35" xlink:href="../../../elements/disconnector-cart-elem/pub/default.png"  transform="matrix(1 0 0 1 1888.5 394.265)">
		</image>
		
			<image style="overflow:visible;" width="14" height="58" id="id36" xlink:href="../../../elements/disconnector-cart-elem/pub/default.png"  transform="matrix(1 0 0 1 1888.5 575.339)">
		</image>
		
			<image style="overflow:visible;" width="14" height="58" id="id37" xlink:href="../../../elements/disconnector-cart-elem/pub/default.png"  transform="matrix(0 1 -1 0 283 337.5)">
		</image>
		
			<image style="overflow:visible;" width="14" height="58" id="id38" xlink:href="../../../elements/disconnector-cart-elem/pub/default.png"  transform="matrix(0 1 -1 0 802.5 337.5)">
		</image>
		
			<image style="overflow:visible;" width="14" height="58" id="id39" xlink:href="../../../elements/disconnector-cart-elem/pub/default.png"  transform="matrix(0 1 -1 0 1323.833 337.5)">
		</image>
		
			<image style="overflow:visible;" width="14" height="58" id="id40" xlink:href="../../../elements/disconnector-cart-elem/pub/default.png"  transform="matrix(0 1 -1 0 1843.5 337.5)">
		</image>
	</g>
	<g id="disconnector-elem">
		
			<image style="overflow:visible;" width="16" height="11" id="id41" xlink:href="../../../elements/disconnector-elem/pub/default.png"  transform="matrix(0 -1 1 0 189 179)">
		</image>
		
			<image style="overflow:visible;" width="16" height="11" id="id42" xlink:href="../../../elements/disconnector-elem/pub/default.png"  transform="matrix(0 -1 1 0 306.942 179)">
		</image>
		
			<image style="overflow:visible;" width="16" height="11" id="id43" xlink:href="../../../elements/disconnector-elem/pub/default.png"  transform="matrix(0 -1 1 0 709 179)">
		</image>
		
			<image style="overflow:visible;" width="16" height="11" id="id44" xlink:href="../../../elements/disconnector-elem/pub/default.png"  transform="matrix(0 -1 1 0 826.942 179)">
		</image>
		
			<image style="overflow:visible;" width="16" height="11" id="id45" xlink:href="../../../elements/disconnector-elem/pub/default.png"  transform="matrix(0 -1 1 0 1750 179)">
		</image>
		
			<image style="overflow:visible;" width="16" height="11" id="id46" xlink:href="../../../elements/disconnector-elem/pub/default.png"  transform="matrix(0 -1 1 0 1867.942 179)">
		</image>
		
			<image style="overflow:visible;" width="16" height="11" id="id47" xlink:href="../../../elements/disconnector-elem/pub/default.png"  transform="matrix(0 -1 1 0 1230.333 179)">
		</image>
		
			<image style="overflow:visible;" width="16" height="11" id="id48" xlink:href="../../../elements/disconnector-elem/pub/default.png"  transform="matrix(0 -1 1 0 1348.276 179)">
		</image>
	</g>
</g>
<g id="elems">
	<g id="resists">
		<g>
			<path class="st0" d="M199,194.34v18h-9v-18H199 M200,193.34h-1h-9h-1v1v18v1h1h9h1v-1v-18V193.34L200,193.34z"/>
		</g>
		<g>
			<path class="st0" d="M316.94,194.34v18h-9v-18H316.94 M317.94,193.34h-1h-9h-1v1v18v1h1h9h1v-1v-18V193.34L317.94,193.34z"/>
		</g>
		<g>
			<path class="st0" d="M719,194.34v18h-9v-18H719 M720,193.34h-1h-9h-1v1v18v1h1h9h1v-1v-18V193.34L720,193.34z"/>
		</g>
		<g>
			<path class="st0" d="M836.94,194.34v18h-9v-18H836.94 M837.94,193.34h-1h-9h-1v1v18v1h1h9h1v-1v-18V193.34L837.94,193.34z"/>
		</g>
		<g>
			<path class="st0" d="M1240.33,194.34v18h-9v-18H1240.33 M1241.33,193.34h-1h-9h-1v1v18v1h1h9h1v-1v-18V193.34L1241.33,193.34z"/>
		</g>
		<g>
			<path class="st0" d="M1358.28,194.34v18h-9v-18H1358.28 M1359.28,193.34h-1h-9h-1v1v18v1h1h9h1v-1v-18V193.34L1359.28,193.34z"/>
		</g>
		<g>
			<path class="st0" d="M1760,194.34v18h-9v-18H1760 M1761,193.34h-1h-9h-1v1v18v1h1h9h1v-1v-18V193.34L1761,193.34z"/>
		</g>
		<g>
			<path class="st0" d="M1877.94,194.34v18h-9v-18H1877.94 M1878.94,193.34h-1h-9h-1v1v18v1h1h9h1v-1v-18V193.34L1878.94,193.34z"/>
		</g>
	</g>
	<g id="triangles">
		<polygon class="st1" points="334.5,486.22 329.5,477.56 339.5,477.56 		"/>
		<polygon class="st1" points="334.5,540.97 339.5,549.63 329.5,549.63 		"/>
		<polygon class="st1" points="194.5,139 199.5,147.66 189.5,147.66 		"/>
		<polygon class="st1" points="312.44,139 317.44,147.66 307.44,147.66 		"/>
		<polygon class="st1" points="854.5,486.22 849.5,477.56 859.5,477.56 		"/>
		<polygon class="st1" points="854.5,540.97 859.5,549.63 849.5,549.63 		"/>
		<polygon class="st1" points="714.5,139 719.5,147.66 709.5,147.66 		"/>
		<polygon class="st1" points="832.44,139 837.44,147.66 827.44,147.66 		"/>
		<polygon class="st1" points="1375.83,486.22 1370.83,477.56 1380.83,477.56 		"/>
		<polygon class="st1" points="1375.83,540.97 1380.83,549.63 1370.83,549.63 		"/>
		<polygon class="st1" points="1235.83,139 1240.83,147.66 1230.83,147.66 		"/>
		<polygon class="st1" points="1353.78,139 1358.78,147.66 1348.78,147.66 		"/>
		<polygon class="st1" points="1895.5,486.22 1890.5,477.56 1900.5,477.56 		"/>
		<polygon class="st1" points="1895.5,540.97 1900.5,549.63 1890.5,549.63 		"/>
		<polygon class="st1" points="1755.5,139 1760.5,147.66 1750.5,147.66 		"/>
		<polygon class="st1" points="1873.44,139 1878.44,147.66 1868.44,147.66 		"/>
	</g>
	<g id="tt">
		<g>
			<path class="st0" d="M1873.61,253c5.38,0,9.75,4.37,9.75,9.75c0,5.38-4.37,9.75-9.75,9.75s-9.75-4.37-9.75-9.75
				C1863.86,257.37,1868.23,253,1873.61,253 M1873.61,252c-5.93,0-10.75,4.82-10.75,10.75c0,5.93,4.82,10.75,10.75,10.75
				s10.75-4.82,10.75-10.75C1884.36,256.82,1879.54,252,1873.61,252L1873.61,252z"/>
		</g>
		<g>
			<path class="st0" d="M1873.6,243c0.38,0,0.76,0.02,1.14,0.07c5.35,0.63,9.18,5.47,8.55,10.82c-0.58,4.96-4.79,8.62-9.67,8.62
				c-0.38,0-0.76-0.02-1.14-0.07c-5.35-0.63-9.18-5.47-8.55-10.82C1864.51,246.65,1868.72,243,1873.6,243 M1873.6,242
				c-5.45,0-10.03,4.08-10.66,9.5c-0.69,5.89,3.54,11.24,9.43,11.92c0.42,0.05,0.84,0.07,1.26,0.07c5.45,0,10.03-4.08,10.66-9.5
				c0.33-2.85-0.46-5.66-2.24-7.91c-1.78-2.25-4.33-3.68-7.18-4.01C1874.44,242.02,1874.02,242,1873.6,242L1873.6,242z"/>
		</g>
		<g>
			<path class="st0" d="M1755.67,253c5.38,0,9.75,4.37,9.75,9.75c0,5.38-4.37,9.75-9.75,9.75s-9.75-4.37-9.75-9.75
				C1745.92,257.37,1750.28,253,1755.67,253 M1755.67,252c-5.93,0-10.75,4.82-10.75,10.75c0,5.93,4.82,10.75,10.75,10.75
				s10.75-4.82,10.75-10.75C1766.42,256.82,1761.6,252,1755.67,252L1755.67,252z"/>
		</g>
		<g>
			<path class="st0" d="M1755.66,243c0.38,0,0.76,0.02,1.14,0.07c5.35,0.63,9.18,5.47,8.55,10.82c-0.58,4.96-4.79,8.62-9.67,8.62
				c-0.38,0-0.76-0.02-1.14-0.07c-5.35-0.63-9.18-5.47-8.55-10.82C1746.57,246.65,1750.78,243,1755.66,243 M1755.66,242
				c-5.45,0-10.03,4.08-10.66,9.5c-0.69,5.89,3.54,11.24,9.43,11.92c0.42,0.05,0.84,0.07,1.26,0.07c5.45,0,10.03-4.08,10.66-9.5
				c0.33-2.85-0.46-5.66-2.24-7.91c-1.78-2.25-4.33-3.68-7.18-4.01C1756.5,242.02,1756.07,242,1755.66,242L1755.66,242z"/>
		</g>
		<g>
			<path class="st0" d="M1353.94,253c5.38,0,9.75,4.37,9.75,9.75c0,5.38-4.37,9.75-9.75,9.75s-9.75-4.37-9.75-9.75
				C1344.19,257.37,1348.56,253,1353.94,253 M1353.94,252c-5.93,0-10.75,4.82-10.75,10.75c0,5.93,4.82,10.75,10.75,10.75
				s10.75-4.82,10.75-10.75C1364.69,256.82,1359.87,252,1353.94,252L1353.94,252z"/>
		</g>
		<g>
			<path class="st0" d="M1353.93,243c0.38,0,0.76,0.02,1.14,0.07c5.35,0.63,9.18,5.47,8.55,10.82c-0.58,4.96-4.79,8.62-9.67,8.62
				c-0.38,0-0.76-0.02-1.14-0.07c-5.35-0.63-9.18-5.47-8.55-10.82C1344.84,246.65,1349.05,243,1353.93,243 M1353.93,242
				c-5.45,0-10.03,4.08-10.66,9.5c-0.69,5.89,3.54,11.24,9.43,11.92c0.42,0.05,0.84,0.07,1.26,0.07c5.45,0,10.03-4.08,10.66-9.5
				c0.33-2.85-0.46-5.66-2.24-7.91c-1.78-2.25-4.33-3.68-7.18-4.01C1354.77,242.02,1354.35,242,1353.93,242L1353.93,242z"/>
		</g>
		<g>
			<path class="st0" d="M1236,253c5.38,0,9.75,4.37,9.75,9.75c0,5.38-4.37,9.75-9.75,9.75s-9.75-4.37-9.75-9.75
				C1226.25,257.37,1230.62,253,1236,253 M1236,252c-5.93,0-10.75,4.82-10.75,10.75c0,5.93,4.82,10.75,10.75,10.75
				c5.93,0,10.75-4.82,10.75-10.75C1246.75,256.82,1241.93,252,1236,252L1236,252z"/>
		</g>
		<g>
			<path class="st0" d="M1235.99,243c0.38,0,0.76,0.02,1.14,0.07c5.35,0.63,9.18,5.47,8.55,10.82c-0.58,4.96-4.79,8.62-9.67,8.62
				c-0.38,0-0.76-0.02-1.14-0.07c-5.35-0.63-9.18-5.47-8.55-10.82C1226.9,246.65,1231.11,243,1235.99,243 M1235.99,242
				c-5.45,0-10.03,4.08-10.66,9.5c-0.69,5.89,3.54,11.24,9.43,11.92c0.42,0.05,0.84,0.07,1.26,0.07c5.45,0,10.03-4.08,10.66-9.5
				c0.33-2.85-0.46-5.66-2.24-7.91c-1.78-2.25-4.33-3.68-7.18-4.01C1236.83,242.02,1236.41,242,1235.99,242L1235.99,242z"/>
		</g>
		<g>
			<path class="st0" d="M832.61,253c5.38,0,9.75,4.37,9.75,9.75c0,5.38-4.37,9.75-9.75,9.75s-9.75-4.37-9.75-9.75
				C822.86,257.37,827.23,253,832.61,253 M832.61,252c-5.93,0-10.75,4.82-10.75,10.75c0,5.93,4.82,10.75,10.75,10.75
				c5.93,0,10.75-4.82,10.75-10.75C843.36,256.82,838.54,252,832.61,252L832.61,252z"/>
		</g>
		<g>
			<path class="st0" d="M832.6,243c0.38,0,0.76,0.02,1.14,0.07c5.35,0.63,9.18,5.47,8.55,10.82c-0.58,4.96-4.79,8.62-9.67,8.62
				c-0.38,0-0.76-0.02-1.14-0.07c-5.35-0.63-9.18-5.47-8.55-10.82C823.51,246.65,827.72,243,832.6,243 M832.6,242
				c-5.45,0-10.03,4.08-10.66,9.5c-0.33,2.85,0.46,5.66,2.24,7.92c1.78,2.25,4.33,3.68,7.18,4.01c0.42,0.05,0.84,0.07,1.26,0.07
				c5.45,0,10.03-4.08,10.66-9.5c0.33-2.85-0.46-5.66-2.24-7.91c-1.78-2.25-4.33-3.68-7.18-4.01C833.44,242.02,833.02,242,832.6,242
				L832.6,242z"/>
		</g>
		<g>
			<path class="st0" d="M714.67,253c5.38,0,9.75,4.37,9.75,9.75c0,5.38-4.37,9.75-9.75,9.75s-9.75-4.37-9.75-9.75
				C704.92,257.37,709.28,253,714.67,253 M714.67,252c-5.93,0-10.75,4.82-10.75,10.75c0,5.93,4.82,10.75,10.75,10.75
				s10.75-4.82,10.75-10.75C725.42,256.82,720.6,252,714.67,252L714.67,252z"/>
		</g>
		<g>
			<path class="st0" d="M714.66,243c0.38,0,0.76,0.02,1.14,0.07c5.35,0.63,9.18,5.47,8.55,10.82c-0.58,4.96-4.79,8.62-9.67,8.62
				c-0.38,0-0.76-0.02-1.14-0.07c-5.35-0.63-9.18-5.47-8.55-10.82C705.57,246.65,709.78,243,714.66,243 M714.66,242
				c-5.45,0-10.03,4.08-10.66,9.5c-0.69,5.89,3.54,11.24,9.43,11.92c0.42,0.05,0.84,0.07,1.26,0.07c5.45,0,10.03-4.08,10.66-9.5
				c0.69-5.89-3.54-11.24-9.43-11.92C715.5,242.02,715.07,242,714.66,242L714.66,242z"/>
		</g>
		<g>
			<path class="st0" d="M312.61,253c5.38,0,9.75,4.37,9.75,9.75c0,5.38-4.37,9.75-9.75,9.75c-5.38,0-9.75-4.37-9.75-9.75
				C302.86,257.37,307.23,253,312.61,253 M312.61,252c-5.93,0-10.75,4.82-10.75,10.75c0,5.93,4.82,10.75,10.75,10.75
				s10.75-4.82,10.75-10.75C323.36,256.82,318.54,252,312.61,252L312.61,252z"/>
		</g>
		<g>
			<path class="st0" d="M312.6,243c0.38,0,0.76,0.02,1.14,0.07c5.35,0.63,9.18,5.47,8.55,10.82c-0.58,4.96-4.79,8.62-9.67,8.62
				c-0.38,0-0.76-0.02-1.14-0.07c-5.35-0.63-9.18-5.47-8.55-10.82C303.51,246.65,307.72,243,312.6,243 M312.6,242
				c-5.45,0-10.03,4.08-10.66,9.5c-0.69,5.89,3.54,11.24,9.43,11.92c0.42,0.05,0.84,0.07,1.26,0.07c5.45,0,10.03-4.08,10.66-9.5
				c0.69-5.89-3.54-11.24-9.43-11.92C313.44,242.02,313.02,242,312.6,242L312.6,242z"/>
		</g>
		<g>
			<path class="st0" d="M194.67,253c5.38,0,9.75,4.37,9.75,9.75c0,5.38-4.37,9.75-9.75,9.75s-9.75-4.37-9.75-9.75
				C184.92,257.37,189.28,253,194.67,253 M194.67,252c-5.93,0-10.75,4.82-10.75,10.75c0,5.93,4.82,10.75,10.75,10.75
				s10.75-4.82,10.75-10.75C205.42,256.82,200.6,252,194.67,252L194.67,252z"/>
		</g>
		<g>
			<path class="st0" d="M194.66,243c0.38,0,0.76,0.02,1.14,0.07c5.35,0.63,9.18,5.47,8.55,10.82c-0.58,4.96-4.79,8.62-9.67,8.62
				c-0.38,0-0.76-0.02-1.14-0.07c-5.35-0.63-9.18-5.47-8.55-10.82C185.57,246.65,189.78,243,194.66,243 M194.66,242
				c-5.45,0-10.03,4.08-10.66,9.5c-0.33,2.85,0.46,5.66,2.24,7.92s4.33,3.68,7.18,4.01c0.42,0.05,0.84,0.07,1.26,0.07
				c5.45,0,10.03-4.08,10.66-9.5c0.69-5.89-3.54-11.24-9.43-11.92C195.5,242.02,195.07,242,194.66,242L194.66,242z"/>
		</g>
	</g>
	<g id="ads">
		<g>
			<g>
				<path class="st0" d="M334.5,648.67c5.38,0,9.75,4.37,9.75,9.75c0,5.38-4.37,9.75-9.75,9.75c-5.38,0-9.75-4.37-9.75-9.75
					C324.75,653.04,329.12,648.67,334.5,648.67 M334.5,647.67c-5.93,0-10.75,4.82-10.75,10.75s4.82,10.75,10.75,10.75
					c5.93,0,10.75-4.82,10.75-10.75S340.43,647.67,334.5,647.67L334.5,647.67z"/>
			</g>
			<path class="st2" d="M341.3,658.42c0,1.88-1.52,3.4-3.4,3.4c-1.88,0-3.4-1.52-3.4-3.4c0-1.88-1.52-3.4-3.4-3.4
				c-1.88,0-3.4,1.52-3.4,3.4"/>
		</g>
		<g>
			<g>
				<path class="st0" d="M854.5,648.67c5.38,0,9.75,4.37,9.75,9.75c0,5.38-4.37,9.75-9.75,9.75s-9.75-4.37-9.75-9.75
					C844.75,653.04,849.12,648.67,854.5,648.67 M854.5,647.67c-5.93,0-10.75,4.82-10.75,10.75s4.82,10.75,10.75,10.75
					c5.93,0,10.75-4.82,10.75-10.75S860.43,647.67,854.5,647.67L854.5,647.67z"/>
			</g>
			<path class="st2" d="M861.3,658.42c0,1.88-1.52,3.4-3.4,3.4c-1.88,0-3.4-1.52-3.4-3.4c0-1.88-1.52-3.4-3.4-3.4
				c-1.88,0-3.4,1.52-3.4,3.4"/>
		</g>
		<g>
			<g>
				<path class="st0" d="M1375.83,648.67c5.38,0,9.75,4.37,9.75,9.75c0,5.38-4.37,9.75-9.75,9.75c-5.38,0-9.75-4.37-9.75-9.75
					C1366.08,653.04,1370.45,648.67,1375.83,648.67 M1375.83,647.67c-5.93,0-10.75,4.82-10.75,10.75s4.82,10.75,10.75,10.75
					s10.75-4.82,10.75-10.75S1381.76,647.67,1375.83,647.67L1375.83,647.67z"/>
			</g>
			<path class="st2" d="M1382.63,658.42c0,1.88-1.52,3.4-3.4,3.4c-1.88,0-3.4-1.52-3.4-3.4c0-1.88-1.52-3.4-3.4-3.4
				c-1.88,0-3.4,1.52-3.4,3.4"/>
		</g>
		<g>
			<g>
				<path class="st0" d="M1895.5,648.67c5.38,0,9.75,4.37,9.75,9.75c0,5.38-4.37,9.75-9.75,9.75s-9.75-4.37-9.75-9.75
					C1885.75,653.04,1890.12,648.67,1895.5,648.67 M1895.5,647.67c-5.93,0-10.75,4.82-10.75,10.75s4.82,10.75,10.75,10.75
					s10.75-4.82,10.75-10.75S1901.43,647.67,1895.5,647.67L1895.5,647.67z"/>
			</g>
			<path class="st2" d="M1902.3,658.42c0,1.88-1.52,3.4-3.4,3.4s-3.4-1.52-3.4-3.4c0-1.88-1.52-3.4-3.4-3.4s-3.4,1.52-3.4,3.4"/>
		</g>
	</g>
</g>
<g id="lines">
	<g id="pipes">
		<g id="lep">
			<line class="st3" x1="194.5" y1="123" x2="194.5" y2="139"/>
			<line class="st3" x1="194.5" y1="147.7" x2="194.5" y2="163.5"/>
			<line class="st3" x1="194.5" y1="272.5" x2="194.5" y2="288.3"/>
			<line class="st3" x1="194.5" y1="345.2" x2="194.5" y2="361"/>
			<line class="st3" x1="216.5" y1="344.5" x2="216.5" y2="361"/>
			<line class="st3" x1="290.5" y1="344.5" x2="290.5" y2="361"/>
			<line class="st3" x1="225" y1="344.5" x2="216.5" y2="344.5"/>
			<line class="st3" x1="290.5" y1="344.5" x2="282" y2="344.5"/>
			<line class="st3" x1="194.5" y1="178.5" x2="194.5" y2="243"/>
			<line class="st3" x1="312.44" y1="123" x2="312.44" y2="139"/>
			<line class="st3" x1="312.44" y1="147.7" x2="312.44" y2="163.5"/>
			<line class="st3" x1="312.44" y1="272.5" x2="312.44" y2="288.3"/>
			<line class="st3" x1="312.44" y1="178.5" x2="312.44" y2="243"/>
			<line class="st3" x1="312.48" y1="345.45" x2="312.48" y2="361.25"/>
			<line class="st3" x1="334.5" y1="369" x2="334.5" y2="394.8"/>
			<line class="st3" x1="334.5" y1="451.77" x2="334.5" y2="477.56"/>
			<line class="st3" x1="334.5" y1="550.04" x2="334.5" y2="575.84"/>
			<line class="st3" x1="334.5" y1="632.88" x2="334.5" y2="648.67"/>
			<line class="st3" x1="334.5" y1="486.22" x2="334.5" y2="540.97"/>
			<line class="st3" x1="714.5" y1="123" x2="714.5" y2="139"/>
			<line class="st3" x1="714.5" y1="147.7" x2="714.5" y2="163.5"/>
			<line class="st3" x1="714.5" y1="272.5" x2="714.5" y2="288.3"/>
			<line class="st3" x1="714.5" y1="345.2" x2="714.5" y2="361"/>
			<line class="st3" x1="736.5" y1="344.5" x2="736.5" y2="361"/>
			<line class="st3" x1="810.5" y1="344.5" x2="810.5" y2="361"/>
			<line class="st3" x1="745" y1="344.5" x2="736.5" y2="344.5"/>
			<line class="st3" x1="810.5" y1="344.5" x2="802" y2="344.5"/>
			<line class="st3" x1="714.5" y1="178.5" x2="714.5" y2="243"/>
			<line class="st3" x1="832.44" y1="123" x2="832.44" y2="139"/>
			<line class="st3" x1="832.44" y1="147.7" x2="832.44" y2="163.5"/>
			<line class="st3" x1="832.44" y1="272.5" x2="832.44" y2="288.3"/>
			<line class="st3" x1="832.44" y1="178.5" x2="832.44" y2="243"/>
			<line class="st3" x1="832.48" y1="345.45" x2="832.48" y2="361.25"/>
			<line class="st3" x1="854.5" y1="369" x2="854.5" y2="394.8"/>
			<line class="st3" x1="854.5" y1="451.77" x2="854.5" y2="477.56"/>
			<line class="st3" x1="854.5" y1="550.04" x2="854.5" y2="575.84"/>
			<line class="st3" x1="854.5" y1="632.88" x2="854.5" y2="648.67"/>
			<line class="st3" x1="854.5" y1="486.22" x2="854.5" y2="540.97"/>
			<line class="st3" x1="1235.83" y1="123" x2="1235.83" y2="139"/>
			<line class="st3" x1="1235.83" y1="147.7" x2="1235.83" y2="163.5"/>
			<line class="st3" x1="1235.83" y1="272.5" x2="1235.83" y2="288.3"/>
			<line class="st3" x1="1235.83" y1="345.2" x2="1235.83" y2="361"/>
			<line class="st3" x1="1257.83" y1="344.5" x2="1257.83" y2="361"/>
			<line class="st3" x1="1331.83" y1="344.5" x2="1331.83" y2="361"/>
			<line class="st3" x1="1266.33" y1="344.5" x2="1257.83" y2="344.5"/>
			<line class="st3" x1="1331.83" y1="344.5" x2="1323.33" y2="344.5"/>
			<line class="st3" x1="1235.83" y1="178.5" x2="1235.83" y2="243"/>
			<line class="st3" x1="1353.78" y1="123" x2="1353.78" y2="139"/>
			<line class="st3" x1="1353.78" y1="147.7" x2="1353.78" y2="163.5"/>
			<line class="st3" x1="1353.78" y1="272.5" x2="1353.78" y2="288.3"/>
			<line class="st3" x1="1353.78" y1="178.5" x2="1353.78" y2="243"/>
			<line class="st3" x1="1353.82" y1="345.45" x2="1353.82" y2="361.25"/>
			<line class="st3" x1="1375.83" y1="369" x2="1375.83" y2="394.8"/>
			<line class="st3" x1="1375.83" y1="451.77" x2="1375.83" y2="477.56"/>
			<line class="st3" x1="1375.83" y1="550.04" x2="1375.83" y2="575.84"/>
			<line class="st3" x1="1375.83" y1="632.88" x2="1375.83" y2="648.67"/>
			<line class="st3" x1="1375.83" y1="486.22" x2="1375.83" y2="540.97"/>
			<line class="st3" x1="1755.5" y1="123" x2="1755.5" y2="139"/>
			<line class="st3" x1="1755.5" y1="147.7" x2="1755.5" y2="163.5"/>
			<line class="st3" x1="1755.5" y1="272.5" x2="1755.5" y2="288.3"/>
			<line class="st3" x1="1755.5" y1="345.2" x2="1755.5" y2="361"/>
			<line class="st3" x1="1777.5" y1="344.5" x2="1777.5" y2="361"/>
			<line class="st3" x1="1851.5" y1="344.5" x2="1851.5" y2="361"/>
			<line class="st3" x1="1786" y1="344.5" x2="1777.5" y2="344.5"/>
			<line class="st3" x1="1851.5" y1="344.5" x2="1843" y2="344.5"/>
			<line class="st3" x1="1755.5" y1="178.5" x2="1755.5" y2="243"/>
			<line class="st3" x1="1873.44" y1="123" x2="1873.44" y2="139"/>
			<line class="st3" x1="1873.44" y1="147.7" x2="1873.44" y2="163.5"/>
			<line class="st3" x1="1873.44" y1="272.5" x2="1873.44" y2="288.3"/>
			<line class="st3" x1="1873.44" y1="178.5" x2="1873.44" y2="243"/>
			<line class="st3" x1="1873.48" y1="345.45" x2="1873.48" y2="361.25"/>
			<line class="st3" x1="1895.5" y1="369" x2="1895.5" y2="394.8"/>
			<line class="st3" x1="1895.5" y1="451.77" x2="1895.5" y2="477.56"/>
			<line class="st3" x1="1895.5" y1="550.04" x2="1895.5" y2="575.84"/>
			<line class="st3" x1="1895.5" y1="632.88" x2="1895.5" y2="648.67"/>
			<line class="st3" x1="1895.5" y1="486.22" x2="1895.5" y2="540.97"/>
		</g>
		<g id="kV04_1_">
			<line class="st4" x1="181.5" y1="365" x2="229.5" y2="365"/>
			<line class="st4" x1="278" y1="365" x2="348" y2="365"/>
			<line class="st4" x1="701.5" y1="365" x2="749.5" y2="365"/>
			<line class="st4" x1="798" y1="365" x2="868" y2="365"/>
			<line class="st4" x1="1222.83" y1="365" x2="1270.83" y2="365"/>
			<line class="st4" x1="1319.33" y1="365" x2="1389.33" y2="365"/>
			<line class="st4" x1="1742.5" y1="365" x2="1790.5" y2="365"/>
			<line class="st4" x1="1839" y1="365" x2="1909" y2="365"/>
		</g>
		<g id="kV10">
		</g>
	</g>
	<g id="points">
		<g id="kV10_1_">
		</g>
		<g id="kV04">
			<circle class="st5" cx="194.5" cy="365" r="4"/>
			<circle class="st5" cx="216.5" cy="365" r="4"/>
			<circle class="st5" cx="290.51" cy="365.02" r="4"/>
			<circle class="st5" cx="312.48" cy="365" r="4"/>
			<circle class="st5" cx="334.5" cy="365" r="4"/>
			<circle class="st5" cx="714.5" cy="365" r="4"/>
			<circle class="st5" cx="736.5" cy="365" r="4"/>
			<circle class="st5" cx="810.51" cy="365.02" r="4"/>
			<circle class="st5" cx="832.48" cy="365" r="4"/>
			<circle class="st5" cx="854.5" cy="365" r="4"/>
			<circle class="st5" cx="1235.83" cy="365" r="4"/>
			<circle class="st5" cx="1257.83" cy="365" r="4"/>
			<circle class="st5" cx="1331.84" cy="365.02" r="4"/>
			<circle class="st5" cx="1353.82" cy="365" r="4"/>
			<circle class="st5" cx="1375.83" cy="365" r="4"/>
			<circle class="st5" cx="1755.5" cy="365" r="4"/>
			<circle class="st5" cx="1777.5" cy="365" r="4"/>
			<circle class="st5" cx="1851.51" cy="365.02" r="4"/>
			<circle class="st5" cx="1873.48" cy="365" r="4"/>
			<circle class="st5" cx="1895.5" cy="365" r="4"/>
		</g>
	</g>
</g>
<g id="tables">
	<g id="rect">
		<path class="st6" d="M1463.36,56.53V16.82c-0.01-2.66-2.22-4.83-4.91-4.82l-851.14,0.27c-2.7,0.01-4.9,2.19-4.89,4.84l0.02,6.24
			l0.04,32.82c0.01,2.66,2.22,4.83,4.91,4.82l851.14-0.27c2.7-0.01,4.9-2.19,4.89-4.84L1463.36,56.53z"/>
	</g>
	<g id="text">
		<g id="elem-text">
			<text transform="matrix(1 0 0 1 209.9501 264.103)" class="st0 st7 st8">Т1</text>
			<text transform="matrix(1 0 0 1 327.8925 264.103)" class="st0 st7 st8">Т2</text>
			<text transform="matrix(1 0 0 1 729.9501 264.103)" class="st0 st7 st8">Т1</text>
			<text transform="matrix(1 0 0 1 847.8925 264.103)" class="st0 st7 st8">Т2</text>
			<text transform="matrix(1 0 0 1 1251.2834 264.103)" class="st0 st7 st8">Т1</text>
			<text transform="matrix(1 0 0 1 1369.2258 264.103)" class="st0 st7 st8">Т2</text>
			<text transform="matrix(1 0 0 1 1770.9502 264.103)" class="st0 st7 st8">Т1</text>
			<text transform="matrix(1 0 0 1 1888.8926 264.103)" class="st0 st7 st8">Т2</text>
		</g>
		<g id="regular">
			<text transform="matrix(1 0 0 1 1753.6121 382.3869)" class="st0 st7 st9">1С-0,4</text>
			<text transform="matrix(1 0 0 1 1859.9888 382.3869)" class="st0 st7 st9">2С-0,4</text>
			<text transform="matrix(1 0 0 1 1233.9453 382.3869)" class="st0 st7 st9">1С-0,4</text>
			<text transform="matrix(1 0 0 1 1340.322 382.3869)" class="st0 st7 st9">2С-0,4</text>
			<text transform="matrix(1 0 0 1 192.6119 382.3869)" class="st0 st7 st9">1С-0,4</text>
			<text transform="matrix(1 0 0 1 298.9887 382.3869)" class="st0 st7 st9">2С-0,4</text>
			<text transform="matrix(1 0 0 1 712.6119 382.3869)" class="st0 st7 st9">1С-0,4</text>
			<text transform="matrix(1 0 0 1 818.9886 382.3869)" class="st0 st7 st9">2С-0,4</text>
		</g>
		<g id="subtitles">
			<text transform="matrix(1 0 0 1 205.9181 175.6383)" class="st0 st7 st10">УВН1</text>
			<text transform="matrix(1 0 0 1 205.9181 322.1617)" class="st0 st7 st10">1ВВ</text>
			<text transform="matrix(1 0 0 1 323.8605 175.6383)" class="st0 st7 st10">УВН2</text>
			<text transform="matrix(1 0 0 1 323.8605 322.1617)" class="st0 st7 st10">2ВВ</text>
			<text transform="matrix(1 0 0 1 344.241 428.2833)" class="st0 st7 st10">АВ</text>
			<text transform="matrix(1 0 0 1 246.1984 318.1614)" class="st0 st7 st10">СВ</text>
			<text transform="matrix(1 0 0 1 344.241 609.358)" class="st0 st7 st10">АВГ</text>
			<text transform="matrix(1 0 0 1 725.9182 175.6383)" class="st0 st7 st10">УВН1</text>
			<text transform="matrix(1 0 0 1 725.9182 322.1617)" class="st0 st7 st10">1ВВ</text>
			<text transform="matrix(1 0 0 1 843.8605 175.6383)" class="st0 st7 st10">УВН2</text>
			<text transform="matrix(1 0 0 1 843.8605 322.1617)" class="st0 st7 st10">2ВВ</text>
			<text transform="matrix(1 0 0 1 864.241 428.2833)" class="st0 st7 st10">АВ</text>
			<text transform="matrix(1 0 0 1 766.1984 318.1614)" class="st0 st7 st10">СВ</text>
			<text transform="matrix(1 0 0 1 864.241 609.358)" class="st0 st7 st10">АВГ</text>
			<text transform="matrix(1 0 0 1 1247.2516 175.6383)" class="st0 st7 st10">УВН1</text>
			<text transform="matrix(1 0 0 1 1247.2516 322.1617)" class="st0 st7 st10">1ВВ</text>
			<text transform="matrix(1 0 0 1 1365.1938 175.6383)" class="st0 st7 st10">УВН2</text>
			<text transform="matrix(1 0 0 1 1365.1938 322.1617)" class="st0 st7 st10">2ВВ</text>
			<text transform="matrix(1 0 0 1 1385.5743 428.2833)" class="st0 st7 st10">АВ</text>
			<text transform="matrix(1 0 0 1 1287.5317 318.1614)" class="st0 st7 st10">СВ</text>
			<text transform="matrix(1 0 0 1 1385.5743 609.358)" class="st0 st7 st10">АВГ</text>
			<text transform="matrix(1 0 0 1 1766.9182 175.6383)" class="st0 st7 st10">УВН1</text>
			<text transform="matrix(1 0 0 1 1766.9182 322.1617)" class="st0 st7 st10">1ВВ</text>
			<text transform="matrix(1 0 0 1 1884.8606 175.6383)" class="st0 st7 st10">УВН2</text>
			<text transform="matrix(1 0 0 1 1884.8606 322.1617)" class="st0 st7 st10">2ВВ</text>
			<text transform="matrix(1 0 0 1 1905.241 428.2833)" class="st0 st7 st10">АВ</text>
			<text transform="matrix(1 0 0 1 1807.1985 318.1614)" class="st0 st7 st10">СВ</text>
			<text transform="matrix(1 0 0 1 1905.241 609.358)" class="st0 st7 st10">АВГ</text>
		</g>
		<g id="titles">
			<text transform="matrix(1 0 0 1 350.2411 666.7271)" class="st0 st7 st11">АДЭС-ТП-4КУ</text>
			<text transform="matrix(1 0 0 1 870.2411 654.5604)" class="st0 st7 st11">АДЭС-ТП-4ТХ</text>
			<text transform="matrix(1 0 0 1 1390.6161 654.64)" class="st0 st7 st11">АДЭС-ТП-4СЭБ</text>
			<text transform="matrix(1 0 0 1 1911.2412 654.64)" class="st0 st7 st11">АДЭС-ТП-4НК</text>
			<g>
				<text transform="matrix(1.0008 -2.471902e-03 2.470000e-03 1 223.4877 114.1266)" class="st0 st7 st12">РУ-10кВ</text>
			</g>
			<g>
				<text transform="matrix(1.0008 -2.471902e-03 2.470000e-03 1 743.4877 114.1266)" class="st0 st7 st12">РУ-10кВ</text>
			</g>
			<text transform="matrix(1 0 0 1 1266.0841 202.9676)" class="st0 st7 st11">ТП-4СЭБ</text>
			<g>
				<text transform="matrix(1.0008 -2.471902e-03 2.470000e-03 1 1263.8628 114.2062)" class="st0 st7 st12">РУ-10кВ</text>
			</g>
			<text transform="matrix(1 0 0 1 1787.709 202.9676)" class="st0 st7 st11">ТП-4НК</text>
			<g>
				<text transform="matrix(1.0008 -2.471902e-03 2.470000e-03 1 1784.4877 114.2062)" class="st0 st7 st12">РУ-10кВ</text>
			</g>
			<text transform="matrix(1 0 0 1 746.7091 202.888)" class="st0 st7 st11">ТП-4ТХ</text>
			<text transform="matrix(1 0 0 1 226.7091 202.888)" class="st0 st7 st11">ТП-4КУ</text>
		</g>
		<g id="main">
			<g>
				<text transform="matrix(1 -2.470000e-03 2.470000e-03 1 800.787 45.6018)" class="st13 st7 st14">Электроснабжение трансформаторных подстанций ГП-41</text>
			</g>
		</g>
	</g>
</g>
<g id="helpers">
</g>
</svg>
