<?xml version="1.0" encoding="utf-8"?>
<!-- Generator: Adobe Illustrator 23.0.1, SVG Export Plug-In . SVG Version: 6.00 Build 0)  -->
<svg version="1.1" xmlns="http://www.w3.org/2000/svg" xmlns:xlink="http://www.w3.org/1999/xlink" x="0px" y="0px"
	 viewBox="0 0 2037.1 624" style="enable-background:new 0 0 2037.1 624;" xml:space="preserve">
<style type="text/css">
	.st0{fill:none;stroke:#000000;stroke-width:0.5;stroke-miterlimit:10;}
	.st1{fill:none;stroke:#6C6E7A;stroke-width:6;stroke-miterlimit:10;}
	.st2{fill:none;stroke:#7030A0;stroke-width:6;stroke-miterlimit:10;}
	.st3{fill:#F5F3F3;stroke:#6C6E7A;stroke-miterlimit:10;}
	.st4{fill:#F5F3F3;stroke:#7030A0;stroke-miterlimit:10;}
	.st5{fill:#F5F3F3;}
	.st6{fill:#909091;}
	.st7{fill:#EEEEEF;stroke:#6C6E7A;stroke-miterlimit:10;}
	.st8{font-family:'UbuntuCondensed-Regular';}
	.st9{font-size:16px;}
	.st10{font-size:12px;}
	.st11{font-size:14px;}
	.st12{font-size:20px;}
	.st13{fill:#21282D;}
	.st14{font-size:21px;}
</style>
<g id="SimpleElements">
	<g id="switch-cart-elem">
		
			<image style="overflow:visible;" width="22" height="69" id="id1" xlink:href="../../../elements/switch-cart-elem/pub/default.png"  transform="matrix(1 0 0 1 13.5 116.354)">
		</image>
	</g>
	<g id="switch-elem">
		
			<image style="overflow:visible;" width="22" height="37" id="id2" xlink:href="../../../elements/switch-elem/pub/default.png"  transform="matrix(1 0 0 1 1223.502 132.411)">
		</image>
	</g>
	<g id="multi-tit-elem">
		
			<image style="overflow:visible;" width="134" height="192" id="id3" xlink:href="../../../elements/multi-tit-elem/pub/multi-tit_titcount-6_no-arroworient.png"  transform="matrix(1.0969 0 0 1.0969 38.0071 291.1967)">
		</image>
		
			<image style="overflow:visible;" width="134" height="192" id="id4" xlink:href="../../../elements/multi-tit-elem/pub/multi-tit_titcount-6_no-arroworient.png"  transform="matrix(1.0969 0 0 1.0969 288.007 291.1967)">
		</image>
		
			<image style="overflow:visible;" width="134" height="192" id="id5" xlink:href="../../../elements/multi-tit-elem/pub/multi-tit_titcount-6_no-arroworient.png"  transform="matrix(1.0969 0 0 1.0969 538.0071 291.1967)">
		</image>
		
			<image style="overflow:visible;" width="134" height="192" id="id6" xlink:href="../../../elements/multi-tit-elem/pub/multi-tit_titcount-6_no-arroworient.png"  transform="matrix(1.0969 0 0 1.0969 788.0071 291.1967)">
		</image>
		
			<image style="overflow:visible;" width="134" height="192" id="id7" xlink:href="../../../elements/multi-tit-elem/pub/multi-tit_titcount-6_no-arroworient.png"  transform="matrix(1.0969 0 0 1.0969 1038.009 291.1967)">
		</image>
		
			<image style="overflow:visible;" width="134" height="192" id="id8" xlink:href="../../../elements/multi-tit-elem/pub/multi-tit_titcount-6_no-arroworient.png"  transform="matrix(1.0969 0 0 1.0969 1288.009 291.1967)">
		</image>
		
			<image style="overflow:visible;" width="134" height="192" id="id9" xlink:href="../../../elements/multi-tit-elem/pub/multi-tit_titcount-6_no-arroworient.png"  transform="matrix(1.0969 0 0 1.0969 1538.005 291.1967)">
		</image>
		
			<image style="overflow:visible;" width="134" height="192" id="id10" xlink:href="../../../elements/multi-tit-elem/pub/multi-tit_titcount-6_no-arroworient.png"  transform="matrix(1.0969 0 0 1.0969 1788.005 291.1967)">
		</image>
	</g>
	<g id="earthing-knife-elem">
		
			<image style="overflow:visible;" width="45" height="18" id="id11" xlink:href="../../../elements/earthing-knife-elem/pub/default.png"  transform="matrix(1 0 0 1 230.994 388.637)">
		</image>
		
			<image style="overflow:visible;" width="45" height="18" id="id12" xlink:href="../../../elements/earthing-knife-elem/pub/default.png"  transform="matrix(1 0 0 1 480.994 388.637)">
		</image>
		
			<image style="overflow:visible;" width="45" height="18" id="id13" xlink:href="../../../elements/earthing-knife-elem/pub/default.png"  transform="matrix(1 0 0 1 730.994 388.637)">
		</image>
		
			<image style="overflow:visible;" width="45" height="18" id="id14" xlink:href="../../../elements/earthing-knife-elem/pub/default.png"  transform="matrix(1 0 0 1 981 388.637)">
		</image>
		
			<image style="overflow:visible;" width="45" height="18" id="id15" xlink:href="../../../elements/earthing-knife-elem/pub/default.png"  transform="matrix(1 0 0 1 1230.996 388.637)">
		</image>
		
			<image style="overflow:visible;" width="45" height="18" id="id16" xlink:href="../../../elements/earthing-knife-elem/pub/default.png"  transform="matrix(1 0 0 1 1481.002 388.637)">
		</image>
		
			<image style="overflow:visible;" width="45" height="18" id="id17" xlink:href="../../../elements/earthing-knife-elem/pub/default.png"  transform="matrix(1 0 0 1 1730.998 388.637)">
		</image>
		
			<image style="overflow:visible;" width="45" height="18" id="id18" xlink:href="../../../elements/earthing-knife-elem/pub/default.png"  transform="matrix(1 0 0 1 1980.994 388.637)">
		</image>
		
			<image style="overflow:visible;" width="45" height="18" id="id19" xlink:href="../../../elements/earthing-knife-elem/pub/default.png"  transform="matrix(1 0 0 1 21 202)">
		</image>
	</g>
	<g id="disconnector-elem">
		
			<image style="overflow:visible;" width="16" height="11" id="id20" xlink:href="../../../elements/disconnector-elem/pub/default.png"  transform="matrix(0 -1 1 0 228.994 329.694)">
		</image>
		
			<image style="overflow:visible;" width="16" height="11" id="id21" xlink:href="../../../elements/disconnector-elem/pub/default.png"  transform="matrix(0 -1 1 0 478.994 329.694)">
		</image>
		
			<image style="overflow:visible;" width="16" height="11" id="id22" xlink:href="../../../elements/disconnector-elem/pub/default.png"  transform="matrix(0 -1 1 0 728.994 329.694)">
		</image>
		
			<image style="overflow:visible;" width="16" height="11" id="id23" xlink:href="../../../elements/disconnector-elem/pub/default.png"  transform="matrix(0 -1 1 0 978.996 329.694)">
		</image>
		
			<image style="overflow:visible;" width="16" height="11" id="id24" xlink:href="../../../elements/disconnector-elem/pub/default.png"  transform="matrix(0 -1 1 0 1228.996 329.694)">
		</image>
		
			<image style="overflow:visible;" width="16" height="11" id="id25" xlink:href="../../../elements/disconnector-elem/pub/default.png"  transform="matrix(0 -1 1 0 1479.002 329.694)">
		</image>
		
			<image style="overflow:visible;" width="16" height="11" id="id26" xlink:href="../../../elements/disconnector-elem/pub/default.png"  transform="matrix(0 -1 1 0 1728.998 329.694)">
		</image>
		
			<image style="overflow:visible;" width="16" height="11" id="id27" xlink:href="../../../elements/disconnector-elem/pub/default.png"  transform="matrix(0 -1 1 0 1978.994 329.694)">
		</image>
		
			<image style="overflow:visible;" width="16" height="11" id="id28" xlink:href="../../../elements/disconnector-elem/pub/default.png"  transform="matrix(0 -1 1 0 1978.994 487)">
		</image>
		
			<image style="overflow:visible;" width="16" height="11" id="id29" xlink:href="../../../elements/disconnector-elem/pub/default.png"  transform="matrix(0 -1 1 0 1728.998 487)">
		</image>
		
			<image style="overflow:visible;" width="16" height="11" id="id30" xlink:href="../../../elements/disconnector-elem/pub/default.png"  transform="matrix(0 -1 1 0 1479.002 487)">
		</image>
		
			<image style="overflow:visible;" width="16" height="11" id="id31" xlink:href="../../../elements/disconnector-elem/pub/default.png"  transform="matrix(0 -1 1 0 1228.996 487)">
		</image>
		
			<image style="overflow:visible;" width="16" height="11" id="id32" xlink:href="../../../elements/disconnector-elem/pub/default.png"  transform="matrix(0 -1 1 0 978.996 487)">
		</image>
		
			<image style="overflow:visible;" width="16" height="11" id="id33" xlink:href="../../../elements/disconnector-elem/pub/default.png"  transform="matrix(0 -1 1 0 728.994 487)">
		</image>
		
			<image style="overflow:visible;" width="16" height="11" id="id34" xlink:href="../../../elements/disconnector-elem/pub/default.png"  transform="matrix(0 -1 1 0 478.994 487)">
		</image>
		
			<image style="overflow:visible;" width="16" height="11" id="id35" xlink:href="../../../elements/disconnector-elem/pub/default.png"  transform="matrix(0 -1 1 0 228.994 487)">
		</image>
	</g>
</g>
<g id="lines">
	<g id="pipes">
		<g id="lep">
			<line class="st0" x1="234.49" y1="452.39" x2="234.49" y2="471.5"/>
			<line class="st0" x1="234.49" y1="233.5" x2="234.49" y2="314.14"/>
			<line class="st0" x1="234.49" y1="329.14" x2="234.49" y2="422.89"/>
			<line class="st0" x1="24.5" y1="185.35" x2="24.5" y2="612.9"/>
			<line class="st0" x1="984.5" y1="233.56" x2="24.5" y2="233.5"/>
			<polyline class="st0" points="1234.5,233.56 1984.49,233.56 1984.49,314.19 			"/>
			<polyline class="st0" points="1234.5,314.19 1234.5,87.56 984.5,87.56 984.5,314.19 			"/>
			<line class="st0" x1="734.49" y1="452.39" x2="734.49" y2="471.5"/>
			<line class="st0" x1="734.49" y1="233.5" x2="734.49" y2="314.14"/>
			<line class="st0" x1="734.49" y1="329.14" x2="734.49" y2="422.89"/>
			<line class="st0" x1="484.49" y1="452.39" x2="484.49" y2="471.5"/>
			<line class="st0" x1="484.49" y1="233.5" x2="484.49" y2="314.14"/>
			<line class="st0" x1="484.49" y1="329.14" x2="484.49" y2="422.89"/>
			<line class="st0" x1="1484.5" y1="452.44" x2="1484.5" y2="471.56"/>
			<line class="st0" x1="1484.5" y1="233.56" x2="1484.5" y2="314.19"/>
			<line class="st0" x1="1484.5" y1="329.19" x2="1484.5" y2="422.94"/>
			<line class="st0" x1="1734.5" y1="452.44" x2="1734.5" y2="471.56"/>
			<line class="st0" x1="1734.5" y1="233.56" x2="1734.5" y2="314.19"/>
			<line class="st0" x1="1734.5" y1="329.19" x2="1734.5" y2="422.94"/>
			<line class="st0" x1="984.5" y1="452.44" x2="984.5" y2="471.56"/>
			<line class="st0" x1="984.5" y1="329.19" x2="984.5" y2="422.94"/>
			<line class="st0" x1="1234.5" y1="452.44" x2="1234.5" y2="471.56"/>
			<line class="st0" x1="1234.5" y1="329.19" x2="1234.5" y2="422.94"/>
			<line class="st0" x1="1984.49" y1="486.56" x2="1984.49" y2="497.56"/>
			<line class="st0" x1="1984.49" y1="452.44" x2="1984.49" y2="471.56"/>
			<line class="st0" x1="1984.49" y1="329.19" x2="1984.49" y2="422.94"/>
			<line class="st0" x1="1734.5" y1="486.56" x2="1734.5" y2="497.56"/>
			<line class="st0" x1="1484.5" y1="486.56" x2="1484.5" y2="497.56"/>
			<line class="st0" x1="1234.5" y1="486.56" x2="1234.5" y2="497.56"/>
			<line class="st0" x1="984.5" y1="486.56" x2="984.5" y2="497.56"/>
			<line class="st0" x1="484.49" y1="486.5" x2="484.49" y2="497.5"/>
			<line class="st0" x1="734.49" y1="486.5" x2="734.49" y2="497.5"/>
			<line class="st0" x1="234.49" y1="486.5" x2="234.49" y2="497.5"/>
			<line class="st0" x1="24.5" y1="91.5" x2="24.5" y2="116.35"/>
		</g>
		<g id="kV04_1_">
			<line class="st1" x1="1969.99" y1="501.56" x2="1998.99" y2="501.56"/>
			<line class="st1" x1="1720" y1="501.56" x2="1749" y2="501.56"/>
			<line class="st1" x1="1470" y1="501.56" x2="1499" y2="501.56"/>
			<line class="st1" x1="1220" y1="501.56" x2="1249" y2="501.56"/>
			<line class="st1" x1="970" y1="501.56" x2="999" y2="501.56"/>
			<line class="st1" x1="469.99" y1="501.5" x2="498.99" y2="501.5"/>
			<line class="st1" x1="719.99" y1="501.5" x2="748.99" y2="501.5"/>
			<line class="st1" x1="219.99" y1="501.5" x2="248.99" y2="501.5"/>
		</g>
		<g id="kV10">
			<line class="st2" x1="11.5" y1="87.5" x2="37.5" y2="87.5"/>
		</g>
	</g>
	<g id="points">
		<g id="kV04">
			<circle class="st3" cx="1984.49" cy="501.56" r="4"/>
			<circle class="st3" cx="1734.5" cy="501.56" r="4"/>
			<circle class="st3" cx="1484.5" cy="501.56" r="4"/>
			<circle class="st3" cx="1234.5" cy="501.56" r="4"/>
			<circle class="st3" cx="984.5" cy="501.56" r="4"/>
			<circle class="st3" cx="484.49" cy="501.5" r="4"/>
			<circle class="st3" cx="734.49" cy="501.5" r="4"/>
			<circle class="st3" cx="234.49" cy="501.5" r="4"/>
		</g>
		<g id="kV10_1_">
			<circle class="st4" cx="24.5" cy="87.5" r="4"/>
		</g>
	</g>
	<g id="arc">
		<g>
			<circle cx="24.5" cy="233.5" r="2.5"/>
			<path class="st5" d="M24.5,232c0.83,0,1.5,0.67,1.5,1.5s-0.67,1.5-1.5,1.5s-1.5-0.67-1.5-1.5S23.67,232,24.5,232 M24.5,230
				c-1.93,0-3.5,1.57-3.5,3.5s1.57,3.5,3.5,3.5s3.5-1.57,3.5-3.5S26.43,230,24.5,230L24.5,230z"/>
		</g>
		<g>
			<circle cx="234.5" cy="233.5" r="2.5"/>
			<path class="st5" d="M234.5,232c0.83,0,1.5,0.67,1.5,1.5s-0.67,1.5-1.5,1.5s-1.5-0.67-1.5-1.5S233.67,232,234.5,232 M234.5,230
				c-1.93,0-3.5,1.57-3.5,3.5s1.57,3.5,3.5,3.5s3.5-1.57,3.5-3.5S236.43,230,234.5,230L234.5,230z"/>
		</g>
		<g>
			<circle cx="484.5" cy="233.5" r="2.5"/>
			<path class="st5" d="M484.5,232c0.83,0,1.5,0.67,1.5,1.5s-0.67,1.5-1.5,1.5s-1.5-0.67-1.5-1.5S483.67,232,484.5,232 M484.5,230
				c-1.93,0-3.5,1.57-3.5,3.5s1.57,3.5,3.5,3.5c1.93,0,3.5-1.57,3.5-3.5S486.43,230,484.5,230L484.5,230z"/>
		</g>
		<g>
			<circle cx="984.5" cy="233.56" r="2.5"/>
			<path class="st5" d="M984.5,232.06c0.83,0,1.5,0.67,1.5,1.5c0,0.83-0.67,1.5-1.5,1.5s-1.5-0.67-1.5-1.5
				C983,232.73,983.67,232.06,984.5,232.06 M984.5,230.06c-1.93,0-3.5,1.57-3.5,3.5s1.57,3.5,3.5,3.5c1.93,0,3.5-1.57,3.5-3.5
				S986.43,230.06,984.5,230.06L984.5,230.06z"/>
		</g>
		<g>
			<circle cx="1234.5" cy="233.56" r="2.5"/>
			<path class="st5" d="M1234.5,232.06c0.83,0,1.5,0.67,1.5,1.5c0,0.83-0.67,1.5-1.5,1.5c-0.83,0-1.5-0.67-1.5-1.5
				C1233,232.73,1233.67,232.06,1234.5,232.06 M1234.5,230.06c-1.93,0-3.5,1.57-3.5,3.5s1.57,3.5,3.5,3.5s3.5-1.57,3.5-3.5
				S1236.43,230.06,1234.5,230.06L1234.5,230.06z"/>
		</g>
		<g>
			<circle cx="1734.5" cy="233.56" r="2.5"/>
			<path class="st5" d="M1734.5,232.06c0.83,0,1.5,0.67,1.5,1.5c0,0.83-0.67,1.5-1.5,1.5c-0.83,0-1.5-0.67-1.5-1.5
				C1733,232.73,1733.67,232.06,1734.5,232.06 M1734.5,230.06c-1.93,0-3.5,1.57-3.5,3.5s1.57,3.5,3.5,3.5s3.5-1.57,3.5-3.5
				S1736.43,230.06,1734.5,230.06L1734.5,230.06z"/>
		</g>
		<g>
			<circle cx="1484.5" cy="233.56" r="2.5"/>
			<path class="st5" d="M1484.5,232.06c0.83,0,1.5,0.67,1.5,1.5c0,0.83-0.67,1.5-1.5,1.5c-0.83,0-1.5-0.67-1.5-1.5
				C1483,232.73,1483.67,232.06,1484.5,232.06 M1484.5,230.06c-1.93,0-3.5,1.57-3.5,3.5s1.57,3.5,3.5,3.5s3.5-1.57,3.5-3.5
				S1486.43,230.06,1484.5,230.06L1484.5,230.06z"/>
		</g>
	</g>
</g>
<g id="elems">
	<g id="resists">
		<g>
			<path class="st6" d="M1988.99,354.06v18h-9v-18H1988.99 M1989.99,353.06h-1h-9h-1v1v18v1h1h9h1v-1v-18V353.06L1989.99,353.06z"/>
		</g>
		<g>
			<path class="st6" d="M1739,354.06v18h-9v-18H1739 M1740,353.06h-1h-9h-1v1v18v1h1h9h1v-1v-18V353.06L1740,353.06z"/>
		</g>
		<g>
			<path class="st6" d="M1489,354.06v18h-9v-18H1489 M1490,353.06h-1h-9h-1v1v18v1h1h9h1v-1v-18V353.06L1490,353.06z"/>
		</g>
		<g>
			<path class="st6" d="M1239,354.06v18h-9v-18H1239 M1240,353.06h-1h-9h-1v1v18v1h1h9h1v-1v-18V353.06L1240,353.06z"/>
		</g>
		<g>
			<path class="st6" d="M989,354.06v18h-9v-18H989 M990,353.06h-1h-9h-1v1v18v1h1h9h1v-1v-18V353.06L990,353.06z"/>
		</g>
		<g>
			<path class="st6" d="M488.99,354v18h-9v-18H488.99 M489.99,353h-1h-9h-1v1v18v1h1h9h1v-1v-18V353L489.99,353z"/>
		</g>
		<g>
			<path class="st6" d="M738.99,354v18h-9v-18H738.99 M739.99,353h-1h-9h-1v1v18v1h1h9h1v-1v-18V353L739.99,353z"/>
		</g>
		<g>
			<path class="st6" d="M238.99,354v18h-9v-18H238.99 M239.99,353h-1h-9h-1v1v18v1h1h9h1v-1v-18V353L239.99,353z"/>
		</g>
	</g>
	<g id="tt">
		<g>
			<path class="st6" d="M234.48,432.89c5.38,0,9.75,4.37,9.75,9.75c0,5.38-4.37,9.75-9.75,9.75c-5.38,0-9.75-4.37-9.75-9.75
				C224.73,437.25,229.09,432.89,234.48,432.89 M234.48,431.89c-5.93,0-10.75,4.82-10.75,10.75s4.82,10.75,10.75,10.75
				c5.93,0,10.75-4.82,10.75-10.75S240.4,431.89,234.48,431.89L234.48,431.89z"/>
		</g>
		<g>
			<path class="st6" d="M234.46,422.89c0.38,0,0.76,0.02,1.14,0.07c5.35,0.63,9.18,5.47,8.55,10.82c-0.58,4.96-4.79,8.62-9.67,8.62
				c-0.38,0-0.76-0.02-1.14-0.07c-5.35-0.63-9.18-5.47-8.55-10.82C225.37,426.54,229.59,422.89,234.46,422.89 M234.46,421.89
				c-5.45,0-10.03,4.08-10.66,9.5c-0.69,5.89,3.54,11.24,9.43,11.92c0.42,0.05,0.84,0.07,1.26,0.07c5.45,0,10.03-4.08,10.66-9.5
				c0.69-5.89-3.54-11.24-9.43-11.92C235.31,421.91,234.88,421.89,234.46,421.89L234.46,421.89z"/>
		</g>
		<g>
			<path class="st6" d="M734.48,432.89c5.38,0,9.75,4.37,9.75,9.75c0,5.38-4.37,9.75-9.75,9.75c-5.38,0-9.75-4.37-9.75-9.75
				C724.73,437.25,729.09,432.89,734.48,432.89 M734.48,431.89c-5.93,0-10.75,4.82-10.75,10.75s4.82,10.75,10.75,10.75
				c5.93,0,10.75-4.82,10.75-10.75S740.4,431.89,734.48,431.89L734.48,431.89z"/>
		</g>
		<g>
			<path class="st6" d="M734.46,422.89c0.38,0,0.76,0.02,1.14,0.07c5.35,0.63,9.18,5.47,8.55,10.82c-0.58,4.96-4.79,8.62-9.67,8.62
				c-0.38,0-0.76-0.02-1.14-0.07c-5.35-0.63-9.18-5.47-8.55-10.82C725.37,426.54,729.59,422.89,734.46,422.89 M734.46,421.89
				c-5.45,0-10.03,4.08-10.66,9.5c-0.33,2.85,0.46,5.66,2.24,7.92c1.78,2.25,4.33,3.68,7.18,4.01c0.42,0.05,0.84,0.07,1.26,0.07
				c5.45,0,10.03-4.08,10.66-9.5c0.69-5.89-3.54-11.24-9.43-11.92C735.31,421.91,734.88,421.89,734.46,421.89L734.46,421.89z"/>
		</g>
		<g>
			<path class="st6" d="M484.48,432.89c5.38,0,9.75,4.37,9.75,9.75c0,5.38-4.37,9.75-9.75,9.75c-5.38,0-9.75-4.37-9.75-9.75
				C474.73,437.25,479.09,432.89,484.48,432.89 M484.48,431.89c-5.93,0-10.75,4.82-10.75,10.75s4.82,10.75,10.75,10.75
				c5.93,0,10.75-4.82,10.75-10.75S490.4,431.89,484.48,431.89L484.48,431.89z"/>
		</g>
		<g>
			<path class="st6" d="M484.46,422.89c0.38,0,0.76,0.02,1.14,0.07c5.35,0.63,9.18,5.47,8.55,10.82c-0.58,4.96-4.79,8.62-9.67,8.62
				c-0.38,0-0.76-0.02-1.14-0.07c-5.35-0.63-9.18-5.47-8.55-10.82C475.37,426.54,479.59,422.89,484.46,422.89 M484.46,421.89
				c-5.45,0-10.03,4.08-10.66,9.5c-0.33,2.85,0.46,5.66,2.24,7.92s4.33,3.68,7.18,4.01c0.42,0.05,0.84,0.07,1.26,0.07
				c5.45,0,10.03-4.08,10.66-9.5c0.69-5.89-3.54-11.24-9.43-11.92C485.31,421.91,484.88,421.89,484.46,421.89L484.46,421.89z"/>
		</g>
		<g>
			<path class="st6" d="M984.48,432.94c5.38,0,9.75,4.37,9.75,9.75c0,5.38-4.37,9.75-9.75,9.75c-5.38,0-9.75-4.37-9.75-9.75
				C974.73,437.31,979.09,432.94,984.48,432.94 M984.48,431.94c-5.93,0-10.75,4.82-10.75,10.75s4.82,10.75,10.75,10.75
				c5.93,0,10.75-4.82,10.75-10.75S990.41,431.94,984.48,431.94L984.48,431.94z"/>
		</g>
		<g>
			<path class="st6" d="M984.47,422.94c0.38,0,0.76,0.02,1.14,0.07c5.35,0.63,9.18,5.47,8.55,10.82c-0.58,4.96-4.79,8.62-9.67,8.62
				c-0.38,0-0.76-0.02-1.14-0.07c-5.35-0.63-9.18-5.47-8.55-10.82C975.38,426.6,979.59,422.94,984.47,422.94 M984.47,421.94
				c-5.45,0-10.03,4.08-10.66,9.5c-0.69,5.89,3.54,11.24,9.43,11.92c0.42,0.05,0.84,0.07,1.26,0.07c5.45,0,10.03-4.08,10.66-9.5
				c0.69-5.89-3.54-11.24-9.43-11.92C985.31,421.97,984.88,421.94,984.47,421.94L984.47,421.94z"/>
		</g>
		<g>
			<path class="st6" d="M1234.48,432.94c5.38,0,9.75,4.37,9.75,9.75c0,5.38-4.37,9.75-9.75,9.75s-9.75-4.37-9.75-9.75
				C1224.73,437.31,1229.09,432.94,1234.48,432.94 M1234.48,431.94c-5.93,0-10.75,4.82-10.75,10.75s4.82,10.75,10.75,10.75
				c5.93,0,10.75-4.82,10.75-10.75S1240.41,431.94,1234.48,431.94L1234.48,431.94z"/>
		</g>
		<g>
			<path class="st6" d="M1234.47,422.94c0.38,0,0.76,0.02,1.14,0.07c5.35,0.63,9.18,5.47,8.55,10.82c-0.58,4.96-4.79,8.62-9.67,8.62
				c-0.38,0-0.76-0.02-1.14-0.07c-5.35-0.63-9.18-5.47-8.55-10.82C1225.38,426.6,1229.59,422.94,1234.47,422.94 M1234.47,421.94
				c-5.45,0-10.03,4.08-10.66,9.5c-0.69,5.89,3.54,11.24,9.43,11.92c0.42,0.05,0.84,0.07,1.26,0.07c5.45,0,10.03-4.08,10.66-9.5
				c0.33-2.85-0.46-5.66-2.24-7.91c-1.78-2.25-4.33-3.68-7.18-4.01C1235.31,421.97,1234.88,421.94,1234.47,421.94L1234.47,421.94z"
				/>
		</g>
		<g>
			<path class="st6" d="M1484.48,432.94c5.38,0,9.75,4.37,9.75,9.75c0,5.38-4.37,9.75-9.75,9.75s-9.75-4.37-9.75-9.75
				C1474.73,437.31,1479.1,432.94,1484.48,432.94 M1484.48,431.94c-5.93,0-10.75,4.82-10.75,10.75s4.82,10.75,10.75,10.75
				c5.93,0,10.75-4.82,10.75-10.75S1490.41,431.94,1484.48,431.94L1484.48,431.94z"/>
		</g>
		<g>
			<path class="st6" d="M1484.47,422.94c0.38,0,0.76,0.02,1.14,0.07c5.35,0.63,9.18,5.47,8.55,10.82c-0.58,4.96-4.79,8.62-9.67,8.62
				c-0.38,0-0.76-0.02-1.14-0.07c-5.35-0.63-9.18-5.47-8.55-10.82C1475.38,426.6,1479.59,422.94,1484.47,422.94 M1484.47,421.94
				c-5.45,0-10.03,4.08-10.66,9.5c-0.69,5.89,3.54,11.24,9.43,11.92c0.42,0.05,0.84,0.07,1.26,0.07c5.45,0,10.03-4.08,10.66-9.5
				c0.33-2.85-0.46-5.66-2.24-7.91c-1.78-2.25-4.33-3.68-7.18-4.01C1485.31,421.97,1484.89,421.94,1484.47,421.94L1484.47,421.94z"
				/>
		</g>
		<g>
			<path class="st6" d="M1734.48,432.94c5.38,0,9.75,4.37,9.75,9.75c0,5.38-4.37,9.75-9.75,9.75s-9.75-4.37-9.75-9.75
				C1724.73,437.31,1729.1,432.94,1734.48,432.94 M1734.48,431.94c-5.93,0-10.75,4.82-10.75,10.75s4.82,10.75,10.75,10.75
				s10.75-4.82,10.75-10.75S1740.41,431.94,1734.48,431.94L1734.48,431.94z"/>
		</g>
		<g>
			<path class="st6" d="M1734.47,422.94c0.38,0,0.76,0.02,1.14,0.07c5.35,0.63,9.18,5.47,8.55,10.82c-0.58,4.96-4.79,8.62-9.67,8.62
				c-0.38,0-0.76-0.02-1.14-0.07c-5.35-0.63-9.18-5.47-8.55-10.82C1725.38,426.6,1729.59,422.94,1734.47,422.94 M1734.47,421.94
				c-5.45,0-10.03,4.08-10.66,9.5c-0.69,5.89,3.54,11.24,9.43,11.92c0.42,0.05,0.84,0.07,1.26,0.07c5.45,0,10.03-4.08,10.66-9.5
				c0.33-2.85-0.46-5.66-2.24-7.91c-1.78-2.25-4.33-3.68-7.18-4.01C1735.31,421.97,1734.89,421.94,1734.47,421.94L1734.47,421.94z"
				/>
		</g>
		<g>
			<path class="st6" d="M1984.48,432.94c5.38,0,9.75,4.37,9.75,9.75c0,5.38-4.37,9.75-9.75,9.75s-9.75-4.37-9.75-9.75
				C1974.73,437.31,1979.09,432.94,1984.48,432.94 M1984.48,431.94c-5.93,0-10.75,4.82-10.75,10.75s4.82,10.75,10.75,10.75
				s10.75-4.82,10.75-10.75S1990.4,431.94,1984.48,431.94L1984.48,431.94z"/>
		</g>
		<g>
			<path class="st6" d="M1984.46,422.94c0.38,0,0.76,0.02,1.14,0.07c5.35,0.63,9.18,5.47,8.55,10.82c-0.58,4.96-4.79,8.62-9.67,8.62
				c-0.38,0-0.76-0.02-1.14-0.07c-5.35-0.63-9.18-5.47-8.55-10.82C1975.37,426.6,1979.59,422.94,1984.46,422.94 M1984.46,421.94
				c-5.45,0-10.03,4.08-10.66,9.5c-0.69,5.89,3.54,11.24,9.43,11.92c0.42,0.05,0.84,0.07,1.26,0.07c5.45,0,10.03-4.08,10.66-9.5
				c0.33-2.85-0.46-5.66-2.24-7.91c-1.78-2.25-4.33-3.68-7.18-4.01C1985.31,421.97,1984.88,421.94,1984.46,421.94L1984.46,421.94z"
				/>
		</g>
	</g>
</g>
<g id="tables">
	<g id="rect">
		<path class="st7" d="M1195.77,54.78V15.07c-0.01-2.66-2.22-4.83-4.91-4.82l-851.14,0.27c-2.7,0.01-4.9,2.19-4.89,4.84l0.02,6.24
			l0.04,32.82c0.01,2.66,2.22,4.83,4.91,4.82l851.14-0.27c2.7-0.01,4.9-2.19,4.89-4.84L1195.77,54.78z"/>
	</g>
	<g id="text">
		<g id="elem-text">
			<text transform="matrix(1 0 0 1 1999.7585 444.047)" class="st6 st8 st9">Т1</text>
			<text transform="matrix(1 0 0 1 1749.7622 444.047)" class="st6 st8 st9">Т1</text>
			<text transform="matrix(1 0 0 1 1499.7661 444.047)" class="st6 st8 st9">Т1</text>
			<text transform="matrix(1 0 0 1 1249.7601 444.047)" class="st6 st8 st9">Т1</text>
			<text transform="matrix(1 0 0 1 499.7583 443.9904)" class="st6 st8 st9">Т1</text>
			<text transform="matrix(1 0 0 1 999.7601 444.047)" class="st6 st8 st9">Т1</text>
			<text transform="matrix(1 0 0 1 749.7583 443.9904)" class="st6 st8 st9">Т1</text>
			<text transform="matrix(1 0 0 1 249.7583 443.9904)" class="st6 st8 st9">Т1</text>
		</g>
		<g id="regular">
			<text transform="matrix(0 -1 1 0 20.5 604.6816)" class="st6 st8 st10">1 ввод ТП-5ВС</text>
		</g>
		<g id="subtitles">
			<text transform="matrix(1 0 0 1 1995.3379 483.6039)" class="st6 st8 st11">1ВВ</text>
			<text transform="matrix(1 0 0 1 1995.3066 326.6938)" class="st6 st8 st11">УВН1</text>
			<text transform="matrix(1 0 0 1 1971.3064 520.1029)" class="st6 st8 st11">С-0,4</text>
			<text transform="matrix(1 0 0 1 1745.3416 483.6039)" class="st6 st8 st11">1ВВ</text>
			<text transform="matrix(1 0 0 1 1745.3103 326.6938)" class="st6 st8 st11">УВН1</text>
			<text transform="matrix(1 0 0 1 1721.3101 520.1029)" class="st6 st8 st11">С-0,4</text>
			<text transform="matrix(1 0 0 1 1495.3455 483.6039)" class="st6 st8 st11">1ВВ</text>
			<text transform="matrix(1 0 0 1 1495.3142 326.6938)" class="st6 st8 st11">УВН1</text>
			<text transform="matrix(1 0 0 1 1471.314 520.1029)" class="st6 st8 st11">С-0,4</text>
			<text transform="matrix(1 0 0 1 1245.3395 483.6039)" class="st6 st8 st11">1ВВ</text>
			<text transform="matrix(1 0 0 1 1245.3082 326.6938)" class="st6 st8 st11">УВН1</text>
			<text transform="matrix(1 0 0 1 1221.308 520.1029)" class="st6 st8 st11">С-0,4</text>
			<text transform="matrix(1 0 0 1 995.3395 483.6039)" class="st6 st8 st11">1ВВ</text>
			<text transform="matrix(1 0 0 1 995.3082 326.6938)" class="st6 st8 st11">УВН1</text>
			<text transform="matrix(1 0 0 1 971.308 520.1029)" class="st6 st8 st11">С-0,4</text>
			<text transform="matrix(1 0 0 1 495.3377 483.5474)" class="st6 st8 st11">1ВВ</text>
			<text transform="matrix(1 0 0 1 495.3064 326.6372)" class="st6 st8 st11">УВН1</text>
			<text transform="matrix(1 0 0 1 471.3062 520.0464)" class="st6 st8 st11">С-0,4</text>
			<text transform="matrix(1 0 0 1 745.3376 483.5474)" class="st6 st8 st11">1ВВ</text>
			<text transform="matrix(1 0 0 1 745.3064 326.6372)" class="st6 st8 st11">УВН1</text>
			<text transform="matrix(1 0 0 1 721.3062 520.0464)" class="st6 st8 st11">С-0,4</text>
			<text transform="matrix(1 0 0 1 245.3377 483.5474)" class="st6 st8 st11">1ВВ</text>
			<text transform="matrix(1 0 0 1 245.3064 326.6372)" class="st6 st8 st11">УВН1</text>
			<text transform="matrix(1 0 0 1 221.3062 520.0464)" class="st6 st8 st11">С-0,4</text>
			<text transform="matrix(1 0 0 1 10.6951 78.5)" class="st6 st8 st11">1С-10</text>
		</g>
		<g id="titles">
			<text transform="matrix(1 0 0 1 84.5202 269.1792)" class="st6 st8 st12">ТП-503</text>
			<text transform="matrix(1 0 0 1 587.38 269.1792)" class="st6 st8 st12">ТП-507</text>
			<text transform="matrix(1 0 0 1 837.38 269.1792)" class="st6 st8 st12">ТП-505</text>
			<text transform="matrix(1 0 0 1 1087.38 269.1792)" class="st6 st8 st12">ТП-510</text>
			<text transform="matrix(1 0 0 1 1337.3801 269.1792)" class="st6 st8 st12">ТП-511</text>
			<text transform="matrix(1 0 0 1 1837.3489 269.1792)" class="st6 st8 st12">ТП-523</text>
			<text transform="matrix(1 0 0 1 1587.3176 269.1792)" class="st6 st8 st12">ТП-517</text>
			<text transform="matrix(1 0 0 1 81.8504 84.4292)" class="st6 st8 st12">РУ-10кВ</text>
			<text transform="matrix(1 0 0 1 46.3515 157.1792)" class="st6 st8 st12">23</text>
			<text transform="matrix(1 0 0 1 1256.5933 157.1792)" class="st6 st8 st12">3Р-510</text>
			<text transform="matrix(1 0 0 1 337.38 269.1792)" class="st6 st8 st12">ТП-5ЭХЗ</text>
		</g>
		<g id="main">
			<g>
				<text transform="matrix(1 -2.470000e-03 2.470000e-03 1 541.1782 44.1327)" class="st13 st8 st14">Электроснабжение КГС, ВС ГП-51 от 1С, 2С-10кВ РУ-10кВ</text>
			</g>
		</g>
	</g>
</g>
<g id="helpers">
</g>
</svg>
