<?xml version="1.0" encoding="utf-8"?>
<!-- Generator: Adobe Illustrator 25.4.1, SVG Export Plug-In . SVG Version: 6.00 Build 0)  -->
<svg version="1.1" id="Слой_1" xmlns="http://www.w3.org/2000/svg" xmlns:xlink="http://www.w3.org/1999/xlink" x="0px" y="0px"
	 width="1912px" height="1370px" viewBox="0 0 1912 1370" style="enable-background:new 0 0 1912 1370;" xml:space="preserve">
<style type="text/css">
	.st0{fill:none;stroke:#F3C811;stroke-width:3;stroke-miterlimit:10;}
	.st1{fill:none;stroke:#A5269F;stroke-width:3;stroke-miterlimit:10;}
	.st2{fill:none;stroke:#757474;stroke-width:3;stroke-miterlimit:10;}
	.st3{fill:#FFFFFF;stroke:#F3C811;stroke-width:3;stroke-miterlimit:10;}
	.st4{fill:#FFFFFF;stroke:#A5269F;stroke-width:3;stroke-miterlimit:10;}
	.st5{fill:#FFFFFF;stroke:#757474;stroke-width:3;stroke-miterlimit:10;}
	.st6{fill:none;stroke:#6C6F7A;stroke-miterlimit:10;}
	.st7{enable-background:new    ;}
	.st8{fill:#22282D;}
	.st9{font-family:'UbuntuCondensed-Regular';}
	.st10{font-size:15px;}
	.st11{font-size:13px;}
</style>
<g id="lines">
	<g id="pipes">
		<g id="gas">
			<line class="st0" x1="453.5" y1="634" x2="453.5" y2="259"/>
			<line class="st0" x1="1145" y1="259" x2="1145" y2="582"/>
			<line class="st0" x1="1374" y1="214" x2="1374" y2="677"/>
			<polyline class="st0" points="684,581 501,581 501,629 			"/>
			<line class="st0" x1="1143.5" y1="580" x2="1351.5" y2="580"/>
			<line class="st0" x1="1374" y1="214" x2="1555" y2="214"/>
			<line class="st0" x1="683" y1="582" x2="683" y2="325"/>
			<line class="st0" x1="767" y1="214" x2="1373" y2="214"/>
			<line class="st0" x1="359" y1="214" x2="772" y2="214"/>
			<line class="st0" x1="988" y1="260" x2="452" y2="260"/>
			<line class="st0" x1="1350" y1="581" x2="1350" y2="682"/>
			<line class="st0" x1="1667" y1="214" x2="1810" y2="214"/>
		</g>
		<g id="methanol">
			<line class="st1" x1="1474" y1="699" x2="1474" y2="1022"/>
			<line class="st1" x1="415" y1="1022" x2="415" y2="1245"/>
			<line class="st1" x1="415" y1="668" x2="415" y2="1022"/>
			<line class="st1" x1="414" y1="1244" x2="1331" y2="1244"/>
			<line class="st1" x1="1789" y1="1244" x2="1473" y2="1244"/>
			<line class="st1" x1="1474" y1="1246" x2="1474" y2="1135"/>
		</g>
		<g id="drainage">
			<line class="st2" x1="277" y1="1311" x2="277" y2="1021"/>
			<line class="st2" x1="277" y1="1023" x2="277" y2="713"/>
			<line class="st2" x1="350" y1="177" x2="350" y2="52"/>
			<line class="st2" x1="350" y1="634" x2="350" y2="173"/>
			<line class="st2" x1="1615" y1="1123" x2="1615" y2="700"/>
			<line class="st2" x1="499" y1="1124" x2="499" y2="705"/>
			<line class="st2" x1="1345" y1="1024" x2="1345" y2="697"/>
			<line class="st2" x1="1345" y1="1109" x2="1345" y2="1022"/>
			<line class="st2" x1="387" y1="50" x2="120" y2="50"/>
			<line class="st2" x1="1641.5" y1="1123" x2="497.5" y2="1123"/>
			<line class="st2" x1="1807.5" y1="1123" x2="1588.5" y2="1123"/>
			<line class="st2" x1="1564" y1="48.5" x2="1564" y2="175.5"/>
			<line class="st2" x1="1564" y1="174.5" x2="1564" y2="681.5"/>
			<line class="st2" x1="275.5" y1="1312" x2="1340.5" y2="1312"/>
			<line class="st2" x1="1333.5" y1="1312" x2="1814.5" y2="1312"/>
			<line class="st2" x1="1345" y1="1172" x2="1345" y2="1312"/>
			<line class="st2" x1="345" y1="174" x2="129" y2="174"/>
			<line class="st2" x1="1567" y1="174" x2="346" y2="174"/>
			<line class="st2" x1="1345" y1="1020" x2="1476" y2="1020"/>
			<line class="st2" x1="277" y1="1020" x2="419" y2="1020"/>
			<line class="st2" x1="379" y1="50" x2="1564" y2="50"/>
		</g>
	</g>
	<g id="arc">
		<g id="gas_00000066499844932602610710000000361575388873012158_">
			<path class="st0" d="M1667,214h-96c0-3.9-3.1-7-7-7s-7,3.1-7,7h-3"/>
			<path class="st0" d="M1410,260h-29c0-3.9-3.1-8-7-8s-7,4.1-7,8H988"/>
			<path class="st0" d="M683,212v42c-3.9,0-7,2.1-7,6s3.1,7,7,7v32"/>
			<path class="st0" d="M1626,260h-56c0-3.9-3.1-7-7-7s-7,3.1-7,7h-3"/>
			<path class="st0" d="M1629,214v39c-3.9,0-7,3.1-7,7s3.1,7,7,7v18v397"/>
			<line class="st0" x1="1613" y1="260" x2="1799" y2="260"/>
			<line class="st0" x1="1399" y1="260" x2="1555" y2="260"/>
			<path class="st0" d="M370,214h-12c0-3.9-3.8-8-8-8s-7,4.1-7,8H240v419"/>
		</g>
		<g id="methanol_00000057868573603133456740000001388921015239875486_">
			<path class="st1" d="M1472,1244h-120c0-3.9-3.1-7-7-7s-7,3.1-7,7h-9"/>
			<path class="st1" d="M1474,1018v98c-3.9,0-7,3.1-7,7s3.1,7,7,7v9"/>
		</g>
		<g id="drainage_00000000943735522253061170000008247516325518149043_">
			<path class="st2" d="M1345,1179v-48c-3.9,0-8-3.1-8-7s4.1-7,8-7v-9"/>
		</g>
	</g>
	<g id="arrows">
		<g id="gas_00000165220543100963133240000011762581726339805071_">
		</g>
		<g id="methanol_00000107569571961605820970000005564565561362640569_">
		</g>
		<g id="drainage_00000014616214467739232500000015085833233809970877_">
		</g>
	</g>
	<g id="points">
		<g id="gas_00000050645983875605636920000009913742731956700835_">
			<circle class="st3" cx="1374" cy="214" r="4.5"/>
			<circle class="st3" cx="683" cy="214" r="4.5"/>
			<circle class="st3" cx="1145.5" cy="261" r="4.5"/>
			<circle class="st3" cx="1629" cy="214" r="4.5"/>
		</g>
		<g id="methanol_00000031926497339886887770000015113195375632011143_">
			<circle class="st4" cx="1474" cy="1244" r="4.5"/>
		</g>
		<g id="drainage_00000073685431108814228850000004715478444662783626_">
			<circle class="st5" cx="1615" cy="1123" r="4.5"/>
			<circle class="st5" cx="1474.5" cy="1020" r="4.5"/>
			<circle class="st5" cx="1345.5" cy="1020" r="4.5"/>
			<circle class="st5" cx="1344.5" cy="1312" r="4.5"/>
			<circle class="st5" cx="414.5" cy="1020" r="4.5"/>
			<circle class="st5" cx="350" cy="173" r="4.5"/>
			<circle class="st5" cx="350" cy="50" r="4.5"/>
			<circle class="st5" cx="1564.5" cy="174" r="4.5"/>
			<circle class="st5" cx="277.5" cy="1020" r="4.5"/>
		</g>
	</g>
</g>
<g id="tables-solid">
	<g id="t1">
		<path class="st6" d="M718.7,792.7h389.8c8.1,0,14.6,6.5,14.6,14.6v186.8c0,8.1-6.5,14.6-14.6,14.6H718.7
			c-8.1,0-15.6-6.5-15.6-14.6V807.3C703.1,799.2,710.6,792.7,718.7,792.7z"/>
	</g>
</g>
<g id="text">
	<g id="px15">
		<text transform="matrix(1 -2.470000e-03 2.470000e-03 1 733.6854 967.9245)" class="st7"><tspan x="0" y="0" class="st8 st9 st10">Общий расход газа выветривания от БЕ1,2,</tspan><tspan x="0" y="14" class="st8 st9 st10">на эжектора, тыс м³ </tspan></text>
		<text transform="matrix(1 -2.470000e-03 2.470000e-03 1 733.4437 930.2083)" class="st8 st9 st10">Общий расход НГК от БЕ1,2 на поз. 16, т </text>
		<text transform="matrix(1 -2.470000e-03 2.470000e-03 1 996.2282 942.9713)" class="st8 st9 st11"> </text>
		<text transform="matrix(1 -2.470000e-03 2.470000e-03 1 733.4437 883.9102)" class="st8 st9 st10">Общий приход НГК на БЕ1,2, т </text>
		<text transform="matrix(1 -2.470000e-03 2.470000e-03 1 733.4434 838.4822)" class="st8 st9 st10">Общее заполнение БЕ, %</text>
	</g>
	<g id="px24">
	</g>
</g>
<g id="направляющие">
</g>
<g id="SimpleElements_00000158747846426780740090000015299657398785744543_">
	<g id="separator-big-elem">
		
			<image style="overflow:visible;" width="395" height="152" id="id2" xlink:href="../../../elements/separator-h-elem/pub/default.png"  transform="matrix(1 0 0 1 1290 628)">
		</image>
		
			<image style="overflow:visible;" width="395" height="152" id="id1" xlink:href="../../../elements/separator-h-elem/pub/default.png"  transform="matrix(1 0 0 1 188 628)">
		</image>
	</g>
	<g id="valve-n-elem">
		
			<image style="overflow:visible;enable-background:new    ;" width="71" height="89" id="id3" xlink:href="../../../../../Users/evgen/OneDrive/Рабочий стол/workspace/_work/arh/Elements/valve-n-elem/pub/valve-n_h_caption.png"  transform="matrix(1 0 0 1 158.5 128.5)">
		</image>
		
			<image style="overflow:visible;enable-background:new    ;" width="71" height="89" id="id4_00000122693873452107831380000001805669128134109582_" xlink:href="../../../../../Users/evgen/OneDrive/Рабочий стол/workspace/_work/arh/Elements/valve-n-elem/pub/valve-n_h_caption.png"  transform="matrix(1 0 0 1 156.5 4.5)">
		</image>
		
			<image style="overflow:visible;enable-background:new    ;" width="98" height="71" id="id5_00000093891928684244906510000008242040307662459834_" xlink:href="../../../../../Users/evgen/OneDrive/Рабочий стол/workspace/_work/arh/Elements/valve-n-elem/pub/valve-n_v_caption.png"  transform="matrix(1 0 0 1 304 73.5)">
		</image>
		
			<image style="overflow:visible;enable-background:new    ;" width="98" height="71" id="id6_00000110446527914540142770000006777851859694008762_" xlink:href="../../../../../Users/evgen/OneDrive/Рабочий стол/workspace/_work/arh/Elements/valve-n-elem/pub/valve-n_v_caption.png"  transform="matrix(1 0 0 1 1518 73.5)">
		</image>
		
			<image style="overflow:visible;enable-background:new    ;" width="98" height="71" id="id7_00000044143047651938567490000001476540308312557744_" xlink:href="../../../../../Users/evgen/OneDrive/Рабочий стол/workspace/_work/arh/Elements/valve-n-elem/pub/valve-n_v_caption.png"  transform="matrix(1 0 0 1 639 435.5)">
		</image>
		
			<image style="overflow:visible;enable-background:new    ;" width="98" height="71" id="id8_00000130612209573238448310000004399855055184363951_" xlink:href="../../../../../Users/evgen/OneDrive/Рабочий стол/workspace/_work/arh/Elements/valve-n-elem/pub/valve-n_v_caption.png"  transform="matrix(1 0 0 1 195 435.5)">
		</image>
		
			<image style="overflow:visible;enable-background:new    ;" width="98" height="71" id="id9_00000182510710401490533640000009010958208335514757_" xlink:href="../../../../../Users/evgen/OneDrive/Рабочий стол/workspace/_work/arh/Elements/valve-n-elem/pub/valve-n_v_caption.png"  transform="matrix(1 0 0 1 408 435.5)">
		</image>
		
			<image style="overflow:visible;enable-background:new    ;" width="98" height="71" id="id10_00000134226633047541909550000000111808307739969450_" xlink:href="../../../../../Users/evgen/OneDrive/Рабочий стол/workspace/_work/arh/Elements/valve-n-elem/pub/valve-n_v_caption.png"  transform="matrix(1 0 0 1 1584 435.5)">
		</image>
		
			<image style="overflow:visible;enable-background:new    ;" width="98" height="71" id="id11_00000003071534379051862740000003083636616679950269_" xlink:href="../../../../../Users/evgen/OneDrive/Рабочий стол/workspace/_work/arh/Elements/valve-n-elem/pub/valve-n_v_caption.png"  transform="matrix(1 0 0 1 1328 435.5)">
		</image>
		
			<image style="overflow:visible;enable-background:new    ;" width="98" height="71" id="id12_00000047779395593042353430000008066465172365471935_" xlink:href="../../../../../Users/evgen/OneDrive/Рабочий стол/workspace/_work/arh/Elements/valve-n-elem/pub/valve-n_v_caption.png"  transform="matrix(1 0 0 1 1101 435.5)">
		</image>
		
			<image style="overflow:visible;enable-background:new    ;" width="98" height="71" id="id13_00000000215482758079839500000004043974413849309620_" xlink:href="../../../../../Users/evgen/OneDrive/Рабочий стол/workspace/_work/arh/Elements/valve-n-elem/pub/valve-n_v_caption.png"  transform="matrix(1 0 0 1 1329 271.5)">
		</image>
		
			<image style="overflow:visible;enable-background:new    ;" width="98" height="71" id="id14" xlink:href="../../../../../Users/evgen/OneDrive/Рабочий стол/workspace/_work/arh/Elements/valve-n-elem/pub/valve-n_v_caption.png"  transform="matrix(1 0 0 1 638 271.5)">
		</image>
		
			<image style="overflow:visible;enable-background:new    ;" width="98" height="71" id="id15_00000021816486922550712450000007218372172436478652_" xlink:href="../../../../../Users/evgen/OneDrive/Рабочий стол/workspace/_work/arh/Elements/valve-n-elem/pub/valve-n_v_caption.png"  transform="matrix(1 0 0 1 1101 271.5)">
		</image>
		
			<image style="overflow:visible;enable-background:new    ;" width="98" height="71" id="id16_00000041288630181672072070000018105969042504801950_" xlink:href="../../../../../Users/evgen/OneDrive/Рабочий стол/workspace/_work/arh/Elements/valve-n-elem/pub/valve-n_v_caption.png"  transform="matrix(1 0 0 1 408 271.5)">
		</image>
		
			<image style="overflow:visible;enable-background:new    ;" width="98" height="71" id="id17_00000093163893844933436830000011062410860547299992_" xlink:href="../../../../../Users/evgen/OneDrive/Рабочий стол/workspace/_work/arh/Elements/valve-n-elem/pub/valve-n_v_caption.png"  transform="matrix(1 0 0 1 230 868)">
		</image>
		
			<image style="overflow:visible;enable-background:new    ;" width="98" height="71" id="id19_00000020377249327306330850000018154270473698959022_" xlink:href="../../../../../Users/evgen/OneDrive/Рабочий стол/workspace/_work/arh/Elements/valve-n-elem/pub/valve-n_v_caption.png"  transform="matrix(1 0 0 1 1570 868)">
		</image>
		
			<image style="overflow:visible;enable-background:new    ;" width="98" height="71" id="id20_00000025442868331387513610000009568830639442149809_" xlink:href="../../../../../Users/evgen/OneDrive/Рабочий стол/workspace/_work/arh/Elements/valve-n-elem/pub/valve-n_v_caption.png"  transform="matrix(1 0 0 1 454 868)">
		</image>
		
			<image style="overflow:visible;enable-background:new    ;" width="98" height="71" id="id21_00000061464993109844029750000006466073994663155329_" xlink:href="../../../../../Users/evgen/OneDrive/Рабочий стол/workspace/_work/arh/Elements/valve-n-elem/pub/valve-n_v_caption.png"  transform="matrix(1 0 0 1 1428 868)">
		</image>
		
			<image style="overflow:visible;enable-background:new    ;" width="98" height="71" id="id22_00000081624261835039054540000003710239653514358444_" xlink:href="../../../../../Users/evgen/OneDrive/Рабочий стол/workspace/_work/arh/Elements/valve-n-elem/pub/valve-n_v_caption.png"  transform="matrix(1 0 0 1 370 1145.5)">
		</image>
		
			<image style="overflow:visible;enable-background:new    ;" width="98" height="71" id="id23_00000116953548648187467990000002423182662127445679_" xlink:href="../../../../../Users/evgen/OneDrive/Рабочий стол/workspace/_work/arh/Elements/valve-n-elem/pub/valve-n_v_caption.png"  transform="matrix(1 0 0 1 370 1053.5)">
		</image>
		
			<image style="overflow:visible;enable-background:new    ;" width="98" height="71" id="id24_00000019679740158256045970000007566720116044751270_" xlink:href="../../../../../Users/evgen/OneDrive/Рабочий стол/workspace/_work/arh/Elements/valve-n-elem/pub/valve-n_v_caption.png"  transform="matrix(1 0 0 1 1428 1139.5)">
		</image>
		
			<image style="overflow:visible;enable-background:new    ;" width="71" height="89" id="id25_00000179635793489704859260000001776190198549910706_" xlink:href="../../../../../Users/evgen/OneDrive/Рабочий стол/workspace/_work/arh/Elements/valve-n-elem/pub/valve-n_h_caption.png"  transform="matrix(1 0 0 1 1605.5 1268.5)">
		</image>
		
			<image style="overflow:visible;enable-background:new    ;" width="71" height="89" id="id64_00000049213956884440906930000006972783503759432612_" xlink:href="../../../../../Users/evgen/OneDrive/Рабочий стол/workspace/_work/arh/Elements/valve-n-elem/pub/valve-n_h_caption.png"  transform="matrix(1 0 0 1 1372.5 975)">
		</image>
		
			<image style="overflow:visible;enable-background:new    ;" width="71" height="89" id="id65_00000084487650703518354280000016948531835545946760_" xlink:href="../../../../../Users/evgen/OneDrive/Рабочий стол/workspace/_work/arh/Elements/valve-n-elem/pub/valve-n_h_caption.png"  transform="matrix(1 0 0 1 297.5 975)">
		</image>
	</g>
	<g id="text-box-elem">
		
			<image style="overflow:visible;enable-background:new    ;" width="31" height="19" id="id26_00000145016783196458066360000001682043495622758529_" xlink:href="../../../../../Users/evgen/OneDrive/Рабочий стол/workspace/_work/arh/Elements/text-box-elem/pub/default.png"  transform="matrix(1 0 0 1 270 164.5)">
		</image>
		
			<image style="overflow:visible;enable-background:new    ;" width="31" height="19" id="id27_00000018201213925558771380000013633334047796906645_" xlink:href="../../../../../Users/evgen/OneDrive/Рабочий стол/workspace/_work/arh/Elements/text-box-elem/pub/default.png"  transform="matrix(1 0 0 1 914.5 163.5)">
		</image>
		
			<image style="overflow:visible;enable-background:new    ;" width="31" height="19" id="id28_00000014599798141747734360000011499807181037223337_" xlink:href="../../../../../Users/evgen/OneDrive/Рабочий стол/workspace/_work/arh/Elements/text-box-elem/pub/default.png"  transform="matrix(1 0 0 1 914.5 40.5)">
		</image>
		
			<image style="overflow:visible;enable-background:new    ;" width="31" height="19" id="id29_00000133512496293890134530000015477583805744633525_" xlink:href="../../../../../Users/evgen/OneDrive/Рабочий стол/workspace/_work/arh/Elements/text-box-elem/pub/default.png"  transform="matrix(1 0 0 1 1716.5 1112.5)">
		</image>
		
			<image style="overflow:visible;enable-background:new    ;" width="31" height="19" id="id32_00000029023965796891225060000003424855346825501884_" xlink:href="../../../../../Users/evgen/OneDrive/Рабочий стол/workspace/_work/arh/Elements/text-box-elem/pub/default.png"  transform="matrix(1 0 0 1 1716.5 249.5)">
		</image>
		
			<image style="overflow:visible;enable-background:new    ;" width="31" height="19" id="id33_00000085225230440528178500000002250638686078346165_" xlink:href="../../../../../Users/evgen/OneDrive/Рабочий стол/workspace/_work/arh/Elements/text-box-elem/pub/default.png"  transform="matrix(1 0 0 1 918 1113)">
		</image>
		
			<image style="overflow:visible;" width="41" height="19" id="id30" xlink:href="../../../elements/text-box-elem/pub/default_w41.png"  transform="matrix(1 0 0 1 1711.5 202.5)">
		</image>
		
			<image style="overflow:visible;" width="41" height="19" id="id31" xlink:href="../../../elements/text-box-elem/pub/default_w41.png"  transform="matrix(1 0 0 1 1711.5 1233.5)">
		</image>
	</g>
	<g id="multi-tit-elem">
		
			<image style="overflow:visible;enable-background:new    ;" width="134" height="32" id="id41_00000119821140595441717400000014530736615979505828_" xlink:href="../../../elements/multi-tit-elem/pub/multi-tit_no-arroworient.png"  transform="matrix(1 0 0 1 12 198)">
		</image>
		
			<image style="overflow:visible;enable-background:new    ;" width="134" height="32" id="id42_00000078046236375757841630000007989531167687653787_" xlink:href="../../../elements/multi-tit-elem/pub/multi-tit_no-arroworient.png"  transform="matrix(1 0 0 1 10 74)">
		</image>
		
			<image style="overflow:visible;enable-background:new    ;" width="134" height="32" id="id44_00000044897775890854331260000000857276878068951707_" xlink:href="../../../elements/multi-tit-elem/pub/multi-tit_no-arroworient.png"  transform="matrix(1 0 0 1 1769 1065)">
		</image>
		
			<image style="overflow:visible;enable-background:new    ;" width="134" height="32" id="id50_00000096039101286834502990000014331719469299897490_" xlink:href="../../../elements/multi-tit-elem/pub/multi-tit_no-arroworient.png"  transform="matrix(1 0 0 1 491 1202)">
		</image>
		
			<image style="overflow:visible;enable-background:new    ;" width="134" height="32" id="id49_00000040567145413611012230000015878128282882402217_" xlink:href="../../../elements/multi-tit-elem/pub/multi-tit_no-arroworient.png"  transform="matrix(1 0 0 1 1533 1202)">
		</image>
		
			<image style="overflow:visible;" width="134" height="64" id="id43_00000072978022737468328900000016363942340678755733_" xlink:href="../../../elements/multi-tit-elem/pub/multi-tit_titcount-2_arroworient-left.png"  transform="matrix(1 0 0 1 477 361)">
		</image>
		
			<image style="overflow:visible;" width="134" height="64" id="id51_00000097466054863715854660000016693808422508573587_" xlink:href="../../../elements/multi-tit-elem/pub/multi-tit_titcount-2_arroworient-left.png"  transform="matrix(1 0 0 1 1169 358)">
		</image>
		
			<image style="overflow:visible;" width="152" height="32" id="id45_00000128466722163839534030000005019479046450587271_" xlink:href="../../../elements/multi-tit-elem/pub/multi-tit_arroworient-left.png"  transform="matrix(1 0 0 1 467 526)">
		</image>
		
			<image style="overflow:visible;" width="152" height="32" id="id48" xlink:href="../../../elements/multi-tit-elem/pub/multi-tit_arroworient-left.png"  transform="matrix(1 0 0 1 695 358)">
		</image>
		
			<image style="overflow:visible;" width="152" height="32" id="id46_00000182514661231649422760000005282961360243290265_" xlink:href="../../../elements/multi-tit-elem/pub/multi-tit_arroworient-left.png"  transform="matrix(1 0 0 1 1388 526)">
		</image>
		
			<image style="overflow:visible;" width="152" height="32" id="id47_00000051359746541003272860000012681841023125355190_" xlink:href="../../../elements/multi-tit-elem/pub/multi-tit_arroworient-left.png"  transform="matrix(1 0 0 1 1388 358)">
		</image>
	</g>
	<g id="transition-button-elem">
		
			<image style="overflow:visible;enable-background:new    ;" width="119" height="34" id="id34" xlink:href="../../../../../Users/evgen/OneDrive/Рабочий стол/workspace/_work/arh/Elements/transition-button-elem/pub/transition-button_arrowdirection-0.png"  transform="matrix(1 0 0 1 17.5 33)">
		</image>
		
			<image style="overflow:visible;enable-background:new    ;" width="119" height="34" id="id35" xlink:href="../../../../../Users/evgen/OneDrive/Рабочий стол/workspace/_work/arh/Elements/transition-button-elem/pub/transition-button_arrowdirection-0.png"  transform="matrix(1 0 0 1 19.5 157)">
		</image>
		
			<image style="overflow:visible;enable-background:new    ;" width="119" height="34" id="id36" xlink:href="../../../../../Users/evgen/OneDrive/Рабочий стол/workspace/_work/arh/Elements/transition-button-elem/pub/transition-button_arrowdirection-0.png"  transform="matrix(1 0 0 1 1786.5 197)">
		</image>
		
			<image style="overflow:visible;enable-background:new    ;" width="119" height="34" id="id37" xlink:href="../../../../../Users/evgen/OneDrive/Рабочий стол/workspace/_work/arh/Elements/transition-button-elem/pub/transition-button_arrowdirection-0.png"  transform="matrix(1 0 0 1 1786.5 243)">
		</image>
		
			<image style="overflow:visible;enable-background:new    ;" width="119" height="34" id="id38_00000099640799365300907070000012546065526934568848_" xlink:href="../../../../../Users/evgen/OneDrive/Рабочий стол/workspace/_work/arh/Elements/transition-button-elem/pub/transition-button_arrowdirection-0.png"  transform="matrix(1 0 0 1 1776.5 1295)">
		</image>
		
			<image style="overflow:visible;enable-background:new    ;" width="119" height="34" id="id39_00000113325170802212991470000007047230238822505905_" xlink:href="../../../../../Users/evgen/OneDrive/Рабочий стол/workspace/_work/arh/Elements/transition-button-elem/pub/transition-button_arrowdirection-0.png"  transform="matrix(1 0 0 1 1776.5 1227)">
		</image>
		
			<image style="overflow:visible;enable-background:new    ;" width="119" height="34" id="id40_00000167360603121041389510000000690430180666270645_" xlink:href="../../../../../Users/evgen/OneDrive/Рабочий стол/workspace/_work/arh/Elements/transition-button-elem/pub/transition-button_arrowdirection-0.png"  transform="matrix(1 0 0 1 1776.5 1106)">
		</image>
	</g>
	<g id="num-value-elem_00000070798006943034844930000010984102041309222549_">
		
			<image style="overflow:visible;enable-background:new    ;" width="72" height="26" id="id60_00000016761115015962036130000007877478031158529455_" xlink:href="../../../elements/num-value-elem/pub/num-value_mini.png"  transform="matrix(1 0 0 1 1019 819)">
		</image>
		
			<image style="overflow:visible;enable-background:new    ;" width="72" height="26" id="id61_00000158739773501920263030000002900412842845626783_" xlink:href="../../../elements/num-value-elem/pub/num-value_mini.png"  transform="matrix(1 0 0 1 1019 865)">
		</image>
		
			<image style="overflow:visible;enable-background:new    ;" width="72" height="26" id="id62_00000107548414370899924750000001206949402845241239_" xlink:href="../../../elements/num-value-elem/pub/num-value_mini.png"  transform="matrix(1 0 0 1 1019 911)">
		</image>
		
			<image style="overflow:visible;enable-background:new    ;" width="72" height="26" id="id63_00000111900392130622495030000017953867253994294406_" xlink:href="../../../elements/num-value-elem/pub/num-value_mini.png"  transform="matrix(1 0 0 1 1019 957)">
		</image>
	</g>
</g>
</svg>
