<?xml version="1.0" encoding="utf-8"?>
<!-- Generator: Adobe Illustrator 23.0.1, SVG Export Plug-In . SVG Version: 6.00 Build 0)  -->
<svg version="1.1" xmlns="http://www.w3.org/2000/svg" xmlns:xlink="http://www.w3.org/1999/xlink" x="0px" y="0px"
	 viewBox="0 0 1869 817" style="enable-background:new 0 0 1869 817;" xml:space="preserve">
<style type="text/css">
	.st0{fill:none;stroke:#000000;stroke-width:0.5;stroke-miterlimit:10;}
	.st1{fill:none;stroke:#6C6E7A;stroke-width:6;stroke-miterlimit:10;}
	.st2{fill:#F5F3F3;stroke:#6C6E7A;stroke-miterlimit:10;}
	.st3{fill:#909091;}
	.st4{fill-rule:evenodd;clip-rule:evenodd;fill:none;stroke:#000000;stroke-width:0.5;stroke-miterlimit:10;}
	.st5{fill-rule:evenodd;clip-rule:evenodd;fill:none;stroke:#909091;stroke-miterlimit:10;}
	.st6{font-family:'UbuntuCondensed-Regular';}
	.st7{font-size:12px;}
	.st8{font-size:14px;}
	.st9{font-size:20px;}
</style>
<g id="SimpleElements">
	<g id="disconnector-elem">
		
			<image style="overflow:visible;" width="16" height="11" id="id3" xlink:href="../../../elements/disconnector-elem/pub/default.png"  transform="matrix(0 -1 1 0 831.647 71)">
		</image>
		
			<image style="overflow:visible;" width="16" height="11" id="id4" xlink:href="../../../elements/disconnector-elem/pub/default.png"  transform="matrix(0 -1 1 0 994.96 71)">
		</image>
		
			<image style="overflow:visible;" width="16" height="11" id="id5" xlink:href="../../../elements/disconnector-elem/pub/default.png"  transform="matrix(0 -1 1 0 19.231 743.504)">
		</image>
		
			<image style="overflow:visible;" width="16" height="11" id="id6" xlink:href="../../../elements/disconnector-elem/pub/default.png"  transform="matrix(0 -1 1 0 148.75 743.504)">
		</image>
		
			<image style="overflow:visible;" width="16" height="11" id="id7" xlink:href="../../../elements/disconnector-elem/pub/default.png"  transform="matrix(0 -1 1 0 255.607 743.504)">
		</image>
		
			<image style="overflow:visible;" width="16" height="11" id="id8" xlink:href="../../../elements/disconnector-elem/pub/default.png"  transform="matrix(0 -1 1 0 383.607 743.504)">
		</image>
		
			<image style="overflow:visible;" width="16" height="11" id="id9" xlink:href="../../../elements/disconnector-elem/pub/default.png"  transform="matrix(0 -1 1 0 488.698 743.504)">
		</image>
		
			<image style="overflow:visible;" width="16" height="11" id="id10" xlink:href="../../../elements/disconnector-elem/pub/default.png"  transform="matrix(0 -1 1 0 620.044 743.504)">
		</image>
		
			<image style="overflow:visible;" width="16" height="11" id="id11" xlink:href="../../../elements/disconnector-elem/pub/default.png"  transform="matrix(0 -1 1 0 990.726 743.504)">
		</image>
		
			<image style="overflow:visible;" width="16" height="11" id="id12" xlink:href="../../../elements/disconnector-elem/pub/default.png"  transform="matrix(0 -1 1 0 1120.226 743.504)">
		</image>
		
			<image style="overflow:visible;" width="16" height="11" id="id13" xlink:href="../../../elements/disconnector-elem/pub/default.png"  transform="matrix(0 -1 1 0 1226.226 743.504)">
		</image>
		
			<image style="overflow:visible;" width="16" height="11" id="id14" xlink:href="../../../elements/disconnector-elem/pub/default.png"  transform="matrix(0 -1 1 0 1355.726 743.504)">
		</image>
		
			<image style="overflow:visible;" width="16" height="11" id="id15" xlink:href="../../../elements/disconnector-elem/pub/default.png"  transform="matrix(0 -1 1 0 1461.161 743.504)">
		</image>
		
			<image style="overflow:visible;" width="16" height="11" id="id16" xlink:href="../../../elements/disconnector-elem/pub/default.png"  transform="matrix(0 -1 1 0 1590.661 743.504)">
		</image>
		
			<image style="overflow:visible;" width="16" height="11" id="id17" xlink:href="../../../elements/disconnector-elem/pub/default.png"  transform="matrix(0 -1 1 0 1695.73 743.504)">
		</image>
		
			<image style="overflow:visible;" width="16" height="11" id="id18" xlink:href="../../../elements/disconnector-elem/pub/default.png"  transform="matrix(0 -1 1 0 1825.248 743.504)">
		</image>
		
			<image style="overflow:visible;" width="16" height="11" id="id19" xlink:href="../../../elements/disconnector-elem/pub/default.png"  transform="matrix(0 1 -1 0 159.75 760)">
		</image>
		
			<image style="overflow:visible;" width="16" height="11" id="id20" xlink:href="../../../elements/disconnector-elem/pub/default.png"  transform="matrix(0 1 -1 0 30.231 760)">
		</image>
		
			<image style="overflow:visible;" width="16" height="11" id="id21" xlink:href="../../../elements/disconnector-elem/pub/default.png"  transform="matrix(0 -1 1 0 488.698 776)">
		</image>
		
			<image style="overflow:visible;" width="16" height="11" id="id22" xlink:href="../../../elements/disconnector-elem/pub/default.png"  transform="matrix(0 -1 1 0 620.044 776)">
		</image>
		
			<image style="overflow:visible;" width="16" height="11" id="id23" xlink:href="../../../elements/disconnector-elem/pub/default.png"  transform="matrix(0 -1 1 0 724 776)">
		</image>
		
			<image style="overflow:visible;" width="16" height="11" id="id24" xlink:href="../../../elements/disconnector-elem/pub/default.png"  transform="matrix(0 -1 1 0 724 744)">
		</image>
		
			<image style="overflow:visible;" width="16" height="11" id="id25" xlink:href="../../../elements/disconnector-elem/pub/default.png"  transform="matrix(0 -1 1 0 886 744)">
		</image>
		
			<image style="overflow:visible;" width="16" height="11" id="id26" xlink:href="../../../elements/disconnector-elem/pub/default.png"  transform="matrix(0 -1 1 0 886 776)">
		</image>
	</g>
	<g id="disconnector-cart-elem">
		
			<image style="overflow:visible;" width="14" height="58" id="id27" xlink:href="../../../elements/disconnector-cart-elem/pub/default.png"  transform="matrix(1 0 0 1 17.5 320.7)">
		</image>
		
			<image style="overflow:visible;" width="14" height="58" id="id28" xlink:href="../../../elements/disconnector-cart-elem/pub/default.png"  transform="matrix(1 0 0 1 82.5 320.7)">
		</image>
		
			<image style="overflow:visible;" width="14" height="58" id="id29" xlink:href="../../../elements/disconnector-cart-elem/pub/default.png"  transform="matrix(1 0 0 1 147.5 320.7)">
		</image>
		
			<image style="overflow:visible;" width="14" height="58" id="id30" xlink:href="../../../elements/disconnector-cart-elem/pub/default.png"  transform="matrix(1 0 0 1 212.5 320.7)">
		</image>
		
			<image style="overflow:visible;" width="14" height="58" id="id31" xlink:href="../../../elements/disconnector-cart-elem/pub/default.png"  transform="matrix(1 0 0 1 277.932 320.7)">
		</image>
		
			<image style="overflow:visible;" width="14" height="58" id="id32" xlink:href="../../../elements/disconnector-cart-elem/pub/default.png"  transform="matrix(1 0 0 1 342.5 320.7)">
		</image>
		
			<image style="overflow:visible;" width="14" height="58" id="id33" xlink:href="../../../elements/disconnector-cart-elem/pub/default.png"  transform="matrix(1 0 0 1 407.5 320.7)">
		</image>
		
			<image style="overflow:visible;" width="14" height="58" id="id34" xlink:href="../../../elements/disconnector-cart-elem/pub/default.png"  transform="matrix(1 0 0 1 472.5 320.7)">
		</image>
		
			<image style="overflow:visible;" width="14" height="58" id="id35" xlink:href="../../../elements/disconnector-cart-elem/pub/default.png"  transform="matrix(1 0 0 1 537.5 320.7)">
		</image>
		
			<image style="overflow:visible;" width="14" height="58" id="id36" xlink:href="../../../elements/disconnector-cart-elem/pub/default.png"  transform="matrix(1 0 0 1 830.147 209.8985)">
		</image>
		
			<image style="overflow:visible;" width="14" height="58" id="id37" xlink:href="../../../elements/disconnector-cart-elem/pub/default.png"  transform="matrix(0 -1 1 0 890.083 273.5)">
		</image>
		
			<image style="overflow:visible;" width="14" height="58" id="id38" xlink:href="../../../elements/disconnector-cart-elem/pub/default.png"  transform="matrix(1 0 0 1 993.46 209.6955)">
		</image>
		
			<image style="overflow:visible;" width="14" height="58" id="id39" xlink:href="../../../elements/disconnector-cart-elem/pub/default.png"  transform="matrix(0 -1 1 0 1737.884 758.202)">
		</image>
		
			<image style="overflow:visible;" width="14" height="58" id="id40" xlink:href="../../../elements/disconnector-cart-elem/pub/default.png"  transform="matrix(0 -1 1 0 1502.6801 757.501)">
		</image>
		
			<image style="overflow:visible;" width="14" height="58" id="id41" xlink:href="../../../elements/disconnector-cart-elem/pub/default.png"  transform="matrix(0 -1 1 0 1032.244 757.501)">
		</image>
		
			<image style="overflow:visible;" width="14" height="58" id="id42" xlink:href="../../../elements/disconnector-cart-elem/pub/default.png"  transform="matrix(0 -1 1 0 295.719 757.491)">
		</image>
		
			<image style="overflow:visible;" width="14" height="58" id="id43" xlink:href="../../../elements/disconnector-cart-elem/pub/default.png"  transform="matrix(1 0 0 1 1025.5 489.741)">
		</image>
		
			<image style="overflow:visible;" width="14" height="58" id="id44_1_" xlink:href="../../../elements/disconnector-cart-elem/pub/default.png"  transform="matrix(0 1 -1 0 1325.744 743.501)">
		</image>
		
			<image style="overflow:visible;" width="14" height="58" id="id45" xlink:href="../../../elements/disconnector-cart-elem/pub/default.png"  transform="matrix(1 0 0 1 602.5 320.7)">
		</image>
		
			<image style="overflow:visible;" width="14" height="58" id="id46_1_" xlink:href="../../../elements/disconnector-cart-elem/pub/default.png"  transform="matrix(1 0 0 1 667.5 320.7)">
		</image>
		
			<image style="overflow:visible;" width="14" height="58" id="id47" xlink:href="../../../elements/disconnector-cart-elem/pub/default.png"  transform="matrix(1 0 0 1 732.5 320.7)">
		</image>
		
			<image style="overflow:visible;" width="14" height="58" id="id48" xlink:href="../../../elements/disconnector-cart-elem/pub/default.png"  transform="matrix(1 0 0 1 797.5 320.7)">
		</image>
		
			<image style="overflow:visible;" width="14" height="58" id="id49" xlink:href="../../../elements/disconnector-cart-elem/pub/default.png"  transform="matrix(1 0 0 1 1025.5 320.7)">
		</image>
		
			<image style="overflow:visible;" width="14" height="58" id="id50" xlink:href="../../../elements/disconnector-cart-elem/pub/default.png"  transform="matrix(1 0 0 1 1058.5 320.7)">
		</image>
		
			<image style="overflow:visible;" width="14" height="58" id="id51" xlink:href="../../../elements/disconnector-cart-elem/pub/default.png"  transform="matrix(1 0 0 1 1123.5 320.7)">
		</image>
		
			<image style="overflow:visible;" width="14" height="58" id="id52" xlink:href="../../../elements/disconnector-cart-elem/pub/default.png"  transform="matrix(1 0 0 1 1188.5 320.7)">
		</image>
		
			<image style="overflow:visible;" width="14" height="58" id="id53" xlink:href="../../../elements/disconnector-cart-elem/pub/default.png"  transform="matrix(1 0 0 1 1253.932 320.7)">
		</image>
		
			<image style="overflow:visible;" width="14" height="58" id="id54" xlink:href="../../../elements/disconnector-cart-elem/pub/default.png"  transform="matrix(1 0 0 1 1318.5 320.7)">
		</image>
		
			<image style="overflow:visible;" width="14" height="58" id="id55" xlink:href="../../../elements/disconnector-cart-elem/pub/default.png"  transform="matrix(1 0 0 1 1383.5 320.7)">
		</image>
		
			<image style="overflow:visible;" width="14" height="58" id="id56" xlink:href="../../../elements/disconnector-cart-elem/pub/default.png"  transform="matrix(1 0 0 1 1448.5 320.7)">
		</image>
		
			<image style="overflow:visible;" width="14" height="58" id="id57" xlink:href="../../../elements/disconnector-cart-elem/pub/default.png"  transform="matrix(1 0 0 1 1513.5 320.7)">
		</image>
		
			<image style="overflow:visible;" width="14" height="58" id="id58" xlink:href="../../../elements/disconnector-cart-elem/pub/default.png"  transform="matrix(1 0 0 1 1578.5 320.7)">
		</image>
		
			<image style="overflow:visible;" width="14" height="58" id="id59" xlink:href="../../../elements/disconnector-cart-elem/pub/default.png"  transform="matrix(1 0 0 1 1643.5 320.7)">
		</image>
		
			<image style="overflow:visible;" width="14" height="58" id="id60" xlink:href="../../../elements/disconnector-cart-elem/pub/default.png"  transform="matrix(1 0 0 1 1708.5 320.7)">
		</image>
		
			<image style="overflow:visible;" width="14" height="58" id="id61" xlink:href="../../../elements/disconnector-cart-elem/pub/default.png"  transform="matrix(1 0 0 1 1773.5 320.7)">
		</image>
		
			<image style="overflow:visible;" width="14" height="58" id="id62" xlink:href="../../../elements/disconnector-cart-elem/pub/default.png"  transform="matrix(1 0 0 1 1838.5 320.7)">
		</image>
	</g>
	<g id="earthing-knife-elem">
		
			<image style="overflow:visible;" width="45" height="18" id="id1" xlink:href="../../../elements/earthing-knife-elem/pub/default.png"  transform="matrix(1 0 0 1 834.147 121.5)">
		</image>
		
			<image style="overflow:visible;" width="45" height="18" id="id2" xlink:href="../../../elements/earthing-knife-elem/pub/default.png"  transform="matrix(1 0 0 1 997.46 121.5)">
		</image>
	</g>
	<g id="multi-tit-elem">
		
			<image style="overflow:visible;" width="134" height="225" id="id63" xlink:href="../../../elements/multi-tit-elem/pub/multi-tit_titcount-7_no-arroworient.png"  transform="matrix(1.1071 0 0 1.1071 596.3264 16.9547)">
		</image>
		
			<image style="overflow:visible;" width="134" height="225" id="id64" xlink:href="../../../elements/multi-tit-elem/pub/multi-tit_titcount-7_no-arroworient.png"  transform="matrix(1.1071 0 0 1.1071 1094.3264 16.9547)">
		</image>
	</g>
</g>
<g id="helpers">
</g>
<g id="lines">
	<g id="pipes">
		<g id="lep">
			<line class="st0" x1="1830.75" y1="638" x2="1830.75" y2="728"/>
			<line class="st0" x1="1830.77" y1="743.01" x2="1830.77" y2="783.53"/>
			<line class="st0" x1="1701.23" y1="638" x2="1701.23" y2="728"/>
			<line class="st0" x1="1701.25" y1="743.01" x2="1701.25" y2="783.53"/>
			<line class="st0" x1="1596.16" y1="638" x2="1596.16" y2="728"/>
			<line class="st0" x1="1596.18" y1="743.01" x2="1596.18" y2="783.53"/>
			<line class="st0" x1="1466.66" y1="638" x2="1466.66" y2="728"/>
			<line class="st0" x1="1466.68" y1="743.01" x2="1466.68" y2="783.53"/>
			<line class="st0" x1="1361.23" y1="638" x2="1361.23" y2="728"/>
			<line class="st0" x1="729.56" y1="636.82" x2="729.56" y2="729.98"/>
			<line class="st0" x1="891.58" y1="639.18" x2="891.58" y2="732.33"/>
			<polyline class="st0" points="1032.88,750.5 1028.74,750.5 1028.74,783.53 			"/>
			<polyline class="st0" points="1093.74,783.53 1093.74,750.5 1089.74,750.5 			"/>
			<polyline class="st0" points="296.22,750.5 292.13,750.5 292.13,783.53 			"/>
			<polyline class="st0" points="353.03,750.5 357.13,750.5 357.13,783.53 			"/>
			<polyline class="st0" points="1268.38,750.5 1264.24,750.5 1264.24,783.53 			"/>
			<polyline class="st0" points="1329.24,783.53 1329.24,750.5 1325.24,750.5 			"/>
			<polyline class="st0" points="1503.31,750.5 1499.18,750.5 1499.18,783.53 			"/>
			<polyline class="st0" points="1564.18,783.53 1564.18,750.5 1560.18,750.5 			"/>
			<polyline class="st0" points="1738.51,751.2 1734.38,751.2 1734.38,784.23 			"/>
			<polyline class="st0" points="1799.38,784.23 1799.38,751.2 1795.38,751.2 			"/>
			<line class="st0" x1="389.13" y1="743.01" x2="389.13" y2="783.53"/>
			<line class="st0" x1="261.11" y1="638" x2="261.11" y2="728"/>
			<line class="st0" x1="261.13" y1="743.01" x2="261.13" y2="783.53"/>
			<line class="st0" x1="24.73" y1="638" x2="24.73" y2="728"/>
			<polyline class="st0" points="122.25,783.53 122.25,750.5 57.25,750.5 57.25,783.53 			"/>
			<polyline class="st0" points="592.06,783.53 592.06,750.5 527.06,750.5 527.06,783.53 			"/>
			<polyline class="st0" points="794.5,783.53 794.5,768.67 762,768.67 762,783.53 			"/>
			<polyline class="st0" points="859.58,783.53 859.58,768.67 827.08,768.67 827.08,783.53 			"/>
			<line class="st0" x1="154.25" y1="638" x2="154.25" y2="728"/>
			<line class="st0" x1="837.15" y1="15" x2="837.15" y2="31"/>
			<line class="st0" x1="24.5" y1="300.2" x2="24.5" y2="321.2"/>
			<line class="st0" x1="24.5" y1="378.2" x2="24.5" y2="485"/>
			<line class="st0" x1="89.5" y1="300.2" x2="89.5" y2="321.2"/>
			<line class="st0" x1="89.5" y1="378.2" x2="89.5" y2="485"/>
			<line class="st0" x1="154.5" y1="300.2" x2="154.5" y2="321.2"/>
			<line class="st0" x1="154.5" y1="378.2" x2="154.5" y2="485"/>
			<line class="st0" x1="219.5" y1="300.2" x2="219.5" y2="321.2"/>
			<line class="st0" x1="219.5" y1="378.2" x2="219.5" y2="485"/>
			<line class="st0" x1="284.93" y1="300.2" x2="284.93" y2="321.2"/>
			<line class="st0" x1="284.93" y1="378.2" x2="284.93" y2="485"/>
			<line class="st0" x1="349.5" y1="300.2" x2="349.5" y2="321.2"/>
			<line class="st0" x1="349.5" y1="378.2" x2="349.5" y2="485"/>
			<line class="st0" x1="414.5" y1="300.2" x2="414.5" y2="321.2"/>
			<line class="st0" x1="414.5" y1="378.2" x2="414.5" y2="485"/>
			<line class="st0" x1="479.5" y1="300.2" x2="479.5" y2="321.2"/>
			<line class="st0" x1="479.5" y1="378.2" x2="479.5" y2="485"/>
			<line class="st0" x1="544.5" y1="300.2" x2="544.5" y2="321.2"/>
			<line class="st0" x1="544.5" y1="378.2" x2="544.5" y2="485"/>
			<line class="st0" x1="609.5" y1="300.2" x2="609.5" y2="321.2"/>
			<line class="st0" x1="609.5" y1="378.2" x2="609.5" y2="485"/>
			<line class="st0" x1="674.5" y1="298" x2="674.5" y2="321.2"/>
			<line class="st0" x1="674.5" y1="378.2" x2="674.5" y2="485"/>
			<line class="st0" x1="739.5" y1="298" x2="739.5" y2="321.2"/>
			<line class="st0" x1="739.5" y1="378.2" x2="739.5" y2="485"/>
			<line class="st0" x1="804.5" y1="298" x2="804.5" y2="321.2"/>
			<line class="st0" x1="804.5" y1="378.2" x2="804.5" y2="485"/>
			<line class="st0" x1="1065.5" y1="298" x2="1065.5" y2="321.2"/>
			<line class="st0" x1="1065.5" y1="378.2" x2="1065.5" y2="485"/>
			<line class="st0" x1="1130.5" y1="298" x2="1130.5" y2="321.2"/>
			<line class="st0" x1="1130.5" y1="378.2" x2="1130.5" y2="485"/>
			<line class="st0" x1="1195.5" y1="298" x2="1195.5" y2="321.2"/>
			<line class="st0" x1="1195.5" y1="378.2" x2="1195.5" y2="485"/>
			<line class="st0" x1="1260.93" y1="298" x2="1260.93" y2="321.2"/>
			<line class="st0" x1="1260.93" y1="378.2" x2="1260.93" y2="485"/>
			<line class="st0" x1="1325.5" y1="298" x2="1325.5" y2="321.2"/>
			<line class="st0" x1="1325.5" y1="378.2" x2="1325.5" y2="485"/>
			<line class="st0" x1="1390.5" y1="298" x2="1390.5" y2="321.2"/>
			<line class="st0" x1="1390.5" y1="378.2" x2="1390.5" y2="485"/>
			<line class="st0" x1="1455.5" y1="298" x2="1455.5" y2="321.2"/>
			<line class="st0" x1="1455.5" y1="378.2" x2="1455.5" y2="485"/>
			<line class="st0" x1="1520.5" y1="298" x2="1520.5" y2="319"/>
			<line class="st0" x1="1520.5" y1="378.2" x2="1520.5" y2="485"/>
			<line class="st0" x1="1585.5" y1="298" x2="1585.5" y2="319"/>
			<line class="st0" x1="1585.5" y1="378.2" x2="1585.5" y2="485"/>
			<line class="st0" x1="1650.5" y1="298" x2="1650.5" y2="319"/>
			<line class="st0" x1="1650.5" y1="378.2" x2="1650.5" y2="485"/>
			<line class="st0" x1="1715.5" y1="298" x2="1715.5" y2="319"/>
			<line class="st0" x1="1715.5" y1="378.2" x2="1715.5" y2="485"/>
			<line class="st0" x1="1780.5" y1="298" x2="1780.5" y2="319"/>
			<line class="st0" x1="1780.5" y1="378.2" x2="1780.5" y2="485"/>
			<line class="st0" x1="1845.5" y1="298" x2="1845.5" y2="321.2"/>
			<line class="st0" x1="1845.5" y1="378.2" x2="1845.5" y2="485"/>
			<line class="st0" x1="1032.5" y1="298" x2="1032.5" y2="321.2"/>
			<line class="st0" x1="1032.5" y1="378.2" x2="1032.5" y2="490.24"/>
			<line class="st0" x1="837.15" y1="39.7" x2="837.15" y2="55.5"/>
			<line class="st0" x1="837.15" y1="184.5" x2="837.15" y2="210.3"/>
			<line class="st0" x1="837.15" y1="267.2" x2="837.15" y2="290"/>
			<line class="st0" x1="837.15" y1="70.5" x2="837.15" y2="155"/>
			<line class="st0" x1="1000.46" y1="15" x2="1000.46" y2="31"/>
			<line class="st0" x1="1000.46" y1="39.7" x2="1000.46" y2="55.5"/>
			<line class="st0" x1="1000.46" y1="184.5" x2="1000.46" y2="210.3"/>
			<line class="st0" x1="1000.46" y1="70.5" x2="1000.46" y2="155"/>
			<line class="st0" x1="1000.5" y1="267.45" x2="1000.5" y2="253.25"/>
			<line class="st0" x1="1000.5" y1="268.95" x2="1000.5" y2="290"/>
			<line class="st0" x1="1032.5" y1="547.24" x2="1032.5" y2="561.3"/>
			<line class="st0" x1="1361.24" y1="743.01" x2="1361.24" y2="783.53"/>
			<line class="st0" x1="1231.73" y1="638" x2="1231.73" y2="728"/>
			<line class="st0" x1="1231.74" y1="743.01" x2="1231.74" y2="783.53"/>
			<line class="st0" x1="1125.73" y1="638" x2="1125.73" y2="728"/>
			<line class="st0" x1="1125.74" y1="743.01" x2="1125.74" y2="783.53"/>
			<line class="st0" x1="996.23" y1="638" x2="996.23" y2="728"/>
			<line class="st0" x1="996.24" y1="743.01" x2="996.24" y2="783.53"/>
			<line class="st0" x1="625.54" y1="638" x2="625.54" y2="728"/>
			<line class="st0" x1="625.56" y1="743.01" x2="625.56" y2="760.06"/>
			<line class="st0" x1="494.2" y1="638" x2="494.2" y2="728"/>
			<line class="st0" x1="494.22" y1="743.01" x2="494.22" y2="760.06"/>
			<line class="st0" x1="389.11" y1="638" x2="389.11" y2="728"/>
			<line class="st0" x1="154.27" y1="743.01" x2="154.27" y2="760.06"/>
			<line class="st0" x1="24.71" y1="743.01" x2="24.71" y2="760.06"/>
			<polyline class="st0" points="890.58,266.5 869.5,266.5 869.5,290 			"/>
			<polyline class="st0" points="947.58,266.5 968.54,266.5 968.54,290 			"/>
			<line class="st0" x1="891.58" y1="783.53" x2="891.58" y2="773.93"/>
			<line class="st0" x1="891.58" y1="760.06" x2="891.58" y2="745.46"/>
			<line class="st0" x1="729.56" y1="783.53" x2="729.56" y2="773.93"/>
			<line class="st0" x1="625.56" y1="783.53" x2="625.56" y2="773.93"/>
			<line class="st0" x1="494.18" y1="783.53" x2="494.18" y2="773.93"/>
			<line class="st0" x1="154.27" y1="783.53" x2="154.27" y2="773.93"/>
			<line class="st0" x1="24.68" y1="783.53" x2="24.68" y2="773.93"/>
			<line class="st0" x1="729.56" y1="760.06" x2="729.56" y2="745.46"/>
		</g>
		<g id="kV04_1_">
			<line class="st1" x1="11.5" y1="787.5" x2="69.5" y2="787.5"/>
			<line class="st1" x1="109.25" y1="787.5" x2="167.25" y2="787.5"/>
			<line class="st1" x1="246.63" y1="787.5" x2="304.63" y2="787.5"/>
			<line class="st1" x1="344.13" y1="787.5" x2="402.13" y2="787.5"/>
			<line class="st1" x1="481.56" y1="787.5" x2="539.56" y2="787.5"/>
			<line class="st1" x1="579.06" y1="787.5" x2="637.06" y2="787.5"/>
			<line class="st1" x1="716.56" y1="787.5" x2="774.56" y2="787.5"/>
			<line class="st1" x1="781.5" y1="787.5" x2="839.5" y2="787.5"/>
			<line class="st1" x1="846.58" y1="787.5" x2="904.58" y2="787.5"/>
			<line class="st1" x1="983.24" y1="787.5" x2="1041.24" y2="787.5"/>
			<line class="st1" x1="1080.74" y1="787.5" x2="1138.74" y2="787.5"/>
			<line class="st1" x1="1218.74" y1="787.5" x2="1276.74" y2="787.5"/>
			<line class="st1" x1="1316.24" y1="787.5" x2="1374.24" y2="787.5"/>
			<line class="st1" x1="1453.68" y1="787.5" x2="1511.68" y2="787.5"/>
			<line class="st1" x1="1551.18" y1="787.5" x2="1609.18" y2="787.5"/>
			<line class="st1" x1="1688.25" y1="787.5" x2="1746.25" y2="787.5"/>
			<line class="st1" x1="1785.75" y1="787.5" x2="1843.75" y2="787.5"/>
			<line class="st1" x1="11.5" y1="294" x2="882.5" y2="294"/>
			<line class="st1" x1="955.5" y1="294" x2="1858.5" y2="294"/>
		</g>
	</g>
	<g id="points">
		<g id="kV04">
			<circle class="st2" cx="24.48" cy="294" r="4"/>
			<circle class="st2" cx="89.54" cy="294" r="4"/>
			<circle class="st2" cx="154.52" cy="294" r="4"/>
			<circle class="st2" cx="219.35" cy="294" r="4"/>
			<circle class="st2" cx="284.95" cy="294" r="4"/>
			<circle class="st2" cx="349.48" cy="294" r="4"/>
			<circle class="st2" cx="414.54" cy="294" r="4"/>
			<circle class="st2" cx="479.48" cy="294" r="4"/>
			<circle class="st2" cx="544.54" cy="294" r="4"/>
			<circle class="st2" cx="609.52" cy="294" r="4"/>
			<circle class="st2" cx="674.48" cy="294" r="4"/>
			<circle class="st2" cx="739.48" cy="294" r="4"/>
			<circle class="st2" cx="804.48" cy="294" r="4"/>
			<circle class="st2" cx="837.15" cy="294" r="4"/>
			<circle class="st2" cx="869.5" cy="294" r="4"/>
			<circle class="st2" cx="968.67" cy="294" r="4"/>
			<circle class="st2" cx="1000.5" cy="294" r="4"/>
			<circle class="st2" cx="1032.51" cy="294" r="4"/>
			<circle class="st2" cx="1065.54" cy="294" r="4"/>
			<circle class="st2" cx="1130.54" cy="294" r="4"/>
			<circle class="st2" cx="1195.48" cy="294" r="4"/>
			<circle class="st2" cx="1260.91" cy="294" r="4"/>
			<circle class="st2" cx="1325.48" cy="294" r="4"/>
			<circle class="st2" cx="1390.54" cy="294" r="4"/>
			<circle class="st2" cx="1455.48" cy="294" r="4"/>
			<circle class="st2" cx="1520.48" cy="294" r="4"/>
			<circle class="st2" cx="1585.48" cy="294" r="4"/>
			<circle class="st2" cx="1650.39" cy="294" r="4"/>
			<circle class="st2" cx="1715.52" cy="294" r="4"/>
			<circle class="st2" cx="1780.72" cy="294" r="4"/>
			<circle class="st2" cx="1845.48" cy="294" r="4"/>
			<circle class="st2" cx="1830.77" cy="787.53" r="4"/>
			<circle class="st2" cx="1701.25" cy="787.53" r="4"/>
			<circle class="st2" cx="1596.18" cy="787.53" r="4"/>
			<circle class="st2" cx="1466.68" cy="787.53" r="4"/>
			<circle class="st2" cx="1361.24" cy="787.53" r="4"/>
			<circle class="st2" cx="1231.74" cy="787.53" r="4"/>
			<circle class="st2" cx="1125.74" cy="787.53" r="4"/>
			<circle class="st2" cx="996.24" cy="787.53" r="4"/>
			<circle class="st2" cx="625.56" cy="787.53" r="4"/>
			<circle class="st2" cx="494.22" cy="787.53" r="4"/>
			<circle class="st2" cx="389.13" cy="787.53" r="4"/>
			<circle class="st2" cx="261.13" cy="787.53" r="4"/>
			<circle class="st2" cx="154.27" cy="787.53" r="4"/>
			<circle class="st2" cx="24.75" cy="787.53" r="4"/>
			<circle class="st2" cx="57.25" cy="787.53" r="4"/>
			<circle class="st2" cx="122.25" cy="787.53" r="4"/>
			<circle class="st2" cx="292.13" cy="787.53" r="4"/>
			<circle class="st2" cx="357.13" cy="787.53" r="4"/>
			<circle class="st2" cx="527.06" cy="787.53" r="4"/>
			<circle class="st2" cx="592.06" cy="787.53" r="4"/>
			<circle class="st2" cx="762.06" cy="787.53" r="4"/>
			<circle class="st2" cx="729.56" cy="787.53" r="4"/>
			<circle class="st2" cx="761.82" cy="787.53" r="4"/>
			<circle class="st2" cx="794.5" cy="787.53" r="4"/>
			<circle class="st2" cx="827.08" cy="787.53" r="4"/>
			<circle class="st2" cx="859.58" cy="787.53" r="4"/>
			<circle class="st2" cx="891.58" cy="787.53" r="4"/>
			<circle class="st2" cx="1028.74" cy="787.53" r="4"/>
			<circle class="st2" cx="1093.74" cy="787.53" r="4"/>
			<circle class="st2" cx="1264.24" cy="787.53" r="4"/>
			<circle class="st2" cx="1329.24" cy="787.53" r="4"/>
			<circle class="st2" cx="1499.18" cy="787.53" r="4"/>
			<circle class="st2" cx="1564.18" cy="787.53" r="4"/>
			<circle class="st2" cx="1734.4" cy="787.53" r="4"/>
			<circle class="st2" cx="1799.38" cy="787.53" r="4"/>
		</g>
	</g>
</g>
<g id="elems">
	<g id="resists">
		<g>
			<path class="st3" d="M841.65,86.34v18h-9v-18H841.65 M842.65,85.34h-1h-9h-1v1v18v1h1h9h1v-1v-18V85.34L842.65,85.34z"/>
		</g>
		<g>
			<path class="st3" d="M1004.96,86.34v18h-9v-18H1004.96 M1005.96,85.34h-1h-9h-1v1v18v1h1h9h1v-1v-18V85.34L1005.96,85.34z"/>
		</g>
	</g>
	<g id="tt">
		<g>
			<g>
				<path class="st3" d="M1000.63,165c5.38,0,9.75,4.37,9.75,9.75s-4.37,9.75-9.75,9.75c-5.38,0-9.75-4.37-9.75-9.75
					S995.24,165,1000.63,165 M1000.63,164c-5.93,0-10.75,4.82-10.75,10.75s4.82,10.75,10.75,10.75s10.75-4.82,10.75-10.75
					S1006.56,164,1000.63,164L1000.63,164z"/>
			</g>
			<g>
				<path class="st3" d="M1000.62,155c0.38,0,0.76,0.02,1.14,0.07c5.35,0.63,9.18,5.47,8.55,10.82c-0.58,4.96-4.79,8.62-9.67,8.62
					c-0.38,0-0.76-0.02-1.14-0.07c-5.35-0.63-9.18-5.47-8.55-10.82C991.52,158.65,995.74,155,1000.62,155 M1000.62,154
					c-5.45,0-10.03,4.08-10.66,9.5c-0.33,2.85,0.46,5.66,2.24,7.92c1.78,2.25,4.33,3.68,7.18,4.01c0.42,0.05,0.84,0.07,1.26,0.07
					c5.45,0,10.03-4.08,10.66-9.5c0.33-2.85-0.46-5.66-2.24-7.91c-1.78-2.25-4.33-3.68-7.18-4.01
					C1001.46,154.02,1001.03,154,1000.62,154L1000.62,154z"/>
			</g>
		</g>
		<g>
			<g>
				<path class="st3" d="M837.31,165c5.38,0,9.75,4.37,9.75,9.75s-4.37,9.75-9.75,9.75s-9.75-4.37-9.75-9.75S831.93,165,837.31,165
					 M837.31,164c-5.93,0-10.75,4.82-10.75,10.75s4.82,10.75,10.75,10.75s10.75-4.82,10.75-10.75S843.24,164,837.31,164L837.31,164z
					"/>
			</g>
			<g>
				<path class="st3" d="M837.3,155c0.38,0,0.76,0.02,1.14,0.07c5.35,0.63,9.18,5.47,8.55,10.82c-0.58,4.96-4.79,8.62-9.67,8.62
					c-0.38,0-0.76-0.02-1.14-0.07c-5.35-0.63-9.18-5.47-8.55-10.82C828.21,158.65,832.42,155,837.3,155 M837.3,154
					c-5.45,0-10.03,4.08-10.66,9.5c-0.33,2.85,0.46,5.66,2.24,7.92c1.78,2.25,4.33,3.68,7.18,4.01c0.42,0.05,0.84,0.07,1.26,0.07
					c5.45,0,10.03-4.08,10.66-9.5c0.69-5.89-3.54-11.24-9.43-11.92C838.15,154.02,837.72,154,837.3,154L837.3,154z"/>
			</g>
		</g>
	</g>
	<g id="triangles">
		<polygon class="st4" points="1000.46,31 1005.46,39.66 995.46,39.66 		"/>
		<polygon class="st4" points="837.15,31 842.15,39.66 832.15,39.66 		"/>
	</g>
	<g id="ads">
		<g>
			<g>
				<path class="st3" d="M1032.5,561.3c5.38,0,9.75,4.37,9.75,9.75c0,5.38-4.37,9.75-9.75,9.75s-9.75-4.37-9.75-9.75
					C1022.75,565.66,1027.12,561.3,1032.5,561.3 M1032.5,560.3c-5.93,0-10.75,4.82-10.75,10.75c0,5.93,4.82,10.75,10.75,10.75
					s10.75-4.82,10.75-10.75C1043.25,565.12,1038.43,560.3,1032.5,560.3L1032.5,560.3z"/>
			</g>
			<path class="st5" d="M1039.3,571.05c0,1.88-1.52,3.4-3.4,3.4c-1.88,0-3.4-1.52-3.4-3.4c0-1.88-1.52-3.4-3.4-3.4
				s-3.4,1.52-3.4,3.4"/>
		</g>
	</g>
</g>
<g id="tables">
	<g id="text">
		<g id="regular">
			<text transform="matrix(0 -1 1 0 726.0628 707.4902)" class="st3 st6 st7">ТП-5СЭБ 1 ввод</text>
			<text transform="matrix(0 -1 1 0 888.0776 707.4902)" class="st3 st6 st7">ТП-5СЭБ 2 ввод</text>
			<text transform="matrix(0 -1 1 0 491.0628 707.4902)" class="st3 st6 st7">ТП-5СЭБ 1 ввод</text>
			<text transform="matrix(0 -1 1 0 620.5633 707.4902)" class="st3 st6 st7">ТП-5СЭБ 2 ввод</text>
			<text transform="matrix(0 -1 1 0 1696.2949 704.166)" class="st3 st6 st7">ТП-5СЭБ 1С-0,4</text>
			<text transform="matrix(0 -1 1 0 1825.795 704.166)" class="st3 st6 st7">ТП-5СЭБ 2С-0,4</text>
			<text transform="matrix(0 -1 1 0 1461.7266 704.166)" class="st3 st6 st7">ТП-5СЭБ 1С-0,4</text>
			<text transform="matrix(0 -1 1 0 1591.2267 704.166)" class="st3 st6 st7">ТП-5СЭБ 2С-0,4</text>
			<text transform="matrix(0 -1 1 0 1226.791 704.166)" class="st3 st6 st7">ТП-5СЭБ 1С-0,4</text>
			<text transform="matrix(0 -1 1 0 1356.2913 704.166)" class="st3 st6 st7">ТП-5СЭБ 2С-0,4</text>
			<text transform="matrix(0 -1 1 0 992.7447 704.166)" class="st3 st6 st7">ТП-5СЭБ 1С-0,4</text>
			<text transform="matrix(0 -1 1 0 1122.2449 704.166)" class="st3 st6 st7">ТП-5СЭБ 2С-0,4</text>
			<text transform="matrix(0 -1 1 0 256.1253 704.166)" class="st3 st6 st7">ТП-5СЭБ 1С-0,4</text>
			<text transform="matrix(0 -1 1 0 385.6255 704.166)" class="st3 st6 st7">ТП-5СЭБ 2С-0,4</text>
			<text transform="matrix(0 -1 1 0 21.2502 707.4902)" class="st3 st6 st7">ТП-5СЭБ 1 ввод</text>
			<text transform="matrix(0 -1 1 0 150.7505 707.4902)" class="st3 st6 st7">ТП-5СЭБ 2 ввод</text>
			<text transform="matrix(1 0 0 1 1054.1538 286.5005)" class="st3 st6 st7">QF15</text>
			<text transform="matrix(1 0 0 1 1119.1541 286.5005)" class="st3 st6 st7">QF16</text>
			<text transform="matrix(1 0 0 1 1184.1542 286.5005)" class="st3 st6 st7">QF17</text>
			<text transform="matrix(1 0 0 1 1249.5858 286.5005)" class="st3 st6 st7">QF18</text>
			<text transform="matrix(1 0 0 1 1314.1543 286.5005)" class="st3 st6 st7">QF19</text>
			<text transform="matrix(1 0 0 1 1379.1542 286.5005)" class="st3 st6 st7">QF20</text>
			<text transform="matrix(1 0 0 1 1444.1542 286.5005)" class="st3 st6 st7">QF21</text>
			<text transform="matrix(1 0 0 1 1509.1541 286.5005)" class="st3 st6 st7">QF22</text>
			<text transform="matrix(1 0 0 1 1574.1541 286.5005)" class="st3 st6 st7">QF23</text>
			<text transform="matrix(1 0 0 1 1639.1541 286.5005)" class="st3 st6 st7">QF24</text>
			<text transform="matrix(1 0 0 1 1704.1541 286.5005)" class="st3 st6 st7">QF25</text>
			<text transform="matrix(1 0 0 1 1769.1541 286.5005)" class="st3 st6 st7">QF26</text>
			<text transform="matrix(1 0 0 1 1834.1541 286.5005)" class="st3 st6 st7">QF27</text>
			<text transform="matrix(1 0 0 1 15.7342 286.5005)" class="st3 st6 st7">QF1</text>
			<text transform="matrix(1 0 0 1 80.4009 286.5005)" class="st3 st6 st7">QF2</text>
			<text transform="matrix(1 0 0 1 145.7342 286.5005)" class="st3 st6 st7">QF3</text>
			<text transform="matrix(1 0 0 1 210.7342 286.5005)" class="st3 st6 st7">QF4</text>
			<text transform="matrix(1 0 0 1 276.1658 286.5005)" class="st3 st6 st7">QF5</text>
			<text transform="matrix(1 0 0 1 340.7339 286.5005)" class="st3 st6 st7">QF6</text>
			<text transform="matrix(1 0 0 1 405.7343 286.5005)" class="st3 st6 st7">QF7</text>
			<text transform="matrix(1 0 0 1 470.7343 286.5005)" class="st3 st6 st7">QF8</text>
			<text transform="matrix(1 0 0 1 535.7341 286.5005)" class="st3 st6 st7">QF9</text>
			<text transform="matrix(1 0 0 1 598.1541 286.5005)" class="st3 st6 st7">QF10</text>
			<text transform="matrix(1 0 0 1 663.1541 286.5005)" class="st3 st6 st7">QF11</text>
			<text transform="matrix(1 0 0 1 728.1541 286.5005)" class="st3 st6 st7">QF12</text>
			<text transform="matrix(1 0 0 1 793.1541 286.5005)" class="st3 st6 st7">QF13</text>
			<text transform="matrix(0 -1 1 0 21 485)" class="st3 st6 st7">1ШВ1 Ввод-1</text>
			<text transform="matrix(0 -1 1 0 151.0002 485)" class="st3 st6 st7">1ШВ2 Ввод-1</text>
			<text transform="matrix(0 -1 1 0 86.0002 485)" class="st3 st6 st7">АКУ1</text>
			<text transform="matrix(0 -1 1 0 216.0002 485)" class="st3 st6 st7">101ШЩ Ввод-1</text>
			<text transform="matrix(0 -1 1 0 281.5003 485)" class="st3 st6 st7">Резерв</text>
			<text transform="matrix(0 -1 1 0 411.0003 485)" class="st3 st6 st7">Резерв</text>
			<text transform="matrix(0 -1 1 0 346.0003 485)" class="st3 st6 st7">123ШЩ Ввод-1</text>
			<text transform="matrix(0 -1 1 0 476.4319 485)" class="st3 st6 st7">65ШВ Ввод-1</text>
			<text transform="matrix(0 -1 1 0 541.0003 485)" class="st3 st6 st7">171ШЩ Ввод1</text>
			<text transform="matrix(0 -1 1 0 801.0002 485)" class="st3 st6 st7">ШУЭ6</text>
			<text transform="matrix(0 -1 1 0 736.0003 485)" class="st3 st6 st7">ШУЭ5</text>
			<text transform="matrix(0 -1 1 0 671.0003 485)" class="st3 st6 st7">65ППУ Ввод-1</text>
			<text transform="matrix(0 -1 1 0 606.0003 485)" class="st3 st6 st7">79ШЩ Ввод-1</text>
			<text transform="matrix(0 -1 1 0 1127.0004 485)" class="st3 st6 st7">1ШВ2 Ввод-2</text>
			<text transform="matrix(0 -1 1 0 1029.0001 485)" class="st3 st6 st7">АВ</text>
			<text transform="matrix(0 -1 1 0 1061.9226 485)" class="st3 st6 st7">АКУ2</text>
			<text transform="matrix(0 -1 1 0 1192.0002 485)" class="st3 st6 st7">101ШЩ Ввод-2</text>
			<text transform="matrix(0 -1 1 0 1257.5005 485)" class="st3 st6 st7">Резерв</text>
			<text transform="matrix(0 -1 1 0 1387.0005 485)" class="st3 st6 st7">76ЩСН</text>
			<text transform="matrix(0 -1 1 0 1322.0005 485)" class="st3 st6 st7">123ШЩ Ввод-2</text>
			<text transform="matrix(0 -1 1 0 1452.4321 485)" class="st3 st6 st7">65ШВ Ввод-2</text>
			<text transform="matrix(0 -1 1 0 1517.0002 485)" class="st3 st6 st7">171ШЩ Ввод2</text>
			<text transform="matrix(0 -1 1 0 1777.0002 485)" class="st3 st6 st7">Резерв</text>
			<text transform="matrix(0 -1 1 0 1842.0002 485)" class="st3 st6 st7">1ШВ1 Ввод-2</text>
			<text transform="matrix(0 -1 1 0 1647.0002 485)" class="st3 st6 st7">79ШЩ Ввод-2</text>
			<text transform="matrix(0 -1 1 0 1582.0002 485)" class="st3 st6 st7">65ППУ Ввод-2</text>
			<text transform="matrix(0 -1 1 0 1710.547 485)" class="st3 st6 st7">ШУЭ7</text>
			<text transform="matrix(1 0 0 1 27.7981 804.9399)" class="st3 st6 st7">1ЩМ1</text>
			<text transform="matrix(1 0 0 1 125.0853 804.9399)" class="st3 st6 st7">1ЩМ2</text>
			<text transform="matrix(1 0 0 1 263.4056 804.9399)" class="st3 st6 st7">1С-0,4</text>
			<text transform="matrix(1 0 0 1 360.6924 804.9399)" class="st3 st6 st7">2С-0,4</text>
			<text transform="matrix(1 0 0 1 497.0196 804.9399)" class="st3 st6 st7">1ЩМ3</text>
			<text transform="matrix(1 0 0 1 730.031 804.9399)" class="st3 st6 st7">65ЩМ1</text>
			<text transform="matrix(1 0 0 1 1000.0247 804.9399)" class="st3 st6 st7">1С-0,4</text>
			<text transform="matrix(1 0 0 1 1097.3119 804.9399)" class="st3 st6 st7">2С-0,4</text>
			<text transform="matrix(1 0 0 1 1235.5245 804.9399)" class="st3 st6 st7">1С-0,4</text>
			<text transform="matrix(1 0 0 1 1332.8118 804.9399)" class="st3 st6 st7">2С-0,4</text>
			<text transform="matrix(1 0 0 1 1470.4601 804.9399)" class="st3 st6 st7">1С-0,4</text>
			<text transform="matrix(1 0 0 1 1567.7476 804.9399)" class="st3 st6 st7">2С-0,4</text>
			<text transform="matrix(1 0 0 1 1708.0249 804.9399)" class="st3 st6 st7">1С-0,4</text>
			<text transform="matrix(1 0 0 1 1805.312 804.9399)" class="st3 st6 st7">2С-0,4</text>
			<text transform="matrix(1 0 0 1 794.7559 804.9399)" class="st3 st6 st7">65ЩМ2</text>
			<text transform="matrix(1 0 0 1 859.8331 804.9399)" class="st3 st6 st7">65ЩМ3</text>
			<text transform="matrix(1 0 0 1 594.8977 804.9399)" class="st3 st6 st7">1ЩМ4</text>
			<text transform="matrix(1 0 0 1 30.7082 740.4082)" class="st3 st6 st8">1QF</text>
			<text transform="matrix(1 0 0 1 159.199 740.4082)" class="st3 st6 st8">2QF</text>
		</g>
		<g id="subtitles">
			<text transform="matrix(1 0 0 1 316.8203 740.4082)" class="st3 st6 st8">СВ</text>
			<text transform="matrix(1 0 0 1 265.5832 740.4082)" class="st3 st6 st8">1ВВ</text>
			<text transform="matrix(1 0 0 1 394.0742 740.4082)" class="st3 st6 st8">2ВВ</text>
			<text transform="matrix(1 0 0 1 735.5206 740.4082)" class="st3 st6 st8">1QF</text>
			<text transform="matrix(1 0 0 1 500.5207 740.4082)" class="st3 st6 st8">1QF</text>
			<text transform="matrix(1 0 0 1 629.0115 740.4082)" class="st3 st6 st8">2QF</text>
			<text transform="matrix(1 0 0 1 1053.4392 740.4082)" class="st3 st6 st8">СВ</text>
			<text transform="matrix(1 0 0 1 1002.2023 740.4082)" class="st3 st6 st8">1ВВ</text>
			<text transform="matrix(1 0 0 1 1129.2399 740.4082)" class="st3 st6 st8">2ВВ</text>
			<text transform="matrix(1 0 0 1 1287.486 740.4082)" class="st3 st6 st8">СВ</text>
			<text transform="matrix(1 0 0 1 1236.249 740.4082)" class="st3 st6 st8">1ВВ</text>
			<text transform="matrix(1 0 0 1 1364.7399 740.4082)" class="st3 st6 st8">2ВВ</text>
			<text transform="matrix(1 0 0 1 1522.4215 740.4082)" class="st3 st6 st8">СВ</text>
			<text transform="matrix(1 0 0 1 1471.1846 740.4082)" class="st3 st6 st8">1ВВ</text>
			<text transform="matrix(1 0 0 1 1599.6755 740.4082)" class="st3 st6 st8">2ВВ</text>
			<text transform="matrix(1 0 0 1 1756.99 740.4082)" class="st3 st6 st8">СВ</text>
			<text transform="matrix(1 0 0 1 1705.7529 740.4082)" class="st3 st6 st8">1ВВ</text>
			<text transform="matrix(1 0 0 1 1834.2439 740.4082)" class="st3 st6 st8">2ВВ</text>
			<text transform="matrix(1 0 0 1 895.5776 740.4082)" class="st3 st6 st8">2QF</text>
			<text transform="matrix(1 0 0 1 1043.3781 526.0229)" class="st3 st6 st8">АВГ</text>
			<text transform="matrix(1 0 0 1 500.5207 773.1006)" class="st3 st6 st8">КМ1</text>
			<text transform="matrix(1 0 0 1 629.0115 773.1006)" class="st3 st6 st8">КМ2</text>
			<text transform="matrix(1 0 0 1 735.5206 773.1006)" class="st3 st6 st8">КМ1</text>
			<text transform="matrix(1 0 0 1 30.7082 773.1006)" class="st3 st6 st8">КМ1</text>
			<text transform="matrix(1 0 0 1 159.199 773.1006)" class="st3 st6 st8">КМ2</text>
			<text transform="matrix(1 0 0 1 911.6399 244.1614)" class="st3 st6 st8">СВ</text>
			<text transform="matrix(1 0 0 1 1011.8777 244.1618)" class="st3 st6 st8">2ВВ</text>
			<text transform="matrix(1 0 0 1 848.5651 244.1618)" class="st3 st6 st8">1ВВ</text>
			<text transform="matrix(1 0 0 1 848.5651 67.6383)" class="st3 st6 st8">УВН1</text>
			<text transform="matrix(1 0 0 1 1011.8777 67.6383)" class="st3 st6 st8">УВН2</text>
		</g>
		<g id="titles">
			<text transform="matrix(1 0 0 1 887.3707 32.2607)" class="st3 st6 st9">ТП-4СЭБ</text>
			<text transform="matrix(1 0 0 1 1054.0444 577.6021)" class="st3 st6 st9">АДЭС-ТП-СЭБ</text>
			<text transform="matrix(1 0 0 1 788.9602 654.9297)" class="st3 st6 st9">65ШВ</text>
			<text transform="matrix(1 0 0 1 538.0229 654.9297)" class="st3 st6 st9">1ШВ2</text>
			<text transform="matrix(1 0 0 1 1031.8896 654.9297)" class="st3 st6 st9">101ШЩ</text>
			<text transform="matrix(1 0 0 1 1269.806 654.9297)" class="st3 st6 st9">65ППУ</text>
			<text transform="matrix(1 0 0 1 1500.8719 654.9297)" class="st3 st6 st9">123ШЩ</text>
			<text transform="matrix(1 0 0 1 1739.7402 654.9297)" class="st3 st6 st9">79ШЩ</text>
			<text transform="matrix(1 0 0 1 295.2706 654.9297)" class="st3 st6 st9">171ШЩ</text>
			<text transform="matrix(1 0 0 1 68.2103 654.9297)" class="st3 st6 st9">1ШВ1</text>
		</g>
	</g>
</g>
</svg>
