<?xml version="1.0" encoding="utf-8"?>
<!-- Generator: Adobe Illustrator 25.4.1, SVG Export Plug-In . SVG Version: 6.00 Build 0)  -->
<svg version="1.1" xmlns="http://www.w3.org/2000/svg" xmlns:xlink="http://www.w3.org/1999/xlink" x="0px" y="0px"
	 viewBox="0 0 1753 701" style="enable-background:new 0 0 1753 701;" xml:space="preserve">
<style type="text/css">
	.st0{fill:none;stroke:#757474;stroke-width:3;stroke-miterlimit:10;}
	.st1{fill:none;stroke:#B2407E;stroke-width:3;stroke-miterlimit:10;}
	.st2{fill:none;stroke:#F3C811;stroke-width:3;stroke-miterlimit:10;}
	.st3{fill:#FFFFFF;stroke:#757474;stroke-width:3;stroke-miterlimit:10;}
	.st4{fill:#FFFFFF;stroke:#B2407E;stroke-width:3;stroke-miterlimit:10;}
	.st5{fill:#F2F2F2;stroke:#6C6E7A;stroke-width:0.75;stroke-miterlimit:10;}
	.st6{opacity:0.3;fill:#FFFFFF;stroke:#5E5E5E;stroke-width:2;stroke-miterlimit:10;}
	.st7{fill:#575A63;}
	.st8{font-family:'UbuntuCondensed-Regular';}
	.st9{font-size:17px;}
	.st10{letter-spacing:-1;}
	.st11{fill:#22282D;}
	.st12{font-size:38px;}
	.st13{letter-spacing:-2;}
</style>
<g id="lines">
	<g id="pipes">
		<g id="drainage">
			<line id="p18-p19-or" class="st0" x1="1412" y1="329" x2="1649" y2="329"/>
			<line id="p9_00000088834952693001486930000014801034845949035431_" class="st0" x1="257" y1="409" x2="392" y2="409"/>
			<line id="p9_00000096059543726416246520000004417865050086161322_" class="st0" x1="391" y1="328" x2="391" y2="410"/>
			<line id="p9" class="st0" x1="257" y1="329.5" x2="257" y2="410.5"/>
			<line id="p12" class="st0" x1="922" y1="331" x2="922" y2="130"/>
			<line id="p11" class="st0" x1="922" y1="131" x2="922" y2="99"/>
			<line id="p10" class="st0" x1="809" y1="328" x2="809" y2="99"/>
			<line id="p19_00000109731902204031739230000010295710055424447902_" class="st0" x1="1413" y1="410.5" x2="1413" y2="331.5"/>
			<line id="p19" class="st0" x1="1304" y1="409.5" x2="1414" y2="409.5"/>
			<line id="p19_00000001636564528955838570000013292575065114749367_" class="st0" x1="1305" y1="331" x2="1305" y2="410"/>
			<line id="p7" class="st0" x1="108" y1="329" x2="262" y2="329"/>
			<line id="p8" class="st0" x1="262" y1="329" x2="389" y2="329"/>
			<line id="p8-p9-or_00000033330281875110488800000011567416726704397966_" class="st0" x1="390" y1="329" x2="810" y2="329"/>
			<line id="p8-p9-or_00000145769890295933839760000009934374038888845967_" class="st0" x1="811" y1="329" x2="921" y2="329"/>
			<line id="p13" class="st0" x1="922" y1="329" x2="1042" y2="329"/>
			<line id="p17" class="st0" x1="1043" y1="329" x2="1271" y2="329"/>
			<line id="p18" class="st0" x1="1305" y1="329" x2="1413" y2="329"/>
			<line id="p17_00000082344467179670364500000013232182126042700205_" class="st0" x1="1273" y1="329" x2="1301" y2="329"/>
			<line id="p16" class="st0" x1="1269" y1="560" x2="1269" y2="332"/>
			<polyline id="p20-p12-or" class="st0" points="1648,675 918,675 918,606 			"/>
			<line id="p21" class="st0" x1="918" y1="607" x2="1224" y2="607"/>
			<line id="p20" class="st0" x1="265" y1="607" x2="921" y2="607"/>
			<line id="p14-p15-or_00000150816045151515725710000014766943268994537626_" class="st0" x1="1135" y1="563" x2="1135" y2="410"/>
			<line id="p14_00000057846933307351743100000014024904523844731279_" class="st0" x1="1135" y1="409" x2="1135" y2="340"/>
			
				<line id="p14-p15-or_00000071525434916113051690000017068911142614041765_" class="st0" x1="1133.5" y1="562" x2="1229.5" y2="562"/>
			<polyline id="p15" class="st0" points="1040,330 1040,410 1133,410 			"/>
			<polyline id="p14" class="st0" points="1135,205 1135,133 925,133 			"/>
		</g>
		<g id="methanol">
			<line id="p2-p3-p4-or_00000152223943587892128430000005649411907472341411_" class="st1" x1="563" y1="59" x2="491" y2="59"/>
			<line id="p4_00000047774375496670831530000013621008802709204110_" class="st1" x1="698" y1="100" x2="698" y2="308"/>
			<line id="p3-p4-or" class="st1" x1="492" y1="562" x2="492" y2="474"/>
			<line id="p2-p3-p4-or" class="st1" x1="492" y1="472" x2="492" y2="337"/>
			<line id="p2_00000029761267793412814580000011903114238186068624_" class="st1" x1="130" y1="545" x2="130" y2="474"/>
			<line id="p2" class="st1" x1="130" y1="475.5" x2="495" y2="475.5"/>
			<line id="p4_00000082353403134497201720000008336119272540116399_" class="st1" x1="698" y1="563.5" x2="698" y2="347.5"/>
			<line id="p3" class="st1" x1="242" y1="562" x2="490" y2="562"/>
			<line id="p4_00000128477192990466959280000004494396072673778857_" class="st1" x1="490" y1="562" x2="699" y2="562"/>
			<line id="p2-p3-p4-or_00000063596110307872766640000011632676300838905241_" class="st1" x1="492" y1="228" x2="492" y2="58"/>
		</g>
		<g id="gas">
			<line id="p1" class="st2" x1="581" y1="241" x2="581" y2="100"/>
			<line id="p1_00000150811993834693522450000010506387113926596281_" class="st2" x1="582" y1="239.5" x2="94" y2="239.5"/>
		</g>
	</g>
	<g id="arc">
		<g id="drainage_00000029754914420167516740000008945907767140729506_">
			<path id="p14_00000149361067956989085060000017547165350204206003_" class="st0" d="M1135,167v156.7c-3.9,0-7,2.5-7,6.3
				s3.1,7,7,7v16"/>
		</g>
		<g id="methanol_00000100366080270650906430000000755848527902163078_">
			<path id="p2-p3-p4-or_00000018942628105320340340000000472987605922671003_" class="st1" d="M492,166v66c-3.9,0-7,3.1-7,7
				c0,3.9,3.1,7,7,7v28"/>
			<path id="p2-p3-p4-or_00000003785546641990838070000016938187510841099150_" class="st1" d="M492,269v54c-3.9,0-7,3.1-7,7
				s3.1,7,7,7v15"/>
			<path id="p4" class="st1" d="M698,296v27c-3.9,0-7,3.1-7,7s3.1,7,7,7v15"/>
		</g>
		<g id="gas_00000059992120712520526600000004546711919520093322_">
		</g>
	</g>
	<g id="arrows">
		<g id="drainage_00000143607046760473264600000010672561904021633466_">
			<polyline id="p7_00000135667704315985487310000002628027670083458966_" class="st0" points="167,322 175,329 167,336 			"/>
			<polyline id="p8-p9-or_00000047037557179887258010000006504568008774509226_" class="st0" points="865,336 873,329 865,322 			
				"/>
			<polyline id="p17_00000114790686064060963750000009881280262559006648_" class="st0" points="1196,336 1204,329 1196,322 			"/>
			<polyline id="p12_00000157299977562181973040000003508031644167937708_" class="st0" points="929,261 922,269 915,261 			"/>
			<polyline id="p10_00000076581670889209610840000015639767159099536553_" class="st0" points="816,269 809,261 802,269 			"/>
		</g>
		<g id="methanol_00000063623561548176382510000003953342859024151170_">
			<polyline id="p4_00000094590405969175369080000016985310880511152788_" class="st1" points="705,452 698,460 691,452 			"/>
			<polyline id="p4_00000072257225861884083800000002358192550109912205_" class="st1" points="705,261 698,269 691,261 			"/>
			<polyline id="p2-p3-p4-or_00000083065386672188648380000014431484215244411044_" class="st1" points="499,99 492,91 485,99 			
				"/>
		</g>
		<g id="gas_00000176737845721252513530000006863988335416969648_">
			<polyline id="p1_00000132064802192221477370000003002223497344390577_" class="st2" points="167,233 175,240 167,246 			"/>
		</g>
	</g>
	<g id="points">
		<g id="drainage_00000170240803160096518650000016902241311341101997_">
			<circle id="p18_x3D_p19_x3D_or" class="st3" cx="1413" cy="329" r="4.5"/>
			<circle id="p14-p15-or" class="st3" cx="1134" cy="410" r="4.5"/>
			<circle id="p13-p15-or" class="st3" cx="1040" cy="329" r="4.5"/>
			<circle id="p16-p17-or" class="st3" cx="1269" cy="329" r="4.5"/>
			<circle id="p17-p18-p19-or" class="st3" cx="1305" cy="329" r="4.5"/>
			<circle id="p20-p21-or" class="st3" cx="918" cy="607" r="4.5"/>
			<circle id="p7-p8-p9-or" class="st3" cx="257" cy="329" r="4.5"/>
			<circle id="p8-p9-p12-p13-or" class="st3" cx="922" cy="329" r="4.5"/>
			<circle id="p8-p9-or" class="st3" cx="391" cy="329.5" r="4.5"/>
			<circle id="p11-p12-p14-or" class="st3" cx="922" cy="133" r="4.5"/>
			<circle id="p8-p9-p10-or" class="st3" cx="809" cy="329" r="4.5"/>
		</g>
		<g id="methanol_00000175299610107131461800000016667143779684204172_">
			<circle id="p2-p3-p4-or_00000033369866623335083110000002568007582204147330_" class="st4" cx="492" cy="475.5" r="4.5"/>
			<circle id="p3-p4-or_00000154386732470423225560000006393793062949456265_" class="st4" cx="492" cy="562" r="4.5"/>
		</g>
		<g id="gas_00000044160440531069470890000011528982526851100067_">
		</g>
	</g>
</g>
<g id="SimpleElements">
	<g id="barrel-elem">
		
			<image style="overflow:visible;" width="299" height="128" id="id1" xlink:href="../../../../../Users/evgen/OneDrive/Рабочий стол/workspace/_work/arh/Elements/barrel-elem/pub/default.png"  transform="matrix(0.9933 0 0 0.9297 1212.5 528.5)">
		</image>
		
			<image style="overflow:visible;" width="299" height="128" id="id2" xlink:href="../../../../../Users/evgen/OneDrive/Рабочий стол/workspace/_work/arh/Elements/barrel-elem/pub/default.png"  transform="matrix(0.893 0 0 0.9297 10.5 528.5)">
		</image>
	</g>
	<g id="valve-n-elem">
		
			<image style="overflow:visible;" width="71" height="89" id="id3" xlink:href="../../../../../Users/evgen/OneDrive/Рабочий стол/workspace/_work/arh/Elements/valve-n-elem/pub/valve-n_h_caption.png"  transform="matrix(1 0 0 1 288.5 192.5)">
		</image>
		
			<image style="overflow:visible;" width="71" height="89" id="id4" xlink:href="../../../../../Users/evgen/OneDrive/Рабочий стол/workspace/_work/arh/Elements/valve-n-elem/pub/valve-n_h_caption.png"  transform="matrix(1 0 0 1 288.5 281.5)">
		</image>
		
			<image style="overflow:visible;" width="71" height="89" id="id5" xlink:href="../../../../../Users/evgen/OneDrive/Рабочий стол/workspace/_work/arh/Elements/valve-n-elem/pub/valve-n_h_caption.png"  transform="matrix(1 0 0 1 288.5 426.5)">
		</image>
		
			<image style="overflow:visible;" width="71" height="89" id="id6" xlink:href="../../../../../Users/evgen/OneDrive/Рабочий стол/workspace/_work/arh/Elements/valve-n-elem/pub/valve-n_h_caption.png"  transform="matrix(1 0 0 1 288.5 514.5)">
		</image>
		
			<image style="overflow:visible;" width="98" height="71" id="id7" xlink:href="../../../../../Users/evgen/OneDrive/Рабочий стол/workspace/_work/arh/Elements/valve-n-elem/pub/valve-n_v_caption.png"  transform="matrix(1 0 0 1 536 159.5)">
		</image>
		
			<image style="overflow:visible;" width="98" height="71" id="id8" xlink:href="../../../../../Users/evgen/OneDrive/Рабочий стол/workspace/_work/arh/Elements/valve-n-elem/pub/valve-n_v_caption.png"  transform="matrix(1 0 0 1 654 159.5)">
		</image>
		
			<image style="overflow:visible;" width="98" height="71" id="id9" xlink:href="../../../../../Users/evgen/OneDrive/Рабочий стол/workspace/_work/arh/Elements/valve-n-elem/pub/valve-n_v_caption.png"  transform="matrix(1 0 0 1 764 159.5)">
		</image>
		
			<image style="overflow:visible;" width="98" height="71" id="id10" xlink:href="../../../../../Users/evgen/OneDrive/Рабочий стол/workspace/_work/arh/Elements/valve-n-elem/pub/valve-n_v_caption.png"  transform="matrix(1 0 0 1 877 159.5)">
		</image>
		
			<image style="overflow:visible;" width="98" height="71" id="id11" xlink:href="../../../../../Users/evgen/OneDrive/Рабочий стол/workspace/_work/arh/Elements/valve-n-elem/pub/valve-n_v_caption.png"  transform="matrix(1 0 0 1 1091 159.5)">
		</image>
		
			<image style="overflow:visible;" width="71" height="89" id="id12" xlink:href="../../../../../Users/evgen/OneDrive/Рабочий стол/workspace/_work/arh/Elements/valve-n-elem/pub/valve-n_h_caption.png"  transform="matrix(1 0 0 1 945.5 281.5)">
		</image>
		
			<image style="overflow:visible;" width="71" height="89" id="id13" xlink:href="../../../../../Users/evgen/OneDrive/Рабочий стол/workspace/_work/arh/Elements/valve-n-elem/pub/valve-n_h_caption.png"  transform="matrix(1 0 0 1 1326.5 281.5)">
		</image>
	</g>
	<g id="valve-mini-unactive-elem">
		
			<image style="overflow:visible;" width="38" height="37" id="id14" xlink:href="../../../../../Users/evgen/OneDrive/Рабочий стол/workspace/_work/arh/Elements/valve-mini-unactive-elem/pub/valve-mini-unactive_h_no-caption.png"  transform="matrix(1 0 0 1 305 382.5)">
		</image>
		
			<image style="overflow:visible;" width="37" height="38" id="id15" xlink:href="../../../../../Users/evgen/OneDrive/Рабочий стол/workspace/_work/arh/Elements/valve-mini-unactive-elem/pub/valve-mini-unactive_v_no-caption.png"  transform="matrix(1 0 0 1 466.5 500)">
		</image>
		
			<image style="overflow:visible;" width="38" height="37" id="id16" xlink:href="../../../../../Users/evgen/OneDrive/Рабочий стол/workspace/_work/arh/Elements/valve-mini-unactive-elem/pub/valve-mini-unactive_h_no-caption.png"  transform="matrix(1 0 0 1 810 578.5)">
		</image>
		
			<image style="overflow:visible;" width="38" height="37" id="id17" xlink:href="../../../../../Users/evgen/OneDrive/Рабочий стол/workspace/_work/arh/Elements/valve-mini-unactive-elem/pub/valve-mini-unactive_h_no-caption.png"  transform="matrix(1 0 0 1 990.5 578.5)">
		</image>
		
			<image style="overflow:visible;" width="38" height="37" id="id18" xlink:href="../../../../../Users/evgen/OneDrive/Рабочий стол/workspace/_work/arh/Elements/valve-mini-unactive-elem/pub/valve-mini-unactive_h_no-caption.png"  transform="matrix(1 0 0 1 990.5 648.5)">
		</image>
		
			<image style="overflow:visible;" width="38" height="37" id="id19" xlink:href="../../../../../Users/evgen/OneDrive/Рабочий стол/workspace/_work/arh/Elements/valve-mini-unactive-elem/pub/valve-mini-unactive_h_no-caption.png"  transform="matrix(1 0 0 1 508 33.5)">
		</image>
		
			<image style="overflow:visible;" width="38" height="37" id="id20" xlink:href="../../../../../Users/evgen/OneDrive/Рабочий стол/workspace/_work/arh/Elements/valve-mini-unactive-elem/pub/valve-mini-unactive_h_no-caption.png"  transform="matrix(1 0 0 1 1066 382.5)">
		</image>
		
			<image style="overflow:visible;" width="38" height="37" id="id21" xlink:href="../../../../../Users/evgen/OneDrive/Рабочий стол/workspace/_work/arh/Elements/valve-mini-unactive-elem/pub/valve-mini-unactive_h_no-caption.png"  transform="matrix(1 0 0 1 1156 535.5)">
		</image>
		
			<image style="overflow:visible;" width="38" height="37" id="id22" xlink:href="../../../../../Users/evgen/OneDrive/Рабочий стол/workspace/_work/arh/Elements/valve-mini-unactive-elem/pub/valve-mini-unactive_h_no-caption.png"  transform="matrix(1 0 0 1 1342 382.5)">
		</image>
		
			<image style="overflow:visible;" width="37" height="38" id="id23" xlink:href="../../../../../Users/evgen/OneDrive/Рабочий стол/workspace/_work/arh/Elements/valve-mini-unactive-elem/pub/valve-mini-unactive_v_no-caption.png"  transform="matrix(1 0 0 1 1242.5 468)">
		</image>
		
			<image style="overflow:visible;" width="37" height="38" id="id24" xlink:href="../../../../../Users/evgen/OneDrive/Рабочий стол/workspace/_work/arh/Elements/valve-mini-unactive-elem/pub/valve-mini-unactive_v_no-caption.png"  transform="matrix(1 0 0 1 1242.5 356)">
		</image>
	</g>
	<g id="multi-tit-elem">
		
			<image style="overflow:visible;" width="114" height="96" id="id25" xlink:href="../../../../../Users/evgen/OneDrive/Рабочий стол/workspace/_work/arh/Elements/multi-tit-elem/pub/multi-tit_titcount-3_no-arroworient.png"  transform="matrix(1 0 0 1 369.1626 130.2184)">
		</image>
		
			<image style="overflow:visible;" width="114" height="32" id="id26" xlink:href="../../../../../Users/evgen/OneDrive/Рабочий стол/workspace/_work/arh/Elements/multi-tit-elem/pub/multi-tit_no-arroworient.png"  transform="matrix(1 0 0 1 1489.9166 284.8461)">
		</image>
		
			<image style="overflow:visible;" width="114" height="32" id="id27" xlink:href="../../../../../Users/evgen/OneDrive/Рабочий стол/workspace/_work/arh/Elements/multi-tit-elem/pub/multi-tit_no-arroworient.png"  transform="matrix(1 0 0 1 369.1626 431.1404)">
		</image>
	</g>
	<g id="text-box-elem">
		
			<image style="overflow:visible;" width="31" height="19" id="id28" xlink:href="../../../../../Users/evgen/OneDrive/Рабочий стол/workspace/_work/arh/Elements/text-box-elem/pub/default.png"  transform="matrix(1 0 0 1 1528.5 319.5)">
		</image>
		
			<image style="overflow:visible;" width="31" height="19" id="id29" xlink:href="../../../../../Users/evgen/OneDrive/Рабочий стол/workspace/_work/arh/Elements/text-box-elem/pub/default.png"  transform="matrix(1 0 0 1 576.5 319.5)">
		</image>
	</g>
	<g id="transition-button-elem">
		
			<image style="overflow:visible;" width="119" height="34" id="id30" xlink:href="../../../../../Users/evgen/OneDrive/Рабочий стол/workspace/_work/arh/Elements/transition-button-elem/pub/transition-button_arrowdirection-1.png"  transform="matrix(1 0 0 1 1624 658)">
		</image>
		
			<image style="overflow:visible;" width="119" height="34" id="id31" xlink:href="../../../../../Users/evgen/OneDrive/Рабочий стол/workspace/_work/arh/Elements/transition-button-elem/pub/transition-button_arrowdirection-0.png"  transform="matrix(1 0 0 1 9.5 312.8591)">
		</image>
		
			<image style="overflow:visible;" width="119" height="34" id="id32" xlink:href="../../../../../Users/evgen/OneDrive/Рабочий стол/workspace/_work/arh/Elements/transition-button-elem/pub/transition-button_arrowdirection-0.png"  transform="matrix(1 0 0 1 9.5 222)">
		</image>
		
			<image style="overflow:visible;" width="119" height="34" id="id33" xlink:href="../../../../../Users/evgen/OneDrive/Рабочий стол/workspace/_work/arh/Elements/transition-button-elem/pub/transition-button_arrowdirection-0.png"  transform="matrix(1 0 0 1 1624 312)">
		</image>
	</g>
</g>
<g id="tables">
	<g id="t1">
		<rect x="1241" y="417" class="st5" width="55" height="29"/>
	</g>
	<g id="t2">
		<rect x="561" y="10" class="st6" width="476" height="90"/>
	</g>
</g>
<g id="text">
	<g id="px17">
		<text transform="matrix(1 0 0 1 1258.1123 437.6121)" class="st7 st8 st9 st10">БРС</text>
	</g>
	<g id="px38">
		<text transform="matrix(1 0 0 1 768.1356 68.6593)" class="st11 st8 st12 st13">П1</text>
	</g>
</g>
<g id="helpers">
</g>
</svg>
