<?xml version="1.0" encoding="utf-8"?>
<!-- Generator: Adobe Illustrator 25.4.1, SVG Export Plug-In . SVG Version: 6.00 Build 0)  -->
<svg version="1.1" xmlns="http://www.w3.org/2000/svg" xmlns:xlink="http://www.w3.org/1999/xlink" x="0px" y="0px"
	 viewBox="0 0 1269.9 1816.6" style="enable-background:new 0 0 1269.9 1816.6;" xml:space="preserve">
<style type="text/css">
	.st0{fill:none;stroke:#6D6F7B;stroke-width:3;stroke-miterlimit:10;}
	.st1{fill:#FFFFFF;stroke:#6D6F7B;stroke-width:3;stroke-miterlimit:10;}
</style>
<g id="lines">
	<g id="pipes">
		<g id="drainage_00000004534460826325780490000017695477490730014084_">
			<line class="st0" x1="905" y1="524" x2="629" y2="524"/>
			<line class="st0" x1="552" y1="560" x2="336" y2="560"/>
			<polyline class="st0" points="893,437 794,437 794,522 			"/>
			<polyline class="st0" points="321,749 154,749 154,180 			"/>
			<polyline class="st0" points="629,714 905,714 905,145 			"/>
			<polyline class="st0" points="893,621 794,621 794,711 			"/>
			<line class="st0" x1="922" y1="144" x2="629" y2="144"/>
			<line class="st0" x1="1163" y1="144" x2="960" y2="144"/>
			<line class="st0" x1="556" y1="179" x2="338" y2="179"/>
			<line class="st0" x1="555" y1="747" x2="339" y2="747"/>
			<polyline class="st0" points="892,809 794,809 794,899 			"/>
			<line class="st0" x1="555" y1="935" x2="340" y2="935"/>
			<line class="st0" x1="322" y1="560" x2="154" y2="560"/>
			<line class="st0" x1="325" y1="371" x2="154" y2="371"/>
			<line class="st0" x1="317" y1="180" x2="124" y2="180"/>
			<polyline class="st0" points="794,144.5 794,56.5 930,56.5 930,631.5 			"/>
			<polyline class="st0" points="893,244 794,244 794,334 			"/>
			<line class="st0" x1="554" y1="371" x2="336" y2="371"/>
			<line class="st0" x1="905" y1="336" x2="629" y2="336"/>
			<polyline class="st0" points="154,749 154,936 323,936 			"/>
			<polyline class="st0" points="905,713 905,901 628,901 			"/>
			<polyline class="st0" points="894,997 793,997 793,1087 			"/>
			<line class="st0" x1="555" y1="1123" x2="339" y2="1123"/>
			<polyline class="st0" points="154,934 154,1123 324,1123 			"/>
			<polyline class="st0" points="905,901 905,1089 628,1089 			"/>
			<polyline class="st0" points="865,1184 794,1184 794,1274 			"/>
			<line class="st0" x1="555" y1="1311" x2="339" y2="1311"/>
			<polyline class="st0" points="154,1123 154,1311 323,1311 			"/>
			<polyline class="st0" points="905,1089 905,1277 628,1277 			"/>
			<line class="st0" x1="930" y1="622" x2="930" y2="1560"/>
			<polyline class="st0" points="895,1372 793,1372 793,1462 			"/>
			<line class="st0" x1="554" y1="1500" x2="339" y2="1500"/>
			<path class="st0" d="M154.3,1311.9"/>
			<polyline class="st0" points="323,1500 154,1500 154,1310 			"/>
			<path class="st0" d="M154.3,1124.3"/>
			<polyline class="st0" points="628,1464 905,1464 905,1276 			"/>
			<path class="st0" d="M895.7,1090"/>
			<path class="st0" d="M930.7,614.5"/>
			<polyline class="st0" points="893,1559 791,1559 791,1649 			"/>
			<line class="st0" x1="555" y1="1685" x2="337" y2="1685"/>
			<path class="st0" d="M155.3,1310.9"/>
			<line class="st0" x1="322" y1="1685" x2="153" y2="1685"/>
			<path class="st0" d="M906.4,1276.8"/>
			<polyline class="st0" points="627,1650 905,1650 905,1464 			"/>
			<path class="st0" d="M931.7,613.5"/>
			<line class="st0" x1="930" y1="621" x2="1155" y2="621"/>
			<polyline class="st0" points="980,141 980,199 980,336 1158,336 			"/>
			<line class="st0" x1="154" y1="1498" x2="154" y2="1686"/>
			<line class="st0" x1="1158" y1="1772" x2="38" y2="1772"/>
		</g>
	</g>
	<g id="arc">
		<g id="drainage_00000024712296274791275530000006312214010448556434_">
			<path class="st0" d="M927,437h-15c0-3.8-3.1-7-7-7s-7,3.2-7,7h-16"/>
			<path class="st0" d="M927,621h-15c0-3.8-3.1-7-7-7s-7,3.2-7,7h-16"/>
			<path class="st0" d="M927,809h-15c0-3.8-3.1-7-7-7s-7,3.2-7,7h-16"/>
			<path class="st0" d="M927,997h-15c0-3.8-3.1-7-7-7s-7,3.2-7,7h-26"/>
			<path class="st0" d="M927,1185h-15c0-3.8-3.1-7-7-7s-7,3.2-7,7h-26"/>
			<path class="st0" d="M927,1372h-15c0-3.8-3.1-7-7-7s-7,3.2-7,7h-16"/>
			<path class="st0" d="M929,1559h-17c0-3.8-3.1-7-7-7s-7,3.2-7,7h-26"/>
			<path class="st0" d="M927,244h-15c0-3.8-3.1-7-7-7s-7,3.2-7,7h-6"/>
			<path class="st0" d="M951,144h-15c0-2.8-3.1-7-7-7s-7,4.2-7,7h-6"/>
		</g>
	</g>
	<g id="arrows">
		<g id="drainage_00000127732458156596905650000000729495248953711267_">
		</g>
	</g>
	<g id="points">
		<g id="drainage">
			<circle class="st1" cx="154" cy="180" r="4.5"/>
			<circle class="st1" cx="154" cy="371" r="4.5"/>
			<circle class="st1" cx="154" cy="560" r="4.5"/>
			<circle class="st1" cx="154" cy="750" r="4.5"/>
			<circle class="st1" cx="154" cy="936" r="4.5"/>
			<circle class="st1" cx="154" cy="1123" r="4.5"/>
			<circle class="st1" cx="154" cy="1311" r="4.5"/>
			<circle class="st1" cx="154" cy="1500" r="4.5"/>
			<circle class="st1" cx="794" cy="143.5" r="4.5"/>
			<circle class="st1" cx="794" cy="336.5" r="4.5"/>
			<circle class="st1" cx="794" cy="524.5" r="4.5"/>
			<circle class="st1" cx="794" cy="714.5" r="4.5"/>
			<circle class="st1" cx="794" cy="900.5" r="4.5"/>
			<circle class="st1" cx="793" cy="1089.5" r="4.5"/>
			<circle class="st1" cx="794" cy="1277.5" r="4.5"/>
			<circle class="st1" cx="794" cy="1464.5" r="4.5"/>
			<circle class="st1" cx="791" cy="1650.5" r="4.5"/>
			<circle class="st1" cx="905" cy="143.5" r="4.5"/>
			<circle class="st1" cx="905" cy="336.5" r="4.5"/>
			<circle class="st1" cx="905" cy="523.5" r="4.5"/>
			<circle class="st1" cx="905" cy="713.5" r="4.5"/>
			<circle class="st1" cx="905" cy="900.5" r="4.5"/>
			<circle class="st1" cx="905" cy="1088.5" r="4.5"/>
			<circle class="st1" cx="905" cy="1277.5" r="4.5"/>
			<circle class="st1" cx="905" cy="1463.5" r="4.5"/>
			<circle class="st1" cx="930" cy="243" r="4.5"/>
			<circle class="st1" cx="930" cy="437" r="4.5"/>
			<circle class="st1" cx="930" cy="621" r="4.5"/>
			<circle class="st1" cx="930" cy="809" r="4.5"/>
			<circle class="st1" cx="930" cy="997" r="4.5"/>
			<circle class="st1" cx="930" cy="1185" r="4.5"/>
			<circle class="st1" cx="930" cy="1372" r="4.5"/>
			<circle class="st1" cx="980" cy="143.5" r="4.5"/>
		</g>
	</g>
</g>
<g id="SimpleElements">
	<g id="valve-n-elem_00000079472796829331117400000016527764932819468717_">
		
			<image style="overflow:visible;" width="71" height="89" id="id1" xlink:href="../../../../../Users/evgen/OneDrive/Рабочий стол/workspace/_work/arh/Elements/valve-n-elem/pub/valve-n_h_caption.png"  transform="matrix(1 0 0 1 186.5 132.5)">
		</image>
		
			<image style="overflow:visible;" width="71" height="89" id="id2" xlink:href="../../../../../Users/evgen/OneDrive/Рабочий стол/workspace/_work/arh/Elements/valve-n-elem/pub/valve-n_h_caption.png"  transform="matrix(1 0 0 1 186.5 324.5)">
		</image>
		
			<image style="overflow:visible;" width="71" height="89" id="id3" xlink:href="../../../../../Users/evgen/OneDrive/Рабочий стол/workspace/_work/arh/Elements/valve-n-elem/pub/valve-n_h_caption.png"  transform="matrix(1 0 0 1 186.5 513.5)">
		</image>
		
			<image style="overflow:visible;" width="71" height="89" id="id4" xlink:href="../../../../../Users/evgen/OneDrive/Рабочий стол/workspace/_work/arh/Elements/valve-n-elem/pub/valve-n_h_caption.png"  transform="matrix(1 0 0 1 186.5 701.5)">
		</image>
		
			<image style="overflow:visible;" width="71" height="89" id="id5" xlink:href="../../../../../Users/evgen/OneDrive/Рабочий стол/workspace/_work/arh/Elements/valve-n-elem/pub/valve-n_h_caption.png"  transform="matrix(1 0 0 1 179.5 887.5)">
		</image>
		
			<image style="overflow:visible;" width="71" height="89" id="id6" xlink:href="../../../../../Users/evgen/OneDrive/Рабочий стол/workspace/_work/arh/Elements/valve-n-elem/pub/valve-n_h_caption.png"  transform="matrix(1 0 0 1 186.5 1076.5)">
		</image>
		
			<image style="overflow:visible;" width="71" height="89" id="id7" xlink:href="../../../../../Users/evgen/OneDrive/Рабочий стол/workspace/_work/arh/Elements/valve-n-elem/pub/valve-n_h_caption.png"  transform="matrix(1 0 0 1 186.5 1452.5)">
		</image>
		
			<image style="overflow:visible;" width="71" height="89" id="id8" xlink:href="../../../../../Users/evgen/OneDrive/Рабочий стол/workspace/_work/arh/Elements/valve-n-elem/pub/valve-n_h_caption.png"  transform="matrix(1 0 0 1 186.5 1637.5)">
		</image>
		
			<image style="overflow:visible;" width="71" height="89" id="id9" xlink:href="../../../../../Users/evgen/OneDrive/Рабочий стол/workspace/_work/arh/Elements/valve-n-elem/pub/valve-n_h_caption.png"  transform="matrix(1 0 0 1 186.5 1264.5)">
		</image>
		
			<image style="overflow:visible;" width="71" height="89" id="id10" xlink:href="../../../../../Users/evgen/OneDrive/Рабочий стол/workspace/_work/arh/Elements/valve-n-elem/pub/valve-n_h_caption.png"  transform="matrix(1 0 0 1 817.5 8.5)">
		</image>
		
			<image style="overflow:visible;" width="71" height="89" id="id11" xlink:href="../../../../../Users/evgen/OneDrive/Рабочий стол/workspace/_work/arh/Elements/valve-n-elem/pub/valve-n_h_caption.png"  transform="matrix(1 0 0 1 817.5 99.5)">
		</image>
		
			<image style="overflow:visible;" width="71" height="89" id="id12" xlink:href="../../../../../Users/evgen/OneDrive/Рабочий стол/workspace/_work/arh/Elements/valve-n-elem/pub/valve-n_h_caption.png"  transform="matrix(1 0 0 1 817.5 195.5)">
		</image>
		
			<image style="overflow:visible;" width="71" height="89" id="id13" xlink:href="../../../../../Users/evgen/OneDrive/Рабочий стол/workspace/_work/arh/Elements/valve-n-elem/pub/valve-n_h_caption.png"  transform="matrix(1 0 0 1 817.5 288.5)">
		</image>
		
			<image style="overflow:visible;" width="71" height="89" id="id14" xlink:href="../../../../../Users/evgen/OneDrive/Рабочий стол/workspace/_work/arh/Elements/valve-n-elem/pub/valve-n_h_caption.png"  transform="matrix(1 0 0 1 817.5 388.5)">
		</image>
		
			<image style="overflow:visible;" width="71" height="89" id="id15" xlink:href="../../../../../Users/evgen/OneDrive/Рабочий стол/workspace/_work/arh/Elements/valve-n-elem/pub/valve-n_h_caption.png"  transform="matrix(1 0 0 1 817.5 477.5)">
		</image>
		
			<image style="overflow:visible;" width="71" height="89" id="id16" xlink:href="../../../../../Users/evgen/OneDrive/Рабочий стол/workspace/_work/arh/Elements/valve-n-elem/pub/valve-n_h_caption.png"  transform="matrix(1 0 0 1 817.5 574.5)">
		</image>
		
			<image style="overflow:visible;" width="71" height="89" id="id17" xlink:href="../../../../../Users/evgen/OneDrive/Рабочий стол/workspace/_work/arh/Elements/valve-n-elem/pub/valve-n_h_caption.png"  transform="matrix(1 0 0 1 817.5 666.5)">
		</image>
		
			<image style="overflow:visible;" width="71" height="89" id="id18" xlink:href="../../../../../Users/evgen/OneDrive/Рабочий стол/workspace/_work/arh/Elements/valve-n-elem/pub/valve-n_h_caption.png"  transform="matrix(1 0 0 1 817.5 853.5)">
		</image>
		
			<image style="overflow:visible;" width="71" height="89" id="id19" xlink:href="../../../../../Users/evgen/OneDrive/Рабочий стол/workspace/_work/arh/Elements/valve-n-elem/pub/valve-n_h_caption.png"  transform="matrix(1 0 0 1 817.5 762.5)">
		</image>
		
			<image style="overflow:visible;" width="71" height="89" id="id20" xlink:href="../../../../../Users/evgen/OneDrive/Рабочий стол/workspace/_work/arh/Elements/valve-n-elem/pub/valve-n_h_caption.png"  transform="matrix(1 0 0 1 817.5 1041.5)">
		</image>
		
			<image style="overflow:visible;" width="71" height="89" id="id21" xlink:href="../../../../../Users/evgen/OneDrive/Рабочий стол/workspace/_work/arh/Elements/valve-n-elem/pub/valve-n_h_caption.png"  transform="matrix(1 0 0 1 817.5 950.5)">
		</image>
		
			<image style="overflow:visible;" width="71" height="89" id="id22" xlink:href="../../../../../Users/evgen/OneDrive/Рабочий стол/workspace/_work/arh/Elements/valve-n-elem/pub/valve-n_h_caption.png"  transform="matrix(1 0 0 1 817.5 1229.5)">
		</image>
		
			<image style="overflow:visible;" width="71" height="89" id="id23" xlink:href="../../../../../Users/evgen/OneDrive/Рабочий стол/workspace/_work/arh/Elements/valve-n-elem/pub/valve-n_h_caption.png"  transform="matrix(1 0 0 1 817.5 1137.5)">
		</image>
		
			<image style="overflow:visible;" width="71" height="89" id="id24" xlink:href="../../../../../Users/evgen/OneDrive/Рабочий стол/workspace/_work/arh/Elements/valve-n-elem/pub/valve-n_h_caption.png"  transform="matrix(1 0 0 1 817.5 1417.5)">
		</image>
		
			<image style="overflow:visible;" width="71" height="89" id="id25" xlink:href="../../../../../Users/evgen/OneDrive/Рабочий стол/workspace/_work/arh/Elements/valve-n-elem/pub/valve-n_h_caption.png"  transform="matrix(1 0 0 1 817.5 1325.5)">
		</image>
		
			<image style="overflow:visible;" width="71" height="89" id="id26" xlink:href="../../../../../Users/evgen/OneDrive/Рабочий стол/workspace/_work/arh/Elements/valve-n-elem/pub/valve-n_h_caption.png"  transform="matrix(1 0 0 1 817.5 1603.5)">
		</image>
		
			<image style="overflow:visible;" width="71" height="89" id="id27" xlink:href="../../../../../Users/evgen/OneDrive/Рабочий стол/workspace/_work/arh/Elements/valve-n-elem/pub/valve-n_h_caption.png"  transform="matrix(1 0 0 1 817.5 1510.5)">
		</image>
		
			<image style="overflow:visible;" width="71" height="89" id="id28" xlink:href="../../../../../Users/evgen/OneDrive/Рабочий стол/workspace/_work/arh/Elements/valve-n-elem/pub/valve-n_h_caption.png"  transform="matrix(1 0 0 1 817.5 1725.5)">
		</image>
		
			<image style="overflow:visible;" width="98" height="71" id="id29" xlink:href="../../../../../Users/evgen/OneDrive/Рабочий стол/workspace/_work/arh/Elements/valve-n-elem/pub/valve-n_v_caption.png"  transform="matrix(1 0 0 1 937 210.5)">
		</image>
	</g>
	<g id="multi-tit-elem_00000090985159521309850300000004275495730844521130_">
		
			<image style="overflow:visible;" width="114" height="64" id="id30" xlink:href="../../../../../Users/evgen/OneDrive/Рабочий стол/workspace/_work/arh/Elements/multi-tit-elem/pub/multi-tit_titcount-2_no-arroworient.png"  transform="matrix(1 0 0 1 409 101)">
		</image>
		
			<image style="overflow:visible;" width="114" height="64" id="id31" xlink:href="../../../../../Users/evgen/OneDrive/Рабочий стол/workspace/_work/arh/Elements/multi-tit-elem/pub/multi-tit_titcount-2_no-arroworient.png"  transform="matrix(1 0 0 1 409 481)">
		</image>
		
			<image style="overflow:visible;" width="114" height="64" id="id32" xlink:href="../../../../../Users/evgen/OneDrive/Рабочий стол/workspace/_work/arh/Elements/multi-tit-elem/pub/multi-tit_titcount-2_no-arroworient.png"  transform="matrix(1 0 0 1 409 292)">
		</image>
		
			<image style="overflow:visible;" width="114" height="64" id="id33" xlink:href="../../../../../Users/evgen/OneDrive/Рабочий стол/workspace/_work/arh/Elements/multi-tit-elem/pub/multi-tit_titcount-2_no-arroworient.png"  transform="matrix(1 0 0 1 409 670)">
		</image>
		
			<image style="overflow:visible;" width="114" height="64" id="id34" xlink:href="../../../../../Users/evgen/OneDrive/Рабочий стол/workspace/_work/arh/Elements/multi-tit-elem/pub/multi-tit_titcount-2_no-arroworient.png"  transform="matrix(1 0 0 1 409 854)">
		</image>
		
			<image style="overflow:visible;" width="114" height="64" id="id35" xlink:href="../../../../../Users/evgen/OneDrive/Рабочий стол/workspace/_work/arh/Elements/multi-tit-elem/pub/multi-tit_titcount-2_no-arroworient.png"  transform="matrix(1 0 0 1 409 1042)">
		</image>
		
			<image style="overflow:visible;" width="114" height="64" id="id36" xlink:href="../../../../../Users/evgen/OneDrive/Рабочий стол/workspace/_work/arh/Elements/multi-tit-elem/pub/multi-tit_titcount-2_no-arroworient.png"  transform="matrix(1 0 0 1 409 1237)">
		</image>
		
			<image style="overflow:visible;" width="114" height="64" id="id37" xlink:href="../../../../../Users/evgen/OneDrive/Рабочий стол/workspace/_work/arh/Elements/multi-tit-elem/pub/multi-tit_titcount-2_no-arroworient.png"  transform="matrix(1 0 0 1 409 1421)">
		</image>
		
			<image style="overflow:visible;" width="114" height="64" id="id38" xlink:href="../../../../../Users/evgen/OneDrive/Рабочий стол/workspace/_work/arh/Elements/multi-tit-elem/pub/multi-tit_titcount-2_no-arroworient.png"  transform="matrix(1 0 0 1 409 1607)">
		</image>
		
			<image style="overflow:visible;" width="114" height="64" id="id39" xlink:href="../../../../../Users/evgen/OneDrive/Рабочий стол/workspace/_work/arh/Elements/multi-tit-elem/pub/multi-tit_titcount-2_no-arroworient.png"  transform="matrix(1 0 0 1 651 68)">
		</image>
		
			<image style="overflow:visible;" width="114" height="64" id="id40" xlink:href="../../../../../Users/evgen/OneDrive/Рабочий стол/workspace/_work/arh/Elements/multi-tit-elem/pub/multi-tit_titcount-2_no-arroworient.png"  transform="matrix(1 0 0 1 651 257)">
		</image>
		
			<image style="overflow:visible;" width="114" height="64" id="id41" xlink:href="../../../../../Users/evgen/OneDrive/Рабочий стол/workspace/_work/arh/Elements/multi-tit-elem/pub/multi-tit_titcount-2_no-arroworient.png"  transform="matrix(1 0 0 1 651 444)">
		</image>
		
			<image style="overflow:visible;" width="114" height="64" id="id42" xlink:href="../../../../../Users/evgen/OneDrive/Рабочий стол/workspace/_work/arh/Elements/multi-tit-elem/pub/multi-tit_titcount-2_no-arroworient.png"  transform="matrix(1 0 0 1 651 634)">
		</image>
		
			<image style="overflow:visible;" width="114" height="64" id="id43" xlink:href="../../../../../Users/evgen/OneDrive/Рабочий стол/workspace/_work/arh/Elements/multi-tit-elem/pub/multi-tit_titcount-2_no-arroworient.png"  transform="matrix(1 0 0 1 651 824)">
		</image>
		
			<image style="overflow:visible;" width="114" height="64" id="id44" xlink:href="../../../../../Users/evgen/OneDrive/Рабочий стол/workspace/_work/arh/Elements/multi-tit-elem/pub/multi-tit_titcount-2_no-arroworient.png"  transform="matrix(1 0 0 1 651 1014)">
		</image>
		
			<image style="overflow:visible;" width="114" height="64" id="id45" xlink:href="../../../../../Users/evgen/OneDrive/Рабочий стол/workspace/_work/arh/Elements/multi-tit-elem/pub/multi-tit_titcount-2_no-arroworient.png"  transform="matrix(1 0 0 1 651 1196)">
		</image>
		
			<image style="overflow:visible;" width="114" height="64" id="id46" xlink:href="../../../../../Users/evgen/OneDrive/Рабочий стол/workspace/_work/arh/Elements/multi-tit-elem/pub/multi-tit_titcount-2_no-arroworient.png"  transform="matrix(1 0 0 1 651 1389)">
		</image>
		
			<image style="overflow:visible;" width="114" height="64" id="id47" xlink:href="../../../../../Users/evgen/OneDrive/Рабочий стол/workspace/_work/arh/Elements/multi-tit-elem/pub/multi-tit_titcount-2_no-arroworient.png"  transform="matrix(1 0 0 1 651 1576)">
		</image>
		
			<image style="overflow:visible;" width="114" height="32" id="id48" xlink:href="../../../../../Users/evgen/OneDrive/Рабочий стол/workspace/_work/arh/Elements/multi-tit-elem/pub/multi-tit_no-arroworient.png"  transform="matrix(1 0 0 1 651 1727)">
		</image>
		
			<image style="overflow:visible;" width="114" height="32" id="id49" xlink:href="../../../../../Users/evgen/OneDrive/Рабочий стол/workspace/_work/arh/Elements/multi-tit-elem/pub/multi-tit_arroworient-bot.png"  transform="matrix(1 0 0 1 273.5 114)">
		</image>
		
			<image style="overflow:visible;" width="114" height="32" id="id50" xlink:href="../../../../../Users/evgen/OneDrive/Рабочий стол/workspace/_work/arh/Elements/multi-tit-elem/pub/multi-tit_no-arroworient.png"  transform="matrix(1 0 0 1 1013 290)">
		</image>
		
			<image style="overflow:visible;" width="114" height="32" id="id51" xlink:href="../../../../../Users/evgen/OneDrive/Рабочий стол/workspace/_work/arh/Elements/multi-tit-elem/pub/multi-tit_arroworient-bot.png"  transform="matrix(1 0 0 1 273.5 312.5)">
		</image>
		
			<image style="overflow:visible;" width="114" height="32" id="id52" xlink:href="../../../../../Users/evgen/OneDrive/Рабочий стол/workspace/_work/arh/Elements/multi-tit-elem/pub/multi-tit_arroworient-bot.png"  transform="matrix(1 0 0 1 273.5 502)">
		</image>
		
			<image style="overflow:visible;" width="114" height="32" id="id53" xlink:href="../../../../../Users/evgen/OneDrive/Рабочий стол/workspace/_work/arh/Elements/multi-tit-elem/pub/multi-tit_arroworient-bot.png"  transform="matrix(1 0 0 1 273.5 688)">
		</image>
		
			<image style="overflow:visible;" width="114" height="32" id="id54" xlink:href="../../../../../Users/evgen/OneDrive/Рабочий стол/workspace/_work/arh/Elements/multi-tit-elem/pub/multi-tit_arroworient-bot.png"  transform="matrix(1 0 0 1 273.5 878)">
		</image>
		
			<image style="overflow:visible;" width="114" height="32" id="id55" xlink:href="../../../../../Users/evgen/OneDrive/Рабочий стол/workspace/_work/arh/Elements/multi-tit-elem/pub/multi-tit_arroworient-bot.png"  transform="matrix(1 0 0 1 273.5 1065)">
		</image>
		
			<image style="overflow:visible;" width="114" height="32" id="id56" xlink:href="../../../../../Users/evgen/OneDrive/Рабочий стол/workspace/_work/arh/Elements/multi-tit-elem/pub/multi-tit_arroworient-bot.png"  transform="matrix(1 0 0 1 273.5 1251)">
		</image>
		
			<image style="overflow:visible;" width="114" height="32" id="id57" xlink:href="../../../../../Users/evgen/OneDrive/Рабочий стол/workspace/_work/arh/Elements/multi-tit-elem/pub/multi-tit_arroworient-bot.png"  transform="matrix(1 0 0 1 273.5 1441)">
		</image>
		
			<image style="overflow:visible;" width="114" height="32" id="id58" xlink:href="../../../../../Users/evgen/OneDrive/Рабочий стол/workspace/_work/arh/Elements/multi-tit-elem/pub/multi-tit_arroworient-bot.png"  transform="matrix(1 0 0 1 273.5 1624)">
		</image>
	</g>
	<g id="pump-n-elem_00000155126690103968728500000003206212857356510095_">
		
			<image style="overflow:visible;" width="91" height="92" id="id59" xlink:href="../../../../../Users/evgen/OneDrive/Рабочий стол/workspace/_work/arh/Elements/pump-n-elem/pub/pump-n_h_caption.png"  transform="matrix(1 0 0 1 544 126)">
		</image>
		
			<image style="overflow:visible;" width="91" height="92" id="id60" xlink:href="../../../../../Users/evgen/OneDrive/Рабочий стол/workspace/_work/arh/Elements/pump-n-elem/pub/pump-n_h_caption.png"  transform="matrix(1 0 0 1 544 318)">
		</image>
		
			<image style="overflow:visible;" width="91" height="92" id="id62" xlink:href="../../../../../Users/evgen/OneDrive/Рабочий стол/workspace/_work/arh/Elements/pump-n-elem/pub/pump-n_h_caption.png"  transform="matrix(1 0 0 1 544 506)">
		</image>
		
			<image style="overflow:visible;" width="91" height="92" id="id61" xlink:href="../../../../../Users/evgen/OneDrive/Рабочий стол/workspace/_work/arh/Elements/pump-n-elem/pub/pump-n_h_caption.png"  transform="matrix(1 0 0 1 544 696.5)">
		</image>
		
			<image style="overflow:visible;" width="91" height="92" id="id63" xlink:href="../../../../../Users/evgen/OneDrive/Рабочий стол/workspace/_work/arh/Elements/pump-n-elem/pub/pump-n_h_caption.png"  transform="matrix(1 0 0 1 544 884.5)">
		</image>
		
			<image style="overflow:visible;" width="91" height="92" id="id64" xlink:href="../../../../../Users/evgen/OneDrive/Рабочий стол/workspace/_work/arh/Elements/pump-n-elem/pub/pump-n_h_caption.png"  transform="matrix(1 0 0 1 544 1071)">
		</image>
		
			<image style="overflow:visible;" width="91" height="92" id="id65" xlink:href="../../../../../Users/evgen/OneDrive/Рабочий стол/workspace/_work/arh/Elements/pump-n-elem/pub/pump-n_h_caption.png"  transform="matrix(1 0 0 1 544 1259)">
		</image>
		
			<image style="overflow:visible;" width="91" height="92" id="id66" xlink:href="../../../../../Users/evgen/OneDrive/Рабочий стол/workspace/_work/arh/Elements/pump-n-elem/pub/pump-n_h_caption.png"  transform="matrix(1 0 0 1 544 1447)">
		</image>
		
			<image style="overflow:visible;" width="91" height="92" id="id67" xlink:href="../../../../../Users/evgen/OneDrive/Рабочий стол/workspace/_work/arh/Elements/pump-n-elem/pub/pump-n_h_caption.png"  transform="matrix(1 0 0 1 544 1631)">
		</image>
	</g>
	<g id="arrow-pic_00000096020434928495915970000000968023138225412254_">
		
			<image style="overflow:visible;" width="28" height="34" id="id68" xlink:href="../../../../../Users/evgen/OneDrive/Рабочий стол/workspace/_work/arh/Elements/arrow-pic/pub/arrow-pic_no-caption.png"  transform="matrix(1 0 0 1 313 162)">
		</image>
		
			<image style="overflow:visible;" width="28" height="34" id="id69" xlink:href="../../../../../Users/evgen/OneDrive/Рабочий стол/workspace/_work/arh/Elements/arrow-pic/pub/arrow-pic_no-caption.png"  transform="matrix(1 0 0 1 313 1668)">
		</image>
		
			<image style="overflow:visible;" width="28" height="34" id="id70" xlink:href="../../../../../Users/evgen/OneDrive/Рабочий стол/workspace/_work/arh/Elements/arrow-pic/pub/arrow-pic_no-caption.png"  transform="matrix(1 0 0 1 313 1482)">
		</image>
		
			<image style="overflow:visible;" width="28" height="34" id="id71" xlink:href="../../../../../Users/evgen/OneDrive/Рабочий стол/workspace/_work/arh/Elements/arrow-pic/pub/arrow-pic_no-caption.png"  transform="matrix(1 0 0 1 313 1293)">
		</image>
		
			<image style="overflow:visible;" width="28" height="34" id="id72" xlink:href="../../../../../Users/evgen/OneDrive/Рабочий стол/workspace/_work/arh/Elements/arrow-pic/pub/arrow-pic_no-caption.png"  transform="matrix(1 0 0 1 313 1106)">
		</image>
		
			<image style="overflow:visible;" width="28" height="34" id="id73" xlink:href="../../../../../Users/evgen/OneDrive/Рабочий стол/workspace/_work/arh/Elements/arrow-pic/pub/arrow-pic_no-caption.png"  transform="matrix(1 0 0 1 313 918)">
		</image>
		
			<image style="overflow:visible;" width="28" height="34" id="id74" xlink:href="../../../../../Users/evgen/OneDrive/Рабочий стол/workspace/_work/arh/Elements/arrow-pic/pub/arrow-pic_no-caption.png"  transform="matrix(1 0 0 1 313 730)">
		</image>
		
			<image style="overflow:visible;" width="28" height="34" id="id75" xlink:href="../../../../../Users/evgen/OneDrive/Рабочий стол/workspace/_work/arh/Elements/arrow-pic/pub/arrow-pic_no-caption.png"  transform="matrix(1 0 0 1 313 353)">
		</image>
		
			<image style="overflow:visible;" width="28" height="34" id="id76" xlink:href="../../../../../Users/evgen/OneDrive/Рабочий стол/workspace/_work/arh/Elements/arrow-pic/pub/arrow-pic_no-caption.png"  transform="matrix(1 0 0 1 313 542)">
		</image>
	</g>
	<g id="text-box-elem">
		
			<image style="overflow:visible;" width="31" height="19" id="id77" xlink:href="../../../../../Users/evgen/OneDrive/Рабочий стол/workspace/_work/arh/Elements/text-box-elem/pub/default.png"  transform="matrix(1 0 0 1 941 134.5)">
		</image>
		
			<image style="overflow:visible;" width="31" height="19" id="id78" xlink:href="../../../../../Users/evgen/OneDrive/Рабочий стол/workspace/_work/arh/Elements/text-box-elem/pub/default.png"  transform="matrix(1 0 0 1 964.5 171.5)">
		</image>
		
			<image style="overflow:visible;" width="31" height="19" id="id79" xlink:href="../../../../../Users/evgen/OneDrive/Рабочий стол/workspace/_work/arh/Elements/text-box-elem/pub/default.png"  transform="matrix(1 0 0 1 964.5 296.5)">
		</image>
		
			<image style="overflow:visible;" width="31" height="19" id="id81" xlink:href="../../../../../Users/evgen/OneDrive/Рабочий стол/workspace/_work/arh/Elements/text-box-elem/pub/default.png"  transform="matrix(1 0 0 1 1031.5 611.5)">
		</image>
		
			<image style="overflow:visible;" width="31" height="19" id="id80" xlink:href="../../../../../Users/evgen/OneDrive/Рабочий стол/workspace/_work/arh/Elements/text-box-elem/pub/default.png"  transform="matrix(1 0 0 1 1013.5 1760.5)">
		</image>
		
			<image style="overflow:visible;" width="31" height="19" id="id82" xlink:href="../../../../../Users/evgen/OneDrive/Рабочий стол/workspace/_work/arh/Elements/text-box-elem/pub/default.png"  transform="matrix(1 0 0 1 316 1764)">
		</image>
	</g>
	<g id="transition-button-elem_00000125584283940995792370000013064633378508795065_">
		
			<image style="overflow:visible;" width="119" height="34" id="id83" xlink:href="../../../../../Users/evgen/OneDrive/Рабочий стол/workspace/_work/arh/Elements/transition-button-elem/pub/transition-button_arrowdirection-0.png"  transform="matrix(1 0 0 1 10.5 162)">
		</image>
		
			<image style="overflow:visible;" width="119" height="34" id="id84" xlink:href="../../../../../Users/evgen/OneDrive/Рабочий стол/workspace/_work/arh/Elements/transition-button-elem/pub/transition-button_arrowdirection-0.png"  transform="matrix(1 0 0 1 1137 126)">
		</image>
		
			<image style="overflow:visible;" width="119" height="34" id="id85" xlink:href="../../../../../Users/evgen/OneDrive/Рабочий стол/workspace/_work/arh/Elements/transition-button-elem/pub/transition-button_arrowdirection-0.png"  transform="matrix(1 0 0 1 1137 318)">
		</image>
		
			<image style="overflow:visible;" width="119" height="34" id="id86" xlink:href="../../../../../Users/evgen/OneDrive/Рабочий стол/workspace/_work/arh/Elements/transition-button-elem/pub/transition-button_arrowdirection-0.png"  transform="matrix(1 0 0 1 1137 604)">
		</image>
		
			<image style="overflow:visible;" width="119" height="34" id="id87" xlink:href="../../../../../Users/evgen/OneDrive/Рабочий стол/workspace/_work/arh/Elements/transition-button-elem/pub/transition-button_arrowdirection-1.png"  transform="matrix(1 0 0 1 10.5 1754)">
		</image>
		
			<image style="overflow:visible;" width="119" height="34" id="id88" xlink:href="../../../../../Users/evgen/OneDrive/Рабочий стол/workspace/_work/arh/Elements/transition-button-elem/pub/transition-button_arrowdirection-1.png"  transform="matrix(1 0 0 1 1137 1754)">
		</image>
	</g>
</g>
<g id="helpers">
	<g id="main">
	</g>
	<g id="orient">
	</g>
</g>
</svg>
