<?xml version="1.0" encoding="utf-8"?>
<!-- Generator: Adobe Illustrator 23.0.1, SVG Export Plug-In . SVG Version: 6.00 Build 0)  -->
<svg version="1.1" xmlns="http://www.w3.org/2000/svg" xmlns:xlink="http://www.w3.org/1999/xlink" x="0px" y="0px"
	 viewBox="0 0 2009 533" style="enable-background:new 0 0 2009 533;" xml:space="preserve">
<style type="text/css">
	.st0{fill:#EEEEEF;}
	.st1{fill:none;stroke:#6C6E7A;stroke-miterlimit:10;}
	.st2{fill:#909091;}
	.st3{font-family:'UbuntuCondensed-Regular';}
	.st4{font-size:16px;}
	.st5{font-size:14px;}
	.st6{font-size:20px;}
	.st7{letter-spacing:-1;}
	.st8{fill:#21282D;}
	.st9{font-size:20.9999px;}
	.st10{fill:none;stroke:#000000;stroke-width:0.5;stroke-miterlimit:10;}
	.st11{fill:none;stroke:#6C6E7A;stroke-width:6;stroke-miterlimit:10;}
	.st12{fill:none;stroke:#7030A0;stroke-width:6;stroke-miterlimit:10;}
	.st13{fill:#F5F3F3;}
	.st14{fill:none;stroke:#7030A0;stroke-miterlimit:10;}
</style>
<g id="SimpleElements">
	<g id="switch-cart-elem">
		
			<image style="overflow:visible;" width="22" height="69" id="id1" xlink:href="../../../elements/switch-cart-elem/pub/default.png"  transform="matrix(1 0 0 1 12.404 116.354)">
		</image>
	</g>
	<g id="switch-elem">
		
			<image style="overflow:visible;" width="22" height="37" id="id2" xlink:href="../../../elements/switch-elem/pub/default.png"  transform="matrix(1 0 0 1 946 132.411)">
		</image>
	</g>
	<g id="multi-tit-elem">
		
			<image style="overflow:visible;" width="134" height="192" id="id3" xlink:href="../../../elements/multi-tit-elem/pub/multi-tit_titcount-6_no-arroworient.png"  transform="matrix(1.0969 0 0 1.0969 10.5071 291.1967)">
		</image>
		
			<image style="overflow:visible;" width="134" height="192" id="id4" xlink:href="../../../elements/multi-tit-elem/pub/multi-tit_titcount-6_no-arroworient.png"  transform="matrix(1.0969 0 0 1.0969 260.507 291.1967)">
		</image>
		
			<image style="overflow:visible;" width="134" height="192" id="id5" xlink:href="../../../elements/multi-tit-elem/pub/multi-tit_titcount-6_no-arroworient.png"  transform="matrix(1.0969 0 0 1.0969 510.507 291.1967)">
		</image>
		
			<image style="overflow:visible;" width="134" height="192" id="id6" xlink:href="../../../elements/multi-tit-elem/pub/multi-tit_titcount-6_no-arroworient.png"  transform="matrix(1.0969 0 0 1.0969 760.5071 291.1967)">
		</image>
		
			<image style="overflow:visible;" width="134" height="192" id="id7" xlink:href="../../../elements/multi-tit-elem/pub/multi-tit_titcount-6_no-arroworient.png"  transform="matrix(1.0969 0 0 1.0969 1010.509 291.1967)">
		</image>
		
			<image style="overflow:visible;" width="134" height="192" id="id8" xlink:href="../../../elements/multi-tit-elem/pub/multi-tit_titcount-6_no-arroworient.png"  transform="matrix(1.0969 0 0 1.0969 1260.509 291.1967)">
		</image>
		
			<image style="overflow:visible;" width="134" height="192" id="id9" xlink:href="../../../elements/multi-tit-elem/pub/multi-tit_titcount-6_no-arroworient.png"  transform="matrix(1.0969 0 0 1.0969 1510.505 291.1967)">
		</image>
		
			<image style="overflow:visible;" width="134" height="192" id="id10" xlink:href="../../../elements/multi-tit-elem/pub/multi-tit_titcount-6_no-arroworient.png"  transform="matrix(1.0969 0 0 1.0969 1760.505 291.1967)">
		</image>
	</g>
	<g id="earthing-knife-elem">
		
			<image style="overflow:visible;" width="45" height="18" id="id11" xlink:href="../../../elements/earthing-knife-elem/pub/default.png"  transform="matrix(1 0 0 1 19.904 202)">
		</image>
		
			<image style="overflow:visible;" width="45" height="18" id="id12" xlink:href="../../../elements/earthing-knife-elem/pub/default.png"  transform="matrix(1 0 0 1 203.494 388.638)">
		</image>
		
			<image style="overflow:visible;" width="45" height="18" id="id13" xlink:href="../../../elements/earthing-knife-elem/pub/default.png"  transform="matrix(1 0 0 1 453.494 388.638)">
		</image>
		
			<image style="overflow:visible;" width="45" height="18" id="id14" xlink:href="../../../elements/earthing-knife-elem/pub/default.png"  transform="matrix(1 0 0 1 703.494 388.638)">
		</image>
		
			<image style="overflow:visible;" width="45" height="18" id="id15" xlink:href="../../../elements/earthing-knife-elem/pub/default.png"  transform="matrix(1 0 0 1 953.496 388.638)">
		</image>
		
			<image style="overflow:visible;" width="45" height="18" id="id16" xlink:href="../../../elements/earthing-knife-elem/pub/default.png"  transform="matrix(1 0 0 1 1203.496 388.638)">
		</image>
		
			<image style="overflow:visible;" width="45" height="18" id="id17" xlink:href="../../../elements/earthing-knife-elem/pub/default.png"  transform="matrix(1 0 0 1 1453.502 388.638)">
		</image>
		
			<image style="overflow:visible;" width="45" height="18" id="id18" xlink:href="../../../elements/earthing-knife-elem/pub/default.png"  transform="matrix(1 0 0 1 1703.498 388.638)">
		</image>
		
			<image style="overflow:visible;" width="45" height="18" id="id19" xlink:href="../../../elements/earthing-knife-elem/pub/default.png"  transform="matrix(1 0 0 1 1953.494 388.638)">
		</image>
	</g>
	<g id="disconnector-elem">
		
			<image style="overflow:visible;" width="16" height="11" id="id20" xlink:href="../../../elements/disconnector-elem/pub/default.png"  transform="matrix(0 -1 1 0 201.494 329.637)">
		</image>
		
			<image style="overflow:visible;" width="16" height="11" id="id21" xlink:href="../../../elements/disconnector-elem/pub/default.png"  transform="matrix(0 -1 1 0 201.494 487)">
		</image>
		
			<image style="overflow:visible;" width="16" height="11" id="id22" xlink:href="../../../elements/disconnector-elem/pub/default.png"  transform="matrix(0 -1 1 0 451.494 329.637)">
		</image>
		
			<image style="overflow:visible;" width="16" height="11" id="id23" xlink:href="../../../elements/disconnector-elem/pub/default.png"  transform="matrix(0 -1 1 0 451.494 487)">
		</image>
		
			<image style="overflow:visible;" width="16" height="11" id="id24" xlink:href="../../../elements/disconnector-elem/pub/default.png"  transform="matrix(0 -1 1 0 701.494 329.637)">
		</image>
		
			<image style="overflow:visible;" width="16" height="11" id="id25" xlink:href="../../../elements/disconnector-elem/pub/default.png"  transform="matrix(0 -1 1 0 701.494 487)">
		</image>
		
			<image style="overflow:visible;" width="16" height="11" id="id26" xlink:href="../../../elements/disconnector-elem/pub/default.png"  transform="matrix(0 -1 1 0 951.496 329.637)">
		</image>
		
			<image style="overflow:visible;" width="16" height="11" id="id27" xlink:href="../../../elements/disconnector-elem/pub/default.png"  transform="matrix(0 -1 1 0 951.496 487)">
		</image>
		
			<image style="overflow:visible;" width="16" height="11" id="id28" xlink:href="../../../elements/disconnector-elem/pub/default.png"  transform="matrix(0 -1 1 0 1201.496 329.637)">
		</image>
		
			<image style="overflow:visible;" width="16" height="11" id="id29" xlink:href="../../../elements/disconnector-elem/pub/default.png"  transform="matrix(0 -1 1 0 1201.496 487)">
		</image>
		
			<image style="overflow:visible;" width="16" height="11" id="id30" xlink:href="../../../elements/disconnector-elem/pub/default.png"  transform="matrix(0 -1 1 0 1451.502 329.637)">
		</image>
		
			<image style="overflow:visible;" width="16" height="11" id="id31" xlink:href="../../../elements/disconnector-elem/pub/default.png"  transform="matrix(0 -1 1 0 1451.502 487)">
		</image>
		
			<image style="overflow:visible;" width="16" height="11" id="id32" xlink:href="../../../elements/disconnector-elem/pub/default.png"  transform="matrix(0 -1 1 0 1701.498 329.637)">
		</image>
		
			<image style="overflow:visible;" width="16" height="11" id="id33" xlink:href="../../../elements/disconnector-elem/pub/default.png"  transform="matrix(0 -1 1 0 1701.498 487)">
		</image>
		
			<image style="overflow:visible;" width="16" height="11" id="id34" xlink:href="../../../elements/disconnector-elem/pub/default.png"  transform="matrix(0 -1 1 0 1951.494 329.637)">
		</image>
		
			<image style="overflow:visible;" width="16" height="11" id="id35" xlink:href="../../../elements/disconnector-elem/pub/default.png"  transform="matrix(0 -1 1 0 1951.494 487)">
		</image>
	</g>
</g>
<g id="tables">
	<g id="rect">
		<g>
			<path class="st0" d="M1436.16,54.78V15.07c-0.01-2.66-2.22-4.83-4.91-4.82l-851.14,0.27c-2.7,0.01-4.9,2.19-4.89,4.84l0.01,6.24
				l0.04,32.82c0.01,2.66,2.22,4.83,4.91,4.82l851.14-0.27c2.7-0.01,4.9-2.19,4.89-4.84L1436.16,54.78z"/>
			<path class="st1" d="M1436.16,54.78V15.07c-0.01-2.66-2.22-4.83-4.91-4.82l-851.14,0.27c-2.7,0.01-4.9,2.19-4.89,4.84l0.01,6.24
				l0.04,32.82c0.01,2.66,2.22,4.83,4.91,4.82l851.14-0.27c2.7-0.01,4.9-2.19,4.89-4.84L1436.16,54.78z"/>
		</g>
	</g>
	<g id="text">
		<g id="elem-text">
			<text transform="matrix(1 0 0 1 222.2583 443.9902)" class="st2 st3 st4">Т1</text>
			<text transform="matrix(1 0 0 1 722.2583 443.9902)" class="st2 st3 st4">Т1</text>
			<text transform="matrix(1 0 0 1 472.2583 443.9902)" class="st2 st3 st4">Т1</text>
			<text transform="matrix(1 0 0 1 972.2603 444.0469)" class="st2 st3 st4">Т1</text>
			<text transform="matrix(1 0 0 1 1222.2598 444.0469)" class="st2 st3 st4">Т1</text>
			<text transform="matrix(1 0 0 1 1472.2656 444.0469)" class="st2 st3 st4">Т1</text>
			<text transform="matrix(1 0 0 1 1722.2617 444.0469)" class="st2 st3 st4">Т1</text>
			<text transform="matrix(1 0 0 1 1972.2588 444.0469)" class="st2 st3 st4">Т1</text>
		</g>
		<g id="subtitles">
			<text transform="matrix(1 0 0 1 1967.8379 483.6035)" class="st2 st3 st5">1ВВ</text>
			<text transform="matrix(1 0 0 1 1967.8096 326.6914)" class="st2 st3 st5">УВН1</text>
			<text transform="matrix(1 0 0 1 1943.8145 520.1016)"><tspan x="0" y="0" class="st2 st3 st5">С</tspan><tspan x="6.23" y="0" class="st2 st3 st5">-0,4</tspan></text>
			<text transform="matrix(1 0 0 1 1717.8535 483.6035)" class="st2 st3 st5">1ВВ</text>
			<text transform="matrix(1 0 0 1 1717.8262 326.6914)" class="st2 st3 st5">УВН1</text>
			<text transform="matrix(1 0 0 1 1693.8301 520.1016)"><tspan x="0" y="0" class="st2 st3 st5">С</tspan><tspan x="6.23" y="0" class="st2 st3 st5">-0,4</tspan></text>
			<text transform="matrix(1 0 0 1 1467.8701 483.6035)" class="st2 st3 st5">1ВВ</text>
			<text transform="matrix(1 0 0 1 1467.8418 326.6914)" class="st2 st3 st5">УВН1</text>
			<text transform="matrix(1 0 0 1 1443.8457 520.1016)"><tspan x="0" y="0" class="st2 st3 st5">С</tspan><tspan x="6.23" y="0" class="st2 st3 st5">-0,4</tspan></text>
			<text transform="matrix(1 0 0 1 1217.8721 483.6035)" class="st2 st3 st5">1ВВ</text>
			<text transform="matrix(1 0 0 1 1217.8438 326.6914)" class="st2 st3 st5">УВН1</text>
			<text transform="matrix(1 0 0 1 1193.8486 520.1016)"><tspan x="0" y="0" class="st2 st3 st5">С</tspan><tspan x="6.23" y="0" class="st2 st3 st5">-0,4</tspan></text>
			<text transform="matrix(1 0 0 1 967.874 483.6035)" class="st2 st3 st5">1ВВ</text>
			<text transform="matrix(1 0 0 1 967.8462 326.6914)" class="st2 st3 st5">УВН1</text>
			<text transform="matrix(1 0 0 1 943.8501 520.1016)"><tspan x="0" y="0" class="st2 st3 st5">С</tspan><tspan x="6.23" y="0" class="st2 st3 st5">-0,4</tspan></text>
			<text transform="matrix(1 0 0 1 467.8784 483.5479)" class="st2 st3 st5">1ВВ</text>
			<text transform="matrix(1 0 0 1 467.8501 326.6357)" class="st2 st3 st5">УВН1</text>
			<text transform="matrix(1 0 0 1 443.8545 520.0449)"><tspan x="0" y="0" class="st2 st3 st5">С</tspan><tspan x="6.23" y="0" class="st2 st3 st5">-0,4</tspan></text>
			<text transform="matrix(1 0 0 1 717.8901 483.5479)" class="st2 st3 st5">1ВВ</text>
			<text transform="matrix(1 0 0 1 717.8623 326.6357)" class="st2 st3 st5">УВН1</text>
			<text transform="matrix(1 0 0 1 693.8662 520.0449)"><tspan x="0" y="0" class="st2 st3 st5">С</tspan><tspan x="6.23" y="0" class="st2 st3 st5">-0,4</tspan></text>
			<text transform="matrix(1 0 0 1 217.894 483.5479)" class="st2 st3 st5">1ВВ</text>
			<text transform="matrix(1 0 0 1 217.8662 326.6357)" class="st2 st3 st5">УВН1</text>
			<text transform="matrix(1 0 0 1 193.8701 520.0449)"><tspan x="0" y="0" class="st2 st3 st5">С</tspan><tspan x="6.23" y="0" class="st2 st3 st5">-0,4</tspan></text>
			<text transform="matrix(1 0 0 1 9.6582 78.4995)"><tspan x="0" y="0" class="st2 st3 st5">1</tspan><tspan x="6.02" y="0" class="st2 st3 st5">С</tspan><tspan x="12.25" y="0" class="st2 st3 st5">-10</tspan></text>
		</g>
		<g id="titles">
			<text transform="matrix(1 0 0 1 57.02 269.1797)" class="st2 st3 st6">ТП-5В2</text>
			<text transform="matrix(1 0 0 1 559.8799 269.1797)" class="st2 st3 st6">ТП-515</text>
			<text transform="matrix(1 0 0 1 809.8799 269.1797)" class="st2 st3 st6">ТП-516</text>
			<text transform="matrix(1 0 0 1 1059.8799 269.1797)" class="st2 st3 st6">ТП-521</text>
			<text transform="matrix(1 0 0 1 1309.8799 269.1797)" class="st2 st3 st6">ТП-522</text>
			<text transform="matrix(1 0 0 1 1809.8398 269.1797)" class="st2 st3 st6">ТП-512</text>
			<text transform="matrix(1 0 0 1 1559.7998 269.1797)"><tspan x="0" y="0" class="st2 st3 st6">ТП-5</tspan><tspan x="33.04" y="0" class="st2 st3 st6 st7">Г</tspan><tspan x="39.74" y="0" class="st2 st3 st6">-УП</tspan><tspan x="65.16" y="0" class="st2 st3 st6">О</tspan><tspan x="76.86" y="0" class="st2 st3 st6">У</tspan></text>
			<text transform="matrix(1 0 0 1 80.7549 84.4297)"><tspan x="0" y="0" class="st2 st3 st6">Р</tspan><tspan x="9.7" y="0" class="st2 st3 st6">У</tspan><tspan x="18.5" y="0" class="st2 st3 st6">-10кВ</tspan></text>
			<text transform="matrix(1 0 0 1 45.2549 157.1895)" class="st2 st3 st6">13</text>
			<text transform="matrix(1 0 0 1 979.0947 157.1895)" class="st2 st3 st6">5Р-516</text>
			<text transform="matrix(1 0 0 1 309.875 269.1895)"><tspan x="0" y="0" class="st2 st3 st6">ТП-5</tspan><tspan x="33.04" y="0" class="st2 st3 st6 st7">Г</tspan><tspan x="39.74" y="0" class="st2 st3 st6">-УЗ</tspan><tspan x="62.44" y="0" class="st2 st3 st6">О</tspan><tspan x="74.14" y="0" class="st2 st3 st6">У</tspan></text>
		</g>
		<g id="main">
			<text transform="matrix(1 -2.470000e-03 2.470000e-03 1 801.5834 44.1891)"><tspan x="0" y="0" class="st8 st3 st9">Э</tspan><tspan x="9.43" y="0" class="st8 st3 st9">ле</tspan><tspan x="29.02" y="0" class="st8 st3 st9">к</tspan><tspan x="38.18" y="0" class="st8 st3 st9">тросна</tspan><tspan x="92.5" y="0" class="st8 st3 st9">бж</tspan><tspan x="113.23" y="0" class="st8 st3 st9">ение К</tspan><tspan x="167.09" y="0" class="st8 st3 st9">Г</tspan><tspan x="174.97" y="0" class="st8 st3 st9">С</tspan><tspan x="185.28" y="0" class="st8 st3 st9">, </tspan><tspan x="194.25" y="0" class="st8 st3 st9">г</tspan><tspan x="200.78" y="0" class="st8 st3 st9">азопров</tspan><tspan x="266.52" y="0" class="st8 st3 st9">о</tspan><tspan x="276.06" y="0" class="st8 st3 st9">д ГП-51 </tspan><tspan x="337.71" y="0" class="st8 st3 st9">о</tspan><tspan x="347.12" y="0" class="st8 st3 st9">т 1</tspan><tspan x="368.14" y="0" class="st8 st3 st9">С</tspan><tspan x="377.48" y="0" class="st8 st3 st9">-10кВ Р</tspan><tspan x="434.62" y="0" class="st8 st3 st9">У</tspan><tspan x="443.86" y="0" class="st8 st3 st9">-10кВ</tspan></text>
		</g>
	</g>
</g>
<g id="elems">
	<g id="resists">
		<path class="st2" d="M1961.49,372.06h-9v-18h9V372.06z M1962.49,353.06h-1h-9h-1v1v18v1h1h9h1v-1v-18V353.06z"/>
		<path class="st2" d="M1711.5,372.06h-9v-18h9V372.06z M1712.5,353.06h-1h-9h-1v1v18v1h1h9h1v-1v-18V353.06z"/>
		<path class="st2" d="M1461.5,372.06h-9v-18h9V372.06z M1462.5,353.06h-1h-9h-1v1v18v1h1h9h1v-1v-18V353.06z"/>
		<path class="st2" d="M1211.5,372.06h-9v-18h9V372.06z M1212.5,353.06h-1h-9h-1v1v18v1h1h9h1v-1v-18V353.06z"/>
		<path class="st2" d="M961.5,372.06h-9v-18h9V372.06z M962.5,353.06h-1h-9h-1v1v18v1h1h9h1v-1v-18V353.06z"/>
		<path class="st2" d="M461.49,372h-9v-18h9V372z M462.49,353h-1h-9h-1v1v18v1h1h9h1v-1v-18V353z"/>
		<path class="st2" d="M711.49,372h-9v-18h9V372z M712.49,353h-1h-9h-1v1v18v1h1h9h1v-1v-18V353z"/>
		<path class="st2" d="M211.49,372h-9v-18h9V372z M212.49,353h-1h-9h-1v1v18v1h1h9h1v-1v-18V353z"/>
	</g>
	<g id="tt">
		<path class="st2" d="M706.98,432.89c5.38,0,9.75,4.37,9.75,9.75c0,5.39-4.37,9.75-9.75,9.75c-5.39,0-9.75-4.36-9.75-9.75
			C697.23,437.25,701.59,432.89,706.98,432.89 M706.98,431.89c-5.93,0-10.75,4.82-10.75,10.75c0,5.93,4.82,10.75,10.75,10.75
			c5.93,0,10.75-4.82,10.75-10.75C717.73,436.71,712.9,431.89,706.98,431.89"/>
		<path class="st2" d="M706.96,422.89c0.38,0,0.76,0.02,1.14,0.07c5.35,0.63,9.18,5.47,8.55,10.82c-0.58,4.96-4.79,8.62-9.67,8.62
			c-0.38,0-0.76-0.02-1.14-0.07c-5.35-0.63-9.18-5.47-8.55-10.82C697.87,426.54,702.09,422.89,706.96,422.89 M706.96,421.89
			c-5.45,0-10.03,4.08-10.66,9.5c-0.33,2.85,0.46,5.66,2.24,7.92c1.78,2.25,4.33,3.68,7.18,4.01c0.42,0.05,0.84,0.07,1.26,0.07
			c5.45,0,10.03-4.08,10.66-9.5c0.69-5.89-3.54-11.24-9.43-11.93C707.81,421.91,707.38,421.89,706.96,421.89"/>
		<path class="st2" d="M206.98,432.89c5.38,0,9.75,4.37,9.75,9.75c0,5.39-4.37,9.75-9.75,9.75c-5.39,0-9.75-4.36-9.75-9.75
			C197.23,437.25,201.59,432.89,206.98,432.89 M206.98,431.89c-5.93,0-10.75,4.82-10.75,10.75c0,5.93,4.82,10.75,10.75,10.75
			c5.93,0,10.75-4.82,10.75-10.75C217.73,436.71,212.9,431.89,206.98,431.89"/>
		<path class="st2" d="M206.96,422.89c0.38,0,0.76,0.02,1.14,0.07c5.35,0.63,9.18,5.47,8.55,10.82c-0.58,4.96-4.79,8.62-9.67,8.62
			c-0.38,0-0.76-0.02-1.14-0.07c-5.35-0.63-9.18-5.47-8.55-10.82C197.87,426.54,202.09,422.89,206.96,422.89 M206.96,421.89
			c-5.45,0-10.03,4.08-10.66,9.5c-0.33,2.85,0.46,5.66,2.24,7.92c1.78,2.25,4.33,3.68,7.18,4.01c0.42,0.05,0.84,0.07,1.26,0.07
			c5.45,0,10.03-4.08,10.66-9.5c0.69-5.89-3.54-11.24-9.43-11.93C207.81,421.91,207.38,421.89,206.96,421.89"/>
		<path class="st2" d="M456.98,432.89c5.38,0,9.75,4.37,9.75,9.75c0,5.39-4.37,9.75-9.75,9.75c-5.39,0-9.75-4.36-9.75-9.75
			C447.23,437.25,451.59,432.89,456.98,432.89 M456.98,431.89c-5.93,0-10.75,4.82-10.75,10.75c0,5.93,4.82,10.75,10.75,10.75
			c5.93,0,10.75-4.82,10.75-10.75C467.73,436.71,462.9,431.89,456.98,431.89"/>
		<path class="st2" d="M456.96,422.89c0.38,0,0.76,0.02,1.14,0.07c5.35,0.63,9.18,5.47,8.55,10.82c-0.58,4.96-4.79,8.62-9.67,8.62
			c-0.38,0-0.76-0.02-1.14-0.07c-5.35-0.63-9.18-5.47-8.55-10.82C447.87,426.54,452.09,422.89,456.96,422.89 M456.96,421.89
			c-5.45,0-10.03,4.08-10.66,9.5c-0.33,2.85,0.46,5.66,2.24,7.92c1.78,2.25,4.33,3.68,7.18,4.01c0.42,0.05,0.84,0.07,1.26,0.07
			c5.45,0,10.03-4.08,10.66-9.5c0.69-5.89-3.54-11.24-9.43-11.93C457.81,421.91,457.38,421.89,456.96,421.89"/>
		<path class="st2" d="M956.98,432.95c5.38,0,9.75,4.36,9.75,9.75c0,5.38-4.37,9.75-9.75,9.75c-5.39,0-9.75-4.37-9.75-9.75
			C947.23,437.31,951.59,432.95,956.98,432.95 M956.98,431.95c-5.93,0-10.75,4.82-10.75,10.75c0,5.93,4.82,10.75,10.75,10.75
			c5.93,0,10.75-4.82,10.75-10.75C967.73,436.77,962.91,431.95,956.98,431.95"/>
		<path class="st2" d="M956.97,422.94c0.38,0,0.76,0.02,1.14,0.07c5.35,0.63,9.18,5.47,8.55,10.82c-0.58,4.96-4.79,8.62-9.67,8.62
			c-0.38,0-0.76-0.02-1.14-0.07c-5.35-0.63-9.18-5.47-8.55-10.82C947.87,426.6,952.09,422.94,956.97,422.94 M956.97,421.94
			c-5.45,0-10.03,4.08-10.66,9.5c-0.69,5.89,3.54,11.24,9.43,11.92c0.42,0.05,0.84,0.07,1.26,0.07c5.45,0,10.03-4.08,10.66-9.5
			c0.33-2.85-0.46-5.66-2.24-7.92c-1.78-2.25-4.33-3.68-7.18-4.01C957.81,421.97,957.38,421.94,956.97,421.94"/>
		<path class="st2" d="M1206.98,432.95c5.38,0,9.75,4.36,9.75,9.75c0,5.38-4.37,9.75-9.75,9.75c-5.39,0-9.75-4.37-9.75-9.75
			C1197.23,437.31,1201.59,432.95,1206.98,432.95 M1206.98,431.95c-5.93,0-10.75,4.82-10.75,10.75c0,5.93,4.82,10.75,10.75,10.75
			c5.93,0,10.75-4.82,10.75-10.75C1217.73,436.77,1212.91,431.95,1206.98,431.95"/>
		<path class="st2" d="M1206.97,422.94c0.38,0,0.76,0.02,1.14,0.07c5.35,0.63,9.18,5.47,8.55,10.82c-0.58,4.96-4.79,8.62-9.67,8.62
			c-0.38,0-0.76-0.02-1.14-0.07c-5.35-0.63-9.18-5.47-8.55-10.82C1197.87,426.6,1202.09,422.94,1206.97,422.94 M1206.97,421.94
			c-5.45,0-10.03,4.08-10.66,9.5c-0.69,5.89,3.54,11.24,9.43,11.92c0.42,0.05,0.84,0.07,1.26,0.07c5.45,0,10.03-4.08,10.66-9.5
			c0.33-2.85-0.46-5.66-2.24-7.92c-1.78-2.25-4.33-3.68-7.18-4.01C1207.81,421.97,1207.38,421.94,1206.97,421.94"/>
		<path class="st2" d="M1456.98,432.95c5.38,0,9.75,4.36,9.75,9.75c0,5.38-4.37,9.75-9.75,9.75c-5.39,0-9.75-4.37-9.75-9.75
			C1447.23,437.31,1451.6,432.95,1456.98,432.95 M1456.98,431.95c-5.93,0-10.75,4.82-10.75,10.75c0,5.93,4.82,10.75,10.75,10.75
			c5.93,0,10.75-4.82,10.75-10.75C1467.73,436.77,1462.91,431.95,1456.98,431.95"/>
		<path class="st2" d="M1456.97,422.94c0.38,0,0.76,0.02,1.14,0.07c5.35,0.63,9.18,5.47,8.55,10.82c-0.58,4.96-4.79,8.62-9.67,8.62
			c-0.38,0-0.76-0.02-1.14-0.07c-5.35-0.63-9.18-5.47-8.55-10.82C1447.88,426.6,1452.09,422.94,1456.97,422.94 M1456.97,421.94
			c-5.45,0-10.03,4.08-10.66,9.5c-0.69,5.89,3.54,11.24,9.43,11.92c0.42,0.05,0.84,0.07,1.26,0.07c5.45,0,10.03-4.08,10.66-9.5
			c0.33-2.85-0.46-5.66-2.24-7.92c-1.78-2.25-4.33-3.68-7.18-4.01C1457.81,421.97,1457.39,421.94,1456.97,421.94"/>
		<path class="st2" d="M1706.98,432.95c5.38,0,9.75,4.36,9.75,9.75c0,5.38-4.37,9.75-9.75,9.75c-5.39,0-9.75-4.37-9.75-9.75
			C1697.23,437.31,1701.6,432.95,1706.98,432.95 M1706.98,431.95c-5.93,0-10.75,4.82-10.75,10.75c0,5.93,4.82,10.75,10.75,10.75
			c5.93,0,10.75-4.82,10.75-10.75C1717.73,436.77,1712.91,431.95,1706.98,431.95"/>
		<path class="st2" d="M1706.97,422.94c0.38,0,0.76,0.02,1.14,0.07c5.35,0.63,9.18,5.47,8.55,10.82c-0.58,4.96-4.79,8.62-9.67,8.62
			c-0.38,0-0.76-0.02-1.14-0.07c-5.35-0.63-9.18-5.47-8.55-10.82C1697.88,426.6,1702.09,422.94,1706.97,422.94 M1706.97,421.94
			c-5.45,0-10.03,4.08-10.66,9.5c-0.69,5.89,3.54,11.24,9.43,11.92c0.42,0.05,0.84,0.07,1.26,0.07c5.45,0,10.03-4.08,10.66-9.5
			c0.33-2.85-0.46-5.66-2.24-7.92c-1.78-2.25-4.33-3.68-7.18-4.01C1707.81,421.97,1707.39,421.94,1706.97,421.94"/>
		<path class="st2" d="M1956.98,432.95c5.38,0,9.75,4.36,9.75,9.75c0,5.38-4.37,9.75-9.75,9.75c-5.39,0-9.75-4.37-9.75-9.75
			C1947.23,437.31,1951.59,432.95,1956.98,432.95 M1956.98,431.95c-5.93,0-10.75,4.82-10.75,10.75c0,5.93,4.82,10.75,10.75,10.75
			c5.93,0,10.75-4.82,10.75-10.75C1967.73,436.77,1962.9,431.95,1956.98,431.95"/>
		<path class="st2" d="M1956.96,422.94c0.38,0,0.76,0.02,1.14,0.07c5.35,0.63,9.18,5.47,8.55,10.82c-0.58,4.96-4.79,8.62-9.67,8.62
			c-0.38,0-0.76-0.02-1.14-0.07c-5.35-0.63-9.18-5.47-8.55-10.82C1947.87,426.6,1952.09,422.94,1956.96,422.94 M1956.96,421.94
			c-5.45,0-10.03,4.08-10.66,9.5c-0.69,5.89,3.54,11.24,9.43,11.92c0.42,0.05,0.84,0.07,1.26,0.07c5.45,0,10.03-4.08,10.66-9.5
			c0.33-2.85-0.46-5.66-2.24-7.92c-1.78-2.25-4.33-3.68-7.18-4.01C1957.81,421.97,1957.38,421.94,1956.96,421.94"/>
	</g>
</g>
<g id="lines">
	<g id="pipes">
		<g id="lep">
			<line class="st10" x1="1956.99" y1="486.56" x2="1956.99" y2="497.56"/>
			<line class="st10" x1="1956.99" y1="452.45" x2="1956.99" y2="471.56"/>
			<line class="st10" x1="1956.99" y1="329.19" x2="1956.99" y2="422.94"/>
			<line class="st10" x1="1707" y1="486.56" x2="1707" y2="497.56"/>
			<line class="st10" x1="1707" y1="452.45" x2="1707" y2="471.56"/>
			<line class="st10" x1="1207" y1="233.56" x2="1207" y2="314.19"/>
			<line class="st10" x1="957" y1="87.56" x2="957" y2="314.19"/>
			<line class="st10" x1="1707" y1="329.19" x2="1707" y2="422.94"/>
			<line class="st10" x1="1457" y1="486.56" x2="1457" y2="497.56"/>
			<line class="st10" x1="1457" y1="452.45" x2="1457" y2="471.56"/>
			<line class="st10" x1="1457" y1="233.56" x2="1457" y2="314.19"/>
			<line class="st10" x1="1457" y1="329.19" x2="1457" y2="422.94"/>
			<line class="st10" x1="1207" y1="486.56" x2="1207" y2="497.56"/>
			<line class="st10" x1="1207" y1="452.45" x2="1207" y2="471.56"/>
			<line class="st10" x1="1207" y1="329.19" x2="1207" y2="422.94"/>
			<line class="st10" x1="957" y1="486.56" x2="957" y2="497.56"/>
			<line class="st10" x1="957" y1="452.45" x2="957" y2="471.56"/>
			<line class="st10" x1="957" y1="329.19" x2="957" y2="422.94"/>
			<line class="st10" x1="456.99" y1="486.5" x2="456.99" y2="497.5"/>
			<line class="st10" x1="456.99" y1="452.39" x2="456.99" y2="471.5"/>
			<line class="st10" x1="456.99" y1="233.5" x2="456.99" y2="314.14"/>
			<line class="st10" x1="456.99" y1="329.14" x2="456.99" y2="422.89"/>
			<line class="st10" x1="706.99" y1="486.5" x2="706.99" y2="497.5"/>
			<line class="st10" x1="706.99" y1="452.39" x2="706.99" y2="471.5"/>
			<line class="st10" x1="706.99" y1="233.5" x2="706.99" y2="314.14"/>
			<line class="st10" x1="706.99" y1="329.14" x2="706.99" y2="422.89"/>
			<line class="st10" x1="206.99" y1="486.5" x2="206.99" y2="497.5"/>
			<line class="st10" x1="206.99" y1="452.39" x2="206.99" y2="471.5"/>
			<line class="st10" x1="206.99" y1="233.5" x2="206.99" y2="314.14"/>
			<line class="st10" x1="206.99" y1="329.14" x2="206.99" y2="422.89"/>
			<line class="st10" x1="23.4" y1="91.44" x2="23.4" y2="233.48"/>
			<line class="st10" x1="23.4" y1="91.5" x2="23.4" y2="116.35"/>
			<line class="st10" x1="706.99" y1="233.54" x2="23.4" y2="233.48"/>
			<line class="st10" x1="1457" y1="233.54" x2="956.98" y2="233.48"/>
			<polyline class="st10" points="1711,233.56 1956.99,233.56 1956.99,314.19 			"/>
			<polyline class="st10" points="706.99,314.19 706.99,87.56 1707,87.56 1707,314.19 			"/>
		</g>
		<g id="kV04">
			<line class="st11" x1="1942.49" y1="501.56" x2="1971.49" y2="501.56"/>
			<line class="st11" x1="1692.5" y1="501.56" x2="1721.5" y2="501.56"/>
			<line class="st11" x1="1442.5" y1="501.56" x2="1471.5" y2="501.56"/>
			<line class="st11" x1="1192.5" y1="501.56" x2="1221.5" y2="501.56"/>
			<line class="st11" x1="942.5" y1="501.56" x2="971.5" y2="501.56"/>
			<line class="st11" x1="442.49" y1="501.5" x2="471.49" y2="501.5"/>
			<line class="st11" x1="692.49" y1="501.5" x2="721.49" y2="501.5"/>
			<line class="st11" x1="192.49" y1="501.5" x2="221.49" y2="501.5"/>
		</g>
		<g id="kV10_1_">
			<line class="st12" x1="10.4" y1="87.5" x2="36.4" y2="87.5"/>
		</g>
	</g>
	<g id="points">
		<g id="kV04_1_">
			<path class="st13" d="M1960.99,501.56c0,2.21-1.79,4-4,4c-2.21,0-4-1.79-4-4c0-2.21,1.79-4,4-4
				C1959.2,497.56,1960.99,499.35,1960.99,501.56"/>
			<path class="st13" d="M1711,501.56c0,2.21-1.79,4-4,4c-2.21,0-4-1.79-4-4c0-2.21,1.79-4,4-4
				C1709.21,497.56,1711,499.35,1711,501.56"/>
			<path class="st13" d="M1461,501.56c0,2.21-1.79,4-4,4c-2.21,0-4-1.79-4-4c0-2.21,1.79-4,4-4
				C1459.21,497.56,1461,499.35,1461,501.56"/>
			<path class="st13" d="M1211,501.56c0,2.21-1.79,4-4,4c-2.21,0-4-1.79-4-4c0-2.21,1.79-4,4-4
				C1209.21,497.56,1211,499.35,1211,501.56"/>
			<path class="st13" d="M961,501.56c0,2.21-1.79,4-4,4c-2.21,0-4-1.79-4-4c0-2.21,1.79-4,4-4C959.21,497.56,961,499.35,961,501.56"
				/>
			<path class="st13" d="M460.99,501.5c0,2.21-1.79,4-4,4c-2.21,0-4-1.79-4-4c0-2.21,1.79-4,4-4
				C459.2,497.5,460.99,499.29,460.99,501.5"/>
			<path class="st13" d="M710.99,501.5c0,2.21-1.79,4-4,4c-2.21,0-4-1.79-4-4c0-2.21,1.79-4,4-4
				C709.2,497.5,710.99,499.29,710.99,501.5"/>
			<path class="st13" d="M210.99,501.5c0,2.21-1.79,4-4,4c-2.21,0-4-1.79-4-4c0-2.21,1.79-4,4-4
				C209.2,497.5,210.99,499.29,210.99,501.5"/>
			<circle class="st1" cx="1956.99" cy="501.56" r="4"/>
			<circle class="st1" cx="1707" cy="501.56" r="4"/>
			<circle class="st1" cx="1457" cy="501.56" r="4"/>
			<circle class="st1" cx="1207" cy="501.56" r="4"/>
			<circle class="st1" cx="957" cy="501.56" r="4"/>
			<circle class="st1" cx="456.99" cy="501.5" r="4"/>
			<circle class="st1" cx="706.99" cy="501.5" r="4"/>
			<circle class="st1" cx="206.99" cy="501.5" r="4"/>
		</g>
		<g id="kV10">
			<path class="st13" d="M27.4,87.5c0,2.21-1.79,4-4,4s-4-1.79-4-4c0-2.21,1.79-4,4-4S27.4,85.29,27.4,87.5"/>
			<circle class="st14" cx="23.4" cy="87.5" r="4"/>
		</g>
	</g>
	<g id="arc">
		<path d="M207,236c-1.38,0-2.5-1.12-2.5-2.5c0-1.38,1.12-2.5,2.5-2.5c1.38,0,2.5,1.12,2.5,2.5C209.5,234.88,208.38,236,207,236"/>
		<path class="st13" d="M207,232c0.83,0,1.5,0.67,1.5,1.5c0,0.83-0.67,1.5-1.5,1.5c-0.83,0-1.5-0.67-1.5-1.5
			C205.5,232.67,206.17,232,207,232 M207,230c-1.93,0-3.5,1.57-3.5,3.5c0,1.93,1.57,3.5,3.5,3.5c1.93,0,3.5-1.57,3.5-3.5
			C210.5,231.57,208.93,230,207,230"/>
		<path d="M457,236c-1.38,0-2.5-1.12-2.5-2.5c0-1.38,1.12-2.5,2.5-2.5c1.38,0,2.5,1.12,2.5,2.5C459.5,234.88,458.38,236,457,236"/>
		<path class="st13" d="M457,232c0.83,0,1.5,0.67,1.5,1.5c0,0.83-0.67,1.5-1.5,1.5c-0.83,0-1.5-0.67-1.5-1.5
			C455.5,232.67,456.17,232,457,232 M457,230c-1.93,0-3.5,1.57-3.5,3.5c0,1.93,1.57,3.5,3.5,3.5c1.93,0,3.5-1.57,3.5-3.5
			C460.5,231.57,458.93,230,457,230"/>
		<path d="M957,236.06c-1.38,0-2.5-1.12-2.5-2.5c0-1.38,1.12-2.5,2.5-2.5c1.38,0,2.5,1.12,2.5,2.5
			C959.5,234.93,958.38,236.06,957,236.06"/>
		<path class="st13" d="M957,232.06c0.83,0,1.5,0.67,1.5,1.5c0,0.83-0.67,1.5-1.5,1.5c-0.83,0-1.5-0.67-1.5-1.5
			C955.5,232.73,956.17,232.06,957,232.06 M957,230.06c-1.93,0-3.5,1.57-3.5,3.5c0,1.93,1.57,3.5,3.5,3.5c1.93,0,3.5-1.57,3.5-3.5
			C960.5,231.63,958.93,230.06,957,230.06"/>
		<path d="M707,236.06c-1.38,0-2.5-1.12-2.5-2.5c0-1.38,1.12-2.5,2.5-2.5c1.38,0,2.5,1.12,2.5,2.5
			C709.5,234.93,708.38,236.06,707,236.06"/>
		<path class="st13" d="M707,232.06c0.83,0,1.5,0.67,1.5,1.5c0,0.83-0.67,1.5-1.5,1.5c-0.83,0-1.5-0.67-1.5-1.5
			C705.5,232.73,706.17,232.06,707,232.06 M707,230.06c-1.93,0-3.5,1.57-3.5,3.5c0,1.93,1.57,3.5,3.5,3.5c1.93,0,3.5-1.57,3.5-3.5
			C710.5,231.63,708.93,230.06,707,230.06"/>
		<path d="M957,90.06c-1.38,0-2.5-1.12-2.5-2.5c0-1.38,1.12-2.5,2.5-2.5c1.38,0,2.5,1.12,2.5,2.5
			C959.5,88.93,958.38,90.06,957,90.06"/>
		<path class="st13" d="M957,86.06c0.83,0,1.5,0.67,1.5,1.5c0,0.83-0.67,1.5-1.5,1.5c-0.83,0-1.5-0.67-1.5-1.5
			C955.5,86.73,956.17,86.06,957,86.06 M957,84.06c-1.93,0-3.5,1.57-3.5,3.5c0,1.93,1.57,3.5,3.5,3.5c1.93,0,3.5-1.57,3.5-3.5
			C960.5,85.63,958.93,84.06,957,84.06"/>
		<path d="M1207,236.06c-1.38,0-2.5-1.12-2.5-2.5c0-1.38,1.12-2.5,2.5-2.5c1.38,0,2.5,1.12,2.5,2.5
			C1209.5,234.93,1208.38,236.06,1207,236.06"/>
		<path class="st13" d="M1207,232.06c0.83,0,1.5,0.67,1.5,1.5c0,0.83-0.67,1.5-1.5,1.5c-0.83,0-1.5-0.67-1.5-1.5
			C1205.5,232.73,1206.17,232.06,1207,232.06 M1207,230.06c-1.93,0-3.5,1.57-3.5,3.5c0,1.93,1.57,3.5,3.5,3.5
			c1.93,0,3.5-1.57,3.5-3.5C1210.5,231.63,1208.93,230.06,1207,230.06"/>
		<path d="M1707,236.06c-1.38,0-2.5-1.12-2.5-2.5c0-1.38,1.12-2.5,2.5-2.5c1.38,0,2.5,1.12,2.5,2.5
			C1709.5,234.93,1708.38,236.06,1707,236.06"/>
		<path class="st13" d="M1707,232.06c0.83,0,1.5,0.67,1.5,1.5c0,0.83-0.67,1.5-1.5,1.5c-0.83,0-1.5-0.67-1.5-1.5
			C1705.5,232.73,1706.17,232.06,1707,232.06 M1707,230.06c-1.93,0-3.5,1.57-3.5,3.5c0,1.93,1.57,3.5,3.5,3.5
			c1.93,0,3.5-1.57,3.5-3.5C1710.5,231.63,1708.93,230.06,1707,230.06"/>
	</g>
</g>
</svg>
