<?xml version="1.0" encoding="utf-8"?>
<!-- Generator: Adobe Illustrator 23.0.1, SVG Export Plug-In . SVG Version: 6.00 Build 0)  -->
<svg version="1.1" xmlns="http://www.w3.org/2000/svg" xmlns:xlink="http://www.w3.org/1999/xlink" x="0px" y="0px"
	 viewBox="0 0 1232 1019" style="enable-background:new 0 0 1232 1019;" xml:space="preserve">
<style type="text/css">
	.st0{fill:none;stroke:#000000;stroke-width:0.5;stroke-miterlimit:10;}
	.st1{fill:none;stroke:#6C6E7A;stroke-width:6;stroke-miterlimit:10;}
	.st2{fill:none;stroke:#7030A0;stroke-width:6;stroke-miterlimit:10;}
	.st3{fill:#F5F3F3;stroke:#6C6E7A;stroke-miterlimit:10;}
	.st4{fill:#F5F3F3;stroke:#7030A0;stroke-miterlimit:10;}
	.st5{fill:#F5F3F3;}
	.st6{fill:#909091;}
	.st7{fill:#EEEEEF;stroke:#6C6E7A;stroke-miterlimit:10;}
	.st8{font-family:'UbuntuCondensed-Regular';}
	.st9{font-size:16px;}
	.st10{font-size:14px;}
	.st11{font-size:20px;}
	.st12{fill:#21282D;}
	.st13{font-size:21px;}
</style>
<g id="SimpleElements">
	<g id="switch-cart-elem">
		
			<image style="overflow:visible;" width="22" height="69" id="id1" xlink:href="../../../elements/switch-cart-elem/pub/default.png"  transform="matrix(1 0 0 1 22.5 131.307)">
		</image>
		
			<image style="overflow:visible;" width="22" height="69" id="id2" xlink:href="../../../elements/switch-cart-elem/pub/default.png"  transform="matrix(1 0 0 1 22.5 609.307)">
		</image>
	</g>
	<g id="switch-elem">
		
			<image style="overflow:visible;" width="22" height="37" id="id3" xlink:href="../../../elements/switch-elem/pub/default.png"  transform="matrix(1 0 0 1 521.502 147.307)">
		</image>
		
			<image style="overflow:visible;" width="22" height="37" id="id4" xlink:href="../../../elements/switch-elem/pub/default.png"  transform="matrix(1 0 0 1 521.5 625.307)">
		</image>
	</g>
	<g id="multi-tit-elem">
		
			<image style="overflow:visible;" width="134" height="192" id="id5" xlink:href="../../../elements/multi-tit-elem/pub/multi-tit_titcount-6_no-arroworient.png"  transform="matrix(1.0969 0 0 1.0969 336.4451 786.7437)">
		</image>
		
			<image style="overflow:visible;" width="134" height="192" id="id6" xlink:href="../../../elements/multi-tit-elem/pub/multi-tit_titcount-6_no-arroworient.png"  transform="matrix(1.0969 0 0 1.0969 586.4451 786.7437)">
		</image>
		
			<image style="overflow:visible;" width="134" height="192" id="id7" xlink:href="../../../elements/multi-tit-elem/pub/multi-tit_titcount-6_no-arroworient.png"  transform="matrix(1.0969 0 0 1.0969 86.4451 786.7437)">
		</image>
		
			<image style="overflow:visible;" width="134" height="192" id="id8" xlink:href="../../../elements/multi-tit-elem/pub/multi-tit_titcount-6_no-arroworient.png"  transform="matrix(1.0969 0 0 1.0969 86.4451 308.7437)">
		</image>
		
			<image style="overflow:visible;" width="134" height="192" id="id9" xlink:href="../../../elements/multi-tit-elem/pub/multi-tit_titcount-6_no-arroworient.png"  transform="matrix(1.0969 0 0 1.0969 336.4451 308.7437)">
		</image>
		
			<image style="overflow:visible;" width="134" height="192" id="id10" xlink:href="../../../elements/multi-tit-elem/pub/multi-tit_titcount-6_no-arroworient.png"  transform="matrix(1.0969 0 0 1.0969 586.4451 308.7437)">
		</image>
		
			<image style="overflow:visible;" width="134" height="192" id="id11" xlink:href="../../../elements/multi-tit-elem/pub/multi-tit_titcount-6_no-arroworient.png"  transform="matrix(1.0969 0 0 1.0969 836.4451 308.7437)">
		</image>
		
			<image style="overflow:visible;" width="134" height="192" id="id12" xlink:href="../../../elements/multi-tit-elem/pub/multi-tit_titcount-6_no-arroworient.png"  transform="matrix(1.0969 0 0 1.0969 1079.4451 308.7437)">
		</image>
		
			<image style="overflow:visible;" width="134" height="192" id="id13" xlink:href="../../../elements/multi-tit-elem/pub/multi-tit_titcount-6_no-arroworient.png"  transform="matrix(1.0969 0 0 1.0969 836.4451 786.7437)">
		</image>
	</g>
	<g id="earthing-knife-elem">
		
			<image style="overflow:visible;" width="45" height="18" id="id14" xlink:href="../../../elements/earthing-knife-elem/pub/default.png"  transform="matrix(1 0 0 1 30 213)">
		</image>
		
			<image style="overflow:visible;" width="45" height="18" id="id15" xlink:href="../../../elements/earthing-knife-elem/pub/default.png"  transform="matrix(1 0 0 1 30 406.637)">
		</image>
		
			<image style="overflow:visible;" width="45" height="18" id="id16" xlink:href="../../../elements/earthing-knife-elem/pub/default.png"  transform="matrix(1 0 0 1 277 406.637)">
		</image>
		
			<image style="overflow:visible;" width="45" height="18" id="id17" xlink:href="../../../elements/earthing-knife-elem/pub/default.png"  transform="matrix(1 0 0 1 30 691)">
		</image>
		
			<image style="overflow:visible;" width="45" height="18" id="id18" xlink:href="../../../elements/earthing-knife-elem/pub/default.png"  transform="matrix(1 0 0 1 30 875)">
		</image>
		
			<image style="overflow:visible;" width="45" height="18" id="id19" xlink:href="../../../elements/earthing-knife-elem/pub/default.png"  transform="matrix(1 0 0 1 277 875)">
		</image>
		
			<image style="overflow:visible;" width="45" height="18" id="id20" xlink:href="../../../elements/earthing-knife-elem/pub/default.png"  transform="matrix(1 0 0 1 529 875)">
		</image>
		
			<image style="overflow:visible;" width="45" height="18" id="id21" xlink:href="../../../elements/earthing-knife-elem/pub/default.png"  transform="matrix(1 0 0 1 779 875)">
		</image>
		
			<image style="overflow:visible;" width="45" height="18" id="id22" xlink:href="../../../elements/earthing-knife-elem/pub/default.png"  transform="matrix(1 0 0 1 779 406.637)">
		</image>
		
			<image style="overflow:visible;" width="45" height="18" id="id23" xlink:href="../../../elements/earthing-knife-elem/pub/default.png"  transform="matrix(1 0 0 1 529 406.637)">
		</image>
		
			<image style="overflow:visible;" width="45" height="18" id="id24" xlink:href="../../../elements/earthing-knife-elem/pub/default.png"  transform="matrix(1 0 0 1 1029 406.637)">
		</image>
	</g>
	<g id="disconnector-elem">
		
			<image style="overflow:visible;" width="16" height="11" id="id25" xlink:href="../../../elements/disconnector-elem/pub/default.png"  transform="matrix(0 -1 1 0 28 347.637)">
		</image>
		
			<image style="overflow:visible;" width="16" height="11" id="id26" xlink:href="../../../elements/disconnector-elem/pub/default.png"  transform="matrix(0 -1 1 0 28 505)">
		</image>
		
			<image style="overflow:visible;" width="16" height="11" id="id27" xlink:href="../../../elements/disconnector-elem/pub/default.png"  transform="matrix(0 -1 1 0 28 825.637)">
		</image>
		
			<image style="overflow:visible;" width="16" height="11" id="id28" xlink:href="../../../elements/disconnector-elem/pub/default.png"  transform="matrix(0 -1 1 0 20 973)">
		</image>
		
			<image style="overflow:visible;" width="16" height="11" id="id29" xlink:href="../../../elements/disconnector-elem/pub/default.png"  transform="matrix(0 -1 1 0 275 347.637)">
		</image>
		
			<image style="overflow:visible;" width="16" height="11" id="id30" xlink:href="../../../elements/disconnector-elem/pub/default.png"  transform="matrix(0 -1 1 0 275 505)">
		</image>
		
			<image style="overflow:visible;" width="16" height="11" id="id31" xlink:href="../../../elements/disconnector-elem/pub/default.png"  transform="matrix(0 -1 1 0 275 825.637)">
		</image>
		
			<image style="overflow:visible;" width="16" height="11" id="id32" xlink:href="../../../elements/disconnector-elem/pub/default.png"  transform="matrix(0 -1 1 0 267 973)">
		</image>
		
			<image style="overflow:visible;" width="16" height="11" id="id33" xlink:href="../../../elements/disconnector-elem/pub/default.png"  transform="matrix(0 -1 1 0 527 347.637)">
		</image>
		
			<image style="overflow:visible;" width="16" height="11" id="id34" xlink:href="../../../elements/disconnector-elem/pub/default.png"  transform="matrix(0 -1 1 0 527 505)">
		</image>
		
			<image style="overflow:visible;" width="16" height="11" id="id35" xlink:href="../../../elements/disconnector-elem/pub/default.png"  transform="matrix(0 -1 1 0 777 347.637)">
		</image>
		
			<image style="overflow:visible;" width="16" height="11" id="id36" xlink:href="../../../elements/disconnector-elem/pub/default.png"  transform="matrix(0 -1 1 0 777 505)">
		</image>
		
			<image style="overflow:visible;" width="16" height="11" id="id37" xlink:href="../../../elements/disconnector-elem/pub/default.png"  transform="matrix(0 -1 1 0 1027 347.637)">
		</image>
		
			<image style="overflow:visible;" width="16" height="11" id="id38" xlink:href="../../../elements/disconnector-elem/pub/default.png"  transform="matrix(0 -1 1 0 1027 505)">
		</image>
		
			<image style="overflow:visible;" width="16" height="11" id="id39" xlink:href="../../../elements/disconnector-elem/pub/default.png"  transform="matrix(0 -1 1 0 527 825.637)">
		</image>
		
			<image style="overflow:visible;" width="16" height="11" id="id40" xlink:href="../../../elements/disconnector-elem/pub/default.png"  transform="matrix(0 -1 1 0 519 973)">
		</image>
		
			<image style="overflow:visible;" width="16" height="11" id="id41" xlink:href="../../../elements/disconnector-elem/pub/default.png"  transform="matrix(0 -1 1 0 777 825.637)">
		</image>
		
			<image style="overflow:visible;" width="16" height="11" id="id42" xlink:href="../../../elements/disconnector-elem/pub/default.png"  transform="matrix(0 -1 1 0 769 973)">
		</image>
	</g>
</g>
<g id="lines">
	<g id="pipes">
		<g id="lep">
			<line class="st0" x1="280.5" y1="347.14" x2="280.5" y2="440.89"/>
			<line class="st0" x1="532.5" y1="504.5" x2="532.5" y2="524.55"/>
			<line class="st0" x1="532.5" y1="470.39" x2="532.5" y2="489.5"/>
			<polyline class="st0" points="532.5,332.14 532.5,105.5 280.5,105.5 280.5,332.14 			"/>
			<line class="st0" x1="532.5" y1="347.14" x2="532.5" y2="440.89"/>
			<line class="st0" x1="782.5" y1="504.5" x2="782.5" y2="524.55"/>
			<line class="st0" x1="782.5" y1="470.39" x2="782.5" y2="489.5"/>
			<line class="st0" x1="782.5" y1="250.5" x2="782.5" y2="333.59"/>
			<line class="st0" x1="782.5" y1="347.14" x2="782.5" y2="440.89"/>
			<line class="st0" x1="1032.5" y1="504.5" x2="1032.5" y2="524.55"/>
			<line class="st0" x1="1032.5" y1="470.39" x2="1032.5" y2="489.5"/>
			<polyline class="st0" points="1032.5,332.14 1032.5,250.5 532.5,250.5 			"/>
			<line class="st0" x1="1032.5" y1="347.14" x2="1032.5" y2="440.89"/>
			<line class="st0" x1="280.5" y1="470.39" x2="280.5" y2="489.5"/>
			<line class="st0" x1="33.5" y1="825.14" x2="33.5" y2="918.89"/>
			<line class="st0" x1="272.5" y1="972.5" x2="272.5" y2="992.55"/>
			<line class="st0" x1="272.5" y1="938.39" x2="272.5" y2="957.5"/>
			<line class="st0" x1="280.5" y1="825.14" x2="280.5" y2="918.89"/>
			<line class="st0" x1="524.5" y1="972.5" x2="524.5" y2="992.55"/>
			<line class="st0" x1="524.5" y1="938.39" x2="524.5" y2="957.5"/>
			<line class="st0" x1="532.5" y1="825.14" x2="532.5" y2="918.89"/>
			<line class="st0" x1="774.5" y1="972.5" x2="774.5" y2="992.55"/>
			<line class="st0" x1="774.5" y1="938.39" x2="774.5" y2="957.5"/>
			<polyline class="st0" points="782.5,810.14 782.5,728.5 532.5,728.5 			"/>
			<line class="st0" x1="782.5" y1="825.14" x2="782.5" y2="918.89"/>
			<polyline class="st0" points="532.5,810.14 532.5,583.5 280.56,583.5 280.5,583.05 280.5,810.14 			"/>
			<line class="st0" x1="33.5" y1="109.5" x2="33.5" y2="131.5"/>
			<line class="st0" x1="33.5" y1="504.5" x2="33.5" y2="524.55"/>
			<line class="st0" x1="33.5" y1="470.39" x2="33.5" y2="489.5"/>
			<line class="st0" x1="33.5" y1="200.31" x2="33.5" y2="332.14"/>
			<line class="st0" x1="280.5" y1="250.5" x2="33.5" y2="250.5"/>
			<line class="st0" x1="280.5" y1="728.5" x2="33.5" y2="728.5"/>
			<line class="st0" x1="33.5" y1="347.14" x2="33.5" y2="440.89"/>
			<line class="st0" x1="280.5" y1="504.5" x2="280.5" y2="524.55"/>
			<line class="st0" x1="33.5" y1="587.5" x2="33.5" y2="609.5"/>
			<line class="st0" x1="25.5" y1="972.5" x2="25.5" y2="992.55"/>
			<line class="st0" x1="25.5" y1="938.39" x2="25.5" y2="957.5"/>
			<line class="st0" x1="33.5" y1="678.31" x2="33.5" y2="810.14"/>
		</g>
		<g id="kV04_1_">
			<line class="st1" x1="19" y1="519.5" x2="48" y2="519.5"/>
			<line class="st1" x1="266" y1="519.5" x2="295" y2="519.5"/>
			<line class="st1" x1="518" y1="519.5" x2="547" y2="519.5"/>
			<line class="st1" x1="768" y1="519.5" x2="797" y2="519.5"/>
			<line class="st1" x1="1018" y1="519.5" x2="1047" y2="519.5"/>
			<line class="st1" x1="11" y1="987.5" x2="40" y2="987.5"/>
			<line class="st1" x1="258" y1="987.5" x2="287" y2="987.5"/>
			<line class="st1" x1="510" y1="987.5" x2="539" y2="987.5"/>
			<line class="st1" x1="760" y1="987.5" x2="789" y2="987.5"/>
		</g>
		<g id="kV10">
			<line class="st2" x1="18.54" y1="105.5" x2="47.54" y2="105.5"/>
			<line class="st2" x1="18.54" y1="583.5" x2="47.54" y2="583.5"/>
		</g>
	</g>
	<g id="points">
		<g id="kV04">
			<circle class="st3" cx="33.5" cy="519.5" r="4"/>
			<circle class="st3" cx="280.5" cy="519.5" r="4"/>
			<circle class="st3" cx="532.5" cy="519.5" r="4"/>
			<circle class="st3" cx="782.5" cy="519.5" r="4"/>
			<circle class="st3" cx="1032.5" cy="519.5" r="4"/>
			<circle class="st3" cx="25.5" cy="987.5" r="4"/>
			<circle class="st3" cx="272.5" cy="987.5" r="4"/>
			<circle class="st3" cx="524.5" cy="987.5" r="4"/>
			<circle class="st3" cx="774.5" cy="987.5" r="4"/>
		</g>
		<g id="kV10_1_">
			<circle class="st4" cx="33.5" cy="105.5" r="4"/>
			<circle class="st4" cx="33.5" cy="583.5" r="4"/>
		</g>
	</g>
	<g id="arc">
		<g id="lep_1_">
			<g>
				<circle cx="33.5" cy="250.5" r="2.5"/>
				<path class="st5" d="M33.5,249c0.83,0,1.5,0.67,1.5,1.5s-0.67,1.5-1.5,1.5s-1.5-0.67-1.5-1.5S32.67,249,33.5,249 M33.5,247
					c-1.93,0-3.5,1.57-3.5,3.5s1.57,3.5,3.5,3.5s3.5-1.57,3.5-3.5S35.43,247,33.5,247L33.5,247z"/>
			</g>
			<g>
				<circle cx="532.5" cy="250.5" r="2.5"/>
				<path class="st5" d="M532.5,249c0.83,0,1.5,0.67,1.5,1.5s-0.67,1.5-1.5,1.5s-1.5-0.67-1.5-1.5S531.67,249,532.5,249 M532.5,247
					c-1.93,0-3.5,1.57-3.5,3.5s1.57,3.5,3.5,3.5s3.5-1.57,3.5-3.5S534.43,247,532.5,247L532.5,247z"/>
			</g>
			<g>
				<circle cx="782.5" cy="250.5" r="2.5"/>
				<path class="st5" d="M782.5,249c0.83,0,1.5,0.67,1.5,1.5s-0.67,1.5-1.5,1.5s-1.5-0.67-1.5-1.5S781.67,249,782.5,249 M782.5,247
					c-1.93,0-3.5,1.57-3.5,3.5s1.57,3.5,3.5,3.5s3.5-1.57,3.5-3.5S784.43,247,782.5,247L782.5,247z"/>
			</g>
			<g>
				<circle cx="33.5" cy="728.5" r="2.5"/>
				<path class="st5" d="M33.5,727c0.83,0,1.5,0.67,1.5,1.5s-0.67,1.5-1.5,1.5s-1.5-0.67-1.5-1.5S32.67,727,33.5,727 M33.5,725
					c-1.93,0-3.5,1.57-3.5,3.5s1.57,3.5,3.5,3.5s3.5-1.57,3.5-3.5S35.43,725,33.5,725L33.5,725z"/>
			</g>
			<g>
				<circle cx="280.5" cy="728.5" r="2.5"/>
				<path class="st5" d="M280.5,727c0.83,0,1.5,0.67,1.5,1.5s-0.67,1.5-1.5,1.5s-1.5-0.67-1.5-1.5S279.67,727,280.5,727 M280.5,725
					c-1.93,0-3.5,1.57-3.5,3.5s1.57,3.5,3.5,3.5s3.5-1.57,3.5-3.5S282.43,725,280.5,725L280.5,725z"/>
			</g>
			<g>
				<circle cx="532.5" cy="728.5" r="2.5"/>
				<path class="st5" d="M532.5,727c0.83,0,1.5,0.67,1.5,1.5s-0.67,1.5-1.5,1.5s-1.5-0.67-1.5-1.5S531.67,727,532.5,727 M532.5,725
					c-1.93,0-3.5,1.57-3.5,3.5s1.57,3.5,3.5,3.5s3.5-1.57,3.5-3.5S534.43,725,532.5,725L532.5,725z"/>
			</g>
		</g>
	</g>
</g>
<g id="helpers">
</g>
<g id="elems">
	<g id="resists">
		<g>
			<path class="st6" d="M38,372v18h-9v-18H38 M39,371h-1h-9h-1v1v18v1h1h9h1v-1v-18V371L39,371z"/>
		</g>
		<g>
			<path class="st6" d="M285,372v18h-9v-18H285 M286,371h-1h-9h-1v1v18v1h1h9h1v-1v-18V371L286,371z"/>
		</g>
		<g>
			<path class="st6" d="M537,372v18h-9v-18H537 M538,371h-1h-9h-1v1v18v1h1h9h1v-1v-18V371L538,371z"/>
		</g>
		<g>
			<path class="st6" d="M787,372v18h-9v-18H787 M788,371h-1h-9h-1v1v18v1h1h9h1v-1v-18V371L788,371z"/>
		</g>
		<g>
			<path class="st6" d="M1037,372v18h-9v-18H1037 M1038,371h-1h-9h-1v1v18v1h1h9h1v-1v-18V371L1038,371z"/>
		</g>
		<g>
			<path class="st6" d="M38,850v18h-9v-18H38 M39,849h-1h-9h-1v1v18v1h1h9h1v-1v-18V849L39,849z"/>
		</g>
		<g>
			<path class="st6" d="M285,850v18h-9v-18H285 M286,849h-1h-9h-1v1v18v1h1h9h1v-1v-18V849L286,849z"/>
		</g>
		<g>
			<path class="st6" d="M537,850v18h-9v-18H537 M538,849h-1h-9h-1v1v18v1h1h9h1v-1v-18V849L538,849z"/>
		</g>
		<g>
			<path class="st6" d="M787,850v18h-9v-18H787 M788,849h-1h-9h-1v1v18v1h1h9h1v-1v-18V849L788,849z"/>
		</g>
	</g>
	<g id="tt">
		<g>
			<path class="st6" d="M774.48,918.89c5.38,0,9.75,4.37,9.75,9.75s-4.37,9.75-9.75,9.75c-5.38,0-9.75-4.37-9.75-9.75
				S769.1,918.89,774.48,918.89 M774.48,917.89c-5.93,0-10.75,4.82-10.75,10.75s4.82,10.75,10.75,10.75s10.75-4.82,10.75-10.75
				S780.41,917.89,774.48,917.89L774.48,917.89z"/>
		</g>
		<g>
			<path class="st6" d="M774.47,908.89c0.38,0,0.76,0.02,1.14,0.07c5.35,0.63,9.18,5.47,8.55,10.82c-0.58,4.96-4.79,8.62-9.67,8.62
				c-0.38,0-0.76-0.02-1.14-0.07c-5.35-0.63-9.18-5.47-8.55-10.82C765.38,912.54,769.59,908.89,774.47,908.89 M774.47,907.89
				c-5.45,0-10.03,4.08-10.66,9.5c-0.69,5.89,3.54,11.24,9.43,11.92c0.42,0.05,0.84,0.07,1.26,0.07c5.45,0,10.03-4.08,10.66-9.5
				c0.33-2.85-0.46-5.66-2.24-7.91c-1.78-2.25-4.33-3.68-7.18-4.01C775.31,907.91,774.89,907.89,774.47,907.89L774.47,907.89z"/>
		</g>
		<g>
			<path class="st6" d="M524.48,918.89c5.38,0,9.75,4.37,9.75,9.75s-4.37,9.75-9.75,9.75c-5.38,0-9.75-4.37-9.75-9.75
				S519.1,918.89,524.48,918.89 M524.48,917.89c-5.93,0-10.75,4.82-10.75,10.75s4.82,10.75,10.75,10.75
				c5.93,0,10.75-4.82,10.75-10.75S530.41,917.89,524.48,917.89L524.48,917.89z"/>
		</g>
		<g>
			<path class="st6" d="M524.47,908.89c0.38,0,0.76,0.02,1.14,0.07c5.35,0.63,9.18,5.47,8.55,10.82c-0.58,4.96-4.79,8.62-9.67,8.62
				c-0.38,0-0.76-0.02-1.14-0.07c-5.35-0.63-9.18-5.47-8.55-10.82C515.38,912.54,519.59,908.89,524.47,908.89 M524.47,907.89
				c-5.45,0-10.03,4.08-10.66,9.5c-0.69,5.89,3.54,11.24,9.43,11.92c0.42,0.05,0.84,0.07,1.26,0.07c5.45,0,10.03-4.08,10.66-9.5
				c0.33-2.85-0.46-5.66-2.24-7.91c-1.78-2.25-4.33-3.68-7.18-4.01C525.31,907.91,524.89,907.89,524.47,907.89L524.47,907.89z"/>
		</g>
		<g>
			<path class="st6" d="M25.48,918.89c5.38,0,9.75,4.37,9.75,9.75s-4.37,9.75-9.75,9.75s-9.75-4.37-9.75-9.75
				S20.1,918.89,25.48,918.89 M25.48,917.89c-5.93,0-10.75,4.82-10.75,10.75s4.82,10.75,10.75,10.75s10.75-4.82,10.75-10.75
				S31.41,917.89,25.48,917.89L25.48,917.89z"/>
		</g>
		<g>
			<path class="st6" d="M25.47,908.89c0.38,0,0.76,0.02,1.14,0.07c5.35,0.63,9.18,5.47,8.55,10.82c-0.58,4.96-4.79,8.62-9.67,8.62
				c-0.38,0-0.76-0.02-1.14-0.07c-5.35-0.63-9.18-5.47-8.55-10.82C16.38,912.54,20.59,908.89,25.47,908.89 M25.47,907.89
				c-5.45,0-10.03,4.08-10.66,9.5c-0.69,5.89,3.54,11.24,9.43,11.92c0.42,0.05,0.84,0.07,1.26,0.07c5.45,0,10.03-4.08,10.66-9.5
				c0.69-5.89-3.54-11.24-9.43-11.92C26.31,907.91,25.89,907.89,25.47,907.89L25.47,907.89z"/>
		</g>
		<g>
			<path class="st6" d="M1032.48,450.89c5.38,0,9.75,4.37,9.75,9.75c0,5.38-4.37,9.75-9.75,9.75s-9.75-4.37-9.75-9.75
				C1022.73,455.25,1027.1,450.89,1032.48,450.89 M1032.48,449.89c-5.93,0-10.75,4.82-10.75,10.75s4.82,10.75,10.75,10.75
				c5.93,0,10.75-4.82,10.75-10.75S1038.41,449.89,1032.48,449.89L1032.48,449.89z"/>
		</g>
		<g>
			<path class="st6" d="M1032.47,440.89c0.38,0,0.76,0.02,1.14,0.07c5.35,0.63,9.18,5.47,8.55,10.82c-0.58,4.96-4.79,8.62-9.67,8.62
				c-0.38,0-0.76-0.02-1.14-0.07c-5.35-0.63-9.18-5.47-8.55-10.82C1023.38,444.54,1027.59,440.89,1032.47,440.89 M1032.47,439.89
				c-5.45,0-10.03,4.08-10.66,9.5c-0.33,2.85,0.46,5.66,2.24,7.92c1.78,2.25,4.33,3.68,7.18,4.01c0.42,0.05,0.84,0.07,1.26,0.07
				c5.45,0,10.03-4.08,10.66-9.5c0.69-5.89-3.54-11.24-9.43-11.92C1033.31,439.91,1032.89,439.89,1032.47,439.89L1032.47,439.89z"/>
		</g>
		<g>
			<path class="st6" d="M272.48,918.89c5.38,0,9.75,4.37,9.75,9.75s-4.37,9.75-9.75,9.75c-5.38,0-9.75-4.37-9.75-9.75
				S267.1,918.89,272.48,918.89 M272.48,917.89c-5.93,0-10.75,4.82-10.75,10.75s4.82,10.75,10.75,10.75
				c5.93,0,10.75-4.82,10.75-10.75S278.41,917.89,272.48,917.89L272.48,917.89z"/>
		</g>
		<g>
			<path class="st6" d="M272.47,908.89c0.38,0,0.76,0.02,1.14,0.07c5.35,0.63,9.18,5.47,8.55,10.82c-0.58,4.96-4.79,8.62-9.67,8.62
				c-0.38,0-0.76-0.02-1.14-0.07c-5.35-0.63-9.18-5.47-8.55-10.82C263.38,912.54,267.59,908.89,272.47,908.89 M272.47,907.89
				c-5.45,0-10.03,4.08-10.66,9.5c-0.69,5.89,3.54,11.24,9.43,11.92c0.42,0.05,0.84,0.07,1.26,0.07c5.45,0,10.03-4.08,10.66-9.5
				c0.69-5.89-3.54-11.24-9.43-11.92C273.31,907.91,272.89,907.89,272.47,907.89L272.47,907.89z"/>
		</g>
		<g>
			<path class="st6" d="M782.48,450.89c5.38,0,9.75,4.37,9.75,9.75c0,5.38-4.37,9.75-9.75,9.75c-5.38,0-9.75-4.37-9.75-9.75
				C772.73,455.25,777.1,450.89,782.48,450.89 M782.48,449.89c-5.93,0-10.75,4.82-10.75,10.75s4.82,10.75,10.75,10.75
				s10.75-4.82,10.75-10.75S788.41,449.89,782.48,449.89L782.48,449.89z"/>
		</g>
		<g>
			<path class="st6" d="M782.47,440.89c0.38,0,0.76,0.02,1.14,0.07c5.35,0.63,9.18,5.47,8.55,10.82c-0.58,4.96-4.79,8.62-9.67,8.62
				c-0.38,0-0.76-0.02-1.14-0.07c-5.35-0.63-9.18-5.47-8.55-10.82C773.38,444.54,777.59,440.89,782.47,440.89 M782.47,439.89
				c-5.45,0-10.03,4.08-10.66,9.5c-0.33,2.85,0.46,5.66,2.24,7.92c1.78,2.25,4.33,3.68,7.18,4.01c0.42,0.05,0.84,0.07,1.26,0.07
				c5.45,0,10.03-4.08,10.66-9.5c0.69-5.89-3.54-11.24-9.43-11.92C783.31,439.91,782.89,439.89,782.47,439.89L782.47,439.89z"/>
		</g>
		<g>
			<path class="st6" d="M532.48,450.89c5.38,0,9.75,4.37,9.75,9.75c0,5.38-4.37,9.75-9.75,9.75c-5.38,0-9.75-4.37-9.75-9.75
				C522.73,455.25,527.1,450.89,532.48,450.89 M532.48,449.89c-5.93,0-10.75,4.82-10.75,10.75s4.82,10.75,10.75,10.75
				c5.93,0,10.75-4.82,10.75-10.75S538.41,449.89,532.48,449.89L532.48,449.89z"/>
		</g>
		<g>
			<path class="st6" d="M532.47,440.89c0.38,0,0.76,0.02,1.14,0.07c5.35,0.63,9.18,5.47,8.55,10.82c-0.58,4.96-4.79,8.62-9.67,8.62
				c-0.38,0-0.76-0.02-1.14-0.07c-5.35-0.63-9.18-5.47-8.55-10.82C523.38,444.54,527.59,440.89,532.47,440.89 M532.47,439.89
				c-5.45,0-10.03,4.08-10.66,9.5c-0.69,5.89,3.54,11.24,9.43,11.92c0.42,0.05,0.84,0.07,1.26,0.07c5.45,0,10.03-4.08,10.66-9.5
				c0.69-5.89-3.54-11.24-9.43-11.92C533.31,439.91,532.89,439.89,532.47,439.89L532.47,439.89z"/>
		</g>
		<g>
			<path class="st6" d="M280.48,450.89c5.38,0,9.75,4.37,9.75,9.75c0,5.38-4.37,9.75-9.75,9.75c-5.38,0-9.75-4.37-9.75-9.75
				C270.73,455.25,275.1,450.89,280.48,450.89 M280.48,449.89c-5.93,0-10.75,4.82-10.75,10.75s4.82,10.75,10.75,10.75
				c5.93,0,10.75-4.82,10.75-10.75S286.41,449.89,280.48,449.89L280.48,449.89z"/>
		</g>
		<g>
			<path class="st6" d="M280.47,440.89c0.38,0,0.76,0.02,1.14,0.07c5.35,0.63,9.18,5.47,8.55,10.82c-0.58,4.96-4.79,8.62-9.67,8.62
				c-0.38,0-0.76-0.02-1.14-0.07c-5.35-0.63-9.18-5.47-8.55-10.82C271.38,444.54,275.59,440.89,280.47,440.89 M280.47,439.89
				c-5.45,0-10.03,4.08-10.66,9.5c-0.33,2.85,0.46,5.66,2.24,7.92c1.78,2.25,4.33,3.68,7.18,4.01c0.42,0.05,0.84,0.07,1.26,0.07
				c5.45,0,10.03-4.08,10.66-9.5c0.69-5.89-3.54-11.24-9.43-11.92C281.31,439.91,280.89,439.89,280.47,439.89L280.47,439.89z"/>
		</g>
		<g>
			<path class="st6" d="M33.48,450.89c5.38,0,9.75,4.37,9.75,9.75c0,5.38-4.37,9.75-9.75,9.75s-9.75-4.37-9.75-9.75
				C23.73,455.25,28.1,450.89,33.48,450.89 M33.48,449.89c-5.93,0-10.75,4.82-10.75,10.75s4.82,10.75,10.75,10.75
				s10.75-4.82,10.75-10.75S39.41,449.89,33.48,449.89L33.48,449.89z"/>
		</g>
		<g>
			<path class="st6" d="M33.47,440.89c0.38,0,0.76,0.02,1.14,0.07c5.35,0.63,9.18,5.47,8.55,10.82c-0.58,4.96-4.79,8.62-9.67,8.62
				c-0.38,0-0.76-0.02-1.14-0.07c-5.35-0.63-9.18-5.47-8.55-10.82C24.38,444.54,28.59,440.89,33.47,440.89 M33.47,439.89
				c-5.45,0-10.03,4.08-10.66,9.5c-0.33,2.85,0.46,5.66,2.24,7.92s4.33,3.68,7.18,4.01c0.42,0.05,0.84,0.07,1.26,0.07
				c5.45,0,10.03-4.08,10.66-9.5c0.69-5.89-3.54-11.24-9.43-11.92C34.31,439.91,33.89,439.89,33.47,439.89L33.47,439.89z"/>
		</g>
	</g>
</g>
<g id="tables">
	<g id="rect">
		<path class="st7" d="M1050.88,55.53V15.82c-0.01-2.66-2.22-4.83-4.91-4.82l-851.14,0.27c-2.7,0.01-4.9,2.19-4.89,4.84l0.02,6.24
			l0.04,32.82c0.01,2.66,2.22,4.83,4.91,4.82l851.14-0.27c2.7-0.01,4.9-2.19,4.89-4.84L1050.88,55.53z"/>
	</g>
	<g id="text">
		<g id="elem-text">
			<text transform="matrix(1 0 0 1 48.7644 461.9904)" class="st6 st8 st9">Т1</text>
			<text transform="matrix(1 0 0 1 295.7644 461.9904)" class="st6 st8 st9">Т1</text>
			<text transform="matrix(1 0 0 1 547.7644 461.9904)" class="st6 st8 st9">Т1</text>
			<text transform="matrix(1 0 0 1 797.7644 461.9904)" class="st6 st8 st9">Т1</text>
			<text transform="matrix(1 0 0 1 1047.7644 461.9904)" class="st6 st8 st9">Т1</text>
			<text transform="matrix(1 0 0 1 40.7644 929.9904)" class="st6 st8 st9">Т1</text>
			<text transform="matrix(1 0 0 1 287.7644 929.9904)" class="st6 st8 st9">Т1</text>
			<text transform="matrix(1 0 0 1 539.7644 929.9904)" class="st6 st8 st9">Т1</text>
			<text transform="matrix(1 0 0 1 789.7644 929.9904)" class="st6 st8 st9">Т1</text>
		</g>
		<g id="regular">
		</g>
		<g id="subtitles">
			<text transform="matrix(1 0 0 1 1043.3438 501.5474)" class="st6 st8 st10">1ВВ</text>
			<text transform="matrix(1 0 0 1 1043.3125 344.6372)" class="st6 st8 st10">УВН1</text>
			<text transform="matrix(1 0 0 1 793.3438 501.5474)" class="st6 st8 st10">1ВВ</text>
			<text transform="matrix(1 0 0 1 793.3125 344.6372)" class="st6 st8 st10">УВН1</text>
			<text transform="matrix(1 0 0 1 543.3438 501.5474)" class="st6 st8 st10">1ВВ</text>
			<text transform="matrix(1 0 0 1 543.3125 344.6372)" class="st6 st8 st10">УВН1</text>
			<text transform="matrix(1 0 0 1 291.3438 501.5474)" class="st6 st8 st10">1ВВ</text>
			<text transform="matrix(1 0 0 1 291.3125 344.6372)" class="st6 st8 st10">УВН1</text>
			<text transform="matrix(1 0 0 1 44.3438 501.5474)" class="st6 st8 st10">1ВВ</text>
			<text transform="matrix(1 0 0 1 44.3125 344.6372)" class="st6 st8 st10">УВН1</text>
			<text transform="matrix(1 0 0 1 145.0318 242.957)" class="st6 st8 st10">ВЛ-10</text>
			<text transform="matrix(1 0 0 1 535.3438 969.5474)" class="st6 st8 st10">1ВВ</text>
			<text transform="matrix(1 0 0 1 543.3125 822.6372)" class="st6 st8 st10">УВН1</text>
			<text transform="matrix(1 0 0 1 512.1169 1006.6956)" class="st6 st8 st10">С-0,4</text>
			<text transform="matrix(1 0 0 1 762.1169 1006.6956)" class="st6 st8 st10">С-0,4</text>
			<text transform="matrix(1 0 0 1 20.3123 538.0464)" class="st6 st8 st10">С-0,4</text>
			<text transform="matrix(1 0 0 1 267.3123 538.0464)" class="st6 st8 st10">С-0,4</text>
			<text transform="matrix(1 0 0 1 519.3123 538.0464)" class="st6 st8 st10">С-0,4</text>
			<text transform="matrix(1 0 0 1 769.3123 538.0464)" class="st6 st8 st10">С-0,4</text>
			<text transform="matrix(1 0 0 1 1019.3123 538.0464)" class="st6 st8 st10">С-0,4</text>
			<text transform="matrix(1 0 0 1 145.0318 720.957)" class="st6 st8 st10">ВЛ-10</text>
			<text transform="matrix(1 0 0 1 19.5437 574.0469)" class="st6 st8 st10">1С-10</text>
			<text transform="matrix(1 0 0 1 13.117 1006.6956)" class="st6 st8 st10">С-0,4</text>
			<text transform="matrix(1 0 0 1 283.3438 969.5474)" class="st6 st8 st10">1ВВ</text>
			<text transform="matrix(1 0 0 1 291.3125 822.6372)" class="st6 st8 st10">УВН1</text>
			<text transform="matrix(1 0 0 1 260.1169 1006.6956)" class="st6 st8 st10">С-0,4</text>
			<text transform="matrix(1 0 0 1 785.3438 969.5474)" class="st6 st8 st10">1ВВ</text>
			<text transform="matrix(1 0 0 1 793.3125 822.6372)" class="st6 st8 st10">УВН1</text>
			<text transform="matrix(1 0 0 1 19.1687 96.0469)" class="st6 st8 st10">1С-10</text>
			<text transform="matrix(1 0 0 1 36.3438 969.5474)" class="st6 st8 st10">1ВВ</text>
			<text transform="matrix(1 0 0 1 44.3125 822.6372)" class="st6 st8 st10">УВН1</text>
		</g>
		<g id="titles">
			<text transform="matrix(1 0 0 1 1134.8179 287.9761)" class="st6 st8 st11">ТП-418</text>
			<text transform="matrix(1 0 0 1 134.8179 287.9761)" class="st6 st8 st11">ТП-415</text>
			<text transform="matrix(1 0 0 1 384.8179 287.9761)" class="st6 st8 st11">ТП-414</text>
			<text transform="matrix(1 0 0 1 634.8179 287.9761)" class="st6 st8 st11">ТП-417</text>
			<text transform="matrix(1 0 0 1 884.8181 287.9761)" class="st6 st8 st11">ТП-416</text>
			<text transform="matrix(1 0 0 1 134.8179 765.9761)" class="st6 st8 st11">ТП-409</text>
			<text transform="matrix(1 0 0 1 384.8179 765.9761)" class="st6 st8 st11">ТП-403</text>
			<text transform="matrix(1 0 0 1 634.8179 765.9761)" class="st6 st8 st11">ТП-408</text>
			<text transform="matrix(1 0 0 1 884.8181 765.9761)" class="st6 st8 st11">ТП-401</text>
			<text transform="matrix(1 0 0 1 130.2879 101.9761)" class="st6 st8 st11">РУ-10кВ</text>
			<text transform="matrix(1 0 0 1 53.7893 175.9761)" class="st6 st8 st11">13</text>
			<text transform="matrix(1 0 0 1 553.9688 175.9761)" class="st6 st8 st11">4Р-417</text>
			<text transform="matrix(1 0 0 1 554.3438 653.9766)" class="st6 st8 st11">1Р-401</text>
			<text transform="matrix(1 0 0 1 130.6629 579.9761)" class="st6 st8 st11">РУ-10кВ</text>
			<text transform="matrix(1 0 0 1 54.1643 653.9761)" class="st6 st8 st11">23</text>
		</g>
		<g id="main">
			<g>
				<text transform="matrix(1 -2.470000e-03 2.470000e-03 1 424.6251 44.7405)" class="st12 st8 st13">Электроснабжение КГС ГП-41 от 1С-10кВ РУ-10кВ</text>
			</g>
		</g>
	</g>
</g>
</svg>
