<?xml version="1.0" encoding="utf-8"?>
<!-- Generator: Adobe Illustrator 25.4.1, SVG Export Plug-In . SVG Version: 6.00 Build 0)  -->
<svg version="1.1" xmlns="http://www.w3.org/2000/svg" xmlns:xlink="http://www.w3.org/1999/xlink" x="0px" y="0px"
	 viewBox="0 0 1833.8 2211.9" style="enable-background:new 0 0 1833.8 2211.9;" xml:space="preserve">
<style type="text/css">
	.st0{fill:#202331;}
	.st1{fill:none;stroke:#FCC10A;stroke-width:3;stroke-miterlimit:10;}
	.st2{fill:none;stroke:#836EED;stroke-width:3;stroke-miterlimit:10;}
	.st3{fill:none;stroke:#F3C80D;stroke-width:3;stroke-miterlimit:10;}
	.st4{fill:#2A2D3F;stroke:#FCC10A;stroke-width:2;stroke-miterlimit:10;}
	.st5{fill:#2A2D3F;stroke:#836EED;stroke-width:2;stroke-miterlimit:10;}
	.st6{fill:#BBBABC;}
	.st7{font-family:'UbuntuCondensed-Regular';}
	.st8{font-size:20px;}
	.st9{fill:#2A2D3F;}
	.st10{fill:none;stroke:#6C6E7A;stroke-miterlimit:10;}
	.st11{fill:#EAEAEA;}
	.st12{font-size:18.9999px;}
	.st13{font-size:14.9999px;}
	.st14{font-size:20.9999px;}
	.st15{fill:#6C6E7A;}
	.st16{fill:none;stroke:#5C5E69;stroke-miterlimit:10;stroke-dasharray:6,6;}
	.st17{fill:none;stroke:#4373B7;stroke-miterlimit:10;}
	.st18{fill:none;stroke:#FFFFFF;stroke-width:2;stroke-miterlimit:10;}
	.st19{fill:none;}
	.st20{font-size:23.9999px;}
	
		.st21{clip-path:url(#SVGID_00000038398049643163275620000003650472248420901273_);fill:none;stroke:#FCC10A;stroke-width:60;stroke-miterlimit:10;}
	
		.st22{clip-path:url(#SVGID_00000106828618486421453330000002261920821619966379_);fill:none;stroke:#FCCE71;stroke-width:50;stroke-miterlimit:10;}
	
		.st23{clip-path:url(#SVGID_00000011710233966163224400000011665668945030909629_);fill:none;stroke:#FDE2B2;stroke-width:40;stroke-miterlimit:10;}
	
		.st24{clip-path:url(#SVGID_00000026134399300061379450000011889492882193167035_);fill:none;stroke:#FFFFFF;stroke-width:30;stroke-miterlimit:10;}
	.st25{fill:#191A28;}
	.st26{font-size:22px;}
	.st27{font-size:21px;}
	.st28{font-size:17px;}
	.st29{font-size:36px;}
</style>
<g id="tables-solid">
	<g id="t1">
		<path class="st0" d="M1396,2194l-1368,1c-10.7,0-18-8.3-18-19v-382c0-10.7,7.3-19,18-19l1368,0.5c10.7,0,18,7.8,18,18.5v382
			c0,10.7-7.3,18.6-18,18.6"/>
	</g>
	<g id="t2">
		<path class="st0" d="M1396,1757H28c-10.7,0-18-8.3-18-19v-381c0-10.7,7.3-20,18-20h1368c10.7,0,18,9.3,18,20v381
			C1414,1748.7,1406.7,1757,1396,1757"/>
	</g>
	<g id="t3">
		<path class="st0" d="M1396,1314H28c-10.7,0-18-8.3-18-19V914c0-10.7,7.3-20,18-20h1368c10.7,0,18,9.3,18,20v381
			C1414,1305.7,1406.7,1314,1396,1314"/>
	</g>
	<g id="t4">
		<path class="st0" d="M1396,873L28,872c-10.7,0-18-8.3-18-19V472c0-10.7,7.3-20,18-20h1368c10.7,0,18,9.3,18,20v381
			C1414,863.7,1406.7,873,1396,873"/>
	</g>
	<g id="t5">
		<path class="st0" d="M1396,428L28,429c-10.7,0-18-9.2-18-19.9V28c0-10.7,7.3-19,18-19h1368c10.7,0,18,8.3,18,19v381
			C1414,419.7,1406.7,428,1396,428"/>
	</g>
</g>
<g id="lines">
	<g id="pipes">
		<g id="gas_00000024003649360046200110000014260905152869518263_">
			<polyline class="st1" points="1079,297 1079,181 1270,181 1270,530 			"/>
			<line class="st1" x1="172" y1="295" x2="326" y2="295"/>
			<polyline class="st1" points="172,194 328,194 328,295 1244,295 1244,532 			"/>
			<polyline class="st1" points="1079,735 1079,620 1234,620 			"/>
			<line class="st1" x1="172" y1="735" x2="326" y2="735"/>
			<polyline class="st1" points="172,633 328,633 328,735 1244,735 1244,963 			"/>
			<line class="st1" x1="1244" y1="574" x2="1244" y2="736"/>
			<polyline class="st1" points="1079,1177 1079,1062 1220,1062 			"/>
			<line class="st1" x1="172" y1="1176" x2="326" y2="1176"/>
			<polyline class="st1" points="172,1075 328,1075 328,1176 1244,1176 1244,1355 			"/>
			<line class="st1" x1="1244" y1="1015" x2="1244" y2="1178"/>
			<polyline class="st1" points="1079,1622 1079,1505 1190,1505 			"/>
			<line class="st1" x1="172" y1="1620" x2="326" y2="1620"/>
			<polyline class="st1" points="172,1518 328,1518 328,1620 1242,1620 			"/>
			<line class="st1" x1="1244" y1="1439" x2="1244" y2="1851"/>
			<polyline class="st1" points="1079,2068 1079,1951 1200,1951 			"/>
			<line class="st1" x1="172" y1="2066" x2="326" y2="2066"/>
			<polyline class="st1" points="172,1964 328,1964 328,2066 1764,2066 			"/>
			<line class="st1" x1="1244" y1="1915" x2="1244" y2="2067"/>
		</g>
		<g id="methanol_00000026869918957051785240000005393849850409387452_">
			<polyline class="st2" points="870,297 870,106 1381,106 1381,543 			"/>
			<polyline class="st2" points="870,736 870,545 1381,545 1381,984 			"/>
			<polyline class="st2" points="870,1178 870,987 1381,987 1381,1876 			"/>
			<polyline class="st2" points="870,1621 870,1430 1378,1430 			"/>
			<polyline class="st2" points="870,2067 870,1876 1719,1876 			"/>
		</g>
	</g>
	<g id="arrows">
		<g id="gas_00000023253707941340447490000004804617055334188447_">
			<polyline class="st3" points="335,251 328,259 321,251 			"/>
			<polyline class="st3" points="283,288 291,295 283,302 			"/>
			<polyline class="st3" points="335,691 328,699 321,691 			"/>
			<polyline class="st3" points="282,728 291,735 282,742 			"/>
			<polyline class="st3" points="335,1132 328,1140 321,1132 			"/>
			<polyline class="st3" points="283,1169 292,1176 283,1183 			"/>
			<polyline class="st3" points="335,1576 328,1584 321,1576 			"/>
			<polyline class="st3" points="283,1613 292,1620 283,1627 			"/>
			<polyline class="st3" points="335,2022 328,2030 321,2022 			"/>
			<polyline class="st3" points="283,2059 291,2066 283,2073 			"/>
		</g>
		<g id="methanol_00000064321649398752438450000012970183581066967199_">
			<polyline class="st2" points="1374,259 1381,251 1388,259 			"/>
			<polyline class="st2" points="877,251 870,259 863,251 			"/>
			<polyline class="st2" points="1374,699 1381,690 1388,699 			"/>
			<polyline class="st2" points="877,691 870,699 863,691 			"/>
			<polyline class="st2" points="1374,1139 1381,1130 1388,1139 			"/>
			<polyline class="st2" points="877,1132 870,1140 863,1132 			"/>
			<polyline class="st2" points="1374,1584 1381,1575 1388,1584 			"/>
			<polyline class="st2" points="877,1576 870,1584 863,1576 			"/>
			<polyline class="st2" points="877,2022 870,2030 863,2022 			"/>
		</g>
	</g>
	<g id="arc">
		<g id="gas">
			<path class="st1" d="M1244,501v36c-3.9,0-7,3.1-7,7s3.1,7,7,7v35"/>
			<path class="st1" d="M1270,508v29c-3.9,0-7,3.1-7,7s3.1,7,7,7v12"/>
			<path class="st1" d="M1271,620h-19c0-3.9-3.1-7-7-7c-3.9,0-7,3.1-7,7h-16"/>
			<line class="st1" x1="1270" y1="563" x2="1270" y2="919"/>
			<path class="st1" d="M1244,953v26c-3.9,0-7,3.1-7,7s3.1,7,7,7v35"/>
			<path class="st1" d="M1270,910v69c-3.9,0-7,3.1-7,7s3.1,7,7,7v14"/>
			<path class="st1" d="M1271,1062h-19c0-3.9-3.1-7-7-7c-3.9,0-7,3.1-7,7h-26"/>
			<line class="st1" x1="1270" y1="1005" x2="1270" y2="1372"/>
			<path class="st1" d="M1244,1348v74c-3.9,0-7,3.1-7,7s3.1,7,7,7v35"/>
			<path class="st1" d="M1270,1363v59c-3.9,0-7,3.1-7,7s3.1,7,7,7v32"/>
			<path class="st1" d="M1271,1505h-19c0-3.9-3.1-7-7-7c-3.9,0-7,3.1-7,7h-56"/>
			<line class="st1" x1="1270" y1="1448" x2="1270" y2="1825"/>
			<path class="st1" d="M1244,1822v46c-3.9,0-7,3.1-7,7s3.1,7,7,7v45"/>
			<path class="st1" d="M1270,1819v49c-3.9,0-7,3.1-7,7s3.1,7,7,7v71"/>
			<path class="st1" d="M1731,1951h-479c0-3.9-3.1-7-7-7c-3.9,0-7,3.1-7,7h-56"/>
		</g>
		<g id="methanol">
		</g>
	</g>
	<g id="points">
		<g id="gas_00000070802920283586765590000006918008027871838121_">
			<circle class="st4" cx="328" cy="295" r="3.5"/>
			<circle class="st4" cx="1079" cy="295" r="3.5"/>
			<circle class="st4" cx="328" cy="735" r="3.5"/>
			<circle class="st4" cx="1079" cy="735" r="3.5"/>
			<circle class="st4" cx="1244" cy="735" r="3.5"/>
			<circle class="st4" cx="1270" cy="620" r="3.5"/>
			<circle class="st4" cx="328" cy="1176" r="3.5"/>
			<circle class="st4" cx="1079" cy="1176" r="3.5"/>
			<circle class="st4" cx="1244" cy="1176" r="3.5"/>
			<circle class="st4" cx="1270" cy="1062" r="3.5"/>
			<circle class="st4" cx="328" cy="1620" r="3.5"/>
			<circle class="st4" cx="1079" cy="1620" r="3.5"/>
			<circle class="st4" cx="1245" cy="1620" r="3.5"/>
			<circle class="st4" cx="1270" cy="1505" r="3.5"/>
			<circle class="st4" cx="328" cy="2066" r="3.5"/>
			<circle class="st4" cx="1079" cy="2066" r="3.5"/>
			<circle class="st4" cx="1244" cy="2066" r="3.5"/>
			<circle class="st4" cx="1270" cy="1950" r="3.5"/>
		</g>
		<g id="methanol_00000067209295875795836940000003816377945124421563_">
			<circle class="st5" cx="870" cy="295" r="3.5"/>
			<circle class="st5" cx="870" cy="735" r="3.5"/>
			<circle class="st5" cx="1381" cy="545" r="3.5"/>
			<circle class="st5" cx="870" cy="1176" r="3.5"/>
			<circle class="st5" cx="1381" cy="987" r="3.5"/>
			<circle class="st5" cx="870" cy="1620" r="3.5"/>
			<circle class="st5" cx="1381" cy="1431" r="3.5"/>
			<circle class="st5" cx="870" cy="2066" r="3.5"/>
			<circle class="st5" cx="1381" cy="1876" r="3.5"/>
		</g>
	</g>
</g>
<g id="Слой_2">
	<g id="Слой_17">
	</g>
	<g id="Слой_18">
	</g>
	<g id="Слой_25">
	</g>
	<g id="Слой_49">
	</g>
	<g id="Слой_48">
		<text transform="matrix(1 0 0 1 33.0739 36.1386)"><tspan x="0" y="0" class="st6 st7 st8">Ск</tspan><tspan x="17.9" y="0" class="st6 st7 st8">в</tspan><tspan x="27.2" y="0" class="st6 st7 st8">ажина 1</tspan></text>
		<text transform="matrix(1 0 0 1 34.1734 491.9857)"><tspan x="0" y="0" class="st6 st7 st8">Ск</tspan><tspan x="17.9" y="0" class="st6 st7 st8">в</tspan><tspan x="27.2" y="0" class="st6 st7 st8">ажина 2</tspan></text>
		<text transform="matrix(1 0 0 1 35.2731 936.4724)"><tspan x="0" y="0" class="st6 st7 st8">Ск</tspan><tspan x="17.9" y="0" class="st6 st7 st8">в</tspan><tspan x="27.2" y="0" class="st6 st7 st8">ажина 3</tspan></text>
		<text transform="matrix(1 0 0 1 36.3728 1377.8114)"><tspan x="0" y="0" class="st6 st7 st8">Ск</tspan><tspan x="17.9" y="0" class="st6 st7 st8">в</tspan><tspan x="27.2" y="0" class="st6 st7 st8">ажина 4</tspan></text>
		<text transform="matrix(1 0 0 1 36.3728 1823.8114)"><tspan x="0" y="0" class="st6 st7 st8">Ск</tspan><tspan x="17.9" y="0" class="st6 st7 st8">в</tspan><tspan x="27.2" y="0" class="st6 st7 st8">ажина 5</tspan></text>
	</g>
	<g id="Слой_26">
	</g>
	<g id="Слой_27">
	</g>
	<g id="Слой_19">
	</g>
	<g id="Слой_21">
	</g>
	<g id="Слой_31">
	</g>
	<g id="Слой_37">
	</g>
	<g id="Слой_22">
	</g>
	<g id="Слой_20">
	</g>
	<g id="Слой_47">
		<path class="st9" d="M846.4,1498.2l-111.8,0.3c-2.7,0-4.9,2.2-4.9,4.9l0.2,97.7c0,2.7,2.2,4.9,4.9,4.9l111.8-0.3
			c2.7,0,4.9-2.2,4.9-4.9l-0.2-97.7C851.3,1500.4,849.1,1498.2,846.4,1498.2"/>
		<path class="st10" d="M846.4,1498.2l-111.8,0.3c-2.7,0-4.9,2.2-4.9,4.9l0.2,97.7c0,2.7,2.2,4.9,4.9,4.9l111.8-0.3
			c2.7,0,4.9-2.2,4.9-4.9l-0.2-97.7C851.3,1500.4,849.1,1498.2,846.4,1498.2z"/>
		<text transform="matrix(1 -2.470000e-03 2.470000e-03 1 738.3674 1595.9309)" class="st11 st7 st12">F</text>
		<text transform="matrix(1 -2.470000e-03 2.470000e-03 1 746.4205 1595.9502)" class="st11 st7 st13">, м</text>
		<text transform="matrix(1 -2.470000e-03 2.470000e-03 1 761.9752 1595.9111)" class="st11 st7 st13">³</text>
		<text transform="matrix(1 -2.470000e-03 2.470000e-03 1 766.1753 1595.9014)" class="st11 st7 st13">/ч</text>
		<text transform="matrix(1 -2.470000e-03 2.470000e-03 1 798.223 1595.8071)" class="st11 st7 st14">8450</text>
		
			<rect x="839.3" y="1577.8" transform="matrix(1 -2.539010e-03 2.539010e-03 1 -4.0183 2.1415)" class="st15" width="4.3" height="11.8"/>
		
			<rect x="839.3" y="1589.6" transform="matrix(1 -2.539010e-03 2.539010e-03 1 -4.0482 2.1416)" class="st15" width="4.3" height="11.8"/>
		<line class="st16" x1="730.2" y1="1515.3" x2="850.8" y2="1515"/>
		<line class="st16" x1="730.3" y1="1563.6" x2="851" y2="1563.3"/>
		<polyline class="st17" points="842.4,1535.3 812.8,1527.8 793.1,1538.2 772.6,1536.4 753.5,1546.2 745.3,1546.7 729.7,1549.3 		
			"/>
		<path class="st15" d="M840.4,1532.8c1.4-1.1,3.4-0.9,4.5,0.5c1.1,1.4,0.9,3.4-0.4,4.6c-1.4,1.1-3.4,0.9-4.5-0.5
			C838.8,1536,839,1533.9,840.4,1532.8"/>
		<path class="st18" d="M840.4,1532.8c1.4-1.1,3.4-0.9,4.5,0.5c1.1,1.4,0.9,3.4-0.4,4.6c-1.4,1.1-3.4,0.9-4.5-0.5
			C838.8,1536,839,1533.9,840.4,1532.8z"/>
		<path class="st9" d="M846.4,1944.2l-111.8,0.3c-2.7,0-4.9,2.2-4.9,4.9l0.2,97.7c0,2.7,2.2,4.9,4.9,4.9l111.8-0.3
			c2.7,0,4.9-2.2,4.9-4.9l-0.2-97.7C851.3,1946.4,849.1,1944.2,846.4,1944.2"/>
		<path class="st10" d="M846.4,1944.2l-111.8,0.3c-2.7,0-4.9,2.2-4.9,4.9l0.2,97.7c0,2.7,2.2,4.9,4.9,4.9l111.8-0.3
			c2.7,0,4.9-2.2,4.9-4.9l-0.2-97.7C851.3,1946.4,849.1,1944.2,846.4,1944.2z"/>
		<text transform="matrix(1 -2.470000e-03 2.470000e-03 1 738.3674 2041.9309)" class="st11 st7 st12">F</text>
		<text transform="matrix(1 -2.470000e-03 2.470000e-03 1 746.4205 2041.9502)" class="st11 st7 st13">, м</text>
		<text transform="matrix(1 -2.470000e-03 2.470000e-03 1 761.9752 2041.9111)" class="st11 st7 st13">³</text>
		<text transform="matrix(1 -2.470000e-03 2.470000e-03 1 766.1753 2041.9015)" class="st11 st7 st13">/ч</text>
		<text transform="matrix(1 -2.470000e-03 2.470000e-03 1 798.223 2041.8071)" class="st11 st7 st14">8450</text>
		
			<rect x="839.3" y="2023.8" transform="matrix(1 -2.539010e-03 2.539010e-03 1 -5.1507 2.1429)" class="st15" width="4.3" height="11.8"/>
		
			<rect x="839.3" y="2035.6" transform="matrix(1 -2.539010e-03 2.539010e-03 1 -5.1806 2.143)" class="st15" width="4.3" height="11.8"/>
		<line class="st16" x1="730.2" y1="1961.3" x2="850.8" y2="1961"/>
		<line class="st16" x1="730.3" y1="2009.6" x2="851" y2="2009.3"/>
		<polyline class="st17" points="842.4,1981.3 812.8,1973.8 793.1,1984.2 772.6,1982.4 753.5,1992.2 745.3,1992.7 729.7,1995.3 		
			"/>
		<path class="st15" d="M840.4,1978.8c1.4-1.1,3.4-0.9,4.5,0.5c1.1,1.4,0.9,3.4-0.4,4.6c-1.4,1.1-3.4,0.9-4.5-0.5
			C838.8,1982,839,1979.9,840.4,1978.8"/>
		<path class="st18" d="M840.4,1978.8c1.4-1.1,3.4-0.9,4.5,0.5c1.1,1.4,0.9,3.4-0.4,4.6c-1.4,1.1-3.4,0.9-4.5-0.5
			C838.8,1982,839,1979.9,840.4,1978.8z"/>
	</g>
	<g id="Слой_46">
		<path class="st9" d="M844.6,1058.6l-111.8,0.3c-2.7,0-4.9,2.2-4.9,4.9l0.2,97.7c0,2.7,2.2,4.9,4.9,4.9l111.8-0.3
			c2.7,0,4.9-2.2,4.9-4.9l-0.2-97.7C849.5,1060.8,847.3,1058.6,844.6,1058.6"/>
		<path class="st10" d="M844.6,1058.6l-111.8,0.3c-2.7,0-4.9,2.2-4.9,4.9l0.2,97.7c0,2.7,2.2,4.9,4.9,4.9l111.8-0.3
			c2.7,0,4.9-2.2,4.9-4.9l-0.2-97.7C849.5,1060.8,847.3,1058.6,844.6,1058.6z"/>
		<text transform="matrix(1 -2.470000e-03 2.470000e-03 1 736.5622 1156.4088)" class="st11 st7 st12">F</text>
		<text transform="matrix(1 -2.470000e-03 2.470000e-03 1 744.6154 1156.4281)" class="st11 st7 st13">, м</text>
		<text transform="matrix(1 -2.470000e-03 2.470000e-03 1 760.17 1156.3892)" class="st11 st7 st13">³</text>
		<text transform="matrix(1 -2.470000e-03 2.470000e-03 1 764.3701 1156.3794)" class="st11 st7 st13">/ч</text>
		<text transform="matrix(1 -2.470000e-03 2.470000e-03 1 796.4178 1156.2852)" class="st11 st7 st14">8450</text>
		
			<rect x="837.4" y="1138.3" transform="matrix(1 -2.539010e-03 2.539010e-03 1 -2.9023 2.1355)" class="st15" width="4.3" height="11.8"/>
		
			<rect x="837.5" y="1150.1" transform="matrix(1 -2.539010e-03 2.539010e-03 1 -2.9323 2.1356)" class="st15" width="4.3" height="11.8"/>
		<line class="st16" x1="728.4" y1="1075.8" x2="849" y2="1075.5"/>
		<line class="st16" x1="728.5" y1="1124.1" x2="849.1" y2="1123.8"/>
		<polyline class="st17" points="840.6,1095.8 811,1088.2 791.3,1098.7 770.8,1096.9 751.7,1106.6 743.5,1107.1 727.9,1109.8 		"/>
		<path class="st15" d="M838.6,1093.3c1.4-1.1,3.4-0.9,4.5,0.5c1.1,1.4,0.9,3.4-0.4,4.6c-1.4,1.1-3.4,0.9-4.5-0.5
			C837,1096.5,837.2,1094.4,838.6,1093.3"/>
		<path class="st18" d="M838.6,1093.3c1.4-1.1,3.4-0.9,4.5,0.5c1.1,1.4,0.9,3.4-0.4,4.6c-1.4,1.1-3.4,0.9-4.5-0.5
			C837,1096.5,837.2,1094.4,838.6,1093.3z"/>
	</g>
	<g id="Слой_45">
		<path class="st9" d="M844.9,178.2l-111.8,0.3c-2.7,0-4.9,2.2-4.9,4.9l0.2,97.7c0,2.7,2.2,4.9,4.9,4.9l111.8-0.3
			c2.7,0,4.9-2.2,4.9-4.9l-0.2-97.7C849.8,180.4,847.6,178.2,844.9,178.2"/>
		<path class="st10" d="M844.9,178.2l-111.8,0.3c-2.7,0-4.9,2.2-4.9,4.9l0.2,97.7c0,2.7,2.2,4.9,4.9,4.9l111.8-0.3
			c2.7,0,4.9-2.2,4.9-4.9l-0.2-97.7C849.8,180.4,847.6,178.2,844.9,178.2z"/>
		<text transform="matrix(1 -2.470000e-03 2.470000e-03 1 736.9048 275.9308)" class="st11 st7 st12">F</text>
		<text transform="matrix(1 -2.470000e-03 2.470000e-03 1 744.958 275.9502)" class="st11 st7 st13">, м</text>
		<text transform="matrix(1 -2.470000e-03 2.470000e-03 1 760.5126 275.9111)" class="st11 st7 st13">³</text>
		<text transform="matrix(1 -2.470000e-03 2.470000e-03 1 764.7128 275.9014)" class="st11 st7 st13">/ч</text>
		<text transform="matrix(1 -2.470000e-03 2.470000e-03 1 796.7604 275.8072)" class="st11 st7 st14">8450</text>
		
			<rect x="837.8" y="257.8" transform="matrix(1 -2.539010e-03 2.539010e-03 1 -0.6668 2.1335)" class="st15" width="4.3" height="11.8"/>
		
			<rect x="837.8" y="269.6" transform="matrix(1 -2.539010e-03 2.539010e-03 1 -0.6967 2.1336)" class="st15" width="4.3" height="11.8"/>
		<line class="st16" x1="728.7" y1="195.3" x2="849.4" y2="195"/>
		<line class="st16" x1="728.9" y1="243.6" x2="849.5" y2="243.3"/>
		<polyline class="st17" points="841,215.3 811.3,207.8 791.6,218.2 771.2,216.4 752.1,226.2 743.8,226.7 728.2,229.3 		"/>
		<path class="st15" d="M838.9,212.8c1.4-1.1,3.4-0.9,4.5,0.5c1.1,1.4,0.9,3.4-0.4,4.6c-1.4,1.1-3.4,0.9-4.5-0.5
			C837.4,216,837.6,213.9,838.9,212.8"/>
		<path class="st18" d="M838.9,212.8c1.4-1.1,3.4-0.9,4.5,0.5c1.1,1.4,0.9,3.4-0.4,4.6c-1.4,1.1-3.4,0.9-4.5-0.5
			C837.4,216,837.6,213.9,838.9,212.8z"/>
	</g>
	<g id="Слой_44">
		<path class="st9" d="M845.1,617.5l-111.8,0.3c-2.7,0-4.9,2.2-4.9,4.9l0.2,97.7c0,2.7,2.2,4.9,4.9,4.9l111.8-0.3
			c2.7,0,4.9-2.2,4.9-4.9l-0.2-97.7C850,619.7,847.8,617.5,845.1,617.5"/>
		<path class="st10" d="M845.1,617.5l-111.8,0.3c-2.7,0-4.9,2.2-4.9,4.9l0.2,97.7c0,2.7,2.2,4.9,4.9,4.9l111.8-0.3
			c2.7,0,4.9-2.2,4.9-4.9l-0.2-97.7C850,619.7,847.8,617.5,845.1,617.5z"/>
		<text transform="matrix(1 -2.470000e-03 2.470000e-03 1 737.1083 715.277)" class="st11 st7 st12">F</text>
		<text transform="matrix(1 -2.470000e-03 2.470000e-03 1 745.1615 715.2963)" class="st11 st7 st13">, м</text>
		<text transform="matrix(1 -2.470000e-03 2.470000e-03 1 760.7161 715.2573)" class="st11 st7 st13">³</text>
		<text transform="matrix(1 -2.470000e-03 2.470000e-03 1 764.9163 715.2476)" class="st11 st7 st13">/ч</text>
		<text transform="matrix(1 -2.470000e-03 2.470000e-03 1 796.964 715.1533)" class="st11 st7 st14">8450</text>
		
			<rect x="838" y="697.1" transform="matrix(1 -2.539010e-03 2.539010e-03 1 -1.7823 2.1354)" class="st15" width="4.3" height="11.8"/>
		
			<rect x="838" y="708.9" transform="matrix(1 -2.539010e-03 2.539010e-03 1 -1.8122 2.1355)" class="st15" width="4.3" height="11.8"/>
		<line class="st16" x1="728.9" y1="634.6" x2="849.6" y2="634.3"/>
		<line class="st16" x1="729.1" y1="683" x2="849.7" y2="682.7"/>
		<polyline class="st17" points="841.2,654.6 811.5,647.1 791.8,657.6 771.4,655.8 752.3,665.5 744,666 728.4,668.7 		"/>
		<path class="st15" d="M839.1,652.1c1.4-1.1,3.4-0.9,4.5,0.5c1.1,1.4,0.9,3.4-0.4,4.6c-1.4,1.1-3.4,0.9-4.5-0.5
			C837.6,655.3,837.8,653.3,839.1,652.1"/>
		<path class="st18" d="M839.1,652.1c1.4-1.1,3.4-0.9,4.5,0.5c1.1,1.4,0.9,3.4-0.4,4.6c-1.4,1.1-3.4,0.9-4.5-0.5
			C837.6,655.3,837.8,653.3,839.1,652.1z"/>
	</g>
	<g id="Слой_23">
	</g>
	<g id="Слой_40">
	</g>
	<g id="Слой_28">
	</g>
	<g id="Слой_29">
	</g>
	<g id="Слой_30">
	</g>
	<g id="Слой_24">
	</g>
	<g id="Слой_32">
	</g>
	<g id="Слой_33">
	</g>
	<g id="Слой_35">
	</g>
	<g id="Слой_38">
	</g>
	<g id="Слой_41">
	</g>
	<g id="Слой_42">
	</g>
	<g id="Слой_39">
	</g>
	<g id="Слой_36">
	</g>
	<g id="Слой_43">
		<line class="st19" x1="19.6" y1="11.8" x2="1837.4" y2="11.8"/>
		<line class="st19" x1="19.6" y1="11.8" x2="1837.4" y2="11.8"/>
		<line class="st19" x1="19.6" y1="11.8" x2="1837.4" y2="11.8"/>
		<line class="st19" x1="19.6" y1="11.8" x2="1837.4" y2="11.8"/>
		<line class="st19" x1="19.6" y1="11.8" x2="1837.4" y2="11.8"/>
		<line class="st19" x1="19.6" y1="11.8" x2="1837.4" y2="11.8"/>
		<line class="st19" x1="19.6" y1="11.8" x2="1837.4" y2="11.8"/>
		<line class="st19" x1="19.6" y1="11.8" x2="1837.4" y2="11.8"/>
		<line class="st19" x1="19.6" y1="11.8" x2="1837.4" y2="11.8"/>
		<line class="st19" x1="19.6" y1="11.8" x2="1837.4" y2="11.8"/>
		<line class="st19" x1="19.6" y1="11.8" x2="1837.4" y2="11.8"/>
		<line class="st19" x1="19.6" y1="11.8" x2="1837.4" y2="11.8"/>
		<line class="st19" x1="19.6" y1="11.8" x2="1837.4" y2="11.8"/>
		<line class="st19" x1="19.6" y1="11.8" x2="1837.4" y2="11.8"/>
		<line class="st19" x1="19.6" y1="11.8" x2="1837.4" y2="11.8"/>
		<line class="st19" x1="19.6" y1="11.8" x2="1837.4" y2="11.8"/>
		<line class="st19" x1="19.6" y1="11.8" x2="1837.4" y2="11.8"/>
		<line class="st19" x1="19.6" y1="11.8" x2="1837.4" y2="11.8"/>
		<line class="st19" x1="19.6" y1="11.8" x2="1837.4" y2="11.8"/>
		<line class="st19" x1="19.6" y1="11.8" x2="1837.4" y2="11.8"/>
		<line class="st19" x1="19.6" y1="11.8" x2="1837.4" y2="11.8"/>
		<line class="st19" x1="19.6" y1="11.8" x2="1837.4" y2="11.8"/>
		<line class="st19" x1="19.6" y1="11.8" x2="1837.4" y2="11.8"/>
		<line class="st19" x1="19.6" y1="11.8" x2="1837.4" y2="11.8"/>
		<line class="st19" x1="19.6" y1="11.8" x2="1837.4" y2="11.8"/>
		<line class="st19" x1="19.6" y1="11.8" x2="1837.4" y2="11.8"/>
		<line class="st19" x1="19.6" y1="11.8" x2="1837.4" y2="11.8"/>
		<line class="st19" x1="19.6" y1="11.8" x2="1837.4" y2="11.8"/>
		<path class="st9" d="M1718.8,356.1l-179.4,0.3c-2.7,0-4.9,2.2-4.9,4.9l0.1,22.3c0,2.7,2.2,4.9,4.9,4.9l179.4-0.3
			c2.7,0,4.9-2.2,4.9-4.9l-0.1-22.3C1723.7,358.3,1721.4,356.1,1718.8,356.1"/>
		<path class="st10" d="M1718.8,356.1l-179.4,0.3c-2.7,0-4.9,2.2-4.9,4.9l0.1,22.3c0,2.7,2.2,4.9,4.9,4.9l179.4-0.3
			c2.7,0,4.9-2.2,4.9-4.9l-0.1-22.3C1723.7,358.3,1721.4,356.1,1718.8,356.1z"/>
		<line class="st19" x1="19.6" y1="11.8" x2="1837.4" y2="11.8"/>
		<text transform="matrix(1 -2.470000e-03 2.470000e-03 1 1542.8646 378.5503)"><tspan x="0" y="0" class="st11 st7 st14">Fм </tspan><tspan x="25.9" y="0" class="st11 st7 st14">с</tspan><tspan x="33.5" y="0" class="st11 st7 st14">у</tspan><tspan x="41.7" y="0" class="st11 st7 st14">мм</tspan></text>
		<text transform="matrix(1 -2.470000e-03 2.470000e-03 1 1610.1907 378.3583)"><tspan x="0" y="0" class="st11 st7 st12">, к</tspan><tspan x="16.2" y="0" class="st11 st7 st12">г</tspan><tspan x="22.2" y="0" class="st11 st7 st12">/ч</tspan></text>
		<text transform="matrix(1 -2.470000e-03 2.470000e-03 1 1696.2146 378.3338)" class="st11 st7 st20">0</text>
		<path class="st9" d="M1718.8,393.7l-179.4,0.3c-2.7,0-4.9,2.2-4.9,4.9l0.1,22.3c0,2.7,2.2,4.9,4.9,4.9l179.4-0.3
			c2.7,0,4.9-2.2,4.9-4.9l-0.1-22.3C1723.7,395.9,1721.4,393.7,1718.8,393.7"/>
		<path class="st10" d="M1718.8,393.7l-179.4,0.3c-2.7,0-4.9,2.2-4.9,4.9l0.1,22.3c0,2.7,2.2,4.9,4.9,4.9l179.4-0.3
			c2.7,0,4.9-2.2,4.9-4.9l-0.1-22.3C1723.7,395.9,1721.4,393.7,1718.8,393.7z"/>
		<line class="st19" x1="19.6" y1="11.8" x2="1837.4" y2="11.8"/>
		<text transform="matrix(1 -2.470000e-03 2.470000e-03 1 1542.8646 416.2169)" class="st11 st7 st14">Т</text>
		<text transform="matrix(1 -2.470000e-03 2.470000e-03 1 1551.8337 416.1692)" class="st11 st7 st12">, °C</text>
		<text transform="matrix(1 -2.470000e-03 2.470000e-03 1 1670.0067 416.0645)" class="st11 st7 st20">12,4</text>
		
			<rect x="1711.4" y="398" transform="matrix(1 -2.549575e-03 2.549575e-03 1 -1.0243 4.3703)" class="st15" width="4.3" height="11.8"/>
		
			<rect x="1711.5" y="409.8" transform="matrix(1 -2.542532e-03 2.542532e-03 1 -1.0515 4.3583)" class="st15" width="4.3" height="11.8"/>
		<line class="st19" x1="19.6" y1="11.8" x2="1837.4" y2="11.8"/>
		<line class="st19" x1="19.6" y1="11.8" x2="1837.4" y2="11.8"/>
		<line class="st19" x1="19.6" y1="11.8" x2="1837.4" y2="11.8"/>
		<g>
			<defs>
				<polygon id="SVGID_1_" points="1537.2,51.7 1506,93 1558.7,135.7 1583.5,114.5 1614.8,110.6 1659.6,120.7 1690.4,147.6 
					1697.7,211.7 1666.3,254.4 1702.3,313.2 1735.3,296.9 1763.3,250.2 1772.3,195.6 1766.9,129.3 1736.1,85.4 1681.1,43.1 
					1610.9,34.1 				"/>
			</defs>
			<clipPath id="SVGID_00000036971521971297339270000006711830591187965606_">
				<use xlink:href="#SVGID_1_"  style="overflow:visible;"/>
			</clipPath>
			
				<ellipse transform="matrix(0.9239 -0.3827 0.3827 0.9239 51.6036 636.3421)" style="clip-path:url(#SVGID_00000036971521971297339270000006711830591187965606_);fill:none;stroke:#FCC10A;stroke-width:60;stroke-miterlimit:10;" cx="1625.4" cy="188.5" rx="115.3" ry="115.3"/>
		</g>
		<g>
			<defs>
				<polygon id="SVGID_00000091704368867853205380000011514878007495960502_" points="1571,254.6 1537.4,299.1 1583.8,332.5 
					1646.9,334.5 1702.6,311.6 1671.2,260.4 1639.6,259.6 1580.5,252 				"/>
			</defs>
			<clipPath id="SVGID_00000126320225101995200370000009514053468926627256_">
				<use xlink:href="#SVGID_00000091704368867853205380000011514878007495960502_"  style="overflow:visible;"/>
			</clipPath>
			
				<path style="clip-path:url(#SVGID_00000126320225101995200370000009514053468926627256_);fill:none;stroke:#FCCE71;stroke-width:50;stroke-miterlimit:10;" d="
				M1510.5,185.9c0-62.6,50.7-113.3,113.3-113.3c62.6,0,113.3,50.7,113.3,113.3s-50.7,113.3-113.3,113.3
				C1561.3,299.2,1510.5,248.5,1510.5,185.9z"/>
		</g>
		<g>
			<defs>
				<polygon id="SVGID_00000165199867288611960970000003824798257576828842_" points="1485.6,196.7 1493.8,254 1540.6,295 
					1571,254.7 1537.9,193.6 				"/>
			</defs>
			<clipPath id="SVGID_00000142154937917519003930000015269939596538430353_">
				<use xlink:href="#SVGID_00000165199867288611960970000003824798257576828842_"  style="overflow:visible;"/>
			</clipPath>
			
				<ellipse transform="matrix(1.808736e-03 -1 1 1.808736e-03 1430.0615 1808.7489)" style="clip-path:url(#SVGID_00000142154937917519003930000015269939596538430353_);fill:none;stroke:#FDE2B2;stroke-width:40;stroke-miterlimit:10;" cx="1621" cy="188" rx="104.9" ry="104.9"/>
		</g>
		<g>
			<defs>
				<polygon id="SVGID_00000067923106907300158740000017270841641466744485_" points="1492.1,146.1 1487.3,195 1496.4,196.1 
					1539.6,193.6 1558.5,135.5 1521.8,105.8 				"/>
			</defs>
			<clipPath id="SVGID_00000043448842191458784790000005486009338020187779_">
				<use xlink:href="#SVGID_00000067923106907300158740000017270841641466744485_"  style="overflow:visible;"/>
			</clipPath>
			
				<ellipse style="clip-path:url(#SVGID_00000043448842191458784790000005486009338020187779_);fill:none;stroke:#FFFFFF;stroke-width:30;stroke-miterlimit:10;" cx="1639.6" cy="187.5" rx="118.6" ry="99.7"/>
		</g>
		<text transform="matrix(1 0 0 1 1713.6797 129.1187)" class="st25 st7 st26">1</text>
		<text transform="matrix(1 0 0 1 1613.2939 308.2647)" class="st25 st7 st26">2</text>
		<text transform="matrix(1 0 0 1 1524.832 244.6187)" class="st25 st7 st26">3</text>
		<text transform="matrix(1 0 0 1 1521.334 166.1226)" class="st25 st7 st26">4</text>
		<path class="st9" d="M1536,188.6c0-48.7,39.5-88.1,88.1-88.1c48.7,0,88.1,39.5,88.1,88.1c0,48.7-39.5,88.1-88.1,88.1
			C1575.4,276.7,1536,237.3,1536,188.6"/>
		<line class="st19" x1="19.6" y1="11.8" x2="1837.4" y2="11.8"/>
		<text transform="matrix(1 0 0 1 1576.2041 220.9303)"><tspan x="0" y="0" class="st6 st7 st27">F</tspan><tspan x="8.5" y="0" class="st6 st7 st27">r </tspan><tspan x="19.5" y="0" class="st6 st7 st27">с</tspan><tspan x="27.1" y="0" class="st6 st7 st27">у</tspan><tspan x="35.3" y="0" class="st6 st7 st27">мм</tspan></text>
		<text transform="matrix(1 0 0 1 1637.166 220.9303)" class="st6 st7 st28">, м</text>
		<text transform="matrix(1 0 0 1 1654.7949 220.9303)" class="st6 st7 st28">³</text>
		<text transform="matrix(1 0 0 1 1659.5547 220.9303)" class="st6 st7 st28">/ч</text>
		<text transform="matrix(1 0 0 1 1586.5518 195.8726)" class="st11 st7 st29">74403</text>
	</g>
</g>
<g id="SimpleElements">
	<g id="gasser-elem">
		
			<image style="overflow:visible;" width="160" height="301" xlink:href="../../../elements/gasser-elem/pub/default.png"  transform="matrix(1 0 0 1 23 106.5)">
		</image>
		
			<image style="overflow:visible;" width="160" height="301" xlink:href="../../../elements/gasser-elem/pub/default.png"  transform="matrix(1 0 0 1 23 546.5)">
		</image>
		
			<image style="overflow:visible;" width="160" height="301" xlink:href="../../../elements/gasser-elem/pub/default.png"  transform="matrix(1 0 0 1 23 987.5)">
		</image>
		
			<image style="overflow:visible;" width="160" height="301" xlink:href="../../../elements/gasser-elem/pub/default.png"  transform="matrix(1 0 0 1 23 1433.5)">
		</image>
		
			<image style="overflow:visible;" width="160" height="301" xlink:href="../../../elements/gasser-elem/pub/default.png"  transform="matrix(1 0 0 1 23 1875.5)">
		</image>
	</g>
	<g id="transition-button-elem">
		
			<image style="overflow:visible;" width="119" height="34" xlink:href="../../../elements/transition-button-elem/pub/transition-button_arrowdirection-1.png"  transform="matrix(1 0 0 1 1702 1859)">
		</image>
		
			<image style="overflow:visible;" width="119" height="34" xlink:href="../../../elements/transition-button-elem/pub/transition-button_arrowdirection-0.png"  transform="matrix(1 0 0 1 1702 1934)">
		</image>
		
			<image style="overflow:visible;" width="119" height="34" xlink:href="../../../elements/transition-button-elem/pub/transition-button_arrowdirection-0.png"  transform="matrix(1 0 0 1 1702 2049)">
		</image>
	</g>
	<g id="valve-n-elem">
		
			<image style="overflow:visible;" width="71" height="89" xlink:href="../../../elements/valve-n-elem/pub/valve-n_h_caption.png"  transform="matrix(1 0 0 1 512.5 247)">
		</image>
		
			<image style="overflow:visible;" width="71" height="89" xlink:href="../../../elements/valve-n-elem/pub/valve-n_h_caption.png"  transform="matrix(1 0 0 1 637.5 247)">
		</image>
		
			<image style="overflow:visible;" width="71" height="89" xlink:href="../../../elements/valve-n-elem/pub/valve-n_h_caption.png"  transform="matrix(1 0 0 1 914.5 58.5)">
		</image>
		
			<image style="overflow:visible;" width="71" height="89" xlink:href="../../../elements/valve-n-elem/pub/valve-n_h_caption.png"  transform="matrix(1 0 0 1 1287.5 58.5)">
		</image>
		
			<image style="overflow:visible;" width="98" height="71" xlink:href="../../../elements/valve-n-elem/pub/valve-n_v_caption.png"  transform="matrix(1 0 0 1 1034 204.5)">
		</image>
		
			<image style="overflow:visible;" width="71" height="89" xlink:href="../../../elements/valve-n-elem/pub/valve-n_h_caption.png"  transform="matrix(1 0 0 1 1153.5 247)">
		</image>
		
			<image style="overflow:visible;" width="71" height="89" xlink:href="../../../elements/valve-n-elem/pub/valve-n_h_caption.png"  transform="matrix(1 0 0 1 1593.5 1828.5)">
		</image>
		
			<image style="overflow:visible;" width="71" height="89" xlink:href="../../../elements/valve-n-elem/pub/valve-n_h_caption.png"  transform="matrix(1 0 0 1 1601.5 2019.5)">
		</image>
		
			<image style="overflow:visible;" width="71" height="89" xlink:href="../../../elements/valve-n-elem/pub/valve-n_h_caption.png"  transform="matrix(1 0 0 1 512.5 687.5)">
		</image>
		
			<image style="overflow:visible;" width="71" height="89" xlink:href="../../../elements/valve-n-elem/pub/valve-n_h_caption.png"  transform="matrix(1 0 0 1 512.5 1127.5)">
		</image>
		
			<image style="overflow:visible;" width="71" height="89" xlink:href="../../../elements/valve-n-elem/pub/valve-n_h_caption.png"  transform="matrix(1 0 0 1 512.5 1572.5)">
		</image>
		
			<image style="overflow:visible;" width="71" height="89" xlink:href="../../../elements/valve-n-elem/pub/valve-n_h_caption.png"  transform="matrix(1 0 0 1 512.5 2018.5)">
		</image>
		
			<image style="overflow:visible;" width="71" height="89" xlink:href="../../../elements/valve-n-elem/pub/valve-n_h_caption.png"  transform="matrix(1 0 0 1 637.5 687.5)">
		</image>
		
			<image style="overflow:visible;" width="71" height="89" xlink:href="../../../elements/valve-n-elem/pub/valve-n_h_caption.png"  transform="matrix(1 0 0 1 637.5 1127.5)">
		</image>
		
			<image style="overflow:visible;" width="71" height="89" xlink:href="../../../elements/valve-n-elem/pub/valve-n_h_caption.png"  transform="matrix(1 0 0 1 637.5 1572.5)">
		</image>
		
			<image style="overflow:visible;" width="71" height="89" xlink:href="../../../elements/valve-n-elem/pub/valve-n_h_caption.png"  transform="matrix(1 0 0 1 637.5 2018.5)">
		</image>
		
			<image style="overflow:visible;" width="71" height="89" xlink:href="../../../elements/valve-n-elem/pub/valve-n_h_caption.png"  transform="matrix(1 0 0 1 914.5 498.5)">
		</image>
		
			<image style="overflow:visible;" width="71" height="89" xlink:href="../../../elements/valve-n-elem/pub/valve-n_h_caption.png"  transform="matrix(1 0 0 1 914.5 941.5)">
		</image>
		
			<image style="overflow:visible;" width="71" height="89" xlink:href="../../../elements/valve-n-elem/pub/valve-n_h_caption.png"  transform="matrix(1 0 0 1 914.5 1384.5)">
		</image>
		
			<image style="overflow:visible;" width="71" height="89" xlink:href="../../../elements/valve-n-elem/pub/valve-n_h_caption.png"  transform="matrix(1 0 0 1 914.5 1828.5)">
		</image>
		
			<image style="overflow:visible;" width="98" height="71" xlink:href="../../../elements/valve-n-elem/pub/valve-n_v_caption.png"  transform="matrix(1 0 0 1 1034 644.5)">
		</image>
		
			<image style="overflow:visible;" width="98" height="71" xlink:href="../../../elements/valve-n-elem/pub/valve-n_v_caption.png"  transform="matrix(1 0 0 1 1034 1085.5)">
		</image>
		
			<image style="overflow:visible;" width="98" height="71" xlink:href="../../../elements/valve-n-elem/pub/valve-n_v_caption.png"  transform="matrix(1 0 0 1 1034 1528.5)">
		</image>
		
			<image style="overflow:visible;" width="98" height="71" xlink:href="../../../elements/valve-n-elem/pub/valve-n_v_caption.png"  transform="matrix(1 0 0 1 1034 1971.5)">
		</image>
		
			<image style="overflow:visible;" width="71" height="89" xlink:href="../../../elements/valve-n-elem/pub/valve-n_h_caption.png"  transform="matrix(1 0 0 1 1153.5 687.5)">
		</image>
		
			<image style="overflow:visible;" width="71" height="89" xlink:href="../../../elements/valve-n-elem/pub/valve-n_h_caption.png"  transform="matrix(1 0 0 1 1153.5 1127.5)">
		</image>
		
			<image style="overflow:visible;" width="71" height="89" xlink:href="../../../elements/valve-n-elem/pub/valve-n_h_caption.png"  transform="matrix(1 0 0 1 1153.5 1572.5)">
		</image>
		
			<image style="overflow:visible;" width="71" height="89" xlink:href="../../../elements/valve-n-elem/pub/valve-n_h_caption.png"  transform="matrix(1 0 0 1 1153.5 2018.5)">
		</image>
		
			<image style="overflow:visible;" width="71" height="89" xlink:href="../../../elements/valve-n-elem/pub/valve-n_h_caption.png"  transform="matrix(1 0 0 1 1287.5 498.5)">
		</image>
		
			<image style="overflow:visible;" width="71" height="89" xlink:href="../../../elements/valve-n-elem/pub/valve-n_h_caption.png"  transform="matrix(1 0 0 1 1287.5 941.5)">
		</image>
		
			<image style="overflow:visible;" width="71" height="89" xlink:href="../../../elements/valve-n-elem/pub/valve-n_h_caption.png"  transform="matrix(1 0 0 1 1287.5 1384.5)">
		</image>
		
			<image style="overflow:visible;" width="71" height="89" xlink:href="../../../elements/valve-n-elem/pub/valve-n_h_caption.png"  transform="matrix(1 0 0 1 1287.5 1828.5)">
		</image>
	</g>
	<g id="multi-tit-elem">
		
			<image style="overflow:visible;" width="114" height="32" xlink:href="../../../elements/multi-tit-elem/pub/multi-tit_no-arroworient.png"  transform="matrix(1 0 0 1 1079.5 59)">
		</image>
		
			<image style="overflow:visible;" width="114" height="64" xlink:href="../../../elements/multi-tit-elem/pub/multi-tit_titcount-2_no-arroworient.png"  transform="matrix(1 0 0 1 893 216)">
		</image>
		
			<image style="overflow:visible;" width="114" height="64" xlink:href="../../../elements/multi-tit-elem/pub/multi-tit_titcount-2_no-arroworient.png"  transform="matrix(1 0 0 1 366 216)">
		</image>
		
			<image style="overflow:visible;" width="114" height="64" xlink:href="../../../elements/multi-tit-elem/pub/multi-tit_titcount-2_no-arroworient.png"  transform="matrix(1 0 0 1 197 115.5)">
		</image>
		
			<image style="overflow:visible;" width="114" height="64" xlink:href="../../../elements/multi-tit-elem/pub/multi-tit_titcount-2_no-arroworient.png"  transform="matrix(1 0 0 1 197 554)">
		</image>
		
			<image style="overflow:visible;" width="114" height="64" xlink:href="../../../elements/multi-tit-elem/pub/multi-tit_titcount-2_no-arroworient.png"  transform="matrix(1 0 0 1 197 996)">
		</image>
		
			<image style="overflow:visible;" width="114" height="64" xlink:href="../../../elements/multi-tit-elem/pub/multi-tit_titcount-2_no-arroworient.png"  transform="matrix(1 0 0 1 197 1438)">
		</image>
		
			<image style="overflow:visible;" width="114" height="64" xlink:href="../../../elements/multi-tit-elem/pub/multi-tit_titcount-2_no-arroworient.png"  transform="matrix(1 0 0 1 197 1885)">
		</image>
		
			<image style="overflow:visible;" width="114" height="64" xlink:href="../../../elements/multi-tit-elem/pub/multi-tit_titcount-2_no-arroworient.png"  transform="matrix(1 0 0 1 366 658)">
		</image>
		
			<image style="overflow:visible;" width="114" height="64" xlink:href="../../../elements/multi-tit-elem/pub/multi-tit_titcount-2_no-arroworient.png"  transform="matrix(1 0 0 1 366 1102)">
		</image>
		
			<image style="overflow:visible;" width="114" height="64" xlink:href="../../../elements/multi-tit-elem/pub/multi-tit_titcount-2_no-arroworient.png"  transform="matrix(1 0 0 1 366 1543)">
		</image>
		
			<image style="overflow:visible;" width="114" height="64" xlink:href="../../../elements/multi-tit-elem/pub/multi-tit_titcount-2_no-arroworient.png"  transform="matrix(1 0 0 1 366 1989)">
		</image>
		
			<image style="overflow:visible;" width="114" height="64" xlink:href="../../../elements/multi-tit-elem/pub/multi-tit_titcount-2_no-arroworient.png"  transform="matrix(1 0 0 1 893 658)">
		</image>
		
			<image style="overflow:visible;" width="114" height="64" xlink:href="../../../elements/multi-tit-elem/pub/multi-tit_titcount-2_no-arroworient.png"  transform="matrix(1 0 0 1 893 1102)">
		</image>
		
			<image style="overflow:visible;" width="114" height="64" xlink:href="../../../elements/multi-tit-elem/pub/multi-tit_titcount-2_no-arroworient.png"  transform="matrix(1 0 0 1 893 1543)">
		</image>
		
			<image style="overflow:visible;" width="114" height="64" xlink:href="../../../elements/multi-tit-elem/pub/multi-tit_titcount-2_no-arroworient.png"  transform="matrix(1 0 0 1 893 1989)">
		</image>
		
			<image style="overflow:visible;" width="114" height="32" xlink:href="../../../elements/multi-tit-elem/pub/multi-tit_no-arroworient.png"  transform="matrix(1 0 0 1 1079.5 501)">
		</image>
		
			<image style="overflow:visible;" width="114" height="32" xlink:href="../../../elements/multi-tit-elem/pub/multi-tit_no-arroworient.png"  transform="matrix(1 0 0 1 1079.5 941)">
		</image>
		
			<image style="overflow:visible;" width="114" height="32" xlink:href="../../../elements/multi-tit-elem/pub/multi-tit_no-arroworient.png"  transform="matrix(1 0 0 1 1079.5 1384)">
		</image>
		
			<image style="overflow:visible;" width="114" height="32" xlink:href="../../../elements/multi-tit-elem/pub/multi-tit_no-arroworient.png"  transform="matrix(1 0 0 1 1079.5 1831)">
		</image>
		
			<image style="overflow:visible;" width="114" height="64" xlink:href="../../../elements/multi-tit-elem/pub/multi-tit_titcount-2_no-arroworient.png"  transform="matrix(1 0 0 1 1456 1989)">
		</image>
		
			<image style="overflow:visible;" width="114" height="32" xlink:href="../../../elements/multi-tit-elem/pub/multi-tit_no-arroworient.png"  transform="matrix(1 0 0 1 1456 1903)">
		</image>
		
			<image style="overflow:visible;" width="114" height="32" xlink:href="../../../elements/multi-tit-elem/pub/multi-tit_no-arroworient.png"  transform="matrix(1 0 0 1 1456 1831)">
		</image>
		
			<image style="overflow:visible;" width="114" height="64" xlink:href="../../../elements/multi-tit-elem/pub/multi-tit_titcount-2_no-arroworient.png"  transform="matrix(1 0 0 1 140 330)">
		</image>
		
			<image style="overflow:visible;" width="114" height="64" xlink:href="../../../elements/multi-tit-elem/pub/multi-tit_titcount-2_no-arroworient.png"  transform="matrix(1 0 0 1 140 775)">
		</image>
		
			<image style="overflow:visible;" width="114" height="64" xlink:href="../../../elements/multi-tit-elem/pub/multi-tit_titcount-2_no-arroworient.png"  transform="matrix(1 0 0 1 140 1213)">
		</image>
		
			<image style="overflow:visible;" width="114" height="64" xlink:href="../../../elements/multi-tit-elem/pub/multi-tit_titcount-2_no-arroworient.png"  transform="matrix(1 0 0 1 140 1652)">
		</image>
		
			<image style="overflow:visible;" width="114" height="64" xlink:href="../../../elements/multi-tit-elem/pub/multi-tit_titcount-2_no-arroworient.png"  transform="matrix(1 0 0 1 140 2104)">
		</image>
		
			<image style="overflow:visible;" width="114" height="32" xlink:href="../../../elements/multi-tit-elem/pub/multi-tit_arroworient-left.png"  transform="matrix(1 0 0 1 142.5 226)">
		</image>
		
			<image style="overflow:visible;" width="114" height="32" xlink:href="../../../elements/multi-tit-elem/pub/multi-tit_arroworient-left.png"  transform="matrix(1 0 0 1 142.5 664)">
		</image>
		
			<image style="overflow:visible;" width="114" height="32" xlink:href="../../../elements/multi-tit-elem/pub/multi-tit_arroworient-left.png"  transform="matrix(1 0 0 1 142.5 1108)">
		</image>
		
			<image style="overflow:visible;" width="114" height="32" xlink:href="../../../elements/multi-tit-elem/pub/multi-tit_arroworient-left.png"  transform="matrix(1 0 0 1 142.5 1551)">
		</image>
		
			<image style="overflow:visible;" width="114" height="32" xlink:href="../../../elements/multi-tit-elem/pub/multi-tit_arroworient-left.png"  transform="matrix(1 0 0 1 142.5 1998)">
		</image>
	</g>
</g>
<g id="text">
	<g id="px20">
	</g>
</g>
</svg>
