<?xml version="1.0" encoding="utf-8"?>
<!-- Generator: Adobe Illustrator 25.4.1, SVG Export Plug-In . SVG Version: 6.00 Build 0)  -->
<svg version="1.1" xmlns="http://www.w3.org/2000/svg" xmlns:xlink="http://www.w3.org/1999/xlink" x="0px" y="0px" width="1544px"
	 height="1524px" viewBox="0 0 1544 1524" style="enable-background:new 0 0 1544 1524;" xml:space="preserve">
<style type="text/css">
	.st0{fill:none;stroke:#6D6F7B;stroke-width:3;stroke-miterlimit:10;}
	.st1{fill:#FFFFFF;stroke:#6D6F7B;stroke-width:3;stroke-miterlimit:10;}
</style>
<g id="SimpleElements">
	<g id="valve-n-elem_00000079472796829331117400000016527764932819468717_">
		
			<image style="overflow:visible;" width="71" height="89" id="id1" xlink:href="../../../../../Users/evgen/OneDrive/Рабочий стол/workspace/_work/arh/Elements/valve-n-elem/pub/valve-n_h_caption.png"  transform="matrix(1 0 0 1 179.5 200.5)">
		</image>
		
			<image style="overflow:visible;" width="71" height="89" id="id2" xlink:href="../../../../../Users/evgen/OneDrive/Рабочий стол/workspace/_work/arh/Elements/valve-n-elem/pub/valve-n_h_caption.png"  transform="matrix(1 0 0 1 179.5 393.5)">
		</image>
		
			<image style="overflow:visible;" width="71" height="89" id="id3" xlink:href="../../../../../Users/evgen/OneDrive/Рабочий стол/workspace/_work/arh/Elements/valve-n-elem/pub/valve-n_h_caption.png"  transform="matrix(1 0 0 1 179.5 581.5)">
		</image>
		
			<image style="overflow:visible;" width="71" height="89" id="id4" xlink:href="../../../../../Users/evgen/OneDrive/Рабочий стол/workspace/_work/arh/Elements/valve-n-elem/pub/valve-n_h_caption.png"  transform="matrix(1 0 0 1 179.5 769.5)">
		</image>
		
			<image style="overflow:visible;" width="71" height="89" id="id5" xlink:href="../../../../../Users/evgen/OneDrive/Рабочий стол/workspace/_work/arh/Elements/valve-n-elem/pub/valve-n_h_caption.png"  transform="matrix(1 0 0 1 179.5 957.5)">
		</image>
		
			<image style="overflow:visible;" width="71" height="89" id="id6" xlink:href="../../../../../Users/evgen/OneDrive/Рабочий стол/workspace/_work/arh/Elements/valve-n-elem/pub/valve-n_h_caption.png"  transform="matrix(1 0 0 1 179.5 1144.5)">
		</image>
		
			<image style="overflow:visible;" width="71" height="89" id="id9" xlink:href="../../../../../Users/evgen/OneDrive/Рабочий стол/workspace/_work/arh/Elements/valve-n-elem/pub/valve-n_h_caption.png"  transform="matrix(1 0 0 1 179.5 1331.5)">
		</image>
		
			<image style="overflow:visible;" width="71" height="89" id="id10_00000119094223442808777660000003471805404833674889_" xlink:href="../../../../../Users/evgen/OneDrive/Рабочий стол/workspace/_work/arh/Elements/valve-n-elem/pub/valve-n_h_caption.png"  transform="matrix(1 0 0 1 947.5 78.5)">
		</image>
		
			<image style="overflow:visible;" width="71" height="89" id="id29" xlink:href="../../../../../Users/evgen/OneDrive/Рабочий стол/workspace/_work/arh/Elements/valve-n-elem/pub/valve-n_h_caption.png"  transform="matrix(1 0 0 1 1173 78.5)">
		</image>
		
			<image style="overflow:visible;" width="71" height="89" id="id11_00000039849751488024340330000000806898530136993705_" xlink:href="../../../../../Users/evgen/OneDrive/Рабочий стол/workspace/_work/arh/Elements/valve-n-elem/pub/valve-n_h_caption.png"  transform="matrix(1 0 0 1 947.5 166)">
		</image>
		
			<image style="overflow:visible;" width="71" height="89" id="id12_00000137118861209901879680000016501952548583439015_" xlink:href="../../../../../Users/evgen/OneDrive/Рабочий стол/workspace/_work/arh/Elements/valve-n-elem/pub/valve-n_h_caption.png"  transform="matrix(1 0 0 1 947.5 265.5)">
		</image>
		
			<image style="overflow:visible;" width="71" height="89" id="id13_00000031921783280087250870000008774498609062691477_" xlink:href="../../../../../Users/evgen/OneDrive/Рабочий стол/workspace/_work/arh/Elements/valve-n-elem/pub/valve-n_h_caption.png"  transform="matrix(1 0 0 1 947.5 358.5)">
		</image>
		
			<image style="overflow:visible;" width="71" height="89" id="id14_00000133527149141810816230000015971301033516991398_" xlink:href="../../../../../Users/evgen/OneDrive/Рабочий стол/workspace/_work/arh/Elements/valve-n-elem/pub/valve-n_h_caption.png"  transform="matrix(1 0 0 1 947.5 458.5)">
		</image>
		
			<image style="overflow:visible;" width="71" height="89" id="id15_00000050661427072745448720000005080451868885527967_" xlink:href="../../../../../Users/evgen/OneDrive/Рабочий стол/workspace/_work/arh/Elements/valve-n-elem/pub/valve-n_h_caption.png"  transform="matrix(1 0 0 1 947.5 545.5)">
		</image>
		
			<image style="overflow:visible;" width="71" height="89" id="id16_00000044884383334290171890000011037570280872188072_" xlink:href="../../../../../Users/evgen/OneDrive/Рабочий стол/workspace/_work/arh/Elements/valve-n-elem/pub/valve-n_h_caption.png"  transform="matrix(1 0 0 1 947.5 641.5)">
		</image>
		
			<image style="overflow:visible;" width="71" height="89" id="id17_00000165192226576747561550000012660906587258084252_" xlink:href="../../../../../Users/evgen/OneDrive/Рабочий стол/workspace/_work/arh/Elements/valve-n-elem/pub/valve-n_h_caption.png"  transform="matrix(1 0 0 1 947.5 735.5)">
		</image>
		
			<image style="overflow:visible;" width="71" height="89" id="id18_00000156561766793985826270000003292809963279875477_" xlink:href="../../../../../Users/evgen/OneDrive/Рабочий стол/workspace/_work/arh/Elements/valve-n-elem/pub/valve-n_h_caption.png"  transform="matrix(1 0 0 1 947.5 922.5)">
		</image>
		
			<image style="overflow:visible;" width="71" height="89" id="id19_00000084523678709535629380000010506307603424428694_" xlink:href="../../../../../Users/evgen/OneDrive/Рабочий стол/workspace/_work/arh/Elements/valve-n-elem/pub/valve-n_h_caption.png"  transform="matrix(1 0 0 1 947.5 830.5)">
		</image>
		
			<image style="overflow:visible;" width="71" height="89" id="id20_00000170259820286304145550000014437015805969462169_" xlink:href="../../../../../Users/evgen/OneDrive/Рабочий стол/workspace/_work/arh/Elements/valve-n-elem/pub/valve-n_h_caption.png"  transform="matrix(1 0 0 1 947.5 1110.5)">
		</image>
		
			<image style="overflow:visible;" width="71" height="89" id="id21_00000021831470492095333860000010131923795335838130_" xlink:href="../../../../../Users/evgen/OneDrive/Рабочий стол/workspace/_work/arh/Elements/valve-n-elem/pub/valve-n_h_caption.png"  transform="matrix(1 0 0 1 947.5 1019.5)">
		</image>
		
			<image style="overflow:visible;" width="71" height="89" id="id22_00000025436993993634246080000009070140441616479877_" xlink:href="../../../../../Users/evgen/OneDrive/Рабочий стол/workspace/_work/arh/Elements/valve-n-elem/pub/valve-n_h_caption.png"  transform="matrix(1 0 0 1 947.5 1296.5)">
		</image>
		
			<image style="overflow:visible;" width="71" height="89" id="id23_00000068666960437292978500000012905853484937592767_" xlink:href="../../../../../Users/evgen/OneDrive/Рабочий стол/workspace/_work/arh/Elements/valve-n-elem/pub/valve-n_h_caption.png"  transform="matrix(1 0 0 1 947.5 1205.5)">
		</image>
		
			<image style="overflow:visible;" width="71" height="89" id="id28_00000160182224991214991680000007836824284293187772_" xlink:href="../../../../../Users/evgen/OneDrive/Рабочий стол/workspace/_work/arh/Elements/valve-n-elem/pub/valve-n_h_caption.png"  transform="matrix(1 0 0 1 1173 1422.5)">
		</image>
	</g>
	<g id="multi-tit-elem_00000090985159521309850300000004275495730844521130_">
		
			<image style="overflow:visible;" width="152" height="32" id="id30" xlink:href="../../../elements/multi-tit-elem/pub/multi-tit_arroworient-bot.png"  transform="matrix(1 0 0 1 269 181.5)">
		</image>
		
			<image style="overflow:visible;" width="152" height="32" id="id31" xlink:href="../../../elements/multi-tit-elem/pub/multi-tit_arroworient-bot.png"  transform="matrix(1 0 0 1 269 373.5)">
		</image>
		
			<image style="overflow:visible;" width="152" height="32" id="id32" xlink:href="../../../elements/multi-tit-elem/pub/multi-tit_arroworient-bot.png"  transform="matrix(1 0 0 1 269 562.5)">
		</image>
		
			<image style="overflow:visible;" width="152" height="32" id="id33" xlink:href="../../../elements/multi-tit-elem/pub/multi-tit_arroworient-bot.png"  transform="matrix(1 0 0 1 269 751.5)">
		</image>
		
			<image style="overflow:visible;" width="152" height="32" id="id34" xlink:href="../../../elements/multi-tit-elem/pub/multi-tit_arroworient-bot.png"  transform="matrix(1 0 0 1 269 939.5)">
		</image>
		
			<image style="overflow:visible;" width="152" height="32" id="id35" xlink:href="../../../elements/multi-tit-elem/pub/multi-tit_arroworient-bot.png"  transform="matrix(1 0 0 1 269 1126.5)">
		</image>
		
			<image style="overflow:visible;" width="152" height="32" id="id36" xlink:href="../../../elements/multi-tit-elem/pub/multi-tit_arroworient-bot.png"  transform="matrix(1 0 0 1 269 1313.5)">
		</image>
		
			<image style="overflow:visible;" width="134" height="32" id="id37_00000089532451440209983990000006919485358322113974_" xlink:href="../../../elements/multi-tit-elem/pub/multi-tit_no-arroworient.png"  transform="matrix(1 0 0 1 1263 75.5)">
		</image>
		
			<image style="overflow:visible;" width="134" height="32" id="id38" xlink:href="../../../elements/multi-tit-elem/pub/multi-tit_no-arroworient.png"  transform="matrix(1 0 0 1 755 1420)">
		</image>
		
			<image style="overflow:visible;" width="134" height="32" id="id52" xlink:href="../../../elements/multi-tit-elem/pub/multi-tit_no-arroworient.png"  transform="matrix(1 0 0 1 457 1327.5)">
		</image>
		
			<image style="overflow:visible;" width="134" height="32" id="id49" xlink:href="../../../elements/multi-tit-elem/pub/multi-tit_no-arroworient.png"  transform="matrix(1 0 0 1 755 1107)">
		</image>
		
			<image style="overflow:visible;" width="134" height="32" id="id50" xlink:href="../../../elements/multi-tit-elem/pub/multi-tit_no-arroworient.png"  transform="matrix(1 0 0 1 457 1137.5)">
		</image>
		
			<image style="overflow:visible;" width="134" height="32" id="id51" xlink:href="../../../elements/multi-tit-elem/pub/multi-tit_no-arroworient.png"  transform="matrix(1 0 0 1 755 1296.5)">
		</image>
		
			<image style="overflow:visible;" width="134" height="32" id="id48" xlink:href="../../../elements/multi-tit-elem/pub/multi-tit_no-arroworient.png"  transform="matrix(1 0 0 1 457 951.5)">
		</image>
		
			<image style="overflow:visible;" width="134" height="32" id="id47" xlink:href="../../../elements/multi-tit-elem/pub/multi-tit_no-arroworient.png"  transform="matrix(1 0 0 1 755 919.5)">
		</image>
		
			<image style="overflow:visible;" width="134" height="32" id="id46" xlink:href="../../../elements/multi-tit-elem/pub/multi-tit_no-arroworient.png"  transform="matrix(1 0 0 1 457 763.5)">
		</image>
		
			<image style="overflow:visible;" width="134" height="32" id="id45" xlink:href="../../../elements/multi-tit-elem/pub/multi-tit_no-arroworient.png"  transform="matrix(1 0 0 1 755 733.5)">
		</image>
		
			<image style="overflow:visible;" width="134" height="32" id="id44" xlink:href="../../../elements/multi-tit-elem/pub/multi-tit_no-arroworient.png"  transform="matrix(1 0 0 1 457 574.5)">
		</image>
		
			<image style="overflow:visible;" width="134" height="32" id="id43" xlink:href="../../../elements/multi-tit-elem/pub/multi-tit_no-arroworient.png"  transform="matrix(1 0 0 1 755 542.5)">
		</image>
		
			<image style="overflow:visible;" width="134" height="32" id="id42" xlink:href="../../../elements/multi-tit-elem/pub/multi-tit_no-arroworient.png"  transform="matrix(1 0 0 1 457 385.5)">
		</image>
		
			<image style="overflow:visible;" width="134" height="32" id="id41" xlink:href="../../../elements/multi-tit-elem/pub/multi-tit_no-arroworient.png"  transform="matrix(1 0 0 1 755 353.5)">
		</image>
		
			<image style="overflow:visible;" width="134" height="32" id="id40" xlink:href="../../../elements/multi-tit-elem/pub/multi-tit_no-arroworient.png"  transform="matrix(1 0 0 1 457 193.5)">
		</image>
		
			<image style="overflow:visible;" width="134" height="32" id="id39" xlink:href="../../../elements/multi-tit-elem/pub/multi-tit_no-arroworient.png"  transform="matrix(1 0 0 1 755 160.5)">
		</image>
	</g>
	<g id="pump-n-elem_00000155126690103968728500000003206212857356510095_">
		
			<image style="overflow:visible;" width="91" height="92" id="id59_00000003072482842289697600000012530571348610191762_" xlink:href="../../../../../Users/evgen/OneDrive/Рабочий стол/workspace/_work/arh/Elements/pump-n-elem/pub/pump-n_h_caption.png"  transform="matrix(1 0 0 1 624 192)">
		</image>
		
			<image style="overflow:visible;" width="91" height="92" id="id60_00000182508728840834502460000016361645867521464499_" xlink:href="../../../../../Users/evgen/OneDrive/Рабочий стол/workspace/_work/arh/Elements/pump-n-elem/pub/pump-n_h_caption.png"  transform="matrix(1 0 0 1 624 384)">
		</image>
		
			<image style="overflow:visible;" width="91" height="92" id="id62_00000111894225529890770860000006026547995550747051_" xlink:href="../../../../../Users/evgen/OneDrive/Рабочий стол/workspace/_work/arh/Elements/pump-n-elem/pub/pump-n_h_caption.png"  transform="matrix(1 0 0 1 624 572)">
		</image>
		
			<image style="overflow:visible;" width="91" height="92" id="id61_00000015337894366040443360000013133286561751133859_" xlink:href="../../../../../Users/evgen/OneDrive/Рабочий стол/workspace/_work/arh/Elements/pump-n-elem/pub/pump-n_h_caption.png"  transform="matrix(1 0 0 1 624 762)">
		</image>
		
			<image style="overflow:visible;" width="91" height="92" id="id63_00000039128699847423726680000007569591192367004321_" xlink:href="../../../../../Users/evgen/OneDrive/Рабочий стол/workspace/_work/arh/Elements/pump-n-elem/pub/pump-n_h_caption.png"  transform="matrix(1 0 0 1 624 950)">
		</image>
		
			<image style="overflow:visible;" width="91" height="92" id="id64_00000104700042710844752030000013919459925448619654_" xlink:href="../../../../../Users/evgen/OneDrive/Рабочий стол/workspace/_work/arh/Elements/pump-n-elem/pub/pump-n_h_caption.png"  transform="matrix(1 0 0 1 624 1137)">
		</image>
		
			<image style="overflow:visible;" width="91" height="92" id="id65_00000054974690571279259590000015652591547197544354_" xlink:href="../../../../../Users/evgen/OneDrive/Рабочий стол/workspace/_work/arh/Elements/pump-n-elem/pub/pump-n_h_caption.png"  transform="matrix(1 0 0 1 624 1325)">
		</image>
	</g>
	<g id="arrow-pic_00000096020434928495915970000000968023138225412254_">
		
			<image style="overflow:visible;" width="28" height="53" id="id68" xlink:href="../../../elements/arrow-pic/pub/arrow-pic_caption.png"  transform="matrix(1 0 0 1 329 227.5)">
		</image>
		
			<image style="overflow:visible;" width="28" height="53" id="id71" xlink:href="../../../elements/arrow-pic/pub/arrow-pic_caption.png"  transform="matrix(1 0 0 1 329 1359.5)">
		</image>
		
			<image style="overflow:visible;" width="28" height="53" id="id72" xlink:href="../../../elements/arrow-pic/pub/arrow-pic_caption.png"  transform="matrix(1 0 0 1 329 1172.5)">
		</image>
		
			<image style="overflow:visible;" width="28" height="53" id="id73" xlink:href="../../../elements/arrow-pic/pub/arrow-pic_caption.png"  transform="matrix(1 0 0 1 329 985.5)">
		</image>
		
			<image style="overflow:visible;" width="28" height="53" id="id74" xlink:href="../../../elements/arrow-pic/pub/arrow-pic_caption.png"  transform="matrix(1 0 0 1 329 798.5)">
		</image>
		
			<image style="overflow:visible;" width="28" height="53" id="id75" xlink:href="../../../elements/arrow-pic/pub/arrow-pic_caption.png"  transform="matrix(1 0 0 1 329 418.5)">
		</image>
		
			<image style="overflow:visible;" width="28" height="53" id="id76" xlink:href="../../../elements/arrow-pic/pub/arrow-pic_caption.png"  transform="matrix(1 0 0 1 329 606.5)">
		</image>
	</g>
	<g id="text-box-elem">
		
			<image style="overflow:visible;" width="31" height="19" id="id77_00000134972700994596740360000013388825517469399175_" xlink:href="../../../../../Users/evgen/OneDrive/Рабочий стол/workspace/_work/arh/Elements/text-box-elem/pub/default.png"  transform="matrix(1 0 0 1 1087 200.5)">
		</image>
		
			<image style="overflow:visible;" width="31" height="19" id="id78_00000013880774865467639100000002473481350294490814_" xlink:href="../../../../../Users/evgen/OneDrive/Рабочий стол/workspace/_work/arh/Elements/text-box-elem/pub/default.png"  transform="matrix(1 0 0 1 1122.5 153.5)">
		</image>
		
			<image style="overflow:visible;" width="31" height="19" id="id79_00000008112654624299193670000015510340612337448339_" xlink:href="../../../../../Users/evgen/OneDrive/Рабочий стол/workspace/_work/arh/Elements/text-box-elem/pub/default.png"  transform="matrix(1 0 0 1 1308 112.5)">
		</image>
		
			<image style="overflow:visible;" width="31" height="19" id="id81_00000063621181427290662670000008924523882543613323_" xlink:href="../../../../../Users/evgen/OneDrive/Рабочий стол/workspace/_work/arh/Elements/text-box-elem/pub/default.png"  transform="matrix(1 0 0 1 1308 677.5)">
		</image>
		
			<image style="overflow:visible;" width="31" height="19" id="id80_00000147193945748004802570000000164360360206812299_" xlink:href="../../../../../Users/evgen/OneDrive/Рабочий стол/workspace/_work/arh/Elements/text-box-elem/pub/default.png"  transform="matrix(1 0 0 1 1308 1458.5)">
		</image>
		
			<image style="overflow:visible;" width="31" height="19" id="id82_00000033344965613247175540000001270329167232528535_" xlink:href="../../../../../Users/evgen/OneDrive/Рабочий стол/workspace/_work/arh/Elements/text-box-elem/pub/default.png"  transform="matrix(1 0 0 1 316 1458.5)">
		</image>
	</g>
	<g id="transition-button-elem_00000125584283940995792370000013064633378508795065_">
		
			<image style="overflow:visible;" width="119" height="34" id="id83" xlink:href="../../../../../Users/evgen/OneDrive/Рабочий стол/workspace/_work/arh/Elements/transition-button-elem/pub/transition-button_arrowdirection-0.png"  transform="matrix(1 0 0 1 10.5 227)">
		</image>
		
			<image style="overflow:visible;" width="119" height="34" id="id84_00000127004446409137179600000006541831137050458017_" xlink:href="../../../../../Users/evgen/OneDrive/Рабочий стол/workspace/_work/arh/Elements/transition-button-elem/pub/transition-button_arrowdirection-0.png"  transform="matrix(1 0 0 1 1415 193)">
		</image>
		
			<image style="overflow:visible;" width="119" height="34" id="id85_00000075156184952924157600000004466540493524391575_" xlink:href="../../../../../Users/evgen/OneDrive/Рабочий стол/workspace/_work/arh/Elements/transition-button-elem/pub/transition-button_arrowdirection-0.png"  transform="matrix(1 0 0 1 1415 106)">
		</image>
		
			<image style="overflow:visible;" width="119" height="34" id="id86_00000005989734113109384600000002885037270934214317_" xlink:href="../../../../../Users/evgen/OneDrive/Рабочий стол/workspace/_work/arh/Elements/transition-button-elem/pub/transition-button_arrowdirection-0.png"  transform="matrix(1 0 0 1 1414 670)">
		</image>
		
			<image style="overflow:visible;" width="119" height="34" id="id87" xlink:href="../../../../../Users/evgen/OneDrive/Рабочий стол/workspace/_work/arh/Elements/transition-button-elem/pub/transition-button_arrowdirection-1.png"  transform="matrix(1 0 0 1 10.5 1450)">
		</image>
		
			<image style="overflow:visible;" width="119" height="34" id="id88_00000083060107585278524010000002820561037471177868_" xlink:href="../../../../../Users/evgen/OneDrive/Рабочий стол/workspace/_work/arh/Elements/transition-button-elem/pub/transition-button_arrowdirection-1.png"  transform="matrix(1 0 0 1 1417 1450)">
		</image>
	</g>
</g>
<g id="lines">
	<g id="pipes">
		<g id="drainage_00000004534460826325780490000017695477490730014084_">
			<line class="st0" x1="1035" y1="590" x2="709" y2="590"/>
			<line class="st0" x1="634" y1="625" x2="333" y2="625"/>
			<polyline class="st0" points="1023,503 924,503 924,593 			"/>
			<polyline class="st0" points="341,815 154,815 154,246 			"/>
			<polyline class="st0" points="709,780 1035,780 1035,211 			"/>
			<polyline class="st0" points="1023,687 924,687 924,777 			"/>
			<line class="st0" x1="1052" y1="210" x2="709" y2="210"/>
			<line class="st0" x1="1481" y1="210" x2="1080" y2="210"/>
			<line class="st0" x1="636" y1="245" x2="338" y2="245"/>
			<line class="st0" x1="635" y1="814" x2="339" y2="814"/>
			<polyline class="st0" points="1022,875 924,875 924,965 			"/>
			<line class="st0" x1="634" y1="1002" x2="339" y2="1002"/>
			<line class="st0" x1="342" y1="625" x2="154" y2="625"/>
			<line class="st0" x1="345" y1="437" x2="154" y2="437"/>
			<line class="st0" x1="337" y1="245" x2="124" y2="245"/>
			<polyline class="st0" points="924,210 924,122 1060,122 1060,1252 			"/>
			<polyline class="st0" points="1023,310 924,310 924,400 			"/>
			<line class="st0" x1="634" y1="437" x2="333" y2="437"/>
			<line class="st0" x1="1035" y1="402" x2="709" y2="402"/>
			<polyline class="st0" points="154,815 154,1002 343,1002 			"/>
			<polyline class="st0" points="1035,779 1035,967 708,967 			"/>
			<polyline class="st0" points="1024,1063 923,1063 923,1153 			"/>
			<line class="st0" x1="635" y1="1189" x2="339" y2="1189"/>
			<polyline class="st0" points="154,1001 154,1190 344,1190 			"/>
			<polyline class="st0" points="1035,967 1035,1155 708,1155 			"/>
			<polyline class="st0" points="995,1250 924,1250 924,1340 			"/>
			<line class="st0" x1="635" y1="1377" x2="339" y2="1377"/>
			<polyline class="st0" points="154,1189 154,1377 343,1377 			"/>
			<polyline class="st0" points="1035,1155 1035,1343 708,1343 			"/>
			<path class="st0" d="M154.3,1377.9"/>
			<path class="st0" d="M154.3,1190.3"/>
			<path class="st0" d="M1025.7,1156"/>
			<path class="st0" d="M1060.7,680.5"/>
			<path class="st0" d="M155.3,1376.9"/>
			<path class="st0" d="M1036.4,1342.8"/>
			<path class="st0" d="M1061.7,679.5"/>
			<line class="st0" x1="1060" y1="687" x2="1432" y2="687"/>
			<polyline class="st0" points="1139,211 1139,203 1139,123 1426,123 			"/>
			<line class="st0" x1="1438" y1="1468" x2="38" y2="1468"/>
		</g>
	</g>
	<g id="arc">
		<g id="drainage_00000024712296274791275530000006312214010448556434_">
			<path class="st0" d="M1057,503h-15c0-3.8-3.1-7-7-7s-7,3.2-7,7h-16"/>
			<path class="st0" d="M1057,687h-15c0-3.8-3.1-7-7-7s-7,3.2-7,7h-16"/>
			<path class="st0" d="M1057,875h-15c0-3.8-3.1-7-7-7s-7,3.2-7,7h-16"/>
			<path class="st0" d="M1057,1063h-15c0-3.8-3.1-7-7-7s-7,3.2-7,7h-26"/>
			<path class="st0" d="M1059,1251h-17c0-3.8-3.1-7-7-7s-7,3.2-7,7h-26"/>
			<path class="st0" d="M1057,310h-15c0-3.8-3.1-7-7-7s-7,3.2-7,7h-6"/>
			<path class="st0" d="M1081,210h-15c0-3.8-3.1-7-7-7s-7,3.2-7,7h-6"/>
		</g>
	</g>
	<g id="arrows">
		<g id="drainage_00000127732458156596905650000000729495248953711267_">
		</g>
	</g>
	<g id="points">
		<g id="drainage">
			<circle class="st1" cx="154" cy="245" r="4.5"/>
			<circle class="st1" cx="154" cy="437" r="4.5"/>
			<circle class="st1" cx="154" cy="626" r="4.5"/>
			<circle class="st1" cx="154" cy="815" r="4.5"/>
			<circle class="st1" cx="154" cy="1002" r="4.5"/>
			<circle class="st1" cx="154" cy="1190" r="4.5"/>
			<circle class="st1" cx="924" cy="210" r="4.5"/>
			<circle class="st1" cx="924" cy="401" r="4.5"/>
			<circle class="st1" cx="924" cy="590" r="4.5"/>
			<circle class="st1" cx="924" cy="780" r="4.5"/>
			<circle class="st1" cx="924" cy="966" r="4.5"/>
			<circle class="st1" cx="923" cy="1155" r="4.5"/>
			<circle class="st1" cx="924" cy="1343" r="4.5"/>
			<circle class="st1" cx="1035" cy="210" r="4.5"/>
			<circle class="st1" cx="1035" cy="402" r="4.5"/>
			<circle class="st1" cx="1035" cy="590" r="4.5"/>
			<circle class="st1" cx="1035" cy="779" r="4.5"/>
			<circle class="st1" cx="1035" cy="967" r="4.5"/>
			<circle class="st1" cx="1035" cy="1155" r="4.5"/>
			<circle class="st1" cx="1139" cy="210" r="4.5"/>
			<circle class="st1" cx="1060" cy="310" r="4.5"/>
			<circle class="st1" cx="1060" cy="502" r="4.5"/>
			<circle class="st1" cx="1060" cy="687" r="4.5"/>
			<circle class="st1" cx="1060" cy="875" r="4.5"/>
			<circle class="st1" cx="1060" cy="1063" r="4.5"/>
		</g>
	</g>
</g>
<g id="helpers">
	<g id="main">
	</g>
	<g id="orient">
	</g>
</g>
</svg>
