<?xml version="1.0" encoding="utf-8"?>
<!-- Generator: Adobe Illustrator 23.0.1, SVG Export Plug-In . SVG Version: 6.00 Build 0)  -->
<svg version="1.1" xmlns="http://www.w3.org/2000/svg" xmlns:xlink="http://www.w3.org/1999/xlink" x="0px" y="0px"
	 viewBox="0 0 778 719" style="enable-background:new 0 0 778 719;" xml:space="preserve">
<style type="text/css">
	.st0{fill:#EEEEEF;stroke:#6C6E7A;stroke-miterlimit:10;}
	.st1{fill:#909091;}
	.st2{font-family:'UbuntuCondensed-Regular';}
	.st3{font-size:16px;}
	.st4{font-size:14px;}
	.st5{font-size:20px;}
	.st6{fill:#21282D;}
	.st7{font-size:21px;}
	.st8{fill:none;stroke:#000000;stroke-width:0.5;stroke-miterlimit:10;}
	.st9{fill:none;stroke:#7030A0;stroke-width:6;stroke-miterlimit:10;}
	.st10{fill:none;stroke:#6C6E7A;stroke-width:6;stroke-miterlimit:10;}
	.st11{fill:#F5F3F3;stroke:#7030A0;stroke-miterlimit:10;}
	.st12{fill:#F5F3F3;stroke:#6C6E7A;stroke-miterlimit:10;}
	.st13{fill:#F5F3F3;}
</style>
<g id="SimpleElements">
	<g id="switch-cart-elem">
		
			<image style="overflow:visible;" width="22" height="69" id="id1" xlink:href="../../../elements/switch-cart-elem/pub/default.png"  transform="matrix(1 0 0 1 181.696 114.823)">
		</image>
		
			<image style="overflow:visible;" width="22" height="69" id="id2" xlink:href="../../../elements/switch-cart-elem/pub/default.png"  transform="matrix(1 0 0 1 311 114.823)">
		</image>
	</g>
	<g id="multi-tit-elem">
		
			<image style="overflow:visible;" width="134" height="225" id="id3" xlink:href="../../../elements/multi-tit-elem/pub/multi-tit_titcount-7_no-arroworient.png"  transform="matrix(1.1071 0 0 1.1071 10.3264 438.4237)">
		</image>
		
			<image style="overflow:visible;" width="134" height="225" id="id4" xlink:href="../../../elements/multi-tit-elem/pub/multi-tit_titcount-7_no-arroworient.png"  transform="matrix(1.1071 0 0 1.1071 368.3264 438.4237)">
		</image>
		
			<image style="overflow:visible;" width="134" height="225" id="id5" xlink:href="../../../elements/multi-tit-elem/pub/multi-tit_titcount-7_no-arroworient.png"  transform="matrix(1.1071 0 0 1.1071 530.3264 438.4237)">
		</image>
	</g>
	<g id="earthing-knife-elem">
		
			<image style="overflow:visible;" width="45" height="18" id="id6" xlink:href="../../../elements/earthing-knife-elem/pub/default.png"  transform="matrix(1 0 0 1 188.802 522.969)">
		</image>
		
			<image style="overflow:visible;" width="45" height="18" id="id7" xlink:href="../../../elements/earthing-knife-elem/pub/default.png"  transform="matrix(1 0 0 1 318.5 522.969)">
		</image>
		
			<image style="overflow:visible;" width="45" height="18" id="id8" xlink:href="../../../elements/earthing-knife-elem/pub/default.png"  transform="matrix(1 0 0 1 189.196 200.469)">
		</image>
		
			<image style="overflow:visible;" width="45" height="18" id="id9" xlink:href="../../../elements/earthing-knife-elem/pub/default.png"  transform="matrix(1 0 0 1 318.697 200.469)">
		</image>
		
			<image style="overflow:visible;" width="45" height="18" id="id10" xlink:href="../../../elements/earthing-knife-elem/pub/default.png"  transform="matrix(1 0 0 1 721.781 522.969)">
		</image>
	</g>
	<g id="disconnector-elem">
		
			<image style="overflow:visible;" width="16" height="11" id="id11" xlink:href="../../../elements/disconnector-elem/pub/default.png"  transform="matrix(0 -1 1 0 186.802 467.469)">
		</image>
		
			<image style="overflow:visible;" width="16" height="11" id="id12" xlink:href="../../../elements/disconnector-elem/pub/default.png"  transform="matrix(0 -1 1 0 316.5 467.469)">
		</image>
		
			<image style="overflow:visible;" width="16" height="11" id="id13" xlink:href="../../../elements/disconnector-elem/pub/default.png"  transform="matrix(0 -1 1 0 719.781 467.469)">
		</image>
	</g>
	<g id="disconnector-cart-elem">
		
			<image style="overflow:visible;" width="14" height="58" id="id14" xlink:href="../../../elements/disconnector-cart-elem/pub/default.png"  transform="matrix(1 0 0 1 185.302 606.673)">
		</image>
		
			<image style="overflow:visible;" width="14" height="58" id="id15" xlink:href="../../../elements/disconnector-cart-elem/pub/default.png"  transform="matrix(1 0 0 1 315 606.673)">
		</image>
		
			<image style="overflow:visible;" width="14" height="58" id="id16" xlink:href="../../../elements/disconnector-cart-elem/pub/default.png"  transform="matrix(1 0 0 1 718.281 606.673)">
		</image>
		
			<image style="overflow:visible;" width="14" height="58" id="id17" xlink:href="../../../elements/disconnector-cart-elem/pub/default.png"  transform="matrix(0 -1 1 0 228.052 671.469)">
		</image>
	</g>
</g>
<g id="tables">
	<g id="rect">
		<path class="st0" d="M768.45,54.53V14.82c-0.01-2.66-1.95-4.83-4.33-4.82L14.8,10.27c-2.37,0.01-4.31,2.19-4.3,4.84l0.01,6.24
			l0.03,32.82c0.01,2.66,1.95,4.83,4.33,4.82l749.32-0.27c2.37-0.01,4.31-2.19,4.3-4.84L768.45,54.53z"/>
		<path class="st0" d="M86.5,371.12h-71c-2.76,0-5-2.24-5-5v-267c0-2.76,2.24-5,5-5h71c2.76,0,5,2.24,5,5v267
			C91.5,368.88,89.26,371.12,86.5,371.12z"/>
		<path class="st0" d="M498.5,302.25h-71c-2.76,0-5-2.24-5-5V99.12c0-2.76,2.24-5,5-5h71c2.76,0,5,2.24,5,5v198.13
			C503.5,300.01,501.26,302.25,498.5,302.25z"/>
	</g>
	<g id="text">
		<g id="elem-text">
			<text transform="matrix(1 0 0 1 207.207 581.0259)" class="st1 st2 st3">Т1</text>
			<text transform="matrix(1 0 0 1 336.9047 581.0259)" class="st1 st2 st3">Т2</text>
			<text transform="matrix(1 0 0 1 740.1864 581.0259)" class="st1 st2 st3">Т1</text>
		</g>
		<g id="subtitles">
			<text transform="matrix(1 0 0 1 198.5397 640.6729)" class="st1 st2 st4">1ВВ</text>
			<text transform="matrix(1 0 0 1 198.5085 464.4683)" class="st1 st2 st4">УВН1</text>
			<text transform="matrix(1 0 0 1 327.5187 638.5755)" class="st1 st2 st4">2ВВ</text>
			<text transform="matrix(1 0 0 1 328.2062 464.4683)" class="st1 st2 st4">УВН2</text>
			<text transform="matrix(1 0 0 1 191.5073 706.8071)" class="st1 st2 st4">1С-0,4</text>
			<text transform="matrix(1 0 0 1 293.4516 706.8071)" class="st1 st2 st4">2С-0,4</text>
			<text transform="matrix(1 0 0 1 731.4882 464.4683)" class="st1 st2 st4">УВН1</text>
			<text transform="matrix(1 0 0 1 709.9869 706.8071)" class="st1 st2 st4">1С-0,4</text>
			<text transform="matrix(1 0 0 1 178.8911 76.9691)" class="st1 st2 st4">1С-10</text>
			<text transform="matrix(1 0 0 1 308.1974 76.9691)" class="st1 st2 st4">2С-10</text>
			<text transform="matrix(1 0 0 1 249.5521 640.6726)" class="st1 st2 st4">СВ</text>
		</g>
		<g id="titles">
			<text transform="matrix(1 0 0 1 580.8046 428.2507)" class="st1 st2 st5">ТП-530</text>
			<text transform="matrix(1 0 0 1 227.216 80.4659)" class="st1 st2 st5">РУ-10кВ</text>
			<text transform="matrix(1 0 0 1 230.8919 428.2507)" class="st1 st2 st5">ТП-5ВС</text>
			<text transform="matrix(1 0 0 1 342.7888 156.8983)" class="st1 st2 st5">14 </text>
			<text transform="matrix(1 0 0 1 213.5119 156.8983)" class="st1 st2 st5">23</text>
			<text transform="matrix(1 0 0 1 22.0294 124.219)" class="st1 st2 st5">ТП-503</text>
			<text transform="matrix(1 0 0 1 22.0294 157.4805)" class="st1 st2 st5">ТП-5ЭХЗ</text>
			<text transform="matrix(1 0 0 1 22.0294 190.9502)" class="st1 st2 st5">ТП-507</text>
			<text transform="matrix(1 0 0 1 22.0294 223.793)" class="st1 st2 st5">ТП-505</text>
			<text transform="matrix(1 0 0 1 22.0294 256.9854)" class="st1 st2 st5">ТП-511</text>
			<text transform="matrix(1 0 0 1 22.0294 290.1758)" class="st1 st2 st5">ТП-510</text>
			<text transform="matrix(1 0 0 1 22.0294 323.3682)" class="st1 st2 st5">ТП-517</text>
			<text transform="matrix(1 0 0 1 22.0294 356.0222)" class="st1 st2 st5">ТП-523</text>
			<text transform="matrix(1 0 0 1 434.0295 124.219)" class="st1 st2 st5">ТП-5В1</text>
			<text transform="matrix(1 0 0 1 434.0295 157.4805)" class="st1 st2 st5">ТП-506</text>
			<text transform="matrix(1 0 0 1 434.0295 190.9502)" class="st1 st2 st5">ТП-504</text>
			<text transform="matrix(1 0 0 1 434.0295 223.793)" class="st1 st2 st5">ТП-502</text>
			<text transform="matrix(1 0 0 1 434.0295 256.9854)" class="st1 st2 st5">ТП-501</text>
			<text transform="matrix(1 0 0 1 434.0295 290.1758)" class="st1 st2 st5">ТП-524</text>
		</g>
		<g id="main">
			<g>
				<text transform="matrix(1 -2.470000e-03 2.470000e-03 1 164.5001 43.8811)" class="st6 st2 st7">Электроснабжение КГС, ВС ГП-51 от 1С, 2С-10уВ РУ-10кВ</text>
			</g>
		</g>
	</g>
</g>
<g id="lines">
	<g id="pipes">
		<g id="lep">
			<line class="st8" x1="725.28" y1="664.21" x2="725.28" y2="684.26"/>
			<line class="st8" x1="725.28" y1="589.92" x2="725.28" y2="607.17"/>
			<line class="st8" x1="725.28" y1="466.97" x2="725.28" y2="560.45"/>
			<polyline class="st8" points="725.28,451.97 725.28,374.64 322.05,374.64 			"/>
			<line class="st8" x1="192.3" y1="589.92" x2="192.3" y2="607.17"/>
			<line class="st8" x1="192.7" y1="183.82" x2="192.7" y2="451.97"/>
			<line class="st8" x1="192.7" y1="278" x2="91.5" y2="278"/>
			<line class="st8" x1="422.54" y1="278" x2="322" y2="278"/>
			<line class="st8" x1="322" y1="589.92" x2="322" y2="607.17"/>
			<line class="st8" x1="322" y1="183.82" x2="322" y2="451.97"/>
			<line class="st8" x1="322" y1="466.97" x2="322" y2="560.45"/>
			<line class="st8" x1="192.3" y1="466.97" x2="192.3" y2="560.45"/>
			<line class="st8" x1="192.3" y1="664.21" x2="192.3" y2="684.26"/>
			<line class="st8" x1="221.3" y1="664.21" x2="221.3" y2="684.26"/>
			<line class="st8" x1="293" y1="664.21" x2="293" y2="684.26"/>
			<line class="st8" x1="221.1" y1="664.47" x2="228.55" y2="664.47"/>
			<line class="st8" x1="285.55" y1="664.47" x2="293" y2="664.47"/>
			<line class="st8" x1="192.7" y1="89.97" x2="192.7" y2="114.82"/>
			<line class="st8" x1="321.98" y1="89.65" x2="321.98" y2="114.82"/>
			<line class="st8" x1="322" y1="664.21" x2="322" y2="684.26"/>
		</g>
		<g id="kV10">
			<line class="st9" x1="179.7" y1="85.97" x2="205.7" y2="85.97"/>
			<line class="st9" x1="308.98" y1="85.97" x2="334.98" y2="85.97"/>
		</g>
		<g id="kV04">
			<line class="st10" x1="178.2" y1="688.26" x2="235.6" y2="688.26"/>
			<line class="st10" x1="278.89" y1="688.26" x2="336.3" y2="688.26"/>
			<line class="st10" x1="711.18" y1="688.26" x2="739.18" y2="688.26"/>
		</g>
	</g>
	<g id="points">
		<g id="kV10_1_">
			<circle class="st11" cx="192.7" cy="85.97" r="4"/>
			<circle class="st11" cx="321.98" cy="85.97" r="4"/>
		</g>
		<g id="kV04_1_">
			<circle class="st12" cx="192.3" cy="688.26" r="4"/>
			<circle class="st12" cx="221.3" cy="688.26" r="4"/>
			<circle class="st12" cx="293" cy="688.26" r="4"/>
			<circle class="st12" cx="322" cy="688.26" r="4"/>
			<circle class="st12" cx="725.28" cy="688.26" r="4"/>
		</g>
	</g>
	<g id="arc">
		<g id="lep_1_">
			<g>
				<circle cx="192.7" cy="278" r="2.5"/>
				<path class="st13" d="M192.7,276.5c0.83,0,1.5,0.67,1.5,1.5s-0.67,1.5-1.5,1.5s-1.5-0.67-1.5-1.5S191.87,276.5,192.7,276.5
					 M192.7,274.5c-1.93,0-3.5,1.57-3.5,3.5s1.57,3.5,3.5,3.5s3.5-1.57,3.5-3.5S194.63,274.5,192.7,274.5L192.7,274.5z"/>
			</g>
			<g>
				<circle cx="322" cy="278" r="2.5"/>
				<path class="st13" d="M322,276.5c0.83,0,1.5,0.67,1.5,1.5s-0.67,1.5-1.5,1.5s-1.5-0.67-1.5-1.5S321.17,276.5,322,276.5
					 M322,274.5c-1.93,0-3.5,1.57-3.5,3.5s1.57,3.5,3.5,3.5s3.5-1.57,3.5-3.5S323.93,274.5,322,274.5L322,274.5z"/>
			</g>
			<g>
				<circle cx="322" cy="374.64" r="2.5"/>
				<path class="st13" d="M322,373.14c0.83,0,1.5,0.67,1.5,1.5s-0.67,1.5-1.5,1.5s-1.5-0.67-1.5-1.5S321.17,373.14,322,373.14
					 M322,371.14c-1.93,0-3.5,1.57-3.5,3.5s1.57,3.5,3.5,3.5s3.5-1.57,3.5-3.5S323.93,371.14,322,371.14L322,371.14z"/>
			</g>
		</g>
	</g>
</g>
<g id="elems">
	<g id="resists">
		<g>
			<path class="st1" d="M196.8,491.83v18h-9v-18H196.8 M197.8,490.83h-1h-9h-1v1v18v1h1h9h1v-1v-18V490.83L197.8,490.83z"/>
		</g>
		<g>
			<path class="st1" d="M326.5,491.83v18h-9v-18H326.5 M327.5,490.83h-1h-9h-1v1v18v1h1h9h1v-1v-18V490.83L327.5,490.83z"/>
		</g>
		<g>
			<path class="st1" d="M729.78,491.83v18h-9v-18H729.78 M730.78,490.83h-1h-9h-1v1v18v1h1h9h1v-1v-18V490.83L730.78,490.83z"/>
		</g>
	</g>
	<g id="tt">
		<g>
			<path class="st1" d="M725.33,570.42c5.38,0,9.75,4.37,9.75,9.75c0,5.38-4.37,9.75-9.75,9.75s-9.75-4.37-9.75-9.75
				C715.58,574.79,719.95,570.42,725.33,570.42 M725.33,569.42c-5.93,0-10.75,4.82-10.75,10.75s4.82,10.75,10.75,10.75
				c5.93,0,10.75-4.82,10.75-10.75S731.26,569.42,725.33,569.42L725.33,569.42z"/>
		</g>
		<g>
			<path class="st1" d="M725.32,560.42c0.38,0,0.76,0.02,1.14,0.07c5.35,0.63,9.18,5.47,8.55,10.82c-0.58,4.96-4.79,8.62-9.67,8.62
				c-0.38,0-0.76-0.02-1.14-0.07c-5.35-0.63-9.18-5.47-8.55-10.82C716.23,564.08,720.44,560.42,725.32,560.42 M725.32,559.42
				c-5.45,0-10.03,4.08-10.66,9.5c-0.33,2.85,0.46,5.66,2.24,7.92s4.33,3.68,7.18,4.01c0.42,0.05,0.84,0.07,1.26,0.07
				c5.45,0,10.03-4.08,10.66-9.5c0.33-2.85-0.46-5.66-2.24-7.91s-4.33-3.68-7.18-4.01C726.16,559.45,725.74,559.42,725.32,559.42
				L725.32,559.42z"/>
		</g>
		<g>
			<path class="st1" d="M322.05,570.42c5.38,0,9.75,4.37,9.75,9.75c0,5.38-4.37,9.75-9.75,9.75c-5.38,0-9.75-4.37-9.75-9.75
				C312.3,574.79,316.67,570.42,322.05,570.42 M322.05,569.42c-5.93,0-10.75,4.82-10.75,10.75s4.82,10.75,10.75,10.75
				c5.93,0,10.75-4.82,10.75-10.75S327.98,569.42,322.05,569.42L322.05,569.42z"/>
		</g>
		<g>
			<path class="st1" d="M322.04,560.42c0.38,0,0.76,0.02,1.14,0.07c5.35,0.63,9.18,5.47,8.55,10.82c-0.58,4.96-4.79,8.62-9.67,8.62
				c-0.38,0-0.76-0.02-1.14-0.07c-5.35-0.63-9.18-5.47-8.55-10.82C312.95,564.08,317.16,560.42,322.04,560.42 M322.04,559.42
				c-5.45,0-10.03,4.08-10.66,9.5c-0.33,2.85,0.46,5.66,2.24,7.92s4.33,3.68,7.18,4.01c0.42,0.05,0.84,0.07,1.26,0.07
				c5.45,0,10.03-4.08,10.66-9.5c0.69-5.89-3.54-11.24-9.43-11.92C322.88,559.45,322.46,559.42,322.04,559.42L322.04,559.42z"/>
		</g>
		<g>
			<path class="st1" d="M192.35,570.42c5.38,0,9.75,4.37,9.75,9.75c0,5.38-4.37,9.75-9.75,9.75c-5.38,0-9.75-4.37-9.75-9.75
				C182.6,574.79,186.97,570.42,192.35,570.42 M192.35,569.42c-5.93,0-10.75,4.82-10.75,10.75s4.82,10.75,10.75,10.75
				s10.75-4.82,10.75-10.75S198.28,569.42,192.35,569.42L192.35,569.42z"/>
		</g>
		<g>
			<path class="st1" d="M192.34,560.42c0.38,0,0.76,0.02,1.14,0.07c5.35,0.63,9.18,5.47,8.55,10.82c-0.58,4.96-4.79,8.62-9.67,8.62
				c-0.38,0-0.76-0.02-1.14-0.07c-5.35-0.63-9.18-5.47-8.55-10.82C183.25,564.08,187.46,560.42,192.34,560.42 M192.34,559.42
				c-5.45,0-10.03,4.08-10.66,9.5c-0.33,2.85,0.46,5.66,2.24,7.92s4.33,3.68,7.18,4.01c0.42,0.05,0.84,0.07,1.26,0.07
				c5.45,0,10.03-4.08,10.66-9.5c0.69-5.89-3.54-11.24-9.43-11.92C193.18,559.45,192.76,559.42,192.34,559.42L192.34,559.42z"/>
		</g>
	</g>
</g>
<g id="helpers">
</g>
</svg>
