<?xml version="1.0" encoding="utf-8"?>
<!-- Generator: Adobe Illustrator 25.4.1, SVG Export Plug-In . SVG Version: 6.00 Build 0)  -->
<svg version="1.1" xmlns="http://www.w3.org/2000/svg" xmlns:xlink="http://www.w3.org/1999/xlink" x="0px" y="0px"
	 viewBox="0 0 1953.2 1030.7" style="enable-background:new 0 0 1953.2 1030.7;" xml:space="preserve">
<style type="text/css">
	.st0{fill:none;stroke:#F3C811;stroke-width:3;stroke-miterlimit:10;}
	.st1{fill:none;stroke:#A5269F;stroke-width:3;stroke-miterlimit:10;}
	.st2{fill:#FFFFFF;stroke:#A5269F;stroke-width:3;stroke-miterlimit:10;}
	.st3{fill:#FFFFFF;stroke:#F3C811;stroke-width:3;stroke-miterlimit:10;}
	.st4{opacity:0.3;fill:#FFFFFF;stroke:#6C6F7A;stroke-miterlimit:10;}
	.st5{fill:#FFFFFF;stroke:#575A63;stroke-miterlimit:10;}
	.st6{fill:#575A63;}
	.st7{font-family:'UbuntuCondensed-Regular';}
	.st8{font-size:17px;}
	.st9{font-size:19px;}
	.st10{letter-spacing:-1;}
</style>
<g id="lines">
	<g id="pipes">
		<g id="gas_00000129184348092131786730000003243437423452703145_">
			<line id="p10" class="st0" x1="1767" y1="668.5" x2="1767" y2="765.5"/>
			<line id="p10_00000075875526792147999130000017425844004586840992_" class="st0" x1="1767" y1="764" x2="1604" y2="764"/>
			<line id="p9" class="st0" x1="1766" y1="665" x2="1606" y2="665"/>
			<line id="p8" class="st0" x1="699.5" y1="665" x2="1005.5" y2="665"/>
			<line id="p8_00000170962050737798384020000018094110074229007260_" class="st0" x1="700.5" y1="815.5" x2="700.5" y2="663.5"/>
			<line id="p11" class="st0" x1="1006.5" y1="814" x2="702.5" y2="814"/>
			<line id="p11_00000015324404777812170390000005630275791947954858_" class="st0" x1="605" y1="814" x2="702" y2="814"/>
			<line id="p9_00000093166826854479007860000013312947071597572798_" class="st0" x1="1766.5" y1="665" x2="1900.5" y2="665"/>
		</g>
		<g id="methanol_00000052814973416312286870000011569065413445715112_">
			<line id="p5_00000043437021969084330900000007893542978013878202_" class="st1" x1="1408" y1="367" x2="1604" y2="367"/>
			<line id="p4_00000050634568783605550970000018284442452722654104_" class="st1" x1="1412" y1="219" x2="1604" y2="219"/>
			<line id="p6_00000167379051314116665700000016904892635665030017_" class="st1" x1="1407" y1="518" x2="1606" y2="518"/>
			
				<line id="p1-p2-or_00000101814465268920058090000015257248686528210087_" class="st1" x1="1005.5" y1="218" x2="1005.5" y2="71"/>
			<line id="p3_00000094608951895013759370000014202876333652865923_" class="st1" x1="710" y1="406" x2="866" y2="406"/>
			<line id="p1-p2-or_00000157992969996669332850000004258648058217673135_" class="st2" x1="706" y1="197" x2="706" y2="406"/>
			<line id="p1-p2-or_00000064328593152981293100000016482436939598573992_" class="st1" x1="672.5" y1="73" x2="672.5" y2="124"/>
			<line id="p3" class="st1" x1="864.5" y1="71" x2="864.5" y2="405"/>
			<g id="p1-p2-or_00000160153686686157553280000016252264686116126119_">
				<line class="st1" x1="1405" y1="72" x2="1605" y2="72"/>
			</g>
			<line id="p2_00000080177454854331779260000015725575610512006561_" class="st1" x1="364" y1="253" x2="637" y2="253"/>
			<line id="p2_00000031198917987525020620000003389254699240101260_" class="st1" x1="113.5" y1="289" x2="293.5" y2="289"/>
			<line id="p6" class="st1" x1="201" y1="518" x2="1194" y2="518"/>
			<line id="p13_00000024707115953373374240000010298933112115536277_" class="st1" x1="201.5" y1="959" x2="1499.5" y2="959"/>
			<line id="p2_00000005968968707163023500000009339823487567364009_" class="st1" x1="635.5" y1="254" x2="635.5" y2="72"/>
			<line id="p12_00000079444248771263422100000013761798135145778835_" class="st1" x1="1410" y1="814" x2="1606" y2="814"/>
			<line id="p1-p2-p4-p5-p6-p7-p9-p10-p11-or" class="st1" x1="1600" y1="814" x2="1847" y2="814"/>
			<line id="p7_00000034782006687113230120000011618992619720133276_" class="st1" x1="1604" y1="665" x2="1406" y2="665"/>
			<line id="p4" class="st1" x1="1196" y1="219" x2="1003" y2="219"/>
			<line id="p5" class="st1" x1="1197" y1="367" x2="1005" y2="367"/>
			<line id="p7" class="st1" x1="1194" y1="665" x2="1004" y2="665"/>
			<line id="p12" class="st1" x1="1200" y1="814" x2="1005" y2="814"/>
			<line id="p13" class="st1" x1="203" y1="519" x2="203" y2="960"/>
			<line id="p1-p2-p4-or" class="st1" x1="1604" y1="219" x2="1604" y2="367"/>
			<line id="p1-p2-p4-p5-or" class="st1" x1="1604" y1="367" x2="1604" y2="518"/>
			<line id="p1-p2-p4-p5-p6-or" class="st1" x1="1604" y1="518" x2="1604" y2="665"/>
			<line id="p1-p2-p4-p5-p6-p7-p9-or" class="st1" x1="1604" y1="663.5" x2="1604" y2="766.5"/>
			<line id="p1-p2-p4-p5-p6-p7-p9-p10-or" class="st1" x1="1604" y1="766.5" x2="1604" y2="818.5"/>
			<line id="p3_00000058580232314089064670000006196148568293739138_" class="st1" x1="716" y1="406" x2="109" y2="406"/>
			<line id="p6-p13-or" class="st1" x1="201" y1="518" x2="121" y2="518"/>
			
				<line id="p1-p2-p4-or_00000083058677042277764000000014967469428029206665_" class="st1" x1="1005.5" y1="222" x2="1005.5" y2="370"/>
			
				<line id="p1-p2-p4-p5-or_00000065066598592824037720000003905311190071034268_" class="st1" x1="1005.5" y1="369" x2="1005.5" y2="517"/>
			
				<line id="p1-p2-p4-p5-p6-or_00000092448741636454714300000009248407028662310016_" class="st1" x1="1005.5" y1="520" x2="1005.5" y2="668"/>
			<line id="p1-p2-p4-p5-p6-p7-p8-or" class="st1" x1="1005.5" y1="671" x2="1005.5" y2="819"/>
			
				<line id="p1-p2-or_00000178906879690134850620000001758775043224511622_" class="st1" x1="1604" y1="215.5" x2="1604" y2="70.5"/>
			<line id="p1-p2-or" class="st1" x1="670" y1="72" x2="630" y2="72"/>
			<line id="p1-p2-or_00000025441626533414725080000009632625762836942521_" class="st1" x1="1192.5" y1="72" x2="1004.5" y2="72"/>
			<line id="p1-p2-or_00000120535661001995463970000005039995208552545455_" class="st1" x1="1004" y1="72" x2="862" y2="72"/>
			<line id="p1-p2-or_00000178201566316705891920000010275243334238142123_" class="st1" x1="862" y1="72" x2="669" y2="72"/>
			<path id="p2" class="st1" d="M654,71"/>
			<line id="p1" class="st1" x1="639" y1="72" x2="117" y2="72"/>
			<line id="p14" class="st1" x1="1513.5" y1="959" x2="1833.5" y2="959"/>
		</g>
	</g>
	<g id="arc">
	</g>
	<g id="arrows">
	</g>
	<g id="points">
		<g id="gas">
			
				<circle id="p1-p2-p4-p5-p6-p7-p8-or_00000080897079360982652830000012882776327911910830_" class="st3" cx="1005.5" cy="665" r="4.5"/>
			<circle id="p11-p12-or" class="st3" cx="1005.5" cy="814" r="4.5"/>
			
				<circle id="p1-p2-p4-p5-p6-p7-p9-p10-or_00000054952617658427790340000017560521630351149449_" class="st3" cx="1604" cy="764.5" r="4.5"/>
			<circle id="p8-p11-or_00000073704216146443960360000010417816747301269663_" class="st3" cx="700.5" cy="814.5" r="4.5"/>
			<circle id="p9-p10-or_00000169548586155795881200000005499067912491615635_" class="st3" cx="1767" cy="665" r="4.5"/>
			
				<circle id="p1-p2-p4-p5-p6-p7-p9-or_00000090987380617040276100000009957870971105969305_" class="st3" cx="1604" cy="665" r="4.5"/>
		</g>
		<g id="methanol">
			<circle id="p6-p13-or_00000165200955199215628880000001776337677984853145_" class="st2" cx="203" cy="519" r="4.5"/>
			<circle id="p1-p2-p3-or_00000067218379740309985090000017205964306635327360_" class="st2" cx="706" cy="406" r="4.5"/>
			<circle id="p1-p2-or_00000006703431184905332460000000068859516533870500_" class="st2" cx="672.5" cy="72" r="4.5"/>
			<circle id="p1-p2-p4-or_00000073680035833495341070000015667705023296969642_" class="st2" cx="1005.5" cy="219" r="4.5"/>
			<circle id="p1-p2-or_00000083775172915168986620000016190855913319449494_" class="st2" cx="865" cy="72" r="4.5"/>
			<circle id="p1-p2-p4-p5-or_00000086657730177681062140000016621124588802827707_" class="st2" cx="1005.5" cy="367" r="4.5"/>
			<circle id="p1-p2-or_00000093864161719616784030000012299416128511503245_" class="st2" cx="635.5" cy="72" r="4.5"/>
			<circle id="p1-p2-p4-p5-p6-or_00000125585310191372089800000016153378730898349971_" class="st2" cx="1005.5" cy="518" r="4.5"/>
			<circle id="p1-p2-or_00000003089230100208256980000009394809233770163345_" class="st2" cx="1006" cy="72" r="4.5"/>
			
				<circle id="p1-p2-p4-p5-p6-p7-p9-p10-p11-or_00000005949342647805196690000004391275154360113295_" class="st2" cx="1604" cy="814" r="4.5"/>
			<circle id="p1-p2-p4-or_00000176723730879002623680000015648708835924997775_" class="st2" cx="1604" cy="219" r="4.5"/>
			<circle id="p1-p2-p4-p5-or_00000101098636648534230000000003005976614335736200_" class="st2" cx="1604" cy="367" r="4.5"/>
			<circle id="p1-p2-p4-p5-p6-or_00000062178562206248700880000001104681695084186022_" class="st2" cx="1604" cy="518" r="4.5"/>
		</g>
	</g>
</g>
<g id="SimpleElements">
	<g id="valve-n-elem">
		
			<image style="overflow:visible;" width="71" height="89" id="id1" xlink:href="../../../../../arh/Elements/valve-n-elem/pub/valve-n_h_caption.png"  transform="matrix(1 0 0 1 309 24.5)">
		</image>
		
			<image style="overflow:visible;" width="71" height="89" id="id2" xlink:href="../../../../../arh/Elements/valve-n-elem/pub/valve-n_h_caption.png"  transform="matrix(1 0 0 1 416 24.5)">
		</image>
		
			<image style="overflow:visible;" width="71" height="89" id="id3" xlink:href="../../../../../arh/Elements/valve-n-elem/pub/valve-n_h_caption.png"  transform="matrix(1 0 0 1 416 204.5)">
		</image>
		
			<image style="overflow:visible;" width="71" height="89" id="id4" xlink:href="../../../../../arh/Elements/valve-n-elem/pub/valve-n_h_caption.png"  transform="matrix(1 0 0 1 250.5 472)">
		</image>
		
			<image style="overflow:visible;" width="98" height="71" id="id5" xlink:href="../../../../../arh/Elements/valve-n-elem/pub/valve-n_v_caption.png"  transform="matrix(1 0 0 1 157 845)">
		</image>
		
			<image style="overflow:visible;" width="98" height="71" id="id6" xlink:href="../../../../../arh/Elements/valve-n-elem/pub/valve-n_v_caption.png"  transform="matrix(1 0 0 1 818.5 111.5)">
		</image>
		
			<image style="overflow:visible;" width="71" height="89" id="id7" xlink:href="../../../../../arh/Elements/valve-n-elem/pub/valve-n_h_caption.png"  transform="matrix(1 0 0 1 756 358.5)">
		</image>
		
			<image style="overflow:visible;" width="71" height="89" id="id8" xlink:href="../../../../../arh/Elements/valve-n-elem/pub/valve-n_h_caption.png"  transform="matrix(1 0 0 1 817 472)">
		</image>
		
			<image style="overflow:visible;" width="71" height="89" id="id9" xlink:href="../../../../../arh/Elements/valve-n-elem/pub/valve-n_h_caption.png"  transform="matrix(1 0 0 1 817 618)">
		</image>
		
			<image style="overflow:visible;" width="71" height="89" id="id10" xlink:href="../../../../../arh/Elements/valve-n-elem/pub/valve-n_h_caption.png"  transform="matrix(1 0 0 1 817 766.5)">
		</image>
		
			<image style="overflow:visible;" width="71" height="89" id="id11" xlink:href="../../../../../arh/Elements/valve-n-elem/pub/valve-n_h_caption.png"  transform="matrix(1 0 0 1 1060.5 25.5)">
		</image>
		
			<image style="overflow:visible;" width="71" height="89" id="id13" xlink:href="../../../../../arh/Elements/valve-n-elem/pub/valve-n_h_caption.png"  transform="matrix(1 0 0 1 1060.5 172)">
		</image>
		
			<image style="overflow:visible;" width="71" height="89" id="id14" xlink:href="../../../../../arh/Elements/valve-n-elem/pub/valve-n_h_caption.png"  transform="matrix(1 0 0 1 1060.5 319.5)">
		</image>
		
			<image style="overflow:visible;" width="71" height="89" id="id15" xlink:href="../../../../../arh/Elements/valve-n-elem/pub/valve-n_h_caption.png"  transform="matrix(1 0 0 1 1060.5 472)">
		</image>
		
			<image style="overflow:visible;" width="71" height="89" id="id17" xlink:href="../../../../../arh/Elements/valve-n-elem/pub/valve-n_h_caption.png"  transform="matrix(1 0 0 1 1060.5 618)">
		</image>
		
			<image style="overflow:visible;" width="71" height="89" id="id18" xlink:href="../../../../../arh/Elements/valve-n-elem/pub/valve-n_h_caption.png"  transform="matrix(1 0 0 1 1060.5 766.5)">
		</image>
		
			<image style="overflow:visible;" width="71" height="89" id="id19" xlink:href="../../../../../arh/Elements/valve-n-elem/pub/valve-n_h_caption.png"  transform="matrix(1 0 0 1 1462.5 911.5)">
		</image>
		
			<image style="overflow:visible;" width="71" height="89" id="id20" xlink:href="../../../../../arh/Elements/valve-n-elem/pub/valve-n_h_caption.png"  transform="matrix(1 0 0 1 1462.5 766.5)">
		</image>
		
			<image style="overflow:visible;" width="71" height="89" id="id21" xlink:href="../../../../../arh/Elements/valve-n-elem/pub/valve-n_h_caption.png"  transform="matrix(1 0 0 1 1462.5 618)">
		</image>
		
			<image style="overflow:visible;" width="71" height="89" id="id22" xlink:href="../../../../../arh/Elements/valve-n-elem/pub/valve-n_h_caption.png"  transform="matrix(1 0 0 1 1462.5 472)">
		</image>
		
			<image style="overflow:visible;" width="71" height="89" id="id23" xlink:href="../../../../../arh/Elements/valve-n-elem/pub/valve-n_h_caption.png"  transform="matrix(1 0 0 1 1462.5 319.5)">
		</image>
		
			<image style="overflow:visible;" width="71" height="89" id="id24" xlink:href="../../../../../arh/Elements/valve-n-elem/pub/valve-n_h_caption.png"  transform="matrix(1 0 0 1 1462.5 172)">
		</image>
		
			<image style="overflow:visible;" width="71" height="89" id="id25" xlink:href="../../../../../arh/Elements/valve-n-elem/pub/valve-n_h_caption.png"  transform="matrix(1 0 0 1 1462.5 25.5)">
		</image>
		
			<image style="overflow:visible;" width="71" height="89" id="id26" xlink:href="../../../../../arh/Elements/valve-n-elem/pub/valve-n_h_caption.png"  transform="matrix(1 0 0 1 1648 618)">
		</image>
		
			<image style="overflow:visible;" width="71" height="89" id="id27" xlink:href="../../../../../arh/Elements/valve-n-elem/pub/valve-n_h_caption.png"  transform="matrix(1 0 0 1 1648 717.5)">
		</image>
	</g>
	<g id="pump-n-elem">
		
			<image style="overflow:visible;" width="91" height="92" id="id28" xlink:href="../../../../../arh/Elements/pump-n-elem/pub/pump-n_h_caption.png"  transform="matrix(1 0 0 1 285.5 233)">
		</image>
		
			<image style="overflow:visible;" width="104" height="91" id="id29" xlink:href="../../../../../arh/Elements/pump-n-elem/pub/pump-n_v_caption.png"  transform="matrix(1 0 0 1 654 116.5)">
		</image>
	</g>
	<g id="multi-tit-elem">
		
			<image style="overflow:visible;" width="114" height="32" id="id31" xlink:href="../../../../../arh/Elements/multi-tit-elem/pub/multi-tit_no-arroworient.png"  transform="matrix(1 0 0 1 502 24.5)">
		</image>
		
			<image style="overflow:visible;" width="114" height="32" id="id32" xlink:href="../../../../../arh/Elements/multi-tit-elem/pub/multi-tit_no-arroworient.png"  transform="matrix(1 0 0 1 692 24.5)">
		</image>
		
			<image style="overflow:visible;" width="114" height="32" id="id33" xlink:href="../../../../../arh/Elements/multi-tit-elem/pub/multi-tit_no-arroworient.png"  transform="matrix(1 0 0 1 504.5 204.5)">
		</image>
		
			<image style="overflow:visible;" width="114" height="32" id="id34_00000151508982982676165000000015233344732740881576_" xlink:href="../../../../../arh/Elements/multi-tit-elem/pub/multi-tit_arroworient-bot.png"  transform="matrix(1 0 0 1 128.5 222)">
		</image>
	</g>
	<g id="torch-container-elem">
		
			<image style="overflow:visible;" width="403" height="145" id="id35" xlink:href="../../../../../../../../../../../Mnemo/mnemoelements-2.0/elements/torch-container-elem/pub/default.png"  transform="matrix(0.8172 0 0 0.8172 401.5 459)">
		</image>
	</g>
	<g id="separator-h-elem">
		
			<image style="overflow:visible;" width="317" height="128" id="id36" xlink:href="../../../../../../../../../../../Mnemo/mnemoelements-2.0/elements/separator-h-elem/pub/default.png"  transform="matrix(0.735 0 0 0.9883 1183.5 8.75)">
		</image>
		
			<image style="overflow:visible;" width="317" height="128" id="id37" xlink:href="../../../../../../../../../../../Mnemo/mnemoelements-2.0/elements/separator-h-elem/pub/default.png"  transform="matrix(0.735 0 0 0.9883 1183.5 303.75)">
		</image>
		
			<image style="overflow:visible;" width="317" height="128" id="id38" xlink:href="../../../../../../../../../../../Mnemo/mnemoelements-2.0/elements/separator-h-elem/pub/default.png"  transform="matrix(0.735 0 0 0.9883 1183.5 453.25)">
		</image>
		
			<image style="overflow:visible;" width="317" height="128" id="id39" xlink:href="../../../../../../../../../../../Mnemo/mnemoelements-2.0/elements/separator-h-elem/pub/default.png"  transform="matrix(0.735 0 0 0.9883 1183.5 155.75)">
		</image>
		
			<image style="overflow:visible;" width="317" height="128" id="id40" xlink:href="../../../../../../../../../../../Mnemo/mnemoelements-2.0/elements/separator-h-elem/pub/default.png"  transform="matrix(0.735 0 0 0.9883 1183.5 752.25)">
		</image>
		
			<image style="overflow:visible;" width="317" height="128" id="id41" xlink:href="../../../../../../../../../../../Mnemo/mnemoelements-2.0/elements/separator-h-elem/pub/default.png"  transform="matrix(0.735 0 0 0.9883 1183.5 604.75)">
		</image>
		
			<image style="overflow:visible;" width="317" height="128" id="id42" xlink:href="../../../../../../../../../../../Mnemo/mnemoelements-2.0/elements/separator-h-elem/pub/default.png"  transform="matrix(0.735 0 0 0.9883 746.5 212.25)">
		</image>
	</g>
	<g id="transition-button-elem">
		
			<image style="overflow:visible;" width="119" height="34" id="id50_00000154405381367227770750000008311648933848106906_" xlink:href="../../../../../arh/Elements/transition-button-elem/pub/transition-button_arrowdirection-0.png"  transform="matrix(1 0 0 1 1815.5 648)">
		</image>
		
			<image style="overflow:visible;" width="119" height="34" id="id43" xlink:href="../../../../../arh/Elements/transition-button-elem/pub/transition-button_arrowdirection-0.png"  transform="matrix(1 0 0 1 1815.5 797)">
		</image>
		
			<image style="overflow:visible;" width="119" height="34" id="id44" xlink:href="../../../../../arh/Elements/transition-button-elem/pub/transition-button_arrowdirection-0.png"  transform="matrix(1 0 0 1 1815.5 942)">
		</image>
		
			<image style="overflow:visible;" width="119" height="34" id="id45_00000004543395317480059870000012568980216791131071_" xlink:href="../../../../../arh/Elements/transition-button-elem/pub/transition-button_arrowdirection-0.png"  transform="matrix(1 0 0 1 7 55)">
		</image>
		
			<image style="overflow:visible;" width="119" height="34" id="id46" xlink:href="../../../../../arh/Elements/transition-button-elem/pub/transition-button_arrowdirection-1.png"  transform="matrix(1 0 0 1 7 389)">
		</image>
		
			<image style="overflow:visible;" width="119" height="34" id="id47" xlink:href="../../../../../arh/Elements/transition-button-elem/pub/transition-button_arrowdirection-0.png"  transform="matrix(1 0 0 1 498 797)">
		</image>
		
			<image style="overflow:visible;" width="119" height="34" id="id48" xlink:href="../../../../../arh/Elements/transition-button-elem/pub/transition-button_arrowdirection-0.png"  transform="matrix(1 0 0 1 7 501)">
		</image>
		
			<image style="overflow:visible;" width="119" height="34" id="id49" xlink:href="../../../../../arh/Elements/transition-button-elem/pub/transition-button_arrowdirection-0.png"  transform="matrix(1 0 0 1 7 272)">
		</image>
	</g>
	<g id="arrow-pic">
		
			<image style="overflow:visible;" width="28" height="34" id="id50" xlink:href="../../../../../../../../../../../Program Files (x86)/Apache Software Foundation/Tomcat 10.0/webapps/ROOT/Data-2.0/Elements/arrow-pic/pub/arrow-pic_no-caption.png"  transform="matrix(1 0 0 1 170 272)">
		</image>
	</g>
</g>
<g id="tables">
	<g id="t4">
		<rect x="1653" y="69.5" class="st4" width="274" height="111"/>
	</g>
	<g id="t3">
		<path class="st5" d="M1910,169h-36c-2.8,0-5-2.2-5-5v-13c0-2.8,2.2-6,5-6h36c2.8,0,5,3.2,5,6v13C1915,166.8,1912.8,169,1910,169z"
			/>
	</g>
	<g id="t2">
		<path class="st5" d="M1910,135h-36c-2.8,0-5-2.2-5-5v-13c0-2.8,2.2-6,5-6h36c2.8,0,5,3.2,5,6v13C1915,132.8,1912.8,135,1910,135z"
			/>
	</g>
	<g id="t1">
		<path class="st5" d="M1910,101h-36c-2.8,0-5-2.2-5-5V82c0-2.8,2.2-5,5-5h36c2.8,0,5,2.2,5,5v14C1915,98.8,1912.8,101,1910,101z"/>
	</g>
</g>
<g id="text">
	<g id="px17">
		<text transform="matrix(1 0 0 1 1843.1313 164.5421)" class="st6 st7 st8">тн</text>
		<text transform="matrix(1 0 0 1 1846.1888 129.9221)" class="st6 st7 st8">м³</text>
		<text transform="matrix(1 0 0 1 1823.8345 94.0378)" class="st6 st7 st8">г/сн3</text>
	</g>
	<g id="px19">
		<text transform="matrix(1 -2.470000e-03 2.470000e-03 1 1664.9889 94.3673)" class="st6 st7 st9 st10">Плотность метанола,</text>
		<text transform="matrix(1 -2.470000e-03 2.470000e-03 1 1665.3281 130.0984)" class="st6 st7 st9 st10">Объем метанола в Е1-Е6,  </text>
		<text transform="matrix(1 -2.470000e-03 2.470000e-03 1 1664.8436 164.8806)" class="st6 st7 st9 st10">Масса метанола в Е1-Е6,</text>
		<text transform="matrix(1 0 0 1 1878.4747 95.137)" class="st7 st9">218</text>
		<text transform="matrix(1 0 0 1 1878.9747 163.637)" class="st7 st9">218</text>
		<text transform="matrix(1 0 0 1 1878.9747 129.637)" class="st7 st9">218</text>
	</g>
</g>
<g id="helpers">
</g>
</svg>
