<?xml version="1.0" encoding="utf-8"?>
<!-- Generator: Adobe Illustrator 25.4.1, SVG Export Plug-In . SVG Version: 6.00 Build 0)  -->
<svg version="1.1" xmlns="http://www.w3.org/2000/svg" xmlns:xlink="http://www.w3.org/1999/xlink" x="0px" y="0px"
	 viewBox="0 0 1322.1 522.8" style="enable-background:new 0 0 1322.1 522.8;" xml:space="preserve">
<style type="text/css">
	.st0{fill:none;stroke:#93398C;stroke-width:3;stroke-miterlimit:10;}
	.st1{fill:none;stroke:#F2C711;stroke-width:3;stroke-miterlimit:10;}
	.st2{fill:none;stroke:#933B8D;stroke-width:3;stroke-miterlimit:10;}
	.st3{fill:none;stroke:#F2C709;stroke-width:3;stroke-miterlimit:10;}
	.st4{fill:#F5F3F2;stroke:#93398C;stroke-width:3;stroke-miterlimit:10;}
	.st5{fill:#F5F3F2;stroke:#F2C711;stroke-width:3;stroke-miterlimit:10;}
</style>
<g id="lines">
	<g id="pipes">
		<g id="methanol">
			<polyline class="st0" points="1046,226 1046,303 915,303 915,359 			"/>
			<line class="st0" x1="915" y1="479" x2="915" y2="370"/>
			<polyline class="st0" points="182,479 1046,479 1046,364 			"/>
		</g>
		<g id="gas">
			<polyline class="st1" points="1224,226 824,226 824,364 			"/>
			<polyline class="st1" points="1196,92 775,92 775,364 			"/>
			<polyline class="st1" points="1212,364 262,364 262,467 216,467 			"/>
		</g>
	</g>
	<g id="arrows">
		<g id="methanol_00000017499177765999547110000004692805457166367907_">
			<polyline class="st2" points="401,486 408,479 401,473 			"/>
			<polyline class="st2" points="692,486 699,479 692,473 			"/>
			<polyline class="st0" points="908,336 915,328 922,336 			"/>
		</g>
		<g id="gas_00000181791645510919408480000001508528604665350074_">
			<polyline class="st3" points="831,331 824,339 817,331 			"/>
			<polyline class="st3" points="782,242 775,250 768,242 			"/>
			<polyline class="st3" points="408,371 401,364 408,357 			"/>
			<polyline class="st3" points="639,371 631,364 639,357 			"/>
		</g>
	</g>
	<g id="arc">
		<g id="methanol_00000088835071401046716390000018034930008121431169_">
			<path class="st0" d="M915,344v14c-3.3,0-7,2.5-7,6s2.7,7,7,7v10"/>
		</g>
		<g id="gas_00000023277163111697319350000006820493815660171150_">
		</g>
	</g>
	<g id="points">
		<g id="methanol_00000116226266014739984290000004415751384931828666_">
			<circle class="st4" cx="1046" cy="226" r="4.5"/>
			<circle class="st4" cx="915" cy="479" r="4.5"/>
			<circle class="st4" cx="1046" cy="364" r="4.5"/>
		</g>
		<g id="gas_00000150098098206018795060000009596324627341115303_">
			<circle class="st5" cx="824" cy="364" r="4.5"/>
			<circle class="st5" cx="775" cy="364" r="4.5"/>
		</g>
	</g>
</g>
<g id="SimpleElements">
	<g id="valve-mini-unactive-elem">
		
			<image style="overflow:visible;" width="38" height="57" id="id1" xlink:href="../../../../../Users/evgen/OneDrive/Рабочий стол/workspace/_work/arh/Elements/valve-mini-unactive-elem/pub/valve-mini-unactive_h_caption.png"  transform="matrix(1 0 0 1 854 197.5)">
		</image>
		
			<image style="overflow:visible;" width="38" height="57" id="id2" xlink:href="../../../../../Users/evgen/OneDrive/Рабочий стол/workspace/_work/arh/Elements/valve-mini-unactive-elem/pub/valve-mini-unactive_h_caption.png"  transform="matrix(1 0 0 1 941.5 337.5)">
		</image>
		
			<image style="overflow:visible;" width="38" height="57" id="id3" xlink:href="../../../../../Users/evgen/OneDrive/Рабочий стол/workspace/_work/arh/Elements/valve-mini-unactive-elem/pub/valve-mini-unactive_h_caption.png"  transform="matrix(1 0 0 1 941.5 197.5)">
		</image>
		
			<image style="overflow:visible;" width="38" height="57" id="id4" xlink:href="../../../../../Users/evgen/OneDrive/Рабочий стол/workspace/_work/arh/Elements/valve-mini-unactive-elem/pub/valve-mini-unactive_h_caption.png"  transform="matrix(1 0 0 1 988 451.5)">
		</image>
		
			<image style="overflow:visible;" width="38" height="57" id="id5" xlink:href="../../../../../Users/evgen/OneDrive/Рабочий стол/workspace/_work/arh/Elements/valve-mini-unactive-elem/pub/valve-mini-unactive_h_caption.png"  transform="matrix(1 0 0 1 988 276.5)">
		</image>
		
			<image style="overflow:visible;" width="38" height="57" id="id6" xlink:href="../../../../../Users/evgen/OneDrive/Рабочий стол/workspace/_work/arh/Elements/valve-mini-unactive-elem/pub/valve-mini-unactive_h_caption.png"  transform="matrix(1 0 0 1 708 337.5)">
		</image>
		
			<image style="overflow:visible;" width="38" height="57" id="id7" xlink:href="../../../../../Users/evgen/OneDrive/Рабочий стол/workspace/_work/arh/Elements/valve-mini-unactive-elem/pub/valve-mini-unactive_h_caption.png"  transform="matrix(1 0 0 1 854 337.5)">
		</image>
		
			<image style="overflow:visible;" width="38" height="57" id="id8" xlink:href="../../../../../Users/evgen/OneDrive/Рабочий стол/workspace/_work/arh/Elements/valve-mini-unactive-elem/pub/valve-mini-unactive_h_caption.png"  transform="matrix(1 0 0 1 941.5 63.5)">
		</image>
		
			<image style="overflow:visible;" width="38" height="57" id="id9" xlink:href="../../../../../Users/evgen/OneDrive/Рабочий стол/workspace/_work/arh/Elements/valve-mini-unactive-elem/pub/valve-mini-unactive_h_caption.png"  transform="matrix(1 0 0 1 287 337.5)">
		</image>
		
			<image style="overflow:visible;" width="69" height="38" id="id10" xlink:href="../../../../../Users/evgen/OneDrive/Рабочий стол/workspace/_work/arh/Elements/valve-mini-unactive-elem/pub/valve-mini-unactive_v_caption.png"  transform="matrix(1 0 0 1 797.5 267.5)">
		</image>
	</g>
	<g id="multi-tit-elem">
		
			<image style="overflow:visible;" width="114" height="64" id="id11" xlink:href="../../../../../Users/evgen/OneDrive/Рабочий стол/workspace/_work/arh/Elements/multi-tit-elem/pub/multi-tit_titcount-2_no-arroworient.png"  transform="matrix(1 0 0 1 1058 12)">
		</image>
		
			<image style="overflow:visible;" width="114" height="64" id="id12" xlink:href="../../../../../Users/evgen/OneDrive/Рабочий стол/workspace/_work/arh/Elements/multi-tit-elem/pub/multi-tit_titcount-2_no-arroworient.png"  transform="matrix(1 0 0 1 351 282)">
		</image>
		
			<image style="overflow:visible;" width="114" height="64" id="id13" xlink:href="../../../../../Users/evgen/OneDrive/Рабочий стол/workspace/_work/arh/Elements/multi-tit-elem/pub/multi-tit_titcount-2_no-arroworient.png"  transform="matrix(1 0 0 1 351 399)">
		</image>
		
			<image style="overflow:visible;" width="114" height="64" id="id14" xlink:href="../../../../../Users/evgen/OneDrive/Рабочий стол/workspace/_work/arh/Elements/multi-tit-elem/pub/multi-tit_titcount-2_no-arroworient.png"  transform="matrix(1 0 0 1 1058 283)">
		</image>
		
			<image style="overflow:visible;" width="114" height="64" id="id15" xlink:href="../../../../../Users/evgen/OneDrive/Рабочий стол/workspace/_work/arh/Elements/multi-tit-elem/pub/multi-tit_titcount-2_no-arroworient.png"  transform="matrix(1 0 0 1 1058 146)">
		</image>
		
			<image style="overflow:visible;" width="114" height="64" id="id16" xlink:href="../../../../../Users/evgen/OneDrive/Рабочий стол/workspace/_work/arh/Elements/multi-tit-elem/pub/multi-tit_titcount-2_no-arroworient.png"  transform="matrix(1 0 0 1 562 282)">
		</image>
	</g>
	<g id="valve-n-elem">
		
			<image style="overflow:visible;" width="71" height="89" id="id17" xlink:href="../../../../../Users/evgen/OneDrive/Рабочий стол/workspace/_work/arh/Elements/valve-n-elem/pub/valve-n_h_caption.png"  transform="matrix(1 0 0 1 480 316.5)">
		</image>
		
			<image style="overflow:visible;" width="71" height="89" id="id18" xlink:href="../../../../../Users/evgen/OneDrive/Рабочий стол/workspace/_work/arh/Elements/valve-n-elem/pub/valve-n_h_caption.png"  transform="matrix(1 0 0 1 480 432)">
		</image>
	</g>
	<g id="transition-button-elem">
		
			<image style="overflow:visible;" width="119" height="34" id="id19" xlink:href="../../../../../Users/evgen/OneDrive/Рабочий стол/workspace/_work/arh/Elements/transition-button-elem/pub/transition-button_arrowdirection-1.png"  transform="matrix(1 0 0 1 1194 75)">
		</image>
		
			<image style="overflow:visible;" width="119" height="34" id="id20" xlink:href="../../../../../Users/evgen/OneDrive/Рабочий стол/workspace/_work/arh/Elements/transition-button-elem/pub/transition-button_arrowdirection-1.png"  transform="matrix(1 0 0 1 1194 209)">
		</image>
		
			<image style="overflow:visible;" width="119" height="34" id="id21" xlink:href="../../../../../Users/evgen/OneDrive/Рабочий стол/workspace/_work/arh/Elements/transition-button-elem/pub/transition-button_arrowdirection-1.png"  transform="matrix(1 0 0 1 1194 346)">
		</image>
	</g>
	<g id="ukpg-elem">
		
			<image style="overflow:visible;" width="404" height="279" id="id22" xlink:href="../../../../../Users/evgen/OneDrive/Рабочий стол/workspace/_work/arh/Elements/ukpg-elem/pub/default.png"  transform="matrix(0.5684 0 0 0.6673 10.4547 322)">
		</image>
	</g>
</g>
<g id="helpers">
</g>
</svg>
