<?xml version="1.0" encoding="utf-8"?>
<!-- Generator: Adobe Illustrator 23.0.1, SVG Export Plug-In . SVG Version: 6.00 Build 0)  -->
<svg version="1.1" xmlns="http://www.w3.org/2000/svg" xmlns:xlink="http://www.w3.org/1999/xlink" x="0px" y="0px"
	 viewBox="0 0 1507 1030" style="enable-background:new 0 0 1507 1030;" xml:space="preserve">
<style type="text/css">
	.st0{fill:#EEEEEF;stroke:#6C6E7A;stroke-miterlimit:10;}
	.st1{fill:#909091;}
	.st2{font-family:'UbuntuCondensed-Regular';}
	.st3{font-size:16px;}
	.st4{font-size:14px;}
	.st5{font-size:20px;}
	.st6{fill:#21282D;}
	.st7{font-size:21px;}
	.st8{fill:none;stroke:#000000;stroke-width:0.5;stroke-miterlimit:10;}
	.st9{fill:none;stroke:#7030A0;stroke-width:6;stroke-miterlimit:10;}
	.st10{fill:none;stroke:#6C6E7A;stroke-width:6;stroke-miterlimit:10;}
	.st11{fill:#F5F3F3;stroke:#7030A0;stroke-miterlimit:10;}
	.st12{fill:#F5F3F3;stroke:#6C6E7A;stroke-miterlimit:10;}
	.st13{fill:#F5F3F3;}
	.st14{fill-rule:evenodd;clip-rule:evenodd;fill:none;stroke:#909091;stroke-miterlimit:10;}
</style>
<g id="SimpleElements">
	<g id="switch-cart-elem">
		
			<image style="overflow:visible;" width="22" height="69" id="id1" xlink:href="../../../elements/switch-cart-elem/pub/default.png"  transform="matrix(1 0 0 1 15.5 132.307)">
		</image>
	</g>
	<g id="switch-elem">
		
			<image style="overflow:visible;" width="22" height="37" id="id2" xlink:href="../../../elements/switch-elem/pub/default.png"  transform="matrix(1 0 0 1 765.5 148.307)">
		</image>
		
			<image style="overflow:visible;" width="22" height="37" id="id3" xlink:href="../../../elements/switch-elem/pub/default.png"  transform="matrix(1 0 0 1 765.5 626.307)">
		</image>
		
			<image style="overflow:visible;" width="22" height="37" id="id4" xlink:href="../../../elements/switch-elem/pub/default.png"  transform="matrix(1 0 0 1 1265.417 626.307)">
		</image>
	</g>
	<g id="multi-tit-elem">
		
			<image style="overflow:visible;" width="134" height="192" id="id5" xlink:href="../../../elements/multi-tit-elem/pub/multi-tit_titcount-6_no-arroworient.png"  transform="matrix(1.0969 0 0 1.0969 79.9241 309.6967)">
		</image>
		
			<image style="overflow:visible;" width="134" height="192" id="id6" xlink:href="../../../elements/multi-tit-elem/pub/multi-tit_titcount-6_no-arroworient.png"  transform="matrix(1.0969 0 0 1.0969 329.9241 309.6967)">
		</image>
		
			<image style="overflow:visible;" width="134" height="192" id="id7" xlink:href="../../../elements/multi-tit-elem/pub/multi-tit_titcount-6_no-arroworient.png"  transform="matrix(1.0969 0 0 1.0969 579.9241 309.6967)">
		</image>
		
			<image style="overflow:visible;" width="134" height="192" id="id8" xlink:href="../../../elements/multi-tit-elem/pub/multi-tit_titcount-6_no-arroworient.png"  transform="matrix(1.0969 0 0 1.0969 829.9241 309.6967)">
		</image>
		
			<image style="overflow:visible;" width="134" height="192" id="id9" xlink:href="../../../elements/multi-tit-elem/pub/multi-tit_titcount-6_no-arroworient.png"  transform="matrix(1.0969 0 0 1.0969 1079.9241 309.6967)">
		</image>
		
			<image style="overflow:visible;" width="134" height="192" id="id10" xlink:href="../../../elements/multi-tit-elem/pub/multi-tit_titcount-6_no-arroworient.png"  transform="matrix(1.0969 0 0 1.0969 1329.9241 309.6967)">
		</image>
		
			<image style="overflow:visible;" width="134" height="192" id="id11" xlink:href="../../../elements/multi-tit-elem/pub/multi-tit_titcount-6_no-arroworient.png"  transform="matrix(1.0969 0 0 1.0969 329.9241 787.6967)">
		</image>
		
			<image style="overflow:visible;" width="134" height="192" id="id12" xlink:href="../../../elements/multi-tit-elem/pub/multi-tit_titcount-6_no-arroworient.png"  transform="matrix(1.0969 0 0 1.0969 579.9241 787.6967)">
		</image>
		
			<image style="overflow:visible;" width="134" height="192" id="id13" xlink:href="../../../elements/multi-tit-elem/pub/multi-tit_titcount-6_no-arroworient.png"  transform="matrix(1.0969 0 0 1.0969 829.9241 787.6967)">
		</image>
		
			<image style="overflow:visible;" width="134" height="192" id="id14" xlink:href="../../../elements/multi-tit-elem/pub/multi-tit_titcount-6_no-arroworient.png"  transform="matrix(1.0969 0 0 1.0969 1083.1641 787.6967)">
		</image>
		
			<image style="overflow:visible;" width="134" height="192" id="id15" xlink:href="../../../elements/multi-tit-elem/pub/multi-tit_titcount-6_no-arroworient.png"  transform="matrix(1.0969 0 0 1.0969 1333.1641 787.6967)">
		</image>
		
			<image style="overflow:visible;" width="134" height="264" id="id16" xlink:href="../../../elements/multi-tit-elem/pub/multi-tit_titcount-8_no-arroworient.png"  transform="matrix(1.0939 0 0 1.0939 2.1264 715.1065)">
		</image>
	</g>
	<g id="earthing-knife-elem">
		
			<image style="overflow:visible;" width="45" height="18" id="id17" xlink:href="../../../elements/earthing-knife-elem/pub/default.png"  transform="matrix(1 0 0 1 23 214)">
		</image>
		
			<image style="overflow:visible;" width="45" height="18" id="id18" xlink:href="../../../elements/earthing-knife-elem/pub/default.png"  transform="matrix(1 0 0 1 23 407.637)">
		</image>
		
			<image style="overflow:visible;" width="45" height="18" id="id19" xlink:href="../../../elements/earthing-knife-elem/pub/default.png"  transform="matrix(1 0 0 1 273 407.637)">
		</image>
		
			<image style="overflow:visible;" width="45" height="18" id="id20" xlink:href="../../../elements/earthing-knife-elem/pub/default.png"  transform="matrix(1 0 0 1 523 407.637)">
		</image>
		
			<image style="overflow:visible;" width="45" height="18" id="id21" xlink:href="../../../elements/earthing-knife-elem/pub/default.png"  transform="matrix(1 0 0 1 773 407.637)">
		</image>
		
			<image style="overflow:visible;" width="45" height="18" id="id22" xlink:href="../../../elements/earthing-knife-elem/pub/default.png"  transform="matrix(1 0 0 1 1023 407.637)">
		</image>
		
			<image style="overflow:visible;" width="45" height="18" id="id23" xlink:href="../../../elements/earthing-knife-elem/pub/default.png"  transform="matrix(1 0 0 1 1272.917 407.637)">
		</image>
		
			<image style="overflow:visible;" width="45" height="18" id="id24" xlink:href="../../../elements/earthing-knife-elem/pub/default.png"  transform="matrix(1 0 0 1 773 875.637)">
		</image>
		
			<image style="overflow:visible;" width="45" height="18" id="id25" xlink:href="../../../elements/earthing-knife-elem/pub/default.png"  transform="matrix(1 0 0 1 1023 875.637)">
		</image>
		
			<image style="overflow:visible;" width="45" height="18" id="id26" xlink:href="../../../elements/earthing-knife-elem/pub/default.png"  transform="matrix(1 0 0 1 1272.917 875.637)">
		</image>
		
			<image style="overflow:visible;" width="45" height="18" id="id27" xlink:href="../../../elements/earthing-knife-elem/pub/default.png"  transform="matrix(1 0 0 1 234.781 875.637)">
		</image>
		
			<image style="overflow:visible;" width="45" height="18" id="id28" xlink:href="../../../elements/earthing-knife-elem/pub/default.png"  transform="matrix(1 0 0 1 523 875.637)">
		</image>
	</g>
	<g id="disconnector-elem">
		
			<image style="overflow:visible;" width="16" height="11" id="id29" xlink:href="../../../elements/disconnector-elem/pub/default.png"  transform="matrix(0 -1 1 0 21 348.637)">
		</image>
		
			<image style="overflow:visible;" width="16" height="11" id="id30" xlink:href="../../../elements/disconnector-elem/pub/default.png"  transform="matrix(0 -1 1 0 271 348.637)">
		</image>
		
			<image style="overflow:visible;" width="16" height="11" id="id31" xlink:href="../../../elements/disconnector-elem/pub/default.png"  transform="matrix(0 -1 1 0 521 348.637)">
		</image>
		
			<image style="overflow:visible;" width="16" height="11" id="id32" xlink:href="../../../elements/disconnector-elem/pub/default.png"  transform="matrix(0 -1 1 0 21 506)">
		</image>
		
			<image style="overflow:visible;" width="16" height="11" id="id33" xlink:href="../../../elements/disconnector-elem/pub/default.png"  transform="matrix(0 -1 1 0 271 506)">
		</image>
		
			<image style="overflow:visible;" width="16" height="11" id="id34" xlink:href="../../../elements/disconnector-elem/pub/default.png"  transform="matrix(0 -1 1 0 521 506)">
		</image>
		
			<image style="overflow:visible;" width="16" height="11" id="id35" xlink:href="../../../elements/disconnector-elem/pub/default.png"  transform="matrix(0 -1 1 0 771 348.637)">
		</image>
		
			<image style="overflow:visible;" width="16" height="11" id="id36" xlink:href="../../../elements/disconnector-elem/pub/default.png"  transform="matrix(0 -1 1 0 771 506)">
		</image>
		
			<image style="overflow:visible;" width="16" height="11" id="id37" xlink:href="../../../elements/disconnector-elem/pub/default.png"  transform="matrix(0 -1 1 0 1021 348.637)">
		</image>
		
			<image style="overflow:visible;" width="16" height="11" id="id38" xlink:href="../../../elements/disconnector-elem/pub/default.png"  transform="matrix(0 -1 1 0 1021 506)">
		</image>
		
			<image style="overflow:visible;" width="16" height="11" id="id39" xlink:href="../../../elements/disconnector-elem/pub/default.png"  transform="matrix(0 -1 1 0 1270.917 348.637)">
		</image>
		
			<image style="overflow:visible;" width="16" height="11" id="id40" xlink:href="../../../elements/disconnector-elem/pub/default.png"  transform="matrix(0 -1 1 0 1270.917 506)">
		</image>
		
			<image style="overflow:visible;" width="16" height="11" id="id41" xlink:href="../../../elements/disconnector-elem/pub/default.png"  transform="matrix(0 -1 1 0 232.781 816.637)">
		</image>
		
			<image style="overflow:visible;" width="16" height="11" id="id42" xlink:href="../../../elements/disconnector-elem/pub/default.png"  transform="matrix(0 -1 1 0 232.781 974)">
		</image>
		
			<image style="overflow:visible;" width="16" height="11" id="id43" xlink:href="../../../elements/disconnector-elem/pub/default.png"  transform="matrix(0 -1 1 0 521 816.637)">
		</image>
		
			<image style="overflow:visible;" width="16" height="11" id="id44" xlink:href="../../../elements/disconnector-elem/pub/default.png"  transform="matrix(0 -1 1 0 521 974)">
		</image>
		
			<image style="overflow:visible;" width="16" height="11" id="id45" xlink:href="../../../elements/disconnector-elem/pub/default.png"  transform="matrix(0 -1 1 0 771 816.637)">
		</image>
		
			<image style="overflow:visible;" width="16" height="11" id="id46" xlink:href="../../../elements/disconnector-elem/pub/default.png"  transform="matrix(0 -1 1 0 771 974)">
		</image>
		
			<image style="overflow:visible;" width="16" height="11" id="id47" xlink:href="../../../elements/disconnector-elem/pub/default.png"  transform="matrix(0 -1 1 0 1021 816.637)">
		</image>
		
			<image style="overflow:visible;" width="16" height="11" id="id48" xlink:href="../../../elements/disconnector-elem/pub/default.png"  transform="matrix(0 -1 1 0 1021 974)">
		</image>
		
			<image style="overflow:visible;" width="16" height="11" id="id49" xlink:href="../../../elements/disconnector-elem/pub/default.png"  transform="matrix(0 -1 1 0 1270.917 816.637)">
		</image>
		
			<image style="overflow:visible;" width="16" height="11" id="id50" xlink:href="../../../elements/disconnector-elem/pub/default.png"  transform="matrix(0 -1 1 0 1270.917 974)">
		</image>
		
			<image style="overflow:visible;" width="16" height="11" id="id51" xlink:href="../../../elements/disconnector-elem/pub/default.png"  transform="matrix(1 0 0 1 176.79 973.067)">
		</image>
		
			<image style="overflow:visible;" width="16" height="11" id="id52" xlink:href="../../../elements/disconnector-elem/pub/default.png"  transform="matrix(1 0 0 1 281.915 973.067)">
		</image>
	</g>
</g>
<g id="tables">
	<g id="rect">
		<path class="st0" d="M1184.86,55.53V15.82c-0.01-2.66-2.22-4.83-4.91-4.82l-851.14,0.27c-2.7,0.01-4.9,2.19-4.89,4.84l0.02,6.24
			l0.04,32.82c0.01,2.66,2.22,4.83,4.91,4.82l851.14-0.27c2.7-0.01,4.9-2.19,4.89-4.84L1184.86,55.53z"/>
	</g>
	<g id="text">
		<g id="elem-text">
			<text transform="matrix(1 0 0 1 41.7643 462.9904)" class="st1 st2 st3">Т1</text>
			<text transform="matrix(1 0 0 1 291.7643 462.9904)" class="st1 st2 st3">Т1</text>
			<text transform="matrix(1 0 0 1 541.7643 462.9904)" class="st1 st2 st3">Т1</text>
			<text transform="matrix(1 0 0 1 791.7644 462.9904)" class="st1 st2 st3">Т1</text>
			<text transform="matrix(1 0 0 1 1041.7644 462.9904)" class="st1 st2 st3">Т1</text>
			<text transform="matrix(1 0 0 1 1291.681 462.9904)" class="st1 st2 st3">Т1</text>
			<text transform="matrix(1 0 0 1 1291.681 930.9904)" class="st1 st2 st3">Т1</text>
			<text transform="matrix(1 0 0 1 1041.7644 930.9904)" class="st1 st2 st3">Т1</text>
			<text transform="matrix(1 0 0 1 791.7644 930.9904)" class="st1 st2 st3">Т1</text>
			<text transform="matrix(1 0 0 1 541.7644 930.9904)" class="st1 st2 st3">Т1</text>
			<text transform="matrix(1 0 0 1 253.5457 930.9904)" class="st1 st2 st3">Т1</text>
		</g>
		<g id="subtitles">
			<text transform="matrix(1 0 0 1 37.3437 502.5474)" class="st1 st2 st4">1ВВ</text>
			<text transform="matrix(1 0 0 1 37.3124 345.6372)" class="st1 st2 st4">УВН1</text>
			<text transform="matrix(1 0 0 1 12.1686 97.0469)" class="st1 st2 st4">1С-10</text>
			<text transform="matrix(1 0 0 1 1287.2604 970.5474)" class="st1 st2 st4">1ВВ</text>
			<text transform="matrix(1 0 0 1 1287.2291 813.6372)" class="st1 st2 st4">УВН1</text>
			<text transform="matrix(1 0 0 1 1264.0336 1017.6956)" class="st1 st2 st4">С-0,4</text>
			<text transform="matrix(1 0 0 1 1037.3438 970.5474)" class="st1 st2 st4">1ВВ</text>
			<text transform="matrix(1 0 0 1 1037.3125 813.6372)" class="st1 st2 st4">УВН1</text>
			<text transform="matrix(1 0 0 1 1014.1169 1017.6956)" class="st1 st2 st4">С-0,4</text>
			<text transform="matrix(1 0 0 1 787.3438 970.5474)" class="st1 st2 st4">1ВВ</text>
			<text transform="matrix(1 0 0 1 787.3125 813.6372)" class="st1 st2 st4">УВН1</text>
			<text transform="matrix(1 0 0 1 764.1169 1017.6956)" class="st1 st2 st4">С-0,4</text>
			<text transform="matrix(1 0 0 1 537.3438 970.5474)" class="st1 st2 st4">1ВВ</text>
			<text transform="matrix(1 0 0 1 537.3125 813.6372)" class="st1 st2 st4">УВН1</text>
			<text transform="matrix(1 0 0 1 249.125 970.5474)" class="st1 st2 st4">1ВВ</text>
			<text transform="matrix(1 0 0 1 249.0938 813.6372)" class="st1 st2 st4">УВН1</text>
			<text transform="matrix(1 0 0 1 514.1169 1017.6956)" class="st1 st2 st4">С-0,4</text>
			<text transform="matrix(1 0 0 1 225.8336 1017.6956)" class="st1 st2 st4">С-0,4</text>
			<text transform="matrix(1 0 0 1 304.4586 1017.6956)" class="st1 st2 st4">С-0,4</text>
			<text transform="matrix(1 0 0 1 13.3122 539.0464)" class="st1 st2 st4">С-0,4</text>
			<text transform="matrix(1 0 0 1 287.3437 502.5474)" class="st1 st2 st4">1ВВ</text>
			<text transform="matrix(1 0 0 1 287.3124 345.6372)" class="st1 st2 st4">УВН1</text>
			<text transform="matrix(1 0 0 1 263.3122 539.0464)" class="st1 st2 st4">С-0,4</text>
			<text transform="matrix(1 0 0 1 537.3437 502.5474)" class="st1 st2 st4">1ВВ</text>
			<text transform="matrix(1 0 0 1 537.3124 345.6372)" class="st1 st2 st4">УВН1</text>
			<text transform="matrix(1 0 0 1 513.3122 539.0464)" class="st1 st2 st4">С-0,4</text>
			<text transform="matrix(1 0 0 1 787.3438 502.5474)" class="st1 st2 st4">1ВВ</text>
			<text transform="matrix(1 0 0 1 787.3125 345.6372)" class="st1 st2 st4">УВН1</text>
			<text transform="matrix(1 0 0 1 763.3123 539.0464)" class="st1 st2 st4">С-0,4</text>
			<text transform="matrix(1 0 0 1 1037.3438 502.5474)" class="st1 st2 st4">1ВВ</text>
			<text transform="matrix(1 0 0 1 1037.3125 345.6372)" class="st1 st2 st4">УВН1</text>
			<text transform="matrix(1 0 0 1 1013.3123 539.0464)" class="st1 st2 st4">С-0,4</text>
			<text transform="matrix(1 0 0 1 1287.2604 502.5474)" class="st1 st2 st4">1ВВ</text>
			<text transform="matrix(1 0 0 1 1287.2291 345.6372)" class="st1 st2 st4">УВН1</text>
			<text transform="matrix(1 0 0 1 1263.2289 539.0464)" class="st1 st2 st4">С-0,4</text>
			<text transform="matrix(1 0 0 1 138.1359 243.9102)" class="st1 st2 st4">ВЛ-10</text>
			<text transform="matrix(1 0 0 1 179.2798 970.5474)" class="st1 st2 st4">АВ</text>
			<text transform="matrix(1 0 0 1 283.2035 970.5474)" class="st1 st2 st4">???</text>
		</g>
		<g id="titles">
			<text transform="matrix(1 0 0 1 104.3577 288.9292)" class="st1 st2 st5">ТП-4КП-УП0У</text>
			<text transform="matrix(1 0 0 1 621.8174 288.9292)" class="st1 st2 st5">ТП-4КП1</text>
			<text transform="matrix(1 0 0 1 871.8173 288.9292)" class="st1 st2 st5">ТП-4КП2</text>
			<text transform="matrix(1 0 0 1 1121.817 288.9292)" class="st1 st2 st5">ТП-4КП3</text>
			<text transform="matrix(1 0 0 1 352.8077 766.9292)" class="st1 st2 st5">ТП-4КП-УПОУ</text>
			<text transform="matrix(1 0 0 1 623.1373 766.9292)" class="st1 st2 st5">ТП-4ЭХЗ</text>
			<text transform="matrix(1 0 0 1 871.8173 766.9292)" class="st1 st2 st5">ТП-4КП7</text>
			<text transform="matrix(1 0 0 1 1125.0573 766.9292)" class="st1 st2 st5">ТП-4КП6</text>
			<text transform="matrix(1 0 0 1 1371.817 288.9292)" class="st1 st2 st5">ТП-4КП4</text>
			<text transform="matrix(1 0 0 1 1375.0573 766.9292)" class="st1 st2 st5">ТП-4КП5</text>
			<text transform="matrix(1 0 0 1 18.3278 699.9297)" class="st1 st2 st5">АДЭС-ТП-УПОУ</text>
			<text transform="matrix(1 0 0 1 797.401 654.9297)" class="st1 st2 st5">10Р-4КП</text>
			<text transform="matrix(1 0 0 1 1297.3854 654.9297)" class="st1 st2 st5">9Р-4КП</text>
			<text transform="matrix(1 0 0 1 378.2975 288.9292)" class="st1 st2 st5">ТП-420</text>
			<text transform="matrix(1 0 0 1 797.4479 176.9292)" class="st1 st2 st5">8Р-4КП</text>
			<text transform="matrix(1 0 0 1 123.7671 102.9292)" class="st1 st2 st5">РУ-10кВ</text>
			<text transform="matrix(1 0 0 1 47.2686 176.9292)" class="st1 st2 st5">24</text>
		</g>
		<g id="main">
			<g>
				<text transform="matrix(1 -2.470000e-03 2.470000e-03 1 456.5574 45.242)" class="st6 st2 st7">Электроснабжение КГС и конденсаторопровода  ГП-41 от 2С-10кВ РУ-10кВ</text>
			</g>
		</g>
	</g>
</g>
<g id="lines">
	<g id="pipes">
		<g id="lep_1_">
			<line class="st8" x1="1026.5" y1="348.14" x2="1026.5" y2="441.89"/>
			<line class="st8" x1="1276.42" y1="505.5" x2="1276.42" y2="525.55"/>
			<line class="st8" x1="1276.42" y1="471.39" x2="1276.42" y2="490.5"/>
			<line class="st8" x1="1276.42" y1="251.5" x2="1276.42" y2="333.14"/>
			<polyline class="st8" points="1496.2,584.5 1496.2,251.5 776.5,251.5 			"/>
			<line class="st8" x1="1276.42" y1="348.14" x2="1276.42" y2="441.89"/>
			<line class="st8" x1="1276.42" y1="973.5" x2="1276.42" y2="994.5"/>
			<line class="st8" x1="1276.42" y1="939.39" x2="1276.42" y2="958.5"/>
			<polyline class="st8" points="1276.42,801.14 1276.42,584.5 1496.2,584.5 			"/>
			<line class="st8" x1="1276.42" y1="816.14" x2="1276.42" y2="909.89"/>
			<line class="st8" x1="1026.5" y1="973.5" x2="1026.5" y2="994.5"/>
			<line class="st8" x1="1026.5" y1="939.39" x2="1026.5" y2="958.5"/>
			<line class="st8" x1="1026.5" y1="816.14" x2="1026.5" y2="909.89"/>
			<line class="st8" x1="776.5" y1="973.5" x2="776.5" y2="994.5"/>
			<line class="st8" x1="776.5" y1="939.39" x2="776.5" y2="958.5"/>
			<polyline class="st8" points="776.5,801.14 776.5,584.5 1026.5,584.5 1026.5,801.14 			"/>
			<line class="st8" x1="776.5" y1="816.14" x2="776.5" y2="909.89"/>
			<line class="st8" x1="526.5" y1="973.5" x2="526.5" y2="994.5"/>
			<line class="st8" x1="238.23" y1="973.5" x2="238.23" y2="994.52"/>
			<line class="st8" x1="263.82" y1="978.57" x2="263.82" y2="994.52"/>
			<line class="st8" x1="263.82" y1="978.57" x2="282.41" y2="978.57"/>
			<line class="st8" x1="297.41" y1="978.57" x2="316.01" y2="978.57"/>
			<line class="st8" x1="316.01" y1="978.57" x2="316.01" y2="994.52"/>
			<line class="st8" x1="158.7" y1="978.57" x2="158.7" y2="994.52"/>
			<line class="st8" x1="158.7" y1="978.57" x2="177.29" y2="978.57"/>
			<line class="st8" x1="192.29" y1="978.57" x2="210.88" y2="978.57"/>
			<line class="st8" x1="210.88" y1="978.57" x2="210.88" y2="994.52"/>
			<line class="st8" x1="526.5" y1="939.39" x2="526.5" y2="958.5"/>
			<line class="st8" x1="526.5" y1="801.14" x2="526.5" y2="729.5"/>
			<line class="st8" x1="526.5" y1="816.14" x2="526.5" y2="909.89"/>
			<line class="st8" x1="238.28" y1="939.39" x2="238.28" y2="958.5"/>
			<line class="st8" x1="238.28" y1="801.14" x2="238.28" y2="729.5"/>
			<line class="st8" x1="238.28" y1="806.14" x2="238.28" y2="909.89"/>
			<line class="st8" x1="26.5" y1="110.5" x2="26.5" y2="132.5"/>
			<line class="st8" x1="26.5" y1="505.5" x2="26.5" y2="525.55"/>
			<line class="st8" x1="26.5" y1="471.39" x2="26.5" y2="490.5"/>
			<line class="st8" x1="26.5" y1="201.31" x2="26.5" y2="333.14"/>
			<line class="st8" x1="526.5" y1="251.5" x2="26.5" y2="251.5"/>
			<line class="st8" x1="776.5" y1="729.5" x2="238.22" y2="729.5"/>
			<line class="st8" x1="1276.42" y1="729.5" x2="1026.5" y2="729.5"/>
			<line class="st8" x1="26.5" y1="348.14" x2="26.5" y2="441.89"/>
			<line class="st8" x1="276.5" y1="505.5" x2="276.5" y2="525.55"/>
			<line class="st8" x1="276.5" y1="471.39" x2="276.5" y2="490.5"/>
			<line class="st8" x1="276.5" y1="251.5" x2="276.5" y2="333.14"/>
			<line class="st8" x1="276.5" y1="348.14" x2="276.5" y2="441.89"/>
			<line class="st8" x1="526.5" y1="505.5" x2="526.5" y2="525.55"/>
			<line class="st8" x1="526.5" y1="471.39" x2="526.5" y2="490.5"/>
			<line class="st8" x1="526.5" y1="348.14" x2="526.5" y2="441.89"/>
			<line class="st8" x1="776.5" y1="505.5" x2="776.5" y2="525.55"/>
			<line class="st8" x1="776.5" y1="471.39" x2="776.5" y2="490.5"/>
			<polyline class="st8" points="776.5,333.14 776.5,106 526.5,106 526.5,333.14 			"/>
			<line class="st8" x1="776.5" y1="348.14" x2="776.5" y2="441.89"/>
			<line class="st8" x1="1026.5" y1="505.5" x2="1026.5" y2="525.55"/>
			<line class="st8" x1="1026.5" y1="471.39" x2="1026.5" y2="490.5"/>
			<line class="st8" x1="1026.5" y1="251.5" x2="1026.5" y2="333.14"/>
		</g>
		<g id="kV10">
			<line class="st9" x1="11.54" y1="106.5" x2="40.54" y2="106.5"/>
		</g>
		<g id="kV04">
			<line class="st10" x1="12" y1="520.5" x2="41" y2="520.5"/>
			<line class="st10" x1="262" y1="520.5" x2="291" y2="520.5"/>
			<line class="st10" x1="512" y1="520.5" x2="541" y2="520.5"/>
			<line class="st10" x1="762" y1="520.5" x2="791" y2="520.5"/>
			<line class="st10" x1="1012" y1="520.5" x2="1041" y2="520.5"/>
			<line class="st10" x1="1261.92" y1="520.5" x2="1290.92" y2="520.5"/>
			<line class="st10" x1="1261.92" y1="998.5" x2="1290.92" y2="998.5"/>
			<line class="st10" x1="1012" y1="998.5" x2="1041" y2="998.5"/>
			<line class="st10" x1="762" y1="998.5" x2="791" y2="998.5"/>
			<line class="st10" x1="512" y1="998.5" x2="541" y2="998.5"/>
			<line class="st10" x1="199.48" y1="998.5" x2="276.5" y2="998.5"/>
			<line class="st10" x1="301.51" y1="998.5" x2="330.51" y2="998.5"/>
		</g>
	</g>
	<g id="points">
		<g id="kV10_1_">
			<circle class="st11" cx="26.5" cy="106.5" r="4"/>
		</g>
		<g id="kV04_1_">
			<circle class="st12" cx="26.5" cy="520.5" r="4"/>
			<circle class="st12" cx="276.5" cy="520.5" r="4"/>
			<circle class="st12" cx="526.5" cy="520.5" r="4"/>
			<circle class="st12" cx="776.5" cy="520.5" r="4"/>
			<circle class="st12" cx="1026.5" cy="520.5" r="4"/>
			<circle class="st12" cx="1276.42" cy="520.5" r="4"/>
			<circle class="st12" cx="1276.42" cy="998.5" r="4"/>
			<circle class="st12" cx="1026.5" cy="998.5" r="4"/>
			<circle class="st12" cx="776.5" cy="998.5" r="4"/>
			<circle class="st12" cx="526.5" cy="998.5" r="4"/>
			<circle class="st12" cx="238.22" cy="998.5" r="4"/>
			<circle class="st12" cx="316.01" cy="998.5" r="4"/>
			<circle class="st12" cx="210.88" cy="998.5" r="4"/>
			<circle class="st12" cx="263.82" cy="998.5" r="4"/>
		</g>
	</g>
	<g id="arc">
		<g id="lep">
			<g>
				<circle cx="1276.42" cy="729.5" r="2.5"/>
				<path class="st13" d="M1276.42,728c0.83,0,1.5,0.67,1.5,1.5s-0.67,1.5-1.5,1.5c-0.83,0-1.5-0.67-1.5-1.5
					S1275.59,728,1276.42,728 M1276.42,726c-1.93,0-3.5,1.57-3.5,3.5s1.57,3.5,3.5,3.5s3.5-1.57,3.5-3.5S1278.35,726,1276.42,726
					L1276.42,726z"/>
			</g>
			<g>
				<circle cx="1026.5" cy="729.5" r="2.5"/>
				<path class="st13" d="M1026.5,728c0.83,0,1.5,0.67,1.5,1.5s-0.67,1.5-1.5,1.5s-1.5-0.67-1.5-1.5S1025.67,728,1026.5,728
					 M1026.5,726c-1.93,0-3.5,1.57-3.5,3.5s1.57,3.5,3.5,3.5s3.5-1.57,3.5-3.5S1028.43,726,1026.5,726L1026.5,726z"/>
			</g>
			<g>
				<circle cx="776.5" cy="729.5" r="2.5"/>
				<path class="st13" d="M776.5,728c0.83,0,1.5,0.67,1.5,1.5s-0.67,1.5-1.5,1.5s-1.5-0.67-1.5-1.5S775.67,728,776.5,728 M776.5,726
					c-1.93,0-3.5,1.57-3.5,3.5s1.57,3.5,3.5,3.5s3.5-1.57,3.5-3.5S778.43,726,776.5,726L776.5,726z"/>
			</g>
			<g>
				<circle cx="526.5" cy="729.5" r="2.5"/>
				<path class="st13" d="M526.5,728c0.83,0,1.5,0.67,1.5,1.5s-0.67,1.5-1.5,1.5s-1.5-0.67-1.5-1.5S525.67,728,526.5,728 M526.5,726
					c-1.93,0-3.5,1.57-3.5,3.5s1.57,3.5,3.5,3.5s3.5-1.57,3.5-3.5S528.43,726,526.5,726L526.5,726z"/>
			</g>
			<g>
				<circle cx="26.5" cy="251.5" r="2.5"/>
				<path class="st13" d="M26.5,250c0.83,0,1.5,0.67,1.5,1.5s-0.67,1.5-1.5,1.5s-1.5-0.67-1.5-1.5S25.67,250,26.5,250 M26.5,248
					c-1.93,0-3.5,1.57-3.5,3.5s1.57,3.5,3.5,3.5s3.5-1.57,3.5-3.5S28.43,248,26.5,248L26.5,248z"/>
			</g>
			<g>
				<circle cx="276.5" cy="251.5" r="2.5"/>
				<path class="st13" d="M276.5,250c0.83,0,1.5,0.67,1.5,1.5s-0.67,1.5-1.5,1.5s-1.5-0.67-1.5-1.5S275.67,250,276.5,250 M276.5,248
					c-1.93,0-3.5,1.57-3.5,3.5s1.57,3.5,3.5,3.5s3.5-1.57,3.5-3.5S278.43,248,276.5,248L276.5,248z"/>
			</g>
			<g>
				<circle cx="526.5" cy="251.5" r="2.5"/>
				<path class="st13" d="M526.5,250c0.83,0,1.5,0.67,1.5,1.5s-0.67,1.5-1.5,1.5s-1.5-0.67-1.5-1.5S525.67,250,526.5,250 M526.5,248
					c-1.93,0-3.5,1.57-3.5,3.5s1.57,3.5,3.5,3.5s3.5-1.57,3.5-3.5S528.43,248,526.5,248L526.5,248z"/>
			</g>
			<g>
				<circle cx="776.5" cy="251.5" r="2.5"/>
				<path class="st13" d="M776.5,250c0.83,0,1.5,0.67,1.5,1.5s-0.67,1.5-1.5,1.5s-1.5-0.67-1.5-1.5S775.67,250,776.5,250 M776.5,248
					c-1.93,0-3.5,1.57-3.5,3.5s1.57,3.5,3.5,3.5s3.5-1.57,3.5-3.5S778.43,248,776.5,248L776.5,248z"/>
			</g>
			<g>
				<circle cx="1026.5" cy="251.5" r="2.5"/>
				<path class="st13" d="M1026.5,250c0.83,0,1.5,0.67,1.5,1.5s-0.67,1.5-1.5,1.5s-1.5-0.67-1.5-1.5S1025.67,250,1026.5,250
					 M1026.5,248c-1.93,0-3.5,1.57-3.5,3.5s1.57,3.5,3.5,3.5s3.5-1.57,3.5-3.5S1028.43,248,1026.5,248L1026.5,248z"/>
			</g>
			<g>
				<circle cx="1276.36" cy="251.5" r="2.5"/>
				<path class="st13" d="M1276.36,250c0.83,0,1.5,0.67,1.5,1.5s-0.67,1.5-1.5,1.5c-0.83,0-1.5-0.67-1.5-1.5
					S1275.53,250,1276.36,250 M1276.36,248c-1.93,0-3.5,1.57-3.5,3.5s1.57,3.5,3.5,3.5s3.5-1.57,3.5-3.5S1278.29,248,1276.36,248
					L1276.36,248z"/>
			</g>
		</g>
	</g>
</g>
<g id="elems">
	<g id="resists">
		<g>
			<path class="st1" d="M31,373v18h-9v-18H31 M32,372h-1h-9h-1v1v18v1h1h9h1v-1v-18V372L32,372z"/>
		</g>
		<g>
			<path class="st1" d="M281,373v18h-9v-18H281 M282,372h-1h-9h-1v1v18v1h1h9h1v-1v-18V372L282,372z"/>
		</g>
		<g>
			<path class="st1" d="M531,373v18h-9v-18H531 M532,372h-1h-9h-1v1v18v1h1h9h1v-1v-18V372L532,372z"/>
		</g>
		<g>
			<path class="st1" d="M781,373v18h-9v-18H781 M782,372h-1h-9h-1v1v18v1h1h9h1v-1v-18V372L782,372z"/>
		</g>
		<g>
			<path class="st1" d="M1031,373v18h-9v-18H1031 M1032,372h-1h-9h-1v1v18v1h1h9h1v-1v-18V372L1032,372z"/>
		</g>
		<g>
			<path class="st1" d="M1280.92,373v18h-9v-18H1280.92 M1281.92,372h-1h-9h-1v1v18v1h1h9h1v-1v-18V372L1281.92,372z"/>
		</g>
		<g>
			<path class="st1" d="M1280.92,841v18h-9v-18H1280.92 M1281.92,840h-1h-9h-1v1v18v1h1h9h1v-1v-18V840L1281.92,840z"/>
		</g>
		<g>
			<path class="st1" d="M1031,841v18h-9v-18H1031 M1032,840h-1h-9h-1v1v18v1h1h9h1v-1v-18V840L1032,840z"/>
		</g>
		<g>
			<path class="st1" d="M781,841v18h-9v-18H781 M782,840h-1h-9h-1v1v18v1h1h9h1v-1v-18V840L782,840z"/>
		</g>
		<g>
			<path class="st1" d="M531,841v18h-9v-18H531 M532,840h-1h-9h-1v1v18v1h1h9h1v-1v-18V840L532,840z"/>
		</g>
		<g>
			<path class="st1" d="M242.78,841v18h-9v-18H242.78 M243.78,840h-1h-9h-1v1v18v1h1h9h1v-1v-18V840L243.78,840z"/>
		</g>
	</g>
	<g id="tt">
		<g>
			<path class="st1" d="M238.26,919.89c5.38,0,9.75,4.37,9.75,9.75s-4.37,9.75-9.75,9.75c-5.38,0-9.75-4.37-9.75-9.75
				S232.88,919.89,238.26,919.89 M238.26,918.89c-5.93,0-10.75,4.82-10.75,10.75s4.82,10.75,10.75,10.75
				c5.93,0,10.75-4.82,10.75-10.75S244.19,918.89,238.26,918.89L238.26,918.89z"/>
		</g>
		<g>
			<path class="st1" d="M238.25,909.89c0.38,0,0.76,0.02,1.14,0.07c5.35,0.63,9.18,5.47,8.55,10.82c-0.58,4.96-4.79,8.62-9.67,8.62
				c-0.38,0-0.76-0.02-1.14-0.07c-5.35-0.63-9.18-5.47-8.55-10.82C229.16,913.54,233.37,909.89,238.25,909.89 M238.25,908.89
				c-5.45,0-10.03,4.08-10.66,9.5c-0.69,5.89,3.54,11.24,9.43,11.92c0.42,0.05,0.84,0.07,1.26,0.07c5.45,0,10.03-4.08,10.66-9.5
				c0.69-5.89-3.54-11.24-9.43-11.92C239.09,908.91,238.67,908.89,238.25,908.89L238.25,908.89z"/>
		</g>
		<g>
			<path class="st1" d="M526.48,919.89c5.38,0,9.75,4.37,9.75,9.75s-4.37,9.75-9.75,9.75c-5.38,0-9.75-4.37-9.75-9.75
				S521.1,919.89,526.48,919.89 M526.48,918.89c-5.93,0-10.75,4.82-10.75,10.75s4.82,10.75,10.75,10.75
				c5.93,0,10.75-4.82,10.75-10.75S532.41,918.89,526.48,918.89L526.48,918.89z"/>
		</g>
		<g>
			<path class="st1" d="M526.47,909.89c0.38,0,0.76,0.02,1.14,0.07c5.35,0.63,9.18,5.47,8.55,10.82c-0.58,4.96-4.79,8.62-9.67,8.62
				c-0.38,0-0.76-0.02-1.14-0.07c-5.35-0.63-9.18-5.47-8.55-10.82C517.38,913.54,521.59,909.89,526.47,909.89 M526.47,908.89
				c-5.45,0-10.03,4.08-10.66,9.5c-0.69,5.89,3.54,11.24,9.43,11.92c0.42,0.05,0.84,0.07,1.26,0.07c5.45,0,10.03-4.08,10.66-9.5
				c0.69-5.89-3.54-11.24-9.43-11.92C527.31,908.91,526.89,908.89,526.47,908.89L526.47,908.89z"/>
		</g>
		<g>
			<path class="st1" d="M776.48,919.89c5.38,0,9.75,4.37,9.75,9.75s-4.37,9.75-9.75,9.75c-5.38,0-9.75-4.37-9.75-9.75
				S771.1,919.89,776.48,919.89 M776.48,918.89c-5.93,0-10.75,4.82-10.75,10.75s4.82,10.75,10.75,10.75
				c5.93,0,10.75-4.82,10.75-10.75S782.41,918.89,776.48,918.89L776.48,918.89z"/>
		</g>
		<g>
			<path class="st1" d="M776.47,909.89c0.38,0,0.76,0.02,1.14,0.07c5.35,0.63,9.18,5.47,8.55,10.82c-0.58,4.96-4.79,8.62-9.67,8.62
				c-0.38,0-0.76-0.02-1.14-0.07c-5.35-0.63-9.18-5.47-8.55-10.82C767.38,913.54,771.59,909.89,776.47,909.89 M776.47,908.89
				c-5.45,0-10.03,4.08-10.66,9.5c-0.69,5.89,3.54,11.24,9.43,11.92c0.42,0.05,0.84,0.07,1.26,0.07c5.45,0,10.03-4.08,10.66-9.5
				c0.33-2.85-0.46-5.66-2.24-7.91c-1.78-2.25-4.33-3.68-7.18-4.01C777.31,908.91,776.89,908.89,776.47,908.89L776.47,908.89z"/>
		</g>
		<g>
			<path class="st1" d="M1026.48,919.89c5.38,0,9.75,4.37,9.75,9.75s-4.37,9.75-9.75,9.75s-9.75-4.37-9.75-9.75
				S1021.1,919.89,1026.48,919.89 M1026.48,918.89c-5.93,0-10.75,4.82-10.75,10.75s4.82,10.75,10.75,10.75
				c5.93,0,10.75-4.82,10.75-10.75S1032.41,918.89,1026.48,918.89L1026.48,918.89z"/>
		</g>
		<g>
			<path class="st1" d="M1026.47,909.89c0.38,0,0.76,0.02,1.14,0.07c5.35,0.63,9.18,5.47,8.55,10.82c-0.58,4.96-4.79,8.62-9.67,8.62
				c-0.38,0-0.76-0.02-1.14-0.07c-5.35-0.63-9.18-5.47-8.55-10.82C1017.38,913.54,1021.59,909.89,1026.47,909.89 M1026.47,908.89
				c-5.45,0-10.03,4.08-10.66,9.5c-0.69,5.89,3.54,11.24,9.43,11.92c0.42,0.05,0.84,0.07,1.26,0.07c5.45,0,10.03-4.08,10.66-9.5
				c0.33-2.85-0.46-5.66-2.24-7.91c-1.78-2.25-4.33-3.68-7.18-4.01C1027.31,908.91,1026.89,908.89,1026.47,908.89L1026.47,908.89z"
				/>
		</g>
		<g>
			<path class="st1" d="M1276.4,919.89c5.38,0,9.75,4.37,9.75,9.75s-4.37,9.75-9.75,9.75s-9.75-4.37-9.75-9.75
				S1271.01,919.89,1276.4,919.89 M1276.4,918.89c-5.93,0-10.75,4.82-10.75,10.75s4.82,10.75,10.75,10.75s10.75-4.82,10.75-10.75
				S1282.33,918.89,1276.4,918.89L1276.4,918.89z"/>
		</g>
		<g>
			<path class="st1" d="M1276.39,909.89c0.38,0,0.76,0.02,1.14,0.07c5.35,0.63,9.18,5.47,8.55,10.82c-0.58,4.96-4.79,8.62-9.67,8.62
				c-0.38,0-0.76-0.02-1.14-0.07c-5.35-0.63-9.18-5.47-8.55-10.82C1267.3,913.54,1271.51,909.89,1276.39,909.89 M1276.39,908.89
				c-5.45,0-10.03,4.08-10.66,9.5c-0.69,5.89,3.54,11.24,9.43,11.92c0.42,0.05,0.84,0.07,1.26,0.07c5.45,0,10.03-4.08,10.66-9.5
				c0.33-2.85-0.46-5.66-2.24-7.91c-1.78-2.25-4.33-3.68-7.18-4.01C1277.23,908.91,1276.8,908.89,1276.39,908.89L1276.39,908.89z"/>
		</g>
		<g>
			<path class="st1" d="M1276.4,451.89c5.38,0,9.75,4.37,9.75,9.75c0,5.38-4.37,9.75-9.75,9.75s-9.75-4.37-9.75-9.75
				C1266.65,456.25,1271.01,451.89,1276.4,451.89 M1276.4,450.89c-5.93,0-10.75,4.82-10.75,10.75s4.82,10.75,10.75,10.75
				s10.75-4.82,10.75-10.75S1282.33,450.89,1276.4,450.89L1276.4,450.89z"/>
		</g>
		<g>
			<path class="st1" d="M1276.39,441.89c0.38,0,0.76,0.02,1.14,0.07c5.35,0.63,9.18,5.47,8.55,10.82c-0.58,4.96-4.79,8.62-9.67,8.62
				c-0.38,0-0.76-0.02-1.14-0.07c-5.35-0.63-9.18-5.47-8.55-10.82C1267.3,445.54,1271.51,441.89,1276.39,441.89 M1276.39,440.89
				c-5.45,0-10.03,4.08-10.66,9.5c-0.33,2.85,0.46,5.66,2.24,7.92c1.78,2.25,4.33,3.68,7.18,4.01c0.42,0.05,0.84,0.07,1.26,0.07
				c5.45,0,10.03-4.08,10.66-9.5c0.69-5.89-3.54-11.24-9.43-11.92C1277.23,440.91,1276.81,440.89,1276.39,440.89L1276.39,440.89z"/>
		</g>
		<g>
			<path class="st1" d="M1026.48,451.89c5.38,0,9.75,4.37,9.75,9.75c0,5.38-4.37,9.75-9.75,9.75s-9.75-4.37-9.75-9.75
				C1016.73,456.25,1021.1,451.89,1026.48,451.89 M1026.48,450.89c-5.93,0-10.75,4.82-10.75,10.75s4.82,10.75,10.75,10.75
				c5.93,0,10.75-4.82,10.75-10.75S1032.41,450.89,1026.48,450.89L1026.48,450.89z"/>
		</g>
		<g>
			<path class="st1" d="M1026.47,441.89c0.38,0,0.76,0.02,1.14,0.07c5.35,0.63,9.18,5.47,8.55,10.82c-0.58,4.96-4.79,8.62-9.67,8.62
				c-0.38,0-0.76-0.02-1.14-0.07c-5.35-0.63-9.18-5.47-8.55-10.82C1017.38,445.54,1021.59,441.89,1026.47,441.89 M1026.47,440.89
				c-5.45,0-10.03,4.08-10.66,9.5c-0.33,2.85,0.46,5.66,2.24,7.92c1.78,2.25,4.33,3.68,7.18,4.01c0.42,0.05,0.84,0.07,1.26,0.07
				c5.45,0,10.03-4.08,10.66-9.5c0.69-5.89-3.54-11.24-9.43-11.92C1027.31,440.91,1026.89,440.89,1026.47,440.89L1026.47,440.89z"/>
		</g>
		<g>
			<path class="st1" d="M776.48,451.89c5.38,0,9.75,4.37,9.75,9.75c0,5.38-4.37,9.75-9.75,9.75c-5.38,0-9.75-4.37-9.75-9.75
				C766.73,456.25,771.1,451.89,776.48,451.89 M776.48,450.89c-5.93,0-10.75,4.82-10.75,10.75s4.82,10.75,10.75,10.75
				c5.93,0,10.75-4.82,10.75-10.75S782.41,450.89,776.48,450.89L776.48,450.89z"/>
		</g>
		<g>
			<path class="st1" d="M776.47,441.89c0.38,0,0.76,0.02,1.14,0.07c5.35,0.63,9.18,5.47,8.55,10.82c-0.58,4.96-4.79,8.62-9.67,8.62
				c-0.38,0-0.76-0.02-1.14-0.07c-5.35-0.63-9.18-5.47-8.55-10.82C767.38,445.54,771.59,441.89,776.47,441.89 M776.47,440.89
				c-5.45,0-10.03,4.08-10.66,9.5c-0.69,5.89,3.54,11.24,9.43,11.92c0.42,0.05,0.84,0.07,1.26,0.07c5.45,0,10.03-4.08,10.66-9.5
				c0.69-5.89-3.54-11.24-9.43-11.92C777.31,440.91,776.89,440.89,776.47,440.89L776.47,440.89z"/>
		</g>
		<g>
			<path class="st1" d="M526.48,451.89c5.38,0,9.75,4.37,9.75,9.75c0,5.38-4.37,9.75-9.75,9.75c-5.38,0-9.75-4.37-9.75-9.75
				C516.73,456.25,521.1,451.89,526.48,451.89 M526.48,450.89c-5.93,0-10.75,4.82-10.75,10.75s4.82,10.75,10.75,10.75
				c5.93,0,10.75-4.82,10.75-10.75S532.41,450.89,526.48,450.89L526.48,450.89z"/>
		</g>
		<g>
			<path class="st1" d="M526.47,441.89c0.38,0,0.76,0.02,1.14,0.07c5.35,0.63,9.18,5.47,8.55,10.82c-0.58,4.96-4.79,8.62-9.67,8.62
				c-0.38,0-0.76-0.02-1.14-0.07c-5.35-0.63-9.18-5.47-8.55-10.82C517.38,445.54,521.59,441.89,526.47,441.89 M526.47,440.89
				c-5.45,0-10.03,4.08-10.66,9.5c-0.33,2.85,0.46,5.66,2.24,7.92s4.33,3.68,7.18,4.01c0.42,0.05,0.84,0.07,1.26,0.07
				c5.45,0,10.03-4.08,10.66-9.5c0.69-5.89-3.54-11.24-9.43-11.92C527.31,440.91,526.89,440.89,526.47,440.89L526.47,440.89z"/>
		</g>
		<g>
			<path class="st1" d="M276.48,451.89c5.38,0,9.75,4.37,9.75,9.75c0,5.38-4.37,9.75-9.75,9.75c-5.38,0-9.75-4.37-9.75-9.75
				C266.73,456.25,271.1,451.89,276.48,451.89 M276.48,450.89c-5.93,0-10.75,4.82-10.75,10.75s4.82,10.75,10.75,10.75
				c5.93,0,10.75-4.82,10.75-10.75S282.41,450.89,276.48,450.89L276.48,450.89z"/>
		</g>
		<g>
			<path class="st1" d="M276.47,441.89c0.38,0,0.76,0.02,1.14,0.07c5.35,0.63,9.18,5.47,8.55,10.82c-0.58,4.96-4.79,8.62-9.67,8.62
				c-0.38,0-0.76-0.02-1.14-0.07c-5.35-0.63-9.18-5.47-8.55-10.82C267.38,445.54,271.59,441.89,276.47,441.89 M276.47,440.89
				c-5.45,0-10.03,4.08-10.66,9.5c-0.33,2.85,0.46,5.66,2.24,7.92s4.33,3.68,7.18,4.01c0.42,0.05,0.84,0.07,1.26,0.07
				c5.45,0,10.03-4.08,10.66-9.5c0.69-5.89-3.54-11.24-9.43-11.92C277.31,440.91,276.89,440.89,276.47,440.89L276.47,440.89z"/>
		</g>
		<g>
			<path class="st1" d="M26.48,451.89c5.38,0,9.75,4.37,9.75,9.75c0,5.38-4.37,9.75-9.75,9.75c-5.38,0-9.75-4.37-9.75-9.75
				C16.73,456.25,21.1,451.89,26.48,451.89 M26.48,450.89c-5.93,0-10.75,4.82-10.75,10.75s4.82,10.75,10.75,10.75
				s10.75-4.82,10.75-10.75S32.41,450.89,26.48,450.89L26.48,450.89z"/>
		</g>
		<g>
			<path class="st1" d="M26.47,441.89c0.38,0,0.76,0.02,1.14,0.07c5.35,0.63,9.18,5.47,8.55,10.82c-0.58,4.96-4.79,8.62-9.67,8.62
				c-0.38,0-0.76-0.02-1.14-0.07c-5.35-0.63-9.18-5.47-8.55-10.82C17.38,445.54,21.59,441.89,26.47,441.89 M26.47,440.89
				c-5.45,0-10.03,4.08-10.66,9.5c-0.69,5.89,3.54,11.24,9.43,11.92c0.42,0.05,0.84,0.07,1.26,0.07c5.45,0,10.03-4.08,10.66-9.5
				c0.69-5.89-3.54-11.24-9.43-11.92C27.31,440.91,26.89,440.89,26.47,440.89L26.47,440.89z"/>
		</g>
	</g>
	<g id="ads">
		<g>
			<g>
				<path class="st1" d="M158.7,994.59c5.38,0,9.75,4.37,9.75,9.75c0,5.38-4.37,9.75-9.75,9.75c-5.38,0-9.75-4.37-9.75-9.75
					C148.95,998.96,153.31,994.59,158.7,994.59 M158.7,993.59c-5.93,0-10.75,4.82-10.75,10.75c0,5.93,4.82,10.75,10.75,10.75
					c5.93,0,10.75-4.82,10.75-10.75C169.45,998.41,164.62,993.59,158.7,993.59L158.7,993.59z"/>
			</g>
			<path class="st14" d="M165.49,1004.34c0,1.88-1.52,3.4-3.4,3.4c-1.88,0-3.4-1.52-3.4-3.4c0-1.88-1.52-3.4-3.4-3.4
				c-1.88,0-3.4,1.52-3.4,3.4"/>
		</g>
	</g>
</g>
<g id="helpers">
</g>
</svg>
