<?xml version="1.0" encoding="utf-8"?>
<!-- Generator: Adobe Illustrator 25.4.1, SVG Export Plug-In . SVG Version: 6.00 Build 0)  -->
<svg version="1.1" xmlns="http://www.w3.org/2000/svg" xmlns:xlink="http://www.w3.org/1999/xlink" x="0px" y="0px"
	 viewBox="0 0 2630.9 602.5" style="enable-background:new 0 0 2630.9 602.5;" xml:space="preserve">
<style type="text/css">
	.st0{fill:none;stroke:#F3C811;stroke-width:3;stroke-miterlimit:10;}
	.st1{fill:none;stroke:#757474;stroke-width:3;stroke-miterlimit:10;}
	.st2{fill:#FFFFFF;stroke:#F3C811;stroke-width:3;stroke-miterlimit:10;}
	.st3{fill:#FFFFFF;stroke:#757474;stroke-width:3;stroke-miterlimit:10;}
	.st4{fill:#F2F2F2;stroke:#757474;stroke-miterlimit:10;}
	.st5{fill:none;stroke:#6C6E7A;stroke-width:0.75;stroke-miterlimit:10;stroke-dasharray:12;}
	.st6{font-family:'UbuntuCondensed-Regular';}
	.st7{font-size:17px;}
	.st8{letter-spacing:-1;}
	.st9{fill:#FFFFFF;}
	.st10{font-size:20px;}
	.st11{fill:#575A63;}
	.st12{font-size:23px;}
</style>
<g id="lines">
	<g id="pipes">
		<g id="gas">
			<polyline id="p27" class="st0" points="944,533 1058,533 1058,351 			"/>
			<line id="p2" class="st0" x1="511" y1="533" x2="511" y2="267"/>
			<line id="p2-p3-p4-or" class="st0" x1="706" y1="260" x2="1518" y2="260"/>
			<line id="p25" class="st0" x1="1517" y1="260" x2="1765" y2="260"/>
			<line id="p3-p4-or" class="st0" x1="705" y1="352" x2="705" y2="260"/>
			<line id="p3" class="st0" x1="705" y1="539" x2="705" y2="358"/>
			<line id="p4_00000069387363575035370100000000561007159333162942_" class="st0" x1="705" y1="355" x2="948" y2="355"/>
			<line id="p4" class="st0" x1="946.5" y1="354" x2="946.5" y2="532"/>
			<line id="p18" class="st0" x1="1750" y1="260" x2="1750" y2="118"/>
			<line id="p9" class="st0" x1="1517" y1="259" x2="1517" y2="203"/>
			<line id="p11" class="st0" x1="1517" y1="203" x2="1517" y2="112"/>
			<polyline id="p10" class="st0" points="1229,115 1229,205 1516,205 			"/>
			<line id="p17" class="st0" x1="2442" y1="531" x2="2442" y2="442"/>
			<line id="p16-p17-or" class="st0" x1="2442" y1="440" x2="2442" y2="351"/>
			<polyline id="p16" class="st0" points="2245,533 2245,443 2443,443 			"/>
			<line id="p15" class="st0" x1="2442" y1="256" x2="2442" y2="163"/>
			<line id="p14-p15-or" class="st0" x1="2442" y1="162" x2="2442" y2="68"/>
			<polyline id="p14" class="st0" points="2441,163 2245,163 2245,255 			"/>
			<line id="p13" class="st0" x1="2248" y1="256" x2="2181" y2="256"/>
			<line id="p20" class="st0" x1="2442" y1="256" x2="2244" y2="256"/>
			<line id="p21" class="st0" x1="2598" y1="256" x2="2445" y2="256"/>
			<polyline id="p5" class="st0" points="1230,351 1230,533 1548,533 			"/>
			<line id="p2_00000178901624015897821080000008157589316534884532_" class="st0" x1="708" y1="260" x2="530" y2="260"/>
			<line id="p26" class="st0" x1="943" y1="533" x2="707" y2="533"/>
			<line id="p1_00000020395960355074711870000016335983300906968236_" class="st0" x1="712" y1="533" x2="514" y2="533"/>
			<line id="p1" class="st0" x1="511" y1="533" x2="313" y2="533"/>
			<polyline id="p12" class="st0" points="1107,68 1107,115 1226,115 			"/>
			<line id="p18_00000034771089442295585050000003412780566702792618_" class="st0" x1="1233" y1="115" x2="1520" y2="115"/>
			<polyline id="p19" class="st0" points="1524,115 2181,115 2181,254 			"/>
			<polyline id="p22" class="st0" points="2181,261 2181,534 2245,534 			"/>
			<line id="p23" class="st0" x1="2248" y1="534" x2="2440" y2="534"/>
			<line id="p24" class="st0" x1="2442" y1="534" x2="2604" y2="534"/>
		</g>
		<g id="drainage">
			<line id="p7" class="st1" x1="1625" y1="463" x2="1625" y2="260"/>
			<polyline id="p8" class="st1" points="1625,463 1750,463 1750,270 			"/>
			<line id="p6" class="st1" x1="1800" y1="533" x2="1693" y2="533"/>
			<line id="p7-p8-or" class="st1" x1="1625" y1="463" x2="1625" y2="507"/>
		</g>
	</g>
	<g id="points">
		<g id="gas_00000097492956027070429620000001478530719062494142_">
			<circle id="p2-p3-p4-or_00000018954595093049351630000000046143141385542795_" class="st2" cx="705" cy="260" r="4.5"/>
			<circle id="p1-p2-or" class="st2" cx="511" cy="533" r="4.5"/>
			<circle id="p1-p3-p26-or" class="st2" cx="705" cy="533" r="4.5"/>
			<circle id="p3-p4-or_00000016051029335202894480000003660523652339168412_" class="st2" cx="705" cy="355" r="4.5"/>
			<circle id="p4-p26-p27-or" class="st2" cx="946.5" cy="533" r="4.5"/>
			<circle id="p10-p12-or" class="st2" cx="1229" cy="115" r="4.5"/>
			<circle id="p18-p19-or" class="st2" cx="1517" cy="115" r="4.5"/>
			<circle id="p12-p18-or" class="st2" cx="1750" cy="115" r="4.5"/>
			
				<ellipse id="p16-p17-or_00000096747688145541206850000009319153826483004089_" class="st2" cx="2442" cy="444" rx="4.4" ry="4.5"/>
			
				<ellipse id="p17-p23-or_00000116950838921946678610000002883241045180223145_" class="st2" cx="2442" cy="534" rx="4.4" ry="4.5"/>
			
				<ellipse id="p16-p22-p23-or_00000010999264145864113080000006586333432724449186_" class="st2" cx="2245" cy="534" rx="4.4" ry="4.5"/>
			
				<ellipse id="p13-p14-p20-or_00000151531936795529480150000008237107415614552456_" class="st2" cx="2245" cy="256" rx="4.4" ry="4.5"/>
			
				<ellipse id="p15-p20-p21-or_00000129892115455425888280000010092618874931019395_" class="st2" cx="2442" cy="256" rx="4.4" ry="4.5"/>
			
				<ellipse id="p14-p15-or_00000068651717943673261400000000623029350476666792_" class="st2" cx="2442" cy="163" rx="4.4" ry="4.5"/>
			
				<ellipse id="p12-p13-or_00000173857684367594582010000002401921807711275961_" class="st2" cx="2181" cy="256" rx="4.4" ry="4.5"/>
			<circle id="p9_00000003104323013742210980000008289226037893943182_" class="st2" cx="1517" cy="205" r="4.5"/>
			<circle id="p2_00000065776222841571809800000016199147796537894066_" class="st2" cx="1517" cy="260" r="4.5"/>
		</g>
		<g id="drainage_00000080885079128250574870000007168091526181568681_">
			<circle id="p7-p25-or" class="st3" cx="1625" cy="260" r="4.5"/>
			<circle id="p7-p8-or_00000174559909659192124580000009949330503052980874_" class="st3" cx="1625" cy="463" r="4.5"/>
		</g>
	</g>
	<g id="arc">
	</g>
	<g id="arrows">
		<g id="gas_00000073681733763140598290000017279551349230333607_">
			<polyline id="p2-p3-p4-or_00000131351085225972859150000004422190575166985632_" class="st0" points="896,267 904,260 896,253 
							"/>
			<polyline id="p2-p3-p4-or_00000039118917986302775690000005024906893238234758_" class="st0" points="1307,267 1315,260 
				1307,253 			"/>
			<polyline id="p1_00000012456752002199829460000015070579726517407654_" class="st0" points="619.5,540 627.5,533 619.5,526 			
				"/>
		</g>
	</g>
</g>
<g id="SimpleElements">
	<g id="valve-n-elem">
		
			<image style="overflow:visible;" width="98" height="71" id="id1" xlink:href="../../../../../Users/evgen/OneDrive/Рабочий стол/workspace/_work/arh/Elements/valve-n-elem/pub/valve-n_v_caption.png"  transform="matrix(1 0 0 1 466 361.5)">
		</image>
		
			<image style="overflow:visible;" width="98" height="71" id="id2" xlink:href="../../../../../Users/evgen/OneDrive/Рабочий стол/workspace/_work/arh/Elements/valve-n-elem/pub/valve-n_v_caption.png"  transform="matrix(1 0 0 1 661 361.5)">
		</image>
		
			<image style="overflow:visible;" width="98" height="71" id="id3" xlink:href="../../../../../Users/evgen/OneDrive/Рабочий стол/workspace/_work/arh/Elements/valve-n-elem/pub/valve-n_v_caption.png"  transform="matrix(1 0 0 1 1185 361.5)">
		</image>
		
			<image style="overflow:visible;" width="98" height="71" id="id4" xlink:href="../../../../../Users/evgen/OneDrive/Рабочий стол/workspace/_work/arh/Elements/valve-n-elem/pub/valve-n_v_caption.png"  transform="matrix(1 0 0 1 1580.5 361.5)">
		</image>
		
			<image style="overflow:visible;" width="98" height="71" id="id5" xlink:href="../../../../../Users/evgen/OneDrive/Рабочий стол/workspace/_work/arh/Elements/valve-n-elem/pub/valve-n_v_caption.png"  transform="matrix(1 0 0 1 1704.5 361.5)">
		</image>
		
			<image style="overflow:visible;" width="98" height="71" id="id6" xlink:href="../../../../../Users/evgen/OneDrive/Рабочий стол/workspace/_work/arh/Elements/valve-n-elem/pub/valve-n_v_caption.png"  transform="matrix(1 0 0 1 2397 361.5)">
		</image>
		
			<image style="overflow:visible;" width="71" height="89" id="id7" xlink:href="../../../../../Users/evgen/OneDrive/Рабочий стол/workspace/_work/arh/Elements/valve-n-elem/pub/valve-n_h_caption.png"  transform="matrix(1 0 0 1 860.5 309)">
		</image>
		
			<image style="overflow:visible;" width="71" height="89" id="id8" xlink:href="../../../../../Users/evgen/OneDrive/Рабочий стол/workspace/_work/arh/Elements/valve-n-elem/pub/valve-n_h_caption.png"  transform="matrix(1 0 0 1 860.5 486.5)">
		</image>
		
			<image style="overflow:visible;" width="71" height="89" id="id9" xlink:href="../../../../../Users/evgen/OneDrive/Рабочий стол/workspace/_work/arh/Elements/valve-n-elem/pub/valve-n_h_caption.png"  transform="matrix(1 0 0 1 570 214.5)">
		</image>
		
			<image style="overflow:visible;" width="71" height="89" id="id10" xlink:href="../../../../../Users/evgen/OneDrive/Рабочий стол/workspace/_work/arh/Elements/valve-n-elem/pub/valve-n_h_caption.png"  transform="matrix(1 0 0 1 1132.5 68.5)">
		</image>
		
			<image style="overflow:visible;" width="71" height="89" id="id11" xlink:href="../../../../../Users/evgen/OneDrive/Рабочий стол/workspace/_work/arh/Elements/valve-n-elem/pub/valve-n_h_caption.png"  transform="matrix(1 0 0 1 1370.5 68.5)">
		</image>
		
			<image style="overflow:visible;" width="71" height="89" id="id12" xlink:href="../../../../../Users/evgen/OneDrive/Рабочий стол/workspace/_work/arh/Elements/valve-n-elem/pub/valve-n_h_caption.png"  transform="matrix(1 0 0 1 1370.5 158.5)">
		</image>
		
			<image style="overflow:visible;" width="98" height="71" id="id13" xlink:href="../../../../../Users/evgen/OneDrive/Рабочий стол/workspace/_work/arh/Elements/valve-n-elem/pub/valve-n_v_caption.png"  transform="matrix(1 0 0 1 1472 124)">
		</image>
		
			<image style="overflow:visible;" width="98" height="71" id="id14" xlink:href="../../../../../Users/evgen/OneDrive/Рабочий стол/workspace/_work/arh/Elements/valve-n-elem/pub/valve-n_v_caption.png"  transform="matrix(1 0 0 1 1706 124)">
		</image>
		
			<image style="overflow:visible;" width="98" height="71" id="id15" xlink:href="../../../../../Users/evgen/OneDrive/Рабочий стол/workspace/_work/arh/Elements/valve-n-elem/pub/valve-n_v_caption.png"  transform="matrix(1 0 0 1 2200 171.5)">
		</image>
		
			<image style="overflow:visible;" width="98" height="71" id="id16" xlink:href="../../../../../Users/evgen/OneDrive/Рабочий стол/workspace/_work/arh/Elements/valve-n-elem/pub/valve-n_v_caption.png"  transform="matrix(1 0 0 1 2397.5 171.5)">
		</image>
		
			<image style="overflow:visible;" width="98" height="71" id="id17" xlink:href="../../../../../Users/evgen/OneDrive/Рабочий стол/workspace/_work/arh/Elements/valve-n-elem/pub/valve-n_v_caption.png"  transform="matrix(1 0 0 1 2200 450)">
		</image>
		
			<image style="overflow:visible;" width="98" height="71" id="id18" xlink:href="../../../../../Users/evgen/OneDrive/Рабочий стол/workspace/_work/arh/Elements/valve-n-elem/pub/valve-n_v_caption.png"  transform="matrix(1 0 0 1 2397.5 450)">
		</image>
		
			<image style="overflow:visible;" width="98" height="71" id="id20" xlink:href="../../../../../Users/evgen/OneDrive/Рабочий стол/workspace/_work/arh/Elements/valve-n-elem/pub/valve-n_v_caption.png"  transform="matrix(1 0 0 1 2399 74.5)">
		</image>
		
			<image style="overflow:visible;" width="71" height="89" id="id21" xlink:href="../../../../../Users/evgen/OneDrive/Рабочий стол/workspace/_work/arh/Elements/valve-n-elem/pub/valve-n_h_caption.png"  transform="matrix(1 0 0 1 1532.5 212.5)">
		</image>
		
			<image style="overflow:visible;" width="71" height="89" id="id22" xlink:href="../../../../../Users/evgen/OneDrive/Рабочий стол/workspace/_work/arh/Elements/valve-n-elem/pub/valve-n_h_caption.png"  transform="matrix(1 0 0 1 2323.5 208.5)">
		</image>
		
			<image style="overflow:visible;" width="71" height="89" id="id23" xlink:href="../../../../../Users/evgen/OneDrive/Рабочий стол/workspace/_work/arh/Elements/valve-n-elem/pub/valve-n_h_caption.png"  transform="matrix(1 0 0 1 2323.5 487)">
		</image>
		
			<image style="overflow:visible;" width="71" height="89" id="id24" xlink:href="../../../../../Users/evgen/OneDrive/Рабочий стол/workspace/_work/arh/Elements/valve-n-elem/pub/valve-n_h_caption.png"  transform="matrix(1 0 0 1 965.5 486.5)">
		</image>
	</g>
	<g id="ukpg-elem">
		
			<image style="overflow:visible;" width="404" height="279" id="id25" xlink:href="../../../../../Users/evgen/OneDrive/Рабочий стол/workspace/_work/arh/Elements/ukpg-elem/pub/default.png"  transform="matrix(1 0 0 1 10 283.5)">
		</image>
	</g>
	<g id="barrel-elem">
		
			<image style="overflow:visible;" width="299" height="128" xlink:href="../../../../../Users/evgen/OneDrive/Рабочий стол/workspace/_work/arh/Elements/barrel-elem/pub/default.png"  transform="matrix(0.6789 0 0 0.6523 1499.5 493.25)">
		</image>
	</g>
	<g id="transition-button-elem">
		
			<image style="overflow:visible;" width="119" height="34" id="id26_00000163753573380378203910000016320665971346732164_" xlink:href="../../../../../Users/evgen/OneDrive/Рабочий стол/workspace/_work/arh/Elements/transition-button-elem/pub/transition-button_arrowdirection-0.png"  transform="matrix(1 0 0 1 2511.5 239)">
		</image>
		
			<image style="overflow:visible;" width="119" height="34" id="id27_00000115480082425305401440000015566855944752410497_" xlink:href="../../../../../Users/evgen/OneDrive/Рабочий стол/workspace/_work/arh/Elements/transition-button-elem/pub/transition-button_arrowdirection-0.png"  transform="matrix(1 0 0 1 2511.5 516.5)">
		</image>
	</g>
	<g id="valve-mini-unactive-elem">
		
			<image style="overflow:visible;" width="38" height="57" id="id28" xlink:href="../../../../../Users/evgen/OneDrive/Рабочий стол/workspace/_work/arh/Elements/valve-mini-unactive-elem/pub/valve-mini-unactive_h_caption.png"  transform="matrix(1 0 0 1 1734 504.5)">
		</image>
	</g>
	<g id="multi-tit-elem">
		
			<image style="overflow:visible;" width="114" height="64" id="id29" xlink:href="../../../../../Users/evgen/OneDrive/Рабочий стол/workspace/_work/arh/Elements/multi-tit-elem/pub/multi-tit_titcount-2_no-arroworient.png"  transform="matrix(1 0 0 1 1243.5 41.5)">
		</image>
		
			<image style="overflow:visible;" width="114" height="32" id="id30" xlink:href="../../../../../Users/evgen/OneDrive/Рабочий стол/workspace/_work/arh/Elements/multi-tit-elem/pub/multi-tit_no-arroworient.png"  transform="matrix(1 0 0 1 727.5 313)">
		</image>
		
			<image style="overflow:visible;" width="114" height="32" id="id31" xlink:href="../../../../../Users/evgen/OneDrive/Рабочий стол/workspace/_work/arh/Elements/multi-tit-elem/pub/multi-tit_no-arroworient.png"  transform="matrix(1 0 0 1 727.5 491)">
		</image>
		
			<image style="overflow:visible;" width="114" height="32" id="id32" xlink:href="../../../../../Users/evgen/OneDrive/Рабочий стол/workspace/_work/arh/Elements/multi-tit-elem/pub/multi-tit_no-arroworient.png"  transform="matrix(1 0 0 1 1243.5 163.5)">
		</image>
		
			<image style="overflow:visible;" width="114" height="32" id="id33" xlink:href="../../../../../Users/evgen/OneDrive/Рабочий стол/workspace/_work/arh/Elements/multi-tit-elem/pub/multi-tit_no-arroworient.png"  transform="matrix(1 0 0 1 2275 120.5)">
		</image>
		
			<image style="overflow:visible;" width="114" height="32" id="id34" xlink:href="../../../../../Users/evgen/OneDrive/Рабочий стол/workspace/_work/arh/Elements/multi-tit-elem/pub/multi-tit_no-arroworient.png"  transform="matrix(1 0 0 1 2275 401.5)">
		</image>
		
			<image style="overflow:visible;" width="114" height="32" id="id35" xlink:href="../../../../../Users/evgen/OneDrive/Рабочий стол/workspace/_work/arh/Elements/multi-tit-elem/pub/multi-tit_no-arroworient.png"  transform="matrix(1 0 0 1 2469 144.5)">
		</image>
		
			<image style="overflow:visible;" width="114" height="32" id="id36" xlink:href="../../../../../Users/evgen/OneDrive/Рабочий стол/workspace/_work/arh/Elements/multi-tit-elem/pub/multi-tit_no-arroworient.png"  transform="matrix(1 0 0 1 2469 430.5)">
		</image>
	</g>
	<g id="arrow-valve-elem">
		
			<image style="overflow:visible;" width="70" height="60" id="id37" xlink:href="../../../../../Users/evgen/OneDrive/Рабочий стол/workspace/_work/arh/Elements/arrow-valve-elem/pub/arrow-valve_caption.png"  transform="matrix(1 0 0 1 2036.5 94)">
		</image>
	</g>
	<g id="camers-elem">
		
			<image style="overflow:visible;" width="54" height="35" id="id38" xlink:href="../../../../../Users/evgen/OneDrive/Рабочий стол/workspace/_work/arh/Elements/camers-elem/pub/camers_sfunction-kz.png"  transform="matrix(1 0 0 1 487 242.5)">
		</image>
		
			<image style="overflow:visible;" width="54" height="35" id="id39" xlink:href="../../../../../Users/evgen/OneDrive/Рабочий стол/workspace/_work/arh/Elements/camers-elem/pub/camers_sfunction-kp.png"  transform="matrix(1 0 0 1 1723 241.5)">
		</image>
	</g>
	<g id="candle-elem">
		
			<image style="overflow:visible;" width="21" height="38" id="id40" xlink:href="../../../../../Users/evgen/OneDrive/Рабочий стол/workspace/_work/arh/Elements/candle-elem/pub/default.png"  transform="matrix(1 0 0 1 1046.5 316)">
		</image>
		
			<image style="overflow:visible;" width="21" height="38" id="id41" xlink:href="../../../../../Users/evgen/OneDrive/Рабочий стол/workspace/_work/arh/Elements/candle-elem/pub/default.png"  transform="matrix(1 0 0 1 1219.5 316)">
		</image>
		
			<image style="overflow:visible;" width="21" height="38" id="id42_00000117642137254402341030000000017847357586919606_" xlink:href="../../../../../Users/evgen/OneDrive/Рабочий стол/workspace/_work/arh/Elements/candle-elem/pub/default.png"  transform="matrix(1 0 0 1 2431.5 316)">
		</image>
		
			<image style="overflow:visible;" width="21" height="38" id="id43_00000171711178804662432140000016887655198172897695_" xlink:href="../../../../../Users/evgen/OneDrive/Рабочий стол/workspace/_work/arh/Elements/candle-elem/pub/default.png"  transform="matrix(1 0 0 1 2431.5 34)">
		</image>
		
			<image style="overflow:visible;" width="21" height="38" id="id44" xlink:href="../../../../../Users/evgen/OneDrive/Рабочий стол/workspace/_work/arh/Elements/candle-elem/pub/default.png"  transform="matrix(1 0 0 1 1096.5 34)">
		</image>
	</g>
</g>
<g id="tables">
	<g id="t1">
		<rect x="1800" y="518" class="st4" width="40" height="30"/>
	</g>
	<g id="t2">
		<path class="st5" d="M2611,588h-388c-14,0-29-14.2-29-28.5v-225c0-14.3,15-25.5,29-25.5h388c14,0,30,11.2,30,25.5v225
			C2641,573.8,2625,588,2611,588z"/>
	</g>
	<g id="t3">
		<path class="st5" d="M2611,297h-388c-16.3,0-29-12.9-29-28.8V37.4c0-15.9,12.7-26.4,29-26.4h388c16.3,0,30,10.5,30,26.4v230.8
			C2641,284.1,2627.3,297,2611,297z"/>
	</g>
	<g id="t4">
		<path class="st5" d="M2148,171h-154c-13,0-23-11-23-24V34c0-13,10-23,23-23h154c13,0,23,10,23,23v113C2171,160,2161,171,2148,171z
			"/>
	</g>
	<g id="t5">
		<path class="st5" d="M1928,588h-812.5c-14.7,0-27.5-8.7-27.5-28V38c0-19.3,12.8-27,27.5-27H1928c14.7,0,26,7.7,26,27v522
			C1954,579.3,1942.7,588,1928,588z"/>
	</g>
	<g id="t6">
		<path class="st5" d="M1051,588H486c-14.8,0-27-12.9-27-28V38c0-15.1,12.2-27,27-27h565c14.8,0,27,11.9,27,27v522
			C1078,575.1,1065.8,588,1051,588z"/>
	</g>
</g>
<g id="text">
	<g id="px17">
		<text transform="matrix(0.9848 0 0 1 1808.7992 538.4295)" class="st6 st7 st8">БРС</text>
	</g>
	<g id="px20">
		<text transform="matrix(1 -2.470000e-03 2.470000e-03 1 1532.2711 541.1199)" class="st9 st6 st10 st8">Конденсаотосборник</text>
	</g>
	<g id="px23">
		<text transform="matrix(1 0 0 1 831.6646 33.9999)" class="st11 st6 st12 st8">Узел запуска ОУ</text>
		<text transform="matrix(1 0 0 1 1580.1669 34.7996)" class="st11 st6 st12 st8">Узел приема ОУ</text>
		<text transform="matrix(1 0 0 1 1999.7443 36.4319)" class="st11 st6 st12 st8">Крановой узел 1</text>
		<text transform="matrix(1 0 0 1 2270.0273 34.7996)" class="st11 st6 st12 st8">Крановой узел 3</text>
		<text transform="matrix(1 0 0 1 2271.8252 339.3094)" class="st11 st6 st12 st8">Крановой узел 2</text>
	</g>
</g>
<g id="helpers">
</g>
</svg>
