<?xml version="1.0" encoding="utf-8"?>
<!-- Generator: Adobe Illustrator 23.0.1, SVG Export Plug-In . SVG Version: 6.00 Build 0)  -->
<svg version="1.1" xmlns="http://www.w3.org/2000/svg" xmlns:xlink="http://www.w3.org/1999/xlink" x="0px" y="0px"
	 viewBox="0 0 3250 650" style="enable-background:new 0 0 3250 650;" xml:space="preserve">
<style type="text/css">
	.st0{fill:#909091;}
	.st1{fill-rule:evenodd;clip-rule:evenodd;fill:none;stroke:#909091;stroke-miterlimit:10;}
	.st2{fill:none;stroke:#000000;stroke-width:0.5;stroke-miterlimit:10;}
	.st3{fill:none;stroke:#6C6E7A;stroke-width:6;stroke-miterlimit:10;}
	.st4{fill:none;stroke:#7030A0;stroke-width:6;stroke-miterlimit:10;}
	.st5{fill:#F5F3F3;stroke:#6C6E7A;stroke-miterlimit:10;}
	.st6{fill:#F5F3F3;stroke:#7030A0;stroke-miterlimit:10;}
	.st7{fill:#EEEEEF;stroke:#6C6E7A;stroke-miterlimit:10;}
	.st8{font-family:'UbuntuCondensed-Regular';}
	.st9{font-size:16px;}
	.st10{font-size:14px;}
	.st11{font-size:20px;}
	.st12{fill:#21282D;}
	.st13{font-size:21px;}
</style>
<g id="SimpleElements">
	<g id="switch-cart-elem">
		
			<image style="overflow:visible;" width="22" height="69" id="id1" xlink:href="../../../elements/switch-cart-elem/pub/default.png"  transform="matrix(1 0 0 1 182.02 137.854)">
		</image>
		
			<image style="overflow:visible;" width="22" height="69" id="id2" xlink:href="../../../elements/switch-cart-elem/pub/default.png"  transform="matrix(1 0 0 1 305.5 137.854)">
		</image>
		
			<image style="overflow:visible;" width="22" height="69" id="id3" xlink:href="../../../elements/switch-cart-elem/pub/default.png"  transform="matrix(1 0 0 1 709.5 137.854)">
		</image>
		
			<image style="overflow:visible;" width="22" height="69" id="id4" xlink:href="../../../elements/switch-cart-elem/pub/default.png"  transform="matrix(1 0 0 1 832.98 137.854)">
		</image>
		
			<image style="overflow:visible;" width="22" height="69" id="id5" xlink:href="../../../elements/switch-cart-elem/pub/default.png"  transform="matrix(1 0 0 1 1288.5 137.854)">
		</image>
		
			<image style="overflow:visible;" width="22" height="69" id="id6" xlink:href="../../../elements/switch-cart-elem/pub/default.png"  transform="matrix(1 0 0 1 1411.98 137.854)">
		</image>
		
			<image style="overflow:visible;" width="22" height="69" id="id7" xlink:href="../../../elements/switch-cart-elem/pub/default.png"  transform="matrix(1 0 0 1 1865.521 137.854)">
		</image>
		
			<image style="overflow:visible;" width="22" height="69" id="id8" xlink:href="../../../elements/switch-cart-elem/pub/default.png"  transform="matrix(1 0 0 1 1989 137.854)">
		</image>
		
			<image style="overflow:visible;" width="22" height="69" id="id9" xlink:href="../../../elements/switch-cart-elem/pub/default.png"  transform="matrix(1 0 0 1 2394.5 137.854)">
		</image>
		
			<image style="overflow:visible;" width="22" height="69" id="id10" xlink:href="../../../elements/switch-cart-elem/pub/default.png"  transform="matrix(1 0 0 1 2517.98 137.854)">
		</image>
		
			<image style="overflow:visible;" width="22" height="69" id="id11" xlink:href="../../../elements/switch-cart-elem/pub/default.png"  transform="matrix(1 0 0 1 2922.5 137.854)">
		</image>
		
			<image style="overflow:visible;" width="22" height="69" id="id12" xlink:href="../../../elements/switch-cart-elem/pub/default.png"  transform="matrix(1 0 0 1 3045.98 137.854)">
		</image>
	</g>
	<g id="multi-tit-elem">
		
			<image style="overflow:visible;" width="134" height="225" id="id13" xlink:href="../../../elements/multi-tit-elem/pub/multi-tit_titcount-7_no-arroworient.png"  transform="matrix(1.1071 0 0 1.1071 363.8264 87.4547)">
		</image>
		
			<image style="overflow:visible;" width="134" height="225" id="id14" xlink:href="../../../elements/multi-tit-elem/pub/multi-tit_titcount-7_no-arroworient.png"  transform="matrix(1.1071 0 0 1.1071 525.8264 87.4547)">
		</image>
		
			<image style="overflow:visible;" width="134" height="225" id="id15" xlink:href="../../../elements/multi-tit-elem/pub/multi-tit_titcount-7_no-arroworient.png"  transform="matrix(1.1071 0 0 1.1071 891.8264 87.4547)">
		</image>
		
			<image style="overflow:visible;" width="134" height="225" id="id16" xlink:href="../../../elements/multi-tit-elem/pub/multi-tit_titcount-7_no-arroworient.png"  transform="matrix(1.1071 0 0 1.1071 1103.8264 87.4547)">
		</image>
		
			<image style="overflow:visible;" width="134" height="225" id="id17" xlink:href="../../../elements/multi-tit-elem/pub/multi-tit_titcount-7_no-arroworient.png"  transform="matrix(1.1071 0 0 1.1071 1469.8264 87.4547)">
		</image>
		
			<image style="overflow:visible;" width="134" height="225" id="id18" xlink:href="../../../elements/multi-tit-elem/pub/multi-tit_titcount-7_no-arroworient.png"  transform="matrix(1.1071 0 0 1.1071 1681.8264 87.4547)">
		</image>
		
			<image style="overflow:visible;" width="134" height="225" id="id19" xlink:href="../../../elements/multi-tit-elem/pub/multi-tit_titcount-7_no-arroworient.png"  transform="matrix(1.1071 0 0 1.1071 2047.8264 87.4547)">
		</image>
		
			<image style="overflow:visible;" width="134" height="225" id="id20" xlink:href="../../../elements/multi-tit-elem/pub/multi-tit_titcount-7_no-arroworient.png"  transform="matrix(1.1071 0 0 1.1071 2209.8264 87.4547)">
		</image>
		
			<image style="overflow:visible;" width="134" height="225" id="id21" xlink:href="../../../elements/multi-tit-elem/pub/multi-tit_titcount-7_no-arroworient.png"  transform="matrix(1.1071 0 0 1.1071 2575.8264 87.4547)">
		</image>
		
			<image style="overflow:visible;" width="134" height="225" id="id22" xlink:href="../../../elements/multi-tit-elem/pub/multi-tit_titcount-7_no-arroworient.png"  transform="matrix(1.1071 0 0 1.1071 2737.8264 87.4547)">
		</image>
		
			<image style="overflow:visible;" width="134" height="225" id="id23" xlink:href="../../../elements/multi-tit-elem/pub/multi-tit_titcount-7_no-arroworient.png"  transform="matrix(1.1071 0 0 1.1071 3099.8274 87.4547)">
		</image>
		
			<image style="overflow:visible;" width="134" height="225" id="id24" xlink:href="../../../elements/multi-tit-elem/pub/multi-tit_titcount-7_no-arroworient.png"  transform="matrix(1.1071 0 0 1.1071 8.8264 87.4547)">
		</image>
		
			<image style="overflow:visible;" width="134" height="264" id="id25" xlink:href="../../../elements/multi-tit-elem/pub/multi-tit_titcount-8_no-arroworient.png"  transform="matrix(1.0939 0 0 1.0939 9.7094 353.6065)">
		</image>
		
			<image style="overflow:visible;" width="134" height="264" id="id26" xlink:href="../../../elements/multi-tit-elem/pub/multi-tit_titcount-8_no-arroworient.png"  transform="matrix(1.0939 0 0 1.0939 1104.7094 353.6065)">
		</image>
		
			<image style="overflow:visible;" width="134" height="264" id="id27" xlink:href="../../../elements/multi-tit-elem/pub/multi-tit_titcount-8_no-arroworient.png"  transform="matrix(1.0939 0 0 1.0939 1682.7094 353.6065)">
		</image>
		
			<image style="overflow:visible;" width="134" height="264" id="id28" xlink:href="../../../elements/multi-tit-elem/pub/multi-tit_titcount-8_no-arroworient.png"  transform="matrix(1.0939 0 0 1.0939 2210.7095 353.6065)">
		</image>
	</g>
	<g id="earthing-knife-elem">
		
			<image style="overflow:visible;" width="45" height="18" id="id29" xlink:href="../../../elements/earthing-knife-elem/pub/default.png"  transform="matrix(1 0 0 1 190 306.5)">
		</image>
		
			<image style="overflow:visible;" width="45" height="18" id="id30" xlink:href="../../../elements/earthing-knife-elem/pub/default.png"  transform="matrix(1 0 0 1 313.24 306.5)">
		</image>
		
			<image style="overflow:visible;" width="45" height="18" id="id31" xlink:href="../../../elements/earthing-knife-elem/pub/default.png"  transform="matrix(1 0 0 1 717.48 306.5)">
		</image>
		
			<image style="overflow:visible;" width="45" height="18" id="id32" xlink:href="../../../elements/earthing-knife-elem/pub/default.png"  transform="matrix(1 0 0 1 840.719 306.5)">
		</image>
		
			<image style="overflow:visible;" width="45" height="18" id="id33" xlink:href="../../../elements/earthing-knife-elem/pub/default.png"  transform="matrix(1 0 0 1 1296.48 306.5)">
		</image>
		
			<image style="overflow:visible;" width="45" height="18" id="id34" xlink:href="../../../elements/earthing-knife-elem/pub/default.png"  transform="matrix(1 0 0 1 1419.719 306.5)">
		</image>
		
			<image style="overflow:visible;" width="45" height="18" id="id35" xlink:href="../../../elements/earthing-knife-elem/pub/default.png"  transform="matrix(1 0 0 1 1873.5 306.5)">
		</image>
		
			<image style="overflow:visible;" width="45" height="18" id="id36" xlink:href="../../../elements/earthing-knife-elem/pub/default.png"  transform="matrix(1 0 0 1 1996.74 306.5)">
		</image>
		
			<image style="overflow:visible;" width="45" height="18" id="id37" xlink:href="../../../elements/earthing-knife-elem/pub/default.png"  transform="matrix(1 0 0 1 2402.48 306.5)">
		</image>
		
			<image style="overflow:visible;" width="45" height="18" id="id38" xlink:href="../../../elements/earthing-knife-elem/pub/default.png"  transform="matrix(1 0 0 1 2525.719 306.5)">
		</image>
		
			<image style="overflow:visible;" width="45" height="18" id="id39" xlink:href="../../../elements/earthing-knife-elem/pub/default.png"  transform="matrix(1 0 0 1 2930.48 306.5)">
		</image>
		
			<image style="overflow:visible;" width="45" height="18" id="id40" xlink:href="../../../elements/earthing-knife-elem/pub/default.png"  transform="matrix(1 0 0 1 3053.719 306.5)">
		</image>
		
			<image style="overflow:visible;" width="45" height="18" id="id41" xlink:href="../../../elements/earthing-knife-elem/pub/default.png"  transform="matrix(1 0 0 1 189.774 216.5)">
		</image>
		
			<image style="overflow:visible;" width="45" height="18" id="id42" xlink:href="../../../elements/earthing-knife-elem/pub/default.png"  transform="matrix(1 0 0 1 313.014 216.5)">
		</image>
		
			<image style="overflow:visible;" width="45" height="18" id="id43" xlink:href="../../../elements/earthing-knife-elem/pub/default.png"  transform="matrix(1 0 0 1 717.254 216.5)">
		</image>
		
			<image style="overflow:visible;" width="45" height="18" id="id44" xlink:href="../../../elements/earthing-knife-elem/pub/default.png"  transform="matrix(1 0 0 1 840.494 216.5)">
		</image>
		
			<image style="overflow:visible;" width="45" height="18" id="id45" xlink:href="../../../elements/earthing-knife-elem/pub/default.png"  transform="matrix(1 0 0 1 1296.254 216.5)">
		</image>
		
			<image style="overflow:visible;" width="45" height="18" id="id46" xlink:href="../../../elements/earthing-knife-elem/pub/default.png"  transform="matrix(1 0 0 1 1419.494 216.5)">
		</image>
		
			<image style="overflow:visible;" width="45" height="18" id="id47" xlink:href="../../../elements/earthing-knife-elem/pub/default.png"  transform="matrix(1 0 0 1 1873.275 216.5)">
		</image>
		
			<image style="overflow:visible;" width="45" height="18" id="id48" xlink:href="../../../elements/earthing-knife-elem/pub/default.png"  transform="matrix(1 0 0 1 1996.515 216.5)">
		</image>
		
			<image style="overflow:visible;" width="45" height="18" id="id49" xlink:href="../../../elements/earthing-knife-elem/pub/default.png"  transform="matrix(1 0 0 1 2402.2539 216.5)">
		</image>
		
			<image style="overflow:visible;" width="45" height="18" id="id50" xlink:href="../../../elements/earthing-knife-elem/pub/default.png"  transform="matrix(1 0 0 1 2525.4939 216.5)">
		</image>
		
			<image style="overflow:visible;" width="45" height="18" id="id51" xlink:href="../../../elements/earthing-knife-elem/pub/default.png"  transform="matrix(1 0 0 1 2930.2539 216.5)">
		</image>
		
			<image style="overflow:visible;" width="45" height="18" id="id52" xlink:href="../../../elements/earthing-knife-elem/pub/default.png"  transform="matrix(1 0 0 1 3053.4939 216.5)">
		</image>
	</g>
	<g id="disconnector-elem">
		
			<image style="overflow:visible;" width="16" height="11" id="id53" xlink:href="../../../elements/disconnector-elem/pub/default.png"  transform="matrix(0 -1 1 0 187.52 261)">
		</image>
		
			<image style="overflow:visible;" width="16" height="11" id="id54" xlink:href="../../../elements/disconnector-elem/pub/default.png"  transform="matrix(0 -1 1 0 311 261)">
		</image>
		
			<image style="overflow:visible;" width="16" height="11" id="id55" xlink:href="../../../elements/disconnector-elem/pub/default.png"  transform="matrix(0 -1 1 0 715 261)">
		</image>
		
			<image style="overflow:visible;" width="16" height="11" id="id56" xlink:href="../../../elements/disconnector-elem/pub/default.png"  transform="matrix(0 -1 1 0 838.48 261)">
		</image>
		
			<image style="overflow:visible;" width="16" height="11" id="id57" xlink:href="../../../elements/disconnector-elem/pub/default.png"  transform="matrix(0 -1 1 0 1294 261)">
		</image>
		
			<image style="overflow:visible;" width="16" height="11" id="id58" xlink:href="../../../elements/disconnector-elem/pub/default.png"  transform="matrix(0 -1 1 0 1417.48 261)">
		</image>
		
			<image style="overflow:visible;" width="16" height="11" id="id59" xlink:href="../../../elements/disconnector-elem/pub/default.png"  transform="matrix(0 -1 1 0 1871.021 261)">
		</image>
		
			<image style="overflow:visible;" width="16" height="11" id="id60" xlink:href="../../../elements/disconnector-elem/pub/default.png"  transform="matrix(0 -1 1 0 1994.5 261)">
		</image>
		
			<image style="overflow:visible;" width="16" height="11" id="id61" xlink:href="../../../elements/disconnector-elem/pub/default.png"  transform="matrix(0 -1 1 0 2400 261)">
		</image>
		
			<image style="overflow:visible;" width="16" height="11" id="id62" xlink:href="../../../elements/disconnector-elem/pub/default.png"  transform="matrix(0 -1 1 0 2523.48 261)">
		</image>
		
			<image style="overflow:visible;" width="16" height="11" id="id63" xlink:href="../../../elements/disconnector-elem/pub/default.png"  transform="matrix(0 -1 1 0 2928 261)">
		</image>
		
			<image style="overflow:visible;" width="16" height="11" id="id64" xlink:href="../../../elements/disconnector-elem/pub/default.png"  transform="matrix(0 -1 1 0 3051.48 261)">
		</image>
	</g>
	<g id="disconnector-cart-elem">
		
			<image style="overflow:visible;" width="14" height="58" id="id65" xlink:href="../../../elements/disconnector-cart-elem/pub/default.png"  transform="matrix(1 0 0 1 186.5 378.973)">
		</image>
		
			<image style="overflow:visible;" width="14" height="58" id="id66" xlink:href="../../../elements/disconnector-cart-elem/pub/default.png"  transform="matrix(1 0 0 1 309.5 378.973)">
		</image>
		
			<image style="overflow:visible;" width="14" height="58" id="id67" xlink:href="../../../elements/disconnector-cart-elem/pub/default.png"  transform="matrix(1 0 0 1 257.581 472.027)">
		</image>
		
			<image style="overflow:visible;" width="14" height="58" id="id68" xlink:href="../../../elements/disconnector-cart-elem/pub/default.png"  transform="matrix(1 0 0 1 257.581 543.055)">
		</image>
		
			<image style="overflow:visible;" width="14" height="58" id="id69" xlink:href="../../../elements/disconnector-cart-elem/pub/default.png"  transform="matrix(0 1 -1 0 285.5 415.5)">
		</image>
		
			<image style="overflow:visible;" width="14" height="58" id="id70" xlink:href="../../../elements/disconnector-cart-elem/pub/default.png"  transform="matrix(1 0 0 1 713.98 378.973)">
		</image>
		
			<image style="overflow:visible;" width="14" height="58" id="id71" xlink:href="../../../elements/disconnector-cart-elem/pub/default.png"  transform="matrix(1 0 0 1 863.06 472.027)">
		</image>
		
			<image style="overflow:visible;" width="14" height="58" id="id72" xlink:href="../../../elements/disconnector-cart-elem/pub/default.png"  transform="matrix(1 0 0 1 836.98 378.973)">
		</image>
		
			<image style="overflow:visible;" width="14" height="58" id="id73" xlink:href="../../../elements/disconnector-cart-elem/pub/default.png"  transform="matrix(0 1 -1 0 812.98 415.5)">
		</image>
		
			<image style="overflow:visible;" width="14" height="58" id="id74" xlink:href="../../../elements/disconnector-cart-elem/pub/default.png"  transform="matrix(1 0 0 1 1292.98 378.973)">
		</image>
		
			<image style="overflow:visible;" width="14" height="58" id="id75" xlink:href="../../../elements/disconnector-cart-elem/pub/default.png"  transform="matrix(1 0 0 1 1415.98 378.973)">
		</image>
		
			<image style="overflow:visible;" width="14" height="58" id="id76" xlink:href="../../../elements/disconnector-cart-elem/pub/default.png"  transform="matrix(1 0 0 1 1441.998 472.027)">
		</image>
		
			<image style="overflow:visible;" width="14" height="58" id="id77" xlink:href="../../../elements/disconnector-cart-elem/pub/default.png"  transform="matrix(1 0 0 1 1441.998 543.055)">
		</image>
		
			<image style="overflow:visible;" width="14" height="58" id="id78" xlink:href="../../../elements/disconnector-cart-elem/pub/default.png"  transform="matrix(0 1 -1 0 1391.98 415.5)">
		</image>
		
			<image style="overflow:visible;" width="14" height="58" id="id79" xlink:href="../../../elements/disconnector-cart-elem/pub/default.png"  transform="matrix(1 0 0 1 1870 378.973)">
		</image>
		
			<image style="overflow:visible;" width="14" height="58" id="id80" xlink:href="../../../elements/disconnector-cart-elem/pub/default.png"  transform="matrix(1 0 0 1 1993 378.973)">
		</image>
		
			<image style="overflow:visible;" width="14" height="58" id="id81" xlink:href="../../../elements/disconnector-cart-elem/pub/default.png"  transform="matrix(1 0 0 1 2019.019 472.027)">
		</image>
		
			<image style="overflow:visible;" width="14" height="58" id="id82" xlink:href="../../../elements/disconnector-cart-elem/pub/default.png"  transform="matrix(1 0 0 1 2019.019 543.055)">
		</image>
		
			<image style="overflow:visible;" width="14" height="58" id="id83" xlink:href="../../../elements/disconnector-cart-elem/pub/default.png"  transform="matrix(0 1 -1 0 1969 415.5)">
		</image>
		
			<image style="overflow:visible;" width="14" height="58" id="id84" xlink:href="../../../elements/disconnector-cart-elem/pub/default.png"  transform="matrix(1 0 0 1 2398.98 378.973)">
		</image>
		
			<image style="overflow:visible;" width="14" height="58" id="id85" xlink:href="../../../elements/disconnector-cart-elem/pub/default.png"  transform="matrix(1 0 0 1 2521.98 378.973)">
		</image>
		
			<image style="overflow:visible;" width="14" height="58" id="id86" xlink:href="../../../elements/disconnector-cart-elem/pub/default.png"  transform="matrix(1 0 0 1 2470.0601 472.027)">
		</image>
		
			<image style="overflow:visible;" width="14" height="58" id="id87" xlink:href="../../../elements/disconnector-cart-elem/pub/default.png"  transform="matrix(0 1 -1 0 2497.98 415.5)">
		</image>
		
			<image style="overflow:visible;" width="14" height="58" id="id88" xlink:href="../../../elements/disconnector-cart-elem/pub/default.png"  transform="matrix(1 0 0 1 2548.0601 472.027)">
		</image>
		
			<image style="overflow:visible;" width="14" height="58" id="id89" xlink:href="../../../elements/disconnector-cart-elem/pub/default.png"  transform="matrix(1 0 0 1 2470.0601 543.055)">
		</image>
		
			<image style="overflow:visible;" width="14" height="58" id="id90" xlink:href="../../../elements/disconnector-cart-elem/pub/default.png"  transform="matrix(1 0 0 1 2926.98 378.973)">
		</image>
		
			<image style="overflow:visible;" width="14" height="58" id="id91" xlink:href="../../../elements/disconnector-cart-elem/pub/default.png"  transform="matrix(1 0 0 1 3049.98 378.973)">
		</image>
		
			<image style="overflow:visible;" width="14" height="58" id="id92" xlink:href="../../../elements/disconnector-cart-elem/pub/default.png"  transform="matrix(0 1 -1 0 3025.98 415.5)">
		</image>
		
			<image style="overflow:visible;" width="14" height="58" id="id93" xlink:href="../../../elements/disconnector-cart-elem/pub/default.png"  transform="matrix(1 0 0 1 3076.0601 472.027)">
		</image>
		
			<image style="overflow:visible;" width="14" height="58" id="id94" xlink:href="../../../elements/disconnector-cart-elem/pub/default.png"  transform="matrix(1 0 0 1 335.581 472.027)">
		</image>
	</g>
</g>
<g id="helpers">
</g>
<g id="elems">
	<g id="resists">
		<g>
			<path class="st0" d="M197.52,279v18h-9v-18H197.52 M198.52,278h-1h-9h-1v1v18v1h1h9h1v-1v-18V278L198.52,278z"/>
		</g>
		<g>
			<path class="st0" d="M321,279v18h-9v-18H321 M322,278h-1h-9h-1v1v18v1h1h9h1v-1v-18V278L322,278z"/>
		</g>
		<g>
			<path class="st0" d="M2410,279v18h-9v-18H2410 M2411,278h-1h-9h-1v1v18v1h1h9h1v-1v-18V278L2411,278z"/>
		</g>
		<g>
			<path class="st0" d="M2533.48,279v18h-9v-18H2533.48 M2534.48,278h-1h-9h-1v1v18v1h1h9h1v-1v-18V278L2534.48,278z"/>
		</g>
		<g>
			<path class="st0" d="M725,279v18h-9v-18H725 M726,278h-1h-9h-1v1v18v1h1h9h1v-1v-18V278L726,278z"/>
		</g>
		<g>
			<path class="st0" d="M848.48,279v18h-9v-18H848.48 M849.48,278h-1h-9h-1v1v18v1h1h9h1v-1v-18V278L849.48,278z"/>
		</g>
		<g>
			<path class="st0" d="M2938,279v18h-9v-18H2938 M2939,278h-1h-9h-1v1v18v1h1h9h1v-1v-18V278L2939,278z"/>
		</g>
		<g>
			<path class="st0" d="M3061.48,279v18h-9v-18H3061.48 M3062.48,278h-1h-9h-1v1v18v1h1h9h1v-1v-18V278L3062.48,278z"/>
		</g>
		<g>
			<path class="st0" d="M1304,279v18h-9v-18H1304 M1305,278h-1h-9h-1v1v18v1h1h9h1v-1v-18V278L1305,278z"/>
		</g>
		<g>
			<path class="st0" d="M1427.48,279v18h-9v-18H1427.48 M1428.48,278h-1h-9h-1v1v18v1h1h9h1v-1v-18V278L1428.48,278z"/>
		</g>
		<g>
			<path class="st0" d="M1881.02,279v18h-9v-18H1881.02 M1882.02,278h-1h-9h-1v1v18v1h1h9h1v-1v-18V278L1882.02,278z"/>
		</g>
		<g>
			<path class="st0" d="M2004.5,279v18h-9v-18H2004.5 M2005.5,278h-1h-9h-1v1v18v1h1h9h1v-1v-18V278L2005.5,278z"/>
		</g>
	</g>
	<g id="tt">
		<g>
			<path class="st0" d="M2000.46,345.59c5.38,0,9.75,4.37,9.75,9.75c0,5.38-4.37,9.75-9.75,9.75s-9.75-4.37-9.75-9.75
				C1990.71,349.95,1995.08,345.59,2000.46,345.59 M2000.46,344.59c-5.93,0-10.75,4.82-10.75,10.75s4.82,10.75,10.75,10.75
				s10.75-4.82,10.75-10.75S2006.39,344.59,2000.46,344.59L2000.46,344.59z"/>
		</g>
		<g>
			<path class="st0" d="M2000.45,335.59c0.38,0,0.76,0.02,1.14,0.07c5.35,0.63,9.18,5.47,8.55,10.82c-0.58,4.96-4.79,8.62-9.67,8.62
				c-0.38,0-0.76-0.02-1.14-0.07c-5.35-0.63-9.18-5.47-8.55-10.82C1991.36,339.24,1995.57,335.59,2000.45,335.59 M2000.45,334.59
				c-5.45,0-10.03,4.08-10.66,9.5c-0.69,5.89,3.54,11.24,9.43,11.92c0.42,0.05,0.84,0.07,1.26,0.07c5.45,0,10.03-4.08,10.66-9.5
				c0.33-2.85-0.46-5.66-2.24-7.91c-1.78-2.25-4.33-3.68-7.18-4.01C2001.29,334.61,2000.87,334.59,2000.45,334.59L2000.45,334.59z"
				/>
		</g>
		<g>
			<path class="st0" d="M1876.98,345.59c5.38,0,9.75,4.37,9.75,9.75c0,5.38-4.37,9.75-9.75,9.75s-9.75-4.37-9.75-9.75
				C1867.23,349.95,1871.6,345.59,1876.98,345.59 M1876.98,344.59c-5.93,0-10.75,4.82-10.75,10.75s4.82,10.75,10.75,10.75
				s10.75-4.82,10.75-10.75S1882.91,344.59,1876.98,344.59L1876.98,344.59z"/>
		</g>
		<g>
			<path class="st0" d="M1876.97,335.59c0.38,0,0.76,0.02,1.14,0.07c5.35,0.63,9.18,5.47,8.55,10.82c-0.58,4.96-4.79,8.62-9.67,8.62
				c-0.38,0-0.76-0.02-1.14-0.07c-5.35-0.63-9.18-5.47-8.55-10.82C1867.88,339.24,1872.09,335.59,1876.97,335.59 M1876.97,334.59
				c-5.45,0-10.03,4.08-10.66,9.5c-0.69,5.89,3.54,11.24,9.43,11.92c0.42,0.05,0.84,0.07,1.26,0.07c5.45,0,10.03-4.08,10.66-9.5
				c0.33-2.85-0.46-5.66-2.24-7.91c-1.78-2.25-4.33-3.68-7.18-4.01C1877.81,334.61,1877.39,334.59,1876.97,334.59L1876.97,334.59z"
				/>
		</g>
		<g>
			<path class="st0" d="M1423.44,345.59c5.38,0,9.75,4.37,9.75,9.75c0,5.38-4.37,9.75-9.75,9.75s-9.75-4.37-9.75-9.75
				C1413.69,349.95,1418.06,345.59,1423.44,345.59 M1423.44,344.59c-5.93,0-10.75,4.82-10.75,10.75s4.82,10.75,10.75,10.75
				s10.75-4.82,10.75-10.75S1429.37,344.59,1423.44,344.59L1423.44,344.59z"/>
		</g>
		<g>
			<path class="st0" d="M1423.43,335.59c0.38,0,0.76,0.02,1.14,0.07c5.35,0.63,9.18,5.47,8.55,10.82c-0.58,4.96-4.79,8.62-9.67,8.62
				c-0.38,0-0.76-0.02-1.14-0.07c-5.35-0.63-9.18-5.47-8.55-10.82C1414.34,339.24,1418.55,335.59,1423.43,335.59 M1423.43,334.59
				c-5.45,0-10.03,4.08-10.66,9.5c-0.69,5.89,3.54,11.24,9.43,11.92c0.42,0.05,0.84,0.07,1.26,0.07c5.45,0,10.03-4.08,10.66-9.5
				c0.69-5.89-3.54-11.24-9.43-11.92C1424.27,334.61,1423.85,334.59,1423.43,334.59L1423.43,334.59z"/>
		</g>
		<g>
			<path class="st0" d="M1299.96,345.59c5.38,0,9.75,4.37,9.75,9.75c0,5.38-4.37,9.75-9.75,9.75c-5.38,0-9.75-4.37-9.75-9.75
				C1290.21,349.95,1294.58,345.59,1299.96,345.59 M1299.96,344.59c-5.93,0-10.75,4.82-10.75,10.75s4.82,10.75,10.75,10.75
				c5.93,0,10.75-4.82,10.75-10.75S1305.89,344.59,1299.96,344.59L1299.96,344.59z"/>
		</g>
		<g>
			<path class="st0" d="M1299.95,335.59c0.38,0,0.76,0.02,1.14,0.07c5.35,0.63,9.18,5.47,8.55,10.82c-0.58,4.96-4.79,8.62-9.67,8.62
				c-0.38,0-0.76-0.02-1.14-0.07c-5.35-0.63-9.18-5.47-8.55-10.82C1290.86,339.24,1295.07,335.59,1299.95,335.59 M1299.95,334.59
				c-5.45,0-10.03,4.08-10.66,9.5c-0.69,5.89,3.54,11.24,9.43,11.92c0.42,0.05,0.84,0.07,1.26,0.07c5.45,0,10.03-4.08,10.66-9.5
				c0.33-2.85-0.46-5.66-2.24-7.91c-1.78-2.25-4.33-3.68-7.18-4.01C1300.79,334.61,1300.37,334.59,1299.95,334.59L1299.95,334.59z"
				/>
		</g>
		<g>
			<path class="st0" d="M3057.44,345.59c5.38,0,9.75,4.37,9.75,9.75c0,5.38-4.37,9.75-9.75,9.75s-9.75-4.37-9.75-9.75
				C3047.69,349.95,3052.06,345.59,3057.44,345.59 M3057.44,344.59c-5.93,0-10.75,4.82-10.75,10.75s4.82,10.75,10.75,10.75
				s10.75-4.82,10.75-10.75S3063.37,344.59,3057.44,344.59L3057.44,344.59z"/>
		</g>
		<g>
			<path class="st0" d="M3057.43,335.59c0.38,0,0.76,0.02,1.14,0.07c5.35,0.63,9.18,5.47,8.55,10.82c-0.58,4.96-4.79,8.62-9.67,8.62
				c-0.38,0-0.76-0.02-1.14-0.07c-5.35-0.63-9.18-5.47-8.55-10.82C3048.34,339.24,3052.55,335.59,3057.43,335.59 M3057.43,334.59
				c-5.45,0-10.03,4.08-10.66,9.5c-0.33,2.85,0.46,5.66,2.24,7.92c1.78,2.25,4.33,3.68,7.18,4.01c0.42,0.05,0.84,0.07,1.26,0.07
				c5.45,0,10.03-4.08,10.66-9.5c0.69-5.89-3.54-11.24-9.43-11.92C3058.27,334.61,3057.85,334.59,3057.43,334.59L3057.43,334.59z"/>
		</g>
		<g>
			<path class="st0" d="M2933.96,345.59c5.38,0,9.75,4.37,9.75,9.75c0,5.38-4.37,9.75-9.75,9.75s-9.75-4.37-9.75-9.75
				C2924.21,349.95,2928.58,345.59,2933.96,345.59 M2933.96,344.59c-5.93,0-10.75,4.82-10.75,10.75s4.82,10.75,10.75,10.75
				s10.75-4.82,10.75-10.75S2939.89,344.59,2933.96,344.59L2933.96,344.59z"/>
		</g>
		<g>
			<path class="st0" d="M2933.95,335.59c0.38,0,0.76,0.02,1.14,0.07c5.35,0.63,9.18,5.47,8.55,10.82c-0.58,4.96-4.79,8.62-9.67,8.62
				c-0.38,0-0.76-0.02-1.14-0.07c-5.35-0.63-9.18-5.47-8.55-10.82C2924.86,339.24,2929.07,335.59,2933.95,335.59 M2933.95,334.59
				c-5.45,0-10.03,4.08-10.66,9.5c-0.69,5.89,3.54,11.24,9.43,11.92c0.42,0.05,0.84,0.07,1.26,0.07c5.45,0,10.03-4.08,10.66-9.5
				c0.33-2.85-0.46-5.66-2.24-7.91c-1.78-2.25-4.33-3.68-7.18-4.01C2934.79,334.61,2934.37,334.59,2933.95,334.59L2933.95,334.59z"
				/>
		</g>
		<g>
			<path class="st0" d="M844.44,345.59c5.38,0,9.75,4.37,9.75,9.75c0,5.38-4.37,9.75-9.75,9.75c-5.38,0-9.75-4.37-9.75-9.75
				C834.69,349.95,839.06,345.59,844.44,345.59 M844.44,344.59c-5.93,0-10.75,4.82-10.75,10.75s4.82,10.75,10.75,10.75
				c5.93,0,10.75-4.82,10.75-10.75S850.37,344.59,844.44,344.59L844.44,344.59z"/>
		</g>
		<g>
			<path class="st0" d="M844.43,335.59c0.38,0,0.76,0.02,1.14,0.07c5.35,0.63,9.18,5.47,8.55,10.82c-0.58,4.96-4.79,8.62-9.67,8.62
				c-0.38,0-0.76-0.02-1.14-0.07c-5.35-0.63-9.18-5.47-8.55-10.82C835.34,339.24,839.55,335.59,844.43,335.59 M844.43,334.59
				c-5.45,0-10.03,4.08-10.66,9.5c-0.69,5.89,3.54,11.24,9.43,11.92c0.42,0.05,0.84,0.07,1.26,0.07c5.45,0,10.03-4.08,10.66-9.5
				c0.33-2.85-0.46-5.66-2.24-7.91c-1.78-2.25-4.33-3.68-7.18-4.01C845.27,334.61,844.85,334.59,844.43,334.59L844.43,334.59z"/>
		</g>
		<g>
			<path class="st0" d="M720.96,345.59c5.38,0,9.75,4.37,9.75,9.75c0,5.38-4.37,9.75-9.75,9.75c-5.38,0-9.75-4.37-9.75-9.75
				C711.21,349.95,715.58,345.59,720.96,345.59 M720.96,344.59c-5.93,0-10.75,4.82-10.75,10.75s4.82,10.75,10.75,10.75
				c5.93,0,10.75-4.82,10.75-10.75S726.89,344.59,720.96,344.59L720.96,344.59z"/>
		</g>
		<g>
			<path class="st0" d="M720.95,335.59c0.38,0,0.76,0.02,1.14,0.07c5.35,0.63,9.18,5.47,8.55,10.82c-0.58,4.96-4.79,8.62-9.67,8.62
				c-0.38,0-0.76-0.02-1.14-0.07c-5.35-0.63-9.18-5.47-8.55-10.82C711.86,339.24,716.07,335.59,720.95,335.59 M720.95,334.59
				c-5.45,0-10.03,4.08-10.66,9.5c-0.69,5.89,3.54,11.24,9.43,11.92c0.42,0.05,0.84,0.07,1.26,0.07c5.45,0,10.03-4.08,10.66-9.5
				c0.33-2.85-0.46-5.66-2.24-7.91c-1.78-2.25-4.33-3.68-7.18-4.01C721.79,334.61,721.37,334.59,720.95,334.59L720.95,334.59z"/>
		</g>
		<g>
			<path class="st0" d="M2529.44,345.59c5.38,0,9.75,4.37,9.75,9.75c0,5.38-4.37,9.75-9.75,9.75s-9.75-4.37-9.75-9.75
				C2519.69,349.95,2524.06,345.59,2529.44,345.59 M2529.44,344.59c-5.93,0-10.75,4.82-10.75,10.75s4.82,10.75,10.75,10.75
				s10.75-4.82,10.75-10.75S2535.37,344.59,2529.44,344.59L2529.44,344.59z"/>
		</g>
		<g>
			<path class="st0" d="M2529.43,335.59c0.38,0,0.76,0.02,1.14,0.07c5.35,0.63,9.18,5.47,8.55,10.82c-0.58,4.96-4.79,8.62-9.67,8.62
				c-0.38,0-0.76-0.02-1.14-0.07c-5.35-0.63-9.18-5.47-8.55-10.82C2520.34,339.24,2524.55,335.59,2529.43,335.59 M2529.43,334.59
				c-5.45,0-10.03,4.08-10.66,9.5c-0.33,2.85,0.46,5.66,2.24,7.92c1.78,2.25,4.33,3.68,7.18,4.01c0.42,0.05,0.84,0.07,1.26,0.07
				c5.45,0,10.03-4.08,10.66-9.5c0.69-5.89-3.54-11.24-9.43-11.92C2530.27,334.61,2529.85,334.59,2529.43,334.59L2529.43,334.59z"/>
		</g>
		<g>
			<path class="st0" d="M2405.96,345.59c5.38,0,9.75,4.37,9.75,9.75c0,5.38-4.37,9.75-9.75,9.75s-9.75-4.37-9.75-9.75
				C2396.21,349.95,2400.58,345.59,2405.96,345.59 M2405.96,344.59c-5.93,0-10.75,4.82-10.75,10.75s4.82,10.75,10.75,10.75
				s10.75-4.82,10.75-10.75S2411.89,344.59,2405.96,344.59L2405.96,344.59z"/>
		</g>
		<g>
			<path class="st0" d="M2405.95,335.59c0.38,0,0.76,0.02,1.14,0.07c5.35,0.63,9.18,5.47,8.55,10.82c-0.58,4.96-4.79,8.62-9.67,8.62
				c-0.38,0-0.76-0.02-1.14-0.07c-5.35-0.63-9.18-5.47-8.55-10.82C2396.86,339.24,2401.07,335.59,2405.95,335.59 M2405.95,334.59
				c-5.45,0-10.03,4.08-10.66,9.5c-0.69,5.89,3.54,11.24,9.43,11.92c0.42,0.05,0.84,0.07,1.26,0.07c5.45,0,10.03-4.08,10.66-9.5
				c0.33-2.85-0.46-5.66-2.24-7.91c-1.78-2.25-4.33-3.68-7.18-4.01C2406.79,334.61,2406.37,334.59,2405.95,334.59L2405.95,334.59z"
				/>
		</g>
		<g>
			<path class="st0" d="M316.96,345.59c5.38,0,9.75,4.37,9.75,9.75c0,5.38-4.37,9.75-9.75,9.75c-5.38,0-9.75-4.37-9.75-9.75
				C307.21,349.95,311.58,345.59,316.96,345.59 M316.96,344.59c-5.93,0-10.75,4.82-10.75,10.75s4.82,10.75,10.75,10.75
				s10.75-4.82,10.75-10.75S322.89,344.59,316.96,344.59L316.96,344.59z"/>
		</g>
		<g>
			<path class="st0" d="M316.95,335.59c0.38,0,0.76,0.02,1.14,0.07c5.35,0.63,9.18,5.47,8.55,10.82c-0.58,4.96-4.79,8.62-9.67,8.62
				c-0.38,0-0.76-0.02-1.14-0.07c-5.35-0.63-9.18-5.47-8.55-10.82C307.86,339.24,312.07,335.59,316.95,335.59 M316.95,334.59
				c-5.45,0-10.03,4.08-10.66,9.5c-0.69,5.89,3.54,11.24,9.43,11.92c0.42,0.05,0.84,0.07,1.26,0.07c5.45,0,10.03-4.08,10.66-9.5
				c0.33-2.85-0.46-5.66-2.24-7.91c-1.78-2.25-4.33-3.68-7.18-4.01C317.79,334.61,317.37,334.59,316.95,334.59L316.95,334.59z"/>
		</g>
		<g>
			<path class="st0" d="M193.48,345.59c5.38,0,9.75,4.37,9.75,9.75c0,5.38-4.37,9.75-9.75,9.75s-9.75-4.37-9.75-9.75
				C183.73,349.95,188.1,345.59,193.48,345.59 M193.48,344.59c-5.93,0-10.75,4.82-10.75,10.75s4.82,10.75,10.75,10.75
				s10.75-4.82,10.75-10.75S199.41,344.59,193.48,344.59L193.48,344.59z"/>
		</g>
		<g>
			<path class="st0" d="M193.47,335.59c0.38,0,0.76,0.02,1.14,0.07c5.35,0.63,9.18,5.47,8.55,10.82c-0.58,4.96-4.79,8.62-9.67,8.62
				c-0.38,0-0.76-0.02-1.14-0.07c-5.35-0.63-9.18-5.47-8.55-10.82C184.38,339.24,188.59,335.59,193.47,335.59 M193.47,334.59
				c-5.45,0-10.03,4.08-10.66,9.5c-0.69,5.89,3.54,11.24,9.43,11.92c0.42,0.05,0.84,0.07,1.26,0.07c5.45,0,10.03-4.08,10.66-9.5
				c0.33-2.85-0.46-5.66-2.24-7.91c-1.78-2.25-4.33-3.68-7.18-4.01C194.31,334.61,193.89,334.59,193.47,334.59L193.47,334.59z"/>
		</g>
	</g>
	<g id="ads">
		<g>
			<g>
				<path class="st0" d="M2026.58,618.67c5.38,0,9.74,4.36,9.74,9.74c0,5.38-4.36,9.74-9.74,9.74s-9.74-4.36-9.74-9.74
					C2016.84,623.03,2021.2,618.67,2026.58,618.67 M2026.58,617.67c-5.92,0-10.74,4.82-10.74,10.74c0,5.92,4.82,10.74,10.74,10.74
					s10.74-4.82,10.74-10.74C2037.32,622.48,2032.5,617.67,2026.58,617.67L2026.58,617.67z"/>
			</g>
			<path class="st1" d="M2033.37,628.4c0,1.87-1.52,3.39-3.39,3.39s-3.39-1.52-3.39-3.39s-1.52-3.39-3.39-3.39
				c-1.87,0-3.39,1.52-3.39,3.39"/>
		</g>
		<g>
			<g>
				<path class="st0" d="M264.56,618.67c5.38,0,9.75,4.37,9.75,9.75c0,5.38-4.37,9.75-9.75,9.75c-5.38,0-9.75-4.37-9.75-9.75
					C254.81,623.03,259.18,618.67,264.56,618.67 M264.56,617.67c-5.93,0-10.75,4.82-10.75,10.75c0,5.93,4.82,10.75,10.75,10.75
					c5.93,0,10.75-4.82,10.75-10.75C275.31,622.49,270.49,617.67,264.56,617.67L264.56,617.67z"/>
			</g>
			<path class="st1" d="M271.36,628.42c0,1.88-1.52,3.4-3.4,3.4c-1.88,0-3.4-1.52-3.4-3.4s-1.52-3.4-3.4-3.4
				c-1.88,0-3.4,1.52-3.4,3.4"/>
		</g>
		<g>
			<g>
				<path class="st0" d="M2477.04,618.67c5.38,0,9.75,4.37,9.75,9.75c0,5.38-4.37,9.75-9.75,9.75s-9.75-4.37-9.75-9.75
					C2467.29,623.03,2471.66,618.67,2477.04,618.67 M2477.04,617.67c-5.93,0-10.75,4.82-10.75,10.75c0,5.93,4.82,10.75,10.75,10.75
					s10.75-4.82,10.75-10.75C2487.79,622.49,2482.97,617.67,2477.04,617.67L2477.04,617.67z"/>
			</g>
			<path class="st1" d="M2483.84,628.42c0,1.88-1.52,3.4-3.4,3.4c-1.88,0-3.4-1.52-3.4-3.4s-1.52-3.4-3.4-3.4
				c-1.88,0-3.4,1.52-3.4,3.4"/>
		</g>
		<g>
			<g>
				<path class="st0" d="M1448.98,618.67c5.38,0,9.75,4.37,9.75,9.75c0,5.38-4.37,9.75-9.75,9.75s-9.75-4.37-9.75-9.75
					C1439.23,623.03,1443.59,618.67,1448.98,618.67 M1448.98,617.67c-5.93,0-10.75,4.82-10.75,10.75c0,5.93,4.82,10.75,10.75,10.75
					s10.75-4.82,10.75-10.75C1459.73,622.49,1454.91,617.67,1448.98,617.67L1448.98,617.67z"/>
			</g>
			<path class="st1" d="M1455.78,628.42c0,1.88-1.52,3.4-3.4,3.4s-3.4-1.52-3.4-3.4s-1.52-3.4-3.4-3.4s-3.4,1.52-3.4,3.4"/>
		</g>
		<g>
			<g>
				<path class="st0" d="M2026,618.67c5.38,0,9.75,4.37,9.75,9.75c0,5.38-4.37,9.75-9.75,9.75s-9.75-4.37-9.75-9.75
					C2016.25,623.03,2020.62,618.67,2026,618.67 M2026,617.67c-5.93,0-10.75,4.82-10.75,10.75c0,5.93,4.82,10.75,10.75,10.75
					s10.75-4.82,10.75-10.75C2036.75,622.49,2031.93,617.67,2026,617.67L2026,617.67z"/>
			</g>
			<path class="st1" d="M2032.8,628.42c0,1.88-1.52,3.4-3.4,3.4c-1.88,0-3.4-1.52-3.4-3.4s-1.52-3.4-3.4-3.4s-3.4,1.52-3.4,3.4"/>
		</g>
	</g>
</g>
<g id="lines">
	<g id="pipes">
		<g id="lep">
			<line class="st2" x1="193.5" y1="436.47" x2="193.5" y2="450.5"/>
			<line class="st2" x1="222.5" y1="422.56" x2="222.5" y2="450.5"/>
			<line class="st2" x1="290.5" y1="422.43" x2="290.5" y2="450.55"/>
			<line class="st2" x1="227.92" y1="422.5" x2="222.5" y2="422.5"/>
			<line class="st2" x1="290.5" y1="422.5" x2="285" y2="422.5"/>
			<line class="st2" x1="193.5" y1="365.09" x2="193.5" y2="379.47"/>
			<line class="st2" x1="193.02" y1="206.85" x2="193.02" y2="245.5"/>
			<line class="st2" x1="193.02" y1="260.5" x2="193.02" y2="335.59"/>
			<line class="st2" x1="193.02" y1="113" x2="193.02" y2="137.85"/>
			<line class="st2" x1="316.5" y1="436.47" x2="316.5" y2="450.5"/>
			<line class="st2" x1="342.58" y1="458.5" x2="342.58" y2="472.53"/>
			<line class="st2" x1="264.58" y1="458.5" x2="264.58" y2="472.53"/>
			<line class="st2" x1="264.58" y1="529.53" x2="264.58" y2="543.55"/>
			<line class="st2" x1="822.58" y1="543.5" x2="346.5" y2="543.5"/>
			<line class="st2" x1="342.6" y1="529.53" x2="342.6" y2="543.5"/>
			<line class="st2" x1="870.08" y1="529.53" x2="870.08" y2="543.55"/>
			<line class="st2" x1="264.58" y1="600.55" x2="264.58" y2="618.67"/>
			<line class="st2" x1="1449" y1="458.5" x2="1449" y2="472.53"/>
			<line class="st2" x1="1449" y1="529.53" x2="1449" y2="543.55"/>
			<line class="st2" x1="1449" y1="600.55" x2="1449" y2="618.67"/>
			<line class="st2" x1="316.5" y1="365.09" x2="316.5" y2="379.47"/>
			<line class="st2" x1="316.5" y1="206.85" x2="316.5" y2="245.5"/>
			<line class="st2" x1="316.5" y1="260.5" x2="316.5" y2="335.59"/>
			<line class="st2" x1="316.5" y1="113" x2="316.5" y2="137.85"/>
			<line class="st2" x1="720.98" y1="436.47" x2="720.98" y2="450.5"/>
			<line class="st2" x1="749.98" y1="422.56" x2="749.98" y2="450.5"/>
			<line class="st2" x1="817.98" y1="422.43" x2="817.98" y2="450.55"/>
			<line class="st2" x1="755.4" y1="422.5" x2="749.98" y2="422.5"/>
			<line class="st2" x1="817.98" y1="422.5" x2="812.48" y2="422.5"/>
			<line class="st2" x1="720.98" y1="365.09" x2="720.98" y2="379.47"/>
			<line class="st2" x1="720.5" y1="206.85" x2="720.5" y2="245.5"/>
			<line class="st2" x1="720.5" y1="260.5" x2="720.5" y2="335.59"/>
			<line class="st2" x1="720.5" y1="113" x2="720.5" y2="137.85"/>
			<line class="st2" x1="843.98" y1="436.47" x2="843.98" y2="450.5"/>
			<line class="st2" x1="870.06" y1="458.5" x2="870.06" y2="472.53"/>
			<line class="st2" x1="843.98" y1="365.09" x2="843.98" y2="379.47"/>
			<line class="st2" x1="843.98" y1="206.85" x2="843.98" y2="245.5"/>
			<line class="st2" x1="843.98" y1="260.5" x2="843.98" y2="335.59"/>
			<line class="st2" x1="843.98" y1="113" x2="843.98" y2="137.85"/>
			<line class="st2" x1="2933.98" y1="436.47" x2="2933.98" y2="450.5"/>
			<line class="st2" x1="2962.98" y1="422.56" x2="2962.98" y2="450.5"/>
			<line class="st2" x1="3030.98" y1="422.43" x2="3030.98" y2="450.55"/>
			<line class="st2" x1="2968.4" y1="422.5" x2="2962.98" y2="422.5"/>
			<line class="st2" x1="3030.98" y1="422.5" x2="3025.48" y2="422.5"/>
			<line class="st2" x1="2933.98" y1="365.09" x2="2933.98" y2="379.47"/>
			<line class="st2" x1="2933.5" y1="206.85" x2="2933.5" y2="245.5"/>
			<line class="st2" x1="2933.5" y1="260.5" x2="2933.5" y2="335.59"/>
			<line class="st2" x1="2933.5" y1="113" x2="2933.5" y2="137.85"/>
			<line class="st2" x1="3056.98" y1="436.47" x2="3056.98" y2="450.5"/>
			<line class="st2" x1="3083.06" y1="458.5" x2="3083.06" y2="472.53"/>
			<line class="st2" x1="3056.98" y1="365.09" x2="3056.98" y2="379.47"/>
			<line class="st2" x1="3056.98" y1="206.85" x2="3056.98" y2="245.5"/>
			<line class="st2" x1="3056.98" y1="260.5" x2="3056.98" y2="335.59"/>
			<line class="st2" x1="3056.98" y1="113" x2="3056.98" y2="137.85"/>
			<line class="st2" x1="1299.98" y1="436.47" x2="1299.98" y2="450.5"/>
			<line class="st2" x1="1328.98" y1="422.56" x2="1328.98" y2="450.5"/>
			<line class="st2" x1="1396.98" y1="422.43" x2="1396.98" y2="450.55"/>
			<line class="st2" x1="1334.4" y1="422.5" x2="1328.98" y2="422.5"/>
			<line class="st2" x1="1396.98" y1="422.5" x2="1391.48" y2="422.5"/>
			<line class="st2" x1="1299.98" y1="365.09" x2="1299.98" y2="379.47"/>
			<line class="st2" x1="1299.5" y1="206.85" x2="1299.5" y2="245.5"/>
			<line class="st2" x1="1299.5" y1="260.5" x2="1299.5" y2="335.59"/>
			<line class="st2" x1="1299.5" y1="113" x2="1299.5" y2="137.85"/>
			<line class="st2" x1="1422.98" y1="436.47" x2="1422.98" y2="450.5"/>
			<line class="st2" x1="1422.98" y1="365.09" x2="1422.98" y2="379.47"/>
			<line class="st2" x1="1422.98" y1="206.85" x2="1422.98" y2="245.5"/>
			<line class="st2" x1="1422.98" y1="260.5" x2="1422.98" y2="335.59"/>
			<line class="st2" x1="1422.98" y1="113" x2="1422.98" y2="137.85"/>
			<line class="st2" x1="2026.02" y1="458.5" x2="2026.02" y2="472.53"/>
			<line class="st2" x1="2026.02" y1="529.53" x2="2026.02" y2="543.55"/>
			<line class="st2" x1="2026.02" y1="600.55" x2="2026.02" y2="618.67"/>
			<line class="st2" x1="1877" y1="436.47" x2="1877" y2="450.5"/>
			<line class="st2" x1="1906" y1="422.56" x2="1906" y2="450.5"/>
			<line class="st2" x1="1974" y1="422.43" x2="1974" y2="450.55"/>
			<line class="st2" x1="1911.42" y1="422.5" x2="1906" y2="422.5"/>
			<line class="st2" x1="1974" y1="422.5" x2="1968.5" y2="422.5"/>
			<line class="st2" x1="1877" y1="365.09" x2="1877" y2="379.47"/>
			<line class="st2" x1="1876.52" y1="206.85" x2="1876.52" y2="245.5"/>
			<line class="st2" x1="1876.52" y1="260.5" x2="1876.52" y2="335.59"/>
			<line class="st2" x1="1876.52" y1="113" x2="1876.52" y2="137.85"/>
			<line class="st2" x1="2000" y1="436.47" x2="2000" y2="450.5"/>
			<line class="st2" x1="2000" y1="365.09" x2="2000" y2="379.47"/>
			<line class="st2" x1="2000" y1="206.85" x2="2000" y2="245.5"/>
			<line class="st2" x1="2000" y1="260.5" x2="2000" y2="335.59"/>
			<line class="st2" x1="2000" y1="113" x2="2000" y2="137.85"/>
			<line class="st2" x1="870.08" y1="543.5" x2="342.6" y2="543.5"/>
			<line class="st2" x1="2405.98" y1="436.47" x2="2405.98" y2="450.5"/>
			<line class="st2" x1="2434.98" y1="422.56" x2="2434.98" y2="450.5"/>
			<line class="st2" x1="2502.98" y1="422.43" x2="2502.98" y2="450.55"/>
			<line class="st2" x1="2440.4" y1="422.5" x2="2434.98" y2="422.5"/>
			<line class="st2" x1="2502.98" y1="422.5" x2="2497.48" y2="422.5"/>
			<line class="st2" x1="2405.98" y1="365.09" x2="2405.98" y2="379.47"/>
			<line class="st2" x1="2405.5" y1="206.85" x2="2405.5" y2="245.5"/>
			<line class="st2" x1="2405.5" y1="260.5" x2="2405.5" y2="335.59"/>
			<line class="st2" x1="2405.5" y1="113" x2="2405.5" y2="137.85"/>
			<line class="st2" x1="2528.98" y1="436.47" x2="2528.98" y2="450.5"/>
			<line class="st2" x1="2555.06" y1="458.5" x2="2555.06" y2="472.53"/>
			<line class="st2" x1="2477.06" y1="458.5" x2="2477.06" y2="472.53"/>
			<line class="st2" x1="2477.06" y1="529.53" x2="2477.06" y2="543.55"/>
			<line class="st2" x1="3035.06" y1="543.5" x2="2558.98" y2="543.5"/>
			<line class="st2" x1="2555.08" y1="529.53" x2="2555.08" y2="543.5"/>
			<line class="st2" x1="3082.56" y1="529.53" x2="3082.56" y2="543.5"/>
			<line class="st2" x1="2477.06" y1="600.55" x2="2477.06" y2="618.67"/>
			<line class="st2" x1="2528.98" y1="365.09" x2="2528.98" y2="379.47"/>
			<line class="st2" x1="2528.98" y1="206.85" x2="2528.98" y2="245.5"/>
			<line class="st2" x1="2528.98" y1="260.5" x2="2528.98" y2="335.59"/>
			<line class="st2" x1="2528.98" y1="113" x2="2528.98" y2="137.85"/>
			<line class="st2" x1="3082.56" y1="543.5" x2="2555.08" y2="543.5"/>
		</g>
		<g id="kV04_1_">
			<line class="st3" x1="179.48" y1="454.5" x2="237.48" y2="454.5"/>
			<line class="st3" x1="251" y1="454.5" x2="355" y2="454.5"/>
			<line class="st3" x1="2391.96" y1="454.5" x2="2449.96" y2="454.5"/>
			<line class="st3" x1="2463.48" y1="454.5" x2="2567.48" y2="454.5"/>
			<line class="st3" x1="706.96" y1="454.5" x2="764.96" y2="454.5"/>
			<line class="st3" x1="805" y1="454.5" x2="882.48" y2="454.5"/>
			<line class="st3" x1="2919.96" y1="454.5" x2="2977.96" y2="454.5"/>
			<line class="st3" x1="3018" y1="454.5" x2="3095.48" y2="454.5"/>
			<line class="st3" x1="1285.96" y1="454.5" x2="1343.96" y2="454.5"/>
			<line class="st3" x1="1384" y1="454.5" x2="1461.48" y2="454.5"/>
			<line class="st3" x1="1862.98" y1="454.5" x2="1920.98" y2="454.5"/>
			<line class="st3" x1="1961.02" y1="454.5" x2="2038.5" y2="454.5"/>
		</g>
		<g id="kV10_1_">
			<line class="st4" x1="180.42" y1="109" x2="206.42" y2="109"/>
			<line class="st4" x1="303.9" y1="109" x2="329.9" y2="109"/>
			<line class="st4" x1="2392.9" y1="109" x2="2418.9" y2="109"/>
			<line class="st4" x1="2516.38" y1="109" x2="2542.38" y2="109"/>
			<line class="st4" x1="707.9" y1="109" x2="733.9" y2="109"/>
			<line class="st4" x1="831.38" y1="109" x2="857.38" y2="109"/>
			<line class="st4" x1="2920.9" y1="109" x2="2946.9" y2="109"/>
			<line class="st4" x1="3044.38" y1="109" x2="3070.38" y2="109"/>
			<line class="st4" x1="1286.9" y1="109" x2="1312.9" y2="109"/>
			<line class="st4" x1="1410.38" y1="109" x2="1436.38" y2="109"/>
			<line class="st4" x1="1863.92" y1="109" x2="1889.92" y2="109"/>
			<line class="st4" x1="1987.4" y1="109" x2="2013.4" y2="109"/>
		</g>
	</g>
	<g id="points">
		<g id="kV04">
			<circle class="st5" cx="193.5" cy="454.5" r="4"/>
			<circle class="st5" cx="222.5" cy="454.5" r="4"/>
			<circle class="st5" cx="264.5" cy="454.5" r="4"/>
			<circle class="st5" cx="290.5" cy="454.5" r="4"/>
			<circle class="st5" cx="316.5" cy="454.5" r="4"/>
			<circle class="st5" cx="342.5" cy="454.5" r="4"/>
			<circle class="st5" cx="2405.98" cy="454.5" r="4"/>
			<circle class="st5" cx="2434.98" cy="454.5" r="4"/>
			<circle class="st5" cx="2476.98" cy="454.5" r="4"/>
			<circle class="st5" cx="2502.98" cy="454.5" r="4"/>
			<circle class="st5" cx="2528.98" cy="454.5" r="4"/>
			<circle class="st5" cx="2554.98" cy="454.5" r="4"/>
			<circle class="st5" cx="720.98" cy="454.5" r="4"/>
			<circle class="st5" cx="749.98" cy="454.5" r="4"/>
			<circle class="st5" cx="817.98" cy="454.5" r="4"/>
			<circle class="st5" cx="843.98" cy="454.5" r="4"/>
			<circle class="st5" cx="869.98" cy="454.5" r="4"/>
			<circle class="st5" cx="2933.98" cy="454.5" r="4"/>
			<circle class="st5" cx="2962.98" cy="454.5" r="4"/>
			<circle class="st5" cx="3030.98" cy="454.5" r="4"/>
			<circle class="st5" cx="3056.98" cy="454.5" r="4"/>
			<circle class="st5" cx="3082.98" cy="454.5" r="4"/>
			<circle class="st5" cx="1299.98" cy="454.5" r="4"/>
			<circle class="st5" cx="1328.98" cy="454.5" r="4"/>
			<circle class="st5" cx="1396.98" cy="454.5" r="4"/>
			<circle class="st5" cx="1422.98" cy="454.5" r="4"/>
			<circle class="st5" cx="1448.98" cy="454.5" r="4"/>
			<circle class="st5" cx="1877" cy="454.5" r="4"/>
			<circle class="st5" cx="1906" cy="454.5" r="4"/>
			<circle class="st5" cx="1974" cy="454.5" r="4"/>
			<circle class="st5" cx="2000" cy="454.5" r="4"/>
			<circle class="st5" cx="2026" cy="454.5" r="4"/>
		</g>
		<g id="kV10">
			<circle class="st6" cx="193.42" cy="109" r="4"/>
			<circle class="st6" cx="316.9" cy="109" r="4"/>
			<circle class="st6" cx="2405.9" cy="109" r="4"/>
			<circle class="st6" cx="2529.38" cy="109" r="4"/>
			<circle class="st6" cx="720.9" cy="109" r="4"/>
			<circle class="st6" cx="844.38" cy="109" r="4"/>
			<circle class="st6" cx="2933.9" cy="109" r="4"/>
			<circle class="st6" cx="3057.38" cy="109" r="4"/>
			<circle class="st6" cx="1299.9" cy="109" r="4"/>
			<circle class="st6" cx="1423.38" cy="109" r="4"/>
			<circle class="st6" cx="1876.92" cy="109" r="4"/>
			<circle class="st6" cx="2000.4" cy="109" r="4"/>
		</g>
	</g>
</g>
<g id="tables">
	<g id="rect">
		<path class="st7" d="M2039.48,55.53V15.82c-0.01-2.66-2.22-4.83-4.91-4.82l-851.14,0.27c-2.7,0.01-4.9,2.19-4.89,4.84l0.02,6.24
			l0.04,32.82c0.01,2.66,2.22,4.83,4.91,4.82l851.14-0.27c2.7-0.01,4.9-2.19,4.89-4.84L2039.48,55.53z"/>
	</g>
	<g id="text">
		<g id="elem-text">
			<text transform="matrix(1 0 0 1 208.7641 356.6911)" class="st0 st8 st9">Т1</text>
			<text transform="matrix(1 0 0 1 332.2438 356.6911)" class="st0 st8 st9">Т2</text>
			<text transform="matrix(1 0 0 1 2421.2439 356.6911)" class="st0 st8 st9">Т1</text>
			<text transform="matrix(1 0 0 1 2544.7234 356.6911)" class="st0 st8 st9">Т2</text>
			<text transform="matrix(1 0 0 1 736.2438 356.6911)" class="st0 st8 st9">Т1</text>
			<text transform="matrix(1 0 0 1 859.7234 356.6911)" class="st0 st8 st9">Т2</text>
			<text transform="matrix(1 0 0 1 2949.2439 356.6911)" class="st0 st8 st9">Т1</text>
			<text transform="matrix(1 0 0 1 3072.7234 356.6911)" class="st0 st8 st9">Т2</text>
			<text transform="matrix(1 0 0 1 1315.2438 356.6911)" class="st0 st8 st9">Т1</text>
			<text transform="matrix(1 0 0 1 1438.7234 356.6911)" class="st0 st8 st9">Т2</text>
			<text transform="matrix(1 0 0 1 1892.2646 356.6911)" class="st0 st8 st9">Т1</text>
			<text transform="matrix(1 0 0 1 2015.7441 356.6911)" class="st0 st8 st9">Т2</text>
		</g>
		<g id="subtitles">
			<text transform="matrix(1 0 0 1 204.8234 412.9723)" class="st0 st8 st10">1ВВ</text>
			<text transform="matrix(1 0 0 1 204.7921 258.0001)" class="st0 st8 st10">УВН1</text>
			<text transform="matrix(1 0 0 1 193.5002 473.1002)" class="st0 st8 st10">1С-0,4</text>
			<text transform="matrix(1 0 0 1 180.0974 100.0001)" class="st0 st8 st10">1С-10</text>
			<text transform="matrix(1 0 0 1 327.8234 412.9723)" class="st0 st8 st10">2ВВ</text>
			<text transform="matrix(1 0 0 1 327.7921 258.0001)" class="st0 st8 st10">УВН2</text>
			<text transform="matrix(1 0 0 1 303.0974 100.0001)" class="st0 st8 st10">1С-10</text>
			<text transform="matrix(1 0 0 1 271.6737 505.5503)" class="st0 st8 st10">АВ</text>
			<text transform="matrix(1 0 0 1 271.6737 571.1196)" class="st0 st8 st10">АВГ</text>
			<text transform="matrix(1 0 0 1 1456.0913 505.5503)" class="st0 st8 st10">АВ</text>
			<text transform="matrix(1 0 0 1 1456.0913 571.1196)" class="st0 st8 st10">АВГ</text>
			<text transform="matrix(1 0 0 1 250.2754 412.0566)" class="st0 st8 st10">СВ</text>
			<text transform="matrix(1 0 0 1 2417.303 412.9723)" class="st0 st8 st10">1ВВ</text>
			<text transform="matrix(1 0 0 1 2417.2717 258.0001)" class="st0 st8 st10">УВН1</text>
			<text transform="matrix(1 0 0 1 2405.98 473.1002)" class="st0 st8 st10">1С-0,4</text>
			<text transform="matrix(1 0 0 1 2392.5771 100.0001)" class="st0 st8 st10">1С-10</text>
			<text transform="matrix(1 0 0 1 2540.303 412.9723)" class="st0 st8 st10">2ВВ</text>
			<text transform="matrix(1 0 0 1 2540.2717 258.0001)" class="st0 st8 st10">УВН2</text>
			<text transform="matrix(1 0 0 1 2515.5771 100.0001)" class="st0 st8 st10">1С-10</text>
			<text transform="matrix(1 0 0 1 289.229 473.1021)" class="st0 st8 st10">2С-0,4</text>
			<text transform="matrix(1 0 0 1 349.6327 505.5503)" class="st0 st8 st10">QF28</text>
			<text transform="matrix(1 0 0 1 2501.7087 473.1021)" class="st0 st8 st10">2С-0,4</text>
			<text transform="matrix(1 0 0 1 2562.1125 505.5503)" class="st0 st8 st10">QF28</text>
			<text transform="matrix(1 0 0 1 2484.1536 505.5503)" class="st0 st8 st10">АВ</text>
			<text transform="matrix(1 0 0 1 2484.1536 571.1196)" class="st0 st8 st10">АВГ</text>
			<text transform="matrix(1 0 0 1 2462.7551 412.0566)" class="st0 st8 st10">СВ</text>
			<text transform="matrix(1 0 0 1 732.303 412.9723)" class="st0 st8 st10">1ВВ</text>
			<text transform="matrix(1 0 0 1 732.2717 258.0001)" class="st0 st8 st10">УВН1</text>
			<text transform="matrix(1 0 0 1 720.5004 473.1002)" class="st0 st8 st10">1С-0,4</text>
			<text transform="matrix(1 0 0 1 707.577 100.0001)" class="st0 st8 st10">1С-10</text>
			<text transform="matrix(1 0 0 1 855.303 412.9723)" class="st0 st8 st10">2ВВ</text>
			<text transform="matrix(1 0 0 1 855.2717 258.0001)" class="st0 st8 st10">УВН2</text>
			<text transform="matrix(1 0 0 1 830.577 100.0001)" class="st0 st8 st10">1С-10</text>
			<text transform="matrix(1 0 0 1 830.731 473.1021)" class="st0 st8 st10">2С-0,4</text>
			<text transform="matrix(1 0 0 1 777.755 412.0566)" class="st0 st8 st10">СВ</text>
			<text transform="matrix(1 0 0 1 878.2716 508.5349)" class="st0 st8 st10">АВ</text>
			<text transform="matrix(1 0 0 1 2945.303 412.9723)" class="st0 st8 st10">1ВВ</text>
			<text transform="matrix(1 0 0 1 2945.2717 258.0001)" class="st0 st8 st10">УВН1</text>
			<text transform="matrix(1 0 0 1 2933.5005 473.1002)" class="st0 st8 st10">1С-0,4</text>
			<text transform="matrix(1 0 0 1 2920.5771 100.0001)" class="st0 st8 st10">1С-10</text>
			<text transform="matrix(1 0 0 1 3068.303 412.9723)" class="st0 st8 st10">2ВВ</text>
			<text transform="matrix(1 0 0 1 3068.2717 258.0001)" class="st0 st8 st10">УВН2</text>
			<text transform="matrix(1 0 0 1 3043.5771 100.0001)" class="st0 st8 st10">1С-10</text>
			<text transform="matrix(1 0 0 1 3043.731 473.1021)" class="st0 st8 st10">2С-0,4</text>
			<text transform="matrix(1 0 0 1 2990.7551 412.0566)" class="st0 st8 st10">СВ</text>
			<text transform="matrix(1 0 0 1 3091.2717 508.5349)" class="st0 st8 st10">АВ</text>
			<text transform="matrix(1 0 0 1 1311.303 412.9723)" class="st0 st8 st10">1ВВ</text>
			<text transform="matrix(1 0 0 1 1311.2717 258.0001)" class="st0 st8 st10">УВН1</text>
			<text transform="matrix(1 0 0 1 1299.5004 473.1002)" class="st0 st8 st10">1С-0,4</text>
			<text transform="matrix(1 0 0 1 1286.577 100.0001)" class="st0 st8 st10">1С-10</text>
			<text transform="matrix(1 0 0 1 1434.303 412.9723)" class="st0 st8 st10">2ВВ</text>
			<text transform="matrix(1 0 0 1 1434.2717 258.0001)" class="st0 st8 st10">УВН2</text>
			<text transform="matrix(1 0 0 1 1409.577 100.0001)" class="st0 st8 st10">1С-10</text>
			<text transform="matrix(1 0 0 1 1409.731 473.1021)" class="st0 st8 st10">2С-0,4</text>
			<text transform="matrix(1 0 0 1 1356.755 412.0566)" class="st0 st8 st10">СВ</text>
			<text transform="matrix(1 0 0 1 2033.1121 505.5503)" class="st0 st8 st10">АВ</text>
			<text transform="matrix(1 0 0 1 2033.1121 571.1196)" class="st0 st8 st10">АВГ</text>
			<text transform="matrix(1 0 0 1 1888.3237 412.9723)" class="st0 st8 st10">1ВВ</text>
			<text transform="matrix(1 0 0 1 1888.2925 258.0001)" class="st0 st8 st10">УВН1</text>
			<text transform="matrix(1 0 0 1 1876.5212 473.1002)" class="st0 st8 st10">1С-0,4</text>
			<text transform="matrix(1 0 0 1 1863.5979 100.0001)" class="st0 st8 st10">1С-10</text>
			<text transform="matrix(1 0 0 1 2011.3237 412.9723)" class="st0 st8 st10">2ВВ</text>
			<text transform="matrix(1 0 0 1 2011.2925 258.0001)" class="st0 st8 st10">УВН2</text>
			<text transform="matrix(1 0 0 1 1986.5979 100.0001)" class="st0 st8 st10">1С-10</text>
			<text transform="matrix(1 0 0 1 1986.7517 473.1021)" class="st0 st8 st10">2С-0,4</text>
			<text transform="matrix(1 0 0 1 1933.7759 412.0566)" class="st0 st8 st10">СВ</text>
		</g>
		<g id="titles">
			<text transform="matrix(1 0 0 1 226.4656 295.9302)" class="st0 st8 st11">ТП-5ТХ2</text>
			<text transform="matrix(1 0 0 1 753.9452 295.9302)" class="st0 st8 st11">ТП-5ТХ3</text>
			<text transform="matrix(1 0 0 1 1335.777 295.9299)" class="st0 st8 st11">ТП-5НК</text>
			<text transform="matrix(1 0 0 1 1910.0068 295.9299)" class="st0 st8 st11">ТП-5СЭБ</text>
			<text transform="matrix(1 0 0 1 2442.7861 295.9297)" class="st0 st8 st11">ТП-5КУ</text>
			<text transform="matrix(1 0 0 1 2967.4463 295.9297)" class="st0 st8 st11">ТП-5ТХ3</text>
			<text transform="matrix(0.9633 0 0 1 281.2913 635.3538)" class="st0 st8 st11">АДЭС-ТП-5ТХ2</text>
			<text transform="matrix(0.9633 0 0 1 1465.2916 635.3538)" class="st0 st8 st11">АДЭС-ТП-5НК</text>
			<text transform="matrix(0.9633 0 0 1 2043.2919 635.3538)" class="st0 st8 st11">АДЭС-ТП-5СЭБ</text>
			<text transform="matrix(0.9633 0 0 1 2493.4009 635.3538)" class="st0 st8 st11">АДЭС-ТП-5КУ</text>
			<text transform="matrix(1 0 0 1 213.8519 175.9292)" class="st0 st8 st11">1</text>
			<text transform="matrix(1 0 0 1 337.3519 175.9292)" class="st0 st8 st11">2</text>
			<text transform="matrix(1 0 0 1 227.5563 103.9292)" class="st0 st8 st11">РУ-10кВ</text>
			<text transform="matrix(1 0 0 1 2440.0359 103.9292)" class="st0 st8 st11">РУ-10кВ</text>
			<text transform="matrix(1 0 0 1 755.0359 103.9292)" class="st0 st8 st11">РУ-10кВ</text>
			<text transform="matrix(1 0 0 1 2968.0359 103.9292)" class="st0 st8 st11">РУ-10кВ</text>
			<text transform="matrix(1 0 0 1 1334.0359 103.9292)" class="st0 st8 st11">РУ-10кВ</text>
			<text transform="matrix(1 0 0 1 1911.0566 103.9292)" class="st0 st8 st11">РУ-10кВ</text>
			<text transform="matrix(1 0 0 1 2426.3318 175.9292)" class="st0 st8 st11">11</text>
			<text transform="matrix(1 0 0 1 2549.8318 175.9292)" class="st0 st8 st11">12</text>
			<text transform="matrix(1 0 0 1 741.3315 175.9292)" class="st0 st8 st11">5</text>
			<text transform="matrix(1 0 0 1 864.8315 175.9292)" class="st0 st8 st11">4</text>
			<text transform="matrix(1 0 0 1 2954.3315 175.9292)" class="st0 st8 st11">5</text>
			<text transform="matrix(1 0 0 1 3077.8315 175.9292)" class="st0 st8 st11">4</text>
			<text transform="matrix(1 0 0 1 1897.3523 175.9292)" class="st0 st8 st11">25</text>
			<text transform="matrix(1 0 0 1 1320.3315 175.9292)" class="st0 st8 st11">5</text>
			<text transform="matrix(1 0 0 1 1443.8315 175.9292)" class="st0 st8 st11">6</text>
			<text transform="matrix(1 0 0 1 2020.8523 175.9292)" class="st0 st8 st11">26</text>
		</g>
		<g id="main">
			<g>
				<text transform="matrix(1 -2.470000e-03 2.470000e-03 1 1376.9061 44.9228)" class="st12 st8 st13">Электроснабжение трансформаторных подстанций ГП-51</text>
			</g>
		</g>
	</g>
</g>
</svg>
