<?xml version="1.0" encoding="utf-8"?>
<!-- Generator: Adobe Illustrator 23.0.1, SVG Export Plug-In . SVG Version: 6.00 Build 0)  -->
<svg version="1.1" xmlns="http://www.w3.org/2000/svg" xmlns:xlink="http://www.w3.org/1999/xlink" x="0px" y="0px"
	 viewBox="0 0 723 551" style="enable-background:new 0 0 723 551;" xml:space="preserve">
<style type="text/css">
	.st0{fill:#EEEEEF;stroke:#6C6E7A;stroke-miterlimit:10;}
	.st1{fill:#909091;}
	.st2{font-family:'UbuntuCondensed-Regular';}
	.st3{font-size:16px;}
	.st4{font-size:14px;}
	.st5{font-size:20px;}
	.st6{fill:#21282D;}
	.st7{font-size:21px;}
	.st8{fill:none;stroke:#000000;stroke-width:0.5;stroke-miterlimit:10;}
	.st9{fill:none;stroke:#7030A0;stroke-width:6;stroke-miterlimit:10;}
	.st10{fill:none;stroke:#6C6E7A;stroke-width:6;stroke-miterlimit:10;}
	.st11{fill:#F5F3F3;stroke:#7030A0;stroke-miterlimit:10;}
	.st12{fill:#F5F3F3;stroke:#6C6E7A;stroke-miterlimit:10;}
	.st13{fill:#F5F3F3;}
</style>
<g id="SimpleElements">
	<g id="switch-cart-elem">
		
			<image style="overflow:visible;" width="22" height="69" id="id1" xlink:href="../../../elements/switch-cart-elem/pub/default.png"  transform="matrix(1 0 0 1 13.5 134.354)">
		</image>
	</g>
	<g id="multi-tit-elem">
		
			<image style="overflow:visible;" width="134" height="192" id="id2" xlink:href="../../../elements/multi-tit-elem/pub/multi-tit_titcount-6_no-arroworient.png"  transform="matrix(1.0969 0 0 1.0969 78.0071 309.1967)">
		</image>
		
			<image style="overflow:visible;" width="134" height="192" id="id3" xlink:href="../../../elements/multi-tit-elem/pub/multi-tit_titcount-6_no-arroworient.png"  transform="matrix(1.0969 0 0 1.0969 328.007 309.1967)">
		</image>
		
			<image style="overflow:visible;" width="134" height="192" id="id4" xlink:href="../../../elements/multi-tit-elem/pub/multi-tit_titcount-6_no-arroworient.png"  transform="matrix(1.0969 0 0 1.0969 570.0071 309.1967)">
		</image>
	</g>
	<g id="earthing-knife-elem">
		
			<image style="overflow:visible;" width="45" height="18" id="id5" xlink:href="../../../elements/earthing-knife-elem/pub/default.png"  transform="matrix(1 0 0 1 21 406.637)">
		</image>
		
			<image style="overflow:visible;" width="45" height="18" id="id6" xlink:href="../../../elements/earthing-knife-elem/pub/default.png"  transform="matrix(1 0 0 1 21 220)">
		</image>
		
			<image style="overflow:visible;" width="45" height="18" id="id7" xlink:href="../../../elements/earthing-knife-elem/pub/default.png"  transform="matrix(1 0 0 1 271.017 406.637)">
		</image>
		
			<image style="overflow:visible;" width="45" height="18" id="id8" xlink:href="../../../elements/earthing-knife-elem/pub/default.png"  transform="matrix(1 0 0 1 521 406.637)">
		</image>
	</g>
	<g id="disconnector-elem">
		
			<image style="overflow:visible;" width="16" height="11" id="id9" xlink:href="../../../elements/disconnector-elem/pub/default.png"  transform="matrix(0 -1 1 0 19 347.637)">
		</image>
		
			<image style="overflow:visible;" width="16" height="11" id="id10" xlink:href="../../../elements/disconnector-elem/pub/default.png"  transform="matrix(0 -1 1 0 19 505)">
		</image>
		
			<image style="overflow:visible;" width="16" height="11" id="id11" xlink:href="../../../elements/disconnector-elem/pub/default.png"  transform="matrix(0 -1 1 0 269 347.637)">
		</image>
		
			<image style="overflow:visible;" width="16" height="11" id="id12" xlink:href="../../../elements/disconnector-elem/pub/default.png"  transform="matrix(0 -1 1 0 269 505)">
		</image>
		
			<image style="overflow:visible;" width="16" height="11" id="id13" xlink:href="../../../elements/disconnector-elem/pub/default.png"  transform="matrix(0 -1 1 0 519 347.637)">
		</image>
		
			<image style="overflow:visible;" width="16" height="11" id="id14" xlink:href="../../../elements/disconnector-elem/pub/default.png"  transform="matrix(0 -1 1 0 519 505)">
		</image>
	</g>
</g>
<g id="tables">
	<g id="rect">
		<path class="st0" d="M712.46,55.03V15.32c-0.01-2.66-1.81-4.83-4-4.82L15.48,10.77c-2.19,0.01-3.99,2.19-3.98,4.84l0.01,6.24
			l0.03,32.82c0.01,2.66,1.81,4.83,4,4.82l692.97-0.27c2.19-0.01,3.99-2.19,3.98-4.84L712.46,55.03z"/>
	</g>
	<g id="text">
		<g id="elem-text">
			<text transform="matrix(1 0 0 1 39.7644 461.9904)" class="st1 st2 st3">Т1</text>
			<text transform="matrix(1 0 0 1 289.7644 461.9904)" class="st1 st2 st3">Т1</text>
			<text transform="matrix(1 0 0 1 539.7644 461.9904)" class="st1 st2 st3">Т1</text>
		</g>
		<g id="subtitles">
			<text transform="matrix(1 0 0 1 35.3438 501.5474)" class="st1 st2 st4">1ВВ</text>
			<text transform="matrix(1 0 0 1 35.3125 344.6372)" class="st1 st2 st4">УВН1</text>
			<text transform="matrix(1 0 0 1 11.3123 538.0464)" class="st1 st2 st4">С-0,4</text>
			<text transform="matrix(1 0 0 1 285.3438 501.5474)" class="st1 st2 st4">1ВВ</text>
			<text transform="matrix(1 0 0 1 285.3125 344.6372)" class="st1 st2 st4">УВН1</text>
			<text transform="matrix(1 0 0 1 261.3123 538.0464)" class="st1 st2 st4">С-0,4</text>
			<text transform="matrix(1 0 0 1 535.3438 501.5474)" class="st1 st2 st4">1ВВ</text>
			<text transform="matrix(1 0 0 1 535.3125 344.6372)" class="st1 st2 st4">УВН1</text>
			<text transform="matrix(1 0 0 1 511.3123 538.0464)" class="st1 st2 st4">С-0,4</text>
			<text transform="matrix(1 0 0 1 10.6952 96.5)" class="st1 st2 st4">2С-10</text>
		</g>
		<g id="titles">
			<text transform="matrix(1 0 0 1 117.8206 288.4292)" class="st1 st2 st5">ТП-5МПЗ</text>
			<text transform="matrix(1 0 0 1 367.7905 288.4292)" class="st1 st2 st5">ТП-5МП2</text>
			<text transform="matrix(1 0 0 1 617.7905 288.4292)" class="st1 st2 st5">ТП-5МП1</text>
			<text transform="matrix(1 0 0 1 121.8503 102.4292)" class="st1 st2 st5">РУ-10кВ</text>
			<text transform="matrix(1 0 0 1 45.3519 176.4292)" class="st1 st2 st5">28</text>
		</g>
		<g id="main">
			<g>
				<text transform="matrix(1 -2.470000e-03 2.470000e-03 1 46.5747 44.8288)" class="st6 st2 st7">Электроснабжение метанолопровода и газопровода ГП-51 от 2С-10кВ РУ-10кВ</text>
			</g>
		</g>
	</g>
</g>
<g id="lines">
	<g id="pipes">
		<g id="lep">
			<line class="st8" x1="24.5" y1="504.5" x2="24.5" y2="515.5"/>
			<line class="st8" x1="24.5" y1="470.39" x2="24.5" y2="489.5"/>
			<line class="st8" x1="24.5" y1="203.35" x2="24.5" y2="332.14"/>
			<line class="st8" x1="24.5" y1="347.14" x2="24.5" y2="440.89"/>
			<line class="st8" x1="274.5" y1="470.39" x2="274.5" y2="489.5"/>
			<line class="st8" x1="274.5" y1="250.5" x2="274.5" y2="332.14"/>
			<line class="st8" x1="274.5" y1="347.14" x2="274.5" y2="440.89"/>
			<line class="st8" x1="24.5" y1="109.5" x2="24.5" y2="134.35"/>
			<line class="st8" x1="524.5" y1="250.5" x2="24.5" y2="250.5"/>
			<line class="st8" x1="524.5" y1="250.5" x2="524.5" y2="332.14"/>
			<line class="st8" x1="524.5" y1="504.5" x2="524.5" y2="515.5"/>
			<line class="st8" x1="524.5" y1="470.39" x2="524.5" y2="489.5"/>
			<line class="st8" x1="524.5" y1="347.14" x2="524.5" y2="440.89"/>
			<line class="st8" x1="274.5" y1="504.5" x2="274.5" y2="515.5"/>
		</g>
		<g id="kV10">
			<line class="st9" x1="11.5" y1="105.5" x2="37.5" y2="105.5"/>
		</g>
		<g id="kV04_1_">
			<line class="st10" x1="10" y1="519.5" x2="39" y2="519.5"/>
			<line class="st10" x1="260" y1="519.5" x2="289" y2="519.5"/>
			<line class="st10" x1="510" y1="519.5" x2="539" y2="519.5"/>
		</g>
	</g>
	<g id="points">
		<g id="kV10_1_">
			<circle class="st11" cx="24.5" cy="105.5" r="4"/>
		</g>
		<g id="kV04">
			<circle class="st12" cx="24.5" cy="519.5" r="4"/>
			<circle class="st12" cx="274.5" cy="519.5" r="4"/>
			<circle class="st12" cx="524.5" cy="519.5" r="4"/>
		</g>
	</g>
	<g id="arc">
		<g>
			<circle cx="24.5" cy="250.5" r="2.5"/>
			<path class="st13" d="M24.5,249c0.83,0,1.5,0.67,1.5,1.5s-0.67,1.5-1.5,1.5s-1.5-0.67-1.5-1.5S23.67,249,24.5,249 M24.5,247
				c-1.93,0-3.5,1.57-3.5,3.5s1.57,3.5,3.5,3.5s3.5-1.57,3.5-3.5S26.43,247,24.5,247L24.5,247z"/>
		</g>
		<g>
			<circle cx="274.5" cy="250.5" r="2.5"/>
			<path class="st13" d="M274.5,249c0.83,0,1.5,0.67,1.5,1.5s-0.67,1.5-1.5,1.5s-1.5-0.67-1.5-1.5S273.67,249,274.5,249 M274.5,247
				c-1.93,0-3.5,1.57-3.5,3.5s1.57,3.5,3.5,3.5s3.5-1.57,3.5-3.5S276.43,247,274.5,247L274.5,247z"/>
		</g>
	</g>
</g>
<g id="elems">
	<g id="resists">
		<g>
			<path class="st1" d="M29,372v18h-9v-18H29 M30,371h-1h-9h-1v1v18v1h1h9h1v-1v-18V371L30,371z"/>
		</g>
		<g>
			<path class="st1" d="M279,372v18h-9v-18H279 M280,371h-1h-9h-1v1v18v1h1h9h1v-1v-18V371L280,371z"/>
		</g>
		<g>
			<path class="st1" d="M529,372v18h-9v-18H529 M530,371h-1h-9h-1v1v18v1h1h9h1v-1v-18V371L530,371z"/>
		</g>
	</g>
	<g id="tt">
		<g>
			<path class="st1" d="M524.48,450.89c5.38,0,9.75,4.37,9.75,9.75c0,5.38-4.37,9.75-9.75,9.75c-5.38,0-9.75-4.37-9.75-9.75
				C514.73,455.25,519.1,450.89,524.48,450.89 M524.48,449.89c-5.93,0-10.75,4.82-10.75,10.75s4.82,10.75,10.75,10.75
				c5.93,0,10.75-4.82,10.75-10.75S530.41,449.89,524.48,449.89L524.48,449.89z"/>
		</g>
		<g>
			<path class="st1" d="M524.47,440.89c0.38,0,0.76,0.02,1.14,0.07c5.35,0.63,9.18,5.47,8.55,10.82c-0.58,4.96-4.79,8.62-9.67,8.62
				c-0.38,0-0.76-0.02-1.14-0.07c-5.35-0.63-9.18-5.47-8.55-10.82C515.38,444.54,519.59,440.89,524.47,440.89 M524.47,439.89
				c-5.45,0-10.03,4.08-10.66,9.5c-0.33,2.85,0.46,5.66,2.24,7.92s4.33,3.68,7.18,4.01c0.42,0.05,0.84,0.07,1.26,0.07
				c5.45,0,10.03-4.08,10.66-9.5c0.69-5.89-3.54-11.24-9.43-11.92C525.31,439.91,524.89,439.89,524.47,439.89L524.47,439.89z"/>
		</g>
		<g>
			<path class="st1" d="M274.48,450.89c5.38,0,9.75,4.37,9.75,9.75c0,5.38-4.37,9.75-9.75,9.75c-5.38,0-9.75-4.37-9.75-9.75
				C264.73,455.25,269.1,450.89,274.48,450.89 M274.48,449.89c-5.93,0-10.75,4.82-10.75,10.75s4.82,10.75,10.75,10.75
				c5.93,0,10.75-4.82,10.75-10.75S280.41,449.89,274.48,449.89L274.48,449.89z"/>
		</g>
		<g>
			<path class="st1" d="M274.47,440.89c0.38,0,0.76,0.02,1.14,0.07c5.35,0.63,9.18,5.47,8.55,10.82c-0.58,4.96-4.79,8.62-9.67,8.62
				c-0.38,0-0.76-0.02-1.14-0.07c-5.35-0.63-9.18-5.47-8.55-10.82C265.38,444.54,269.59,440.89,274.47,440.89 M274.47,439.89
				c-5.45,0-10.03,4.08-10.66,9.5c-0.33,2.85,0.46,5.66,2.24,7.92c1.78,2.25,4.33,3.68,7.18,4.01c0.42,0.05,0.84,0.07,1.26,0.07
				c5.45,0,10.03-4.08,10.66-9.5c0.69-5.89-3.54-11.24-9.43-11.92C275.31,439.91,274.89,439.89,274.47,439.89L274.47,439.89z"/>
		</g>
		<g>
			<path class="st1" d="M24.48,450.89c5.38,0,9.75,4.37,9.75,9.75c0,5.38-4.37,9.75-9.75,9.75c-5.38,0-9.75-4.37-9.75-9.75
				C14.73,455.25,19.1,450.89,24.48,450.89 M24.48,449.89c-5.93,0-10.75,4.82-10.75,10.75s4.82,10.75,10.75,10.75
				s10.75-4.82,10.75-10.75S30.41,449.89,24.48,449.89L24.48,449.89z"/>
		</g>
		<g>
			<path class="st1" d="M24.47,440.89c0.38,0,0.76,0.02,1.14,0.07c5.35,0.63,9.18,5.47,8.55,10.82c-0.58,4.96-4.79,8.62-9.67,8.62
				c-0.38,0-0.76-0.02-1.14-0.07c-5.35-0.63-9.18-5.47-8.55-10.82C15.38,444.54,19.59,440.89,24.47,440.89 M24.47,439.89
				c-5.45,0-10.03,4.08-10.66,9.5c-0.69,5.89,3.54,11.24,9.43,11.92c0.42,0.05,0.84,0.07,1.26,0.07c5.45,0,10.03-4.08,10.66-9.5
				c0.69-5.89-3.54-11.24-9.43-11.92C25.31,439.91,24.89,439.89,24.47,439.89L24.47,439.89z"/>
		</g>
	</g>
</g>
<g id="helpers">
</g>
</svg>
