<?xml version="1.0" encoding="utf-8"?>
<!-- Generator: Adobe Illustrator 25.4.1, SVG Export Plug-In . SVG Version: 6.00 Build 0) -->
<svg version="1.1" xmlns="http://www.w3.org/2000/svg" xmlns:xlink="http://www.w3.org/1999/xlink" x="0px" y="0px"
	 viewBox="0 0 6913.1 633.7" style="enable-background:new 0 0 6913.1 633.7;" xml:space="preserve">
<style type="text/css">
	.st0{fill:none;stroke:#757474;stroke-width:3;stroke-miterlimit:10;}
	.st1{fill:#FFFFFF;stroke:#757474;stroke-width:3;stroke-miterlimit:10;}
	.st2{display:none;fill:#FFFFFF;stroke:#757474;stroke-width:3;stroke-miterlimit:10;}
	.st3{fill:#575A63;}
	.st4{font-family:'UbuntuCondensed-Regular';}
	.st5{font-size:20px;}
	.st6{letter-spacing:-1;}
	.st7{font-size:19.5399px;}
	.st8{font-size:17px;}
	.st9{fill:none;stroke:#757474;stroke-miterlimit:10;stroke-dasharray:12;}
	.st10{fill:none;stroke:#6C6E7A;stroke-width:0.75;stroke-miterlimit:10;}

.HIGHLIGHT{fill:none;stroke:#ff0000;stroke-width:3;stroke-miterlimit:10;}
	</style>
<g id="lines">
	<g id="pipes">
		<g id="drainage">
			<line class="st0" x1="1222" y1="562" x2="1222" y2="136"/>
			<polyline class="st0" points="1222,324 1106,324 1106,566 			"/>
			<line class="st0" x1="1103" y1="324" x2="1004" y2="324"/>
			<path class="st0" d="M283.6,406.4"/>
			<line class="st0" x1="1017" y1="137" x2="1223" y2="137"/>
			<line class="st0" x1="1660" y1="563" x2="1660" y2="136"/>
			<polyline class="HIGHLIGHT st0" points="1660,324.4 1544,324.4 1544,566 			"/>
			<line class="st0" x1="1548" y1="324" x2="1442" y2="324"/>
			<line class="st0" x1="1457" y1="136" x2="1661" y2="136"/>
			<line class="st0" x1="3153" y1="564" x2="3153" y2="137"/>
			<polyline class="st0" points="3153,324 3037,324 3037,563 			"/>
			<line class="st0" x1="3041" y1="324" x2="2936" y2="324"/>
			<line class="st0" x1="2950.5" y1="138" x2="3154.5" y2="138"/>
			<line class="st0" x1="3595" y1="563" x2="3595" y2="136"/>
			<polyline class="st0" points="3595,324 3479,324 3479,566 			"/>
			<line class="st0" x1="3483" y1="324" x2="3377" y2="324"/>
			<line class="st0" x1="3389.5" y1="137.5" x2="3596.5" y2="137.5"/>
			<line class="st0" x1="4034" y1="566" x2="4034" y2="136"/>
			<polyline class="st0" points="4034,324 3918,324 3918,565 			"/>
			<line class="st0" x1="3922" y1="324" x2="3815" y2="324"/>
			<line class="st0" x1="3829.5" y1="137" x2="4035.5" y2="137"/>
			<line class="st0" x1="4481" y1="564" x2="4481" y2="136"/>
			<polyline class="st0" points="4481,324 4366,324 4366,566 			"/>
			<line class="st0" x1="4368" y1="324" x2="4261" y2="324"/>
			<line class="HIGHLIGHT st0" x1="4274.8" y1="137.7" x2="4482" y2="137.7"/>
			<line class="st0" x1="4919" y1="565" x2="4919" y2="137"/>
			<polyline class="HIGHLIGHT st0" points="4918.8,323.9 4803,323.9 4803,563.9 			"/>
			<line class="HIGHLIGHT st0" x1="4807.9" y1="323.9" x2="4701.7" y2="323.9"/>
			<line class="st0" x1="4715" y1="138" x2="4920.5" y2="138"/>
			<line class="st0" x1="5358.5" y1="560" x2="5358.5" y2="138"/>
			<polyline class="st0" points="5359,324 5243,324 5243,562 			"/>
			<line class="st0" x1="5246" y1="324" x2="5140" y2="324"/>
			<line class="st0" x1="5155" y1="139" x2="5360" y2="139"/>
			<line class="st0" x1="5796.5" y1="560" x2="5796.5" y2="138"/>
			<polyline class="st0" points="5795,324 5679,324 5679,563 			"/>
			<line class="st0" x1="5683" y1="324" x2="5577" y2="324"/>
			<line class="st0" x1="5591" y1="139" x2="5798" y2="139"/>
			<line class="st0" x1="542" y1="136" x2="542" y2="316"/>
			<line class="st0" x1="846" y1="322" x2="846" y2="562"/>
			<polyline class="st0" points="293,599 493,599 493,138 846,138 846,324 553,324 			"/>
			<polyline class="st0" points="542,314 542,414 721,414 721,544 			"/>
			<line class="st0" x1="659" y1="562" x2="559" y2="562"/>
			<line class="HIGHLIGHT st0" x1="1862.9" y1="324.9" x2="2110.9" y2="324.9"/>
			<line class="HIGHLIGHT st0" x1="2149.7" y1="139.6" x2="2149.8" y2="334"/>
			<polyline class="HIGHLIGHT st0" points="2150.1,176.8 2023.3,176.8 2023.3,281.7 2137.6,281.7 			"/>
			<polyline class="HIGHLIGHT st0" points="2136.7,329.6 2136.7,414.8 1989.7,414.8 1989.7,595.1 			"/>
			<line class="HIGHLIGHT st0" x1="2159" y1="562.9" x2="2048.4" y2="562.9"/>
			<polyline class="st0" points="1862,563 1862,138 2184,138 2228,138 2228,562 2255,562 			"/>
			<path class="st0" d="M1660,563"/>
			<line class="HIGHLIGHT st0" x1="2422.2" y1="137.6" x2="2422.2" y2="321.2"/>
			<line class="st0" x1="2783" y1="319" x2="2783" y2="564"/>
			<polyline class="st0" points="2227,562 2363,562 2363,137 2783,137 2783,325 2440,325 			"/>
			<line class="st0" x1="6000" y1="324" x2="6336" y2="324"/>
			<line class="st0" x1="6373" y1="140" x2="6373" y2="324"/>
			<polyline class="st0" points="6372,177 6246,177 6246,283 6357,283 6357,316 			"/>
			<polyline class="st0" points="6355,325 6355,415 6131,415 6131,530 			"/>
			<line class="st0" x1="6369" y1="561" x2="6186" y2="561"/>
			<polyline class="HIGHLIGHT st0" points="2421.8,314.8 2421.9,415.4 2642.5,415.4 2642.5,528.3 			"/>
			<line class="HIGHLIGHT st0" x1="2578.3" y1="562.2" x2="2448.1" y2="562.2"/>
			<polyline class="st0" points="299,202 464,202 464,46 2330,46 2330,560 			"/>
			<line class="st0" x1="6606.5" y1="562" x2="6606.5" y2="337"/>
			<line class="st0" x1="6722.5" y1="558" x2="6722.5" y2="337"/>
			<line class="HIGHLIGHT st0" x1="845.4" y1="563" x2="1107" y2="563"/>
			<line class="HIGHLIGHT st0" x1="2136.6" y1="280.3" x2="2136.6" y2="317.8"/>
			<polyline class="st0" points="6851,562 6453,562 6453,138 5999,138 5999,563 5955,563 2781,563 			"/>
			<line class="st0" x1="1107" y1="563" x2="1225" y2="563"/>
			<line class="st0" x1="1220" y1="563" x2="1543" y2="563"/>
			<line class="st0" x1="1543" y1="563" x2="1664" y2="563"/>
			<line class="st0" x1="1663" y1="563" x2="1864" y2="563"/>
		</g>
	</g>
	<g id="arrows">
		<g id="drainage">
			<polyline class="st0" points="6729,419 6722.5,426 6716,419 			"/>
			<polyline class="st0" points="6614,427 6606.5,419 6599,427 			"/>
		</g>
	</g>
	<g id="points">
		<circle class="st1" cx="846" cy="324" r="4.5"/>
		<circle class="st1" cx="1106" cy="324" r="4.5"/>
		<circle class="st1" cx="1222" cy="324" r="4.5"/>
		<circle class="st1" cx="1106" cy="562" r="4.5"/>
		<circle class="st1" cx="1222" cy="562" r="4.5"/>
		<circle class="st1" cx="1544" cy="562" r="4.5"/>
		<circle class="st1" cx="1660" cy="562" r="4.5"/>
		<circle class="st1" cx="2330" cy="562" r="4.5"/>
		<circle class="st1" cx="3037" cy="562" r="4.5"/>
		<circle class="st1" cx="3153" cy="562" r="4.5"/>
		<circle class="st1" cx="3479" cy="562" r="4.5"/>
		<circle class="st1" cx="3595" cy="562" r="4.5"/>
		<circle class="st1" cx="3918" cy="562" r="4.5"/>
		<circle class="st1" cx="4034" cy="562" r="4.5"/>
		<circle class="st1" cx="4366" cy="562" r="4.5"/>
		<circle class="st1" cx="4482" cy="562" r="4.5"/>
		<circle class="st1" cx="4803" cy="562" r="4.5"/>
		<circle class="st1" cx="4919" cy="562" r="4.5"/>
		<circle class="st1" cx="5243" cy="562" r="4.5"/>
		<circle class="st1" cx="5359" cy="562" r="4.5"/>
		<circle class="st1" cx="5679" cy="562" r="4.5"/>
		<circle class="st1" cx="5795" cy="562" r="4.5"/>
		<circle class="st1" cx="6607" cy="562" r="4.5"/>
		<circle class="st1" cx="6723" cy="562" r="4.5"/>
		<circle class="st1" cx="1544" cy="324" r="4.5"/>
		<circle class="st1" cx="1659" cy="324" r="4.5"/>
		<circle class="st1" cx="1862" cy="324" r="4.5"/>
		<circle class="st1" cx="2783" cy="324" r="4.5"/>
		<circle class="st1" cx="3037" cy="324" r="4.5"/>
		<circle class="st1" cx="3153" cy="324" r="4.5"/>
		<circle class="st1" cx="3479" cy="324" r="4.5"/>
		<circle class="st1" cx="3595" cy="324" r="4.5"/>
		<circle class="st1" cx="3918" cy="324" r="4.5"/>
		<circle class="st1" cx="4034" cy="324" r="4.5"/>
		<circle class="st1" cx="4366" cy="324" r="4.5"/>
		<circle class="st1" cx="4481" cy="324" r="4.5"/>
		<circle class="st1" cx="4803" cy="324" r="4.5"/>
		<circle class="st1" cx="4918" cy="324" r="4.5"/>
		<circle class="st1" cx="5243" cy="324" r="4.5"/>
		<circle class="st1" cx="5358" cy="324" r="4.5"/>
		<circle class="st1" cx="5679" cy="324" r="4.5"/>
		<circle class="st1" cx="5796" cy="324" r="4.5"/>
		<circle class="st1" cx="6000" cy="324" r="4.5"/>
		<circle class="st1" cx="542" cy="138" r="4.5"/>
		<circle class="st1" cx="2150" cy="138" r="4.5"/>
		<circle class="st1" cx="2422" cy="138" r="4.5"/>
		<circle class="st1" cx="2150" cy="177" r="4.5"/>
		<circle class="st1" cx="6373" cy="138" r="4.5"/>
		<circle class="st1" cx="6373" cy="177" r="4.5"/>
		<circle class="st2" cx="773" cy="414.2" r="4.5"/>
		<circle class="st2" cx="2798.1" cy="414.9" r="4.5"/>
		<circle class="st2" cx="2001" cy="415.1" r="4.5"/>
		<circle class="st2" cx="6249.7" cy="416.9" r="4.5"/>
	</g>
</g>
<g id="text">
	<g id="px20">
		<text transform="matrix(1 0 0 1 661.6685 114.6049)" class="st3 st4 st5 st6">Узел запуска очистного устройства</text>
		<text transform="matrix(1 0 0 1 6202.1245 116.0305)" class="st3 st4 st5 st6">Узел приема очистного устройства </text>
		<text transform="matrix(1 0 0 1 2004.3434 114.9827)" class="st3 st4 st5 st6">Узел приема очистного устройства </text>
		<text transform="matrix(1 0 0 1 2612.8018 115.2787)" class="st3 st4 st5 st6">Узел запуска очистного устройства</text>
		<text transform="matrix(1 0 0 1 1223.0409 114.3022)" class="st3 st4 st5 st6">Крановый узел №1</text>
		<text transform="matrix(1.0236 0 0 1 5798.6216 118.9819)" class="st3 st4 st7 st6">Крановый узел №7</text>
		<text transform="matrix(1 0 0 1 5358.0845 117.3211)" class="st3 st4 st5 st6">Крановый узел №6</text>
		<text transform="matrix(1 0 0 1 4919.4746 118.3211)" class="st3 st4 st5 st6">Крановый узел №5</text>
		<text transform="matrix(1 0 0 1 4480.7344 117.321)" class="st3 st4 st5 st6">Крановый узел №4</text>
		<text transform="matrix(1 0 0 1 4034.4631 118.3211)" class="st3 st4 st5 st6">Крановый узел №3</text>
		<text transform="matrix(1 0 0 1 3595.5957 117.3211)" class="st3 st4 st5 st6">Крановый узел №2</text>
		<text transform="matrix(1 0 0 1 3156.1055 117.3211)" class="st3 st4 st5 st6">Крановый узел №1</text>
		<text transform="matrix(1 0 0 1 1659.6332 114.812)" class="st3 st4 st5 st6">Крановый узел №2</text>
		<text transform="matrix(1.0236 0 0 1 6595.2446 239.8177)"><tspan x="0" y="0" class="st3 st4 st7 st6">Площадка концевого</tspan><tspan x="20.5" y="23.4" class="st3 st4 st7 st6">подогревателя</tspan></text>
		<text transform="matrix(1.0236 0 0 1 6627.1094 494.6342)"><tspan x="0" y="0" class="st3 st4 st7 st6">Крановый</tspan><tspan x="6.8" y="19" class="st3 st4 st7 st6">узел №8</tspan></text>
	</g>
	<g id="px17">
		<text transform="matrix(1 0 0 1 5539.9683 145.7607)" class="st3 st4 st8 st6">Амбар</text>
		<text transform="matrix(1 0 0 1 5102.959 145.1933)" class="st3 st4 st8 st6">Амбар</text>
		<text transform="matrix(1 0 0 1 4662.6113 144.1933)" class="st3 st4 st8 st6">Амбар</text>
		<text transform="matrix(1 0 0 1 4223.2114 144.1933)" class="st3 st4 st8 st6">Амбар</text>
		<text transform="matrix(1 0 0 1 3777.3379 143.1744)" class="st3 st4 st8 st6">Амбар</text>
		<text transform="matrix(1 0 0 1 3336.4702 143.1744)" class="st3 st4 st8 st6">Амбар</text>
		<text transform="matrix(1 0 0 1 2897.98 144.1744)" class="st3 st4 st8 st6">Амбар</text>
		<text transform="matrix(1 0 0 1 1404.5414 143.1745)" class="st3 st4 st8 st6">Амбар</text>
		<text transform="matrix(1 0 0 1 964.7361 143.1905)" class="st3 st4 st8 st6">Амбар</text>
		<text transform="matrix(1 0 0 1 2897.4932 328.2436)" class="st3 st4 st8 st6">БРС</text>
		<text transform="matrix(1 0 0 1 1404.0492 329.4037)" class="st3 st4 st8 st6">БРС</text>
		<text transform="matrix(1 0 0 1 6385.1641 568.0934)" class="st3 st4 st8 st6">БРС</text>
		<text transform="matrix(1 0 0 1 2175.3833 568.0457)" class="st3 st4 st8 st6">БРС</text>
		<text transform="matrix(1 0 0 1 2409.4849 567.7604)" class="st3 st4 st8 st6">БРС</text>
		<text transform="matrix(1 0 0 1 521.3516 567.0867)" class="st3 st4 st8 st6">БРС</text>
		<text transform="matrix(1 0 0 1 965.7756 328.4037)" class="st3 st4 st8 st6">БРС</text>
		<text transform="matrix(1 0 0 1 5539.7842 327.7398)" class="st3 st4 st8 st6">БРС</text>
		<text transform="matrix(1 0 0 1 5102.4727 327.7398)" class="st3 st4 st8 st6">БРС</text>
		<text transform="matrix(1 0 0 1 4663.5986 327.7398)" class="st3 st4 st8 st6">БРС</text>
		<text transform="matrix(1 0 0 1 4222.1426 328.2436)" class="st3 st4 st8 st6">БРС</text>
		<text transform="matrix(1 0 0 1 3777.8513 328.2436)" class="st3 st4 st8 st6">БРС</text>
		<text transform="matrix(1 0 0 1 3337.8467 328.2436)" class="st3 st4 st8 st6">БРС</text>
	</g>
</g>
<g id="tables">
	<g id="t1">
		<path class="st9" d="M6728,623h-127c-9.4,0-21-11.6-21-21V492c0-9.4,11.6-21,21-21h127c9.4,0,21,11.6,21,21v110
			C6749,611.4,6737.4,623,6728,623z"/>
	</g>
	<g id="t2">
		<path class="st9" d="M6420,623h-448c-10.3,0-21-10.7-21-21V107c0-10.3,10.7-21,21-21h448c10.3,0,21,10.7,21,21v495
			C6441,612.3,6430.3,623,6420,623z"/>
	</g>
	<g id="t3">
		<path class="st9" d="M2836,623h-468c-9.5,0-21-11.5-21-21V107c0-9.5,11.5-21,21-21h468c9.5,0,21,11.5,21,21v495
			C2857,611.5,2845.5,623,2836,623z"/>
	</g>
	<g id="t4">
		<path class="st9" d="M2220,623h-387c-8.2,0-21-12.8-21-21V107c0-8.2,12.8-21,21-21h387c8.2,0,21,12.8,21,21v495
			C2241,610.2,2228.2,623,2220,623z"/>
	</g>
	<g id="t5">
		<path class="st9" d="M1343,623H960c-10.1,0-21-10.9-21-21V107c0-10.1,10.9-21,21-21h383c10.1,0,21,10.9,21,21v495
			C1364,612.1,1353.1,623,1343,623z"/>
	</g>
	<g id="t6">
		<path class="st9" d="M906,623H500c-11.2,0-21-9.8-21-21V107c0-11.2,9.8-21,21-21h406c11.2,0,21,9.8,21,21v495
			C927,613.2,917.2,623,906,623z"/>
	</g>
	<g id="t7">
		<path class="st9" d="M5479,623h-386c-11,0-21-10-21-21V107c0-11,10-21,21-21h386c11,0,21,10,21,21v495C5500,613,5490,623,5479,623
			z"/>
	</g>
	<g id="t8">
		<path class="st9" d="M5920,623h-388c-10.2,0-21-10.8-21-21V107c0-10.2,10.8-21,21-21h388c10.2,0,21,10.8,21,21v495
			C5941,612.2,5930.2,623,5920,623z"/>
	</g>
	<g id="t9">
		<path class="st9" d="M5038,623h-384c-11.6,0-21-9.4-21-21V107c0-11.6,9.4-21,21-21h384c11.6,0,21,9.4,21,21v495
			C5059,613.6,5049.6,623,5038,623z"/>
	</g>
	<g id="t10">
		<path class="st9" d="M4600,623h-388c-11.2,0-21-9.8-21-21V107c0-11.2,9.8-21,21-21h388c11.2,0,21,9.8,21,21v495
			C4621,613.2,4611.2,623,4600,623z"/>
	</g>
	<g id="t11">
		<path class="st9" d="M4158,623h-389c-10.3,0-21-10.7-21-21V107c0-10.3,10.7-21,21-21h389c10.3,0,21,10.7,21,21v495
			C4179,612.3,4168.3,623,4158,623z"/>
	</g>
	<g id="t12">
		<path class="st9" d="M3275,623h-387c-10.3,0-21-10.7-21-21V107c0-10.3,10.7-21,21-21h387c10.3,0,21,10.7,21,21v495
			C3296,612.3,3285.3,623,3275,623z"/>
	</g>
	<g id="t13">
		<rect x="5524" y="123" class="st10" width="68" height="29"/>
	</g>
	<g id="t14">
		<rect x="5087" y="123" class="st10" width="68" height="29"/>
	</g>
	<g id="t15">
		<path class="st9" d="M3715,623h-387c-11.2,0-21-9.8-21-21V107c0-11.2,9.8-21,21-21h387c11.2,0,21,9.8,21,21v495
			C3736,613.2,3726.2,623,3715,623z"/>
	</g>
	<g id="t16">
		<rect x="4206" y="123" class="st10" width="68" height="29"/>
	</g>
	<g id="t17">
		<rect x="3761" y="123" class="st10" width="68" height="29"/>
	</g>
	<g id="t18">
		<path class="st9" d="M1782,623h-386c-9.6,0-21-11.4-21-21V107c0-9.6,11.4-21,21-21h386c9.6,0,21,11.4,21,21v495
			C1803,611.6,1791.6,623,1782,623z"/>
	</g>
	<g id="t19">
		<rect x="3320" y="123" class="st10" width="69" height="29"/>
	</g>
	<g id="t20">
		<rect x="2882" y="123" class="st10" width="68" height="29"/>
	</g>
	<g id="t21">
		<rect x="1388" y="123" class="st10" width="69" height="29"/>
	</g>
	<g id="t22">
		<rect x="2882" y="308" class="st10" width="54" height="28"/>
	</g>
	<g id="t23">
		<rect x="949" y="123" class="st10" width="68" height="29"/>
	</g>
	<g id="t24">
		<rect x="1388" y="308" class="st10" width="54" height="28"/>
	</g>
	<g id="t25">
		<rect x="6583" y="215" class="st10" width="162" height="122"/>
	</g>
	<g id="t26">
		<rect x="6369" y="548" class="st10" width="55" height="26"/>
	</g>
	<g id="t27">
		<rect x="2159" y="548" class="st10" width="55" height="26"/>
	</g>
	<g id="t28">
		<rect x="2393" y="548" class="st10" width="55" height="26"/>
	</g>
	<g id="t29">
		<rect x="504" y="548" class="st10" width="55" height="26"/>
	</g>
	<g id="t30">
		<rect x="949" y="308" class="st10" width="56" height="28"/>
	</g>
	<g id="t31">
		<rect x="5524" y="308" class="st10" width="54" height="28"/>
	</g>
	<g id="t32">
		<rect x="5087" y="308" class="st10" width="54" height="28"/>
	</g>
	<g id="t33">
		<rect x="4206" y="308" class="st10" width="54" height="28"/>
	</g>
	<g id="t34">
		<rect x="4647" y="308" class="st10" width="55" height="28"/>
	</g>
	<g id="t35">
		<rect x="3761" y="308" class="st10" width="55" height="28"/>
	</g>
	<g id="t36">
		<rect x="3320" y="308" class="st10" width="56" height="28"/>
	</g>
	<g id="t37">
		<rect x="4647" y="123" class="st10" width="68" height="29"/>
	</g>
</g>
</svg>
