<?xml version="1.0" encoding="utf-8"?>
<!-- Generator: Adobe Illustrator 25.4.1, SVG Export Plug-In . SVG Version: 6.00 Build 0)  -->
<svg version="1.1" xmlns="http://www.w3.org/2000/svg" xmlns:xlink="http://www.w3.org/1999/xlink" x="0px" y="0px"
	 width="3966.5px" height="975.3px" viewBox="0 0 3966.5 975.3" style="enable-background:new 0 0 3966.5 975.3;"
	 xml:space="preserve">
<style type="text/css">
	.st0{fill:none;stroke:#B2407E;stroke-width:3;stroke-miterlimit:10;}
	.st1{fill:none;stroke:#757474;stroke-width:3;stroke-miterlimit:10;}
	.st2{fill:none;stroke:#F3C811;stroke-width:3;stroke-miterlimit:10;}
	.st3{fill:#FFFFFF;stroke:#B2407E;stroke-width:3;stroke-miterlimit:10;}
	.st4{fill:#FFFFFF;stroke:#F3C811;stroke-width:3;stroke-miterlimit:10;}
	.st5{fill:#FFFFFF;stroke:#757474;stroke-width:3;stroke-miterlimit:10;}
</style>
<g id="SimpleElements">
	<g id="heater-elem">
		
			<image style="overflow:visible;" width="272" height="130" id="id1" xlink:href="../../../../../Users/evgen/OneDrive/Рабочий стол/workspace/_work/arh/Elements/heater-elem/pub/default.png"  transform="matrix(1 0 0 1 658 13)">
		</image>
		
			<image style="overflow:visible;" width="272" height="130" id="id2_00000146494785703421231000000000742682571512939909_" xlink:href="../../../../../Users/evgen/OneDrive/Рабочий стол/workspace/_work/arh/Elements/heater-elem/pub/default.png"  transform="matrix(1 0 0 1 1555 13)">
		</image>
		
			<image style="overflow:visible;" width="272" height="130" id="id3_00000083066999484396788190000000223443642636154544_" xlink:href="../../../../../Users/evgen/OneDrive/Рабочий стол/workspace/_work/arh/Elements/heater-elem/pub/default.png"  transform="matrix(1 0 0 1 2465 13)">
		</image>
		
			<image style="overflow:visible;" width="272" height="130" id="id4_00000145770101835540867990000018436259007128517509_" xlink:href="../../../../../Users/evgen/OneDrive/Рабочий стол/workspace/_work/arh/Elements/heater-elem/pub/default.png"  transform="matrix(1 0 0 1 3375 13)">
		</image>
	</g>
	<g id="valve-n-elem">
		
			<image style="overflow:visible;" width="98" height="71" id="id5" xlink:href="../../../../../Users/evgen/OneDrive/Рабочий стол/workspace/_work/arh/Elements/valve-n-elem/pub/valve-n_v_caption.png"  transform="matrix(1 0 0 1 748 247.5)">
		</image>
		
			<image style="overflow:visible;" width="98" height="71" id="id6" xlink:href="../../../../../Users/evgen/OneDrive/Рабочий стол/workspace/_work/arh/Elements/valve-n-elem/pub/valve-n_v_caption.png"  transform="matrix(1 0 0 1 526 247.5)">
		</image>
		
			<image style="overflow:visible;" width="98" height="71" id="id7" xlink:href="../../../../../Users/evgen/OneDrive/Рабочий стол/workspace/_work/arh/Elements/valve-n-elem/pub/valve-n_v_caption.png"  transform="matrix(1 0 0 1 351 247.5)">
		</image>
		
			<image style="overflow:visible;" width="98" height="71" id="id8" xlink:href="../../../../../Users/evgen/OneDrive/Рабочий стол/workspace/_work/arh/Elements/valve-n-elem/pub/valve-n_v_caption.png"  transform="matrix(1 0 0 1 1043 247.5)">
		</image>
		
			<image style="overflow:visible;" width="98" height="71" id="id9" xlink:href="../../../../../Users/evgen/OneDrive/Рабочий стол/workspace/_work/arh/Elements/valve-n-elem/pub/valve-n_v_caption.png"  transform="matrix(1 0 0 1 1249 247.5)">
		</image>
		
			<image style="overflow:visible;" width="98" height="71" id="id10" xlink:href="../../../../../Users/evgen/OneDrive/Рабочий стол/workspace/_work/arh/Elements/valve-n-elem/pub/valve-n_v_caption.png"  transform="matrix(1 0 0 1 1425 247.5)">
		</image>
		
			<image style="overflow:visible;" width="98" height="71" id="id11" xlink:href="../../../../../Users/evgen/OneDrive/Рабочий стол/workspace/_work/arh/Elements/valve-n-elem/pub/valve-n_v_caption.png"  transform="matrix(1 0 0 1 1650 247.5)">
		</image>
		
			<image style="overflow:visible;" width="98" height="71" id="id12" xlink:href="../../../../../Users/evgen/OneDrive/Рабочий стол/workspace/_work/arh/Elements/valve-n-elem/pub/valve-n_v_caption.png"  transform="matrix(1 0 0 1 1941 247.5)">
		</image>
		
			<image style="overflow:visible;" width="98" height="71" id="id13" xlink:href="../../../../../Users/evgen/OneDrive/Рабочий стол/workspace/_work/arh/Elements/valve-n-elem/pub/valve-n_v_caption.png"  transform="matrix(1 0 0 1 2159 247.5)">
		</image>
		
			<image style="overflow:visible;" width="98" height="71" id="id14" xlink:href="../../../../../Users/evgen/OneDrive/Рабочий стол/workspace/_work/arh/Elements/valve-n-elem/pub/valve-n_v_caption.png"  transform="matrix(1 0 0 1 2335 247.5)">
		</image>
		
			<image style="overflow:visible;" width="98" height="71" id="id15" xlink:href="../../../../../Users/evgen/OneDrive/Рабочий стол/workspace/_work/arh/Elements/valve-n-elem/pub/valve-n_v_caption.png"  transform="matrix(1 0 0 1 2558 247.5)">
		</image>
		
			<image style="overflow:visible;" width="98" height="71" id="id16" xlink:href="../../../../../Users/evgen/OneDrive/Рабочий стол/workspace/_work/arh/Elements/valve-n-elem/pub/valve-n_v_caption.png"  transform="matrix(1 0 0 1 2854 247.5)">
		</image>
		
			<image style="overflow:visible;" width="98" height="71" id="id17" xlink:href="../../../../../Users/evgen/OneDrive/Рабочий стол/workspace/_work/arh/Elements/valve-n-elem/pub/valve-n_v_caption.png"  transform="matrix(1 0 0 1 3068 247.5)">
		</image>
		
			<image style="overflow:visible;" width="98" height="71" id="id18" xlink:href="../../../../../Users/evgen/OneDrive/Рабочий стол/workspace/_work/arh/Elements/valve-n-elem/pub/valve-n_v_caption.png"  transform="matrix(1 0 0 1 3243 247.5)">
		</image>
		
			<image style="overflow:visible;" width="98" height="71" id="id19" xlink:href="../../../../../Users/evgen/OneDrive/Рабочий стол/workspace/_work/arh/Elements/valve-n-elem/pub/valve-n_v_caption.png"  transform="matrix(1 0 0 1 3467 247.5)">
		</image>
		
			<image style="overflow:visible;" width="98" height="71" id="id20" xlink:href="../../../../../Users/evgen/OneDrive/Рабочий стол/workspace/_work/arh/Elements/valve-n-elem/pub/valve-n_v_caption.png"  transform="matrix(1 0 0 1 3750 247.5)">
		</image>
		
			<image style="overflow:visible;" width="71" height="89" id="id21" xlink:href="../../../../../Users/evgen/OneDrive/Рабочий стол/workspace/_work/arh/Elements/valve-n-elem/pub/valve-n_h_caption.png"  transform="matrix(1 0 0 1 3667 651.5)">
		</image>
		
			<image style="overflow:visible;" width="71" height="89" id="id22" xlink:href="../../../../../Users/evgen/OneDrive/Рабочий стол/workspace/_work/arh/Elements/valve-n-elem/pub/valve-n_h_caption.png"  transform="matrix(1 0 0 1 339.5 884.5)">
		</image>
		
			<image style="overflow:visible;" width="71" height="89" id="id23" xlink:href="../../../../../Users/evgen/OneDrive/Рабочий стол/workspace/_work/arh/Elements/valve-n-elem/pub/valve-n_h_caption.png"  transform="matrix(1 0 0 1 339.5 749.5)">
		</image>
		
			<image style="overflow:visible;" width="98" height="71" id="id24" xlink:href="../../../../../Users/evgen/OneDrive/Рабочий стол/workspace/_work/arh/Elements/valve-n-elem/pub/valve-n_v_caption.png"  transform="matrix(1 0 0 1 118 825.5)">
		</image>
	</g>
	<g id="valve-mini-unactive-elem">
		
			<image style="overflow:visible;" width="37" height="38" id="id25" xlink:href="../../../../../Users/evgen/OneDrive/Рабочий стол/workspace/_work/arh/Elements/valve-mini-unactive-elem/pub/valve-mini-unactive_v_no-caption.png"  transform="matrix(1 0 0 1 833.5 539)">
		</image>
		
			<image style="overflow:visible;" width="37" height="38" id="id26" xlink:href="../../../../../Users/evgen/OneDrive/Рабочий стол/workspace/_work/arh/Elements/valve-mini-unactive-elem/pub/valve-mini-unactive_v_no-caption.png"  transform="matrix(1 0 0 1 480.5 539)">
		</image>
		
			<image style="overflow:visible;" width="37" height="38" id="id27" xlink:href="../../../../../Users/evgen/OneDrive/Рабочий стол/workspace/_work/arh/Elements/valve-mini-unactive-elem/pub/valve-mini-unactive_v_no-caption.png"  transform="matrix(1 0 0 1 767.5 539)">
		</image>
		
			<image style="overflow:visible;" width="37" height="38" id="id28" xlink:href="../../../../../Users/evgen/OneDrive/Рабочий стол/workspace/_work/arh/Elements/valve-mini-unactive-elem/pub/valve-mini-unactive_v_no-caption.png"  transform="matrix(1 0 0 1 545.5 539)">
		</image>
		
			<image style="overflow:visible;" width="37" height="38" id="id29_00000139271422424793335580000003962081736537552298_" xlink:href="../../../../../Users/evgen/OneDrive/Рабочий стол/workspace/_work/arh/Elements/valve-mini-unactive-elem/pub/valve-mini-unactive_v_no-caption.png"  transform="matrix(1 0 0 1 1000.5 345)">
		</image>
		
			<image style="overflow:visible;" width="37" height="38" id="id30_00000161604031613183022890000014794712002308048288_" xlink:href="../../../../../Users/evgen/OneDrive/Рабочий стол/workspace/_work/arh/Elements/valve-mini-unactive-elem/pub/valve-mini-unactive_v_no-caption.png"  transform="matrix(1 0 0 1 1733.5 539)">
		</image>
		
			<image style="overflow:visible;" width="37" height="38" id="id31_00000119115768829660225270000001447074562552409769_" xlink:href="../../../../../Users/evgen/OneDrive/Рабочий стол/workspace/_work/arh/Elements/valve-mini-unactive-elem/pub/valve-mini-unactive_v_no-caption.png"  transform="matrix(1 0 0 1 1900.5 345)">
		</image>
		
			<image style="overflow:visible;" width="37" height="38" id="id32_00000086671096019824236850000009681634786287196853_" xlink:href="../../../../../Users/evgen/OneDrive/Рабочий стол/workspace/_work/arh/Elements/valve-mini-unactive-elem/pub/valve-mini-unactive_v_no-caption.png"  transform="matrix(1 0 0 1 1445.5 539)">
		</image>
		
			<image style="overflow:visible;" width="37" height="38" id="id33_00000114062669197615604200000009824069995940203954_" xlink:href="../../../../../Users/evgen/OneDrive/Рабочий стол/workspace/_work/arh/Elements/valve-mini-unactive-elem/pub/valve-mini-unactive_v_no-caption.png"  transform="matrix(1 0 0 1 1380.1625 539)">
		</image>
		
			<image style="overflow:visible;" width="37" height="38" id="id34_00000169538576821614204020000014266639418421695642_" xlink:href="../../../../../Users/evgen/OneDrive/Рабочий стол/workspace/_work/arh/Elements/valve-mini-unactive-elem/pub/valve-mini-unactive_v_no-caption.png"  transform="matrix(1 0 0 1 1668.5 539)">
		</image>
		
			<image style="overflow:visible;" width="37" height="38" id="id35_00000096751365213117878840000010690925007581023122_" xlink:href="../../../../../Users/evgen/OneDrive/Рабочий стол/workspace/_work/arh/Elements/valve-mini-unactive-elem/pub/valve-mini-unactive_v_no-caption.png"  transform="matrix(1 0 0 1 2576.5 539)">
		</image>
		
			<image style="overflow:visible;" width="37" height="38" id="id36_00000009565039471015827360000005972493223046361247_" xlink:href="../../../../../Users/evgen/OneDrive/Рабочий стол/workspace/_work/arh/Elements/valve-mini-unactive-elem/pub/valve-mini-unactive_v_no-caption.png"  transform="matrix(1 0 0 1 2353.5 539)">
		</image>
		
			<image style="overflow:visible;" width="37" height="38" id="id37_00000090275669978393359620000001930676128854037935_" xlink:href="../../../../../Users/evgen/OneDrive/Рабочий стол/workspace/_work/arh/Elements/valve-mini-unactive-elem/pub/valve-mini-unactive_v_no-caption.png"  transform="matrix(1 0 0 1 2288.5 539)">
		</image>
		
			<image style="overflow:visible;" width="37" height="38" id="id38_00000178884929081243815930000005781147226889398920_" xlink:href="../../../../../Users/evgen/OneDrive/Рабочий стол/workspace/_work/arh/Elements/valve-mini-unactive-elem/pub/valve-mini-unactive_v_no-caption.png"  transform="matrix(1 0 0 1 2644.5 539)">
		</image>
		
			<image style="overflow:visible;" width="37" height="38" id="id39_00000110463560500848739490000015419545641783326867_" xlink:href="../../../../../Users/evgen/OneDrive/Рабочий стол/workspace/_work/arh/Elements/valve-mini-unactive-elem/pub/valve-mini-unactive_v_no-caption.png"  transform="matrix(1 0 0 1 3550.5 539)">
		</image>
		
			<image style="overflow:visible;" width="37" height="38" id="id40_00000017479146661902841140000017720871315414424998_" xlink:href="../../../../../Users/evgen/OneDrive/Рабочий стол/workspace/_work/arh/Elements/valve-mini-unactive-elem/pub/valve-mini-unactive_v_no-caption.png"  transform="matrix(1 0 0 1 3485.5 539)">
		</image>
		
			<image style="overflow:visible;" width="37" height="38" id="id41_00000133514824475812437880000005419496958224396213_" xlink:href="../../../../../Users/evgen/OneDrive/Рабочий стол/workspace/_work/arh/Elements/valve-mini-unactive-elem/pub/valve-mini-unactive_v_no-caption.png"  transform="matrix(1 0 0 1 2812.5 345)">
		</image>
		
			<image style="overflow:visible;" width="37" height="38" id="id42_00000144296570662752932150000015658089905627574435_" xlink:href="../../../../../Users/evgen/OneDrive/Рабочий стол/workspace/_work/arh/Elements/valve-mini-unactive-elem/pub/valve-mini-unactive_v_no-caption.png"  transform="matrix(1 0 0 1 3197.5 539)">
		</image>
		
			<image style="overflow:visible;" width="37" height="38" id="id43_00000066489986973335928170000012811947070142946446_" xlink:href="../../../../../Users/evgen/OneDrive/Рабочий стол/workspace/_work/arh/Elements/valve-mini-unactive-elem/pub/valve-mini-unactive_v_no-caption.png"  transform="matrix(1 0 0 1 3261.5 539)">
		</image>
		
			<image style="overflow:visible;" width="37" height="38" id="id44_00000059299615755707429230000005081218135373462148_" xlink:href="../../../../../Users/evgen/OneDrive/Рабочий стол/workspace/_work/arh/Elements/valve-mini-unactive-elem/pub/valve-mini-unactive_v_no-caption.png"  transform="matrix(1 0 0 1 3708.5 345)">
		</image>
	</g>
	<g id="text-box-elem">
		
			<image style="overflow:visible;" width="31" height="19" id="id45" xlink:href="../../../../../Users/evgen/OneDrive/Рабочий стол/workspace/_work/arh/Elements/text-box-elem/pub/default.png"  transform="matrix(1 0 0 1 491.5 487.5)">
		</image>
		
			<image style="overflow:visible;" width="31" height="19" id="id46" xlink:href="../../../../../Users/evgen/OneDrive/Рабочий стол/workspace/_work/arh/Elements/text-box-elem/pub/default.png"  transform="matrix(1 0 0 1 843.5 487.5)">
		</image>
		
			<image style="overflow:visible;" width="31" height="19" id="id47" xlink:href="../../../../../Users/evgen/OneDrive/Рабочий стол/workspace/_work/arh/Elements/text-box-elem/pub/default.png"  transform="matrix(1 0 0 1 556.5 487.5)">
		</image>
		
			<image style="overflow:visible;" width="31" height="19" id="id48" xlink:href="../../../../../Users/evgen/OneDrive/Рабочий стол/workspace/_work/arh/Elements/text-box-elem/pub/default.png"  transform="matrix(1 0 0 1 778.5 487.5)">
		</image>
		
			<image style="overflow:visible;" width="31" height="19" id="id49" xlink:href="../../../../../Users/evgen/OneDrive/Рабочий стол/workspace/_work/arh/Elements/text-box-elem/pub/default.png"  transform="matrix(1 0 0 1 1742.5 487.5)">
		</image>
		
			<image style="overflow:visible;" width="31" height="19" id="id50" xlink:href="../../../../../Users/evgen/OneDrive/Рабочий стол/workspace/_work/arh/Elements/text-box-elem/pub/default.png"  transform="matrix(1 0 0 1 1677.5 487.5)">
		</image>
		
			<image style="overflow:visible;" width="31" height="19" id="id51" xlink:href="../../../../../Users/evgen/OneDrive/Рабочий стол/workspace/_work/arh/Elements/text-box-elem/pub/default.png"  transform="matrix(1 0 0 1 1454.5 487.5)">
		</image>
		
			<image style="overflow:visible;" width="31" height="19" id="id52" xlink:href="../../../../../Users/evgen/OneDrive/Рабочий стол/workspace/_work/arh/Elements/text-box-elem/pub/default.png"  transform="matrix(1 0 0 1 1389.5 487.5)">
		</image>
		
			<image style="overflow:visible;" width="31" height="19" id="id53" xlink:href="../../../../../Users/evgen/OneDrive/Рабочий стол/workspace/_work/arh/Elements/text-box-elem/pub/default.png"  transform="matrix(1 0 0 1 2653.5 487.5)">
		</image>
		
			<image style="overflow:visible;" width="31" height="19" id="id54" xlink:href="../../../../../Users/evgen/OneDrive/Рабочий стол/workspace/_work/arh/Elements/text-box-elem/pub/default.png"  transform="matrix(1 0 0 1 2587.5 487.5)">
		</image>
		
			<image style="overflow:visible;" width="31" height="19" id="id55" xlink:href="../../../../../Users/evgen/OneDrive/Рабочий стол/workspace/_work/arh/Elements/text-box-elem/pub/default.png"  transform="matrix(1 0 0 1 2364.5 487.5)">
		</image>
		
			<image style="overflow:visible;" width="31" height="19" id="id56" xlink:href="../../../../../Users/evgen/OneDrive/Рабочий стол/workspace/_work/arh/Elements/text-box-elem/pub/default.png"  transform="matrix(1 0 0 1 2299.5 487.5)">
		</image>
		
			<image style="overflow:visible;" width="31" height="19" id="id57" xlink:href="../../../../../Users/evgen/OneDrive/Рабочий стол/workspace/_work/arh/Elements/text-box-elem/pub/default.png"  transform="matrix(1 0 0 1 3273.5 487.5)">
		</image>
		
			<image style="overflow:visible;" width="31" height="19" id="id58" xlink:href="../../../../../Users/evgen/OneDrive/Рабочий стол/workspace/_work/arh/Elements/text-box-elem/pub/default.png"  transform="matrix(1 0 0 1 3560.5 487.5)">
		</image>
		
			<image style="overflow:visible;" width="31" height="19" id="id59" xlink:href="../../../../../Users/evgen/OneDrive/Рабочий стол/workspace/_work/arh/Elements/text-box-elem/pub/default.png"  transform="matrix(1 0 0 1 3495.5 487.5)">
		</image>
		
			<image style="overflow:visible;" width="31" height="19" id="id60" xlink:href="../../../../../Users/evgen/OneDrive/Рабочий стол/workspace/_work/arh/Elements/text-box-elem/pub/default.png"  transform="matrix(1 0 0 1 3208.5 487.5)">
		</image>
	</g>
	<g id="transition-button-elem">
		
			<image style="overflow:visible;" width="119" height="34" id="id61_00000144318308182280931050000008843431581000412329_" xlink:href="../../../../../Users/evgen/OneDrive/Рабочий стол/workspace/_work/arh/Elements/transition-button-elem/pub/transition-button_arrowdirection-0.png"  transform="matrix(1 0 0 1 3839.5 619)">
		</image>
		
			<image style="overflow:visible;" width="119" height="34" id="id62_00000073722563026742771440000001662317239327905168_" xlink:href="../../../../../Users/evgen/OneDrive/Рабочий стол/workspace/_work/arh/Elements/transition-button-elem/pub/transition-button_arrowdirection-1.png"  transform="matrix(1 0 0 1 3838.5 678)">
		</image>
		
			<image style="overflow:visible;" width="119" height="34" id="id63" xlink:href="../../../../../Users/evgen/OneDrive/Рабочий стол/workspace/_work/arh/Elements/transition-button-elem/pub/transition-button_arrowdirection-1.png"  transform="matrix(1 0 0 1 11.5 777)">
		</image>
		
			<image style="overflow:visible;" width="119" height="34" id="id64" xlink:href="../../../../../Users/evgen/OneDrive/Рабочий стол/workspace/_work/arh/Elements/transition-button-elem/pub/transition-button_arrowdirection-1.png"  transform="matrix(1 0 0 1 417.5 821)">
		</image>
		
			<image style="overflow:visible;" width="119" height="34" id="id65" xlink:href="../../../../../Users/evgen/OneDrive/Рабочий стол/workspace/_work/arh/Elements/transition-button-elem/pub/transition-button_arrowdirection-0.png"  transform="matrix(1 0 0 1 417.5 865)">
		</image>
		
			<image style="overflow:visible;" width="119" height="34" id="id66" xlink:href="../../../../../Users/evgen/OneDrive/Рабочий стол/workspace/_work/arh/Elements/transition-button-elem/pub/transition-button_arrowdirection-0.png"  transform="matrix(1 0 0 1 11.5 911)">
		</image>
	</g>
	<g id="multi-tit-elem">
		
			<image style="overflow:visible;" width="154" height="32" id="id67" xlink:href="../../../elements/multi-tit-elem/pub/multi-tit_mid_titcount-1.png"  transform="matrix(1 0 0 1 228 340.5)">
		</image>
		
			<image style="overflow:visible;" width="154" height="64" id="id68" xlink:href="../../../elements/multi-tit-elem/pub/multi-tit_mid_titcount-2_no-arroworient.png"  transform="matrix(1 0 0 1 582 340.5)">
		</image>
		
			<image style="overflow:visible;" width="154" height="64" id="id88" xlink:href="../../../elements/multi-tit-elem/pub/multi-tit_mid_titcount-2_no-arroworient.png"  transform="matrix(1 0 0 1 174 715.5)">
		</image>
		
			<image style="overflow:visible;" width="154" height="64" id="id69" xlink:href="../../../elements/multi-tit-elem/pub/multi-tit_mid_titcount-2_no-arroworient.png"  transform="matrix(1 0 0 1 804.5 340.5)">
		</image>
		
			<image style="overflow:visible;" width="154" height="32" id="id70" xlink:href="../../../elements/multi-tit-elem/pub/multi-tit_mid_titcount-1.png"  transform="matrix(1 0 0 1 1127 340.5)">
		</image>
		
			<image style="overflow:visible;" width="154" height="64" id="id71" xlink:href="../../../elements/multi-tit-elem/pub/multi-tit_mid_titcount-2_no-arroworient.png"  transform="matrix(1 0 0 1 1481 340.5)">
		</image>
		
			<image style="overflow:visible;" width="154" height="64" id="id72" xlink:href="../../../elements/multi-tit-elem/pub/multi-tit_mid_titcount-2_no-arroworient.png"  transform="matrix(1 0 0 1 1703.5 340.5)">
		</image>
		
			<image style="overflow:visible;" width="154" height="32" id="id73" xlink:href="../../../elements/multi-tit-elem/pub/multi-tit_mid_titcount-1.png"  transform="matrix(1 0 0 1 2036 340.5)">
		</image>
		
			<image style="overflow:visible;" width="154" height="64" id="id74" xlink:href="../../../elements/multi-tit-elem/pub/multi-tit_mid_titcount-2_no-arroworient.png"  transform="matrix(1 0 0 1 2390 340.5)">
		</image>
		
			<image style="overflow:visible;" width="154" height="64" id="id75" xlink:href="../../../elements/multi-tit-elem/pub/multi-tit_mid_titcount-2_no-arroworient.png"  transform="matrix(1 0 0 1 2612.5 340.5)">
		</image>
		
			<image style="overflow:visible;" width="154" height="32" id="id76" xlink:href="../../../elements/multi-tit-elem/pub/multi-tit_mid_titcount-1.png"  transform="matrix(1 0 0 1 2947 340.5)">
		</image>
		
			<image style="overflow:visible;" width="154" height="64" id="id77" xlink:href="../../../elements/multi-tit-elem/pub/multi-tit_mid_titcount-2_no-arroworient.png"  transform="matrix(1 0 0 1 3301 340.5)">
		</image>
		
			<image style="overflow:visible;" width="154" height="64" id="id78" xlink:href="../../../elements/multi-tit-elem/pub/multi-tit_mid_titcount-2_no-arroworient.png"  transform="matrix(1 0 0 1 3523.5 340.5)">
		</image>
		
			<image style="overflow:visible;" width="152" height="32" id="id79" xlink:href="../../../elements/multi-tit-elem/pub/multi-tit_arroworient-top.png"  transform="matrix(1 0 0 1 1504 436.5)">
		</image>
		
			<image style="overflow:visible;" width="152" height="32" id="id80" xlink:href="../../../elements/multi-tit-elem/pub/multi-tit_arroworient-top.png"  transform="matrix(1 0 0 1 609 436.5)">
		</image>
		
			<image style="overflow:visible;" width="152" height="32" id="id81" xlink:href="../../../elements/multi-tit-elem/pub/multi-tit_arroworient-top.png"  transform="matrix(1 0 0 1 2422 436.5)">
		</image>
		
			<image style="overflow:visible;" width="152" height="32" id="id82" xlink:href="../../../elements/multi-tit-elem/pub/multi-tit_arroworient-top.png"  transform="matrix(1 0 0 1 3321 436.5)">
		</image>
	</g>
	<g id="range-universal-line-elem">
		
			<image style="overflow:visible;" width="12" height="100" id="id84" xlink:href="../../../../../Users/evgen/OneDrive/Рабочий стол/workspace/_work/arh/Elements/range-universal-line-elem/pub/default.png"  transform="matrix(0 -1 1.94 0 588 430)">
		</image>
		
			<image style="overflow:visible;" width="12" height="100" id="id85_00000169540916649902091410000005674595569937698949_" xlink:href="../../../../../Users/evgen/OneDrive/Рабочий стол/workspace/_work/arh/Elements/range-universal-line-elem/pub/default.png"  transform="matrix(0 -1 1.94 0 1486 430)">
		</image>
		
			<image style="overflow:visible;" width="12" height="100" id="id86_00000033346923625253852330000007186802160834521237_" xlink:href="../../../../../Users/evgen/OneDrive/Рабочий стол/workspace/_work/arh/Elements/range-universal-line-elem/pub/default.png"  transform="matrix(0 -1 1.94 0 2396.5 430)">
		</image>
		
			<image style="overflow:visible;" width="12" height="100" id="id87_00000121255461741847695580000004015997158270386313_" xlink:href="../../../../../Users/evgen/OneDrive/Рабочий стол/workspace/_work/arh/Elements/range-universal-line-elem/pub/default.png"  transform="matrix(0 -1 1.94 0 3305 430)">
		</image>
	</g>
</g>
<g id="lines">
	<g id="pipes">
		<g id="antifreeze">
			<polyline class="st0" points="1089,165 859,165 859,117 			"/>
			<polyline class="st0" points="868,105 1088,105 1088,636 1991,636 			"/>
			<polyline class="st0" points="827,117 827,207 1027,207 1027,424 1088,424 			"/>
			<path class="st0" d="M1805.7,658.3"/>
			<polyline class="st0" points="1988,165 1758,165 1758,118 			"/>
			<polyline class="st0" points="1775,105 1988,105 1988,636 3799,636 			"/>
			<polyline class="st0" points="1726,118 1726,207 1926,207 1926,424 1988,424 			"/>
			<polyline class="st0" points="2898,165 2668,165 2668,121 			"/>
			<polyline class="st0" points="2688,105 2898,105 2898,636 			"/>
			<polyline class="st0" points="2636,91 2636,207 2837,207 2837,424 2898,424 			"/>
			<polyline class="st0" points="3796,165 3576,165 3576,119 			"/>
			<polyline class="st0" points="3596,105 3796,105 3796,636 3888,636 			"/>
			<polyline class="st0" points="3544,99 3544,207 3735,207 3735,424 3796,424 			"/>
		</g>
		<g id="drainage">
			<line class="st1" x1="3225" y1="794" x2="99" y2="794"/>
			<line class="st1" x1="3289.5" y1="838" x2="450.5" y2="838"/>
			<polyline class="st1" points="507,673.5 507,424.5 571,424.5 			"/>
			<polyline class="st1" points="859,673.5 859,424.5 794,424.5 			"/>
			<line class="st1" x1="794" y1="675" x2="794" y2="119"/>
			<line class="st1" x1="163.5" y1="928" x2="163.5" y2="793"/>
			<polyline class="st1" points="571,596 571,207 761,207 761,117 			"/>
			<polyline class="st1" points="1406,622 1406,424 1470,424 			"/>
			<polyline class="st1" points="1758,613 1758,424 1693,424 			"/>
			<line class="st1" x1="1693" y1="624" x2="1693" y2="101"/>
			<polyline class="st1" points="1470,596 1470,207 1660,207 1660,118 			"/>
			<polyline class="st1" points="2316,622 2316,424 2381,424 			"/>
			<polyline class="st1" points="2668,613 2668,424 2603,424 			"/>
			<line class="st1" x1="2603" y1="615" x2="2603" y2="117"/>
			<polyline class="st1" points="2380,595 2380,206 2570,206 2570,120 			"/>
			<polyline class="st1" points="3224,553 3224,424 3289,424 			"/>
			<polyline class="st1" points="3576,553 3576,424 3511,424 			"/>
			<line class="st1" x1="3511.5" y1="555" x2="3511.5" y2="115"/>
			<polyline class="st1" points="3288,556 3288,207 3478,207 3478,119 			"/>
		</g>
		<g id="gas">
			<polyline class="st2" points="3879,696 394,696 394,165 729,165 729,119 			"/>
			<polyline class="st2" points="1293,626 1293,165 1629,165 1629,119 			"/>
			<polyline class="st2" points="2203,616 2203,165 2538,165 2538,118 			"/>
			<polyline class="st2" points="3112,626 3112,165 3447,165 3447,118 			"/>
		</g>
	</g>
	<g id="arrows">
		<g id="gas_00000028282986443935721430000013858009044715756982_">
			<polyline class="st2" points="2490,688 2482,695 2490,702 			"/>
			<polyline class="st2" points="1579,688 1571,695 1579,702 			"/>
			<polyline class="st2" points="2210,237 2203,229 2196,237 			"/>
			<polyline class="st2" points="1300,237 1293,229 1286,237 			"/>
			<polyline class="st2" points="401,237 394,229 387,237 			"/>
			<polyline class="st2" points="3119,237 3112,229 3105,237 			"/>
		</g>
		<g id="drainage_00000051369813616086052910000014384550335324700296_">
			<polyline class="st1" points="2482,935 2490,928 2482,921 			"/>
			<polyline class="st1" points="564,229 571,237 578,229 			"/>
			<polyline class="st1" points="3281,597 3288,605 3295,597 			"/>
			<polyline class="st1" points="1463,597 1470,605 1477,597 			"/>
			<polyline class="st1" points="1399,597 1406,605 1413,597 			"/>
			<polyline class="st1" points="1463,229 1470,237 1477,229 			"/>
			<polyline class="st1" points="2373,229 2380,237 2387,229 			"/>
			<polyline class="st1" points="564,597 571,605 578,597 			"/>
			<polyline class="st1" points="2373,597 2380,605 2387,597 			"/>
			<polyline class="st1" points="3281,229 3288,237 3295,229 			"/>
			<polyline class="st1" points="2309,597 2316,605 2323,597 			"/>
			<polyline class="st1" points="3218,597 3225,605 3232,597 			"/>
			<polyline class="st1" points="500,597 507,605 514,597 			"/>
			<polyline class="st1" points="801,605 794,597 787,605 			"/>
			<polyline class="st1" points="866,605 859,597 852,605 			"/>
			<polyline class="st1" points="2490,787 2482,794 2490,801 			"/>
			<polyline class="st1" points="2490,831 2482,838 2490,845 			"/>
			<polyline class="st1" points="2482,889 2490,882 2482,875 			"/>
			<polyline class="st1" points="1571,935 1579,928 1571,921 			"/>
			<polyline class="st1" points="1579,787 1571,794 1579,801 			"/>
			<polyline class="st1" points="1579,831 1571,838 1579,845 			"/>
			<polyline class="st1" points="1571,889 1579,882 1571,875 			"/>
			<polyline class="st1" points="3519,237 3512,229 3505,237 			"/>
			<polyline class="st1" points="2610,237 2603,229 2596,237 			"/>
			<polyline class="st1" points="1700,237 1693,229 1686,237 			"/>
			<polyline class="st1" points="801,237 794,229 787,237 			"/>
			<polyline class="st1" points="3518,605 3511,597 3504,605 			"/>
			<polyline class="st1" points="3583,605 3576,597 3569,605 			"/>
			<polyline class="st1" points="2610,605 2603,597 2596,605 			"/>
			<polyline class="st1" points="2675,605 2668,597 2661,605 			"/>
			<polyline class="st1" points="1700,605 1693,597 1686,605 			"/>
			<polyline class="st1" points="1765,605 1758,597 1751,605 			"/>
		</g>
		<g id="antifreeze_00000081622768392389479020000016684818196722027426_">
			<polyline class="st0" points="3789,229 3796,237 3803,229 			"/>
			<polyline class="st0" points="2891,229 2898,237 2905,229 			"/>
			<polyline class="st0" points="1981,229 1988,237 1995,229 			"/>
			<polyline class="st0" points="1081,229 1088,237 1095,229 			"/>
			<polyline class="st0" points="3669,172 3677,165 3669,158 			"/>
			<polyline class="st0" points="2768,172 2776,165 2768,158 			"/>
			<polyline class="st0" points="2482,643 2490,636 2482,629 			"/>
			<polyline class="st0" points="1571,643 1579,636 1571,629 			"/>
			<polyline class="st0" points="1848,172 1856,165 1848,158 			"/>
			<polyline class="st0" points="946,172 954,165 946,158 			"/>
			<polyline class="st0" points="3742,237 3735,229 3728,237 			"/>
			<polyline class="st0" points="2844,237 2837,229 2830,237 			"/>
			<polyline class="st0" points="1933,237 1926,229 1919,237 			"/>
			<polyline class="st0" points="1034,237 1027,229 1020,237 			"/>
		</g>
	</g>
	<g id="arc">
		<g id="gas_00000075862594966027933350000003502149272363265724_">
			<path class="st2" d="M1293,695v-52c-3.3,0-7-3.5-7-7s2.7-7,7-7v-16"/>
			<path class="st2" d="M2203,695v-52c-3.3,0-7-2.5-7-6s2.7-7,7-7v-17"/>
			<path class="st2" d="M3112,695v-52c-3.3,0-7-3.5-7-7s2.7-6,7-6v-17"/>
		</g>
		<g id="drainage_00000081618074568714541930000014234315173324780206_">
			<line class="st1" x1="3512.5" y1="882" x2="457.5" y2="882"/>
			<line class="st1" x1="3577.5" y1="928" x2="98.5" y2="928"/>
			<path class="st1" d="M571,782v-80c-3.3,0-7-2.2-7-6c0-3.5,2.7-7,7-7v-94"/>
			<path class="st1" d="M571,838v-37c-3.3,0-7-3.2-7-7c0-3.5,2.7-7,7-7v-17"/>
			<path class="st1" d="M794,782.3v-79.8c-3.3,0-7-2.7-7-6.5c0-3.5,2.7-6.5,7-6.5V532.7"/>
			<path class="st1" d="M794,830.3v-29.8c-3.3,0-7-2.7-7-6.5c0-3.5,2.7-6.5,7-6.5v-76.8"/>
			<path class="st1" d="M794,883v-39c-3.3,0-7-2.2-7-6c0-3.5,2.7-6,7-6v-18"/>
			<path class="st1" d="M794,732v-30c-3.3,0-7-2.2-7-6c0-3.5,2.7-7,7-7v-27"/>
			<path class="st1" d="M794,820v-20c-3.3,0-7-2.2-7-6c0-3.5,2.7-7,7-7v-77"/>
			<path class="st1" d="M859,732v-30c-3.3,0-7-2.2-7-6c0-3.5,2.7-7,7-7v-27"/>
			<path class="st1" d="M859,820v-20c-3.3,0-7-2.2-7-6c0-3.5,2.7-7,7-7v-61"/>
			<path class="st1" d="M859,870v-25c-3.3,0-7-3.2-7-7c0-3.5,2.7-7,7-7v-17"/>
			<path class="st1" d="M859,927v-39c-3.3,0-7-2.2-7-6c0-3.5,2.7-7,7-7v-17"/>
			<path class="st1" d="M507,793v-91c-3.3,0-7-2.5-7-6s2.7-7,7-7V533"/>
			<path class="st1" d="M1470,782v-80c-3.3,0-7-2.2-7-6c0-3.5,2.7-7,7-7v-37"/>
			<path class="st1" d="M1470,838v-38c-3.3,0-7-2.2-7-6c0-3.5,2.7-7,7-7v-17"/>
			<path class="st1" d="M1693.4,782.3v-79.8c-3.3,0-7-2.7-7-6.5c0-3.5,2.7-6.5,7-6.5v-36.8"/>
			<path class="st1" d="M1693.4,830.3v-29.8c-3.3,0-7-2.7-7-6.5c0-3.5,2.7-6.5,7-6.5v-76.8"/>
			<path class="st1" d="M1693.4,883.3v-38.8c-3.3,0-7-2.7-7-6.5c0-3.5,2.7-6.5,7-6.5v-16.8"/>
			<path class="st1" d="M1758,782v-80c-3.3,0-7-2.2-7-6c0-3.5,2.7-6,7-6v-28"/>
			<path class="st1" d="M1758,819v-19c-3.3,0-7-2.2-7-6c0-3.5,2.7-7,7-7v-17"/>
			<path class="st1" d="M1758,870v-26c-3.3,0-7-2.2-7-6c0-3.5,2.7-6,7-6v-18"/>
			<path class="st1" d="M1758,927v-38c-3.3,0-7-3.2-7-7c0-3.5,2.7-7,7-7v-17"/>
			<path class="st1" d="M1406,793v-91c-3.3,0-8-2.5-8-6s3.7-7,8-7v-26"/>
			<path class="st1" d="M1406.4,684.2v-41c-3.3,0-7-3-7-6.5s2.7-6.5,7-6.5v-76.4"/>
			<path class="st1" d="M1470,684v-41c-3.3,0-7-3.5-7-7s2.7-6,7-6v-77"/>
			<path class="st1" d="M1406,664v-21c-3.3,0-7-3.5-7-7s2.7-6,7-6v-77"/>
			<path class="st1" d="M1693.4,664.2v-21c-3.3,0-7-3-7-6.5s2.7-6.5,7-6.5v-76.4"/>
			<path class="st1" d="M1758,684v-41c-3.3,0-7-3.5-7-7s2.7-6,7-6v-77"/>
			<path class="st1" d="M3224.5,684.2L3224,643c-3.3,0-7-3.5-7-7s2.7-6,7-6l0.5-87"/>
			<path class="st1" d="M3288,684v-41c-3.3,0-7-3.5-7-7s2.7-6,7-6v-77"/>
			<path class="st1" d="M2223.5,877.7"/>
			<path class="st1" d="M2380,742v-40c-3.3,0-7-2.2-7-6c0-3.5,2.7-7,7-7v-37"/>
			<path class="st1" d="M2380,838v-38c-3.3,0-7-2.2-7-6c0-3.5,2.7-7,7-7v-57"/>
			<path class="st1" d="M2603,772v-70c-3.3,0-7-2.2-7-6c0-3.5,2.7-7,7-7v-37"/>
			<path class="st1" d="M2603,820v-20c-3.3,0-7-2.2-7-6c0-3.5,2.7-7,7-7v-17"/>
			<path class="st1" d="M2603,883v-39c-3.3,0-7-2.2-7-6c0-3.5,2.7-7,7-7v-17"/>
			<path class="st1" d="M2668,762v-60c-3.3,0-7-2.2-7-6c0-3.5,2.7-7,7-7v-27"/>
			<path class="st1" d="M2668.5,830.3L2668,800c-3.3,0-7-2.2-7-6c0-3.5,2.7-7,7-7v-37"/>
			<path class="st1" d="M2668,870v-25c-3.3,0-7-3.2-7-7c0-3.5,2.7-7,7-7v-17"/>
			<path class="st1" d="M2668,927v-38c-3.3,0-7-3.2-7-7c0-3.5,2.7-7,7-7v-17"/>
			<path class="st1" d="M2316,793v-91c-3.3,0-7-2.5-7-6s2.7-7,7-7v-26"/>
			<path class="st1" d="M2316,684v-41c-3.3,0-7-3.5-7-7s2.7-6,7-6V473"/>
			<path class="st1" d="M2380,664v-21c-3.3,0-7-3.5-7-7s2.7-6,7-6v-77"/>
			<path class="st1" d="M2316,684v-41c-3.3,0-7-3.5-7-7s2.7-6,7-6v-67"/>
			<path class="st1" d="M2603,684v-41c-3.3,0-7-3.5-7-7s2.7-6,7-6v-77"/>
			<path class="st1" d="M2668,684v-41c-3.3,0-7-3.5-7-7s2.7-6,7-6v-77"/>
			<path class="st1" d="M3288,839V702c-3.3,0-7-2.2-7-6c0-3.5,2.7-7,7-7v-27"/>
			<path class="st1" d="M3511,883V702c-3.3,0-7-2.2-7-6c0-3.5,2.7-7,7-7V552"/>
			<path class="st1" d="M3576,929V702c-3.3,0-7-2.2-7-6c0-3.5,2.7-7,7-7V562"/>
			<path class="st1" d="M3224,795v-93c-3.3,0-7-2.5-7-6s2.7-7,7-7v-36"/>
		</g>
	</g>
	<g id="points">
		<g id="antifreeze_00000053515439417060452730000006585647945670796463_">
			<circle class="st3" cx="1088" cy="165.5" r="4.5"/>
			<circle class="st3" cx="1089" cy="424.5" r="4.5"/>
			<circle class="st3" cx="1988" cy="165.5" r="4.5"/>
			<circle class="st3" cx="1988.5" cy="424.5" r="4.5"/>
			<circle class="st3" cx="1988" cy="636.5" r="4.5"/>
			<circle class="st3" cx="2898" cy="165.5" r="4.5"/>
			<circle class="st3" cx="2899" cy="424.5" r="4.5"/>
			<circle class="st3" cx="2898" cy="636.5" r="4.5"/>
			<circle class="st3" cx="3796.5" cy="636.5" r="4.5"/>
			<circle class="st3" cx="3796.5" cy="165.5" r="4.5"/>
			<circle class="st3" cx="3796" cy="424.5" r="4.5"/>
		</g>
		<g id="gas_00000168833073857348952670000001324148732903137189_">
			<circle class="st4" cx="1293" cy="696" r="4.5"/>
			<circle class="st4" cx="2203" cy="696" r="4.5"/>
			<circle class="st4" cx="3111" cy="696" r="4.5"/>
		</g>
		<g id="drainage_00000058588292771943768380000004125549507372017568_">
			<circle class="st5" cx="571" cy="424.5" r="4.5"/>
			<circle class="st5" cx="794" cy="424" r="4.5"/>
			<circle class="st5" cx="507" cy="794" r="4.5"/>
			<circle class="st5" cx="163.5" cy="928" r="4.5"/>
			<circle class="st5" cx="163.5" cy="794" r="4.5"/>
			<circle class="st5" cx="793" cy="882.5" r="4.5"/>
			<circle class="st5" cx="858" cy="928.5" r="4.5"/>
			<circle class="st5" cx="571" cy="838" r="4.5"/>
			<circle class="st5" cx="1470" cy="424" r="4.5"/>
			<circle class="st5" cx="1693" cy="424" r="4.5"/>
			<circle class="st5" cx="1406" cy="794" r="4.5"/>
			<circle class="st5" cx="1693" cy="882.5" r="4.5"/>
			<circle class="st5" cx="1758" cy="928.5" r="4.5"/>
			<circle class="st5" cx="1470" cy="838.3" r="4.5"/>
			<circle class="st5" cx="2380" cy="424" r="4.5"/>
			<circle class="st5" cx="2603" cy="424" r="4.5"/>
			<circle class="st5" cx="2316" cy="794" r="4.5"/>
			<circle class="st5" cx="2602" cy="882.5" r="4.5"/>
			<circle class="st5" cx="2668" cy="928.5" r="4.5"/>
			<circle class="st5" cx="2380" cy="838" r="4.5"/>
			<circle class="st5" cx="3288.5" cy="424" r="4.5"/>
			<circle class="st5" cx="3511" cy="424" r="4.5"/>
		</g>
	</g>
</g>
<g id="helpers">
	<g id="main">
	</g>
</g>
</svg>
