<?xml version="1.0" encoding="utf-8"?>
<!-- Generator: Adobe Illustrator 25.4.1, SVG Export Plug-In . SVG Version: 6.00 Build 0)  -->
<svg version="1.1" xmlns="http://www.w3.org/2000/svg" xmlns:xlink="http://www.w3.org/1999/xlink" x="0px" y="0px"
	 viewBox="0 0 2408.1 1146.1" style="enable-background:new 0 0 2408.1 1146.1;" xml:space="preserve">
<style type="text/css">
	.st0{fill:none;stroke:#6666FF;stroke-width:3;stroke-miterlimit:10;}
	.st1{fill:#FFFFFF;stroke:#6666FF;stroke-width:3;stroke-miterlimit:10;}
	.st2{fill:#627189;}
	.st3{fill:#627189;stroke:#E9E9E9;stroke-width:1.5;stroke-miterlimit:10;}
	.st4{opacity:0.6;fill:#CCCCDB;}
	.st5{fill:#7FAFAE;}
	.st6{fill:#FFFFFF;}
	.st7{opacity:0.3;fill:#7FAFAE;}
	.st8{fill:#A6A9A9;}
	.st9{fill:#6666FF;}
	.st10{fill:#1B262C;}
	.st11{font-family:'UbuntuCondensed-Regular';}
	.st12{font-size:10px;}
	.st13{fill:#FFFFFF;stroke:#6C6E7A;stroke-miterlimit:10;}
	.st14{font-size:18.9999px;}
	.st15{font-size:14.9999px;}
	.st16{fill:#6D6F7A;}
	.st17{font-size:20.9999px;}
	.st18{fill:#6D6F7B;}
	.st19{font-size:16px;}
	.st20{fill:#676766;}
	.st21{font-size:20px;}
	.st22{fill:none;stroke:#909091;stroke-miterlimit:10;stroke-dasharray:12;}
</style>
<g id="lines">
	<g id="pipes">
		<g id="gas_00000135676614637310705090000011964906123907765427_">
			<line class="st0" x1="324" y1="683" x2="557" y2="683"/>
			<line class="st0" x1="303" y1="876" x2="1752" y2="876"/>
			<line class="st0" x1="301" y1="1068" x2="557" y2="1068"/>
			<line class="st0" x1="963" y1="878" x2="963" y2="1069"/>
			<line class="st0" x1="1343" y1="874" x2="1343" y2="1069"/>
			<polyline class="st0" points="332,501 559,501 559,1068 1690,1068 1754,1068 1754,874 1754,499 772,499 772,600 			"/>
			<line class="st0" x1="1757" y1="972" x2="1902" y2="972"/>
			<path class="st0" d="M1893.8,876.9"/>
			<polyline class="st0" points="2040,876 1902,876 1902,1067 2042,1067 			"/>
			<polyline class="st0" points="2112,1034 2142,1034 2142,842 2112,842 			"/>
			<polyline class="st0" points="1631,1067 1631,1126 2271,1126 2271,972 			"/>
			<path class="st0" d="M2097.9,851.1"/>
			<path class="st0" d="M1822.2,499.9"/>
			<path class="st0" d="M2117.1,646.6"/>
			<line class="st0" x1="1127" y1="500" x2="1127" y2="603"/>
			<line class="st0" x1="1517" y1="499" x2="1517" y2="605"/>
			<polyline class="st0" points="1145,216 1145,144 1067,144 1067,216 			"/>
			<polyline class="st0" points="1569,214 1569,145 1491,145 1491,216 			"/>
			<polyline class="st0" points="719,216 719,145 639,145 639,216 			"/>
			<polyline class="st0" points="281,216 281,145 203,145 203,216 			"/>
			<path class="st0" d="M1826.9,51.9"/>
			<line class="st0" x1="1754" y1="498" x2="1754" y2="15"/>
			<path class="st0" d="M2077.5,66.6"/>
			<line class="st0" x1="1531" y1="145" x2="1531" y2="18"/>
			<polyline class="st0" points="242,145 242,16 1609,16 2086,16 2086,174 2119,174 			"/>
			<line class="st0" x1="681" y1="18" x2="681" y2="145"/>
			<line class="st0" x1="1107" y1="18" x2="1107" y2="144"/>
			<line class="st1" x1="1755" y1="175" x2="1805" y2="175"/>
			<polyline class="st0" points="2142,971 2392,971 2392,727 2343,727 			"/>
			<polyline class="st0" points="2142,842 2142,780 1902,780 1902,719 			"/>
			<polyline class="st0" points="2260,175 2260,368 2033,368 			"/>
			<polyline class="st0" points="1948,233 1948,271 2259,271 			"/>
			<polyline class="st0" points="2012,707 2095,707 2095,453 2031,453 			"/>
			<polyline class="st0" points="2341,707 2391,707 2391,453 2095,453 			"/>
		</g>
	</g>
	<g id="arc">
		<g id="whater">
		</g>
	</g>
	<g id="arrows">
		<g id="gas">
			<polyline class="st0" points="858,22 865,16 858,10 			"/>
			<polyline class="st0" points="1677,22 1684,16 1677,10 			"/>
			<polyline class="st0" points="1317,505 1324,499 1317,493 			"/>
			<polyline class="st0" points="1154,870 1147,876 1154,882 			"/>
			<polyline class="st0" points="1154,1062 1147,1068 1154,1074 			"/>
			<polyline class="st0" points="1506,1062 1499,1068 1506,1074 			"/>
			<polyline class="st0" points="1980,1132 1987,1126 1980,1120 			"/>
			<polyline class="st0" points="1506,870 1499,876 1506,882 			"/>
			<polyline class="st0" points="208.5,172.5 202.5,165.5 196.5,172.5 			"/>
			<polyline class="st0" points="287.5,172.5 281.5,165.5 275.5,172.5 			"/>
			<polyline class="st0" points="644.5,172.5 638.5,165.5 632.5,172.5 			"/>
			<polyline class="st0" points="725.5,172.5 719.5,165.5 713.5,172.5 			"/>
			<polyline class="st0" points="777.5,553.5 771.5,546.5 765.5,553.5 			"/>
			<polyline class="st0" points="1132.5,553.5 1126.5,546.5 1120.5,553.5 			"/>
			<polyline class="st0" points="1523.5,553.5 1517.5,546.5 1511.5,553.5 			"/>
			<polyline class="st0" points="1073.5,172.5 1067.5,165.5 1061.5,172.5 			"/>
			<polyline class="st0" points="1151.5,172.5 1145.5,165.5 1139.5,172.5 			"/>
			<polyline class="st0" points="1497.5,172.5 1491.5,165.5 1485.5,172.5 			"/>
			<polyline class="st0" points="1574.5,172.5 1568.5,165.5 1562.5,172.5 			"/>
			<polyline class="st0" points="1760.5,313.5 1754.5,306.5 1748.5,313.5 			"/>
			<polyline class="st0" points="2254.5,306.5 2260.5,313.5 2266.5,306.5 			"/>
			<polyline class="st0" points="1748.5,587.5 1754.5,594.5 1760.5,587.5 			"/>
			<polyline class="st0" points="2089.5,587.5 2095.5,594.5 2101.5,587.5 			"/>
			<polyline class="st0" points="2384.5,587.5 2390.5,594.5 2396.5,587.5 			"/>
			<polyline class="st0" points="1748.5,758.5 1754.5,765.5 1760.5,758.5 			"/>
			<polyline class="st0" points="2135.5,799.5 2141.5,806.5 2147.5,799.5 			"/>
			<polyline class="st0" points="2386.5,799.5 2392.5,806.5 2398.5,799.5 			"/>
		</g>
	</g>
	<g id="points">
		<g id="gas_00000107545970288199886990000011131832176349194133_">
			<circle class="st1" cx="559" cy="683" r="4.5"/>
			<circle class="st1" cx="1127" cy="499" r="4.5"/>
			<circle class="st1" cx="1517" cy="499" r="4.5"/>
			<circle class="st1" cx="559" cy="877" r="4.5"/>
			<circle class="st1" cx="963" cy="876" r="4.5"/>
			<circle class="st1" cx="1343" cy="876" r="4.5"/>
			<circle class="st1" cx="559" cy="1068" r="4.5"/>
			<circle class="st1" cx="963" cy="1068" r="4.5"/>
			<circle class="st1" cx="1343" cy="1068" r="4.5"/>
			<circle class="st1" cx="1631" cy="1068" r="4.5"/>
			<circle class="st1" cx="1754" cy="972" r="4.5"/>
			<circle class="st1" cx="1902" cy="972" r="4.5"/>
			<circle class="st1" cx="1753" cy="876" r="4.5"/>
			<circle class="st1" cx="2142" cy="971" r="4.5"/>
			<circle class="st1" cx="2271" cy="971" r="4.5"/>
			<circle class="st1" cx="2142" cy="842" r="4.5"/>
			<circle class="st1" cx="2259" cy="271" r="4.5"/>
			<circle class="st1" cx="2095" cy="453" r="4.5"/>
			<circle class="st1" cx="1754" cy="175" r="4.5"/>
			<circle class="st1" cx="1531" cy="145" r="4.5"/>
			<circle class="st1" cx="1107" cy="143" r="4.5"/>
			<circle class="st1" cx="1107" cy="16" r="4.5"/>
			<circle class="st1" cx="681" cy="16" r="4.5"/>
			<circle class="st1" cx="681" cy="145" r="4.5"/>
			<circle class="st1" cx="242" cy="145" r="4.5"/>
			<circle class="st1" cx="1531" cy="16" r="4.5"/>
			<circle class="st1" cx="1754" cy="16" r="4.5"/>
			<circle class="st1" cx="1754" cy="499" r="4.5"/>
		</g>
	</g>
</g>
<g id="_x33_">
	<g id="Слой_48">
		<path class="st2" d="M897.8,326.6c-8.4,0-15.2-26.2-15.3-58.6c-0.1-32.4,6.6-58.7,15-58.7L897.8,326.6z"/>
		<path class="st2" d="M1257.6,326.3c10,0,18-26.2,17.9-58.5c-0.1-32.3-8.2-58.5-18.2-58.5L1257.6,326.3z"/>
		<rect x="907" y="209.3" class="st2" width="338.4" height="117.3"/>
		<rect x="1245.2" y="203.8" class="st3" width="11.3" height="126.5"/>
		<rect x="897.5" y="203.8" class="st3" width="9.5" height="126.5"/>
		<path class="st4" d="M1227.1,317.4h-113.5c-1.4,0-2.6-1.2-2.6-2.6v-83.1c0-1.4,1.2-2.6,2.6-2.6h113.5c1.4,0,2.6,1.2,2.6,2.6v83.1
			C1229.7,316.3,1228.5,317.4,1227.1,317.4z"/>
		<path class="st5" d="M974.7,306c0,7.9-5.1,12.4-11.2,12.4h-27.3c-6.2,0-11.2-4.5-11.2-12.4v-73.4c0-7.9,5.1-12.4,11.2-12.4h27.3
			c6.2,0,11.2,4.5,11.2,12.4V306z M963.5,316c5.2,0,9.4-3.4,9.4-10v-73.4c0-6.6-4.2-10-9.4-10h-27.3c-5.2,0-9.4,3.4-9.4,10V306
			c0,6.6,4.2,10,9.4,10H963.5z"/>
		<path id="белый_00000096061300977316339950000011906974894336458646_" class="st6" d="M936.2,316c-5.2,0-9.4-3.4-9.4-10
			v-73.4c0-6.6,4.2-10,9.4-10h27.3c5.2,0,9.4,3.4,9.4,10V306c0,6.6-4.2,10-9.4,10H936.2z"/>
		<path class="st7" d="M935.7,316c-5.2,0-9.4-3.4-9.4-10v-73.4c0-6.6,4.2-10,9.4-10H963c5.2,0,9.4,3.4,9.4,10V306
			c0,6.6-4.2,10-9.4,10H935.7z"/>
		<rect x="932.4" y="226.4" class="st8" width="14.4" height="86.7"/>
		<rect x="932.4" y="226.4" class="st8" width="17.5" height="3.5"/>
		<rect x="932.4" y="253.3" class="st8" width="17.5" height="3.5"/>
		<rect x="932.4" y="281.5" class="st8" width="17.5" height="3.5"/>
		<rect x="932.4" y="309.8" class="st9" width="17.5" height="3.5"/>
		<rect x="932.4" y="297.4" class="st9" width="14.4" height="15.9"/>
		<text transform="matrix(1 -2.470000e-03 2.470000e-03 1 954.8324 301.4299)" class="st10 st11 st12">165</text>
		<path class="st13" d="M1099.8,262.2v-21.3c0-0.9-1.7-1.6-3.9-1.6l-106.2,0.1c-2.1,0-3.9,0.7-3.9,1.6l0,2.1l0,26.6
			c0,0.9,1.7,1.6,3.9,1.6l106.2-0.1c2.1,0,3.9-0.7,3.9-1.6L1099.8,262.2z"/>
		<text transform="matrix(1 -2.470000e-03 2.470000e-03 1 991.0192 262.708)" class="st10 st11 st14">T</text>
		<text transform="matrix(1 -2.470000e-03 2.470000e-03 1 999.0723 262.7281)" class="st10 st11 st15">, ° C</text>
		
			<rect x="1089.9" y="243.6" transform="matrix(1 -2.538367e-03 2.538367e-03 1 -0.6297 2.7729)" class="st16" width="4.3" height="11.8"/>
		
			<rect x="1089.9" y="255.4" transform="matrix(1 -2.539010e-03 2.539010e-03 1 -0.6598 2.7737)" class="st16" width="4.3" height="11.8"/>
		<text transform="matrix(1 -2.470000e-03 2.470000e-03 1 1040.4531 263.6875)" class="st10 st11 st17">-30,39</text>
		<path class="st13" d="M1099.8,299.2v-21.3c0-0.9-1.7-1.6-3.9-1.6l-106.2,0.1c-2.1,0-3.9,0.7-3.9,1.6l0,2.1l0,26.6
			c0,0.9,1.7,1.6,3.9,1.6l106.2-0.1c2.1,0,3.9-0.7,3.9-1.6L1099.8,299.2z"/>
		<text transform="matrix(1 -2.470000e-03 2.470000e-03 1 991.0192 299.708)" class="st10 st11 st14">T</text>
		<text transform="matrix(1 -2.470000e-03 2.470000e-03 1 999.0723 299.7281)" class="st10 st11 st15">, ° C</text>
		
			<rect x="1089.9" y="280.6" transform="matrix(1 -2.538367e-03 2.538367e-03 1 -0.7236 2.773)" class="st16" width="4.3" height="11.8"/>
		
			<rect x="1089.9" y="292.4" transform="matrix(1 -2.539010e-03 2.539010e-03 1 -0.7537 2.7738)" class="st16" width="4.3" height="11.8"/>
		<text transform="matrix(1 -2.470000e-03 2.470000e-03 1 1040.4531 300.6875)" class="st10 st11 st17">-30,39</text>
		<path class="st18" d="M1186.5,244.8h9.9c0.3,0,0.5,0.2,0.5,0.5v3.8c0,0.3-0.2,0.5-0.5,0.5h-9.9h-9.9c-0.3,0-0.5-0.2-0.5-0.5v-3.8
			c0-0.3,0.2-0.5,0.5-0.5H1186.5z"/>
		<ellipse class="st18" cx="1200.2" cy="276.4" rx="21" ry="21.3"/>
		<path class="st18" d="M1179.2,266c2.9-6,8.2-10.6,14.7-12.4V253c0-0.3-0.2-0.5-0.5-0.5h-13.6c-0.3,0-0.5,0.2-0.5,0.5V266"/>
		<ellipse class="st4" cx="1200.2" cy="276.4" rx="6.3" ry="6.4"/>
		<ellipse class="st18" cx="1200.2" cy="276.4" rx="1.7" ry="1.7"/>
		<path class="st18" d="M1129.8,244.8h9.9c0.3,0,0.5,0.2,0.5,0.5v3.8c0,0.3-0.2,0.5-0.5,0.5h-9.9h-9.9c-0.3,0-0.5-0.2-0.5-0.5v-3.8
			c0-0.3,0.2-0.5,0.5-0.5H1129.8z"/>
		<ellipse class="st18" cx="1143.5" cy="276.4" rx="21" ry="21.3"/>
		<path class="st18" d="M1122.4,266c2.9-6,8.2-10.6,14.7-12.4V253c0-0.3-0.2-0.5-0.5-0.5H1123c-0.3,0-0.5,0.2-0.5,0.5V266"/>
		<ellipse class="st4" cx="1143.5" cy="276.4" rx="6.3" ry="6.4"/>
		<ellipse class="st18" cx="1143.5" cy="276.4" rx="1.7" ry="1.7"/>
		<g>
			<text transform="matrix(1 0 0 1 1134.8855 312.3001)" class="st18 st11 st19">H 1</text>
		</g>
		<g>
			<text transform="matrix(1 0 0 1 1190.5618 312.7275)" class="st18 st11 st19">H 2</text>
		</g>
	</g>
	<g id="Слой_52">
		<path class="st2" d="M468.8,326.6c-8.4,0-15.2-26.2-15.3-58.6c-0.1-32.4,6.6-58.7,15-58.7L468.8,326.6z"/>
		<path class="st2" d="M828.5,326.3c10,0,18-26.2,17.9-58.5c-0.1-32.3-8.2-58.5-18.2-58.5L828.5,326.3z"/>
		<rect x="478" y="209.3" class="st2" width="338.4" height="117.3"/>
		<rect x="816.1" y="203.8" class="st3" width="11.3" height="126.5"/>
		<rect x="468.5" y="203.8" class="st3" width="9.5" height="126.5"/>
		<path class="st4" d="M798,317.4H684.5c-1.4,0-2.6-1.2-2.6-2.6v-83.1c0-1.4,1.2-2.6,2.6-2.6H798c1.4,0,2.6,1.2,2.6,2.6v83.1
			C800.6,316.2,799.5,317.4,798,317.4z"/>
		<path class="st5" d="M545.7,305.9c0,7.9-5.1,12.4-11.2,12.4h-27.3c-6.2,0-11.2-4.5-11.2-12.4v-73.4c0-7.9,5.1-12.4,11.2-12.4h27.3
			c6.2,0,11.2,4.5,11.2,12.4V305.9z M534.5,316c5.2,0,9.4-3.4,9.4-10v-73.4c0-6.6-4.2-10-9.4-10h-27.3c-5.2,0-9.4,3.4-9.4,10v73.4
			c0,6.6,4.2,10,9.4,10H534.5z"/>
		<path id="белый_00000126298499135972252510000008985031153035885494_" class="st6" d="M507.2,316c-5.2,0-9.4-3.4-9.4-10
			v-73.4c0-6.6,4.2-10,9.4-10h27.3c5.2,0,9.4,3.4,9.4,10v73.4c0,6.6-4.2,10-9.4,10H507.2z"/>
		<path class="st7" d="M506.6,316c-5.2,0-9.4-3.4-9.4-10v-73.4c0-6.6,4.2-10,9.4-10h27.3c5.2,0,9.4,3.4,9.4,10v73.4
			c0,6.6-4.2,10-9.4,10H506.6z"/>
		<rect x="503.3" y="226.3" class="st8" width="14.4" height="86.7"/>
		<rect x="503.3" y="226.3" class="st8" width="17.5" height="3.5"/>
		<rect x="503.3" y="253.2" class="st8" width="17.5" height="3.5"/>
		<rect x="503.3" y="281.5" class="st8" width="17.5" height="3.5"/>
		<rect x="503.3" y="309.8" class="st9" width="17.5" height="3.5"/>
		<rect x="503.3" y="297.4" class="st9" width="14.4" height="15.9"/>
		<text transform="matrix(1 -2.470000e-03 2.470000e-03 1 525.7666 301.3873)" class="st10 st11 st12">165</text>
		<path class="st13" d="M670.7,262.1v-21.3c0-0.9-1.7-1.6-3.9-1.6l-106.2,0.1c-2.1,0-3.9,0.7-3.9,1.6l0,2.1l0,26.6
			c0,0.9,1.7,1.6,3.9,1.6l106.2-0.1c2.1,0,3.9-0.7,3.9-1.6L670.7,262.1z"/>
		<text transform="matrix(1 -2.470000e-03 2.470000e-03 1 561.9534 262.6654)" class="st10 st11 st14">T</text>
		<text transform="matrix(1 -2.470000e-03 2.470000e-03 1 570.0065 262.6855)" class="st10 st11 st15">, ° C</text>
		
			<rect x="660.8" y="243.5" transform="matrix(1 -2.538367e-03 2.538367e-03 1 -0.631 1.6838)" class="st16" width="4.3" height="11.8"/>
		
			<rect x="660.9" y="255.3" transform="matrix(1 -2.539010e-03 2.539010e-03 1 -0.6611 1.6843)" class="st16" width="4.3" height="11.8"/>
		<text transform="matrix(1 -2.470000e-03 2.470000e-03 1 611.3873 263.6449)" class="st10 st11 st17">-30,39</text>
		<path class="st13" d="M670.7,299.1v-21.3c0-0.9-1.7-1.6-3.9-1.6l-106.2,0.1c-2.1,0-3.9,0.7-3.9,1.6l0,2.1l0,26.6
			c0,0.9,1.7,1.6,3.9,1.6l106.2-0.1c2.1,0,3.9-0.7,3.9-1.6L670.7,299.1z"/>
		<text transform="matrix(1 -2.470000e-03 2.470000e-03 1 561.9534 299.6654)" class="st10 st11 st14">T</text>
		<text transform="matrix(1 -2.470000e-03 2.470000e-03 1 570.0065 299.6855)" class="st10 st11 st15">, ° C</text>
		
			<rect x="660.8" y="280.5" transform="matrix(1 -2.538367e-03 2.538367e-03 1 -0.7249 1.6839)" class="st16" width="4.3" height="11.8"/>
		
			<rect x="660.9" y="292.3" transform="matrix(1 -2.539010e-03 2.539010e-03 1 -0.755 1.6844)" class="st16" width="4.3" height="11.8"/>
		<text transform="matrix(1 -2.470000e-03 2.470000e-03 1 611.3873 300.6449)" class="st10 st11 st17">-30,39</text>
		<path class="st18" d="M757.5,244.8h9.9c0.3,0,0.5,0.2,0.5,0.5v3.8c0,0.3-0.2,0.5-0.5,0.5h-9.9h-9.9c-0.3,0-0.5-0.2-0.5-0.5v-3.8
			c0-0.3,0.2-0.5,0.5-0.5H757.5z"/>
		<ellipse class="st18" cx="771.2" cy="276.4" rx="21" ry="21.3"/>
		<path class="st18" d="M750.1,266c2.9-6,8.2-10.6,14.7-12.4V253c0-0.3-0.2-0.5-0.5-0.5h-13.6c-0.3,0-0.5,0.2-0.5,0.5V266"/>
		<ellipse class="st4" cx="771.2" cy="276.4" rx="6.3" ry="6.4"/>
		<ellipse class="st18" cx="771.2" cy="276.4" rx="1.7" ry="1.7"/>
		<path class="st18" d="M700.7,244.8h9.9c0.3,0,0.5,0.2,0.5,0.5v3.8c0,0.3-0.2,0.5-0.5,0.5h-9.9h-9.9c-0.3,0-0.5-0.2-0.5-0.5v-3.8
			c0-0.3,0.2-0.5,0.5-0.5H700.7z"/>
		<ellipse class="st18" cx="714.4" cy="276.4" rx="21" ry="21.3"/>
		<path class="st18" d="M693.4,266c2.9-6,8.2-10.6,14.7-12.4V253c0-0.3-0.2-0.5-0.5-0.5h-13.6c-0.3,0-0.5,0.2-0.5,0.5V266"/>
		<ellipse class="st4" cx="714.4" cy="276.4" rx="6.3" ry="6.4"/>
		<ellipse class="st18" cx="714.4" cy="276.4" rx="1.7" ry="1.7"/>
		<g>
			<text transform="matrix(1 0 0 1 705.8197 312.2575)" class="st18 st11 st19">H 1</text>
		</g>
		<g>
			<text transform="matrix(1 0 0 1 761.496 312.6849)" class="st18 st11 st19">H 2</text>
		</g>
	</g>
	<g id="Слой_56">
		<path class="st2" d="M39.7,326.1c-8.4,0-15.2-26.2-15.3-58.6c-0.1-32.4,6.6-58.7,15-58.7L39.7,326.1z"/>
		<path class="st2" d="M399.5,325.8c10,0,18-26.2,17.9-58.5c-0.1-32.3-8.2-58.5-18.2-58.5L399.5,325.8z"/>
		<rect x="48.9" y="208.9" class="st2" width="338.4" height="117.3"/>
		<rect x="387" y="203.4" class="st3" width="11.3" height="126.5"/>
		<rect x="39.4" y="203.4" class="st3" width="9.5" height="126.5"/>
		<path class="st4" d="M368.9,317H255.4c-1.4,0-2.6-1.2-2.6-2.6v-83.1c0-1.4,1.2-2.6,2.6-2.6h113.5c1.4,0,2.6,1.2,2.6,2.6v83.1
			C371.6,315.8,370.4,317,368.9,317z"/>
		<path class="st5" d="M116.6,305.5c0,7.9-5.1,12.4-11.2,12.4H78.1c-6.2,0-11.2-4.5-11.2-12.4v-73.4c0-7.9,5.1-12.4,11.2-12.4h27.3
			c6.2,0,11.2,4.5,11.2,12.4V305.5z M105.4,315.5c5.2,0,9.4-3.4,9.4-10v-73.4c0-6.6-4.2-10-9.4-10H78.1c-5.2,0-9.4,3.4-9.4,10v73.4
			c0,6.6,4.2,10,9.4,10H105.4z"/>
		<path id="белый_00000093149456194577499740000002666272024469877664_" class="st6" d="M78.1,315.5c-5.2,0-9.4-3.4-9.4-10
			v-73.4c0-6.6,4.2-10,9.4-10h27.3c5.2,0,9.4,3.4,9.4,10v73.4c0,6.6-4.2,10-9.4,10H78.1z"/>
		<path class="st7" d="M77.6,315.5c-5.2,0-9.4-3.4-9.4-10v-73.4c0-6.6,4.2-10,9.4-10h27.3c5.2,0,9.4,3.4,9.4,10v73.4
			c0,6.6-4.2,10-9.4,10H77.6z"/>
		<rect x="74.2" y="225.9" class="st8" width="14.4" height="86.7"/>
		<rect x="74.2" y="225.9" class="st8" width="17.5" height="3.5"/>
		<rect x="74.2" y="252.8" class="st8" width="17.5" height="3.5"/>
		<rect x="74.2" y="281.1" class="st8" width="17.5" height="3.5"/>
		<rect x="74.2" y="309.3" class="st9" width="17.5" height="3.5"/>
		<rect x="74.2" y="296.9" class="st9" width="14.4" height="15.9"/>
		<text transform="matrix(1 -2.470000e-03 2.470000e-03 1 96.6954 300.9437)" class="st10 st11 st12">165</text>
		<path class="st13" d="M241.7,261.7v-21.3c0-0.9-1.7-1.6-3.9-1.6l-106.2,0.1c-2.1,0-3.9,0.7-3.9,1.6l0,2.1l0,26.6
			c0,0.9,1.7,1.6,3.9,1.6l106.2-0.1c2.1,0,3.9-0.7,3.9-1.6L241.7,261.7z"/>
		<text transform="matrix(1 -2.470000e-03 2.470000e-03 1 132.8822 262.2218)" class="st10 st11 st14">T</text>
		<text transform="matrix(1 -2.470000e-03 2.470000e-03 1 140.9353 262.2419)" class="st10 st11 st15">, ° C</text>
		
			<rect x="231.8" y="243.1" transform="matrix(1 -2.538367e-03 2.538367e-03 1 -0.6312 0.5946)" class="st16" width="4.3" height="11.8"/>
		
			<rect x="231.8" y="254.9" transform="matrix(1 -2.539010e-03 2.539010e-03 1 -0.6613 0.5949)" class="st16" width="4.3" height="11.8"/>
		<text transform="matrix(1 -2.470000e-03 2.470000e-03 1 182.3161 263.2013)" class="st10 st11 st17">-30,39</text>
		<path class="st13" d="M241.7,298.7v-21.3c0-0.9-1.7-1.6-3.9-1.6l-106.2,0.1c-2.1,0-3.9,0.7-3.9,1.6l0,2.1l0,26.6
			c0,0.9,1.7,1.6,3.9,1.6l106.2-0.1c2.1,0,3.9-0.7,3.9-1.6L241.7,298.7z"/>
		<text transform="matrix(1 -2.470000e-03 2.470000e-03 1 132.8822 299.2218)" class="st10 st11 st14">T</text>
		<text transform="matrix(1 -2.470000e-03 2.470000e-03 1 140.9353 299.2419)" class="st10 st11 st15">, ° C</text>
		
			<rect x="231.8" y="280.1" transform="matrix(1 -2.538367e-03 2.538367e-03 1 -0.7252 0.5947)" class="st16" width="4.3" height="11.8"/>
		
			<rect x="231.8" y="291.9" transform="matrix(1 -2.539010e-03 2.539010e-03 1 -0.7553 0.595)" class="st16" width="4.3" height="11.8"/>
		<text transform="matrix(1 -2.470000e-03 2.470000e-03 1 182.3161 300.2013)" class="st10 st11 st17">-30,39</text>
		<path class="st18" d="M328.4,244.3h9.9c0.3,0,0.5,0.2,0.5,0.5v3.8c0,0.3-0.2,0.5-0.5,0.5h-9.9h-9.9c-0.3,0-0.5-0.2-0.5-0.5v-3.8
			c0-0.3,0.2-0.5,0.5-0.5H328.4z"/>
		<ellipse class="st18" cx="342.1" cy="275.9" rx="21" ry="21.3"/>
		<path class="st18" d="M321.1,265.5c2.9-6,8.2-10.6,14.7-12.4v-0.6c0-0.3-0.2-0.5-0.5-0.5h-13.6c-0.3,0-0.5,0.2-0.5,0.5V265.5"/>
		<ellipse class="st4" cx="342.1" cy="275.9" rx="6.3" ry="6.4"/>
		<ellipse class="st18" cx="342.1" cy="275.9" rx="1.7" ry="1.7"/>
		<path class="st18" d="M271.6,244.3h9.9c0.3,0,0.5,0.2,0.5,0.5v3.8c0,0.3-0.2,0.5-0.5,0.5h-9.9h-9.9c-0.3,0-0.5-0.2-0.5-0.5v-3.8
			c0-0.3,0.2-0.5,0.5-0.5H271.6z"/>
		<ellipse class="st18" cx="285.3" cy="275.9" rx="21" ry="21.3"/>
		<path class="st18" d="M264.3,265.5c2.9-6,8.2-10.6,14.7-12.4v-0.6c0-0.3-0.2-0.5-0.5-0.5h-13.6c-0.3,0-0.5,0.2-0.5,0.5V265.5"/>
		<ellipse class="st4" cx="285.3" cy="275.9" rx="6.3" ry="6.4"/>
		<ellipse class="st18" cx="285.3" cy="275.9" rx="1.7" ry="1.7"/>
		<g>
			<text transform="matrix(1 0 0 1 276.7486 311.8138)" class="st18 st11 st19">H 1</text>
		</g>
		<g>
			<text transform="matrix(1 0 0 1 332.4249 312.2413)" class="st18 st11 st19">H 2</text>
		</g>
	</g>
	<g id="Слой_41">
		<path class="st2" d="M1377.3,719.8c-8.4,0-15.2-26.2-15.3-58.6c-0.1-32.4,6.6-58.7,15-58.7L1377.3,719.8z"/>
		<path class="st2" d="M1687.1,719.5c10,0,18-26.2,17.9-58.5c-0.1-32.3-8.2-58.5-18.2-58.5L1687.1,719.5z"/>
		<rect x="1386.5" y="602.6" class="st2" width="288.4" height="117.3"/>
		<rect x="1674.6" y="597.1" class="st3" width="11.3" height="126.5"/>
		<rect x="1377" y="597.1" class="st3" width="9.5" height="126.5"/>
		<path class="st4" d="M1658.4,710.6H1593c-1.4,0-2.6-1.2-2.6-2.6v-83.1c0-1.4,1.2-2.6,2.6-2.6h65.3c1.4,0,2.6,1.2,2.6,2.6V708
			C1661,709.5,1659.8,710.6,1658.4,710.6z"/>
		<path class="st5" d="M1454.2,699.2c0,7.9-5.1,12.4-11.2,12.4h-27.3c-6.2,0-11.2-4.5-11.2-12.4v-73.4c0-7.9,5.1-12.4,11.2-12.4
			h27.3c6.2,0,11.2,4.5,11.2,12.4V699.2z M1443,709.2c5.2,0,9.4-3.4,9.4-10v-73.4c0-6.6-4.2-10-9.4-10h-27.3c-5.2,0-9.4,3.4-9.4,10
			v73.4c0,6.6,4.2,10,9.4,10H1443z"/>
		<path id="белый_00000160161704480739366090000000791026301616014215_" class="st6" d="M1415.7,709.2c-5.2,0-9.4-3.4-9.4-10
			v-73.4c0-6.6,4.2-10,9.4-10h27.3c5.2,0,9.4,3.4,9.4,10v73.4c0,6.6-4.2,10-9.4,10H1415.7z"/>
		<path class="st7" d="M1415.2,709.2c-5.2,0-9.4-3.4-9.4-10v-73.4c0-6.6,4.2-10,9.4-10h27.3c5.2,0,9.4,3.4,9.4,10v73.4
			c0,6.6-4.2,10-9.4,10H1415.2z"/>
		<rect x="1411.8" y="619.6" class="st8" width="14.4" height="86.7"/>
		<rect x="1411.8" y="619.6" class="st8" width="17.5" height="3.5"/>
		<rect x="1411.8" y="646.5" class="st8" width="17.5" height="3.5"/>
		<rect x="1411.8" y="674.7" class="st8" width="17.5" height="3.5"/>
		<rect x="1411.8" y="703" class="st9" width="17.5" height="3.5"/>
		<rect x="1411.8" y="690.6" class="st9" width="14.4" height="15.9"/>
		<text transform="matrix(1 -2.470000e-03 2.470000e-03 1 1434.3041 694.6402)" class="st10 st11 st12">165</text>
		<path class="st13" d="M1579.3,655.4v-21.3c0-0.9-1.7-1.6-3.9-1.6l-106.2,0.1c-2.1,0-3.9,0.7-3.9,1.6l0,2.1l0,26.6
			c0,0.9,1.7,1.6,3.9,1.6l106.2-0.1c2.1,0,3.9-0.7,3.9-1.6L1579.3,655.4z"/>
		<text transform="matrix(1 -2.470000e-03 2.470000e-03 1 1470.4908 655.9183)" class="st10 st11 st14">T</text>
		<text transform="matrix(1 -2.470000e-03 2.470000e-03 1 1478.5439 655.9384)" class="st10 st11 st15">, ° C</text>
		
			<rect x="1569.4" y="636.8" transform="matrix(1 -2.538367e-03 2.538367e-03 1 -1.6263 3.9912)" class="st16" width="4.3" height="11.8"/>
		
			<rect x="1569.4" y="648.6" transform="matrix(1 -2.539010e-03 2.539010e-03 1 -1.6566 3.9923)" class="st16" width="4.3" height="11.8"/>
		<text transform="matrix(1 -2.470000e-03 2.470000e-03 1 1519.9248 656.8978)" class="st10 st11 st17">-30,39</text>
		<path class="st13" d="M1579.3,692.4v-21.3c0-0.9-1.7-1.6-3.9-1.6l-106.2,0.1c-2.1,0-3.9,0.7-3.9,1.6l0,2.1l0,26.6
			c0,0.9,1.7,1.6,3.9,1.6l106.2-0.1c2.1,0,3.9-0.7,3.9-1.6L1579.3,692.4z"/>
		<text transform="matrix(1 -2.470000e-03 2.470000e-03 1 1470.4908 692.9183)" class="st10 st11 st14">T</text>
		<text transform="matrix(1 -2.470000e-03 2.470000e-03 1 1478.5439 692.9384)" class="st10 st11 st15">, ° C</text>
		
			<rect x="1569.4" y="673.8" transform="matrix(1 -2.538367e-03 2.538367e-03 1 -1.7202 3.9913)" class="st16" width="4.3" height="11.8"/>
		
			<rect x="1569.4" y="685.6" transform="matrix(1 -2.539010e-03 2.539010e-03 1 -1.7506 3.9925)" class="st16" width="4.3" height="11.8"/>
		<text transform="matrix(1 -2.470000e-03 2.470000e-03 1 1519.9248 693.8978)" class="st10 st11 st17">-30,39</text>
		<path class="st18" d="M1612.3,638h9.9c0.3,0,0.5,0.2,0.5,0.5v3.8c0,0.3-0.2,0.5-0.5,0.5h-9.9h-9.9c-0.3,0-0.5-0.2-0.5-0.5v-3.8
			c0-0.3,0.2-0.5,0.5-0.5H1612.3z"/>
		<ellipse class="st18" cx="1625.9" cy="669.6" rx="21" ry="21.3"/>
		<path class="st18" d="M1604.9,659.2c2.9-6,8.2-10.6,14.7-12.4v-0.6c0-0.3-0.2-0.5-0.5-0.5h-13.6c-0.3,0-0.5,0.2-0.5,0.5V659.2"/>
		<ellipse class="st4" cx="1625.9" cy="669.6" rx="6.3" ry="6.4"/>
		<ellipse class="st18" cx="1625.9" cy="669.6" rx="1.7" ry="1.7"/>
		<g>
			<text transform="matrix(1 0 0 1 1617.3573 705.5103)" class="st18 st11 st19">H 1</text>
		</g>
	</g>
	<g id="Слой_45">
		<path class="st2" d="M617.2,716.7c-8.4,0-15.2-26.2-15.3-58.6c-0.1-32.4,6.6-58.7,15-58.7L617.2,716.7z"/>
		<path class="st2" d="M927,716.4c10,0,18-26.2,17.9-58.5c-0.1-32.3-8.2-58.5-18.2-58.5L927,716.4z"/>
		<rect x="626.4" y="599.4" class="st2" width="288.4" height="117.3"/>
		<rect x="914.5" y="593.9" class="st3" width="11.3" height="126.5"/>
		<rect x="616.9" y="593.9" class="st3" width="9.5" height="126.5"/>
		<path class="st4" d="M898.2,707.5h-65.3c-1.4,0-2.6-1.2-2.6-2.6v-83.1c0-1.4,1.2-2.6,2.6-2.6h65.3c1.4,0,2.6,1.2,2.6,2.6v83.1
			C900.9,706.4,899.7,707.5,898.2,707.5z"/>
		<path class="st5" d="M694.1,696.1c0,7.9-5.1,12.4-11.2,12.4h-27.3c-6.2,0-11.2-4.5-11.2-12.4v-73.4c0-7.9,5.1-12.4,11.2-12.4h27.3
			c6.2,0,11.2,4.5,11.2,12.4V696.1z M682.9,706.1c5.2,0,9.4-3.4,9.4-10v-73.4c0-6.6-4.2-10-9.4-10h-27.3c-5.2,0-9.4,3.4-9.4,10v73.4
			c0,6.6,4.2,10,9.4,10H682.9z"/>
		<path id="белый_00000071552219095994411360000004559491138672838808_" class="st6" d="M655.6,706.1c-5.2,0-9.4-3.4-9.4-10
			v-73.4c0-6.6,4.2-10,9.4-10h27.3c5.2,0,9.4,3.4,9.4,10v73.4c0,6.6-4.2,10-9.4,10H655.6z"/>
		<path class="st7" d="M655,706.1c-5.2,0-9.4-3.4-9.4-10v-73.4c0-6.6,4.2-10,9.4-10h27.3c5.2,0,9.4,3.4,9.4,10v73.4
			c0,6.6-4.2,10-9.4,10H655z"/>
		<rect x="651.7" y="616.5" class="st8" width="14.4" height="86.7"/>
		<rect x="651.7" y="616.5" class="st8" width="17.5" height="3.5"/>
		<rect x="651.7" y="643.4" class="st8" width="17.5" height="3.5"/>
		<rect x="651.7" y="671.6" class="st8" width="17.5" height="3.5"/>
		<rect x="651.7" y="699.9" class="st9" width="17.5" height="3.5"/>
		<rect x="651.7" y="687.5" class="st9" width="14.4" height="15.9"/>
		<text transform="matrix(1 -2.470000e-03 2.470000e-03 1 674.1858 691.5239)" class="st10 st11 st12">165</text>
		<path class="st13" d="M819.2,652.3V631c0-0.9-1.7-1.6-3.9-1.6l-106.2,0.1c-2.1,0-3.9,0.7-3.9,1.6l0,2.1l0,26.6
			c0,0.9,1.7,1.6,3.9,1.6l106.2-0.1c2.1,0,3.9-0.7,3.9-1.6L819.2,652.3z"/>
		<text transform="matrix(1 -2.470000e-03 2.470000e-03 1 710.3726 652.8019)" class="st10 st11 st14">T</text>
		<text transform="matrix(1 -2.470000e-03 2.470000e-03 1 718.4257 652.822)" class="st10 st11 st15">, ° C</text>
		
			<rect x="809.3" y="633.7" transform="matrix(1 -2.538367e-03 2.538367e-03 1 -1.6208 2.0618)" class="st16" width="4.3" height="11.8"/>
		
			<rect x="809.3" y="645.4" transform="matrix(1 -2.539010e-03 2.539010e-03 1 -1.6511 2.0624)" class="st16" width="4.3" height="11.8"/>
		<text transform="matrix(1 -2.470000e-03 2.470000e-03 1 759.8065 653.7814)" class="st10 st11 st17">-30,39</text>
		<path class="st13" d="M819.2,689.3V668c0-0.9-1.7-1.6-3.9-1.6l-106.2,0.1c-2.1,0-3.9,0.7-3.9,1.6l0,2.1l0,26.6
			c0,0.9,1.7,1.6,3.9,1.6l106.2-0.1c2.1,0,3.9-0.7,3.9-1.6L819.2,689.3z"/>
		<text transform="matrix(1 -2.470000e-03 2.470000e-03 1 710.3726 689.8019)" class="st10 st11 st14">T</text>
		<text transform="matrix(1 -2.470000e-03 2.470000e-03 1 718.4257 689.822)" class="st10 st11 st15">, ° C</text>
		
			<rect x="809.3" y="670.7" transform="matrix(1 -2.538367e-03 2.538367e-03 1 -1.7147 2.0619)" class="st16" width="4.3" height="11.8"/>
		
			<rect x="809.3" y="682.4" transform="matrix(1 -2.539010e-03 2.539010e-03 1 -1.7451 2.0625)" class="st16" width="4.3" height="11.8"/>
		<text transform="matrix(1 -2.470000e-03 2.470000e-03 1 759.8065 690.7814)" class="st10 st11 st17">-30,39</text>
		<path class="st18" d="M854.1,634.9h9.9c0.3,0,0.5,0.2,0.5,0.5v3.8c0,0.3-0.2,0.5-0.5,0.5h-9.9h-9.9c-0.3,0-0.5-0.2-0.5-0.5v-3.8
			c0-0.3,0.2-0.5,0.5-0.5H854.1z"/>
		<ellipse class="st18" cx="867.8" cy="666.5" rx="21" ry="21.3"/>
		<path class="st18" d="M846.8,656.1c2.9-6,8.2-10.6,14.7-12.4v-0.6c0-0.3-0.2-0.5-0.5-0.5h-13.6c-0.3,0-0.5,0.2-0.5,0.5V656.1"/>
		<ellipse class="st4" cx="867.8" cy="666.5" rx="6.3" ry="6.4"/>
		<ellipse class="st18" cx="867.8" cy="666.5" rx="1.7" ry="1.7"/>
		<g>
			<text transform="matrix(1 0 0 1 859.2391 702.394)" class="st18 st11 st19">H 1</text>
		</g>
	</g>
	<g id="Слой_46">
		<path class="st2" d="M995.1,717.8c-8.4,0-15.2-26.2-15.3-58.6c-0.1-32.4,6.6-58.7,15-58.7L995.1,717.8z"/>
		<path class="st2" d="M1304.9,717.5c10,0,18-26.2,17.9-58.5c-0.1-32.3-8.2-58.5-18.2-58.5L1304.9,717.5z"/>
		<rect x="1004.3" y="600.5" class="st2" width="288.4" height="117.3"/>
		<rect x="1292.5" y="595" class="st3" width="11.3" height="126.5"/>
		<rect x="994.8" y="595" class="st3" width="9.5" height="126.5"/>
		<path class="st4" d="M1276.2,708.6h-65.3c-1.4,0-2.6-1.2-2.6-2.6v-83.1c0-1.4,1.2-2.6,2.6-2.6h65.3c1.4,0,2.6,1.2,2.6,2.6V706
			C1278.8,707.4,1277.6,708.6,1276.2,708.6z"/>
		<path class="st5" d="M1072,697.2c0,7.9-5.1,12.4-11.2,12.4h-27.3c-6.2,0-11.2-4.5-11.2-12.4v-73.4c0-7.9,5.1-12.4,11.2-12.4h27.3
			c6.2,0,11.2,4.5,11.2,12.4V697.2z M1060.8,707.2c5.2,0,9.4-3.4,9.4-10v-73.4c0-6.6-4.2-10-9.4-10h-27.3c-5.2,0-9.4,3.4-9.4,10
			v73.4c0,6.6,4.2,10,9.4,10H1060.8z"/>
		<path id="белый_00000170981256374121286880000015390314477147002042_" class="st6" d="M1033.5,707.2c-5.2,0-9.4-3.4-9.4-10
			v-73.4c0-6.6,4.2-10,9.4-10h27.3c5.2,0,9.4,3.4,9.4,10v73.4c0,6.6-4.2,10-9.4,10H1033.5z"/>
		<path class="st7" d="M1033,707.2c-5.2,0-9.4-3.4-9.4-10v-73.4c0-6.6,4.2-10,9.4-10h27.3c5.2,0,9.4,3.4,9.4,10v73.4
			c0,6.6-4.2,10-9.4,10H1033z"/>
		<rect x="1029.6" y="617.6" class="st8" width="14.4" height="86.7"/>
		<rect x="1029.6" y="617.6" class="st8" width="17.5" height="3.5"/>
		<rect x="1029.6" y="644.5" class="st8" width="17.5" height="3.5"/>
		<rect x="1029.6" y="672.7" class="st8" width="17.5" height="3.5"/>
		<rect x="1029.6" y="701" class="st9" width="17.5" height="3.5"/>
		<rect x="1029.6" y="688.6" class="st9" width="14.4" height="15.9"/>
		<text transform="matrix(1 -2.470000e-03 2.470000e-03 1 1052.1316 692.6143)" class="st10 st11 st12">165</text>
		<path class="st13" d="M1197.1,653.3v-21.3c0-0.9-1.7-1.6-3.9-1.6l-106.2,0.1c-2.1,0-3.9,0.7-3.9,1.6l0,2.1l0,26.6
			c0,0.9,1.7,1.6,3.9,1.6l106.2-0.1c2.1,0,3.9-0.7,3.9-1.6L1197.1,653.3z"/>
		<text transform="matrix(1 -2.470000e-03 2.470000e-03 1 1088.3185 653.8925)" class="st10 st11 st14">T</text>
		<text transform="matrix(1 -2.470000e-03 2.470000e-03 1 1096.3716 653.9125)" class="st10 st11 st15">, ° C</text>
		
			<rect x="1187.2" y="634.8" transform="matrix(1 -2.538367e-03 2.538367e-03 1 -1.6224 3.0211)" class="st16" width="4.3" height="11.8"/>
		
			<rect x="1187.2" y="646.5" transform="matrix(1 -2.539010e-03 2.539010e-03 1 -1.6527 3.022)" class="st16" width="4.3" height="11.8"/>
		<text transform="matrix(1 -2.470000e-03 2.470000e-03 1 1137.7523 654.8719)" class="st10 st11 st17">-30,39</text>
		<path class="st13" d="M1197.1,690.3v-21.3c0-0.9-1.7-1.6-3.9-1.6l-106.2,0.1c-2.1,0-3.9,0.7-3.9,1.6l0,2.1l0,26.6
			c0,0.9,1.7,1.6,3.9,1.6l106.2-0.1c2.1,0,3.9-0.7,3.9-1.6L1197.1,690.3z"/>
		<text transform="matrix(1 -2.470000e-03 2.470000e-03 1 1088.3185 690.8925)" class="st10 st11 st14">T</text>
		<text transform="matrix(1 -2.470000e-03 2.470000e-03 1 1096.3716 690.9125)" class="st10 st11 st15">, ° C</text>
		
			<rect x="1187.2" y="671.8" transform="matrix(1 -2.538367e-03 2.538367e-03 1 -1.7163 3.0212)" class="st16" width="4.3" height="11.8"/>
		
			<rect x="1187.2" y="683.5" transform="matrix(1 -2.539010e-03 2.539010e-03 1 -1.7466 3.0221)" class="st16" width="4.3" height="11.8"/>
		<text transform="matrix(1 -2.470000e-03 2.470000e-03 1 1137.7523 691.8719)" class="st10 st11 st17">-30,39</text>
		<path class="st18" d="M1232.1,636h9.9c0.3,0,0.5,0.2,0.5,0.5v3.8c0,0.3-0.2,0.5-0.5,0.5h-9.9h-9.9c-0.3,0-0.5-0.2-0.5-0.5v-3.8
			c0-0.3,0.2-0.5,0.5-0.5H1232.1z"/>
		<ellipse class="st18" cx="1245.8" cy="667.6" rx="21" ry="21.3"/>
		<path class="st18" d="M1224.7,657.2c2.9-6,8.2-10.6,14.7-12.4v-0.6c0-0.3-0.2-0.5-0.5-0.5h-13.6c-0.3,0-0.5,0.2-0.5,0.5V657.2"/>
		<ellipse class="st4" cx="1245.8" cy="667.6" rx="6.3" ry="6.4"/>
		<ellipse class="st18" cx="1245.8" cy="667.6" rx="1.7" ry="1.7"/>
		<g>
			<text transform="matrix(1 0 0 1 1237.1849 703.4845)" class="st18 st11 st19">H 1</text>
		</g>
	</g>
	<g id="Слой_98">
		<path class="st2" d="M1329.3,326.6c-8.4,0-15.2-26.2-15.3-58.6c-0.1-32.4,6.6-58.7,15-58.7L1329.3,326.6z"/>
		<path class="st2" d="M1689.1,326.3c10,0,18-26.2,17.9-58.5c-0.1-32.3-8.2-58.5-18.2-58.5L1689.1,326.3z"/>
		<rect x="1338.5" y="209.4" class="st2" width="338.4" height="117.3"/>
		<rect x="1676.6" y="203.9" class="st3" width="11.3" height="126.5"/>
		<rect x="1329" y="203.9" class="st3" width="9.5" height="126.5"/>
		<path class="st4" d="M1658.6,317.5H1545c-1.4,0-2.6-1.2-2.6-2.6v-83.1c0-1.4,1.2-2.6,2.6-2.6h113.5c1.4,0,2.6,1.2,2.6,2.6v83.1
			C1661.2,316.3,1660,317.5,1658.6,317.5z"/>
		<path class="st5" d="M1406.2,306c0,7.9-5.1,12.4-11.2,12.4h-27.3c-6.2,0-11.2-4.5-11.2-12.4v-73.4c0-7.9,5.1-12.4,11.2-12.4h27.3
			c6.2,0,11.2,4.5,11.2,12.4V306z M1395,316c5.2,0,9.4-3.4,9.4-10v-73.4c0-6.6-4.2-10-9.4-10h-27.3c-5.2,0-9.4,3.4-9.4,10V306
			c0,6.6,4.2,10,9.4,10H1395z"/>
		<path id="белый_00000081627994875652910320000005224349152298448272_" class="st6" d="M1367.7,316c-5.2,0-9.4-3.4-9.4-10
			v-73.4c0-6.6,4.2-10,9.4-10h27.3c5.2,0,9.4,3.4,9.4,10V306c0,6.6-4.2,10-9.4,10H1367.7z"/>
		<path class="st7" d="M1367.2,316c-5.2,0-9.4-3.4-9.4-10v-73.4c0-6.6,4.2-10,9.4-10h27.3c5.2,0,9.4,3.4,9.4,10V306
			c0,6.6-4.2,10-9.4,10H1367.2z"/>
		<rect x="1363.8" y="226.4" class="st8" width="14.4" height="86.7"/>
		<rect x="1363.8" y="226.4" class="st8" width="17.5" height="3.5"/>
		<rect x="1363.8" y="253.3" class="st8" width="17.5" height="3.5"/>
		<rect x="1363.8" y="281.6" class="st8" width="17.5" height="3.5"/>
		<rect x="1363.8" y="309.8" class="st9" width="17.5" height="3.5"/>
		<rect x="1363.8" y="297.4" class="st9" width="14.4" height="15.9"/>
		<text transform="matrix(1 -2.470000e-03 2.470000e-03 1 1386.3224 301.4426)" class="st10 st11 st12">165</text>
		<path class="st13" d="M1531.3,262.2v-21.3c0-0.9-1.7-1.6-3.9-1.6l-106.2,0.1c-2.1,0-3.9,0.7-3.9,1.6l0,2.1l0,26.6
			c0,0.9,1.7,1.6,3.9,1.6l106.2-0.1c2.1,0,3.9-0.7,3.9-1.6L1531.3,262.2z"/>
		<text transform="matrix(1 -2.470000e-03 2.470000e-03 1 1422.5093 262.7207)" class="st10 st11 st14">T</text>
		<text transform="matrix(1 -2.470000e-03 2.470000e-03 1 1430.5624 262.7407)" class="st10 st11 st15">, ° C</text>
		
			<rect x="1521.4" y="243.6" transform="matrix(1 -2.538367e-03 2.538367e-03 1 -0.6283 3.8682)" class="st16" width="4.3" height="11.8"/>
		
			<rect x="1521.4" y="255.4" transform="matrix(1 -2.539010e-03 2.539010e-03 1 -0.6584 3.8693)" class="st16" width="4.3" height="11.8"/>
		<text transform="matrix(1 -2.470000e-03 2.470000e-03 1 1471.9431 263.7001)" class="st10 st11 st17">-30,39</text>
		<path class="st13" d="M1531.3,299.2v-21.3c0-0.9-1.7-1.6-3.9-1.6l-106.2,0.1c-2.1,0-3.9,0.7-3.9,1.6l0,2.1l0,26.6
			c0,0.9,1.7,1.6,3.9,1.6l106.2-0.1c2.1,0,3.9-0.7,3.9-1.6L1531.3,299.2z"/>
		<text transform="matrix(1 -2.470000e-03 2.470000e-03 1 1422.5093 299.7207)" class="st10 st11 st14">T</text>
		<text transform="matrix(1 -2.470000e-03 2.470000e-03 1 1430.5624 299.7407)" class="st10 st11 st15">, ° C</text>
		
			<rect x="1521.4" y="280.6" transform="matrix(1 -2.538367e-03 2.538367e-03 1 -0.7223 3.8683)" class="st16" width="4.3" height="11.8"/>
		
			<rect x="1521.4" y="292.4" transform="matrix(1 -2.539010e-03 2.539010e-03 1 -0.7524 3.8694)" class="st16" width="4.3" height="11.8"/>
		<text transform="matrix(1 -2.470000e-03 2.470000e-03 1 1471.9431 300.7001)" class="st10 st11 st17">-30,39</text>
		<g id="Слой_99">
			<path class="st18" d="M1618,244.8h9.9c0.3,0,0.5,0.2,0.5,0.5v3.8c0,0.3-0.2,0.5-0.5,0.5h-9.9h-9.9c-0.3,0-0.5-0.2-0.5-0.5v-3.8
				c0-0.3,0.2-0.5,0.5-0.5H1618z"/>
			<ellipse class="st18" cx="1631.7" cy="276.4" rx="21" ry="21.3"/>
			<path class="st18" d="M1610.7,266c2.9-6,8.2-10.6,14.7-12.4V253c0-0.3-0.2-0.5-0.5-0.5h-13.6c-0.3,0-0.5,0.2-0.5,0.5V266"/>
			<ellipse class="st4" cx="1631.7" cy="276.4" rx="6.3" ry="6.4"/>
			<ellipse class="st18" cx="1631.7" cy="276.4" rx="1.7" ry="1.7"/>
			<path class="st18" d="M1561.3,244.8h9.9c0.3,0,0.5,0.2,0.5,0.5v3.8c0,0.3-0.2,0.5-0.5,0.5h-9.9h-9.9c-0.3,0-0.5-0.2-0.5-0.5v-3.8
				c0-0.3,0.2-0.5,0.5-0.5H1561.3z"/>
			<ellipse class="st18" cx="1575" cy="276.4" rx="21" ry="21.3"/>
			<path class="st18" d="M1553.9,266c2.9-6,8.2-10.6,14.7-12.4V253c0-0.3-0.2-0.5-0.5-0.5h-13.6c-0.3,0-0.5,0.2-0.5,0.5V266"/>
			<ellipse class="st4" cx="1575" cy="276.4" rx="6.3" ry="6.4"/>
			<ellipse class="st18" cx="1575" cy="276.4" rx="1.7" ry="1.7"/>
			<g>
				<text transform="matrix(1 0 0 1 1566.3756 312.3127)" class="st18 st11 st19">H 1</text>
			</g>
			<g>
				<text transform="matrix(1 0 0 1 1622.0519 312.7401)" class="st18 st11 st19">H 2</text>
			</g>
		</g>
	</g>
</g>
<g id="SimpleElements">
	<g id="water-barrel-elem">
		
			<image style="overflow:visible;" width="242" height="153" xlink:href="../../../elements/water-barrel-elem/pub/default.png"  transform="matrix(1 0 0 1 105.5 411.5)">
		</image>
		
			<image style="overflow:visible;" width="242" height="153" xlink:href="../../../elements/water-barrel-elem/pub/default.png"  transform="matrix(1 0 0 1 105.5 591.5)">
		</image>
		
			<image style="overflow:visible;" width="242" height="153" xlink:href="../../../elements/water-barrel-elem/pub/default.png"  transform="matrix(1 0 0 1 105.5 771.5)">
		</image>
		
			<image style="overflow:visible;" width="242" height="153" xlink:href="../../../elements/water-barrel-elem/pub/default.png"  transform="matrix(1 0 0 1 105.5 951.5)">
		</image>
		
			<image style="overflow:visible;" width="242" height="153" xlink:href="../../../elements/water-barrel-elem/pub/default.png"  transform="matrix(1 0 0 1 1800 86.5)">
		</image>
		
			<image style="overflow:visible;" width="242" height="153" xlink:href="../../../elements/water-barrel-elem/pub/default.png"  transform="matrix(1 0 0 1 2119 86.5)">
		</image>
		
			<image style="overflow:visible;" width="242" height="153" xlink:href="../../../elements/water-barrel-elem/pub/default.png"  transform="matrix(1 0 0 1 1800 594.5)">
		</image>
		
			<image style="overflow:visible;" width="242" height="153" xlink:href="../../../elements/water-barrel-elem/pub/default.png"  transform="matrix(1 0 0 1 2119 594.5)">
		</image>
	</g>
	<g id="multi-tit-elem">
		
			<image style="overflow:visible;" width="114" height="32" xlink:href="../../../elements/multi-tit-elem/pub/multi-tit_no-arroworient.png"  transform="matrix(1 0 0 1 73 154)">
		</image>
		
			<image style="overflow:visible;" width="114" height="32" xlink:href="../../../elements/multi-tit-elem/pub/multi-tit_no-arroworient.png"  transform="matrix(1 0 0 1 271 83)">
		</image>
		
			<image style="overflow:visible;" width="114" height="32" xlink:href="../../../elements/multi-tit-elem/pub/multi-tit_no-arroworient.png"  transform="matrix(1 0 0 1 25 83)">
		</image>
		
			<image style="overflow:visible;" width="114" height="32" xlink:href="../../../elements/multi-tit-elem/pub/multi-tit_no-arroworient.png"  transform="matrix(1 0 0 1 304 154)">
		</image>
		
			<image style="overflow:visible;" width="114" height="32" xlink:href="../../../elements/multi-tit-elem/pub/multi-tit_no-arroworient.png"  transform="matrix(1 0 0 1 505 154)">
		</image>
		
			<image style="overflow:visible;" width="114" height="32" xlink:href="../../../elements/multi-tit-elem/pub/multi-tit_no-arroworient.png"  transform="matrix(1 0 0 1 703 83)">
		</image>
		
			<image style="overflow:visible;" width="114" height="32" xlink:href="../../../elements/multi-tit-elem/pub/multi-tit_no-arroworient.png"  transform="matrix(1 0 0 1 457 83)">
		</image>
		
			<image style="overflow:visible;" width="114" height="32" xlink:href="../../../elements/multi-tit-elem/pub/multi-tit_no-arroworient.png"  transform="matrix(1 0 0 1 736 154)">
		</image>
		
			<image style="overflow:visible;" width="114" height="32" xlink:href="../../../elements/multi-tit-elem/pub/multi-tit_no-arroworient.png"  transform="matrix(1 0 0 1 931 154)">
		</image>
		
			<image style="overflow:visible;" width="114" height="32" xlink:href="../../../elements/multi-tit-elem/pub/multi-tit_no-arroworient.png"  transform="matrix(1 0 0 1 1129 83)">
		</image>
		
			<image style="overflow:visible;" width="114" height="32" xlink:href="../../../elements/multi-tit-elem/pub/multi-tit_no-arroworient.png"  transform="matrix(1 0 0 1 883 83)">
		</image>
		
			<image style="overflow:visible;" width="114" height="32" xlink:href="../../../elements/multi-tit-elem/pub/multi-tit_no-arroworient.png"  transform="matrix(1 0 0 1 1162 154)">
		</image>
		
			<image style="overflow:visible;" width="114" height="32" xlink:href="../../../elements/multi-tit-elem/pub/multi-tit_no-arroworient.png"  transform="matrix(1 0 0 1 1356 154)">
		</image>
		
			<image style="overflow:visible;" width="114" height="32" xlink:href="../../../elements/multi-tit-elem/pub/multi-tit_no-arroworient.png"  transform="matrix(1 0 0 1 1554 83)">
		</image>
		
			<image style="overflow:visible;" width="114" height="32" xlink:href="../../../elements/multi-tit-elem/pub/multi-tit_no-arroworient.png"  transform="matrix(1 0 0 1 1308 83)">
		</image>
		
			<image style="overflow:visible;" width="114" height="32" xlink:href="../../../elements/multi-tit-elem/pub/multi-tit_no-arroworient.png"  transform="matrix(1 0 0 1 1587 154)">
		</image>
		
			<image style="overflow:visible;" width="114" height="32" xlink:href="../../../elements/multi-tit-elem/pub/multi-tit_no-arroworient.png"  transform="matrix(1 0 0 1 1951 391)">
		</image>
		
			<image style="overflow:visible;" width="114" height="32" xlink:href="../../../elements/multi-tit-elem/pub/multi-tit_no-arroworient.png"  transform="matrix(1 0 0 1 1951 478)">
		</image>
		
			<image style="overflow:visible;" width="114" height="32" xlink:href="../../../elements/multi-tit-elem/pub/multi-tit_no-arroworient.png"  transform="matrix(1 0 0 1 1772 995)">
		</image>
		
			<image style="overflow:visible;" width="114" height="32" xlink:href="../../../elements/multi-tit-elem/pub/multi-tit_no-arroworient.png"  transform="matrix(1 0 0 1 1914 1024)">
		</image>
		
			<image style="overflow:visible;" width="114" height="32" xlink:href="../../../elements/multi-tit-elem/pub/multi-tit_no-arroworient.png"  transform="matrix(1 0 0 1 1914 834)">
		</image>
		
			<image style="overflow:visible;" width="114" height="32" xlink:href="../../../elements/multi-tit-elem/pub/multi-tit_no-arroworient.png"  transform="matrix(1 0 0 1 793 529)">
		</image>
		
			<image style="overflow:visible;" width="114" height="32" xlink:href="../../../elements/multi-tit-elem/pub/multi-tit_no-arroworient.png"  transform="matrix(1 0 0 1 1152 529)">
		</image>
		
			<image style="overflow:visible;" width="114" height="32" xlink:href="../../../elements/multi-tit-elem/pub/multi-tit_no-arroworient.png"  transform="matrix(1 0 0 1 1539 529)">
		</image>
	</g>
	<g id="valve-n-elem">
		
			<image style="overflow:visible;" width="71" height="89" xlink:href="../../../elements/valve-n-elem/pub/valve-n_h_caption.png"  transform="matrix(1 0 0 1 457.5 453.5)">
		</image>
		
			<image style="overflow:visible;" width="71" height="89" xlink:href="../../../elements/valve-n-elem/pub/valve-n_h_caption.png"  transform="matrix(1 0 0 1 457.5 635.5)">
		</image>
		
			<image style="overflow:visible;" width="71" height="89" xlink:href="../../../elements/valve-n-elem/pub/valve-n_h_caption.png"  transform="matrix(1 0 0 1 457.5 829.5)">
		</image>
		
			<image style="overflow:visible;" width="71" height="89" xlink:href="../../../elements/valve-n-elem/pub/valve-n_h_caption.png"  transform="matrix(1 0 0 1 457.5 1019.5)">
		</image>
	</g>
	<g id="counter-elem">
		
			<image style="overflow:visible;" width="51" height="33" xlink:href="../../../elements/counter-elem/pub/default.png"  transform="matrix(0 -1 1 0 225.5 121.5)">
		</image>
		
			<image style="overflow:visible;" width="51" height="33" xlink:href="../../../elements/counter-elem/pub/default.png"  transform="matrix(0 -1 1 0 664.5 121.5)">
		</image>
		
			<image style="overflow:visible;" width="51" height="33" xlink:href="../../../elements/counter-elem/pub/default.png"  transform="matrix(0 -1 1 0 1090.5 121.5)">
		</image>
		
			<image style="overflow:visible;" width="51" height="33" xlink:href="../../../elements/counter-elem/pub/default.png"  transform="matrix(0 -1 1 0 1514.5 121.5)">
		</image>
		
			<image style="overflow:visible;" width="51" height="33" xlink:href="../../../elements/counter-elem/pub/default.png"  transform="matrix(1 0 0 1 1800.5 955.5)">
		</image>
		
			<image style="overflow:visible;" width="51" height="33" xlink:href="../../../elements/counter-elem/pub/default.png"  transform="matrix(1 0 0 1 1979.5 351.5)">
		</image>
		
			<image style="overflow:visible;" width="51" height="33" xlink:href="../../../elements/counter-elem/pub/default.png"  transform="matrix(1 0 0 1 1979.5 437.5)">
		</image>
	</g>
	<g id="pump-n-elem">
		
			<image style="overflow:visible;" width="91" height="92" xlink:href="../../../elements/pump-n-elem/pub/pump-n_h_caption.png"  transform="matrix(1 0 0 1 2031 824.5)">
		</image>
		
			<image style="overflow:visible;" width="91" height="92" xlink:href="../../../elements/pump-n-elem/pub/pump-n_h_caption.png"  transform="matrix(1 0 0 1 2031 1013.5)">
		</image>
	</g>
	<g id="valve-mini-unactive-elem">
		
			<image style="overflow:visible;" width="37" height="38" xlink:href="../../../elements/valve-mini-unactive-elem/pub/valve-mini-unactive_v_no-caption.png"  transform="matrix(1 0 0 1 2245.5 1037.5)">
		</image>
		
			<image style="overflow:visible;" width="37" height="38" xlink:href="../../../elements/valve-mini-unactive-elem/pub/valve-mini-unactive_v_no-caption.png"  transform="matrix(1 0 0 1 1728.5 654)">
		</image>
		
			<image style="overflow:visible;" width="37" height="38" xlink:href="../../../elements/valve-mini-unactive-elem/pub/valve-mini-unactive_v_no-caption.png"  transform="matrix(1 0 0 1 936.5 943)">
		</image>
		
			<image style="overflow:visible;" width="38" height="37" xlink:href="../../../elements/valve-mini-unactive-elem/pub/valve-mini-unactive_h_no-caption.png"  transform="matrix(1 0 0 1 998 848.5)">
		</image>
		
			<image style="overflow:visible;" width="38" height="37" xlink:href="../../../elements/valve-mini-unactive-elem/pub/valve-mini-unactive_h_no-caption.png"  transform="matrix(1 0 0 1 886.5 848.5)">
		</image>
		
			<image style="overflow:visible;" width="38" height="37" xlink:href="../../../elements/valve-mini-unactive-elem/pub/valve-mini-unactive_h_no-caption.png"  transform="matrix(1 0 0 1 886.5 1043)">
		</image>
		
			<image style="overflow:visible;" width="38" height="37" xlink:href="../../../elements/valve-mini-unactive-elem/pub/valve-mini-unactive_h_no-caption.png"  transform="matrix(1 0 0 1 998 1043)">
		</image>
		
			<image style="overflow:visible;" width="38" height="37" xlink:href="../../../elements/valve-mini-unactive-elem/pub/valve-mini-unactive_h_no-caption.png"  transform="matrix(1 0 0 1 1262 848.5)">
		</image>
		
			<image style="overflow:visible;" width="38" height="37" xlink:href="../../../elements/valve-mini-unactive-elem/pub/valve-mini-unactive_h_no-caption.png"  transform="matrix(1 0 0 1 1382 848.5)">
		</image>
		
			<image style="overflow:visible;" width="38" height="37" xlink:href="../../../elements/valve-mini-unactive-elem/pub/valve-mini-unactive_h_no-caption.png"  transform="matrix(1 0 0 1 1262 1043)">
		</image>
		
			<image style="overflow:visible;" width="38" height="37" xlink:href="../../../elements/valve-mini-unactive-elem/pub/valve-mini-unactive_h_no-caption.png"  transform="matrix(1 0 0 1 1382 1043)">
		</image>
		
			<image style="overflow:visible;" width="37" height="38" xlink:href="../../../elements/valve-mini-unactive-elem/pub/valve-mini-unactive_v_no-caption.png"  transform="matrix(1 0 0 1 1318.5 943)">
		</image>
		
			<image style="overflow:visible;" width="38" height="37" xlink:href="../../../elements/valve-mini-unactive-elem/pub/valve-mini-unactive_h_no-caption.png"  transform="matrix(1 0 0 1 1672 1043)">
		</image>
		
			<image style="overflow:visible;" width="38" height="37" xlink:href="../../../elements/valve-mini-unactive-elem/pub/valve-mini-unactive_h_no-caption.png"  transform="matrix(1 0 0 1 1672 848.5)">
		</image>
	</g>
	<g id="text-box-elem">
		
			<image style="overflow:visible;" width="31" height="19" xlink:href="../../../elements/text-box-elem/pub/default.png"  transform="matrix(1 0 0 1 459.5 6.5)">
		</image>
		
			<image style="overflow:visible;" width="31" height="19" xlink:href="../../../elements/text-box-elem/pub/default.png"  transform="matrix(1 0 0 1 1591 6.5)">
		</image>
		
			<image style="overflow:visible;" width="31" height="19" xlink:href="../../../elements/text-box-elem/pub/default.png"  transform="matrix(1 0 0 1 1566.5 864.5)">
		</image>
		
			<image style="overflow:visible;" width="31" height="19" xlink:href="../../../elements/text-box-elem/pub/default.png"  transform="matrix(1 0 0 1 1566.5 1057.5)">
		</image>
	</g>
</g>
<g id="text">
	<g id="px20">
		<text transform="matrix(1.1386 0 0 1 24.5872 72.7886)" class="st20 st11 st21">Поз. 11</text>
		<text transform="matrix(1 0 0 1 79.527 387.7475)" class="st20 st11 st21">Емкости накопительные УКПГ-41</text>
		<text transform="matrix(1 0 0 1 930.4419 844.9179)"><tspan x="0" y="0" class="st20 st11 st21">УКПГ-41</tspan><tspan x="16.1" y="17" class="st20 st11 st21">УТ-6</tspan></text>
		<text transform="matrix(1 0 0 1 1324.1594 845.2225)"><tspan x="0" y="0" class="st20 st11 st21">ВЖК</tspan><tspan x="-3.9" y="17" class="st20 st11 st21">УТ - 1</tspan></text>
		<text transform="matrix(0.9773 0 0 1 450.7923 72.3374)" class="st20 st11 st21">Поз. 12</text>
		<text transform="matrix(1 0 0 1 886.1593 73.4863)" class="st20 st11 st21">Поз. 13</text>
		<text transform="matrix(1.0989 0 0 1 1311.9075 73.4864)" class="st20 st11 st21">Поз. 14</text>
		<text transform="matrix(1 0 0 1 601.7477 541.9113)" class="st20 st11 st21">Поз. 26</text>
		<text transform="matrix(1 0 0 1 978.0475 542.2111)" class="st20 st11 st21">Поз 10</text>
		<text transform="matrix(1 0 0 1 1360.3376 542.5109)" class="st20 st11 st21">Поз 5.4</text>
		<text transform="matrix(1 0 0 1 2132.5017 62.418)"><tspan x="0" y="0" class="st20 st11 st21">Разервуары усреднители</tspan><tspan x="78.2" y="17" class="st20 st11 st21">стоков</tspan></text>
		<g>
			<text transform="matrix(1 0 0 1 1895.4045 310.4892)"><tspan x="0" y="0" class="st20 st11 st21">Поз. 22 Сооружения очистные</tspan><tspan x="57.2" y="17" class="st20 st11 st21">хоз.-быт. стоков</tspan></text>
		</g>
		<text transform="matrix(1 0 0 1 2157.2026 566.8965)"><tspan x="0" y="0" class="st20 st11 st21">Разервуары очищенных</tspan><tspan x="74" y="17" class="st20 st11 st21">стоков</tspan></text>
		<text transform="matrix(1 0 0 1 2156.5925 847.998)"><tspan x="0" y="0" class="st20 st11 st21">Поз 25 Станция насосная</tspan><tspan x="14.6" y="17" class="st20 st11 st21">очищенный остатков</tspan></text>
	</g>
</g>
<g id="tables">
	<g id="t1">
		<path class="st22" d="M419,341H22c-5.1,0-10-4.9-10-10V57c0-5.1,4.9-9,10-9h397c5.1,0,9,3.9,9,9v274C428,336.1,424.1,341,419,341z
			"/>
	</g>
	<g id="t2">
		<path class="st22" d="M849,341H450c-5.6,0-10-4.4-10-10V57c0-5.6,4.4-9,10-9h399.3c5.6,0,9.7,3.4,9.7,9v274
			C859,336.6,854.6,341,849,341z"/>
	</g>
	<g id="t3">
		<path class="st22" d="M415,1133H24c-6.6,0-12-5.4-12-12V370c0-6.6,5.4-12,12-12h391c6.6,0,12,5.4,12,12v751
			C427,1127.6,421.6,1133,415,1133z"/>
	</g>
	<g id="t4">
		<path class="st22" d="M1277,341H881c-5.4,0-10-4.6-10-10V57c0-5.4,4.6-9,10-9h396c5.4,0,9,3.6,9,9v274
			C1286,336.4,1282.4,341,1277,341z"/>
	</g>
	<g id="t5">
		<path class="st22" d="M1707,341h-397c-5.7,0-11-4.3-11-10V57c0-5.7,5.3-9,11-9h397c5.7,0,10,3.3,10,9v274
			C1717,336.7,1712.7,341,1707,341z"/>
	</g>
	<g id="t6">
		<path class="st22" d="M2353,251h-547c-9.6,0-17-7.4-17-17V57c0-9.6,7.4-17,17-17h547c9.6,0,18,7.4,18,17v177
			C2371,243.6,2362.6,251,2353,251z"/>
	</g>
	<g id="t7">
		<path class="st22" d="M2138,523h-239c-11.1,0-20-7.6-20-17V304c0-9.4,8.9-18,20-18h239c11.1,0,20,8.6,20,18v202
			C2158,515.4,2149.1,523,2138,523z"/>
	</g>
	<g id="t8">
		<path class="st22" d="M2353,1107h-687c-10.7,0-20-5-20-12V832c0-7,9.3-12,20-12h685c10.7,0,20,5,20,12l-1,263
			C2370,1102,2363.7,1107,2353,1107z"/>
	</g>
	<g id="t9">
		<path class="st22" d="M1326,745H979c-5.7,0-10-4.3-10-10V525c0-5.7,4.3-10,10-10h347c5.7,0,10,4.3,10,10v210
			C1336,740.7,1331.7,745,1326,745z"/>
	</g>
	<g id="t10">
		<path class="st22" d="M947,745H599c-5.7,0-11-4.3-11-10V525c0-5.7,5.3-10,11-10h348c5.7,0,10,4.3,10,10v210
			C957,740.7,952.7,745,947,745z"/>
	</g>
	<g id="t11">
		<path class="st22" d="M1420,1108h-158c-8.4,0-15-5.6-15-14V835c0-8.4,6.6-14,15-14h158c8.4,0,15,5.6,15,14v259
			C1435,1102.4,1428.4,1108,1420,1108z"/>
	</g>
	<g id="t12">
		<path class="st22" d="M1041,1108H877c-6.6,0-12-7.4-12-14V835c0-6.6,5.4-14,12-14h164c6.6,0,13,7.4,13,14v259
			C1054,1100.6,1047.6,1108,1041,1108z"/>
	</g>
	<g id="t13">
		<path class="st22" d="M1701,745h-342c-6.4,0-11-3.6-11-10V525c0-6.4,4.6-10,11-10h342c6.4,0,13,3.6,13,10v210
			C1714,741.4,1707.4,745,1701,745z"/>
	</g>
	<g id="t15">
		<path class="st22" d="M1804,762h552c8.4,0,15-6.6,15-15V557c0-8.4-6.6-15-15-15h-552c-8.4,0-15,6.6-15,15v190
			C1789,755.4,1795.6,762,1804,762z"/>
	</g>
</g>
<g id="helpers">
</g>
</svg>
