<?xml version="1.0" encoding="utf-8"?>
<!-- Generator: Adobe Illustrator 25.4.1, SVG Export Plug-In . SVG Version: 6.00 Build 0)  -->
<svg version="1.1" xmlns="http://www.w3.org/2000/svg" xmlns:xlink="http://www.w3.org/1999/xlink" x="0px" y="0px" width="2004px"
	 height="1450px" viewBox="0 0 2004 1450" style="enable-background:new 0 0 2004 1450;" xml:space="preserve">
<style type="text/css">
	.st0{fill:none;stroke:#F3C811;stroke-width:3;stroke-miterlimit:10;}
	.st1{fill:none;stroke:#288A39;stroke-width:3;stroke-miterlimit:10;}
	.st2{fill:none;stroke:#F3C80D;stroke-width:3;stroke-miterlimit:10;}
	.st3{fill:#FFFFFF;stroke:#288A39;stroke-width:3;stroke-miterlimit:10;}
	.st4{fill:#FFFFFF;stroke:#EFC100;stroke-width:3;stroke-miterlimit:10;}
	.st5{opacity:0.3;fill:#FFFFFF;stroke:#6C6F7A;stroke-miterlimit:10;}
	.st6{fill:none;stroke:#A6A9A9;stroke-miterlimit:10;stroke-dasharray:12;}
	.st7{fill:none;stroke:#A6A9A9;stroke-miterlimit:10;stroke-dasharray:11.8303,11.8303;}
	.st8{fill:none;stroke:#A6A9A9;stroke-miterlimit:10;stroke-dasharray:12.0905,12.0905;}
	.st9{fill:none;stroke:#A6A9A9;stroke-miterlimit:10;stroke-dasharray:12.0426,12.0426;}
	.st10{fill:none;stroke:#A6A9A9;stroke-miterlimit:10;stroke-dasharray:12.047,12.047;}
	.st11{fill:none;stroke:#A6A9A9;stroke-miterlimit:10;stroke-dasharray:11.8668,11.8668;}
	.st12{fill:#575A63;}
	.st13{font-family:'UbuntuCondensed-Regular';}
	.st14{font-size:14px;}
	.st15{font-size:18px;}
	.st16{letter-spacing:-1;}
	.st17{font-size:16px;}
	.st18{font-size:21px;}
</style>
<g id="SimpleElements">
	<g id="transition-button-elem">
		
			<image style="overflow:visible;" width="152" height="46" id="id1" xlink:href="../../../elements/transition-button-elem/pub/transition-button_arrowdirection-1.png"  transform="matrix(0.9843 0 0 0.9843 12.1906 1372.3604)">
		</image>
		
			<image style="overflow:visible;" width="152" height="46" id="id2" xlink:href="../../../elements/transition-button-elem/pub/transition-button_arrowdirection-1.png"  transform="matrix(0.9843 0 0 0.9843 12.1906 1195.3604)">
		</image>
		
			<image style="overflow:visible;" width="152" height="46" id="id3" xlink:href="../../../elements/transition-button-elem/pub/transition-button_arrowdirection-1.png"  transform="matrix(0.9843 0 0 0.9843 11.6906 1021.3603)">
		</image>
		
			<image style="overflow:visible;" width="152" height="46" id="id4" xlink:href="../../../elements/transition-button-elem/pub/transition-button_arrowdirection-1.png"  transform="matrix(0.9843 0 0 0.9843 11.6906 845.8603)">
		</image>
		
			<image style="overflow:visible;" width="152" height="46" id="id5" xlink:href="../../../elements/transition-button-elem/pub/transition-button_arrowdirection-1.png"  transform="matrix(0.9843 0 0 0.9843 11.6906 670.3603)">
		</image>
		
			<image style="overflow:visible;" width="152" height="46" id="id6" xlink:href="../../../elements/transition-button-elem/pub/transition-button_arrowdirection-0.png"  transform="matrix(0.9843 0 0 0.9843 11.6906 404.3603)">
		</image>
		
			<image style="overflow:visible;" width="152" height="46" id="id7" xlink:href="../../../elements/transition-button-elem/pub/transition-button_arrowdirection-0.png"  transform="matrix(0.9843 0 0 0.9843 11.6906 62.3603)">
		</image>
		
			<image style="overflow:visible;" width="152" height="46" id="id8" xlink:href="../../../elements/transition-button-elem/pub/transition-button_arrowdirection-0.png"  transform="matrix(0.9843 0 0 0.9843 1846.1906 1132.3604)">
		</image>
		
			<image style="overflow:visible;" width="152" height="46" id="id9" xlink:href="../../../elements/transition-button-elem/pub/transition-button_arrowdirection-1.png"  transform="matrix(0.9843 0 0 0.9843 1846.1906 1236.3604)">
		</image>
		
			<image style="overflow:visible;" width="152" height="46" id="id10" xlink:href="../../../elements/transition-button-elem/pub/transition-button_arrowdirection-0.png"  transform="matrix(0.9843 0 0 0.9843 1846.1906 1373.3604)">
		</image>
	</g>
	<g id="valve-n-elem">
		
			<image style="overflow:visible;" width="71" height="89" id="id11_00000049191326711642676440000009430712591588411540_" xlink:href="../../../../../Users/evgen/OneDrive/Рабочий стол/workspace/_work/arh/Elements/valve-n-elem/pub/valve-n_h_caption.png"  transform="matrix(1 0 0 1 219.5 823.5)">
		</image>
		
			<image style="overflow:visible;" width="71" height="89" id="id12_00000052800860951691049270000004078682946889082023_" xlink:href="../../../../../Users/evgen/OneDrive/Рабочий стол/workspace/_work/arh/Elements/valve-n-elem/pub/valve-n_h_caption.png"  transform="matrix(1 0 0 1 219.5 998.5)">
		</image>
		
			<image style="overflow:visible;" width="71" height="89" id="id13_00000055707353498111615380000005390166649339771051_" xlink:href="../../../../../Users/evgen/OneDrive/Рабочий стол/workspace/_work/arh/Elements/valve-n-elem/pub/valve-n_h_caption.png"  transform="matrix(1 0 0 1 219.5 648.5)">
		</image>
		
			<image style="overflow:visible;" width="71" height="89" id="id14_00000078731087698526035530000006883721013362130066_" xlink:href="../../../../../Users/evgen/OneDrive/Рабочий стол/workspace/_work/arh/Elements/valve-n-elem/pub/valve-n_h_caption.png"  transform="matrix(1 0 0 1 219.5 479)">
		</image>
		
			<image style="overflow:visible;" width="71" height="89" id="id15_00000019645572091259361670000006821152978894792851_" xlink:href="../../../../../Users/evgen/OneDrive/Рабочий стол/workspace/_work/arh/Elements/valve-n-elem/pub/valve-n_h_caption.png"  transform="matrix(1 0 0 1 219.5 382)">
		</image>
		
			<image style="overflow:visible;" width="71" height="89" id="id16_00000018235921808029872330000012236090300106686654_" xlink:href="../../../../../Users/evgen/OneDrive/Рабочий стол/workspace/_work/arh/Elements/valve-n-elem/pub/valve-n_h_caption.png"  transform="matrix(1 0 0 1 219.5 39.5)">
		</image>
		
			<image style="overflow:visible;" width="71" height="89" id="id17_00000116948566522830636740000003696532102123442320_" xlink:href="../../../../../Users/evgen/OneDrive/Рабочий стол/workspace/_work/arh/Elements/valve-n-elem/pub/valve-n_h_caption.png"  transform="matrix(1 0 0 1 638 1350.5)">
		</image>
	</g>
	<g id="multi-tit-elem">
		
			<image style="overflow:visible;" width="152" height="32" id="id55_00000145053103463383911430000007187612243312408991_" xlink:href="../../../elements/multi-tit-elem/pub/multi-tit_arroworient-left.png"  transform="matrix(1 0 0 1 1227 1285)">
		</image>
		
			<image style="overflow:visible;" width="134" height="64" id="id18" xlink:href="../../../elements/multi-tit-elem/pub/multi-tit_titcount-2_no-arroworient.png"  transform="matrix(1 0 0 1 367 9)">
		</image>
		
			<image style="overflow:visible;" width="134" height="64" id="id34" xlink:href="../../../elements/multi-tit-elem/pub/multi-tit_titcount-2_no-arroworient.png"  transform="matrix(1 0 0 1 1228 1076)">
		</image>
		
			<image style="overflow:visible;" width="134" height="64" id="id29" xlink:href="../../../elements/multi-tit-elem/pub/multi-tit_titcount-2_no-arroworient.png"  transform="matrix(1 0 0 1 1228 721)">
		</image>
		
			<image style="overflow:visible;" width="134" height="96" id="id19" xlink:href="../../../elements/multi-tit-elem/pub/multi-tit_titcount-3_no-arroworient.png"  transform="matrix(1 0 0 1 367 160)">
		</image>
		
			<image style="overflow:visible;" width="134" height="96" id="id20" xlink:href="../../../elements/multi-tit-elem/pub/multi-tit_titcount-3_no-arroworient.png"  transform="matrix(1 0 0 1 367 318)">
		</image>
		
			<image style="overflow:visible;" width="134" height="96" id="id21" xlink:href="../../../elements/multi-tit-elem/pub/multi-tit_titcount-3_no-arroworient.png"  transform="matrix(1 0 0 1 367 583)">
		</image>
		
			<image style="overflow:visible;" width="134" height="96" id="id22" xlink:href="../../../elements/multi-tit-elem/pub/multi-tit_titcount-3_no-arroworient.png"  transform="matrix(1 0 0 1 367 759)">
		</image>
		
			<image style="overflow:visible;" width="134" height="96" id="id23" xlink:href="../../../elements/multi-tit-elem/pub/multi-tit_titcount-3_no-arroworient.png"  transform="matrix(1 0 0 1 367 935)">
		</image>
		
			<image style="overflow:visible;" width="134" height="96" id="id24" xlink:href="../../../elements/multi-tit-elem/pub/multi-tit_titcount-3_no-arroworient.png"  transform="matrix(1 0 0 1 367 1111)">
		</image>
		
			<image style="overflow:visible;" width="134" height="96" id="id25" xlink:href="../../../elements/multi-tit-elem/pub/multi-tit_titcount-3_no-arroworient.png"  transform="matrix(1 0 0 1 367 1287)">
		</image>
		
			<image style="overflow:visible;" width="134" height="32" id="id26" xlink:href="../../../elements/multi-tit-elem/pub/multi-tit_no-arroworient.png"  transform="matrix(1 0 0 1 609 647)">
		</image>
		
			<image style="overflow:visible;" width="134" height="32" id="id27" xlink:href="../../../elements/multi-tit-elem/pub/multi-tit_no-arroworient.png"  transform="matrix(1 0 0 1 871 597)">
		</image>
		
			<image style="overflow:visible;" width="134" height="32" id="id28" xlink:href="../../../elements/multi-tit-elem/pub/multi-tit_no-arroworient.png"  transform="matrix(1 0 0 1 871 1033)">
		</image>
		
			<image style="overflow:visible;" width="134" height="32" id="id44" xlink:href="../../../elements/multi-tit-elem/pub/multi-tit_no-arroworient.png"  transform="matrix(1 0 0 1 1622 488)">
		</image>
		
			<image style="overflow:visible;" width="134" height="32" id="id30" xlink:href="../../../elements/multi-tit-elem/pub/multi-tit_no-arroworient.png"  transform="matrix(1 0 0 1 1622 346)">
		</image>
		
			<image style="overflow:visible;" width="134" height="32" id="id31" xlink:href="../../../elements/multi-tit-elem/pub/multi-tit_no-arroworient.png"  transform="matrix(1 0 0 1 1622 714)">
		</image>
		
			<image style="overflow:visible;" width="134" height="32" id="id32" xlink:href="../../../elements/multi-tit-elem/pub/multi-tit_no-arroworient.png"  transform="matrix(1 0 0 1 963 180)">
		</image>
		
			<image style="overflow:visible;" width="134" height="32" id="id33" xlink:href="../../../elements/multi-tit-elem/pub/multi-tit_no-arroworient.png"  transform="matrix(1 0 0 1 1622 1079)">
		</image>
	</g>
	<g id="barrel-elem">
		
			<image style="overflow:visible;" width="75" height="134" id="id35_00000028321325539149573120000017767336589990236601_" xlink:href="../../../../../Users/evgen/OneDrive/Рабочий стол/workspace/_work/arh/Elements/barrel-v-elem/pub/default.png"  transform="matrix(1 0 0 1 898 1077)">
		</image>
		
			<image style="overflow:visible;" width="75" height="134" id="id36_00000143615210613132913670000010595703395064935307_" xlink:href="../../../../../Users/evgen/OneDrive/Рабочий стол/workspace/_work/arh/Elements/barrel-v-elem/pub/default.png"  transform="matrix(1 0 0 1 898 640)">
		</image>
	</g>
	<g id="heat-exchanger-elem">
		
			<image style="overflow:visible;" width="172" height="62" id="id37" xlink:href="../../../../../Users/evgen/OneDrive/Рабочий стол/workspace/_work/arh/Elements/heat-exchanger-elem/pub/default.png"  transform="matrix(1 0 0 1 701 195)">
		</image>
		
			<image style="overflow:visible;" width="172" height="62" id="id38" xlink:href="../../../../../Users/evgen/OneDrive/Рабочий стол/workspace/_work/arh/Elements/heat-exchanger-elem/pub/default.png"  transform="matrix(1 0 0 1 853 395)">
		</image>
	</g>
	<g id="pump-n-elem">
		
			<image style="overflow:visible;" width="91" height="73" id="id39_00000033332459337875601040000016644782637373739664_" xlink:href="../../../../../Users/evgen/OneDrive/Рабочий стол/workspace/_work/arh/Elements/pump-n-elem/pub/pump-n_h_no-caption.png"  transform="matrix(1 0 0 1 1307 174)">
		</image>
		
			<image style="overflow:visible;" width="91" height="73" id="id40_00000040576876048113958370000006772495481132157341_" xlink:href="../../../../../Users/evgen/OneDrive/Рабочий стол/workspace/_work/arh/Elements/pump-n-elem/pub/pump-n_h_no-caption.png"  transform="matrix(1 0 0 1 1307 372.5)">
		</image>
	</g>
	<g id="boiler-elem">
		
			<image style="overflow:visible;" width="232" height="290" id="id41" xlink:href="../../../elements/boiler-elem/pub/default.png"  transform="matrix(1 0 0 1 1376 609)">
		</image>
		
			<image style="overflow:visible;" width="232" height="290" id="id42" xlink:href="../../../elements/boiler-elem/pub/default.png"  transform="matrix(1 0 0 1 1371 961)">
		</image>
	</g>
	<g id="num-value-elem">
		
			<image style="overflow:visible;" width="72" height="26" id="id43_00000094608661591885196570000004277194407557812120_" xlink:href="../../../elements/num-value-elem/pub/num-value_mini.png"  transform="matrix(1 0 0 1 636 882)">
		</image>
		
			<image style="overflow:visible;" width="72" height="26" id="id47" xlink:href="../../../elements/num-value-elem/pub/num-value_mini.png"  transform="matrix(1 0 0 1 636 953)">
		</image>
		
			<image style="overflow:visible;" width="72" height="26" id="id45_00000070105597480786009820000002704116744173475473_" xlink:href="../../../elements/num-value-elem/pub/num-value_mini.png"  transform="matrix(1 0 0 1 1602 105)">
		</image>
		
			<image style="overflow:visible;" width="72" height="26" id="id46_00000147194465680401017080000011360741127027977356_" xlink:href="../../../elements/num-value-elem/pub/num-value_mini.png"  transform="matrix(1 0 0 1 1602 144)">
		</image>
	</g>
</g>
<g id="lines">
	<g id="pipes">
		<g id="gas">
			<line class="st0" x1="1105" y1="226.5" x2="671" y2="226.5"/>
			<line class="st0" x1="1105.5" y1="720.5" x2="968.5" y2="720.5"/>
			<line class="st0" x1="554.5" y1="692.5" x2="180.5" y2="692.5"/>
			<line class="st0" x1="182.5" y1="692.5" x2="109.5" y2="692.5"/>
			<line class="st0" x1="794.5" y1="692.5" x2="554.5" y2="692.5"/>
			<line class="st0" x1="922.5" y1="692.5" x2="791.5" y2="692.5"/>
			<line class="st0" x1="557" y1="269.5" x2="335" y2="269.5"/>
			<line class="st0" x1="925.5" y1="1123.5" x2="788.5" y2="1123.5"/>
			<line class="st0" x1="1104" y1="1153.5" x2="963" y2="1153.5"/>
			<line class="st0" x1="671.5" y1="230" x2="671.5" y2="83"/>
			<line class="st0" x1="555.5" y1="431" x2="555.5" y2="270"/>
			<line class="st0" x1="336.5" y1="426.5" x2="336.5" y2="269.5"/>
			<line class="st0" x1="675" y1="426.5" x2="122" y2="426.5"/>
			<line class="st0" x1="1102" y1="426.5" x2="673" y2="426.5"/>
			<polyline class="st0" points="557,524 179,524 179,687 			"/>
			<line class="st0" x1="556.5" y1="1043.5" x2="117.5" y2="1043.5"/>
			<line class="st0" x1="556.5" y1="867.5" x2="114.5" y2="867.5"/>
			<line class="st0" x1="553" y1="1395.5" x2="1893" y2="1395.5"/>
			<line class="st0" x1="557.5" y1="1219.5" x2="117.5" y2="1219.5"/>
			<line class="st0" x1="558.5" y1="1395.5" x2="116.5" y2="1395.5"/>
			<polyline class="st0" points="789,694 789,1324 925,1324 			"/>
			<line class="st0" x1="556.5" y1="870.5" x2="556.5" y2="691.5"/>
			<line class="st0" x1="556.5" y1="1045.5" x2="556.5" y2="864.5"/>
			<line class="st0" x1="556.5" y1="1223.5" x2="556.5" y2="1042.5"/>
			<line class="st0" x1="556.5" y1="1392.5" x2="556.5" y2="1217.5"/>
			<line class="st0" x1="555.5" y1="526" x2="555.5" y2="426.5"/>
			<line class="st0" x1="1156" y1="1317.5" x2="1213" y2="1317.5"/>
			<line class="st0" x1="672.5" y1="84.5" x2="122.5" y2="84.5"/>
			<line class="st0" x1="1103.5" y1="226" x2="1103.5" y2="427"/>
			<line class="st0" x1="1103.5" y1="1153.5" x2="1103.5" y2="1270.5"/>
			<line class="st0" x1="1211.5" y1="1319" x2="1211.5" y2="1150"/>
			<polyline class="st0" points="1393,797.5 1211,797.5 1211,1156 			"/>
			<line class="st0" x1="1213.5" y1="1153.5" x2="1394.5" y2="1153.5"/>
			<line class="st0" x1="671" y1="229" x2="671" y2="430"/>
			<line class="st0" x1="1103.5" y1="721" x2="1103.5" y2="1152"/>
		</g>
		<g id="heatCarrier">
			<line class="st1" x1="934" y1="530.5" x2="1792" y2="530.5"/>
			<line class="st1" x1="1317" y1="427.5" x2="1210" y2="427.5"/>
			<line class="st1" x1="1885" y1="1259.5" x2="1789" y2="1259.5"/>
			<line class="st1" x1="788" y1="85.5" x2="1213" y2="85.5"/>
			<line class="st1" x1="939.5" y1="451" x2="939.5" y2="526"/>
			<line class="st1" x1="788.5" y1="84.5" x2="788.5" y2="217.5"/>
			<line class="st1" x1="1211.5" y1="231" x2="1211.5" y2="427.5"/>
			<line class="st1" x1="1790.5" y1="1123" x2="1790.5" y2="1260"/>
			<line class="st1" x1="1493" y1="392.5" x2="1389" y2="392.5"/>
			<line class="st1" x1="1828" y1="392.5" x2="1494" y2="392.5"/>
			<line class="st1" x1="1523.5" y1="759.5" x2="1794" y2="759.5"/>
			<line class="st1" x1="1523" y1="1123.5" x2="1791" y2="1123.5"/>
			<line class="st1" x1="1824" y1="1154.5" x2="1955" y2="1154.5"/>
			<line class="st1" x1="1492.5" y1="192" x2="1492.5" y2="391"/>
			<line class="st1" x1="1211.5" y1="86" x2="1211.5" y2="227"/>
			<line class="st1" x1="1317" y1="225.5" x2="1215" y2="225.5"/>
			<line class="st1" x1="1494" y1="192.5" x2="1386" y2="192.5"/>
			<line class="st1" x1="938" y1="531" x2="787.5" y2="531"/>
			<line class="st1" x1="1790.5" y1="1123" x2="1790.5" y2="756"/>
			<line class="st1" x1="1790.5" y1="761" x2="1790.5" y2="531"/>
		</g>
	</g>
	<g id="arrows">
		<g id="heatCarrier_00000135652612915975661160000001602055218840293812_">
			<polyline class="st1" points="1708,1130.5 1716,1123.5 1708,1116.5 			"/>
			<polyline class="st1" points="1654,1147 1646,1154 1654,1161 			"/>
			<polyline class="st1" points="795.5,143 788.5,134 781.5,143 			"/>
			<polyline class="st1" points="946.5,143 939.5,134 932.5,143 			"/>
			<polyline class="st1" points="1205,135 1211.5,143 1218,135 			"/>
			<polyline class="st1" points="1654.5,789 1646.5,795 1654.5,802 			"/>
			<polyline class="st1" points="1820,474.5 1826.5,482.5 1833,474.5 			"/>
			<polyline class="st1" points="1086,92 1094,85.5 1086,79 			"/>
			<polyline class="st1" points="1708,766 1716,759.5 1708,753 			"/>
		</g>
		<g id="gas_00000168091331183438344970000008651609103578846895_">
			<polyline class="st2" points="562.5,473.5 555.5,480.5 548.5,473.5 			"/>
			<polyline class="st2" points="186.5,609 179,616 172.5,609 			"/>
			<polyline class="st2" points="1172,1311.5 1179,1317.5 1172,1323.5 			"/>
			<polyline class="st2" points="679,699 671,692.5 679,686 			"/>
			<polyline class="st2" points="1110,314.5 1103.5,322.5 1096,314.5 			"/>
			<polyline class="st2" points="678,136 671.5,144 665,136 			"/>
		</g>
	</g>
	<g id="arc">
		<g id="heatCarrier_00000121245461587763146110000010669657146181387907_">
			<path class="st1" d="M939.5,400V234c3.6,0,7-2.8,7-6c0-6-3.4-7-7-7V86"/>
			<path class="st1" d="M789,530v-96.5c-3.3,0-6-3-6-6.5s2.7-6.5,6-6.5V234"/>
			<path class="st1" d="M1521,1154.5h263c0-3.3,3-7,6.5-7s7,3.7,7,7h34.5"/>
			<path class="st1" d="M1522,795h262c0-3.7,3.1-7,7-7s6,3.3,6,7h29"/>
			<line class="st1" x1="1826.5" y1="824.5" x2="1826.5" y2="391.5"/>
			<line class="st1" x1="1826.5" y1="1150.5" x2="1826.5" y2="797.5"/>
		</g>
		<g id="gas_00000004540612192190564080000009468857785182773134_">
			<path class="st0" d="M1103,721V537c-3.7,0-7-2.1-7-6c0-3.9,3.3-6,7-6v-97"/>
		</g>
	</g>
	<g id="points">
		<g id="heatCarrier_00000048490943505025619280000005703550653083379114_">
			<circle class="st3" cx="940" cy="530" r="4.5"/>
			<circle class="st3" cx="1790.5" cy="759.5" r="4.5"/>
			<circle class="st3" cx="1826.5" cy="1154" r="4.5"/>
			<circle class="st3" cx="1790.5" cy="1124" r="4.5"/>
			<circle class="st3" cx="1826.5" cy="795" r="4.5"/>
			<circle class="st3" cx="940" cy="85.5" r="4.5"/>
			<circle class="st3" cx="1211.5" cy="226" r="4.5"/>
			<circle class="st3" cx="1492.5" cy="392" r="4.5"/>
		</g>
		<g id="gas_00000126303079154054499470000009962917576890988696_">
			<circle class="st4" cx="555.5" cy="427" r="4.5"/>
			<circle class="st4" cx="556.5" cy="693" r="4.5"/>
			<circle class="st4" cx="556.5" cy="867" r="4.5"/>
			<circle class="st4" cx="556.5" cy="1044" r="4.5"/>
			<circle class="st4" cx="556.5" cy="1219" r="4.5"/>
			<circle class="st4" cx="556.5" cy="1395.5" r="4.5"/>
			<circle class="st4" cx="671.5" cy="227" r="4.5"/>
			<circle class="st4" cx="1103" cy="427" r="4.5"/>
			<circle class="st4" cx="1103" cy="721" r="4.5"/>
			<circle class="st4" cx="1103" cy="1153" r="4.5"/>
			<circle class="st4" cx="789" cy="1124" r="4.5"/>
			<circle class="st4" cx="789" cy="692" r="4.5"/>
			<circle class="st4" cx="1211.5" cy="1153.5" r="4.5"/>
			<circle class="st4" cx="337" cy="426" r="4.5"/>
			<circle class="st4" cx="671.5" cy="427" r="4.5"/>
			<circle class="st4" cx="179" cy="692" r="4.5"/>
		</g>
	</g>
</g>
<g id="tables-solid">
	<g id="t1">
		<rect x="1591" y="88" class="st5" width="404" height="100"/>
	</g>
	<g id="t3">
		<path class="st5" d="M1138,1361H942c-9.4,0-16-7.6-16-17v-57c0-9.4,6.6-17,16-17h196c9.4,0,17,7.6,17,17v57
			C1155,1353.4,1147.4,1361,1138,1361z"/>
	</g>
	<g id="t6">
		<rect x="579" y="835" class="st5" width="187" height="162"/>
	</g>
</g>
<g id="tables-dashed">
	<g id="t9">
		<path class="st6" d="M507,451H333c-9.4,0-17-7.6-17-17V131c0-9.4,7.6-17,17-17h174c9.4,0,17,7.6,17,17v303
			C524,443.4,516.4,451,507,451z"/>
	</g>
	<g id="t8">
		<g>
			<path class="st7" d="M507,709H364c-9.5,0-17-5.8-17-12V557c0-6.2,7.5-16,17-16h143c9.5,0,17,9.8,17,16v140
				C524,703.2,516.5,709,507,709z"/>
		</g>
	</g>
	<g id="t5">
		<g>
			<path class="st8" d="M511,883H364c-9.5,0-17-5.8-17-12V733c0-6.2,7.5-11,17-11h143c9.5,0,17,4.8,17,11l-1,138
				C523,877.2,520.5,883,511,883z"/>
		</g>
	</g>
	<g id="t4">
		<g>
			<path class="st9" d="M507,1056H364c-9.5,0-17-4.8-17-11V908c0-6.2,7.5-12,17-12h143c9.5,0,17,5.8,17,12v137
				C524,1051.2,516.5,1056,507,1056z"/>
		</g>
	</g>
	<g id="t7">
		<g>
			<path class="st10" d="M507,1411H364c-9.5,0-17-5.8-17-12v-137c0-6.2,6.5-11,16-11h144c9.5,0,17,4.8,17,11v137
				C524,1405.2,516.5,1411,507,1411z"/>
		</g>
		<g>
			<path class="st11" d="M507,1236H364c-9.5,0-17-5.8-17-12v-144c0-6.2,6.5-11,16-11h144c9.5,0,17,4.8,17,11v144
				C524,1230.2,516.5,1236,507,1236z"/>
		</g>
	</g>
</g>
<g id="text">
	<g id="px16">
		<g>
			<text transform="matrix(1 -2.470000e-03 2.470000e-03 1 366.7522 1091.7252)" class="st12 st13 st14">Узел замера №4 (СГ7.1)</text>
		</g>
		<text transform="matrix(1 -2.470000e-03 2.470000e-03 1 365.7522 1273.7252)" class="st12 st13 st14">Узел замера №5 (СГ8.1)</text>
		<g>
			<text transform="matrix(1 -2.470000e-03 2.470000e-03 1 350.9521 141.2424)" class="st12 st13 st15 st16">Узел замера №1 (СГ1.1)</text>
		</g>
		<g>
			<text transform="matrix(1 -2.470000e-03 2.470000e-03 1 369.7522 747.6233)" class="st12 st13 st14">Узел замера №2 (СГ5.1)</text>
		</g>
		<g>
			<text transform="matrix(1 -2.470000e-03 2.470000e-03 1 365.7522 920.7252)" class="st12 st13 st14">Узел замера №3 (СГ6.1)</text>
		</g>
		<g>
			<text transform="matrix(1 -2.470000e-03 2.470000e-03 1 366.7522 297.7252)" class="st12 st13 st14">Узел замера №2 (СГ1.2)</text>
		</g>
		<g>
			<text transform="matrix(1 -2.470000e-03 2.470000e-03 1 362.1692 568.6296)" class="st12 st13 st14">Узела замера №1 (СГ4.1)</text>
		</g>
		<text transform="matrix(1 -2.470000e-03 2.470000e-03 1 597.3683 938.961)" class="st12 st13 st17 st16">Разность расхода с УЗ№2</text>
		<text transform="matrix(1 -2.470000e-03 2.470000e-03 1 597.3683 867.0405)" class="st12 st13 st17 st16">Разность расхода с УЗ№1</text>
		<text transform="matrix(1 -2.470000e-03 2.470000e-03 1 1693.8246 161.7626)" class="st12 st13 st17 st16">Температура в узле подготовки теплоносителя</text>
		<text transform="matrix(1 -2.470000e-03 2.470000e-03 1 1692.6243 123.8303)" class="st12 st13 st17 st16">Температура в технологическом помещении</text>
	</g>
	<g id="px17">
	</g>
	<g id="px20">
		<text transform="matrix(1 0 0 1 947.2744 1321.5801)" class="st12 st13 st18 st16">Узел редуцирования СН</text>
	</g>
</g>
<g id="helpers">
</g>
</svg>
