<?xml version="1.0" encoding="utf-8"?>
<!-- Generator: Adobe Illustrator 23.0.1, SVG Export Plug-In . SVG Version: 6.00 Build 0)  -->
<svg version="1.1" xmlns="http://www.w3.org/2000/svg" xmlns:xlink="http://www.w3.org/1999/xlink" x="0px" y="0px"
	 viewBox="0 0 1538 624" style="enable-background:new 0 0 1538 624;" xml:space="preserve">
<style type="text/css">
	.st0{fill:#909091;}
	.st1{fill:#EEEEEF;stroke:#6C6E7A;stroke-miterlimit:10;}
	.st2{font-family:'UbuntuCondensed-Regular';}
	.st3{font-size:16px;}
	.st4{font-size:12px;}
	.st5{font-size:14px;}
	.st6{font-size:20px;}
	.st7{fill:#21282D;}
	.st8{font-size:21px;}
	.st9{fill:none;stroke:#000000;stroke-width:0.5;stroke-miterlimit:10;}
	.st10{fill:none;stroke:#6C6E7A;stroke-width:6;stroke-miterlimit:10;}
	.st11{fill:none;stroke:#7030A0;stroke-width:6;stroke-miterlimit:10;}
	.st12{fill:#F5F3F3;stroke:#6C6E7A;stroke-miterlimit:10;}
	.st13{fill:#F5F3F3;stroke:#7030A0;stroke-miterlimit:10;}
	.st14{fill:#F5F3F3;}
</style>
<g id="SimpleElements">
	<g id="switch-cart-elem">
		
			<image style="overflow:visible;" width="22" height="69" id="id1" xlink:href="../../../elements/switch-cart-elem/pub/default.png"  transform="matrix(1 0 0 1 14.404 115.354)">
		</image>
	</g>
	<g id="switch-elem">
		
			<image style="overflow:visible;" width="22" height="37" id="id2" xlink:href="../../../elements/switch-elem/pub/default.png"  transform="matrix(1 0 0 1 974.404 131.354)">
		</image>
	</g>
	<g id="multi-tit-elem">
		
			<image style="overflow:visible;" width="134" height="192" id="id3" xlink:href="../../../elements/multi-tit-elem/pub/multi-tit_titcount-6_no-arroworient.png"  transform="matrix(1.0969 0 0 1.0969 38.9111 290.1967)">
		</image>
		
			<image style="overflow:visible;" width="134" height="192" id="id4" xlink:href="../../../elements/multi-tit-elem/pub/multi-tit_titcount-6_no-arroworient.png"  transform="matrix(1.0969 0 0 1.0969 288.9111 290.1967)">
		</image>
		
			<image style="overflow:visible;" width="134" height="192" id="id5" xlink:href="../../../elements/multi-tit-elem/pub/multi-tit_titcount-6_no-arroworient.png"  transform="matrix(1.0969 0 0 1.0969 538.9111 290.1967)">
		</image>
		
			<image style="overflow:visible;" width="134" height="192" id="id6" xlink:href="../../../elements/multi-tit-elem/pub/multi-tit_titcount-6_no-arroworient.png"  transform="matrix(1.0969 0 0 1.0969 788.9111 290.1967)">
		</image>
		
			<image style="overflow:visible;" width="134" height="192" id="id7" xlink:href="../../../elements/multi-tit-elem/pub/multi-tit_titcount-6_no-arroworient.png"  transform="matrix(1.0969 0 0 1.0969 1038.911 290.1967)">
		</image>
		
			<image style="overflow:visible;" width="134" height="192" id="id8" xlink:href="../../../elements/multi-tit-elem/pub/multi-tit_titcount-6_no-arroworient.png"  transform="matrix(1.0969 0 0 1.0969 1288.911 290.1967)">
		</image>
	</g>
	<g id="earthing-knife-elem">
		
			<image style="overflow:visible;" width="45" height="18" id="id9" xlink:href="../../../elements/earthing-knife-elem/pub/default.png"  transform="matrix(1 0 0 1 231.898 387.637)">
		</image>
		
			<image style="overflow:visible;" width="45" height="18" id="id10" xlink:href="../../../elements/earthing-knife-elem/pub/default.png"  transform="matrix(1 0 0 1 481.898 387.637)">
		</image>
		
			<image style="overflow:visible;" width="45" height="18" id="id11" xlink:href="../../../elements/earthing-knife-elem/pub/default.png"  transform="matrix(1 0 0 1 731.898 387.637)">
		</image>
		
			<image style="overflow:visible;" width="45" height="18" id="id12" xlink:href="../../../elements/earthing-knife-elem/pub/default.png"  transform="matrix(1 0 0 1 981.898 387.637)">
		</image>
		
			<image style="overflow:visible;" width="45" height="18" id="id13" xlink:href="../../../elements/earthing-knife-elem/pub/default.png"  transform="matrix(1 0 0 1 1231.9041 387.637)">
		</image>
		
			<image style="overflow:visible;" width="45" height="18" id="id14" xlink:href="../../../elements/earthing-knife-elem/pub/default.png"  transform="matrix(1 0 0 1 1481.9 387.637)">
		</image>
		
			<image style="overflow:visible;" width="45" height="18" id="id15" xlink:href="../../../elements/earthing-knife-elem/pub/default.png"  transform="matrix(1 0 0 1 21.904 201)">
		</image>
	</g>
	<g id="disconnector-elem">
		
			<image style="overflow:visible;" width="16" height="11" id="id16" xlink:href="../../../elements/disconnector-elem/pub/default.png"  transform="matrix(0 -1 1 0 229.898 328.637)">
		</image>
		
			<image style="overflow:visible;" width="16" height="11" id="id17" xlink:href="../../../elements/disconnector-elem/pub/default.png"  transform="matrix(0 -1 1 0 229.898 486)">
		</image>
		
			<image style="overflow:visible;" width="16" height="11" id="id18" xlink:href="../../../elements/disconnector-elem/pub/default.png"  transform="matrix(0 -1 1 0 479.898 328.637)">
		</image>
		
			<image style="overflow:visible;" width="16" height="11" id="id19" xlink:href="../../../elements/disconnector-elem/pub/default.png"  transform="matrix(0 -1 1 0 479.898 486)">
		</image>
		
			<image style="overflow:visible;" width="16" height="11" id="id20" xlink:href="../../../elements/disconnector-elem/pub/default.png"  transform="matrix(0 -1 1 0 729.898 328.637)">
		</image>
		
			<image style="overflow:visible;" width="16" height="11" id="id21" xlink:href="../../../elements/disconnector-elem/pub/default.png"  transform="matrix(0 -1 1 0 729.898 486)">
		</image>
		
			<image style="overflow:visible;" width="16" height="11" id="id22" xlink:href="../../../elements/disconnector-elem/pub/default.png"  transform="matrix(0 -1 1 0 979.898 328.637)">
		</image>
		
			<image style="overflow:visible;" width="16" height="11" id="id23" xlink:href="../../../elements/disconnector-elem/pub/default.png"  transform="matrix(0 -1 1 0 979.898 486)">
		</image>
		
			<image style="overflow:visible;" width="16" height="11" id="id24" xlink:href="../../../elements/disconnector-elem/pub/default.png"  transform="matrix(0 -1 1 0 1229.9041 328.637)">
		</image>
		
			<image style="overflow:visible;" width="16" height="11" id="id25" xlink:href="../../../elements/disconnector-elem/pub/default.png"  transform="matrix(0 -1 1 0 1229.9041 486)">
		</image>
		
			<image style="overflow:visible;" width="16" height="11" id="id26" xlink:href="../../../elements/disconnector-elem/pub/default.png"  transform="matrix(0 -1 1 0 1479.9 328.637)">
		</image>
		
			<image style="overflow:visible;" width="16" height="11" id="id27" xlink:href="../../../elements/disconnector-elem/pub/default.png"  transform="matrix(0 -1 1 0 1479.9 486)">
		</image>
	</g>
</g>
<g id="elems">
	<g id="resists">
		<g>
			<path class="st0" d="M1489.9,353v18h-9v-18H1489.9 M1490.9,352h-1h-9h-1v1v18v1h1h9h1v-1v-18V352L1490.9,352z"/>
		</g>
		<g>
			<path class="st0" d="M1239.9,353v18h-9v-18H1239.9 M1240.9,352h-1h-9h-1v1v18v1h1h9h1v-1v-18V352L1240.9,352z"/>
		</g>
		<g>
			<path class="st0" d="M989.9,353v18h-9v-18H989.9 M990.9,352h-1h-9h-1v1v18v1h1h9h1v-1v-18V352L990.9,352z"/>
		</g>
		<g>
			<path class="st0" d="M739.9,353v18h-9v-18H739.9 M740.9,352h-1h-9h-1v1v18v1h1h9h1v-1v-18V352L740.9,352z"/>
		</g>
		<g>
			<path class="st0" d="M489.9,353v18h-9v-18H489.9 M490.9,352h-1h-9h-1v1v18v1h1h9h1v-1v-18V352L490.9,352z"/>
		</g>
		<g>
			<path class="st0" d="M239.9,353v18h-9v-18H239.9 M240.9,352h-1h-9h-1v1v18v1h1h9h1v-1v-18V352L240.9,352z"/>
		</g>
	</g>
	<g id="tt">
		<g>
			<path class="st0" d="M235.38,431.89c5.38,0,9.75,4.37,9.75,9.75c0,5.38-4.37,9.75-9.75,9.75s-9.75-4.37-9.75-9.75
				C225.63,436.25,230,431.89,235.38,431.89 M235.38,430.89c-5.93,0-10.75,4.82-10.75,10.75s4.82,10.75,10.75,10.75
				s10.75-4.82,10.75-10.75S241.31,430.89,235.38,430.89L235.38,430.89z"/>
		</g>
		<g>
			<path class="st0" d="M235.37,421.89c0.38,0,0.76,0.02,1.14,0.07c5.35,0.63,9.18,5.47,8.55,10.82c-0.58,4.96-4.79,8.62-9.67,8.62
				c-0.38,0-0.76-0.02-1.14-0.07c-5.35-0.63-9.18-5.47-8.55-10.82C226.28,425.54,230.49,421.89,235.37,421.89 M235.37,420.89
				c-5.45,0-10.03,4.08-10.66,9.5c-0.33,2.85,0.46,5.66,2.24,7.92s4.33,3.68,7.18,4.01c0.42,0.05,0.84,0.07,1.26,0.07
				c5.45,0,10.03-4.08,10.66-9.5c0.69-5.89-3.54-11.24-9.43-11.92C236.21,420.91,235.79,420.89,235.37,420.89L235.37,420.89z"/>
		</g>
		<g>
			<path class="st0" d="M485.38,431.89c5.38,0,9.75,4.37,9.75,9.75c0,5.38-4.37,9.75-9.75,9.75s-9.75-4.37-9.75-9.75
				C475.63,436.25,480,431.89,485.38,431.89 M485.38,430.89c-5.93,0-10.75,4.82-10.75,10.75s4.82,10.75,10.75,10.75
				s10.75-4.82,10.75-10.75S491.31,430.89,485.38,430.89L485.38,430.89z"/>
		</g>
		<g>
			<path class="st0" d="M485.37,421.89c0.38,0,0.76,0.02,1.14,0.07c5.35,0.63,9.18,5.47,8.55,10.82c-0.58,4.96-4.79,8.62-9.67,8.62
				c-0.38,0-0.76-0.02-1.14-0.07c-5.35-0.63-9.18-5.47-8.55-10.82C476.28,425.54,480.49,421.89,485.37,421.89 M485.37,420.89
				c-5.45,0-10.03,4.08-10.66,9.5c-0.33,2.85,0.46,5.66,2.24,7.92c1.78,2.25,4.33,3.68,7.18,4.01c0.42,0.05,0.84,0.07,1.26,0.07
				c5.45,0,10.03-4.08,10.66-9.5c0.69-5.89-3.54-11.24-9.43-11.92C486.21,420.91,485.79,420.89,485.37,420.89L485.37,420.89z"/>
		</g>
		<g>
			<path class="st0" d="M735.38,431.89c5.38,0,9.75,4.37,9.75,9.75c0,5.38-4.37,9.75-9.75,9.75c-5.38,0-9.75-4.37-9.75-9.75
				C725.63,436.25,730,431.89,735.38,431.89 M735.38,430.89c-5.93,0-10.75,4.82-10.75,10.75s4.82,10.75,10.75,10.75
				c5.93,0,10.75-4.82,10.75-10.75S741.31,430.89,735.38,430.89L735.38,430.89z"/>
		</g>
		<g>
			<path class="st0" d="M735.37,421.89c0.38,0,0.76,0.02,1.14,0.07c5.35,0.63,9.18,5.47,8.55,10.82c-0.58,4.96-4.79,8.62-9.67,8.62
				c-0.38,0-0.76-0.02-1.14-0.07c-5.35-0.63-9.18-5.47-8.55-10.82C726.28,425.54,730.49,421.89,735.37,421.89 M735.37,420.89
				c-5.45,0-10.03,4.08-10.66,9.5c-0.33,2.85,0.46,5.66,2.24,7.92s4.33,3.68,7.18,4.01c0.42,0.05,0.84,0.07,1.26,0.07
				c5.45,0,10.03-4.08,10.66-9.5c0.69-5.89-3.54-11.24-9.43-11.92C736.21,420.91,735.79,420.89,735.37,420.89L735.37,420.89z"/>
		</g>
		<g>
			<path class="st0" d="M985.38,431.89c5.38,0,9.75,4.37,9.75,9.75c0,5.38-4.37,9.75-9.75,9.75s-9.75-4.37-9.75-9.75
				C975.63,436.25,980,431.89,985.38,431.89 M985.38,430.89c-5.93,0-10.75,4.82-10.75,10.75s4.82,10.75,10.75,10.75
				s10.75-4.82,10.75-10.75S991.31,430.89,985.38,430.89L985.38,430.89z"/>
		</g>
		<g>
			<path class="st0" d="M985.37,421.89c0.38,0,0.76,0.02,1.14,0.07c5.35,0.63,9.18,5.47,8.55,10.82c-0.58,4.96-4.79,8.62-9.67,8.62
				c-0.38,0-0.76-0.02-1.14-0.07c-5.35-0.63-9.18-5.47-8.55-10.82C976.28,425.54,980.49,421.89,985.37,421.89 M985.37,420.89
				c-5.45,0-10.03,4.08-10.66,9.5c-0.33,2.85,0.46,5.66,2.24,7.92c1.78,2.25,4.33,3.68,7.18,4.01c0.42,0.05,0.84,0.07,1.26,0.07
				c5.45,0,10.03-4.08,10.66-9.5c0.69-5.89-3.54-11.24-9.43-11.92C986.21,420.91,985.79,420.89,985.37,420.89L985.37,420.89z"/>
		</g>
		<g>
			<path class="st0" d="M1235.39,431.89c5.38,0,9.75,4.37,9.75,9.75c0,5.38-4.37,9.75-9.75,9.75s-9.75-4.37-9.75-9.75
				C1225.64,436.25,1230,431.89,1235.39,431.89 M1235.39,430.89c-5.93,0-10.75,4.82-10.75,10.75s4.82,10.75,10.75,10.75
				c5.93,0,10.75-4.82,10.75-10.75S1241.31,430.89,1235.39,430.89L1235.39,430.89z"/>
		</g>
		<g>
			<path class="st0" d="M1235.37,421.89c0.38,0,0.76,0.02,1.14,0.07c5.35,0.63,9.18,5.47,8.55,10.82c-0.58,4.96-4.79,8.62-9.67,8.62
				c-0.38,0-0.76-0.02-1.14-0.07c-5.35-0.63-9.18-5.47-8.55-10.82C1226.28,425.54,1230.5,421.89,1235.37,421.89 M1235.37,420.89
				c-5.45,0-10.03,4.08-10.66,9.5c-0.33,2.85,0.46,5.66,2.24,7.92c1.78,2.25,4.33,3.68,7.18,4.01c0.42,0.05,0.84,0.07,1.26,0.07
				c5.45,0,10.03-4.08,10.66-9.5c0.69-5.89-3.54-11.24-9.43-11.92C1236.22,420.91,1235.79,420.89,1235.37,420.89L1235.37,420.89z"/>
		</g>
		<g>
			<path class="st0" d="M1485.38,431.89c5.38,0,9.75,4.37,9.75,9.75c0,5.38-4.37,9.75-9.75,9.75c-5.38,0-9.75-4.37-9.75-9.75
				C1475.63,436.25,1480,431.89,1485.38,431.89 M1485.38,430.89c-5.93,0-10.75,4.82-10.75,10.75s4.82,10.75,10.75,10.75
				s10.75-4.82,10.75-10.75S1491.31,430.89,1485.38,430.89L1485.38,430.89z"/>
		</g>
		<g>
			<path class="st0" d="M1485.37,421.89c0.38,0,0.76,0.02,1.14,0.07c5.35,0.63,9.18,5.47,8.55,10.82c-0.58,4.96-4.79,8.62-9.67,8.62
				c-0.38,0-0.76-0.02-1.14-0.07c-5.35-0.63-9.18-5.47-8.55-10.82C1476.28,425.54,1480.49,421.89,1485.37,421.89 M1485.37,420.89
				c-5.45,0-10.03,4.08-10.66,9.5c-0.33,2.85,0.46,5.66,2.24,7.92c1.78,2.25,4.33,3.68,7.18,4.01c0.42,0.05,0.84,0.07,1.26,0.07
				c5.45,0,10.03-4.08,10.66-9.5c0.69-5.89-3.54-11.24-9.43-11.92C1486.21,420.91,1485.79,420.89,1485.37,420.89L1485.37,420.89z"/>
		</g>
	</g>
</g>
<g id="tables">
	<g id="rect">
		<path class="st1" d="M1200.85,55.03V15.32c-0.01-2.66-2.22-4.83-4.91-4.82l-851.14,0.27c-2.7,0.01-4.9,2.19-4.89,4.84l0.02,6.24
			l0.04,32.82c0.01,2.66,2.22,4.83,4.91,4.82l851.14-0.27c2.7-0.01,4.9-2.19,4.89-4.84L1200.85,55.03z"/>
	</g>
	<g id="text">
		<g id="elem-text">
			<text transform="matrix(1 0 0 1 1500.6648 442.9904)" class="st0 st2 st3">Т1</text>
			<text transform="matrix(1 0 0 1 1250.6685 442.9904)" class="st0 st2 st3">Т1</text>
			<text transform="matrix(1 0 0 1 1000.6626 442.9904)" class="st0 st2 st3">Т1</text>
			<text transform="matrix(1 0 0 1 750.6626 442.9904)" class="st0 st2 st3">Т1</text>
			<text transform="matrix(1 0 0 1 500.6626 442.9904)" class="st0 st2 st3">Т1</text>
			<text transform="matrix(1 0 0 1 250.6626 442.9904)" class="st0 st2 st3">Т1</text>
		</g>
		<g id="regular">
			<text transform="matrix(0 -1 1 0 21.9045 612.4316)" class="st0 st2 st4">2 ввод ТП-5ВС</text>
			<text transform="matrix(0 -1 1 0 82.4045 612.4316)" class="st0 st2 st4">ТП-530</text>
		</g>
		<g id="subtitles">
			<text transform="matrix(1 0 0 1 1496.2441 482.5474)" class="st0 st2 st5">1ВВ</text>
			<text transform="matrix(1 0 0 1 1496.2129 325.6372)" class="st0 st2 st5">УВН1</text>
			<text transform="matrix(1 0 0 1 1472.2126 519.0464)" class="st0 st2 st5">С-0,4</text>
			<text transform="matrix(1 0 0 1 1246.2478 482.5474)" class="st0 st2 st5">1ВВ</text>
			<text transform="matrix(1 0 0 1 1246.2166 325.6372)" class="st0 st2 st5">УВН1</text>
			<text transform="matrix(1 0 0 1 1222.2163 519.0464)" class="st0 st2 st5">С-0,4</text>
			<text transform="matrix(1 0 0 1 996.2419 482.5474)" class="st0 st2 st5">1ВВ</text>
			<text transform="matrix(1 0 0 1 996.2107 325.6372)" class="st0 st2 st5">УВН1</text>
			<text transform="matrix(1 0 0 1 972.2104 519.0464)" class="st0 st2 st5">С-0,4</text>
			<text transform="matrix(1 0 0 1 746.2419 482.5474)" class="st0 st2 st5">1ВВ</text>
			<text transform="matrix(1 0 0 1 746.2107 325.6372)" class="st0 st2 st5">УВН1</text>
			<text transform="matrix(1 0 0 1 722.2104 519.0464)" class="st0 st2 st5">С-0,4</text>
			<text transform="matrix(1 0 0 1 496.2419 482.5474)" class="st0 st2 st5">1ВВ</text>
			<text transform="matrix(1 0 0 1 496.2107 325.6372)" class="st0 st2 st5">УВН1</text>
			<text transform="matrix(1 0 0 1 472.2104 519.0464)" class="st0 st2 st5">С-0,4</text>
			<text transform="matrix(1 0 0 1 246.2419 482.5474)" class="st0 st2 st5">1ВВ</text>
			<text transform="matrix(1 0 0 1 246.2107 325.6372)" class="st0 st2 st5">УВН1</text>
			<text transform="matrix(1 0 0 1 222.2104 519.0464)" class="st0 st2 st5">С-0,4</text>
			<text transform="matrix(1 0 0 1 11.5994 77.5)" class="st0 st2 st5">1С-10</text>
		</g>
		<g id="titles">
			<text transform="matrix(1 0 0 1 84.4248 269.4292)" class="st0 st2 st6">ТП-5В1 </text>
			<text transform="matrix(1 0 0 1 587.2848 269.4292)" class="st0 st2 st6">ТП-504</text>
			<text transform="matrix(1 0 0 1 837.2848 269.4292)" class="st0 st2 st6">ТП-502</text>
			<text transform="matrix(1 0 0 1 1087.2849 269.4292)" class="st0 st2 st6">ТП-501</text>
			<text transform="matrix(1 0 0 1 1337.2849 269.4292)" class="st0 st2 st6">ТП-524</text>
			<text transform="matrix(1 0 0 1 82.7546 83.4292)" class="st0 st2 st6">РУ-10кВ</text>
			<text transform="matrix(1 0 0 1 1006.4354 157.4292)" class="st0 st2 st6">4Р-524</text>
			<text transform="matrix(1 0 0 1 46.2202 157.4292)" class="st0 st2 st6">14</text>
			<text transform="matrix(1 0 0 1 337.2848 269.4292)" class="st0 st2 st6">ТП-506</text>
		</g>
		<g id="main">
			<g>
				<text transform="matrix(1 -2.470000e-03 2.470000e-03 1 546.2531 44.3827)" class="st7 st2 st8">Электроснабжение КГС, ВС ГП-51 от 1С, 2С-10кВ РУ-10кВ</text>
			</g>
		</g>
	</g>
</g>
<g id="lines">
	<g id="pipes">
		<g id="lep">
			<line class="st9" x1="1485.4" y1="485.5" x2="1485.4" y2="496.5"/>
			<line class="st9" x1="1485.4" y1="451.39" x2="1485.4" y2="470.5"/>
			<line class="st9" x1="1485.4" y1="328.14" x2="1485.4" y2="421.89"/>
			<line class="st9" x1="1235.4" y1="485.5" x2="1235.4" y2="496.5"/>
			<line class="st9" x1="1235.4" y1="451.39" x2="1235.4" y2="470.5"/>
			<line class="st9" x1="1235.4" y1="232.5" x2="1235.4" y2="313.14"/>
			<line class="st9" x1="1235.4" y1="328.14" x2="1235.4" y2="421.89"/>
			<line class="st9" x1="985.4" y1="485.5" x2="985.4" y2="496.5"/>
			<line class="st9" x1="985.4" y1="451.39" x2="985.4" y2="470.5"/>
			<line class="st9" x1="985.4" y1="328.14" x2="985.4" y2="421.89"/>
			<line class="st9" x1="735.4" y1="485.5" x2="735.4" y2="496.5"/>
			<line class="st9" x1="735.4" y1="451.39" x2="735.4" y2="470.5"/>
			<line class="st9" x1="735.4" y1="328.14" x2="735.4" y2="421.89"/>
			<line class="st9" x1="485.4" y1="485.5" x2="485.4" y2="496.5"/>
			<line class="st9" x1="485.4" y1="451.39" x2="485.4" y2="470.5"/>
			<line class="st9" x1="485.4" y1="232.5" x2="485.4" y2="313.14"/>
			<line class="st9" x1="485.4" y1="328.14" x2="485.4" y2="421.89"/>
			<line class="st9" x1="235.4" y1="485.5" x2="235.4" y2="496.5"/>
			<line class="st9" x1="235.4" y1="451.39" x2="235.4" y2="470.5"/>
			<line class="st9" x1="235.4" y1="232.5" x2="235.4" y2="313.14"/>
			<line class="st9" x1="235.4" y1="328.14" x2="235.4" y2="421.89"/>
			<line class="st9" x1="25.4" y1="184.35" x2="25.4" y2="611.9"/>
			<line class="st9" x1="25.4" y1="90.5" x2="25.4" y2="115.35"/>
			<line class="st9" x1="735.4" y1="232.5" x2="25.4" y2="232.5"/>
			<polyline class="st9" points="985.4,232.5 1485.4,232.5 1485.4,313.14 			"/>
			<polyline class="st9" points="985.4,313.14 985.4,86.5 735.4,86.5 735.4,313.14 			"/>
			<line class="st9" x1="85.9" y1="537.5" x2="25.4" y2="537.5"/>
			<line class="st9" x1="85.9" y1="537.5" x2="85.9" y2="611.9"/>
		</g>
		<g id="kV04_1_">
			<line class="st10" x1="1470.9" y1="500.5" x2="1499.9" y2="500.5"/>
			<line class="st10" x1="1220.9" y1="500.5" x2="1249.9" y2="500.5"/>
			<line class="st10" x1="970.9" y1="500.5" x2="999.9" y2="500.5"/>
			<line class="st10" x1="720.9" y1="500.5" x2="749.9" y2="500.5"/>
			<line class="st10" x1="470.9" y1="500.5" x2="499.9" y2="500.5"/>
			<line class="st10" x1="220.9" y1="500.5" x2="249.9" y2="500.5"/>
		</g>
		<g id="kV10">
			<line class="st11" x1="12.4" y1="86.5" x2="38.4" y2="86.5"/>
		</g>
	</g>
	<g id="points">
		<g id="kV04">
			<circle class="st12" cx="1485.4" cy="500.5" r="4"/>
			<circle class="st12" cx="1235.4" cy="500.5" r="4"/>
			<circle class="st12" cx="985.4" cy="500.5" r="4"/>
			<circle class="st12" cx="735.4" cy="500.5" r="4"/>
			<circle class="st12" cx="485.4" cy="500.5" r="4"/>
			<circle class="st12" cx="235.4" cy="500.5" r="4"/>
		</g>
		<g id="kV10_1_">
			<circle class="st13" cx="25.4" cy="86.5" r="4"/>
		</g>
	</g>
	<g id="arc">
		<g>
			<circle cx="25.4" cy="232.5" r="2.5"/>
			<path class="st14" d="M25.4,231c0.83,0,1.5,0.67,1.5,1.5s-0.67,1.5-1.5,1.5s-1.5-0.67-1.5-1.5S24.58,231,25.4,231 M25.4,229
				c-1.93,0-3.5,1.57-3.5,3.5s1.57,3.5,3.5,3.5s3.5-1.57,3.5-3.5S27.33,229,25.4,229L25.4,229z"/>
		</g>
		<g>
			<circle cx="235.4" cy="232.5" r="2.5"/>
			<path class="st14" d="M235.4,231c0.83,0,1.5,0.67,1.5,1.5s-0.67,1.5-1.5,1.5c-0.83,0-1.5-0.67-1.5-1.5S234.58,231,235.4,231
				 M235.4,229c-1.93,0-3.5,1.57-3.5,3.5s1.57,3.5,3.5,3.5s3.5-1.57,3.5-3.5S237.33,229,235.4,229L235.4,229z"/>
		</g>
		<g>
			<circle cx="485.4" cy="232.5" r="2.5"/>
			<path class="st14" d="M485.4,231c0.83,0,1.5,0.67,1.5,1.5s-0.67,1.5-1.5,1.5s-1.5-0.67-1.5-1.5S484.58,231,485.4,231 M485.4,229
				c-1.93,0-3.5,1.57-3.5,3.5s1.57,3.5,3.5,3.5s3.5-1.57,3.5-3.5S487.33,229,485.4,229L485.4,229z"/>
		</g>
		<g>
			<circle cx="735.4" cy="232.5" r="2.5"/>
			<path class="st14" d="M735.4,231c0.83,0,1.5,0.67,1.5,1.5s-0.67,1.5-1.5,1.5s-1.5-0.67-1.5-1.5S734.58,231,735.4,231 M735.4,229
				c-1.93,0-3.5,1.57-3.5,3.5s1.57,3.5,3.5,3.5s3.5-1.57,3.5-3.5S737.33,229,735.4,229L735.4,229z"/>
		</g>
		<g>
			<circle cx="985.4" cy="232.5" r="2.5"/>
			<path class="st14" d="M985.4,231c0.83,0,1.5,0.67,1.5,1.5s-0.67,1.5-1.5,1.5c-0.83,0-1.5-0.67-1.5-1.5S984.57,231,985.4,231
				 M985.4,229c-1.93,0-3.5,1.57-3.5,3.5s1.57,3.5,3.5,3.5s3.5-1.57,3.5-3.5S987.33,229,985.4,229L985.4,229z"/>
		</g>
		<g>
			<circle cx="1235.4" cy="232.5" r="2.5"/>
			<path class="st14" d="M1235.4,231c0.83,0,1.5,0.67,1.5,1.5s-0.67,1.5-1.5,1.5s-1.5-0.67-1.5-1.5S1234.58,231,1235.4,231
				 M1235.4,229c-1.93,0-3.5,1.57-3.5,3.5s1.57,3.5,3.5,3.5s3.5-1.57,3.5-3.5S1237.33,229,1235.4,229L1235.4,229z"/>
		</g>
		<g>
			<circle cx="25.4" cy="537.5" r="2.5"/>
			<path class="st14" d="M25.4,536c0.83,0,1.5,0.67,1.5,1.5s-0.67,1.5-1.5,1.5s-1.5-0.67-1.5-1.5S24.58,536,25.4,536 M25.4,534
				c-1.93,0-3.5,1.57-3.5,3.5s1.57,3.5,3.5,3.5s3.5-1.57,3.5-3.5S27.33,534,25.4,534L25.4,534z"/>
		</g>
	</g>
</g>
<g id="helpers">
</g>
</svg>
