<?xml version="1.0" encoding="utf-8"?>
<!-- Generator: Adobe Illustrator 25.4.1, SVG Export Plug-In . SVG Version: 6.00 Build 0)  -->
<svg version="1.1" xmlns="http://www.w3.org/2000/svg" xmlns:xlink="http://www.w3.org/1999/xlink" x="0px" y="0px" width="959px"
	 height="939px" viewBox="0 0 959 939" style="enable-background:new 0 0 959 939;" xml:space="preserve">
<style type="text/css">
	.st0{fill:none;stroke:#000000;stroke-width:0.5;stroke-miterlimit:10;}
	.st1{fill:none;stroke:#008200;stroke-width:6;stroke-miterlimit:10;}
	.st2{fill:none;stroke:#9B6751;stroke-width:6;stroke-miterlimit:10;}
	.st3{fill:none;stroke:#6C6E7A;stroke-width:6;stroke-miterlimit:10;}
	.st4{fill:#F5F3F3;stroke:#008200;stroke-miterlimit:10;}
	.st5{fill:#F5F3F3;stroke:#6C6E7A;stroke-miterlimit:10;}
	.st6{fill:#F5F3F3;stroke:#9B6751;stroke-miterlimit:10;}
	.st7{fill:#909091;}
	.st8{fill-rule:evenodd;clip-rule:evenodd;fill:none;stroke:#000000;stroke-width:0.5;stroke-miterlimit:10;}
	.st9{fill:#EEEEEF;stroke:#6C6E7A;stroke-miterlimit:10;}
	.st10{font-family:'UbuntuCondensed-Regular';}
	.st11{font-size:16px;}
	.st12{font-size:12px;}
	.st13{font-size:20px;}
	.st14{fill:#21282D;}
	.st15{font-size:21px;}
	.st16{font-size:14px;}
</style>
<g id="SimpleElements">
	<g id="earthing-knife-elem">
		
			<image style="overflow:visible;" width="45" height="18" id="id17" xlink:href="../../../elements/earthing-knife-elem/pub/default.png"  transform="matrix(1 0 0 1 255 433)">
		</image>
		
			<image style="overflow:visible;" width="45" height="18" id="id18" xlink:href="../../../elements/earthing-knife-elem/pub/default.png"  transform="matrix(1 0 0 1 256 289)">
		</image>
		
			<image style="overflow:visible;" width="45" height="18" id="id19" xlink:href="../../../elements/earthing-knife-elem/pub/default.png"  transform="matrix(1 0 0 1 61 780)">
		</image>
		
			<image style="overflow:visible;" width="45" height="18" id="id20" xlink:href="../../../elements/earthing-knife-elem/pub/default.png"  transform="matrix(1 0 0 1 837 677)">
		</image>
		
			<image style="overflow:visible;" width="45" height="18" id="id21" xlink:href="../../../elements/earthing-knife-elem/pub/default.png"  transform="matrix(1 0 0 1 902 677)">
		</image>
		
			<image style="overflow:visible;" width="45" height="18" id="id22" xlink:href="../../../elements/earthing-knife-elem/pub/default.png"  transform="matrix(1 0 0 1 773 607)">
		</image>
		
			<image style="overflow:visible;" width="45" height="18" id="id23" xlink:href="../../../elements/earthing-knife-elem/pub/default.png"  transform="matrix(1 0 0 1 191 607)">
		</image>
		
			<image style="overflow:visible;" width="45" height="18" id="id24" xlink:href="../../../elements/earthing-knife-elem/pub/default.png"  transform="matrix(1 0 0 1 61 677)">
		</image>
		
			<image style="overflow:visible;" width="45" height="18" id="id25" xlink:href="../../../elements/earthing-knife-elem/pub/default.png"  transform="matrix(1 0 0 1 126 677)">
		</image>
		
			<image style="overflow:visible;" width="45" height="18" id="id26" xlink:href="../../../elements/earthing-knife-elem/pub/default.png"  transform="matrix(1 0 0 1 902 781)">
		</image>
		
			<image style="overflow:visible;" width="45" height="18" id="id27" xlink:href="../../../elements/earthing-knife-elem/pub/default.png"  transform="matrix(1 0 0 1 707 433)">
		</image>
		
			<image style="overflow:visible;" width="45" height="18" id="id28" xlink:href="../../../elements/earthing-knife-elem/pub/default.png"  transform="matrix(1 0 0 1 191 289)">
		</image>
		
			<image style="overflow:visible;" width="45" height="18" id="id29" xlink:href="../../../elements/earthing-knife-elem/pub/default.png"  transform="matrix(1 0 0 1 772 289)">
		</image>
		
			<image style="overflow:visible;" width="45" height="18" id="id30" xlink:href="../../../elements/earthing-knife-elem/pub/default.png"  transform="matrix(1 0 0 1 707 289)">
		</image>
		
			<image style="overflow:visible;" width="45" height="18" id="id31" xlink:href="../../../elements/earthing-knife-elem/pub/default.png"  transform="matrix(1 0 0 1 707 332)">
		</image>
		
			<image style="overflow:visible;" width="45" height="18" id="id32" xlink:href="../../../elements/earthing-knife-elem/pub/default.png"  transform="matrix(1 0 0 1 256 332)">
		</image>
		
			<image style="overflow:visible;" width="45" height="18" id="id33" xlink:href="../../../elements/earthing-knife-elem/pub/default.png"  transform="matrix(1 0 0 1 837 77)">
		</image>
		
			<image style="overflow:visible;" width="45" height="18" id="id34" xlink:href="../../../elements/earthing-knife-elem/pub/default.png"  transform="matrix(1 0 0 1 837 120)">
		</image>
		
			<image style="overflow:visible;" width="45" height="18" id="id35" xlink:href="../../../elements/earthing-knife-elem/pub/default.png"  transform="matrix(1 0 0 1 126 77)">
		</image>
		
			<image style="overflow:visible;" width="45" height="18" id="id36" xlink:href="../../../elements/earthing-knife-elem/pub/default.png"  transform="matrix(1 0 0 1 126 120)">
		</image>
	</g>
	<g id="cart-elem">
		
			<image style="overflow:visible;" width="14" height="58" id="id15" xlink:href="../../../elements/cart-elem/pub/default.png"  transform="matrix(1 0 0 1 57.5 616)">
		</image>
		
			<image style="overflow:visible;" width="14" height="58" id="id16" xlink:href="../../../elements/cart-elem/pub/default.png"  transform="matrix(1 0 0 1 898.5 616)">
		</image>
	</g>
	<g id="switch-cart-elem">
		
			<image style="overflow:visible;" width="22" height="69" id="id9" xlink:href="../../../elements/switch-cart-elem/pub/default.png"  transform="matrix(1 0 0 1 699.5 462)">
		</image>
		
			<image style="overflow:visible;" width="22" height="69" id="id10" xlink:href="../../../elements/switch-cart-elem/pub/default.png"  transform="matrix(1 0 0 1 249 462)">
		</image>
		
			<image style="overflow:visible;" width="22" height="69" id="id11" xlink:href="../../../elements/switch-cart-elem/pub/default.png"  transform="matrix(1 0 0 1 895 810)">
		</image>
		
			<image style="overflow:visible;" width="22" height="69" id="id12" xlink:href="../../../elements/switch-cart-elem/pub/default.png"  transform="matrix(1 0 0 1 54 810)">
		</image>
		
			<image style="overflow:visible;" width="22" height="69" id="id13" xlink:href="../../../elements/switch-cart-elem/pub/default.png"  transform="matrix(1 0 0 1 119 153)">
		</image>
		
			<image style="overflow:visible;" width="22" height="69" id="id14" xlink:href="../../../elements/switch-cart-elem/pub/default.png"  transform="matrix(1 0 0 1 830 153)">
		</image>
	</g>
	<g id="multi-tit-elem">
		
			<image style="overflow:visible;" width="152" height="288" id="id5" xlink:href="../../../elements/multi-tit-elem/pub/multi-tit_titcount-9_no-arroworient.png"  transform="matrix(1.1006 0 0 1.1006 319.356 214.0168)">
		</image>
		
			<image style="overflow:visible;" width="152" height="288" id="id6" xlink:href="../../../elements/multi-tit-elem/pub/multi-tit_titcount-9_no-arroworient.png"  transform="matrix(1.1006 0 0 1.1006 492.356 214.0168)">
		</image>
		
			<image style="overflow:visible;" width="152" height="128" id="id7" xlink:href="../../../elements/multi-tit-elem/pub/multi-tit_titcount-4_no-arroworient.png"  transform="matrix(1 0 0 1 327 620)">
		</image>
		
			<image style="overflow:visible;" width="152" height="128" id="id8" xlink:href="../../../elements/multi-tit-elem/pub/multi-tit_titcount-4_no-arroworient.png"  transform="matrix(1 0 0 1 500 620)">
		</image>
	</g>
	<g id="disconnector-elem">
		
			<image style="overflow:visible;" width="16" height="11" id="id4" xlink:href="../../../elements/disconnector-elem/pub/default.png"  transform="matrix(1 0 0 1 251.5 314.5)">
		</image>
	</g>
</g>
<g id="lines">
	<g id="pipes">
		<g id="lep">
			<line class="st0" x1="64.5" y1="878.5" x2="64.5" y2="908"/>
			<line class="st0" x1="905.5" y1="590" x2="905.5" y2="617"/>
			<line class="st0" x1="905.5" y1="673" x2="905.5" y2="708"/>
			<line class="st0" x1="905.5" y1="716.5" x2="905.5" y2="761.5"/>
			<line class="st0" x1="905.5" y1="770" x2="905.5" y2="809"/>
			<line class="st0" x1="905.5" y1="878.5" x2="905.5" y2="908"/>
			<line class="st0" x1="64.5" y1="590" x2="64.5" y2="616"/>
			<line class="st0" x1="64.5" y1="673" x2="64.5" y2="708"/>
			<line class="st0" x1="64.5" y1="716.5" x2="64.5" y2="761.5"/>
			<line class="st0" x1="64.5" y1="770" x2="64.5" y2="810"/>
			<line class="st0" x1="129.5" y1="61.5" x2="129.5" y2="99.5"/>
			<line class="st0" x1="129.5" y1="114.5" x2="129.5" y2="152.5"/>
			<line class="st0" x1="259.5" y1="274" x2="259.5" y2="312"/>
			<line class="st0" x1="259.5" y1="327" x2="259.5" y2="376"/>
			<line class="st0" x1="260" y1="406" x2="260" y2="462"/>
			<line class="st0" x1="129.5" y1="221.5" x2="129.5" y2="259.5"/>
			<line class="st0" x1="195" y1="274" x2="195" y2="323"/>
			<line class="st0" x1="840.5" y1="590" x2="840.5" y2="616"/>
			<line class="st0" x1="841" y1="673" x2="841" y2="708"/>
			<line class="st0" x1="129.5" y1="222" x2="129.5" y2="266"/>
			<line class="st0" x1="840.5" y1="61.5" x2="840.5" y2="99.5"/>
			<line class="st0" x1="840.5" y1="114.5" x2="840.5" y2="152.5"/>
			<line class="st0" x1="840.5" y1="221.5" x2="840.5" y2="259.5"/>
			<line class="st0" x1="840.5" y1="222" x2="840.5" y2="266"/>
			<line class="st0" x1="194.5" y1="590" x2="194.5" y2="641"/>
			<line class="st0" x1="775.5" y1="590" x2="775.5" y2="641"/>
			<line class="st0" x1="129.5" y1="590" x2="129.5" y2="616"/>
			<line class="st0" x1="129.5" y1="673" x2="129.5" y2="708"/>
			<line class="st0" x1="710.5" y1="274" x2="710.5" y2="312"/>
			<line class="st0" x1="710.5" y1="327" x2="710.5" y2="376"/>
			<line class="st0" x1="710.5" y1="405" x2="710.5" y2="462"/>
			<line class="st0" x1="710.5" y1="531" x2="710.5" y2="582"/>
			<line class="st0" x1="775.5" y1="274" x2="775.5" y2="323"/>
			<line class="st0" x1="260" y1="531" x2="260" y2="582"/>
		</g>
		<g id="kV6_1_">
			<line class="st1" x1="52" y1="586" x2="274" y2="586"/>
			<line class="st1" x1="698" y1="586" x2="920" y2="586"/>
		</g>
		<g id="kV35_1_">
			<line class="st2" x1="697" y1="270" x2="854" y2="270"/>
			<line class="st2" x1="116" y1="270" x2="273" y2="270"/>
		</g>
		<g id="kV04">
			<line class="st3" x1="51" y1="912" x2="78" y2="912"/>
			<line class="st3" x1="892" y1="912" x2="919" y2="912"/>
		</g>
	</g>
	<g id="points">
		<g id="kV6">
			<circle class="st4" cx="260" cy="586.28" r="4"/>
			<circle class="st4" cx="194.5" cy="586.28" r="4"/>
			<circle class="st4" cx="129.5" cy="586.28" r="4"/>
			<circle class="st4" cx="64.5" cy="586.28" r="4"/>
			<circle class="st4" cx="905.5" cy="586.28" r="4"/>
			<circle class="st4" cx="840.5" cy="586.28" r="4"/>
			<circle class="st4" cx="775.5" cy="586.28" r="4"/>
			<circle class="st4" cx="710.5" cy="586.28" r="4"/>
		</g>
		<g id="kV04_1_">
			<circle class="st5" cx="64.5" cy="912" r="4"/>
			<circle class="st5" cx="905.5" cy="912" r="4"/>
		</g>
		<g id="kV35">
			<circle class="st6" cx="129.5" cy="270" r="4"/>
			<circle class="st6" cx="195" cy="270" r="4"/>
			<circle class="st6" cx="259.5" cy="270" r="4"/>
			<circle class="st6" cx="710.5" cy="270" r="4"/>
			<circle class="st6" cx="775.5" cy="270" r="4"/>
			<circle class="st6" cx="840.5" cy="270" r="4"/>
		</g>
	</g>
	<g id="arrows">
		<g>
			<polyline class="st0" points="136.5,621 129.5,616 122.5,621 			"/>
			<polyline class="st0" points="136.5,626 129.5,621 122.5,626 			"/>
			<polyline class="st0" points="122.5,668 129.5,673 136.5,668 			"/>
			<polyline class="st0" points="122.5,663 129.5,668 136.5,663 			"/>
			<line class="st0" x1="129.5" y1="621" x2="129.5" y2="668"/>
		</g>
		<g>
			<polyline class="st0" points="847.5,621 840.5,616 833.5,621 			"/>
			<polyline class="st0" points="847.5,626 840.5,621 833.5,626 			"/>
			<polyline class="st0" points="833.5,668 840.5,673 847.5,668 			"/>
			<polyline class="st0" points="833.5,663 840.5,668 847.5,663 			"/>
			<line class="st0" x1="840.5" y1="621" x2="840.5" y2="668"/>
		</g>
		<g>
			<polyline class="st0" points="201.5,646 194.5,641 187.5,646 			"/>
			<polyline class="st0" points="201.5,651 194.5,646 187.5,651 			"/>
			<line class="st0" x1="194.5" y1="646" x2="194.5" y2="708"/>
		</g>
		<g>
			<polyline class="st0" points="782.5,646 775.5,641 768.5,646 			"/>
			<polyline class="st0" points="782.5,651 775.5,646 768.5,651 			"/>
			<line class="st0" x1="775.5" y1="646" x2="775.5" y2="708"/>
		</g>
		<g>
			<polyline class="st0" points="202,328 195,323 187,328 			"/>
			<polyline class="st0" points="202,333 195,328 187,333 			"/>
			<line class="st0" x1="195" y1="328" x2="195" y2="376"/>
		</g>
		<g>
			<polyline class="st0" points="782.5,328 775.5,323 768.5,328 			"/>
			<polyline class="st0" points="782.5,333 775.5,328 768.5,333 			"/>
			<line class="st0" x1="775.5" y1="328" x2="775.5" y2="376"/>
		</g>
	</g>
</g>
<g id="elems">
	<g id="resists">
		<g>
			<path class="st7" d="M134,635.5v18h-9v-18H134 M135,634.5h-1h-9h-1v1v18v1h1h9h1v-1v-18V634.5L135,634.5z"/>
		</g>
		<g>
			<path class="st7" d="M845,635.5v18h-9v-18H845 M846,634.5h-1h-9h-1v1v18v1h1h9h1v-1v-18V634.5L846,634.5z"/>
		</g>
		<g>
			<path class="st7" d="M199,660.83v18h-9v-18H199 M200,659.83h-1h-9h-1v1v18v1h1h9h1v-1v-18V659.83L200,659.83z"/>
		</g>
		<g>
			<path class="st7" d="M780,660.83v18h-9v-18H780 M781,659.83h-1h-9h-1v1v18v1h1h9h1v-1v-18V659.83L781,659.83z"/>
		</g>
		<g>
			<path class="st7" d="M199.17,342.01v18h-9v-18H199.17 M200.17,341.01h-1h-9h-1v1v18v1h1h9h1v-1v-18V341.01L200.17,341.01z"/>
		</g>
		<g>
			<path class="st7" d="M780.17,342.01v18h-9v-18H780.17 M781.17,341.01h-1h-9h-1v1v18v1h1h9h1v-1v-18V341.01L781.17,341.01z"/>
		</g>
	</g>
	<g id="th">
		<g>
			<g>
				<path class="st7" d="M199.54,385.74c5.38,0,9.75,4.37,9.75,9.75c0,5.38-4.37,9.75-9.75,9.75c-5.38,0-9.75-4.37-9.75-9.75
					C189.79,390.1,194.15,385.74,199.54,385.74 M199.54,384.74L199.54,384.74c-5.93,0-10.75,4.82-10.75,10.75
					c0,5.93,4.82,10.75,10.75,10.75c2.87,0,5.57-1.12,7.6-3.15s3.15-4.73,3.15-7.6C210.29,389.56,205.46,384.74,199.54,384.74
					L199.54,384.74z"/>
			</g>
			<g>
				<path class="st7" d="M189.8,385.74c5.38,0,9.75,4.37,9.75,9.75c0,5.38-4.37,9.75-9.75,9.75c0,0,0,0,0,0
					c-5.38,0-9.75-4.37-9.75-9.75C180.05,390.1,184.41,385.74,189.8,385.74 M189.8,384.74L189.8,384.74
					c-5.93,0-10.75,4.82-10.75,10.75c0,2.87,1.12,5.57,3.15,7.6c2.03,2.03,4.73,3.15,7.6,3.15c5.93,0,10.75-4.82,10.75-10.75
					S195.73,384.74,189.8,384.74L189.8,384.74z"/>
			</g>
			<g>
				<path class="st7" d="M194.67,376c5.38,0,9.75,4.37,9.75,9.75s-4.37,9.75-9.75,9.75c-5.38,0-9.75-4.37-9.75-9.75
					S189.28,376,194.67,376 M194.67,375c-5.93,0-10.75,4.82-10.75,10.75c0,5.93,4.82,10.75,10.75,10.75
					c5.93,0,10.75-4.82,10.75-10.75C205.42,379.82,200.59,375,194.67,375L194.67,375z"/>
			</g>
		</g>
		<g>
			<g>
				<path class="st7" d="M780.54,385.74c5.38,0,9.75,4.37,9.75,9.75c0,5.38-4.37,9.75-9.75,9.75c-5.38,0-9.75-4.37-9.75-9.75
					C770.79,390.1,775.15,385.74,780.54,385.74 M780.54,384.74L780.54,384.74c-5.93,0-10.75,4.82-10.75,10.75
					s4.82,10.75,10.75,10.75c2.87,0,5.57-1.12,7.6-3.15c2.03-2.03,3.15-4.73,3.15-7.6C791.29,389.56,786.46,384.74,780.54,384.74
					L780.54,384.74z"/>
			</g>
			<g>
				<path class="st7" d="M770.8,385.74c5.38,0,9.75,4.37,9.75,9.75c0,5.38-4.37,9.75-9.75,9.75c0,0,0,0,0,0
					c-5.38,0-9.75-4.37-9.75-9.75C761.05,390.1,765.41,385.74,770.8,385.74 M770.8,384.74L770.8,384.74
					c-5.93,0-10.75,4.82-10.75,10.75c0,5.93,4.82,10.75,10.75,10.75c5.93,0,10.75-4.82,10.75-10.75S776.73,384.74,770.8,384.74
					L770.8,384.74z"/>
			</g>
			<g>
				<path class="st7" d="M775.67,376c5.38,0,9.75,4.37,9.75,9.75s-4.37,9.75-9.75,9.75c-5.38,0-9.75-4.37-9.75-9.75
					S770.28,376,775.67,376 M775.67,375c-5.93,0-10.75,4.82-10.75,10.75c0,5.93,4.82,10.75,10.75,10.75s10.75-4.82,10.75-10.75
					C786.42,379.82,781.59,375,775.67,375L775.67,375z"/>
			</g>
		</g>
		<g>
			<g>
				<path class="st7" d="M199.54,718.63c5.38,0,9.75,4.37,9.75,9.75c0,5.38-4.37,9.75-9.75,9.75c-5.38,0-9.75-4.37-9.75-9.75
					C189.79,722.99,194.15,718.63,199.54,718.63 M199.54,717.63c-5.93,0-10.75,4.82-10.75,10.75c0,5.93,4.82,10.75,10.75,10.75
					c2.87,0,5.57-1.12,7.6-3.15s3.15-4.73,3.15-7.6C210.29,722.45,205.46,717.63,199.54,717.63L199.54,717.63z"/>
			</g>
			<g>
				<path class="st7" d="M189.8,718.63c5.38,0,9.75,4.37,9.75,9.75s-4.37,9.75-9.75,9.75c-5.38,0-9.75-4.37-9.75-9.75
					C180.05,722.99,184.41,718.63,189.8,718.63 M189.8,717.63c-5.93,0-10.75,4.82-10.75,10.75c0,2.87,1.12,5.57,3.15,7.6
					c2.03,2.03,4.73,3.15,7.6,3.15c5.93,0,10.75-4.82,10.75-10.75S195.73,717.63,189.8,717.63L189.8,717.63z"/>
			</g>
			<g>
				<path class="st7" d="M194.67,708.89c5.38,0,9.75,4.37,9.75,9.75c0,5.38-4.37,9.75-9.75,9.75c-5.38,0-9.75-4.37-9.75-9.75
					C184.92,713.26,189.28,708.89,194.67,708.89 M194.67,707.89c-5.93,0-10.75,4.82-10.75,10.75c0,5.93,4.82,10.75,10.75,10.75
					c5.93,0,10.75-4.82,10.75-10.75C205.42,712.71,200.59,707.89,194.67,707.89L194.67,707.89z"/>
			</g>
		</g>
		<g>
			<g>
				<path class="st7" d="M780.54,718.63c5.38,0,9.75,4.37,9.75,9.75c0,5.38-4.37,9.75-9.75,9.75c-5.38,0-9.75-4.37-9.75-9.75
					S775.15,718.63,780.54,718.63 M780.54,717.63c-5.93,0-10.75,4.82-10.75,10.75s4.82,10.75,10.75,10.75s10.75-4.82,10.75-10.75
					S786.46,717.63,780.54,717.63L780.54,717.63z"/>
			</g>
			<g>
				<path class="st7" d="M770.8,718.63c5.38,0,9.75,4.37,9.75,9.75s-4.37,9.75-9.75,9.75c-5.38,0-9.75-4.37-9.75-9.75
					C761.05,722.99,765.41,718.63,770.8,718.63 M770.8,717.63c-5.93,0-10.75,4.82-10.75,10.75c0,5.93,4.82,10.75,10.75,10.75
					c5.93,0,10.75-4.82,10.75-10.75S776.73,717.63,770.8,717.63L770.8,717.63z"/>
			</g>
			<g>
				<path class="st7" d="M775.67,708.89c5.38,0,9.75,4.37,9.75,9.75c0,5.38-4.37,9.75-9.75,9.75c-5.38,0-9.75-4.37-9.75-9.75
					C765.92,713.26,770.28,708.89,775.67,708.89 M775.67,707.89c-5.93,0-10.75,4.82-10.75,10.75c0,5.93,4.82,10.75,10.75,10.75
					s10.75-4.82,10.75-10.75C786.42,712.71,781.59,707.89,775.67,707.89L775.67,707.89z"/>
			</g>
		</g>
	</g>
	<g id="tt">
		<g>
			<path class="st7" d="M259.43,386c5.38,0,9.75,4.37,9.75,9.75c0,5.38-4.37,9.75-9.75,9.75c-5.38,0-9.75-4.37-9.75-9.75
				C249.68,390.37,254.05,386,259.43,386 M259.43,385c-5.93,0-10.75,4.82-10.75,10.75s4.82,10.75,10.75,10.75
				c5.93,0,10.75-4.82,10.75-10.75S265.36,385,259.43,385L259.43,385z"/>
		</g>
		<g>
			<path class="st7" d="M259.42,376c0.38,0,0.76,0.02,1.14,0.07c5.35,0.63,9.18,5.47,8.55,10.82c-0.58,4.96-4.79,8.62-9.67,8.62
				c-0.38,0-0.76-0.02-1.14-0.07c-5.35-0.63-9.18-5.47-8.55-10.82C250.33,379.65,254.54,376,259.42,376 M259.42,375
				c-5.45,0-10.03,4.08-10.66,9.5c-0.69,5.89,3.54,11.24,9.43,11.92c0.42,0.05,0.84,0.07,1.26,0.07c5.45,0,10.03-4.08,10.66-9.5
				c0.69-5.89-3.54-11.24-9.43-11.92C260.26,375.02,259.84,375,259.42,375L259.42,375z"/>
		</g>
		<g>
			<path class="st7" d="M710.43,386c5.38,0,9.75,4.37,9.75,9.75c0,5.38-4.37,9.75-9.75,9.75c-5.38,0-9.75-4.37-9.75-9.75
				C700.68,390.37,705.05,386,710.43,386 M710.43,385c-5.93,0-10.75,4.82-10.75,10.75s4.82,10.75,10.75,10.75
				s10.75-4.82,10.75-10.75S716.36,385,710.43,385L710.43,385z"/>
		</g>
		<g>
			<path class="st7" d="M710.42,376c0.38,0,0.76,0.02,1.14,0.07c5.35,0.63,9.18,5.47,8.55,10.82c-0.58,4.96-4.79,8.62-9.67,8.62
				c-0.38,0-0.76-0.02-1.14-0.07c-5.35-0.63-9.18-5.47-8.55-10.82C701.33,379.65,705.54,376,710.42,376 M710.42,375
				c-5.45,0-10.03,4.08-10.66,9.5c-0.69,5.89,3.54,11.24,9.43,11.92c0.42,0.05,0.84,0.07,1.26,0.07c5.45,0,10.03-4.08,10.66-9.5
				c0.69-5.89-3.54-11.24-9.43-11.92C711.26,375.02,710.84,375,710.42,375L710.42,375z"/>
		</g>
		<g>
			<path class="st7" d="M129.73,717.9c5.38,0,9.75,4.37,9.75,9.75c0,5.38-4.37,9.75-9.75,9.75c-5.38,0-9.75-4.37-9.75-9.75
				C119.98,722.27,124.34,717.9,129.73,717.9 M129.73,716.9c-5.93,0-10.75,4.82-10.75,10.75s4.82,10.75,10.75,10.75
				c5.93,0,10.75-4.82,10.75-10.75S135.66,716.9,129.73,716.9L129.73,716.9z"/>
		</g>
		<g>
			<path class="st7" d="M129.72,707.9c0.38,0,0.76,0.02,1.14,0.07c5.35,0.63,9.18,5.47,8.55,10.82c-0.58,4.96-4.79,8.62-9.67,8.62
				c-0.38,0-0.76-0.02-1.14-0.07c-5.35-0.63-9.18-5.47-8.55-10.82C120.63,711.56,124.84,707.9,129.72,707.9 M129.72,706.9
				c-5.45,0-10.03,4.08-10.66,9.5c-0.69,5.89,3.54,11.24,9.43,11.92c0.42,0.05,0.84,0.07,1.26,0.07c5.45,0,10.03-4.08,10.66-9.5
				c0.69-5.89-3.54-11.24-9.43-11.92C130.56,706.93,130.14,706.9,129.72,706.9L129.72,706.9z"/>
		</g>
		<g>
			<path class="st7" d="M840.73,717.9c5.38,0,9.75,4.37,9.75,9.75c0,5.38-4.37,9.75-9.75,9.75s-9.75-4.37-9.75-9.75
				C830.98,722.27,835.34,717.9,840.73,717.9 M840.73,716.9c-5.93,0-10.75,4.82-10.75,10.75s4.82,10.75,10.75,10.75
				s10.75-4.82,10.75-10.75S846.66,716.9,840.73,716.9L840.73,716.9z"/>
		</g>
		<g>
			<path class="st7" d="M840.72,707.9c0.38,0,0.76,0.02,1.14,0.07c5.35,0.63,9.18,5.47,8.55,10.82c-0.58,4.96-4.79,8.62-9.67,8.62
				c-0.38,0-0.76-0.02-1.14-0.07c-5.35-0.63-9.18-5.47-8.55-10.82C831.63,711.56,835.84,707.9,840.72,707.9 M840.72,706.9
				c-5.45,0-10.03,4.08-10.66,9.5c-0.69,5.89,3.54,11.24,9.43,11.92c0.42,0.05,0.84,0.07,1.26,0.07c5.45,0,10.03-4.08,10.66-9.5
				c0.69-5.89-3.54-11.24-9.43-11.92C841.56,706.93,841.14,706.9,840.72,706.9L840.72,706.9z"/>
		</g>
	</g>
	<g id="triangles">
		<polygon class="st8" points="64.5,716.63 59.5,707.97 69.5,707.97 		"/>
		<polygon class="st8" points="64.5,761.66 69.5,770.32 59.5,770.32 		"/>
		<polygon class="st8" points="905.5,716.63 900.5,707.97 910.5,707.97 		"/>
		<polygon class="st8" points="905.5,761.66 910.5,770.32 900.5,770.32 		"/>
	</g>
</g>
<g id="tables-solid">
	<g id="t1">
		<path class="st9" d="M917,56V16c-0.01-2.7-3.3-5.01-6-5L60,12c-2.7,0.01-5.01,1.3-5,4v7v33c0.01,2.7,2.3,5.01,5,5l851-1
			C913.7,59.99,917.01,58.7,917,56L917,56z"/>
	</g>
</g>
<g id="text">
	<g id="px16">
		<text transform="matrix(1 0 0 1 82.9294 850.2812)" class="st7 st10 st11">17</text>
		<text transform="matrix(1 0 0 1 923.9326 850.2812)" class="st7 st10 st11">20</text>
		<text transform="matrix(1 0 0 1 760.7871 753.8215)" class="st7 st10 st11">ТН-2 </text>
		<text transform="matrix(1 0 0 1 181.3471 753.8215)" class="st7 st10 st11">ТН-1</text>
		<text transform="matrix(1 0 0 1 181.3471 420.931)" class="st7 st10 st11">ТН-1</text>
		<text transform="matrix(1 0 0 1 823.8815 753.8214)" class="st7 st10 st11">ТСН-2</text>
		<text transform="matrix(1 0 0 1 762.3472 420.931)" class="st7 st10 st11">ТН-2</text>
		<text transform="matrix(1 0 0 1 112.8815 753.8214)" class="st7 st10 st11">ТСН-1</text>
		<text transform="matrix(1 0 0 1 725.7162 397.103)" class="st7 st10 st11">Т2</text>
		<text transform="matrix(1 0 0 1 274.7162 397.103)" class="st7 st10 st11">Т1</text>
	</g>
	<g id="px12">
		<text transform="matrix(1 0 0 1 891.7563 929.6582)" class="st7 st10 st12">2С-0,4</text>
		<text transform="matrix(1 0 0 1 50.7563 928.9166)" class="st7 st10 st12">1С-0,4</text>
		<text transform="matrix(1 0 0 1 56.5908 576.7695)" class="st7 st10 st12">№7</text>
		<text transform="matrix(1 0 0 1 238.2112 576.7695)" class="st7 st10 st12">№1</text>
		<text transform="matrix(1 0 0 1 121.5908 576.7695)" class="st7 st10 st12">№5</text>
		<text transform="matrix(1 0 0 1 186.5908 576.1914)" class="st7 st10 st12">№3</text>
		<text transform="matrix(1 0 0 1 186.5908 260.9287)" class="st7 st10 st12">№3</text>
		<text transform="matrix(1 -2.000000e-05 2.000000e-05 1 134.1801 260.9391)" class="st7 st10 st12">№1</text>
		<text transform="matrix(1 0 0 1 897.5908 577.5068)" class="st7 st10 st12">№8</text>
		<text transform="matrix(1 0 0 1 688.5713 577.5068)" class="st7 st10 st12">№2</text>
		<text transform="matrix(1 0 0 1 832.5908 577.5068)" class="st7 st10 st12">№6</text>
		<text transform="matrix(1 0 0 1 768.5789 577.5068)" class="st7 st10 st12">№4</text>
		<text transform="matrix(1 0 0 1 766.3362 260.9287)" class="st7 st10 st12">№4</text>
		<text transform="matrix(1 0 0 1 817.6755 260.9287)" class="st7 st10 st12">№2</text>
	</g>
	<g id="px20">
		<text transform="matrix(1 0 0 1 457.5173 183.2783)" class="st7 st10 st13">РУ-35кВ</text>
		<text transform="matrix(1 0 0 1 928.6663 589.3486)" class="st7 st10 st13">2C-6</text>
		<text transform="matrix(1 0 0 1 863.6663 276.3481)" class="st7 st10 st13">2C-35</text>
		<text transform="matrix(1 0 0 1 11 588.9033)" class="st7 st10 st13">1C-6</text>
		<text transform="matrix(1 0 0 1 69.6714 276.9033)" class="st7 st10 st13">2C-35</text>
		<text transform="matrix(1 0 0 1 461.8171 586.2783)" class="st7 st10 st13">РУ-6кВ</text>
	</g>
	<g id="px21">
		<g>
			<text transform="matrix(1 -2.470000e-03 2.470000e-03 1 409.7379 44.1906)" class="st14 st10 st15">ПС 35кВ Ямальская</text>
		</g>
	</g>
	<g id="px14">
		<text transform="matrix(1 0 0 1 797.2749 112.8481)" class="st7 st10 st16">4ЛР-35</text>
		<text transform="matrix(1 0 0 1 86.3442 112.4033)" class="st7 st10 st16">3ЛР-35</text>
		<text transform="matrix(1 0 0 1 663.2861 325.3506)" class="st7 st10 st16">2УР-35</text>
		<text transform="matrix(1 0 0 1 274.2693 325.3506)" class="st7 st10 st16">1УР-35</text>
	</g>
</g>
<g id="helpers">
</g>
</svg>
